G04 #@! TF.GenerationSoftware,KiCad,Pcbnew,(5.1.4)-1*
G04 #@! TF.CreationDate,2019-10-09T17:37:27-04:00*
G04 #@! TF.ProjectId,MorseTutor3,4d6f7273-6554-4757-946f-72332e6b6963,rev?*
G04 #@! TF.SameCoordinates,Original*
G04 #@! TF.FileFunction,Copper,L2,Bot*
G04 #@! TF.FilePolarity,Positive*
%FSLAX46Y46*%
G04 Gerber Fmt 4.6, Leading zero omitted, Abs format (unit mm)*
G04 Created by KiCad (PCBNEW (5.1.4)-1) date 2019-10-09 17:37:27*
%MOMM*%
%LPD*%
G04 APERTURE LIST*
%ADD10C,2.000000*%
%ADD11C,1.560000*%
%ADD12R,1.560000X1.560000*%
%ADD13O,1.800000X2.000000*%
%ADD14C,1.524000*%
%ADD15R,2.600000X2.600000*%
%ADD16C,2.600000*%
%ADD17C,1.600000*%
%ADD18O,1.600000X1.600000*%
%ADD19R,1.500000X2.500000*%
%ADD20O,1.500000X2.500000*%
%ADD21O,2.200000X3.500000*%
%ADD22O,1.700000X1.700000*%
%ADD23R,1.700000X1.700000*%
%ADD24R,2.800000X3.600000*%
%ADD25R,2.250000X1.727200*%
%ADD26O,2.250000X1.727200*%
%ADD27C,1.800000*%
%ADD28C,4.000000*%
%ADD29C,0.685800*%
%ADD30C,0.254000*%
%ADD31C,0.203200*%
%ADD32C,0.508000*%
G04 APERTURE END LIST*
D10*
X146170000Y-64135000D03*
X161170000Y-64135000D03*
D11*
X113970000Y-99910000D03*
X75870000Y-99910000D03*
X96190000Y-99910000D03*
X98730000Y-99910000D03*
X108890000Y-99910000D03*
X83490000Y-99910000D03*
X73330000Y-99910000D03*
X91110000Y-99910000D03*
X111430000Y-99910000D03*
X93650000Y-99910000D03*
X116510000Y-99910000D03*
X106350000Y-99910000D03*
X86030000Y-99910000D03*
X78410000Y-99910000D03*
D12*
X70790000Y-99910000D03*
D11*
X80950000Y-99910000D03*
X88570000Y-99910000D03*
X101270000Y-99910000D03*
X103810000Y-99910000D03*
X70790000Y-77050000D03*
X73330000Y-77050000D03*
X75870000Y-77050000D03*
X78410000Y-77050000D03*
X80950000Y-77050000D03*
X83490000Y-77050000D03*
X86030000Y-77050000D03*
X88570000Y-77050000D03*
X91110000Y-77050000D03*
X93650000Y-77050000D03*
X96190000Y-77050000D03*
X98730000Y-77050000D03*
X101270000Y-77050000D03*
X103810000Y-77050000D03*
X106350000Y-77050000D03*
X108890000Y-77050000D03*
X111430000Y-77050000D03*
X113970000Y-77050000D03*
X116510000Y-77050000D03*
X113970000Y-102450000D03*
X111430000Y-102450000D03*
X108890000Y-102450000D03*
X106350000Y-102450000D03*
X103810000Y-102450000D03*
X101270000Y-102450000D03*
X98730000Y-102450000D03*
X96190000Y-102450000D03*
X93650000Y-102450000D03*
X91110000Y-102450000D03*
X88570000Y-102450000D03*
X86030000Y-102450000D03*
X83490000Y-102450000D03*
X80950000Y-102450000D03*
X78410000Y-102450000D03*
X75870000Y-102450000D03*
X116510000Y-102450000D03*
X73330000Y-102450000D03*
D12*
X70790000Y-102450000D03*
D13*
X141050000Y-43600000D03*
X143550000Y-43600000D03*
X151050000Y-43600000D03*
X148550000Y-43600000D03*
X146050000Y-38100000D03*
X156290000Y-43500000D03*
X158790000Y-43500000D03*
X166290000Y-43500000D03*
X163790000Y-43500000D03*
X161290000Y-38000000D03*
D14*
X153670000Y-82575000D03*
X151130000Y-82575000D03*
X140970000Y-82575000D03*
X138450000Y-82575000D03*
X153670000Y-101575000D03*
X151130000Y-101575000D03*
X143510000Y-101575000D03*
X140970000Y-101575000D03*
X138450000Y-101575000D03*
D15*
X61595000Y-46990000D03*
D16*
X61595000Y-40990000D03*
X56895000Y-43990000D03*
D17*
X65000000Y-65000000D03*
D18*
X65000000Y-54840000D03*
X125840000Y-79000000D03*
D17*
X136000000Y-79000000D03*
D19*
X52070000Y-37465000D03*
D20*
X50070000Y-37465000D03*
X48070000Y-37465000D03*
D21*
X54170000Y-37465000D03*
X45970000Y-37465000D03*
D22*
X48915000Y-100000000D03*
D23*
X46375000Y-100000000D03*
X54630000Y-100000000D03*
D22*
X57170000Y-100000000D03*
D23*
X39500000Y-45500000D03*
D22*
X39500000Y-48040000D03*
D24*
X121500000Y-92000000D03*
X132900000Y-92000000D03*
D10*
X124700000Y-85000000D03*
X129700000Y-85000000D03*
X124700000Y-99500000D03*
X127200000Y-99500000D03*
X129700000Y-99500000D03*
D14*
X57260000Y-54000000D03*
X39260000Y-54000000D03*
X39260000Y-94000000D03*
X57260000Y-94000000D03*
D25*
X71120000Y-45000000D03*
D26*
X71120000Y-47540000D03*
X71120000Y-50080000D03*
X71120000Y-52620000D03*
X71120000Y-55160000D03*
X71120000Y-57700000D03*
X71120000Y-60240000D03*
X71120000Y-62780000D03*
X71120000Y-65320000D03*
X134640000Y-57700000D03*
X134640000Y-55160000D03*
X134640000Y-52620000D03*
D25*
X134640000Y-50080000D03*
D26*
X134640000Y-60240000D03*
D27*
X160060000Y-99475000D03*
X162560000Y-99475000D03*
X165060000Y-99475000D03*
D28*
X158160000Y-92475000D03*
X166960000Y-92475000D03*
D29*
X84500000Y-79499998D03*
X63750000Y-77750000D03*
X83500000Y-67250000D03*
X91440000Y-67310000D03*
X88570000Y-67320000D03*
X90450000Y-57700000D03*
D30*
X146050000Y-64015000D02*
X146170000Y-64135000D01*
X146050000Y-38100000D02*
X146050000Y-64015000D01*
X88570000Y-102200000D02*
X88570000Y-83569998D01*
X88570000Y-83569998D02*
X84842899Y-79842897D01*
D31*
X84842899Y-79842897D02*
X84500000Y-79499998D01*
D30*
X86030000Y-102200000D02*
X86030000Y-84280000D01*
D31*
X86030000Y-84280000D02*
X86030000Y-84220000D01*
D30*
X80750000Y-79000000D02*
X86030000Y-84280000D01*
X65015073Y-79000000D02*
X80750000Y-79000000D01*
X64250000Y-78234927D02*
X65015073Y-79000000D01*
X63750000Y-77750000D02*
X64234927Y-78234927D01*
X64234927Y-78234927D02*
X64250000Y-78234927D01*
X67220000Y-62780000D02*
X65000000Y-65000000D01*
X71120000Y-62780000D02*
X67220000Y-62780000D01*
D31*
X119380000Y-85090000D02*
X120910000Y-85090000D01*
D30*
X120910000Y-85090000D02*
X124500000Y-81500000D01*
X125840000Y-80160000D02*
X125840000Y-79000000D01*
X124500000Y-81500000D02*
X125840000Y-80160000D01*
D31*
X106350000Y-102450000D02*
X106350000Y-101346914D01*
D30*
X106350000Y-95650000D02*
X116910000Y-85090000D01*
X106350000Y-101346914D02*
X106350000Y-95650000D01*
X116910000Y-85090000D02*
X120910000Y-85090000D01*
X162560000Y-98202208D02*
X162560000Y-99475000D01*
X162147792Y-97790000D02*
X162560000Y-98202208D01*
X140335000Y-97790000D02*
X162147792Y-97790000D01*
X138450000Y-99675000D02*
X140335000Y-97790000D01*
X138450000Y-101575000D02*
X138450000Y-99675000D01*
X83500000Y-67250000D02*
X83500000Y-58320000D01*
X83500000Y-58320000D02*
X83500000Y-57250000D01*
X81410000Y-55160000D02*
X71120000Y-55160000D01*
X83500000Y-57250000D02*
X81410000Y-55160000D01*
D31*
X134378600Y-50080000D02*
X134640000Y-50080000D01*
D30*
X101050000Y-57700000D02*
X99750000Y-59000000D01*
X134640000Y-57700000D02*
X101050000Y-57700000D01*
D31*
X100330000Y-58420000D02*
X99750000Y-59000000D01*
D30*
X99750000Y-59000000D02*
X91440000Y-67310000D01*
X133221800Y-55250000D02*
X100500000Y-55250000D01*
D31*
X100375000Y-55375000D02*
X99000014Y-56749986D01*
D30*
X88570000Y-67180000D02*
X100375000Y-55375000D01*
D31*
X88570000Y-67320000D02*
X88570000Y-67180000D01*
D30*
X100500000Y-55250000D02*
X100375000Y-55375000D01*
X133261000Y-55160000D02*
X134640000Y-55160000D01*
X133221800Y-55199200D02*
X133261000Y-55160000D01*
X133221800Y-55250000D02*
X133221800Y-55199200D01*
X95650000Y-52500000D02*
X90450000Y-57700000D01*
X133191800Y-52500000D02*
X95650000Y-52500000D01*
X133261000Y-52620000D02*
X134640000Y-52620000D01*
X133191800Y-52550800D02*
X133261000Y-52620000D01*
X133191800Y-52500000D02*
X133191800Y-52550800D01*
D32*
X50070000Y-37465000D02*
X50070000Y-42450000D01*
X50070000Y-42450000D02*
X57260000Y-49640000D01*
X57260000Y-49640000D02*
X57260000Y-54000000D01*
D30*
G36*
X44520422Y-35846422D02*
G01*
X44359315Y-36147832D01*
X44260105Y-36474881D01*
X44235000Y-36729775D01*
X44235000Y-38200224D01*
X44260105Y-38455118D01*
X44359314Y-38782167D01*
X44520421Y-39083577D01*
X44737234Y-39347766D01*
X45001422Y-39564579D01*
X45302832Y-39725686D01*
X45629881Y-39824895D01*
X45970000Y-39858394D01*
X46310118Y-39824895D01*
X46637167Y-39725686D01*
X46938577Y-39564579D01*
X47202766Y-39347766D01*
X47360139Y-39156006D01*
X47537419Y-39250764D01*
X47798493Y-39329960D01*
X48070000Y-39356701D01*
X48341506Y-39329960D01*
X48602580Y-39250764D01*
X48843187Y-39122157D01*
X49054080Y-38949081D01*
X49070000Y-38929683D01*
X49085919Y-38949080D01*
X49181000Y-39027112D01*
X49181001Y-42406330D01*
X49176700Y-42450000D01*
X49193864Y-42624274D01*
X49244698Y-42791852D01*
X49307711Y-42909740D01*
X49327248Y-42946291D01*
X49438342Y-43081659D01*
X49472259Y-43109494D01*
X56371000Y-50008236D01*
X56371001Y-52913854D01*
X56369465Y-52914880D01*
X56174880Y-53109465D01*
X56021995Y-53338273D01*
X55916686Y-53592510D01*
X55863000Y-53862408D01*
X55863000Y-54137592D01*
X55916686Y-54407490D01*
X56021995Y-54661727D01*
X56174880Y-54890535D01*
X56369465Y-55085120D01*
X56598273Y-55238005D01*
X56852510Y-55343314D01*
X57122408Y-55397000D01*
X57397592Y-55397000D01*
X57667490Y-55343314D01*
X57921727Y-55238005D01*
X58150535Y-55085120D01*
X58345120Y-54890535D01*
X58378886Y-54840000D01*
X63558057Y-54840000D01*
X63585764Y-55121309D01*
X63667818Y-55391808D01*
X63801068Y-55641101D01*
X63980392Y-55859608D01*
X64198899Y-56038932D01*
X64448192Y-56172182D01*
X64718691Y-56254236D01*
X64929508Y-56275000D01*
X65070492Y-56275000D01*
X65281309Y-56254236D01*
X65551808Y-56172182D01*
X65801101Y-56038932D01*
X66019608Y-55859608D01*
X66198932Y-55641101D01*
X66332182Y-55391808D01*
X66414236Y-55121309D01*
X66441943Y-54840000D01*
X66414236Y-54558691D01*
X66332182Y-54288192D01*
X66198932Y-54038899D01*
X66019608Y-53820392D01*
X65801101Y-53641068D01*
X65551808Y-53507818D01*
X65281309Y-53425764D01*
X65070492Y-53405000D01*
X64929508Y-53405000D01*
X64718691Y-53425764D01*
X64448192Y-53507818D01*
X64198899Y-53641068D01*
X63980392Y-53820392D01*
X63801068Y-54038899D01*
X63667818Y-54288192D01*
X63585764Y-54558691D01*
X63558057Y-54840000D01*
X58378886Y-54840000D01*
X58498005Y-54661727D01*
X58603314Y-54407490D01*
X58657000Y-54137592D01*
X58657000Y-53862408D01*
X58603314Y-53592510D01*
X58498005Y-53338273D01*
X58345120Y-53109465D01*
X58150535Y-52914880D01*
X58149000Y-52913854D01*
X58149000Y-49683668D01*
X58153301Y-49640000D01*
X58136136Y-49465725D01*
X58115039Y-49396178D01*
X58085303Y-49298149D01*
X58002753Y-49143709D01*
X57891659Y-49008341D01*
X57857743Y-48980507D01*
X52676655Y-43799419D01*
X54960000Y-43799419D01*
X54960000Y-44180581D01*
X55034361Y-44554419D01*
X55180225Y-44906566D01*
X55391987Y-45223491D01*
X55661509Y-45493013D01*
X55978434Y-45704775D01*
X56330581Y-45850639D01*
X56704419Y-45925000D01*
X57085581Y-45925000D01*
X57459419Y-45850639D01*
X57811566Y-45704775D01*
X57833678Y-45690000D01*
X59656928Y-45690000D01*
X59656928Y-48290000D01*
X59669188Y-48414482D01*
X59705498Y-48534180D01*
X59764463Y-48644494D01*
X59843815Y-48741185D01*
X59940506Y-48820537D01*
X60050820Y-48879502D01*
X60170518Y-48915812D01*
X60295000Y-48928072D01*
X62895000Y-48928072D01*
X63019482Y-48915812D01*
X63139180Y-48879502D01*
X63249494Y-48820537D01*
X63346185Y-48741185D01*
X63425537Y-48644494D01*
X63484502Y-48534180D01*
X63520812Y-48414482D01*
X63533072Y-48290000D01*
X63533072Y-47540000D01*
X69352749Y-47540000D01*
X69381684Y-47833777D01*
X69467375Y-48116264D01*
X69606531Y-48376606D01*
X69793803Y-48604797D01*
X70021994Y-48792069D01*
X70055540Y-48810000D01*
X70021994Y-48827931D01*
X69793803Y-49015203D01*
X69606531Y-49243394D01*
X69467375Y-49503736D01*
X69381684Y-49786223D01*
X69352749Y-50080000D01*
X69381684Y-50373777D01*
X69467375Y-50656264D01*
X69606531Y-50916606D01*
X69793803Y-51144797D01*
X70021994Y-51332069D01*
X70055540Y-51350000D01*
X70021994Y-51367931D01*
X69793803Y-51555203D01*
X69606531Y-51783394D01*
X69467375Y-52043736D01*
X69381684Y-52326223D01*
X69352749Y-52620000D01*
X69381684Y-52913777D01*
X69467375Y-53196264D01*
X69606531Y-53456606D01*
X69793803Y-53684797D01*
X70021994Y-53872069D01*
X70055540Y-53890000D01*
X70021994Y-53907931D01*
X69793803Y-54095203D01*
X69606531Y-54323394D01*
X69467375Y-54583736D01*
X69381684Y-54866223D01*
X69352749Y-55160000D01*
X69381684Y-55453777D01*
X69467375Y-55736264D01*
X69606531Y-55996606D01*
X69793803Y-56224797D01*
X70021994Y-56412069D01*
X70055540Y-56430000D01*
X70021994Y-56447931D01*
X69793803Y-56635203D01*
X69606531Y-56863394D01*
X69467375Y-57123736D01*
X69381684Y-57406223D01*
X69352749Y-57700000D01*
X69381684Y-57993777D01*
X69467375Y-58276264D01*
X69606531Y-58536606D01*
X69793803Y-58764797D01*
X70021994Y-58952069D01*
X70055540Y-58970000D01*
X70021994Y-58987931D01*
X69793803Y-59175203D01*
X69606531Y-59403394D01*
X69467375Y-59663736D01*
X69381684Y-59946223D01*
X69352749Y-60240000D01*
X69381684Y-60533777D01*
X69467375Y-60816264D01*
X69606531Y-61076606D01*
X69793803Y-61304797D01*
X70021994Y-61492069D01*
X70061353Y-61513107D01*
X69920426Y-61604517D01*
X69709127Y-61810132D01*
X69542002Y-62053019D01*
X69425473Y-62323843D01*
X69403642Y-62420974D01*
X69524783Y-62653000D01*
X70993000Y-62653000D01*
X70993000Y-62633000D01*
X71247000Y-62633000D01*
X71247000Y-62653000D01*
X72715217Y-62653000D01*
X72836358Y-62420974D01*
X72814527Y-62323843D01*
X72697998Y-62053019D01*
X72530873Y-61810132D01*
X72319574Y-61604517D01*
X72178647Y-61513107D01*
X72218006Y-61492069D01*
X72446197Y-61304797D01*
X72633469Y-61076606D01*
X72772625Y-60816264D01*
X72858316Y-60533777D01*
X72887251Y-60240000D01*
X72858316Y-59946223D01*
X72772625Y-59663736D01*
X72633469Y-59403394D01*
X72446197Y-59175203D01*
X72218006Y-58987931D01*
X72184460Y-58970000D01*
X72218006Y-58952069D01*
X72446197Y-58764797D01*
X72633469Y-58536606D01*
X72772625Y-58276264D01*
X72858316Y-57993777D01*
X72887251Y-57700000D01*
X72858316Y-57406223D01*
X72772625Y-57123736D01*
X72633469Y-56863394D01*
X72446197Y-56635203D01*
X72218006Y-56447931D01*
X72184460Y-56430000D01*
X72218006Y-56412069D01*
X72446197Y-56224797D01*
X72633469Y-55996606D01*
X72673347Y-55922000D01*
X81094370Y-55922000D01*
X82738001Y-57565632D01*
X82738000Y-58357425D01*
X82738001Y-58357435D01*
X82738000Y-66630239D01*
X82633396Y-66786790D01*
X82559680Y-66964757D01*
X82522100Y-67153685D01*
X82522100Y-67346315D01*
X82559680Y-67535243D01*
X82633396Y-67713210D01*
X82740415Y-67873375D01*
X82876625Y-68009585D01*
X83036790Y-68116604D01*
X83214757Y-68190320D01*
X83403685Y-68227900D01*
X83596315Y-68227900D01*
X83785243Y-68190320D01*
X83963210Y-68116604D01*
X84123375Y-68009585D01*
X84259585Y-67873375D01*
X84366604Y-67713210D01*
X84440320Y-67535243D01*
X84477900Y-67346315D01*
X84477900Y-67223685D01*
X87592100Y-67223685D01*
X87592100Y-67416315D01*
X87629680Y-67605243D01*
X87703396Y-67783210D01*
X87810415Y-67943375D01*
X87946625Y-68079585D01*
X88106790Y-68186604D01*
X88284757Y-68260320D01*
X88473685Y-68297900D01*
X88666315Y-68297900D01*
X88855243Y-68260320D01*
X89033210Y-68186604D01*
X89193375Y-68079585D01*
X89329585Y-67943375D01*
X89436604Y-67783210D01*
X89510320Y-67605243D01*
X89547900Y-67416315D01*
X89547900Y-67279730D01*
X100815631Y-56012000D01*
X133139165Y-56012000D01*
X133313803Y-56224797D01*
X133541994Y-56412069D01*
X133575540Y-56430000D01*
X133541994Y-56447931D01*
X133313803Y-56635203D01*
X133126531Y-56863394D01*
X133086653Y-56938000D01*
X101087423Y-56938000D01*
X101050000Y-56934314D01*
X101012577Y-56938000D01*
X101012574Y-56938000D01*
X100900622Y-56949026D01*
X100756985Y-56992598D01*
X100695364Y-57025535D01*
X100624607Y-57063355D01*
X100608438Y-57076625D01*
X100508578Y-57158578D01*
X100484716Y-57187654D01*
X91339422Y-66332948D01*
X91154757Y-66369680D01*
X90976790Y-66443396D01*
X90816625Y-66550415D01*
X90680415Y-66686625D01*
X90573396Y-66846790D01*
X90499680Y-67024757D01*
X90462100Y-67213685D01*
X90462100Y-67406315D01*
X90499680Y-67595243D01*
X90573396Y-67773210D01*
X90680415Y-67933375D01*
X90816625Y-68069585D01*
X90976790Y-68176604D01*
X91154757Y-68250320D01*
X91343685Y-68287900D01*
X91536315Y-68287900D01*
X91725243Y-68250320D01*
X91903210Y-68176604D01*
X92063375Y-68069585D01*
X92199585Y-67933375D01*
X92306604Y-67773210D01*
X92380320Y-67595243D01*
X92417052Y-67410578D01*
X101365630Y-58462000D01*
X133086653Y-58462000D01*
X133126531Y-58536606D01*
X133313803Y-58764797D01*
X133541994Y-58952069D01*
X133575540Y-58970000D01*
X133541994Y-58987931D01*
X133313803Y-59175203D01*
X133126531Y-59403394D01*
X132987375Y-59663736D01*
X132901684Y-59946223D01*
X132872749Y-60240000D01*
X132901684Y-60533777D01*
X132987375Y-60816264D01*
X133126531Y-61076606D01*
X133313803Y-61304797D01*
X133541994Y-61492069D01*
X133802336Y-61631225D01*
X134084823Y-61716916D01*
X134304981Y-61738600D01*
X134975019Y-61738600D01*
X135195177Y-61716916D01*
X135477664Y-61631225D01*
X135738006Y-61492069D01*
X135966197Y-61304797D01*
X136153469Y-61076606D01*
X136292625Y-60816264D01*
X136378316Y-60533777D01*
X136407251Y-60240000D01*
X136378316Y-59946223D01*
X136292625Y-59663736D01*
X136153469Y-59403394D01*
X135966197Y-59175203D01*
X135738006Y-58987931D01*
X135704460Y-58970000D01*
X135738006Y-58952069D01*
X135966197Y-58764797D01*
X136153469Y-58536606D01*
X136292625Y-58276264D01*
X136378316Y-57993777D01*
X136407251Y-57700000D01*
X136378316Y-57406223D01*
X136292625Y-57123736D01*
X136153469Y-56863394D01*
X135966197Y-56635203D01*
X135738006Y-56447931D01*
X135704460Y-56430000D01*
X135738006Y-56412069D01*
X135966197Y-56224797D01*
X136153469Y-55996606D01*
X136292625Y-55736264D01*
X136378316Y-55453777D01*
X136407251Y-55160000D01*
X136378316Y-54866223D01*
X136292625Y-54583736D01*
X136153469Y-54323394D01*
X135966197Y-54095203D01*
X135738006Y-53907931D01*
X135704460Y-53890000D01*
X135738006Y-53872069D01*
X135966197Y-53684797D01*
X136153469Y-53456606D01*
X136292625Y-53196264D01*
X136378316Y-52913777D01*
X136407251Y-52620000D01*
X136378316Y-52326223D01*
X136292625Y-52043736D01*
X136153469Y-51783394D01*
X135966197Y-51555203D01*
X135958135Y-51548586D01*
X136009180Y-51533102D01*
X136119494Y-51474137D01*
X136216185Y-51394785D01*
X136295537Y-51298094D01*
X136354502Y-51187780D01*
X136390812Y-51068082D01*
X136403072Y-50943600D01*
X136403072Y-49216400D01*
X136390812Y-49091918D01*
X136354502Y-48972220D01*
X136295537Y-48861906D01*
X136216185Y-48765215D01*
X136119494Y-48685863D01*
X136009180Y-48626898D01*
X135889482Y-48590588D01*
X135765000Y-48578328D01*
X133515000Y-48578328D01*
X133390518Y-48590588D01*
X133270820Y-48626898D01*
X133160506Y-48685863D01*
X133063815Y-48765215D01*
X132984463Y-48861906D01*
X132925498Y-48972220D01*
X132889188Y-49091918D01*
X132876928Y-49216400D01*
X132876928Y-50943600D01*
X132889188Y-51068082D01*
X132925498Y-51187780D01*
X132984463Y-51298094D01*
X133063815Y-51394785D01*
X133160506Y-51474137D01*
X133270820Y-51533102D01*
X133321865Y-51548586D01*
X133313803Y-51555203D01*
X133164613Y-51736992D01*
X133154374Y-51738000D01*
X95687423Y-51738000D01*
X95650000Y-51734314D01*
X95612577Y-51738000D01*
X95612574Y-51738000D01*
X95500622Y-51749026D01*
X95356985Y-51792598D01*
X95295364Y-51825535D01*
X95224607Y-51863355D01*
X95182219Y-51898143D01*
X95108578Y-51958578D01*
X95084716Y-51987654D01*
X90349422Y-56722948D01*
X90164757Y-56759680D01*
X89986790Y-56833396D01*
X89826625Y-56940415D01*
X89690415Y-57076625D01*
X89583396Y-57236790D01*
X89509680Y-57414757D01*
X89472100Y-57603685D01*
X89472100Y-57796315D01*
X89509680Y-57985243D01*
X89583396Y-58163210D01*
X89690415Y-58323375D01*
X89826625Y-58459585D01*
X89986790Y-58566604D01*
X90164757Y-58640320D01*
X90353685Y-58677900D01*
X90546315Y-58677900D01*
X90735243Y-58640320D01*
X90913210Y-58566604D01*
X91073375Y-58459585D01*
X91209585Y-58323375D01*
X91316604Y-58163210D01*
X91390320Y-57985243D01*
X91427052Y-57800578D01*
X95965630Y-53262000D01*
X132845626Y-53262000D01*
X132967985Y-53327402D01*
X133074787Y-53359800D01*
X133126531Y-53456606D01*
X133313803Y-53684797D01*
X133541994Y-53872069D01*
X133575540Y-53890000D01*
X133541994Y-53907931D01*
X133313803Y-54095203D01*
X133126531Y-54323394D01*
X133074787Y-54420200D01*
X132967985Y-54452598D01*
X132901753Y-54488000D01*
X100537423Y-54488000D01*
X100500000Y-54484314D01*
X100462577Y-54488000D01*
X100462574Y-54488000D01*
X100350622Y-54499026D01*
X100206985Y-54542598D01*
X100074608Y-54613355D01*
X99958578Y-54708578D01*
X99934713Y-54737658D01*
X99862655Y-54809715D01*
X99862648Y-54809721D01*
X88294660Y-66377710D01*
X88284757Y-66379680D01*
X88106790Y-66453396D01*
X87946625Y-66560415D01*
X87810415Y-66696625D01*
X87703396Y-66856790D01*
X87629680Y-67034757D01*
X87592100Y-67223685D01*
X84477900Y-67223685D01*
X84477900Y-67153685D01*
X84440320Y-66964757D01*
X84366604Y-66786790D01*
X84262000Y-66630239D01*
X84262000Y-57287422D01*
X84265686Y-57249999D01*
X84256940Y-57161198D01*
X84250974Y-57100622D01*
X84207402Y-56956985D01*
X84136645Y-56824608D01*
X84041422Y-56708578D01*
X84012352Y-56684721D01*
X81975284Y-54647654D01*
X81951422Y-54618578D01*
X81835392Y-54523355D01*
X81703015Y-54452598D01*
X81559378Y-54409026D01*
X81447426Y-54398000D01*
X81447423Y-54398000D01*
X81410000Y-54394314D01*
X81372577Y-54398000D01*
X72673347Y-54398000D01*
X72633469Y-54323394D01*
X72446197Y-54095203D01*
X72218006Y-53907931D01*
X72184460Y-53890000D01*
X72218006Y-53872069D01*
X72446197Y-53684797D01*
X72633469Y-53456606D01*
X72772625Y-53196264D01*
X72858316Y-52913777D01*
X72887251Y-52620000D01*
X72858316Y-52326223D01*
X72772625Y-52043736D01*
X72633469Y-51783394D01*
X72446197Y-51555203D01*
X72218006Y-51367931D01*
X72184460Y-51350000D01*
X72218006Y-51332069D01*
X72446197Y-51144797D01*
X72633469Y-50916606D01*
X72772625Y-50656264D01*
X72858316Y-50373777D01*
X72887251Y-50080000D01*
X72858316Y-49786223D01*
X72772625Y-49503736D01*
X72633469Y-49243394D01*
X72446197Y-49015203D01*
X72218006Y-48827931D01*
X72184460Y-48810000D01*
X72218006Y-48792069D01*
X72446197Y-48604797D01*
X72633469Y-48376606D01*
X72772625Y-48116264D01*
X72858316Y-47833777D01*
X72887251Y-47540000D01*
X72858316Y-47246223D01*
X72772625Y-46963736D01*
X72633469Y-46703394D01*
X72446197Y-46475203D01*
X72438135Y-46468586D01*
X72489180Y-46453102D01*
X72599494Y-46394137D01*
X72696185Y-46314785D01*
X72775537Y-46218094D01*
X72834502Y-46107780D01*
X72870812Y-45988082D01*
X72883072Y-45863600D01*
X72880000Y-45285750D01*
X72721250Y-45127000D01*
X71247000Y-45127000D01*
X71247000Y-45147000D01*
X70993000Y-45147000D01*
X70993000Y-45127000D01*
X69518750Y-45127000D01*
X69360000Y-45285750D01*
X69356928Y-45863600D01*
X69369188Y-45988082D01*
X69405498Y-46107780D01*
X69464463Y-46218094D01*
X69543815Y-46314785D01*
X69640506Y-46394137D01*
X69750820Y-46453102D01*
X69801865Y-46468586D01*
X69793803Y-46475203D01*
X69606531Y-46703394D01*
X69467375Y-46963736D01*
X69381684Y-47246223D01*
X69352749Y-47540000D01*
X63533072Y-47540000D01*
X63533072Y-45690000D01*
X63520812Y-45565518D01*
X63484502Y-45445820D01*
X63425537Y-45335506D01*
X63346185Y-45238815D01*
X63249494Y-45159463D01*
X63139180Y-45100498D01*
X63019482Y-45064188D01*
X62895000Y-45051928D01*
X60295000Y-45051928D01*
X60170518Y-45064188D01*
X60050820Y-45100498D01*
X59940506Y-45159463D01*
X59843815Y-45238815D01*
X59764463Y-45335506D01*
X59705498Y-45445820D01*
X59669188Y-45565518D01*
X59656928Y-45690000D01*
X57833678Y-45690000D01*
X58128491Y-45493013D01*
X58398013Y-45223491D01*
X58609775Y-44906566D01*
X58755639Y-44554419D01*
X58830000Y-44180581D01*
X58830000Y-44136400D01*
X69356928Y-44136400D01*
X69360000Y-44714250D01*
X69518750Y-44873000D01*
X70993000Y-44873000D01*
X70993000Y-43660150D01*
X71247000Y-43660150D01*
X71247000Y-44873000D01*
X72721250Y-44873000D01*
X72880000Y-44714250D01*
X72883072Y-44136400D01*
X72870812Y-44011918D01*
X72834502Y-43892220D01*
X72775537Y-43781906D01*
X72696185Y-43685215D01*
X72599494Y-43605863D01*
X72489180Y-43546898D01*
X72369482Y-43510588D01*
X72245000Y-43498328D01*
X71405750Y-43501400D01*
X71247000Y-43660150D01*
X70993000Y-43660150D01*
X70834250Y-43501400D01*
X69995000Y-43498328D01*
X69870518Y-43510588D01*
X69750820Y-43546898D01*
X69640506Y-43605863D01*
X69543815Y-43685215D01*
X69464463Y-43781906D01*
X69405498Y-43892220D01*
X69369188Y-44011918D01*
X69356928Y-44136400D01*
X58830000Y-44136400D01*
X58830000Y-43799419D01*
X58755639Y-43425581D01*
X58755230Y-43424592D01*
X139515000Y-43424592D01*
X139515000Y-43775407D01*
X139537210Y-44000912D01*
X139624983Y-44290260D01*
X139767519Y-44556926D01*
X139959339Y-44790661D01*
X140193073Y-44982481D01*
X140459739Y-45125017D01*
X140749087Y-45212790D01*
X141050000Y-45242427D01*
X141350912Y-45212790D01*
X141640260Y-45125017D01*
X141906926Y-44982481D01*
X142140661Y-44790661D01*
X142300000Y-44596505D01*
X142459339Y-44790661D01*
X142693073Y-44982481D01*
X142959739Y-45125017D01*
X143249087Y-45212790D01*
X143550000Y-45242427D01*
X143850912Y-45212790D01*
X144140260Y-45125017D01*
X144406926Y-44982481D01*
X144640661Y-44790661D01*
X144832481Y-44556927D01*
X144975017Y-44290261D01*
X145062790Y-44000913D01*
X145085000Y-43775408D01*
X145085000Y-43424593D01*
X145062790Y-43199088D01*
X144975017Y-42909740D01*
X144832481Y-42643073D01*
X144640661Y-42409339D01*
X144406927Y-42217519D01*
X144140261Y-42074983D01*
X143850913Y-41987210D01*
X143550000Y-41957573D01*
X143249088Y-41987210D01*
X142959740Y-42074983D01*
X142693074Y-42217519D01*
X142459339Y-42409339D01*
X142300000Y-42603495D01*
X142140661Y-42409339D01*
X141906927Y-42217519D01*
X141640261Y-42074983D01*
X141350913Y-41987210D01*
X141050000Y-41957573D01*
X140749088Y-41987210D01*
X140459740Y-42074983D01*
X140193074Y-42217519D01*
X139959339Y-42409339D01*
X139767519Y-42643073D01*
X139624983Y-42909739D01*
X139537210Y-43199087D01*
X139515000Y-43424592D01*
X58755230Y-43424592D01*
X58609775Y-43073434D01*
X58398013Y-42756509D01*
X58128491Y-42486987D01*
X57811566Y-42275225D01*
X57459419Y-42129361D01*
X57085581Y-42055000D01*
X56704419Y-42055000D01*
X56330581Y-42129361D01*
X55978434Y-42275225D01*
X55661509Y-42486987D01*
X55391987Y-42756509D01*
X55180225Y-43073434D01*
X55034361Y-43425581D01*
X54960000Y-43799419D01*
X52676655Y-43799419D01*
X50959000Y-42081765D01*
X50959000Y-40799419D01*
X59660000Y-40799419D01*
X59660000Y-41180581D01*
X59734361Y-41554419D01*
X59880225Y-41906566D01*
X60091987Y-42223491D01*
X60361509Y-42493013D01*
X60678434Y-42704775D01*
X61030581Y-42850639D01*
X61404419Y-42925000D01*
X61785581Y-42925000D01*
X62159419Y-42850639D01*
X62511566Y-42704775D01*
X62828491Y-42493013D01*
X63098013Y-42223491D01*
X63309775Y-41906566D01*
X63455639Y-41554419D01*
X63530000Y-41180581D01*
X63530000Y-40799419D01*
X63455639Y-40425581D01*
X63309775Y-40073434D01*
X63098013Y-39756509D01*
X62828491Y-39486987D01*
X62511566Y-39275225D01*
X62159419Y-39129361D01*
X61785581Y-39055000D01*
X61404419Y-39055000D01*
X61030581Y-39129361D01*
X60678434Y-39275225D01*
X60361509Y-39486987D01*
X60091987Y-39756509D01*
X59880225Y-40073434D01*
X59734361Y-40425581D01*
X59660000Y-40799419D01*
X50959000Y-40799419D01*
X50959000Y-39240198D01*
X50965506Y-39245537D01*
X51075820Y-39304502D01*
X51195518Y-39340812D01*
X51320000Y-39353072D01*
X52820000Y-39353072D01*
X52932496Y-39341992D01*
X52937234Y-39347766D01*
X53201422Y-39564579D01*
X53502832Y-39725686D01*
X53829881Y-39824895D01*
X54170000Y-39858394D01*
X54510118Y-39824895D01*
X54837167Y-39725686D01*
X55138577Y-39564579D01*
X55402766Y-39347766D01*
X55619579Y-39083578D01*
X55780686Y-38782168D01*
X55879895Y-38455119D01*
X55905000Y-38200225D01*
X55905000Y-37924592D01*
X144515000Y-37924592D01*
X144515000Y-38275407D01*
X144537210Y-38500912D01*
X144624983Y-38790260D01*
X144767519Y-39056926D01*
X144959339Y-39290661D01*
X145193073Y-39482481D01*
X145288000Y-39533221D01*
X145288001Y-62757935D01*
X145127748Y-62865013D01*
X144900013Y-63092748D01*
X144721082Y-63360537D01*
X144597832Y-63658088D01*
X144535000Y-63973967D01*
X144535000Y-64296033D01*
X144597832Y-64611912D01*
X144721082Y-64909463D01*
X144900013Y-65177252D01*
X145127748Y-65404987D01*
X145395537Y-65583918D01*
X145693088Y-65707168D01*
X146008967Y-65770000D01*
X146331033Y-65770000D01*
X146646912Y-65707168D01*
X146944463Y-65583918D01*
X147212252Y-65404987D01*
X147439987Y-65177252D01*
X147618918Y-64909463D01*
X147742168Y-64611912D01*
X147805000Y-64296033D01*
X147805000Y-63973967D01*
X159535000Y-63973967D01*
X159535000Y-64296033D01*
X159597832Y-64611912D01*
X159721082Y-64909463D01*
X159900013Y-65177252D01*
X160127748Y-65404987D01*
X160395537Y-65583918D01*
X160693088Y-65707168D01*
X161008967Y-65770000D01*
X161331033Y-65770000D01*
X161646912Y-65707168D01*
X161944463Y-65583918D01*
X162212252Y-65404987D01*
X162439987Y-65177252D01*
X162618918Y-64909463D01*
X162742168Y-64611912D01*
X162805000Y-64296033D01*
X162805000Y-63973967D01*
X162742168Y-63658088D01*
X162618918Y-63360537D01*
X162439987Y-63092748D01*
X162212252Y-62865013D01*
X161944463Y-62686082D01*
X161646912Y-62562832D01*
X161331033Y-62500000D01*
X161008967Y-62500000D01*
X160693088Y-62562832D01*
X160395537Y-62686082D01*
X160127748Y-62865013D01*
X159900013Y-63092748D01*
X159721082Y-63360537D01*
X159597832Y-63658088D01*
X159535000Y-63973967D01*
X147805000Y-63973967D01*
X147742168Y-63658088D01*
X147618918Y-63360537D01*
X147439987Y-63092748D01*
X147212252Y-62865013D01*
X146944463Y-62686082D01*
X146812000Y-62631214D01*
X146812000Y-43424592D01*
X147015000Y-43424592D01*
X147015000Y-43775407D01*
X147037210Y-44000912D01*
X147124983Y-44290260D01*
X147267519Y-44556926D01*
X147459339Y-44790661D01*
X147693073Y-44982481D01*
X147959739Y-45125017D01*
X148249087Y-45212790D01*
X148550000Y-45242427D01*
X148850912Y-45212790D01*
X149140260Y-45125017D01*
X149406926Y-44982481D01*
X149640661Y-44790661D01*
X149800000Y-44596505D01*
X149959339Y-44790661D01*
X150193073Y-44982481D01*
X150459739Y-45125017D01*
X150749087Y-45212790D01*
X151050000Y-45242427D01*
X151350912Y-45212790D01*
X151640260Y-45125017D01*
X151906926Y-44982481D01*
X152140661Y-44790661D01*
X152332481Y-44556927D01*
X152475017Y-44290261D01*
X152562790Y-44000913D01*
X152585000Y-43775408D01*
X152585000Y-43424593D01*
X152575151Y-43324592D01*
X154755000Y-43324592D01*
X154755000Y-43675407D01*
X154777210Y-43900912D01*
X154864983Y-44190260D01*
X155007519Y-44456926D01*
X155199339Y-44690661D01*
X155433073Y-44882481D01*
X155699739Y-45025017D01*
X155989087Y-45112790D01*
X156290000Y-45142427D01*
X156590912Y-45112790D01*
X156880260Y-45025017D01*
X157146926Y-44882481D01*
X157380661Y-44690661D01*
X157540000Y-44496505D01*
X157699339Y-44690661D01*
X157933073Y-44882481D01*
X158199739Y-45025017D01*
X158489087Y-45112790D01*
X158790000Y-45142427D01*
X159090912Y-45112790D01*
X159380260Y-45025017D01*
X159646926Y-44882481D01*
X159880661Y-44690661D01*
X160072481Y-44456927D01*
X160215017Y-44190261D01*
X160302790Y-43900913D01*
X160325000Y-43675408D01*
X160325000Y-43324593D01*
X160325000Y-43324592D01*
X162255000Y-43324592D01*
X162255000Y-43675407D01*
X162277210Y-43900912D01*
X162364983Y-44190260D01*
X162507519Y-44456926D01*
X162699339Y-44690661D01*
X162933073Y-44882481D01*
X163199739Y-45025017D01*
X163489087Y-45112790D01*
X163790000Y-45142427D01*
X164090912Y-45112790D01*
X164380260Y-45025017D01*
X164646926Y-44882481D01*
X164880661Y-44690661D01*
X165040000Y-44496505D01*
X165199339Y-44690661D01*
X165433073Y-44882481D01*
X165699739Y-45025017D01*
X165989087Y-45112790D01*
X166290000Y-45142427D01*
X166590912Y-45112790D01*
X166880260Y-45025017D01*
X167146926Y-44882481D01*
X167380661Y-44690661D01*
X167572481Y-44456927D01*
X167715017Y-44190261D01*
X167802790Y-43900913D01*
X167825000Y-43675408D01*
X167825000Y-43324593D01*
X167802790Y-43099088D01*
X167715017Y-42809740D01*
X167572481Y-42543073D01*
X167380661Y-42309339D01*
X167146927Y-42117519D01*
X166880261Y-41974983D01*
X166590913Y-41887210D01*
X166290000Y-41857573D01*
X165989088Y-41887210D01*
X165699740Y-41974983D01*
X165433074Y-42117519D01*
X165199339Y-42309339D01*
X165040000Y-42503495D01*
X164880661Y-42309339D01*
X164646927Y-42117519D01*
X164380261Y-41974983D01*
X164090913Y-41887210D01*
X163790000Y-41857573D01*
X163489088Y-41887210D01*
X163199740Y-41974983D01*
X162933074Y-42117519D01*
X162699339Y-42309339D01*
X162507519Y-42543073D01*
X162364983Y-42809739D01*
X162277210Y-43099087D01*
X162255000Y-43324592D01*
X160325000Y-43324592D01*
X160302790Y-43099088D01*
X160215017Y-42809740D01*
X160072481Y-42543073D01*
X159880661Y-42309339D01*
X159646927Y-42117519D01*
X159380261Y-41974983D01*
X159090913Y-41887210D01*
X158790000Y-41857573D01*
X158489088Y-41887210D01*
X158199740Y-41974983D01*
X157933074Y-42117519D01*
X157699339Y-42309339D01*
X157540000Y-42503495D01*
X157380661Y-42309339D01*
X157146927Y-42117519D01*
X156880261Y-41974983D01*
X156590913Y-41887210D01*
X156290000Y-41857573D01*
X155989088Y-41887210D01*
X155699740Y-41974983D01*
X155433074Y-42117519D01*
X155199339Y-42309339D01*
X155007519Y-42543073D01*
X154864983Y-42809739D01*
X154777210Y-43099087D01*
X154755000Y-43324592D01*
X152575151Y-43324592D01*
X152562790Y-43199088D01*
X152475017Y-42909740D01*
X152332481Y-42643073D01*
X152140661Y-42409339D01*
X151906927Y-42217519D01*
X151640261Y-42074983D01*
X151350913Y-41987210D01*
X151050000Y-41957573D01*
X150749088Y-41987210D01*
X150459740Y-42074983D01*
X150193074Y-42217519D01*
X149959339Y-42409339D01*
X149800000Y-42603495D01*
X149640661Y-42409339D01*
X149406927Y-42217519D01*
X149140261Y-42074983D01*
X148850913Y-41987210D01*
X148550000Y-41957573D01*
X148249088Y-41987210D01*
X147959740Y-42074983D01*
X147693074Y-42217519D01*
X147459339Y-42409339D01*
X147267519Y-42643073D01*
X147124983Y-42909739D01*
X147037210Y-43199087D01*
X147015000Y-43424592D01*
X146812000Y-43424592D01*
X146812000Y-39533220D01*
X146906926Y-39482481D01*
X147140661Y-39290661D01*
X147332481Y-39056927D01*
X147475017Y-38790261D01*
X147562790Y-38500913D01*
X147585000Y-38275408D01*
X147585000Y-37924593D01*
X147575151Y-37824592D01*
X159755000Y-37824592D01*
X159755000Y-38175407D01*
X159777210Y-38400912D01*
X159864983Y-38690260D01*
X160007519Y-38956926D01*
X160199339Y-39190661D01*
X160433073Y-39382481D01*
X160699739Y-39525017D01*
X160989087Y-39612790D01*
X161290000Y-39642427D01*
X161590912Y-39612790D01*
X161880260Y-39525017D01*
X162146926Y-39382481D01*
X162380661Y-39190661D01*
X162572481Y-38956927D01*
X162715017Y-38690261D01*
X162802790Y-38400913D01*
X162825000Y-38175408D01*
X162825000Y-37824593D01*
X162802790Y-37599088D01*
X162715017Y-37309740D01*
X162572481Y-37043073D01*
X162380661Y-36809339D01*
X162146927Y-36617519D01*
X161880261Y-36474983D01*
X161590913Y-36387210D01*
X161290000Y-36357573D01*
X160989088Y-36387210D01*
X160699740Y-36474983D01*
X160433074Y-36617519D01*
X160199339Y-36809339D01*
X160007519Y-37043073D01*
X159864983Y-37309739D01*
X159777210Y-37599087D01*
X159755000Y-37824592D01*
X147575151Y-37824592D01*
X147562790Y-37699088D01*
X147475017Y-37409740D01*
X147332481Y-37143073D01*
X147140661Y-36909339D01*
X146906927Y-36717519D01*
X146640261Y-36574983D01*
X146350913Y-36487210D01*
X146050000Y-36457573D01*
X145749088Y-36487210D01*
X145459740Y-36574983D01*
X145193074Y-36717519D01*
X144959339Y-36909339D01*
X144767519Y-37143073D01*
X144624983Y-37409739D01*
X144537210Y-37699087D01*
X144515000Y-37924592D01*
X55905000Y-37924592D01*
X55905000Y-36729775D01*
X55879895Y-36474881D01*
X55780686Y-36147832D01*
X55619579Y-35846422D01*
X55466587Y-35660000D01*
X171585664Y-35660000D01*
X171281971Y-35785794D01*
X170687922Y-36182725D01*
X170182725Y-36687922D01*
X169785794Y-37281971D01*
X169512383Y-37942043D01*
X169373000Y-38642772D01*
X169373000Y-39357228D01*
X169512383Y-40057957D01*
X169785794Y-40718029D01*
X170182725Y-41312078D01*
X170687922Y-41817275D01*
X171281971Y-42214206D01*
X171942043Y-42487617D01*
X172642772Y-42627000D01*
X173357228Y-42627000D01*
X174057957Y-42487617D01*
X174718029Y-42214206D01*
X175312078Y-41817275D01*
X175817275Y-41312078D01*
X176214206Y-40718029D01*
X176340000Y-40414336D01*
X176340001Y-98585667D01*
X176214206Y-98281971D01*
X175817275Y-97687922D01*
X175312078Y-97182725D01*
X174718029Y-96785794D01*
X174057957Y-96512383D01*
X173357228Y-96373000D01*
X172642772Y-96373000D01*
X171942043Y-96512383D01*
X171281971Y-96785794D01*
X170687922Y-97182725D01*
X170182725Y-97687922D01*
X169785794Y-98281971D01*
X169512383Y-98942043D01*
X169373000Y-99642772D01*
X169373000Y-100357228D01*
X169512383Y-101057957D01*
X169785794Y-101718029D01*
X170182725Y-102312078D01*
X170687922Y-102817275D01*
X171281971Y-103214206D01*
X171585664Y-103340000D01*
X117579608Y-103340000D01*
X117488423Y-103248815D01*
X117730349Y-103179655D01*
X117849248Y-102927557D01*
X117916681Y-102657106D01*
X117930057Y-102378697D01*
X117888860Y-102103028D01*
X117794675Y-101840692D01*
X117730349Y-101720345D01*
X117488421Y-101651184D01*
X116689605Y-102450000D01*
X116703748Y-102464143D01*
X116524143Y-102643748D01*
X116510000Y-102629605D01*
X116495858Y-102643748D01*
X116316253Y-102464143D01*
X116330395Y-102450000D01*
X115531579Y-101651184D01*
X115289651Y-101720345D01*
X115241575Y-101822279D01*
X115223957Y-101779746D01*
X115069103Y-101547990D01*
X114872010Y-101350897D01*
X114640254Y-101196043D01*
X114601523Y-101180000D01*
X114640254Y-101163957D01*
X114872010Y-101009103D01*
X114992692Y-100888421D01*
X115711184Y-100888421D01*
X115780345Y-101130349D01*
X115879041Y-101176898D01*
X115780345Y-101229651D01*
X115711184Y-101471579D01*
X116510000Y-102270395D01*
X117308816Y-101471579D01*
X117299048Y-101437408D01*
X137053000Y-101437408D01*
X137053000Y-101712592D01*
X137106686Y-101982490D01*
X137211995Y-102236727D01*
X137364880Y-102465535D01*
X137559465Y-102660120D01*
X137788273Y-102813005D01*
X138042510Y-102918314D01*
X138312408Y-102972000D01*
X138587592Y-102972000D01*
X138857490Y-102918314D01*
X139111727Y-102813005D01*
X139340535Y-102660120D01*
X139535120Y-102465535D01*
X139688005Y-102236727D01*
X139710000Y-102183627D01*
X139731995Y-102236727D01*
X139884880Y-102465535D01*
X140079465Y-102660120D01*
X140308273Y-102813005D01*
X140562510Y-102918314D01*
X140832408Y-102972000D01*
X141107592Y-102972000D01*
X141377490Y-102918314D01*
X141631727Y-102813005D01*
X141860535Y-102660120D01*
X142055120Y-102465535D01*
X142208005Y-102236727D01*
X142240000Y-102159485D01*
X142271995Y-102236727D01*
X142424880Y-102465535D01*
X142619465Y-102660120D01*
X142848273Y-102813005D01*
X143102510Y-102918314D01*
X143372408Y-102972000D01*
X143647592Y-102972000D01*
X143917490Y-102918314D01*
X144171727Y-102813005D01*
X144400535Y-102660120D01*
X144520090Y-102540565D01*
X150344040Y-102540565D01*
X150411020Y-102780656D01*
X150660048Y-102897756D01*
X150927135Y-102964023D01*
X151202017Y-102976910D01*
X151474133Y-102935922D01*
X151733023Y-102842636D01*
X151848980Y-102780656D01*
X151915960Y-102540565D01*
X151130000Y-101754605D01*
X150344040Y-102540565D01*
X144520090Y-102540565D01*
X144595120Y-102465535D01*
X144748005Y-102236727D01*
X144853314Y-101982490D01*
X144907000Y-101712592D01*
X144907000Y-101647017D01*
X149728090Y-101647017D01*
X149769078Y-101919133D01*
X149862364Y-102178023D01*
X149924344Y-102293980D01*
X150164435Y-102360960D01*
X150950395Y-101575000D01*
X151309605Y-101575000D01*
X152095565Y-102360960D01*
X152335656Y-102293980D01*
X152399485Y-102158240D01*
X152431995Y-102236727D01*
X152584880Y-102465535D01*
X152779465Y-102660120D01*
X153008273Y-102813005D01*
X153262510Y-102918314D01*
X153532408Y-102972000D01*
X153807592Y-102972000D01*
X154077490Y-102918314D01*
X154331727Y-102813005D01*
X154560535Y-102660120D01*
X154755120Y-102465535D01*
X154908005Y-102236727D01*
X155013314Y-101982490D01*
X155067000Y-101712592D01*
X155067000Y-101437408D01*
X155013314Y-101167510D01*
X154908005Y-100913273D01*
X154755120Y-100684465D01*
X154560535Y-100489880D01*
X154331727Y-100336995D01*
X154077490Y-100231686D01*
X153807592Y-100178000D01*
X153532408Y-100178000D01*
X153262510Y-100231686D01*
X153008273Y-100336995D01*
X152779465Y-100489880D01*
X152584880Y-100684465D01*
X152431995Y-100913273D01*
X152402308Y-100984943D01*
X152397636Y-100971977D01*
X152335656Y-100856020D01*
X152095565Y-100789040D01*
X151309605Y-101575000D01*
X150950395Y-101575000D01*
X150164435Y-100789040D01*
X149924344Y-100856020D01*
X149807244Y-101105048D01*
X149740977Y-101372135D01*
X149728090Y-101647017D01*
X144907000Y-101647017D01*
X144907000Y-101437408D01*
X144853314Y-101167510D01*
X144748005Y-100913273D01*
X144595120Y-100684465D01*
X144520090Y-100609435D01*
X150344040Y-100609435D01*
X151130000Y-101395395D01*
X151915960Y-100609435D01*
X151848980Y-100369344D01*
X151599952Y-100252244D01*
X151332865Y-100185977D01*
X151057983Y-100173090D01*
X150785867Y-100214078D01*
X150526977Y-100307364D01*
X150411020Y-100369344D01*
X150344040Y-100609435D01*
X144520090Y-100609435D01*
X144400535Y-100489880D01*
X144171727Y-100336995D01*
X143917490Y-100231686D01*
X143647592Y-100178000D01*
X143372408Y-100178000D01*
X143102510Y-100231686D01*
X142848273Y-100336995D01*
X142619465Y-100489880D01*
X142424880Y-100684465D01*
X142271995Y-100913273D01*
X142240000Y-100990515D01*
X142208005Y-100913273D01*
X142055120Y-100684465D01*
X141860535Y-100489880D01*
X141631727Y-100336995D01*
X141377490Y-100231686D01*
X141107592Y-100178000D01*
X140832408Y-100178000D01*
X140562510Y-100231686D01*
X140308273Y-100336995D01*
X140079465Y-100489880D01*
X139884880Y-100684465D01*
X139731995Y-100913273D01*
X139710000Y-100966373D01*
X139688005Y-100913273D01*
X139535120Y-100684465D01*
X139340535Y-100489880D01*
X139212000Y-100403995D01*
X139212000Y-99990630D01*
X140650630Y-98552000D01*
X158830601Y-98552000D01*
X158699701Y-98747905D01*
X158583989Y-99027257D01*
X158525000Y-99323816D01*
X158525000Y-99626184D01*
X158583989Y-99922743D01*
X158699701Y-100202095D01*
X158867688Y-100453505D01*
X159081495Y-100667312D01*
X159332905Y-100835299D01*
X159612257Y-100951011D01*
X159908816Y-101010000D01*
X160211184Y-101010000D01*
X160507743Y-100951011D01*
X160787095Y-100835299D01*
X161038505Y-100667312D01*
X161252312Y-100453505D01*
X161310000Y-100367169D01*
X161367688Y-100453505D01*
X161581495Y-100667312D01*
X161832905Y-100835299D01*
X162112257Y-100951011D01*
X162408816Y-101010000D01*
X162711184Y-101010000D01*
X163007743Y-100951011D01*
X163287095Y-100835299D01*
X163538505Y-100667312D01*
X163752312Y-100453505D01*
X163810000Y-100367169D01*
X163867688Y-100453505D01*
X164081495Y-100667312D01*
X164332905Y-100835299D01*
X164612257Y-100951011D01*
X164908816Y-101010000D01*
X165211184Y-101010000D01*
X165507743Y-100951011D01*
X165787095Y-100835299D01*
X166038505Y-100667312D01*
X166252312Y-100453505D01*
X166420299Y-100202095D01*
X166536011Y-99922743D01*
X166595000Y-99626184D01*
X166595000Y-99323816D01*
X166536011Y-99027257D01*
X166420299Y-98747905D01*
X166252312Y-98496495D01*
X166038505Y-98282688D01*
X165787095Y-98114701D01*
X165507743Y-97998989D01*
X165211184Y-97940000D01*
X164908816Y-97940000D01*
X164612257Y-97998989D01*
X164332905Y-98114701D01*
X164081495Y-98282688D01*
X163867688Y-98496495D01*
X163810000Y-98582831D01*
X163752312Y-98496495D01*
X163538505Y-98282688D01*
X163319179Y-98136139D01*
X163310974Y-98052830D01*
X163267402Y-97909193D01*
X163196645Y-97776816D01*
X163101422Y-97660786D01*
X163072347Y-97636925D01*
X162713076Y-97277654D01*
X162689214Y-97248578D01*
X162573184Y-97153355D01*
X162440807Y-97082598D01*
X162297170Y-97039026D01*
X162185218Y-97028000D01*
X162185215Y-97028000D01*
X162147792Y-97024314D01*
X162110369Y-97028000D01*
X140372423Y-97028000D01*
X140335000Y-97024314D01*
X140297577Y-97028000D01*
X140297574Y-97028000D01*
X140185622Y-97039026D01*
X140041985Y-97082598D01*
X139980364Y-97115535D01*
X139909607Y-97153355D01*
X139873820Y-97182725D01*
X139793578Y-97248578D01*
X139769716Y-97277654D01*
X137937649Y-99109721D01*
X137908579Y-99133578D01*
X137884722Y-99162648D01*
X137884721Y-99162649D01*
X137813355Y-99249608D01*
X137742599Y-99381985D01*
X137699027Y-99525622D01*
X137684314Y-99675000D01*
X137688001Y-99712433D01*
X137688001Y-100403995D01*
X137559465Y-100489880D01*
X137364880Y-100684465D01*
X137211995Y-100913273D01*
X137106686Y-101167510D01*
X137053000Y-101437408D01*
X117299048Y-101437408D01*
X117239655Y-101229651D01*
X117140959Y-101183102D01*
X117239655Y-101130349D01*
X117308816Y-100888421D01*
X116510000Y-100089605D01*
X115711184Y-100888421D01*
X114992692Y-100888421D01*
X115069103Y-100812010D01*
X115223957Y-100580254D01*
X115238777Y-100544475D01*
X115289651Y-100639655D01*
X115531579Y-100708816D01*
X116330395Y-99910000D01*
X116689605Y-99910000D01*
X117488421Y-100708816D01*
X117730349Y-100639655D01*
X117849248Y-100387557D01*
X117916681Y-100117106D01*
X117930057Y-99838697D01*
X117888860Y-99563028D01*
X117808417Y-99338967D01*
X123065000Y-99338967D01*
X123065000Y-99661033D01*
X123127832Y-99976912D01*
X123251082Y-100274463D01*
X123430013Y-100542252D01*
X123657748Y-100769987D01*
X123925537Y-100948918D01*
X124223088Y-101072168D01*
X124538967Y-101135000D01*
X124861033Y-101135000D01*
X125176912Y-101072168D01*
X125474463Y-100948918D01*
X125742252Y-100769987D01*
X125950000Y-100562239D01*
X126157748Y-100769987D01*
X126425537Y-100948918D01*
X126723088Y-101072168D01*
X127038967Y-101135000D01*
X127361033Y-101135000D01*
X127676912Y-101072168D01*
X127974463Y-100948918D01*
X128242252Y-100769987D01*
X128450000Y-100562239D01*
X128657748Y-100769987D01*
X128925537Y-100948918D01*
X129223088Y-101072168D01*
X129538967Y-101135000D01*
X129861033Y-101135000D01*
X130176912Y-101072168D01*
X130474463Y-100948918D01*
X130742252Y-100769987D01*
X130969987Y-100542252D01*
X131148918Y-100274463D01*
X131272168Y-99976912D01*
X131335000Y-99661033D01*
X131335000Y-99338967D01*
X131272168Y-99023088D01*
X131148918Y-98725537D01*
X130969987Y-98457748D01*
X130742252Y-98230013D01*
X130474463Y-98051082D01*
X130176912Y-97927832D01*
X129861033Y-97865000D01*
X129538967Y-97865000D01*
X129223088Y-97927832D01*
X128925537Y-98051082D01*
X128657748Y-98230013D01*
X128450000Y-98437761D01*
X128242252Y-98230013D01*
X127974463Y-98051082D01*
X127676912Y-97927832D01*
X127361033Y-97865000D01*
X127038967Y-97865000D01*
X126723088Y-97927832D01*
X126425537Y-98051082D01*
X126157748Y-98230013D01*
X125950000Y-98437761D01*
X125742252Y-98230013D01*
X125474463Y-98051082D01*
X125176912Y-97927832D01*
X124861033Y-97865000D01*
X124538967Y-97865000D01*
X124223088Y-97927832D01*
X123925537Y-98051082D01*
X123657748Y-98230013D01*
X123430013Y-98457748D01*
X123251082Y-98725537D01*
X123127832Y-99023088D01*
X123065000Y-99338967D01*
X117808417Y-99338967D01*
X117794675Y-99300692D01*
X117730349Y-99180345D01*
X117488421Y-99111184D01*
X116689605Y-99910000D01*
X116330395Y-99910000D01*
X115531579Y-99111184D01*
X115289651Y-99180345D01*
X115241575Y-99282279D01*
X115223957Y-99239746D01*
X115069103Y-99007990D01*
X114992692Y-98931579D01*
X115711184Y-98931579D01*
X116510000Y-99730395D01*
X117308816Y-98931579D01*
X117239655Y-98689651D01*
X116987557Y-98570752D01*
X116717106Y-98503319D01*
X116438697Y-98489943D01*
X116163028Y-98531140D01*
X115900692Y-98625325D01*
X115780345Y-98689651D01*
X115711184Y-98931579D01*
X114992692Y-98931579D01*
X114872010Y-98810897D01*
X114640254Y-98656043D01*
X114382740Y-98549377D01*
X114109365Y-98495000D01*
X113830635Y-98495000D01*
X113557260Y-98549377D01*
X113299746Y-98656043D01*
X113067990Y-98810897D01*
X112870897Y-99007990D01*
X112716043Y-99239746D01*
X112700000Y-99278477D01*
X112683957Y-99239746D01*
X112529103Y-99007990D01*
X112332010Y-98810897D01*
X112100254Y-98656043D01*
X111842740Y-98549377D01*
X111569365Y-98495000D01*
X111290635Y-98495000D01*
X111017260Y-98549377D01*
X110759746Y-98656043D01*
X110527990Y-98810897D01*
X110330897Y-99007990D01*
X110176043Y-99239746D01*
X110160000Y-99278477D01*
X110143957Y-99239746D01*
X109989103Y-99007990D01*
X109792010Y-98810897D01*
X109560254Y-98656043D01*
X109302740Y-98549377D01*
X109029365Y-98495000D01*
X108750635Y-98495000D01*
X108477260Y-98549377D01*
X108219746Y-98656043D01*
X107987990Y-98810897D01*
X107790897Y-99007990D01*
X107636043Y-99239746D01*
X107620000Y-99278477D01*
X107603957Y-99239746D01*
X107449103Y-99007990D01*
X107252010Y-98810897D01*
X107112000Y-98717346D01*
X107112000Y-95965630D01*
X112877630Y-90200000D01*
X119461928Y-90200000D01*
X119461928Y-93800000D01*
X119474188Y-93924482D01*
X119510498Y-94044180D01*
X119569463Y-94154494D01*
X119648815Y-94251185D01*
X119745506Y-94330537D01*
X119855820Y-94389502D01*
X119975518Y-94425812D01*
X120100000Y-94438072D01*
X122900000Y-94438072D01*
X123024482Y-94425812D01*
X123144180Y-94389502D01*
X123254494Y-94330537D01*
X123351185Y-94251185D01*
X123430537Y-94154494D01*
X123489502Y-94044180D01*
X123525812Y-93924482D01*
X123538072Y-93800000D01*
X123538072Y-90200000D01*
X130861928Y-90200000D01*
X130861928Y-93800000D01*
X130874188Y-93924482D01*
X130910498Y-94044180D01*
X130969463Y-94154494D01*
X131048815Y-94251185D01*
X131145506Y-94330537D01*
X131255820Y-94389502D01*
X131375518Y-94425812D01*
X131500000Y-94438072D01*
X134300000Y-94438072D01*
X134424482Y-94425812D01*
X134544180Y-94389502D01*
X134654494Y-94330537D01*
X134751185Y-94251185D01*
X134830537Y-94154494D01*
X134889502Y-94044180D01*
X134925812Y-93924482D01*
X134938072Y-93800000D01*
X134938072Y-92215475D01*
X155525000Y-92215475D01*
X155525000Y-92734525D01*
X155626261Y-93243601D01*
X155824893Y-93723141D01*
X156113262Y-94154715D01*
X156480285Y-94521738D01*
X156911859Y-94810107D01*
X157391399Y-95008739D01*
X157900475Y-95110000D01*
X158419525Y-95110000D01*
X158928601Y-95008739D01*
X159408141Y-94810107D01*
X159839715Y-94521738D01*
X160206738Y-94154715D01*
X160495107Y-93723141D01*
X160693739Y-93243601D01*
X160795000Y-92734525D01*
X160795000Y-92215475D01*
X164325000Y-92215475D01*
X164325000Y-92734525D01*
X164426261Y-93243601D01*
X164624893Y-93723141D01*
X164913262Y-94154715D01*
X165280285Y-94521738D01*
X165711859Y-94810107D01*
X166191399Y-95008739D01*
X166700475Y-95110000D01*
X167219525Y-95110000D01*
X167728601Y-95008739D01*
X168208141Y-94810107D01*
X168639715Y-94521738D01*
X169006738Y-94154715D01*
X169295107Y-93723141D01*
X169493739Y-93243601D01*
X169595000Y-92734525D01*
X169595000Y-92215475D01*
X169493739Y-91706399D01*
X169295107Y-91226859D01*
X169006738Y-90795285D01*
X168639715Y-90428262D01*
X168208141Y-90139893D01*
X167728601Y-89941261D01*
X167219525Y-89840000D01*
X166700475Y-89840000D01*
X166191399Y-89941261D01*
X165711859Y-90139893D01*
X165280285Y-90428262D01*
X164913262Y-90795285D01*
X164624893Y-91226859D01*
X164426261Y-91706399D01*
X164325000Y-92215475D01*
X160795000Y-92215475D01*
X160693739Y-91706399D01*
X160495107Y-91226859D01*
X160206738Y-90795285D01*
X159839715Y-90428262D01*
X159408141Y-90139893D01*
X158928601Y-89941261D01*
X158419525Y-89840000D01*
X157900475Y-89840000D01*
X157391399Y-89941261D01*
X156911859Y-90139893D01*
X156480285Y-90428262D01*
X156113262Y-90795285D01*
X155824893Y-91226859D01*
X155626261Y-91706399D01*
X155525000Y-92215475D01*
X134938072Y-92215475D01*
X134938072Y-90200000D01*
X134925812Y-90075518D01*
X134889502Y-89955820D01*
X134830537Y-89845506D01*
X134751185Y-89748815D01*
X134654494Y-89669463D01*
X134544180Y-89610498D01*
X134424482Y-89574188D01*
X134300000Y-89561928D01*
X131500000Y-89561928D01*
X131375518Y-89574188D01*
X131255820Y-89610498D01*
X131145506Y-89669463D01*
X131048815Y-89748815D01*
X130969463Y-89845506D01*
X130910498Y-89955820D01*
X130874188Y-90075518D01*
X130861928Y-90200000D01*
X123538072Y-90200000D01*
X123525812Y-90075518D01*
X123489502Y-89955820D01*
X123430537Y-89845506D01*
X123351185Y-89748815D01*
X123254494Y-89669463D01*
X123144180Y-89610498D01*
X123024482Y-89574188D01*
X122900000Y-89561928D01*
X120100000Y-89561928D01*
X119975518Y-89574188D01*
X119855820Y-89610498D01*
X119745506Y-89669463D01*
X119648815Y-89748815D01*
X119569463Y-89845506D01*
X119510498Y-89955820D01*
X119474188Y-90075518D01*
X119461928Y-90200000D01*
X112877630Y-90200000D01*
X117225631Y-85852000D01*
X120872577Y-85852000D01*
X120910000Y-85855686D01*
X120947423Y-85852000D01*
X120947426Y-85852000D01*
X121059378Y-85840974D01*
X121203015Y-85797402D01*
X121335392Y-85726645D01*
X121451422Y-85631422D01*
X121475284Y-85602346D01*
X122238663Y-84838967D01*
X123065000Y-84838967D01*
X123065000Y-85161033D01*
X123127832Y-85476912D01*
X123251082Y-85774463D01*
X123430013Y-86042252D01*
X123657748Y-86269987D01*
X123925537Y-86448918D01*
X124223088Y-86572168D01*
X124538967Y-86635000D01*
X124861033Y-86635000D01*
X125176912Y-86572168D01*
X125474463Y-86448918D01*
X125742252Y-86269987D01*
X125969987Y-86042252D01*
X126148918Y-85774463D01*
X126272168Y-85476912D01*
X126335000Y-85161033D01*
X126335000Y-84838967D01*
X128065000Y-84838967D01*
X128065000Y-85161033D01*
X128127832Y-85476912D01*
X128251082Y-85774463D01*
X128430013Y-86042252D01*
X128657748Y-86269987D01*
X128925537Y-86448918D01*
X129223088Y-86572168D01*
X129538967Y-86635000D01*
X129861033Y-86635000D01*
X130176912Y-86572168D01*
X130474463Y-86448918D01*
X130742252Y-86269987D01*
X130969987Y-86042252D01*
X131148918Y-85774463D01*
X131272168Y-85476912D01*
X131335000Y-85161033D01*
X131335000Y-84838967D01*
X131272168Y-84523088D01*
X131148918Y-84225537D01*
X130969987Y-83957748D01*
X130742252Y-83730013D01*
X130474463Y-83551082D01*
X130176912Y-83427832D01*
X129861033Y-83365000D01*
X129538967Y-83365000D01*
X129223088Y-83427832D01*
X128925537Y-83551082D01*
X128657748Y-83730013D01*
X128430013Y-83957748D01*
X128251082Y-84225537D01*
X128127832Y-84523088D01*
X128065000Y-84838967D01*
X126335000Y-84838967D01*
X126272168Y-84523088D01*
X126148918Y-84225537D01*
X125969987Y-83957748D01*
X125742252Y-83730013D01*
X125474463Y-83551082D01*
X125176912Y-83427832D01*
X124861033Y-83365000D01*
X124538967Y-83365000D01*
X124223088Y-83427832D01*
X123925537Y-83551082D01*
X123657748Y-83730013D01*
X123430013Y-83957748D01*
X123251082Y-84225537D01*
X123127832Y-84523088D01*
X123065000Y-84838967D01*
X122238663Y-84838967D01*
X124640222Y-82437408D01*
X137053000Y-82437408D01*
X137053000Y-82712592D01*
X137106686Y-82982490D01*
X137211995Y-83236727D01*
X137364880Y-83465535D01*
X137559465Y-83660120D01*
X137788273Y-83813005D01*
X138042510Y-83918314D01*
X138312408Y-83972000D01*
X138587592Y-83972000D01*
X138857490Y-83918314D01*
X139111727Y-83813005D01*
X139340535Y-83660120D01*
X139535120Y-83465535D01*
X139688005Y-83236727D01*
X139710000Y-83183627D01*
X139731995Y-83236727D01*
X139884880Y-83465535D01*
X140079465Y-83660120D01*
X140308273Y-83813005D01*
X140562510Y-83918314D01*
X140832408Y-83972000D01*
X141107592Y-83972000D01*
X141377490Y-83918314D01*
X141631727Y-83813005D01*
X141860535Y-83660120D01*
X142055120Y-83465535D01*
X142208005Y-83236727D01*
X142313314Y-82982490D01*
X142367000Y-82712592D01*
X142367000Y-82437408D01*
X149733000Y-82437408D01*
X149733000Y-82712592D01*
X149786686Y-82982490D01*
X149891995Y-83236727D01*
X150044880Y-83465535D01*
X150239465Y-83660120D01*
X150468273Y-83813005D01*
X150722510Y-83918314D01*
X150992408Y-83972000D01*
X151267592Y-83972000D01*
X151537490Y-83918314D01*
X151791727Y-83813005D01*
X152020535Y-83660120D01*
X152215120Y-83465535D01*
X152368005Y-83236727D01*
X152400000Y-83159485D01*
X152431995Y-83236727D01*
X152584880Y-83465535D01*
X152779465Y-83660120D01*
X153008273Y-83813005D01*
X153262510Y-83918314D01*
X153532408Y-83972000D01*
X153807592Y-83972000D01*
X154077490Y-83918314D01*
X154331727Y-83813005D01*
X154560535Y-83660120D01*
X154755120Y-83465535D01*
X154908005Y-83236727D01*
X155013314Y-82982490D01*
X155067000Y-82712592D01*
X155067000Y-82437408D01*
X155013314Y-82167510D01*
X154908005Y-81913273D01*
X154755120Y-81684465D01*
X154560535Y-81489880D01*
X154331727Y-81336995D01*
X154077490Y-81231686D01*
X153807592Y-81178000D01*
X153532408Y-81178000D01*
X153262510Y-81231686D01*
X153008273Y-81336995D01*
X152779465Y-81489880D01*
X152584880Y-81684465D01*
X152431995Y-81913273D01*
X152400000Y-81990515D01*
X152368005Y-81913273D01*
X152215120Y-81684465D01*
X152020535Y-81489880D01*
X151791727Y-81336995D01*
X151537490Y-81231686D01*
X151267592Y-81178000D01*
X150992408Y-81178000D01*
X150722510Y-81231686D01*
X150468273Y-81336995D01*
X150239465Y-81489880D01*
X150044880Y-81684465D01*
X149891995Y-81913273D01*
X149786686Y-82167510D01*
X149733000Y-82437408D01*
X142367000Y-82437408D01*
X142313314Y-82167510D01*
X142208005Y-81913273D01*
X142055120Y-81684465D01*
X141860535Y-81489880D01*
X141631727Y-81336995D01*
X141377490Y-81231686D01*
X141107592Y-81178000D01*
X140832408Y-81178000D01*
X140562510Y-81231686D01*
X140308273Y-81336995D01*
X140079465Y-81489880D01*
X139884880Y-81684465D01*
X139731995Y-81913273D01*
X139710000Y-81966373D01*
X139688005Y-81913273D01*
X139535120Y-81684465D01*
X139340535Y-81489880D01*
X139111727Y-81336995D01*
X138857490Y-81231686D01*
X138587592Y-81178000D01*
X138312408Y-81178000D01*
X138042510Y-81231686D01*
X137788273Y-81336995D01*
X137559465Y-81489880D01*
X137364880Y-81684465D01*
X137211995Y-81913273D01*
X137106686Y-82167510D01*
X137053000Y-82437408D01*
X124640222Y-82437408D01*
X125065279Y-82012351D01*
X126352353Y-80725278D01*
X126381422Y-80701422D01*
X126476645Y-80585392D01*
X126547402Y-80453015D01*
X126590974Y-80309378D01*
X126599671Y-80221077D01*
X126641101Y-80198932D01*
X126859608Y-80019608D01*
X127038932Y-79801101D01*
X127172182Y-79551808D01*
X127254236Y-79281309D01*
X127281943Y-79000000D01*
X127268023Y-78858665D01*
X134565000Y-78858665D01*
X134565000Y-79141335D01*
X134620147Y-79418574D01*
X134728320Y-79679727D01*
X134885363Y-79914759D01*
X135085241Y-80114637D01*
X135320273Y-80271680D01*
X135581426Y-80379853D01*
X135858665Y-80435000D01*
X136141335Y-80435000D01*
X136418574Y-80379853D01*
X136679727Y-80271680D01*
X136914759Y-80114637D01*
X137114637Y-79914759D01*
X137271680Y-79679727D01*
X137379853Y-79418574D01*
X137435000Y-79141335D01*
X137435000Y-78858665D01*
X137379853Y-78581426D01*
X137271680Y-78320273D01*
X137114637Y-78085241D01*
X136914759Y-77885363D01*
X136679727Y-77728320D01*
X136418574Y-77620147D01*
X136141335Y-77565000D01*
X135858665Y-77565000D01*
X135581426Y-77620147D01*
X135320273Y-77728320D01*
X135085241Y-77885363D01*
X134885363Y-78085241D01*
X134728320Y-78320273D01*
X134620147Y-78581426D01*
X134565000Y-78858665D01*
X127268023Y-78858665D01*
X127254236Y-78718691D01*
X127172182Y-78448192D01*
X127038932Y-78198899D01*
X126859608Y-77980392D01*
X126641101Y-77801068D01*
X126391808Y-77667818D01*
X126121309Y-77585764D01*
X125910492Y-77565000D01*
X125769508Y-77565000D01*
X125558691Y-77585764D01*
X125288192Y-77667818D01*
X125038899Y-77801068D01*
X124820392Y-77980392D01*
X124641068Y-78198899D01*
X124507818Y-78448192D01*
X124425764Y-78718691D01*
X124398057Y-79000000D01*
X124425764Y-79281309D01*
X124507818Y-79551808D01*
X124641068Y-79801101D01*
X124820392Y-80019608D01*
X124865633Y-80056736D01*
X123987649Y-80934721D01*
X120594370Y-84328000D01*
X116947422Y-84328000D01*
X116909999Y-84324314D01*
X116872576Y-84328000D01*
X116872574Y-84328000D01*
X116760622Y-84339026D01*
X116616985Y-84382598D01*
X116484608Y-84453355D01*
X116368578Y-84548578D01*
X116344721Y-84577648D01*
X105837649Y-95084721D01*
X105808579Y-95108578D01*
X105784722Y-95137648D01*
X105784721Y-95137649D01*
X105713355Y-95224608D01*
X105642599Y-95356985D01*
X105599027Y-95500622D01*
X105584314Y-95650000D01*
X105588001Y-95687433D01*
X105588000Y-98717345D01*
X105447990Y-98810897D01*
X105250897Y-99007990D01*
X105096043Y-99239746D01*
X105080000Y-99278477D01*
X105063957Y-99239746D01*
X104909103Y-99007990D01*
X104712010Y-98810897D01*
X104480254Y-98656043D01*
X104222740Y-98549377D01*
X103949365Y-98495000D01*
X103670635Y-98495000D01*
X103397260Y-98549377D01*
X103139746Y-98656043D01*
X102907990Y-98810897D01*
X102710897Y-99007990D01*
X102556043Y-99239746D01*
X102540000Y-99278477D01*
X102523957Y-99239746D01*
X102369103Y-99007990D01*
X102172010Y-98810897D01*
X101940254Y-98656043D01*
X101682740Y-98549377D01*
X101409365Y-98495000D01*
X101130635Y-98495000D01*
X100857260Y-98549377D01*
X100599746Y-98656043D01*
X100367990Y-98810897D01*
X100170897Y-99007990D01*
X100016043Y-99239746D01*
X100000000Y-99278477D01*
X99983957Y-99239746D01*
X99829103Y-99007990D01*
X99632010Y-98810897D01*
X99400254Y-98656043D01*
X99142740Y-98549377D01*
X98869365Y-98495000D01*
X98590635Y-98495000D01*
X98317260Y-98549377D01*
X98059746Y-98656043D01*
X97827990Y-98810897D01*
X97630897Y-99007990D01*
X97476043Y-99239746D01*
X97460000Y-99278477D01*
X97443957Y-99239746D01*
X97289103Y-99007990D01*
X97092010Y-98810897D01*
X96860254Y-98656043D01*
X96602740Y-98549377D01*
X96329365Y-98495000D01*
X96050635Y-98495000D01*
X95777260Y-98549377D01*
X95519746Y-98656043D01*
X95287990Y-98810897D01*
X95090897Y-99007990D01*
X94936043Y-99239746D01*
X94920000Y-99278477D01*
X94903957Y-99239746D01*
X94749103Y-99007990D01*
X94552010Y-98810897D01*
X94320254Y-98656043D01*
X94062740Y-98549377D01*
X93789365Y-98495000D01*
X93510635Y-98495000D01*
X93237260Y-98549377D01*
X92979746Y-98656043D01*
X92747990Y-98810897D01*
X92550897Y-99007990D01*
X92396043Y-99239746D01*
X92380000Y-99278477D01*
X92363957Y-99239746D01*
X92209103Y-99007990D01*
X92012010Y-98810897D01*
X91780254Y-98656043D01*
X91522740Y-98549377D01*
X91249365Y-98495000D01*
X90970635Y-98495000D01*
X90697260Y-98549377D01*
X90439746Y-98656043D01*
X90207990Y-98810897D01*
X90010897Y-99007990D01*
X89856043Y-99239746D01*
X89840000Y-99278477D01*
X89823957Y-99239746D01*
X89669103Y-99007990D01*
X89472010Y-98810897D01*
X89332000Y-98717346D01*
X89332000Y-83607421D01*
X89335686Y-83569998D01*
X89332000Y-83532572D01*
X89320974Y-83420620D01*
X89277402Y-83276983D01*
X89244465Y-83215362D01*
X89206645Y-83144605D01*
X89135279Y-83057646D01*
X89111422Y-83028576D01*
X89082352Y-83004719D01*
X85477052Y-79399420D01*
X85445593Y-79241263D01*
X118623000Y-79241263D01*
X118623000Y-79758737D01*
X118723954Y-80266268D01*
X118921983Y-80744351D01*
X119209476Y-81174615D01*
X119575385Y-81540524D01*
X120005649Y-81828017D01*
X120483732Y-82026046D01*
X120991263Y-82127000D01*
X121508737Y-82127000D01*
X122016268Y-82026046D01*
X122494351Y-81828017D01*
X122924615Y-81540524D01*
X123290524Y-81174615D01*
X123578017Y-80744351D01*
X123776046Y-80266268D01*
X123877000Y-79758737D01*
X123877000Y-79241263D01*
X123776046Y-78733732D01*
X123578017Y-78255649D01*
X123290524Y-77825385D01*
X122924615Y-77459476D01*
X122494351Y-77171983D01*
X122016268Y-76973954D01*
X121508737Y-76873000D01*
X120991263Y-76873000D01*
X120483732Y-76973954D01*
X120005649Y-77171983D01*
X119575385Y-77459476D01*
X119209476Y-77825385D01*
X118921983Y-78255649D01*
X118723954Y-78733732D01*
X118623000Y-79241263D01*
X85445593Y-79241263D01*
X85440320Y-79214755D01*
X85366604Y-79036788D01*
X85259585Y-78876623D01*
X85123375Y-78740413D01*
X84963210Y-78633394D01*
X84785243Y-78559678D01*
X84596315Y-78522098D01*
X84403685Y-78522098D01*
X84214757Y-78559678D01*
X84036790Y-78633394D01*
X83876625Y-78740413D01*
X83740415Y-78876623D01*
X83633396Y-79036788D01*
X83559680Y-79214755D01*
X83522100Y-79403683D01*
X83522100Y-79596313D01*
X83559680Y-79785241D01*
X83633396Y-79963208D01*
X83740415Y-80123373D01*
X83876625Y-80259583D01*
X84036790Y-80366602D01*
X84214757Y-80440318D01*
X84399422Y-80477050D01*
X87808001Y-83885630D01*
X87808000Y-98717345D01*
X87667990Y-98810897D01*
X87470897Y-99007990D01*
X87316043Y-99239746D01*
X87300000Y-99278477D01*
X87283957Y-99239746D01*
X87129103Y-99007990D01*
X86932010Y-98810897D01*
X86792000Y-98717346D01*
X86792000Y-84317423D01*
X86795686Y-84280000D01*
X86788461Y-84206643D01*
X86780974Y-84130622D01*
X86737402Y-83986985D01*
X86718113Y-83950898D01*
X86713822Y-83936752D01*
X86645424Y-83808788D01*
X86553375Y-83696625D01*
X86441213Y-83604576D01*
X86421864Y-83594234D01*
X81315284Y-78487654D01*
X81291422Y-78458578D01*
X81258302Y-78431397D01*
X81362740Y-78410623D01*
X81620254Y-78303957D01*
X81852010Y-78149103D01*
X82049103Y-77952010D01*
X82203957Y-77720254D01*
X82220000Y-77681523D01*
X82236043Y-77720254D01*
X82390897Y-77952010D01*
X82587990Y-78149103D01*
X82819746Y-78303957D01*
X83077260Y-78410623D01*
X83350635Y-78465000D01*
X83629365Y-78465000D01*
X83902740Y-78410623D01*
X84160254Y-78303957D01*
X84392010Y-78149103D01*
X84589103Y-77952010D01*
X84743957Y-77720254D01*
X84760000Y-77681523D01*
X84776043Y-77720254D01*
X84930897Y-77952010D01*
X85127990Y-78149103D01*
X85359746Y-78303957D01*
X85617260Y-78410623D01*
X85890635Y-78465000D01*
X86169365Y-78465000D01*
X86442740Y-78410623D01*
X86700254Y-78303957D01*
X86932010Y-78149103D01*
X87129103Y-77952010D01*
X87283957Y-77720254D01*
X87300000Y-77681523D01*
X87316043Y-77720254D01*
X87470897Y-77952010D01*
X87667990Y-78149103D01*
X87899746Y-78303957D01*
X88157260Y-78410623D01*
X88430635Y-78465000D01*
X88709365Y-78465000D01*
X88982740Y-78410623D01*
X89240254Y-78303957D01*
X89472010Y-78149103D01*
X89669103Y-77952010D01*
X89823957Y-77720254D01*
X89840000Y-77681523D01*
X89856043Y-77720254D01*
X90010897Y-77952010D01*
X90207990Y-78149103D01*
X90439746Y-78303957D01*
X90697260Y-78410623D01*
X90970635Y-78465000D01*
X91249365Y-78465000D01*
X91522740Y-78410623D01*
X91780254Y-78303957D01*
X92012010Y-78149103D01*
X92209103Y-77952010D01*
X92363957Y-77720254D01*
X92380000Y-77681523D01*
X92396043Y-77720254D01*
X92550897Y-77952010D01*
X92747990Y-78149103D01*
X92979746Y-78303957D01*
X93237260Y-78410623D01*
X93510635Y-78465000D01*
X93789365Y-78465000D01*
X94062740Y-78410623D01*
X94320254Y-78303957D01*
X94552010Y-78149103D01*
X94749103Y-77952010D01*
X94903957Y-77720254D01*
X94920000Y-77681523D01*
X94936043Y-77720254D01*
X95090897Y-77952010D01*
X95287990Y-78149103D01*
X95519746Y-78303957D01*
X95777260Y-78410623D01*
X96050635Y-78465000D01*
X96329365Y-78465000D01*
X96602740Y-78410623D01*
X96860254Y-78303957D01*
X97092010Y-78149103D01*
X97289103Y-77952010D01*
X97443957Y-77720254D01*
X97460000Y-77681523D01*
X97476043Y-77720254D01*
X97630897Y-77952010D01*
X97827990Y-78149103D01*
X98059746Y-78303957D01*
X98317260Y-78410623D01*
X98590635Y-78465000D01*
X98869365Y-78465000D01*
X99142740Y-78410623D01*
X99400254Y-78303957D01*
X99632010Y-78149103D01*
X99829103Y-77952010D01*
X99983957Y-77720254D01*
X100000000Y-77681523D01*
X100016043Y-77720254D01*
X100170897Y-77952010D01*
X100367990Y-78149103D01*
X100599746Y-78303957D01*
X100857260Y-78410623D01*
X101130635Y-78465000D01*
X101409365Y-78465000D01*
X101682740Y-78410623D01*
X101940254Y-78303957D01*
X102172010Y-78149103D01*
X102369103Y-77952010D01*
X102523957Y-77720254D01*
X102540000Y-77681523D01*
X102556043Y-77720254D01*
X102710897Y-77952010D01*
X102907990Y-78149103D01*
X103139746Y-78303957D01*
X103397260Y-78410623D01*
X103670635Y-78465000D01*
X103949365Y-78465000D01*
X104222740Y-78410623D01*
X104480254Y-78303957D01*
X104712010Y-78149103D01*
X104909103Y-77952010D01*
X105063957Y-77720254D01*
X105080000Y-77681523D01*
X105096043Y-77720254D01*
X105250897Y-77952010D01*
X105447990Y-78149103D01*
X105679746Y-78303957D01*
X105937260Y-78410623D01*
X106210635Y-78465000D01*
X106489365Y-78465000D01*
X106762740Y-78410623D01*
X107020254Y-78303957D01*
X107252010Y-78149103D01*
X107449103Y-77952010D01*
X107603957Y-77720254D01*
X107620000Y-77681523D01*
X107636043Y-77720254D01*
X107790897Y-77952010D01*
X107987990Y-78149103D01*
X108219746Y-78303957D01*
X108477260Y-78410623D01*
X108750635Y-78465000D01*
X109029365Y-78465000D01*
X109302740Y-78410623D01*
X109560254Y-78303957D01*
X109792010Y-78149103D01*
X109989103Y-77952010D01*
X110143957Y-77720254D01*
X110160000Y-77681523D01*
X110176043Y-77720254D01*
X110330897Y-77952010D01*
X110527990Y-78149103D01*
X110759746Y-78303957D01*
X111017260Y-78410623D01*
X111290635Y-78465000D01*
X111569365Y-78465000D01*
X111842740Y-78410623D01*
X112100254Y-78303957D01*
X112332010Y-78149103D01*
X112529103Y-77952010D01*
X112683957Y-77720254D01*
X112700000Y-77681523D01*
X112716043Y-77720254D01*
X112870897Y-77952010D01*
X113067990Y-78149103D01*
X113299746Y-78303957D01*
X113557260Y-78410623D01*
X113830635Y-78465000D01*
X114109365Y-78465000D01*
X114382740Y-78410623D01*
X114640254Y-78303957D01*
X114872010Y-78149103D01*
X115069103Y-77952010D01*
X115223957Y-77720254D01*
X115240000Y-77681523D01*
X115256043Y-77720254D01*
X115410897Y-77952010D01*
X115607990Y-78149103D01*
X115839746Y-78303957D01*
X116097260Y-78410623D01*
X116370635Y-78465000D01*
X116649365Y-78465000D01*
X116922740Y-78410623D01*
X117180254Y-78303957D01*
X117412010Y-78149103D01*
X117609103Y-77952010D01*
X117763957Y-77720254D01*
X117870623Y-77462740D01*
X117925000Y-77189365D01*
X117925000Y-76910635D01*
X117870623Y-76637260D01*
X117763957Y-76379746D01*
X117609103Y-76147990D01*
X117412010Y-75950897D01*
X117180254Y-75796043D01*
X116922740Y-75689377D01*
X116649365Y-75635000D01*
X116370635Y-75635000D01*
X116097260Y-75689377D01*
X115839746Y-75796043D01*
X115607990Y-75950897D01*
X115410897Y-76147990D01*
X115256043Y-76379746D01*
X115240000Y-76418477D01*
X115223957Y-76379746D01*
X115069103Y-76147990D01*
X114872010Y-75950897D01*
X114640254Y-75796043D01*
X114382740Y-75689377D01*
X114109365Y-75635000D01*
X113830635Y-75635000D01*
X113557260Y-75689377D01*
X113299746Y-75796043D01*
X113067990Y-75950897D01*
X112870897Y-76147990D01*
X112716043Y-76379746D01*
X112700000Y-76418477D01*
X112683957Y-76379746D01*
X112529103Y-76147990D01*
X112332010Y-75950897D01*
X112100254Y-75796043D01*
X111842740Y-75689377D01*
X111569365Y-75635000D01*
X111290635Y-75635000D01*
X111017260Y-75689377D01*
X110759746Y-75796043D01*
X110527990Y-75950897D01*
X110330897Y-76147990D01*
X110176043Y-76379746D01*
X110160000Y-76418477D01*
X110143957Y-76379746D01*
X109989103Y-76147990D01*
X109792010Y-75950897D01*
X109560254Y-75796043D01*
X109302740Y-75689377D01*
X109029365Y-75635000D01*
X108750635Y-75635000D01*
X108477260Y-75689377D01*
X108219746Y-75796043D01*
X107987990Y-75950897D01*
X107790897Y-76147990D01*
X107636043Y-76379746D01*
X107620000Y-76418477D01*
X107603957Y-76379746D01*
X107449103Y-76147990D01*
X107252010Y-75950897D01*
X107020254Y-75796043D01*
X106762740Y-75689377D01*
X106489365Y-75635000D01*
X106210635Y-75635000D01*
X105937260Y-75689377D01*
X105679746Y-75796043D01*
X105447990Y-75950897D01*
X105250897Y-76147990D01*
X105096043Y-76379746D01*
X105080000Y-76418477D01*
X105063957Y-76379746D01*
X104909103Y-76147990D01*
X104712010Y-75950897D01*
X104480254Y-75796043D01*
X104222740Y-75689377D01*
X103949365Y-75635000D01*
X103670635Y-75635000D01*
X103397260Y-75689377D01*
X103139746Y-75796043D01*
X102907990Y-75950897D01*
X102710897Y-76147990D01*
X102556043Y-76379746D01*
X102540000Y-76418477D01*
X102523957Y-76379746D01*
X102369103Y-76147990D01*
X102172010Y-75950897D01*
X101940254Y-75796043D01*
X101682740Y-75689377D01*
X101409365Y-75635000D01*
X101130635Y-75635000D01*
X100857260Y-75689377D01*
X100599746Y-75796043D01*
X100367990Y-75950897D01*
X100170897Y-76147990D01*
X100016043Y-76379746D01*
X100000000Y-76418477D01*
X99983957Y-76379746D01*
X99829103Y-76147990D01*
X99632010Y-75950897D01*
X99400254Y-75796043D01*
X99142740Y-75689377D01*
X98869365Y-75635000D01*
X98590635Y-75635000D01*
X98317260Y-75689377D01*
X98059746Y-75796043D01*
X97827990Y-75950897D01*
X97630897Y-76147990D01*
X97476043Y-76379746D01*
X97460000Y-76418477D01*
X97443957Y-76379746D01*
X97289103Y-76147990D01*
X97092010Y-75950897D01*
X96860254Y-75796043D01*
X96602740Y-75689377D01*
X96329365Y-75635000D01*
X96050635Y-75635000D01*
X95777260Y-75689377D01*
X95519746Y-75796043D01*
X95287990Y-75950897D01*
X95090897Y-76147990D01*
X94936043Y-76379746D01*
X94920000Y-76418477D01*
X94903957Y-76379746D01*
X94749103Y-76147990D01*
X94552010Y-75950897D01*
X94320254Y-75796043D01*
X94062740Y-75689377D01*
X93789365Y-75635000D01*
X93510635Y-75635000D01*
X93237260Y-75689377D01*
X92979746Y-75796043D01*
X92747990Y-75950897D01*
X92550897Y-76147990D01*
X92396043Y-76379746D01*
X92380000Y-76418477D01*
X92363957Y-76379746D01*
X92209103Y-76147990D01*
X92012010Y-75950897D01*
X91780254Y-75796043D01*
X91522740Y-75689377D01*
X91249365Y-75635000D01*
X90970635Y-75635000D01*
X90697260Y-75689377D01*
X90439746Y-75796043D01*
X90207990Y-75950897D01*
X90010897Y-76147990D01*
X89856043Y-76379746D01*
X89840000Y-76418477D01*
X89823957Y-76379746D01*
X89669103Y-76147990D01*
X89472010Y-75950897D01*
X89240254Y-75796043D01*
X88982740Y-75689377D01*
X88709365Y-75635000D01*
X88430635Y-75635000D01*
X88157260Y-75689377D01*
X87899746Y-75796043D01*
X87667990Y-75950897D01*
X87470897Y-76147990D01*
X87316043Y-76379746D01*
X87300000Y-76418477D01*
X87283957Y-76379746D01*
X87129103Y-76147990D01*
X86932010Y-75950897D01*
X86700254Y-75796043D01*
X86442740Y-75689377D01*
X86169365Y-75635000D01*
X85890635Y-75635000D01*
X85617260Y-75689377D01*
X85359746Y-75796043D01*
X85127990Y-75950897D01*
X84930897Y-76147990D01*
X84776043Y-76379746D01*
X84760000Y-76418477D01*
X84743957Y-76379746D01*
X84589103Y-76147990D01*
X84392010Y-75950897D01*
X84160254Y-75796043D01*
X83902740Y-75689377D01*
X83629365Y-75635000D01*
X83350635Y-75635000D01*
X83077260Y-75689377D01*
X82819746Y-75796043D01*
X82587990Y-75950897D01*
X82390897Y-76147990D01*
X82236043Y-76379746D01*
X82220000Y-76418477D01*
X82203957Y-76379746D01*
X82049103Y-76147990D01*
X81852010Y-75950897D01*
X81620254Y-75796043D01*
X81362740Y-75689377D01*
X81089365Y-75635000D01*
X80810635Y-75635000D01*
X80537260Y-75689377D01*
X80279746Y-75796043D01*
X80047990Y-75950897D01*
X79850897Y-76147990D01*
X79696043Y-76379746D01*
X79680000Y-76418477D01*
X79663957Y-76379746D01*
X79509103Y-76147990D01*
X79312010Y-75950897D01*
X79080254Y-75796043D01*
X78822740Y-75689377D01*
X78549365Y-75635000D01*
X78270635Y-75635000D01*
X77997260Y-75689377D01*
X77739746Y-75796043D01*
X77507990Y-75950897D01*
X77310897Y-76147990D01*
X77156043Y-76379746D01*
X77140000Y-76418477D01*
X77123957Y-76379746D01*
X76969103Y-76147990D01*
X76772010Y-75950897D01*
X76540254Y-75796043D01*
X76282740Y-75689377D01*
X76009365Y-75635000D01*
X75730635Y-75635000D01*
X75457260Y-75689377D01*
X75199746Y-75796043D01*
X74967990Y-75950897D01*
X74770897Y-76147990D01*
X74616043Y-76379746D01*
X74600000Y-76418477D01*
X74583957Y-76379746D01*
X74429103Y-76147990D01*
X74232010Y-75950897D01*
X74000254Y-75796043D01*
X73742740Y-75689377D01*
X73469365Y-75635000D01*
X73190635Y-75635000D01*
X72917260Y-75689377D01*
X72659746Y-75796043D01*
X72427990Y-75950897D01*
X72230897Y-76147990D01*
X72076043Y-76379746D01*
X72060000Y-76418477D01*
X72043957Y-76379746D01*
X71889103Y-76147990D01*
X71692010Y-75950897D01*
X71460254Y-75796043D01*
X71202740Y-75689377D01*
X70929365Y-75635000D01*
X70650635Y-75635000D01*
X70377260Y-75689377D01*
X70119746Y-75796043D01*
X69887990Y-75950897D01*
X69690897Y-76147990D01*
X69536043Y-76379746D01*
X69429377Y-76637260D01*
X69375000Y-76910635D01*
X69375000Y-77189365D01*
X69429377Y-77462740D01*
X69536043Y-77720254D01*
X69690897Y-77952010D01*
X69887990Y-78149103D01*
X70021034Y-78238000D01*
X65330703Y-78238000D01*
X64815284Y-77722581D01*
X64791422Y-77693505D01*
X64724973Y-77638972D01*
X64690320Y-77464757D01*
X64616604Y-77286790D01*
X64509585Y-77126625D01*
X64373375Y-76990415D01*
X64213210Y-76883396D01*
X64035243Y-76809680D01*
X63846315Y-76772100D01*
X63653685Y-76772100D01*
X63464757Y-76809680D01*
X63286790Y-76883396D01*
X63126625Y-76990415D01*
X62990415Y-77126625D01*
X62883396Y-77286790D01*
X62809680Y-77464757D01*
X62772100Y-77653685D01*
X62772100Y-77846315D01*
X62809680Y-78035243D01*
X62883396Y-78213210D01*
X62990415Y-78373375D01*
X63126625Y-78509585D01*
X63286790Y-78616604D01*
X63464757Y-78690320D01*
X63649422Y-78727052D01*
X63669643Y-78747273D01*
X63693505Y-78776349D01*
X63806635Y-78869192D01*
X64449789Y-79512346D01*
X64473651Y-79541422D01*
X64538596Y-79594721D01*
X64589680Y-79636645D01*
X64660437Y-79674465D01*
X64722058Y-79707402D01*
X64865695Y-79750974D01*
X64977647Y-79762000D01*
X64977650Y-79762000D01*
X65015073Y-79765686D01*
X65052496Y-79762000D01*
X80434370Y-79762000D01*
X85268001Y-84595631D01*
X85268000Y-98717345D01*
X85127990Y-98810897D01*
X84930897Y-99007990D01*
X84776043Y-99239746D01*
X84760000Y-99278477D01*
X84743957Y-99239746D01*
X84589103Y-99007990D01*
X84392010Y-98810897D01*
X84160254Y-98656043D01*
X83902740Y-98549377D01*
X83629365Y-98495000D01*
X83350635Y-98495000D01*
X83077260Y-98549377D01*
X82819746Y-98656043D01*
X82587990Y-98810897D01*
X82390897Y-99007990D01*
X82236043Y-99239746D01*
X82220000Y-99278477D01*
X82203957Y-99239746D01*
X82049103Y-99007990D01*
X81852010Y-98810897D01*
X81620254Y-98656043D01*
X81362740Y-98549377D01*
X81089365Y-98495000D01*
X80810635Y-98495000D01*
X80537260Y-98549377D01*
X80279746Y-98656043D01*
X80047990Y-98810897D01*
X79850897Y-99007990D01*
X79696043Y-99239746D01*
X79680000Y-99278477D01*
X79663957Y-99239746D01*
X79509103Y-99007990D01*
X79312010Y-98810897D01*
X79080254Y-98656043D01*
X78822740Y-98549377D01*
X78549365Y-98495000D01*
X78270635Y-98495000D01*
X77997260Y-98549377D01*
X77739746Y-98656043D01*
X77507990Y-98810897D01*
X77310897Y-99007990D01*
X77156043Y-99239746D01*
X77140000Y-99278477D01*
X77123957Y-99239746D01*
X76969103Y-99007990D01*
X76772010Y-98810897D01*
X76540254Y-98656043D01*
X76282740Y-98549377D01*
X76009365Y-98495000D01*
X75730635Y-98495000D01*
X75457260Y-98549377D01*
X75199746Y-98656043D01*
X74967990Y-98810897D01*
X74770897Y-99007990D01*
X74616043Y-99239746D01*
X74600000Y-99278477D01*
X74583957Y-99239746D01*
X74429103Y-99007990D01*
X74232010Y-98810897D01*
X74000254Y-98656043D01*
X73742740Y-98549377D01*
X73469365Y-98495000D01*
X73190635Y-98495000D01*
X72917260Y-98549377D01*
X72659746Y-98656043D01*
X72427990Y-98810897D01*
X72230897Y-99007990D01*
X72200531Y-99053436D01*
X72195812Y-99005518D01*
X72159502Y-98885820D01*
X72100537Y-98775506D01*
X72021185Y-98678815D01*
X71924494Y-98599463D01*
X71814180Y-98540498D01*
X71694482Y-98504188D01*
X71570000Y-98491928D01*
X70010000Y-98491928D01*
X69885518Y-98504188D01*
X69765820Y-98540498D01*
X69655506Y-98599463D01*
X69558815Y-98678815D01*
X69479463Y-98775506D01*
X69420498Y-98885820D01*
X69384188Y-99005518D01*
X69371928Y-99130000D01*
X69371928Y-100690000D01*
X69384188Y-100814482D01*
X69420498Y-100934180D01*
X69479463Y-101044494D01*
X69558815Y-101141185D01*
X69606111Y-101180000D01*
X69558815Y-101218815D01*
X69479463Y-101315506D01*
X69420498Y-101425820D01*
X69384188Y-101545518D01*
X69371928Y-101670000D01*
X69371928Y-103230000D01*
X69382762Y-103340000D01*
X41414336Y-103340000D01*
X41718029Y-103214206D01*
X42312078Y-102817275D01*
X42817275Y-102312078D01*
X43214206Y-101718029D01*
X43487617Y-101057957D01*
X43627000Y-100357228D01*
X43627000Y-99642772D01*
X43528983Y-99150000D01*
X44886928Y-99150000D01*
X44886928Y-100850000D01*
X44899188Y-100974482D01*
X44935498Y-101094180D01*
X44994463Y-101204494D01*
X45073815Y-101301185D01*
X45170506Y-101380537D01*
X45280820Y-101439502D01*
X45400518Y-101475812D01*
X45525000Y-101488072D01*
X47225000Y-101488072D01*
X47349482Y-101475812D01*
X47469180Y-101439502D01*
X47579494Y-101380537D01*
X47676185Y-101301185D01*
X47755537Y-101204494D01*
X47814502Y-101094180D01*
X47835393Y-101025313D01*
X47859866Y-101055134D01*
X48085986Y-101240706D01*
X48343966Y-101378599D01*
X48623889Y-101463513D01*
X48842050Y-101485000D01*
X48987950Y-101485000D01*
X49206111Y-101463513D01*
X49486034Y-101378599D01*
X49744014Y-101240706D01*
X49970134Y-101055134D01*
X50155706Y-100829014D01*
X50293599Y-100571034D01*
X50378513Y-100291111D01*
X50407185Y-100000000D01*
X50378513Y-99708889D01*
X50293599Y-99428966D01*
X50155706Y-99170986D01*
X50138484Y-99150000D01*
X53141928Y-99150000D01*
X53141928Y-100850000D01*
X53154188Y-100974482D01*
X53190498Y-101094180D01*
X53249463Y-101204494D01*
X53328815Y-101301185D01*
X53425506Y-101380537D01*
X53535820Y-101439502D01*
X53655518Y-101475812D01*
X53780000Y-101488072D01*
X55480000Y-101488072D01*
X55604482Y-101475812D01*
X55724180Y-101439502D01*
X55834494Y-101380537D01*
X55931185Y-101301185D01*
X56010537Y-101204494D01*
X56069502Y-101094180D01*
X56093966Y-101013534D01*
X56169731Y-101097588D01*
X56403080Y-101271641D01*
X56665901Y-101396825D01*
X56813110Y-101441476D01*
X57043000Y-101320155D01*
X57043000Y-100127000D01*
X57297000Y-100127000D01*
X57297000Y-101320155D01*
X57526890Y-101441476D01*
X57674099Y-101396825D01*
X57936920Y-101271641D01*
X58170269Y-101097588D01*
X58365178Y-100881355D01*
X58514157Y-100631252D01*
X58611481Y-100356891D01*
X58490814Y-100127000D01*
X57297000Y-100127000D01*
X57043000Y-100127000D01*
X57023000Y-100127000D01*
X57023000Y-99873000D01*
X57043000Y-99873000D01*
X57043000Y-98679845D01*
X57297000Y-98679845D01*
X57297000Y-99873000D01*
X58490814Y-99873000D01*
X58611481Y-99643109D01*
X58514157Y-99368748D01*
X58365178Y-99118645D01*
X58170269Y-98902412D01*
X57936920Y-98728359D01*
X57674099Y-98603175D01*
X57526890Y-98558524D01*
X57297000Y-98679845D01*
X57043000Y-98679845D01*
X56813110Y-98558524D01*
X56665901Y-98603175D01*
X56403080Y-98728359D01*
X56169731Y-98902412D01*
X56093966Y-98986466D01*
X56069502Y-98905820D01*
X56010537Y-98795506D01*
X55931185Y-98698815D01*
X55834494Y-98619463D01*
X55724180Y-98560498D01*
X55604482Y-98524188D01*
X55480000Y-98511928D01*
X53780000Y-98511928D01*
X53655518Y-98524188D01*
X53535820Y-98560498D01*
X53425506Y-98619463D01*
X53328815Y-98698815D01*
X53249463Y-98795506D01*
X53190498Y-98905820D01*
X53154188Y-99025518D01*
X53141928Y-99150000D01*
X50138484Y-99150000D01*
X49970134Y-98944866D01*
X49744014Y-98759294D01*
X49486034Y-98621401D01*
X49206111Y-98536487D01*
X48987950Y-98515000D01*
X48842050Y-98515000D01*
X48623889Y-98536487D01*
X48343966Y-98621401D01*
X48085986Y-98759294D01*
X47859866Y-98944866D01*
X47835393Y-98974687D01*
X47814502Y-98905820D01*
X47755537Y-98795506D01*
X47676185Y-98698815D01*
X47579494Y-98619463D01*
X47469180Y-98560498D01*
X47349482Y-98524188D01*
X47225000Y-98511928D01*
X45525000Y-98511928D01*
X45400518Y-98524188D01*
X45280820Y-98560498D01*
X45170506Y-98619463D01*
X45073815Y-98698815D01*
X44994463Y-98795506D01*
X44935498Y-98905820D01*
X44899188Y-99025518D01*
X44886928Y-99150000D01*
X43528983Y-99150000D01*
X43487617Y-98942043D01*
X43214206Y-98281971D01*
X42817275Y-97687922D01*
X42312078Y-97182725D01*
X41718029Y-96785794D01*
X41057957Y-96512383D01*
X40357228Y-96373000D01*
X39642772Y-96373000D01*
X38942043Y-96512383D01*
X38281971Y-96785794D01*
X37687922Y-97182725D01*
X37182725Y-97687922D01*
X36785794Y-98281971D01*
X36660000Y-98585664D01*
X36660000Y-93862408D01*
X37863000Y-93862408D01*
X37863000Y-94137592D01*
X37916686Y-94407490D01*
X38021995Y-94661727D01*
X38174880Y-94890535D01*
X38369465Y-95085120D01*
X38598273Y-95238005D01*
X38852510Y-95343314D01*
X39122408Y-95397000D01*
X39397592Y-95397000D01*
X39667490Y-95343314D01*
X39921727Y-95238005D01*
X40150535Y-95085120D01*
X40345120Y-94890535D01*
X40498005Y-94661727D01*
X40603314Y-94407490D01*
X40657000Y-94137592D01*
X40657000Y-93862408D01*
X55863000Y-93862408D01*
X55863000Y-94137592D01*
X55916686Y-94407490D01*
X56021995Y-94661727D01*
X56174880Y-94890535D01*
X56369465Y-95085120D01*
X56598273Y-95238005D01*
X56852510Y-95343314D01*
X57122408Y-95397000D01*
X57397592Y-95397000D01*
X57667490Y-95343314D01*
X57921727Y-95238005D01*
X58150535Y-95085120D01*
X58345120Y-94890535D01*
X58498005Y-94661727D01*
X58603314Y-94407490D01*
X58657000Y-94137592D01*
X58657000Y-93862408D01*
X58603314Y-93592510D01*
X58498005Y-93338273D01*
X58345120Y-93109465D01*
X58150535Y-92914880D01*
X57921727Y-92761995D01*
X57667490Y-92656686D01*
X57397592Y-92603000D01*
X57122408Y-92603000D01*
X56852510Y-92656686D01*
X56598273Y-92761995D01*
X56369465Y-92914880D01*
X56174880Y-93109465D01*
X56021995Y-93338273D01*
X55916686Y-93592510D01*
X55863000Y-93862408D01*
X40657000Y-93862408D01*
X40603314Y-93592510D01*
X40498005Y-93338273D01*
X40345120Y-93109465D01*
X40150535Y-92914880D01*
X39921727Y-92761995D01*
X39667490Y-92656686D01*
X39397592Y-92603000D01*
X39122408Y-92603000D01*
X38852510Y-92656686D01*
X38598273Y-92761995D01*
X38369465Y-92914880D01*
X38174880Y-93109465D01*
X38021995Y-93338273D01*
X37916686Y-93592510D01*
X37863000Y-93862408D01*
X36660000Y-93862408D01*
X36660000Y-80250000D01*
X62623000Y-80250000D01*
X62623000Y-100750000D01*
X62625440Y-100774776D01*
X62632667Y-100798601D01*
X62644403Y-100820557D01*
X62660197Y-100839803D01*
X62679443Y-100855597D01*
X62701399Y-100867333D01*
X62725224Y-100874560D01*
X62750000Y-100877000D01*
X69000000Y-100877000D01*
X69024776Y-100874560D01*
X69048601Y-100867333D01*
X69070557Y-100855597D01*
X69089803Y-100839803D01*
X69105597Y-100820557D01*
X69117333Y-100798601D01*
X69124560Y-100774776D01*
X69127000Y-100750000D01*
X69127000Y-98127000D01*
X76875000Y-98127000D01*
X76900653Y-98124382D01*
X76924426Y-98116988D01*
X76946299Y-98105097D01*
X76965433Y-98089168D01*
X76981091Y-98069812D01*
X76992672Y-98047773D01*
X76999731Y-98023899D01*
X77001997Y-97999106D01*
X76876997Y-80249106D01*
X76874560Y-80225224D01*
X76867333Y-80201399D01*
X76855597Y-80179443D01*
X76839803Y-80160197D01*
X76820557Y-80144403D01*
X76798601Y-80132667D01*
X76774776Y-80125440D01*
X76750000Y-80123000D01*
X62750000Y-80123000D01*
X62725224Y-80125440D01*
X62701399Y-80132667D01*
X62679443Y-80144403D01*
X62660197Y-80160197D01*
X62644403Y-80179443D01*
X62632667Y-80201399D01*
X62625440Y-80225224D01*
X62623000Y-80250000D01*
X36660000Y-80250000D01*
X36660000Y-65992702D01*
X64186903Y-65992702D01*
X64258486Y-66236671D01*
X64513996Y-66357571D01*
X64788184Y-66426300D01*
X65070512Y-66440217D01*
X65350130Y-66398787D01*
X65616292Y-66303603D01*
X65741514Y-66236671D01*
X65813097Y-65992702D01*
X65000000Y-65179605D01*
X64186903Y-65992702D01*
X36660000Y-65992702D01*
X36660000Y-65070512D01*
X63559783Y-65070512D01*
X63601213Y-65350130D01*
X63696397Y-65616292D01*
X63763329Y-65741514D01*
X64007298Y-65813097D01*
X64820395Y-65000000D01*
X65179605Y-65000000D01*
X65992702Y-65813097D01*
X66236671Y-65741514D01*
X66357571Y-65486004D01*
X66399182Y-65320000D01*
X69352749Y-65320000D01*
X69381684Y-65613777D01*
X69467375Y-65896264D01*
X69606531Y-66156606D01*
X69793803Y-66384797D01*
X70021994Y-66572069D01*
X70282336Y-66711225D01*
X70564823Y-66796916D01*
X70784981Y-66818600D01*
X71455019Y-66818600D01*
X71675177Y-66796916D01*
X71957664Y-66711225D01*
X72218006Y-66572069D01*
X72446197Y-66384797D01*
X72633469Y-66156606D01*
X72772625Y-65896264D01*
X72858316Y-65613777D01*
X72887251Y-65320000D01*
X72858316Y-65026223D01*
X72772625Y-64743736D01*
X72633469Y-64483394D01*
X72446197Y-64255203D01*
X72218006Y-64067931D01*
X72178647Y-64046893D01*
X72319574Y-63955483D01*
X72530873Y-63749868D01*
X72697998Y-63506981D01*
X72814527Y-63236157D01*
X72836358Y-63139026D01*
X72715217Y-62907000D01*
X71247000Y-62907000D01*
X71247000Y-62927000D01*
X70993000Y-62927000D01*
X70993000Y-62907000D01*
X69524783Y-62907000D01*
X69403642Y-63139026D01*
X69425473Y-63236157D01*
X69542002Y-63506981D01*
X69709127Y-63749868D01*
X69920426Y-63955483D01*
X70061353Y-64046893D01*
X70021994Y-64067931D01*
X69793803Y-64255203D01*
X69606531Y-64483394D01*
X69467375Y-64743736D01*
X69381684Y-65026223D01*
X69352749Y-65320000D01*
X66399182Y-65320000D01*
X66426300Y-65211816D01*
X66440217Y-64929488D01*
X66398787Y-64649870D01*
X66303603Y-64383708D01*
X66236671Y-64258486D01*
X65992702Y-64186903D01*
X65179605Y-65000000D01*
X64820395Y-65000000D01*
X64007298Y-64186903D01*
X63763329Y-64258486D01*
X63642429Y-64513996D01*
X63573700Y-64788184D01*
X63559783Y-65070512D01*
X36660000Y-65070512D01*
X36660000Y-64007298D01*
X64186903Y-64007298D01*
X65000000Y-64820395D01*
X65813097Y-64007298D01*
X65741514Y-63763329D01*
X65486004Y-63642429D01*
X65211816Y-63573700D01*
X64929488Y-63559783D01*
X64649870Y-63601213D01*
X64383708Y-63696397D01*
X64258486Y-63763329D01*
X64186903Y-64007298D01*
X36660000Y-64007298D01*
X36660000Y-53862408D01*
X37863000Y-53862408D01*
X37863000Y-54137592D01*
X37916686Y-54407490D01*
X38021995Y-54661727D01*
X38174880Y-54890535D01*
X38369465Y-55085120D01*
X38598273Y-55238005D01*
X38852510Y-55343314D01*
X39122408Y-55397000D01*
X39397592Y-55397000D01*
X39667490Y-55343314D01*
X39921727Y-55238005D01*
X40150535Y-55085120D01*
X40345120Y-54890535D01*
X40498005Y-54661727D01*
X40603314Y-54407490D01*
X40657000Y-54137592D01*
X40657000Y-53862408D01*
X40603314Y-53592510D01*
X40498005Y-53338273D01*
X40345120Y-53109465D01*
X40150535Y-52914880D01*
X39921727Y-52761995D01*
X39667490Y-52656686D01*
X39397592Y-52603000D01*
X39122408Y-52603000D01*
X38852510Y-52656686D01*
X38598273Y-52761995D01*
X38369465Y-52914880D01*
X38174880Y-53109465D01*
X38021995Y-53338273D01*
X37916686Y-53592510D01*
X37863000Y-53862408D01*
X36660000Y-53862408D01*
X36660000Y-48040000D01*
X38007815Y-48040000D01*
X38036487Y-48331111D01*
X38121401Y-48611034D01*
X38259294Y-48869014D01*
X38444866Y-49095134D01*
X38670986Y-49280706D01*
X38928966Y-49418599D01*
X39208889Y-49503513D01*
X39427050Y-49525000D01*
X39572950Y-49525000D01*
X39791111Y-49503513D01*
X40071034Y-49418599D01*
X40329014Y-49280706D01*
X40555134Y-49095134D01*
X40740706Y-48869014D01*
X40878599Y-48611034D01*
X40963513Y-48331111D01*
X40992185Y-48040000D01*
X40963513Y-47748889D01*
X40878599Y-47468966D01*
X40740706Y-47210986D01*
X40555134Y-46984866D01*
X40525313Y-46960393D01*
X40594180Y-46939502D01*
X40704494Y-46880537D01*
X40801185Y-46801185D01*
X40880537Y-46704494D01*
X40939502Y-46594180D01*
X40975812Y-46474482D01*
X40988072Y-46350000D01*
X40988072Y-44650000D01*
X40975812Y-44525518D01*
X40939502Y-44405820D01*
X40880537Y-44295506D01*
X40801185Y-44198815D01*
X40704494Y-44119463D01*
X40594180Y-44060498D01*
X40474482Y-44024188D01*
X40350000Y-44011928D01*
X38650000Y-44011928D01*
X38525518Y-44024188D01*
X38405820Y-44060498D01*
X38295506Y-44119463D01*
X38198815Y-44198815D01*
X38119463Y-44295506D01*
X38060498Y-44405820D01*
X38024188Y-44525518D01*
X38011928Y-44650000D01*
X38011928Y-46350000D01*
X38024188Y-46474482D01*
X38060498Y-46594180D01*
X38119463Y-46704494D01*
X38198815Y-46801185D01*
X38295506Y-46880537D01*
X38405820Y-46939502D01*
X38474687Y-46960393D01*
X38444866Y-46984866D01*
X38259294Y-47210986D01*
X38121401Y-47468966D01*
X38036487Y-47748889D01*
X38007815Y-48040000D01*
X36660000Y-48040000D01*
X36660000Y-40414336D01*
X36785794Y-40718029D01*
X37182725Y-41312078D01*
X37687922Y-41817275D01*
X38281971Y-42214206D01*
X38942043Y-42487617D01*
X39642772Y-42627000D01*
X40357228Y-42627000D01*
X41057957Y-42487617D01*
X41718029Y-42214206D01*
X42312078Y-41817275D01*
X42817275Y-41312078D01*
X43214206Y-40718029D01*
X43487617Y-40057957D01*
X43627000Y-39357228D01*
X43627000Y-38642772D01*
X43487617Y-37942043D01*
X43214206Y-37281971D01*
X42817275Y-36687922D01*
X42312078Y-36182725D01*
X41718029Y-35785794D01*
X41414336Y-35660000D01*
X44673414Y-35660000D01*
X44520422Y-35846422D01*
X44520422Y-35846422D01*
G37*
X44520422Y-35846422D02*
X44359315Y-36147832D01*
X44260105Y-36474881D01*
X44235000Y-36729775D01*
X44235000Y-38200224D01*
X44260105Y-38455118D01*
X44359314Y-38782167D01*
X44520421Y-39083577D01*
X44737234Y-39347766D01*
X45001422Y-39564579D01*
X45302832Y-39725686D01*
X45629881Y-39824895D01*
X45970000Y-39858394D01*
X46310118Y-39824895D01*
X46637167Y-39725686D01*
X46938577Y-39564579D01*
X47202766Y-39347766D01*
X47360139Y-39156006D01*
X47537419Y-39250764D01*
X47798493Y-39329960D01*
X48070000Y-39356701D01*
X48341506Y-39329960D01*
X48602580Y-39250764D01*
X48843187Y-39122157D01*
X49054080Y-38949081D01*
X49070000Y-38929683D01*
X49085919Y-38949080D01*
X49181000Y-39027112D01*
X49181001Y-42406330D01*
X49176700Y-42450000D01*
X49193864Y-42624274D01*
X49244698Y-42791852D01*
X49307711Y-42909740D01*
X49327248Y-42946291D01*
X49438342Y-43081659D01*
X49472259Y-43109494D01*
X56371000Y-50008236D01*
X56371001Y-52913854D01*
X56369465Y-52914880D01*
X56174880Y-53109465D01*
X56021995Y-53338273D01*
X55916686Y-53592510D01*
X55863000Y-53862408D01*
X55863000Y-54137592D01*
X55916686Y-54407490D01*
X56021995Y-54661727D01*
X56174880Y-54890535D01*
X56369465Y-55085120D01*
X56598273Y-55238005D01*
X56852510Y-55343314D01*
X57122408Y-55397000D01*
X57397592Y-55397000D01*
X57667490Y-55343314D01*
X57921727Y-55238005D01*
X58150535Y-55085120D01*
X58345120Y-54890535D01*
X58378886Y-54840000D01*
X63558057Y-54840000D01*
X63585764Y-55121309D01*
X63667818Y-55391808D01*
X63801068Y-55641101D01*
X63980392Y-55859608D01*
X64198899Y-56038932D01*
X64448192Y-56172182D01*
X64718691Y-56254236D01*
X64929508Y-56275000D01*
X65070492Y-56275000D01*
X65281309Y-56254236D01*
X65551808Y-56172182D01*
X65801101Y-56038932D01*
X66019608Y-55859608D01*
X66198932Y-55641101D01*
X66332182Y-55391808D01*
X66414236Y-55121309D01*
X66441943Y-54840000D01*
X66414236Y-54558691D01*
X66332182Y-54288192D01*
X66198932Y-54038899D01*
X66019608Y-53820392D01*
X65801101Y-53641068D01*
X65551808Y-53507818D01*
X65281309Y-53425764D01*
X65070492Y-53405000D01*
X64929508Y-53405000D01*
X64718691Y-53425764D01*
X64448192Y-53507818D01*
X64198899Y-53641068D01*
X63980392Y-53820392D01*
X63801068Y-54038899D01*
X63667818Y-54288192D01*
X63585764Y-54558691D01*
X63558057Y-54840000D01*
X58378886Y-54840000D01*
X58498005Y-54661727D01*
X58603314Y-54407490D01*
X58657000Y-54137592D01*
X58657000Y-53862408D01*
X58603314Y-53592510D01*
X58498005Y-53338273D01*
X58345120Y-53109465D01*
X58150535Y-52914880D01*
X58149000Y-52913854D01*
X58149000Y-49683668D01*
X58153301Y-49640000D01*
X58136136Y-49465725D01*
X58115039Y-49396178D01*
X58085303Y-49298149D01*
X58002753Y-49143709D01*
X57891659Y-49008341D01*
X57857743Y-48980507D01*
X52676655Y-43799419D01*
X54960000Y-43799419D01*
X54960000Y-44180581D01*
X55034361Y-44554419D01*
X55180225Y-44906566D01*
X55391987Y-45223491D01*
X55661509Y-45493013D01*
X55978434Y-45704775D01*
X56330581Y-45850639D01*
X56704419Y-45925000D01*
X57085581Y-45925000D01*
X57459419Y-45850639D01*
X57811566Y-45704775D01*
X57833678Y-45690000D01*
X59656928Y-45690000D01*
X59656928Y-48290000D01*
X59669188Y-48414482D01*
X59705498Y-48534180D01*
X59764463Y-48644494D01*
X59843815Y-48741185D01*
X59940506Y-48820537D01*
X60050820Y-48879502D01*
X60170518Y-48915812D01*
X60295000Y-48928072D01*
X62895000Y-48928072D01*
X63019482Y-48915812D01*
X63139180Y-48879502D01*
X63249494Y-48820537D01*
X63346185Y-48741185D01*
X63425537Y-48644494D01*
X63484502Y-48534180D01*
X63520812Y-48414482D01*
X63533072Y-48290000D01*
X63533072Y-47540000D01*
X69352749Y-47540000D01*
X69381684Y-47833777D01*
X69467375Y-48116264D01*
X69606531Y-48376606D01*
X69793803Y-48604797D01*
X70021994Y-48792069D01*
X70055540Y-48810000D01*
X70021994Y-48827931D01*
X69793803Y-49015203D01*
X69606531Y-49243394D01*
X69467375Y-49503736D01*
X69381684Y-49786223D01*
X69352749Y-50080000D01*
X69381684Y-50373777D01*
X69467375Y-50656264D01*
X69606531Y-50916606D01*
X69793803Y-51144797D01*
X70021994Y-51332069D01*
X70055540Y-51350000D01*
X70021994Y-51367931D01*
X69793803Y-51555203D01*
X69606531Y-51783394D01*
X69467375Y-52043736D01*
X69381684Y-52326223D01*
X69352749Y-52620000D01*
X69381684Y-52913777D01*
X69467375Y-53196264D01*
X69606531Y-53456606D01*
X69793803Y-53684797D01*
X70021994Y-53872069D01*
X70055540Y-53890000D01*
X70021994Y-53907931D01*
X69793803Y-54095203D01*
X69606531Y-54323394D01*
X69467375Y-54583736D01*
X69381684Y-54866223D01*
X69352749Y-55160000D01*
X69381684Y-55453777D01*
X69467375Y-55736264D01*
X69606531Y-55996606D01*
X69793803Y-56224797D01*
X70021994Y-56412069D01*
X70055540Y-56430000D01*
X70021994Y-56447931D01*
X69793803Y-56635203D01*
X69606531Y-56863394D01*
X69467375Y-57123736D01*
X69381684Y-57406223D01*
X69352749Y-57700000D01*
X69381684Y-57993777D01*
X69467375Y-58276264D01*
X69606531Y-58536606D01*
X69793803Y-58764797D01*
X70021994Y-58952069D01*
X70055540Y-58970000D01*
X70021994Y-58987931D01*
X69793803Y-59175203D01*
X69606531Y-59403394D01*
X69467375Y-59663736D01*
X69381684Y-59946223D01*
X69352749Y-60240000D01*
X69381684Y-60533777D01*
X69467375Y-60816264D01*
X69606531Y-61076606D01*
X69793803Y-61304797D01*
X70021994Y-61492069D01*
X70061353Y-61513107D01*
X69920426Y-61604517D01*
X69709127Y-61810132D01*
X69542002Y-62053019D01*
X69425473Y-62323843D01*
X69403642Y-62420974D01*
X69524783Y-62653000D01*
X70993000Y-62653000D01*
X70993000Y-62633000D01*
X71247000Y-62633000D01*
X71247000Y-62653000D01*
X72715217Y-62653000D01*
X72836358Y-62420974D01*
X72814527Y-62323843D01*
X72697998Y-62053019D01*
X72530873Y-61810132D01*
X72319574Y-61604517D01*
X72178647Y-61513107D01*
X72218006Y-61492069D01*
X72446197Y-61304797D01*
X72633469Y-61076606D01*
X72772625Y-60816264D01*
X72858316Y-60533777D01*
X72887251Y-60240000D01*
X72858316Y-59946223D01*
X72772625Y-59663736D01*
X72633469Y-59403394D01*
X72446197Y-59175203D01*
X72218006Y-58987931D01*
X72184460Y-58970000D01*
X72218006Y-58952069D01*
X72446197Y-58764797D01*
X72633469Y-58536606D01*
X72772625Y-58276264D01*
X72858316Y-57993777D01*
X72887251Y-57700000D01*
X72858316Y-57406223D01*
X72772625Y-57123736D01*
X72633469Y-56863394D01*
X72446197Y-56635203D01*
X72218006Y-56447931D01*
X72184460Y-56430000D01*
X72218006Y-56412069D01*
X72446197Y-56224797D01*
X72633469Y-55996606D01*
X72673347Y-55922000D01*
X81094370Y-55922000D01*
X82738001Y-57565632D01*
X82738000Y-58357425D01*
X82738001Y-58357435D01*
X82738000Y-66630239D01*
X82633396Y-66786790D01*
X82559680Y-66964757D01*
X82522100Y-67153685D01*
X82522100Y-67346315D01*
X82559680Y-67535243D01*
X82633396Y-67713210D01*
X82740415Y-67873375D01*
X82876625Y-68009585D01*
X83036790Y-68116604D01*
X83214757Y-68190320D01*
X83403685Y-68227900D01*
X83596315Y-68227900D01*
X83785243Y-68190320D01*
X83963210Y-68116604D01*
X84123375Y-68009585D01*
X84259585Y-67873375D01*
X84366604Y-67713210D01*
X84440320Y-67535243D01*
X84477900Y-67346315D01*
X84477900Y-67223685D01*
X87592100Y-67223685D01*
X87592100Y-67416315D01*
X87629680Y-67605243D01*
X87703396Y-67783210D01*
X87810415Y-67943375D01*
X87946625Y-68079585D01*
X88106790Y-68186604D01*
X88284757Y-68260320D01*
X88473685Y-68297900D01*
X88666315Y-68297900D01*
X88855243Y-68260320D01*
X89033210Y-68186604D01*
X89193375Y-68079585D01*
X89329585Y-67943375D01*
X89436604Y-67783210D01*
X89510320Y-67605243D01*
X89547900Y-67416315D01*
X89547900Y-67279730D01*
X100815631Y-56012000D01*
X133139165Y-56012000D01*
X133313803Y-56224797D01*
X133541994Y-56412069D01*
X133575540Y-56430000D01*
X133541994Y-56447931D01*
X133313803Y-56635203D01*
X133126531Y-56863394D01*
X133086653Y-56938000D01*
X101087423Y-56938000D01*
X101050000Y-56934314D01*
X101012577Y-56938000D01*
X101012574Y-56938000D01*
X100900622Y-56949026D01*
X100756985Y-56992598D01*
X100695364Y-57025535D01*
X100624607Y-57063355D01*
X100608438Y-57076625D01*
X100508578Y-57158578D01*
X100484716Y-57187654D01*
X91339422Y-66332948D01*
X91154757Y-66369680D01*
X90976790Y-66443396D01*
X90816625Y-66550415D01*
X90680415Y-66686625D01*
X90573396Y-66846790D01*
X90499680Y-67024757D01*
X90462100Y-67213685D01*
X90462100Y-67406315D01*
X90499680Y-67595243D01*
X90573396Y-67773210D01*
X90680415Y-67933375D01*
X90816625Y-68069585D01*
X90976790Y-68176604D01*
X91154757Y-68250320D01*
X91343685Y-68287900D01*
X91536315Y-68287900D01*
X91725243Y-68250320D01*
X91903210Y-68176604D01*
X92063375Y-68069585D01*
X92199585Y-67933375D01*
X92306604Y-67773210D01*
X92380320Y-67595243D01*
X92417052Y-67410578D01*
X101365630Y-58462000D01*
X133086653Y-58462000D01*
X133126531Y-58536606D01*
X133313803Y-58764797D01*
X133541994Y-58952069D01*
X133575540Y-58970000D01*
X133541994Y-58987931D01*
X133313803Y-59175203D01*
X133126531Y-59403394D01*
X132987375Y-59663736D01*
X132901684Y-59946223D01*
X132872749Y-60240000D01*
X132901684Y-60533777D01*
X132987375Y-60816264D01*
X133126531Y-61076606D01*
X133313803Y-61304797D01*
X133541994Y-61492069D01*
X133802336Y-61631225D01*
X134084823Y-61716916D01*
X134304981Y-61738600D01*
X134975019Y-61738600D01*
X135195177Y-61716916D01*
X135477664Y-61631225D01*
X135738006Y-61492069D01*
X135966197Y-61304797D01*
X136153469Y-61076606D01*
X136292625Y-60816264D01*
X136378316Y-60533777D01*
X136407251Y-60240000D01*
X136378316Y-59946223D01*
X136292625Y-59663736D01*
X136153469Y-59403394D01*
X135966197Y-59175203D01*
X135738006Y-58987931D01*
X135704460Y-58970000D01*
X135738006Y-58952069D01*
X135966197Y-58764797D01*
X136153469Y-58536606D01*
X136292625Y-58276264D01*
X136378316Y-57993777D01*
X136407251Y-57700000D01*
X136378316Y-57406223D01*
X136292625Y-57123736D01*
X136153469Y-56863394D01*
X135966197Y-56635203D01*
X135738006Y-56447931D01*
X135704460Y-56430000D01*
X135738006Y-56412069D01*
X135966197Y-56224797D01*
X136153469Y-55996606D01*
X136292625Y-55736264D01*
X136378316Y-55453777D01*
X136407251Y-55160000D01*
X136378316Y-54866223D01*
X136292625Y-54583736D01*
X136153469Y-54323394D01*
X135966197Y-54095203D01*
X135738006Y-53907931D01*
X135704460Y-53890000D01*
X135738006Y-53872069D01*
X135966197Y-53684797D01*
X136153469Y-53456606D01*
X136292625Y-53196264D01*
X136378316Y-52913777D01*
X136407251Y-52620000D01*
X136378316Y-52326223D01*
X136292625Y-52043736D01*
X136153469Y-51783394D01*
X135966197Y-51555203D01*
X135958135Y-51548586D01*
X136009180Y-51533102D01*
X136119494Y-51474137D01*
X136216185Y-51394785D01*
X136295537Y-51298094D01*
X136354502Y-51187780D01*
X136390812Y-51068082D01*
X136403072Y-50943600D01*
X136403072Y-49216400D01*
X136390812Y-49091918D01*
X136354502Y-48972220D01*
X136295537Y-48861906D01*
X136216185Y-48765215D01*
X136119494Y-48685863D01*
X136009180Y-48626898D01*
X135889482Y-48590588D01*
X135765000Y-48578328D01*
X133515000Y-48578328D01*
X133390518Y-48590588D01*
X133270820Y-48626898D01*
X133160506Y-48685863D01*
X133063815Y-48765215D01*
X132984463Y-48861906D01*
X132925498Y-48972220D01*
X132889188Y-49091918D01*
X132876928Y-49216400D01*
X132876928Y-50943600D01*
X132889188Y-51068082D01*
X132925498Y-51187780D01*
X132984463Y-51298094D01*
X133063815Y-51394785D01*
X133160506Y-51474137D01*
X133270820Y-51533102D01*
X133321865Y-51548586D01*
X133313803Y-51555203D01*
X133164613Y-51736992D01*
X133154374Y-51738000D01*
X95687423Y-51738000D01*
X95650000Y-51734314D01*
X95612577Y-51738000D01*
X95612574Y-51738000D01*
X95500622Y-51749026D01*
X95356985Y-51792598D01*
X95295364Y-51825535D01*
X95224607Y-51863355D01*
X95182219Y-51898143D01*
X95108578Y-51958578D01*
X95084716Y-51987654D01*
X90349422Y-56722948D01*
X90164757Y-56759680D01*
X89986790Y-56833396D01*
X89826625Y-56940415D01*
X89690415Y-57076625D01*
X89583396Y-57236790D01*
X89509680Y-57414757D01*
X89472100Y-57603685D01*
X89472100Y-57796315D01*
X89509680Y-57985243D01*
X89583396Y-58163210D01*
X89690415Y-58323375D01*
X89826625Y-58459585D01*
X89986790Y-58566604D01*
X90164757Y-58640320D01*
X90353685Y-58677900D01*
X90546315Y-58677900D01*
X90735243Y-58640320D01*
X90913210Y-58566604D01*
X91073375Y-58459585D01*
X91209585Y-58323375D01*
X91316604Y-58163210D01*
X91390320Y-57985243D01*
X91427052Y-57800578D01*
X95965630Y-53262000D01*
X132845626Y-53262000D01*
X132967985Y-53327402D01*
X133074787Y-53359800D01*
X133126531Y-53456606D01*
X133313803Y-53684797D01*
X133541994Y-53872069D01*
X133575540Y-53890000D01*
X133541994Y-53907931D01*
X133313803Y-54095203D01*
X133126531Y-54323394D01*
X133074787Y-54420200D01*
X132967985Y-54452598D01*
X132901753Y-54488000D01*
X100537423Y-54488000D01*
X100500000Y-54484314D01*
X100462577Y-54488000D01*
X100462574Y-54488000D01*
X100350622Y-54499026D01*
X100206985Y-54542598D01*
X100074608Y-54613355D01*
X99958578Y-54708578D01*
X99934713Y-54737658D01*
X99862655Y-54809715D01*
X99862648Y-54809721D01*
X88294660Y-66377710D01*
X88284757Y-66379680D01*
X88106790Y-66453396D01*
X87946625Y-66560415D01*
X87810415Y-66696625D01*
X87703396Y-66856790D01*
X87629680Y-67034757D01*
X87592100Y-67223685D01*
X84477900Y-67223685D01*
X84477900Y-67153685D01*
X84440320Y-66964757D01*
X84366604Y-66786790D01*
X84262000Y-66630239D01*
X84262000Y-57287422D01*
X84265686Y-57249999D01*
X84256940Y-57161198D01*
X84250974Y-57100622D01*
X84207402Y-56956985D01*
X84136645Y-56824608D01*
X84041422Y-56708578D01*
X84012352Y-56684721D01*
X81975284Y-54647654D01*
X81951422Y-54618578D01*
X81835392Y-54523355D01*
X81703015Y-54452598D01*
X81559378Y-54409026D01*
X81447426Y-54398000D01*
X81447423Y-54398000D01*
X81410000Y-54394314D01*
X81372577Y-54398000D01*
X72673347Y-54398000D01*
X72633469Y-54323394D01*
X72446197Y-54095203D01*
X72218006Y-53907931D01*
X72184460Y-53890000D01*
X72218006Y-53872069D01*
X72446197Y-53684797D01*
X72633469Y-53456606D01*
X72772625Y-53196264D01*
X72858316Y-52913777D01*
X72887251Y-52620000D01*
X72858316Y-52326223D01*
X72772625Y-52043736D01*
X72633469Y-51783394D01*
X72446197Y-51555203D01*
X72218006Y-51367931D01*
X72184460Y-51350000D01*
X72218006Y-51332069D01*
X72446197Y-51144797D01*
X72633469Y-50916606D01*
X72772625Y-50656264D01*
X72858316Y-50373777D01*
X72887251Y-50080000D01*
X72858316Y-49786223D01*
X72772625Y-49503736D01*
X72633469Y-49243394D01*
X72446197Y-49015203D01*
X72218006Y-48827931D01*
X72184460Y-48810000D01*
X72218006Y-48792069D01*
X72446197Y-48604797D01*
X72633469Y-48376606D01*
X72772625Y-48116264D01*
X72858316Y-47833777D01*
X72887251Y-47540000D01*
X72858316Y-47246223D01*
X72772625Y-46963736D01*
X72633469Y-46703394D01*
X72446197Y-46475203D01*
X72438135Y-46468586D01*
X72489180Y-46453102D01*
X72599494Y-46394137D01*
X72696185Y-46314785D01*
X72775537Y-46218094D01*
X72834502Y-46107780D01*
X72870812Y-45988082D01*
X72883072Y-45863600D01*
X72880000Y-45285750D01*
X72721250Y-45127000D01*
X71247000Y-45127000D01*
X71247000Y-45147000D01*
X70993000Y-45147000D01*
X70993000Y-45127000D01*
X69518750Y-45127000D01*
X69360000Y-45285750D01*
X69356928Y-45863600D01*
X69369188Y-45988082D01*
X69405498Y-46107780D01*
X69464463Y-46218094D01*
X69543815Y-46314785D01*
X69640506Y-46394137D01*
X69750820Y-46453102D01*
X69801865Y-46468586D01*
X69793803Y-46475203D01*
X69606531Y-46703394D01*
X69467375Y-46963736D01*
X69381684Y-47246223D01*
X69352749Y-47540000D01*
X63533072Y-47540000D01*
X63533072Y-45690000D01*
X63520812Y-45565518D01*
X63484502Y-45445820D01*
X63425537Y-45335506D01*
X63346185Y-45238815D01*
X63249494Y-45159463D01*
X63139180Y-45100498D01*
X63019482Y-45064188D01*
X62895000Y-45051928D01*
X60295000Y-45051928D01*
X60170518Y-45064188D01*
X60050820Y-45100498D01*
X59940506Y-45159463D01*
X59843815Y-45238815D01*
X59764463Y-45335506D01*
X59705498Y-45445820D01*
X59669188Y-45565518D01*
X59656928Y-45690000D01*
X57833678Y-45690000D01*
X58128491Y-45493013D01*
X58398013Y-45223491D01*
X58609775Y-44906566D01*
X58755639Y-44554419D01*
X58830000Y-44180581D01*
X58830000Y-44136400D01*
X69356928Y-44136400D01*
X69360000Y-44714250D01*
X69518750Y-44873000D01*
X70993000Y-44873000D01*
X70993000Y-43660150D01*
X71247000Y-43660150D01*
X71247000Y-44873000D01*
X72721250Y-44873000D01*
X72880000Y-44714250D01*
X72883072Y-44136400D01*
X72870812Y-44011918D01*
X72834502Y-43892220D01*
X72775537Y-43781906D01*
X72696185Y-43685215D01*
X72599494Y-43605863D01*
X72489180Y-43546898D01*
X72369482Y-43510588D01*
X72245000Y-43498328D01*
X71405750Y-43501400D01*
X71247000Y-43660150D01*
X70993000Y-43660150D01*
X70834250Y-43501400D01*
X69995000Y-43498328D01*
X69870518Y-43510588D01*
X69750820Y-43546898D01*
X69640506Y-43605863D01*
X69543815Y-43685215D01*
X69464463Y-43781906D01*
X69405498Y-43892220D01*
X69369188Y-44011918D01*
X69356928Y-44136400D01*
X58830000Y-44136400D01*
X58830000Y-43799419D01*
X58755639Y-43425581D01*
X58755230Y-43424592D01*
X139515000Y-43424592D01*
X139515000Y-43775407D01*
X139537210Y-44000912D01*
X139624983Y-44290260D01*
X139767519Y-44556926D01*
X139959339Y-44790661D01*
X140193073Y-44982481D01*
X140459739Y-45125017D01*
X140749087Y-45212790D01*
X141050000Y-45242427D01*
X141350912Y-45212790D01*
X141640260Y-45125017D01*
X141906926Y-44982481D01*
X142140661Y-44790661D01*
X142300000Y-44596505D01*
X142459339Y-44790661D01*
X142693073Y-44982481D01*
X142959739Y-45125017D01*
X143249087Y-45212790D01*
X143550000Y-45242427D01*
X143850912Y-45212790D01*
X144140260Y-45125017D01*
X144406926Y-44982481D01*
X144640661Y-44790661D01*
X144832481Y-44556927D01*
X144975017Y-44290261D01*
X145062790Y-44000913D01*
X145085000Y-43775408D01*
X145085000Y-43424593D01*
X145062790Y-43199088D01*
X144975017Y-42909740D01*
X144832481Y-42643073D01*
X144640661Y-42409339D01*
X144406927Y-42217519D01*
X144140261Y-42074983D01*
X143850913Y-41987210D01*
X143550000Y-41957573D01*
X143249088Y-41987210D01*
X142959740Y-42074983D01*
X142693074Y-42217519D01*
X142459339Y-42409339D01*
X142300000Y-42603495D01*
X142140661Y-42409339D01*
X141906927Y-42217519D01*
X141640261Y-42074983D01*
X141350913Y-41987210D01*
X141050000Y-41957573D01*
X140749088Y-41987210D01*
X140459740Y-42074983D01*
X140193074Y-42217519D01*
X139959339Y-42409339D01*
X139767519Y-42643073D01*
X139624983Y-42909739D01*
X139537210Y-43199087D01*
X139515000Y-43424592D01*
X58755230Y-43424592D01*
X58609775Y-43073434D01*
X58398013Y-42756509D01*
X58128491Y-42486987D01*
X57811566Y-42275225D01*
X57459419Y-42129361D01*
X57085581Y-42055000D01*
X56704419Y-42055000D01*
X56330581Y-42129361D01*
X55978434Y-42275225D01*
X55661509Y-42486987D01*
X55391987Y-42756509D01*
X55180225Y-43073434D01*
X55034361Y-43425581D01*
X54960000Y-43799419D01*
X52676655Y-43799419D01*
X50959000Y-42081765D01*
X50959000Y-40799419D01*
X59660000Y-40799419D01*
X59660000Y-41180581D01*
X59734361Y-41554419D01*
X59880225Y-41906566D01*
X60091987Y-42223491D01*
X60361509Y-42493013D01*
X60678434Y-42704775D01*
X61030581Y-42850639D01*
X61404419Y-42925000D01*
X61785581Y-42925000D01*
X62159419Y-42850639D01*
X62511566Y-42704775D01*
X62828491Y-42493013D01*
X63098013Y-42223491D01*
X63309775Y-41906566D01*
X63455639Y-41554419D01*
X63530000Y-41180581D01*
X63530000Y-40799419D01*
X63455639Y-40425581D01*
X63309775Y-40073434D01*
X63098013Y-39756509D01*
X62828491Y-39486987D01*
X62511566Y-39275225D01*
X62159419Y-39129361D01*
X61785581Y-39055000D01*
X61404419Y-39055000D01*
X61030581Y-39129361D01*
X60678434Y-39275225D01*
X60361509Y-39486987D01*
X60091987Y-39756509D01*
X59880225Y-40073434D01*
X59734361Y-40425581D01*
X59660000Y-40799419D01*
X50959000Y-40799419D01*
X50959000Y-39240198D01*
X50965506Y-39245537D01*
X51075820Y-39304502D01*
X51195518Y-39340812D01*
X51320000Y-39353072D01*
X52820000Y-39353072D01*
X52932496Y-39341992D01*
X52937234Y-39347766D01*
X53201422Y-39564579D01*
X53502832Y-39725686D01*
X53829881Y-39824895D01*
X54170000Y-39858394D01*
X54510118Y-39824895D01*
X54837167Y-39725686D01*
X55138577Y-39564579D01*
X55402766Y-39347766D01*
X55619579Y-39083578D01*
X55780686Y-38782168D01*
X55879895Y-38455119D01*
X55905000Y-38200225D01*
X55905000Y-37924592D01*
X144515000Y-37924592D01*
X144515000Y-38275407D01*
X144537210Y-38500912D01*
X144624983Y-38790260D01*
X144767519Y-39056926D01*
X144959339Y-39290661D01*
X145193073Y-39482481D01*
X145288000Y-39533221D01*
X145288001Y-62757935D01*
X145127748Y-62865013D01*
X144900013Y-63092748D01*
X144721082Y-63360537D01*
X144597832Y-63658088D01*
X144535000Y-63973967D01*
X144535000Y-64296033D01*
X144597832Y-64611912D01*
X144721082Y-64909463D01*
X144900013Y-65177252D01*
X145127748Y-65404987D01*
X145395537Y-65583918D01*
X145693088Y-65707168D01*
X146008967Y-65770000D01*
X146331033Y-65770000D01*
X146646912Y-65707168D01*
X146944463Y-65583918D01*
X147212252Y-65404987D01*
X147439987Y-65177252D01*
X147618918Y-64909463D01*
X147742168Y-64611912D01*
X147805000Y-64296033D01*
X147805000Y-63973967D01*
X159535000Y-63973967D01*
X159535000Y-64296033D01*
X159597832Y-64611912D01*
X159721082Y-64909463D01*
X159900013Y-65177252D01*
X160127748Y-65404987D01*
X160395537Y-65583918D01*
X160693088Y-65707168D01*
X161008967Y-65770000D01*
X161331033Y-65770000D01*
X161646912Y-65707168D01*
X161944463Y-65583918D01*
X162212252Y-65404987D01*
X162439987Y-65177252D01*
X162618918Y-64909463D01*
X162742168Y-64611912D01*
X162805000Y-64296033D01*
X162805000Y-63973967D01*
X162742168Y-63658088D01*
X162618918Y-63360537D01*
X162439987Y-63092748D01*
X162212252Y-62865013D01*
X161944463Y-62686082D01*
X161646912Y-62562832D01*
X161331033Y-62500000D01*
X161008967Y-62500000D01*
X160693088Y-62562832D01*
X160395537Y-62686082D01*
X160127748Y-62865013D01*
X159900013Y-63092748D01*
X159721082Y-63360537D01*
X159597832Y-63658088D01*
X159535000Y-63973967D01*
X147805000Y-63973967D01*
X147742168Y-63658088D01*
X147618918Y-63360537D01*
X147439987Y-63092748D01*
X147212252Y-62865013D01*
X146944463Y-62686082D01*
X146812000Y-62631214D01*
X146812000Y-43424592D01*
X147015000Y-43424592D01*
X147015000Y-43775407D01*
X147037210Y-44000912D01*
X147124983Y-44290260D01*
X147267519Y-44556926D01*
X147459339Y-44790661D01*
X147693073Y-44982481D01*
X147959739Y-45125017D01*
X148249087Y-45212790D01*
X148550000Y-45242427D01*
X148850912Y-45212790D01*
X149140260Y-45125017D01*
X149406926Y-44982481D01*
X149640661Y-44790661D01*
X149800000Y-44596505D01*
X149959339Y-44790661D01*
X150193073Y-44982481D01*
X150459739Y-45125017D01*
X150749087Y-45212790D01*
X151050000Y-45242427D01*
X151350912Y-45212790D01*
X151640260Y-45125017D01*
X151906926Y-44982481D01*
X152140661Y-44790661D01*
X152332481Y-44556927D01*
X152475017Y-44290261D01*
X152562790Y-44000913D01*
X152585000Y-43775408D01*
X152585000Y-43424593D01*
X152575151Y-43324592D01*
X154755000Y-43324592D01*
X154755000Y-43675407D01*
X154777210Y-43900912D01*
X154864983Y-44190260D01*
X155007519Y-44456926D01*
X155199339Y-44690661D01*
X155433073Y-44882481D01*
X155699739Y-45025017D01*
X155989087Y-45112790D01*
X156290000Y-45142427D01*
X156590912Y-45112790D01*
X156880260Y-45025017D01*
X157146926Y-44882481D01*
X157380661Y-44690661D01*
X157540000Y-44496505D01*
X157699339Y-44690661D01*
X157933073Y-44882481D01*
X158199739Y-45025017D01*
X158489087Y-45112790D01*
X158790000Y-45142427D01*
X159090912Y-45112790D01*
X159380260Y-45025017D01*
X159646926Y-44882481D01*
X159880661Y-44690661D01*
X160072481Y-44456927D01*
X160215017Y-44190261D01*
X160302790Y-43900913D01*
X160325000Y-43675408D01*
X160325000Y-43324593D01*
X160325000Y-43324592D01*
X162255000Y-43324592D01*
X162255000Y-43675407D01*
X162277210Y-43900912D01*
X162364983Y-44190260D01*
X162507519Y-44456926D01*
X162699339Y-44690661D01*
X162933073Y-44882481D01*
X163199739Y-45025017D01*
X163489087Y-45112790D01*
X163790000Y-45142427D01*
X164090912Y-45112790D01*
X164380260Y-45025017D01*
X164646926Y-44882481D01*
X164880661Y-44690661D01*
X165040000Y-44496505D01*
X165199339Y-44690661D01*
X165433073Y-44882481D01*
X165699739Y-45025017D01*
X165989087Y-45112790D01*
X166290000Y-45142427D01*
X166590912Y-45112790D01*
X166880260Y-45025017D01*
X167146926Y-44882481D01*
X167380661Y-44690661D01*
X167572481Y-44456927D01*
X167715017Y-44190261D01*
X167802790Y-43900913D01*
X167825000Y-43675408D01*
X167825000Y-43324593D01*
X167802790Y-43099088D01*
X167715017Y-42809740D01*
X167572481Y-42543073D01*
X167380661Y-42309339D01*
X167146927Y-42117519D01*
X166880261Y-41974983D01*
X166590913Y-41887210D01*
X166290000Y-41857573D01*
X165989088Y-41887210D01*
X165699740Y-41974983D01*
X165433074Y-42117519D01*
X165199339Y-42309339D01*
X165040000Y-42503495D01*
X164880661Y-42309339D01*
X164646927Y-42117519D01*
X164380261Y-41974983D01*
X164090913Y-41887210D01*
X163790000Y-41857573D01*
X163489088Y-41887210D01*
X163199740Y-41974983D01*
X162933074Y-42117519D01*
X162699339Y-42309339D01*
X162507519Y-42543073D01*
X162364983Y-42809739D01*
X162277210Y-43099087D01*
X162255000Y-43324592D01*
X160325000Y-43324592D01*
X160302790Y-43099088D01*
X160215017Y-42809740D01*
X160072481Y-42543073D01*
X159880661Y-42309339D01*
X159646927Y-42117519D01*
X159380261Y-41974983D01*
X159090913Y-41887210D01*
X158790000Y-41857573D01*
X158489088Y-41887210D01*
X158199740Y-41974983D01*
X157933074Y-42117519D01*
X157699339Y-42309339D01*
X157540000Y-42503495D01*
X157380661Y-42309339D01*
X157146927Y-42117519D01*
X156880261Y-41974983D01*
X156590913Y-41887210D01*
X156290000Y-41857573D01*
X155989088Y-41887210D01*
X155699740Y-41974983D01*
X155433074Y-42117519D01*
X155199339Y-42309339D01*
X155007519Y-42543073D01*
X154864983Y-42809739D01*
X154777210Y-43099087D01*
X154755000Y-43324592D01*
X152575151Y-43324592D01*
X152562790Y-43199088D01*
X152475017Y-42909740D01*
X152332481Y-42643073D01*
X152140661Y-42409339D01*
X151906927Y-42217519D01*
X151640261Y-42074983D01*
X151350913Y-41987210D01*
X151050000Y-41957573D01*
X150749088Y-41987210D01*
X150459740Y-42074983D01*
X150193074Y-42217519D01*
X149959339Y-42409339D01*
X149800000Y-42603495D01*
X149640661Y-42409339D01*
X149406927Y-42217519D01*
X149140261Y-42074983D01*
X148850913Y-41987210D01*
X148550000Y-41957573D01*
X148249088Y-41987210D01*
X147959740Y-42074983D01*
X147693074Y-42217519D01*
X147459339Y-42409339D01*
X147267519Y-42643073D01*
X147124983Y-42909739D01*
X147037210Y-43199087D01*
X147015000Y-43424592D01*
X146812000Y-43424592D01*
X146812000Y-39533220D01*
X146906926Y-39482481D01*
X147140661Y-39290661D01*
X147332481Y-39056927D01*
X147475017Y-38790261D01*
X147562790Y-38500913D01*
X147585000Y-38275408D01*
X147585000Y-37924593D01*
X147575151Y-37824592D01*
X159755000Y-37824592D01*
X159755000Y-38175407D01*
X159777210Y-38400912D01*
X159864983Y-38690260D01*
X160007519Y-38956926D01*
X160199339Y-39190661D01*
X160433073Y-39382481D01*
X160699739Y-39525017D01*
X160989087Y-39612790D01*
X161290000Y-39642427D01*
X161590912Y-39612790D01*
X161880260Y-39525017D01*
X162146926Y-39382481D01*
X162380661Y-39190661D01*
X162572481Y-38956927D01*
X162715017Y-38690261D01*
X162802790Y-38400913D01*
X162825000Y-38175408D01*
X162825000Y-37824593D01*
X162802790Y-37599088D01*
X162715017Y-37309740D01*
X162572481Y-37043073D01*
X162380661Y-36809339D01*
X162146927Y-36617519D01*
X161880261Y-36474983D01*
X161590913Y-36387210D01*
X161290000Y-36357573D01*
X160989088Y-36387210D01*
X160699740Y-36474983D01*
X160433074Y-36617519D01*
X160199339Y-36809339D01*
X160007519Y-37043073D01*
X159864983Y-37309739D01*
X159777210Y-37599087D01*
X159755000Y-37824592D01*
X147575151Y-37824592D01*
X147562790Y-37699088D01*
X147475017Y-37409740D01*
X147332481Y-37143073D01*
X147140661Y-36909339D01*
X146906927Y-36717519D01*
X146640261Y-36574983D01*
X146350913Y-36487210D01*
X146050000Y-36457573D01*
X145749088Y-36487210D01*
X145459740Y-36574983D01*
X145193074Y-36717519D01*
X144959339Y-36909339D01*
X144767519Y-37143073D01*
X144624983Y-37409739D01*
X144537210Y-37699087D01*
X144515000Y-37924592D01*
X55905000Y-37924592D01*
X55905000Y-36729775D01*
X55879895Y-36474881D01*
X55780686Y-36147832D01*
X55619579Y-35846422D01*
X55466587Y-35660000D01*
X171585664Y-35660000D01*
X171281971Y-35785794D01*
X170687922Y-36182725D01*
X170182725Y-36687922D01*
X169785794Y-37281971D01*
X169512383Y-37942043D01*
X169373000Y-38642772D01*
X169373000Y-39357228D01*
X169512383Y-40057957D01*
X169785794Y-40718029D01*
X170182725Y-41312078D01*
X170687922Y-41817275D01*
X171281971Y-42214206D01*
X171942043Y-42487617D01*
X172642772Y-42627000D01*
X173357228Y-42627000D01*
X174057957Y-42487617D01*
X174718029Y-42214206D01*
X175312078Y-41817275D01*
X175817275Y-41312078D01*
X176214206Y-40718029D01*
X176340000Y-40414336D01*
X176340001Y-98585667D01*
X176214206Y-98281971D01*
X175817275Y-97687922D01*
X175312078Y-97182725D01*
X174718029Y-96785794D01*
X174057957Y-96512383D01*
X173357228Y-96373000D01*
X172642772Y-96373000D01*
X171942043Y-96512383D01*
X171281971Y-96785794D01*
X170687922Y-97182725D01*
X170182725Y-97687922D01*
X169785794Y-98281971D01*
X169512383Y-98942043D01*
X169373000Y-99642772D01*
X169373000Y-100357228D01*
X169512383Y-101057957D01*
X169785794Y-101718029D01*
X170182725Y-102312078D01*
X170687922Y-102817275D01*
X171281971Y-103214206D01*
X171585664Y-103340000D01*
X117579608Y-103340000D01*
X117488423Y-103248815D01*
X117730349Y-103179655D01*
X117849248Y-102927557D01*
X117916681Y-102657106D01*
X117930057Y-102378697D01*
X117888860Y-102103028D01*
X117794675Y-101840692D01*
X117730349Y-101720345D01*
X117488421Y-101651184D01*
X116689605Y-102450000D01*
X116703748Y-102464143D01*
X116524143Y-102643748D01*
X116510000Y-102629605D01*
X116495858Y-102643748D01*
X116316253Y-102464143D01*
X116330395Y-102450000D01*
X115531579Y-101651184D01*
X115289651Y-101720345D01*
X115241575Y-101822279D01*
X115223957Y-101779746D01*
X115069103Y-101547990D01*
X114872010Y-101350897D01*
X114640254Y-101196043D01*
X114601523Y-101180000D01*
X114640254Y-101163957D01*
X114872010Y-101009103D01*
X114992692Y-100888421D01*
X115711184Y-100888421D01*
X115780345Y-101130349D01*
X115879041Y-101176898D01*
X115780345Y-101229651D01*
X115711184Y-101471579D01*
X116510000Y-102270395D01*
X117308816Y-101471579D01*
X117299048Y-101437408D01*
X137053000Y-101437408D01*
X137053000Y-101712592D01*
X137106686Y-101982490D01*
X137211995Y-102236727D01*
X137364880Y-102465535D01*
X137559465Y-102660120D01*
X137788273Y-102813005D01*
X138042510Y-102918314D01*
X138312408Y-102972000D01*
X138587592Y-102972000D01*
X138857490Y-102918314D01*
X139111727Y-102813005D01*
X139340535Y-102660120D01*
X139535120Y-102465535D01*
X139688005Y-102236727D01*
X139710000Y-102183627D01*
X139731995Y-102236727D01*
X139884880Y-102465535D01*
X140079465Y-102660120D01*
X140308273Y-102813005D01*
X140562510Y-102918314D01*
X140832408Y-102972000D01*
X141107592Y-102972000D01*
X141377490Y-102918314D01*
X141631727Y-102813005D01*
X141860535Y-102660120D01*
X142055120Y-102465535D01*
X142208005Y-102236727D01*
X142240000Y-102159485D01*
X142271995Y-102236727D01*
X142424880Y-102465535D01*
X142619465Y-102660120D01*
X142848273Y-102813005D01*
X143102510Y-102918314D01*
X143372408Y-102972000D01*
X143647592Y-102972000D01*
X143917490Y-102918314D01*
X144171727Y-102813005D01*
X144400535Y-102660120D01*
X144520090Y-102540565D01*
X150344040Y-102540565D01*
X150411020Y-102780656D01*
X150660048Y-102897756D01*
X150927135Y-102964023D01*
X151202017Y-102976910D01*
X151474133Y-102935922D01*
X151733023Y-102842636D01*
X151848980Y-102780656D01*
X151915960Y-102540565D01*
X151130000Y-101754605D01*
X150344040Y-102540565D01*
X144520090Y-102540565D01*
X144595120Y-102465535D01*
X144748005Y-102236727D01*
X144853314Y-101982490D01*
X144907000Y-101712592D01*
X144907000Y-101647017D01*
X149728090Y-101647017D01*
X149769078Y-101919133D01*
X149862364Y-102178023D01*
X149924344Y-102293980D01*
X150164435Y-102360960D01*
X150950395Y-101575000D01*
X151309605Y-101575000D01*
X152095565Y-102360960D01*
X152335656Y-102293980D01*
X152399485Y-102158240D01*
X152431995Y-102236727D01*
X152584880Y-102465535D01*
X152779465Y-102660120D01*
X153008273Y-102813005D01*
X153262510Y-102918314D01*
X153532408Y-102972000D01*
X153807592Y-102972000D01*
X154077490Y-102918314D01*
X154331727Y-102813005D01*
X154560535Y-102660120D01*
X154755120Y-102465535D01*
X154908005Y-102236727D01*
X155013314Y-101982490D01*
X155067000Y-101712592D01*
X155067000Y-101437408D01*
X155013314Y-101167510D01*
X154908005Y-100913273D01*
X154755120Y-100684465D01*
X154560535Y-100489880D01*
X154331727Y-100336995D01*
X154077490Y-100231686D01*
X153807592Y-100178000D01*
X153532408Y-100178000D01*
X153262510Y-100231686D01*
X153008273Y-100336995D01*
X152779465Y-100489880D01*
X152584880Y-100684465D01*
X152431995Y-100913273D01*
X152402308Y-100984943D01*
X152397636Y-100971977D01*
X152335656Y-100856020D01*
X152095565Y-100789040D01*
X151309605Y-101575000D01*
X150950395Y-101575000D01*
X150164435Y-100789040D01*
X149924344Y-100856020D01*
X149807244Y-101105048D01*
X149740977Y-101372135D01*
X149728090Y-101647017D01*
X144907000Y-101647017D01*
X144907000Y-101437408D01*
X144853314Y-101167510D01*
X144748005Y-100913273D01*
X144595120Y-100684465D01*
X144520090Y-100609435D01*
X150344040Y-100609435D01*
X151130000Y-101395395D01*
X151915960Y-100609435D01*
X151848980Y-100369344D01*
X151599952Y-100252244D01*
X151332865Y-100185977D01*
X151057983Y-100173090D01*
X150785867Y-100214078D01*
X150526977Y-100307364D01*
X150411020Y-100369344D01*
X150344040Y-100609435D01*
X144520090Y-100609435D01*
X144400535Y-100489880D01*
X144171727Y-100336995D01*
X143917490Y-100231686D01*
X143647592Y-100178000D01*
X143372408Y-100178000D01*
X143102510Y-100231686D01*
X142848273Y-100336995D01*
X142619465Y-100489880D01*
X142424880Y-100684465D01*
X142271995Y-100913273D01*
X142240000Y-100990515D01*
X142208005Y-100913273D01*
X142055120Y-100684465D01*
X141860535Y-100489880D01*
X141631727Y-100336995D01*
X141377490Y-100231686D01*
X141107592Y-100178000D01*
X140832408Y-100178000D01*
X140562510Y-100231686D01*
X140308273Y-100336995D01*
X140079465Y-100489880D01*
X139884880Y-100684465D01*
X139731995Y-100913273D01*
X139710000Y-100966373D01*
X139688005Y-100913273D01*
X139535120Y-100684465D01*
X139340535Y-100489880D01*
X139212000Y-100403995D01*
X139212000Y-99990630D01*
X140650630Y-98552000D01*
X158830601Y-98552000D01*
X158699701Y-98747905D01*
X158583989Y-99027257D01*
X158525000Y-99323816D01*
X158525000Y-99626184D01*
X158583989Y-99922743D01*
X158699701Y-100202095D01*
X158867688Y-100453505D01*
X159081495Y-100667312D01*
X159332905Y-100835299D01*
X159612257Y-100951011D01*
X159908816Y-101010000D01*
X160211184Y-101010000D01*
X160507743Y-100951011D01*
X160787095Y-100835299D01*
X161038505Y-100667312D01*
X161252312Y-100453505D01*
X161310000Y-100367169D01*
X161367688Y-100453505D01*
X161581495Y-100667312D01*
X161832905Y-100835299D01*
X162112257Y-100951011D01*
X162408816Y-101010000D01*
X162711184Y-101010000D01*
X163007743Y-100951011D01*
X163287095Y-100835299D01*
X163538505Y-100667312D01*
X163752312Y-100453505D01*
X163810000Y-100367169D01*
X163867688Y-100453505D01*
X164081495Y-100667312D01*
X164332905Y-100835299D01*
X164612257Y-100951011D01*
X164908816Y-101010000D01*
X165211184Y-101010000D01*
X165507743Y-100951011D01*
X165787095Y-100835299D01*
X166038505Y-100667312D01*
X166252312Y-100453505D01*
X166420299Y-100202095D01*
X166536011Y-99922743D01*
X166595000Y-99626184D01*
X166595000Y-99323816D01*
X166536011Y-99027257D01*
X166420299Y-98747905D01*
X166252312Y-98496495D01*
X166038505Y-98282688D01*
X165787095Y-98114701D01*
X165507743Y-97998989D01*
X165211184Y-97940000D01*
X164908816Y-97940000D01*
X164612257Y-97998989D01*
X164332905Y-98114701D01*
X164081495Y-98282688D01*
X163867688Y-98496495D01*
X163810000Y-98582831D01*
X163752312Y-98496495D01*
X163538505Y-98282688D01*
X163319179Y-98136139D01*
X163310974Y-98052830D01*
X163267402Y-97909193D01*
X163196645Y-97776816D01*
X163101422Y-97660786D01*
X163072347Y-97636925D01*
X162713076Y-97277654D01*
X162689214Y-97248578D01*
X162573184Y-97153355D01*
X162440807Y-97082598D01*
X162297170Y-97039026D01*
X162185218Y-97028000D01*
X162185215Y-97028000D01*
X162147792Y-97024314D01*
X162110369Y-97028000D01*
X140372423Y-97028000D01*
X140335000Y-97024314D01*
X140297577Y-97028000D01*
X140297574Y-97028000D01*
X140185622Y-97039026D01*
X140041985Y-97082598D01*
X139980364Y-97115535D01*
X139909607Y-97153355D01*
X139873820Y-97182725D01*
X139793578Y-97248578D01*
X139769716Y-97277654D01*
X137937649Y-99109721D01*
X137908579Y-99133578D01*
X137884722Y-99162648D01*
X137884721Y-99162649D01*
X137813355Y-99249608D01*
X137742599Y-99381985D01*
X137699027Y-99525622D01*
X137684314Y-99675000D01*
X137688001Y-99712433D01*
X137688001Y-100403995D01*
X137559465Y-100489880D01*
X137364880Y-100684465D01*
X137211995Y-100913273D01*
X137106686Y-101167510D01*
X137053000Y-101437408D01*
X117299048Y-101437408D01*
X117239655Y-101229651D01*
X117140959Y-101183102D01*
X117239655Y-101130349D01*
X117308816Y-100888421D01*
X116510000Y-100089605D01*
X115711184Y-100888421D01*
X114992692Y-100888421D01*
X115069103Y-100812010D01*
X115223957Y-100580254D01*
X115238777Y-100544475D01*
X115289651Y-100639655D01*
X115531579Y-100708816D01*
X116330395Y-99910000D01*
X116689605Y-99910000D01*
X117488421Y-100708816D01*
X117730349Y-100639655D01*
X117849248Y-100387557D01*
X117916681Y-100117106D01*
X117930057Y-99838697D01*
X117888860Y-99563028D01*
X117808417Y-99338967D01*
X123065000Y-99338967D01*
X123065000Y-99661033D01*
X123127832Y-99976912D01*
X123251082Y-100274463D01*
X123430013Y-100542252D01*
X123657748Y-100769987D01*
X123925537Y-100948918D01*
X124223088Y-101072168D01*
X124538967Y-101135000D01*
X124861033Y-101135000D01*
X125176912Y-101072168D01*
X125474463Y-100948918D01*
X125742252Y-100769987D01*
X125950000Y-100562239D01*
X126157748Y-100769987D01*
X126425537Y-100948918D01*
X126723088Y-101072168D01*
X127038967Y-101135000D01*
X127361033Y-101135000D01*
X127676912Y-101072168D01*
X127974463Y-100948918D01*
X128242252Y-100769987D01*
X128450000Y-100562239D01*
X128657748Y-100769987D01*
X128925537Y-100948918D01*
X129223088Y-101072168D01*
X129538967Y-101135000D01*
X129861033Y-101135000D01*
X130176912Y-101072168D01*
X130474463Y-100948918D01*
X130742252Y-100769987D01*
X130969987Y-100542252D01*
X131148918Y-100274463D01*
X131272168Y-99976912D01*
X131335000Y-99661033D01*
X131335000Y-99338967D01*
X131272168Y-99023088D01*
X131148918Y-98725537D01*
X130969987Y-98457748D01*
X130742252Y-98230013D01*
X130474463Y-98051082D01*
X130176912Y-97927832D01*
X129861033Y-97865000D01*
X129538967Y-97865000D01*
X129223088Y-97927832D01*
X128925537Y-98051082D01*
X128657748Y-98230013D01*
X128450000Y-98437761D01*
X128242252Y-98230013D01*
X127974463Y-98051082D01*
X127676912Y-97927832D01*
X127361033Y-97865000D01*
X127038967Y-97865000D01*
X126723088Y-97927832D01*
X126425537Y-98051082D01*
X126157748Y-98230013D01*
X125950000Y-98437761D01*
X125742252Y-98230013D01*
X125474463Y-98051082D01*
X125176912Y-97927832D01*
X124861033Y-97865000D01*
X124538967Y-97865000D01*
X124223088Y-97927832D01*
X123925537Y-98051082D01*
X123657748Y-98230013D01*
X123430013Y-98457748D01*
X123251082Y-98725537D01*
X123127832Y-99023088D01*
X123065000Y-99338967D01*
X117808417Y-99338967D01*
X117794675Y-99300692D01*
X117730349Y-99180345D01*
X117488421Y-99111184D01*
X116689605Y-99910000D01*
X116330395Y-99910000D01*
X115531579Y-99111184D01*
X115289651Y-99180345D01*
X115241575Y-99282279D01*
X115223957Y-99239746D01*
X115069103Y-99007990D01*
X114992692Y-98931579D01*
X115711184Y-98931579D01*
X116510000Y-99730395D01*
X117308816Y-98931579D01*
X117239655Y-98689651D01*
X116987557Y-98570752D01*
X116717106Y-98503319D01*
X116438697Y-98489943D01*
X116163028Y-98531140D01*
X115900692Y-98625325D01*
X115780345Y-98689651D01*
X115711184Y-98931579D01*
X114992692Y-98931579D01*
X114872010Y-98810897D01*
X114640254Y-98656043D01*
X114382740Y-98549377D01*
X114109365Y-98495000D01*
X113830635Y-98495000D01*
X113557260Y-98549377D01*
X113299746Y-98656043D01*
X113067990Y-98810897D01*
X112870897Y-99007990D01*
X112716043Y-99239746D01*
X112700000Y-99278477D01*
X112683957Y-99239746D01*
X112529103Y-99007990D01*
X112332010Y-98810897D01*
X112100254Y-98656043D01*
X111842740Y-98549377D01*
X111569365Y-98495000D01*
X111290635Y-98495000D01*
X111017260Y-98549377D01*
X110759746Y-98656043D01*
X110527990Y-98810897D01*
X110330897Y-99007990D01*
X110176043Y-99239746D01*
X110160000Y-99278477D01*
X110143957Y-99239746D01*
X109989103Y-99007990D01*
X109792010Y-98810897D01*
X109560254Y-98656043D01*
X109302740Y-98549377D01*
X109029365Y-98495000D01*
X108750635Y-98495000D01*
X108477260Y-98549377D01*
X108219746Y-98656043D01*
X107987990Y-98810897D01*
X107790897Y-99007990D01*
X107636043Y-99239746D01*
X107620000Y-99278477D01*
X107603957Y-99239746D01*
X107449103Y-99007990D01*
X107252010Y-98810897D01*
X107112000Y-98717346D01*
X107112000Y-95965630D01*
X112877630Y-90200000D01*
X119461928Y-90200000D01*
X119461928Y-93800000D01*
X119474188Y-93924482D01*
X119510498Y-94044180D01*
X119569463Y-94154494D01*
X119648815Y-94251185D01*
X119745506Y-94330537D01*
X119855820Y-94389502D01*
X119975518Y-94425812D01*
X120100000Y-94438072D01*
X122900000Y-94438072D01*
X123024482Y-94425812D01*
X123144180Y-94389502D01*
X123254494Y-94330537D01*
X123351185Y-94251185D01*
X123430537Y-94154494D01*
X123489502Y-94044180D01*
X123525812Y-93924482D01*
X123538072Y-93800000D01*
X123538072Y-90200000D01*
X130861928Y-90200000D01*
X130861928Y-93800000D01*
X130874188Y-93924482D01*
X130910498Y-94044180D01*
X130969463Y-94154494D01*
X131048815Y-94251185D01*
X131145506Y-94330537D01*
X131255820Y-94389502D01*
X131375518Y-94425812D01*
X131500000Y-94438072D01*
X134300000Y-94438072D01*
X134424482Y-94425812D01*
X134544180Y-94389502D01*
X134654494Y-94330537D01*
X134751185Y-94251185D01*
X134830537Y-94154494D01*
X134889502Y-94044180D01*
X134925812Y-93924482D01*
X134938072Y-93800000D01*
X134938072Y-92215475D01*
X155525000Y-92215475D01*
X155525000Y-92734525D01*
X155626261Y-93243601D01*
X155824893Y-93723141D01*
X156113262Y-94154715D01*
X156480285Y-94521738D01*
X156911859Y-94810107D01*
X157391399Y-95008739D01*
X157900475Y-95110000D01*
X158419525Y-95110000D01*
X158928601Y-95008739D01*
X159408141Y-94810107D01*
X159839715Y-94521738D01*
X160206738Y-94154715D01*
X160495107Y-93723141D01*
X160693739Y-93243601D01*
X160795000Y-92734525D01*
X160795000Y-92215475D01*
X164325000Y-92215475D01*
X164325000Y-92734525D01*
X164426261Y-93243601D01*
X164624893Y-93723141D01*
X164913262Y-94154715D01*
X165280285Y-94521738D01*
X165711859Y-94810107D01*
X166191399Y-95008739D01*
X166700475Y-95110000D01*
X167219525Y-95110000D01*
X167728601Y-95008739D01*
X168208141Y-94810107D01*
X168639715Y-94521738D01*
X169006738Y-94154715D01*
X169295107Y-93723141D01*
X169493739Y-93243601D01*
X169595000Y-92734525D01*
X169595000Y-92215475D01*
X169493739Y-91706399D01*
X169295107Y-91226859D01*
X169006738Y-90795285D01*
X168639715Y-90428262D01*
X168208141Y-90139893D01*
X167728601Y-89941261D01*
X167219525Y-89840000D01*
X166700475Y-89840000D01*
X166191399Y-89941261D01*
X165711859Y-90139893D01*
X165280285Y-90428262D01*
X164913262Y-90795285D01*
X164624893Y-91226859D01*
X164426261Y-91706399D01*
X164325000Y-92215475D01*
X160795000Y-92215475D01*
X160693739Y-91706399D01*
X160495107Y-91226859D01*
X160206738Y-90795285D01*
X159839715Y-90428262D01*
X159408141Y-90139893D01*
X158928601Y-89941261D01*
X158419525Y-89840000D01*
X157900475Y-89840000D01*
X157391399Y-89941261D01*
X156911859Y-90139893D01*
X156480285Y-90428262D01*
X156113262Y-90795285D01*
X155824893Y-91226859D01*
X155626261Y-91706399D01*
X155525000Y-92215475D01*
X134938072Y-92215475D01*
X134938072Y-90200000D01*
X134925812Y-90075518D01*
X134889502Y-89955820D01*
X134830537Y-89845506D01*
X134751185Y-89748815D01*
X134654494Y-89669463D01*
X134544180Y-89610498D01*
X134424482Y-89574188D01*
X134300000Y-89561928D01*
X131500000Y-89561928D01*
X131375518Y-89574188D01*
X131255820Y-89610498D01*
X131145506Y-89669463D01*
X131048815Y-89748815D01*
X130969463Y-89845506D01*
X130910498Y-89955820D01*
X130874188Y-90075518D01*
X130861928Y-90200000D01*
X123538072Y-90200000D01*
X123525812Y-90075518D01*
X123489502Y-89955820D01*
X123430537Y-89845506D01*
X123351185Y-89748815D01*
X123254494Y-89669463D01*
X123144180Y-89610498D01*
X123024482Y-89574188D01*
X122900000Y-89561928D01*
X120100000Y-89561928D01*
X119975518Y-89574188D01*
X119855820Y-89610498D01*
X119745506Y-89669463D01*
X119648815Y-89748815D01*
X119569463Y-89845506D01*
X119510498Y-89955820D01*
X119474188Y-90075518D01*
X119461928Y-90200000D01*
X112877630Y-90200000D01*
X117225631Y-85852000D01*
X120872577Y-85852000D01*
X120910000Y-85855686D01*
X120947423Y-85852000D01*
X120947426Y-85852000D01*
X121059378Y-85840974D01*
X121203015Y-85797402D01*
X121335392Y-85726645D01*
X121451422Y-85631422D01*
X121475284Y-85602346D01*
X122238663Y-84838967D01*
X123065000Y-84838967D01*
X123065000Y-85161033D01*
X123127832Y-85476912D01*
X123251082Y-85774463D01*
X123430013Y-86042252D01*
X123657748Y-86269987D01*
X123925537Y-86448918D01*
X124223088Y-86572168D01*
X124538967Y-86635000D01*
X124861033Y-86635000D01*
X125176912Y-86572168D01*
X125474463Y-86448918D01*
X125742252Y-86269987D01*
X125969987Y-86042252D01*
X126148918Y-85774463D01*
X126272168Y-85476912D01*
X126335000Y-85161033D01*
X126335000Y-84838967D01*
X128065000Y-84838967D01*
X128065000Y-85161033D01*
X128127832Y-85476912D01*
X128251082Y-85774463D01*
X128430013Y-86042252D01*
X128657748Y-86269987D01*
X128925537Y-86448918D01*
X129223088Y-86572168D01*
X129538967Y-86635000D01*
X129861033Y-86635000D01*
X130176912Y-86572168D01*
X130474463Y-86448918D01*
X130742252Y-86269987D01*
X130969987Y-86042252D01*
X131148918Y-85774463D01*
X131272168Y-85476912D01*
X131335000Y-85161033D01*
X131335000Y-84838967D01*
X131272168Y-84523088D01*
X131148918Y-84225537D01*
X130969987Y-83957748D01*
X130742252Y-83730013D01*
X130474463Y-83551082D01*
X130176912Y-83427832D01*
X129861033Y-83365000D01*
X129538967Y-83365000D01*
X129223088Y-83427832D01*
X128925537Y-83551082D01*
X128657748Y-83730013D01*
X128430013Y-83957748D01*
X128251082Y-84225537D01*
X128127832Y-84523088D01*
X128065000Y-84838967D01*
X126335000Y-84838967D01*
X126272168Y-84523088D01*
X126148918Y-84225537D01*
X125969987Y-83957748D01*
X125742252Y-83730013D01*
X125474463Y-83551082D01*
X125176912Y-83427832D01*
X124861033Y-83365000D01*
X124538967Y-83365000D01*
X124223088Y-83427832D01*
X123925537Y-83551082D01*
X123657748Y-83730013D01*
X123430013Y-83957748D01*
X123251082Y-84225537D01*
X123127832Y-84523088D01*
X123065000Y-84838967D01*
X122238663Y-84838967D01*
X124640222Y-82437408D01*
X137053000Y-82437408D01*
X137053000Y-82712592D01*
X137106686Y-82982490D01*
X137211995Y-83236727D01*
X137364880Y-83465535D01*
X137559465Y-83660120D01*
X137788273Y-83813005D01*
X138042510Y-83918314D01*
X138312408Y-83972000D01*
X138587592Y-83972000D01*
X138857490Y-83918314D01*
X139111727Y-83813005D01*
X139340535Y-83660120D01*
X139535120Y-83465535D01*
X139688005Y-83236727D01*
X139710000Y-83183627D01*
X139731995Y-83236727D01*
X139884880Y-83465535D01*
X140079465Y-83660120D01*
X140308273Y-83813005D01*
X140562510Y-83918314D01*
X140832408Y-83972000D01*
X141107592Y-83972000D01*
X141377490Y-83918314D01*
X141631727Y-83813005D01*
X141860535Y-83660120D01*
X142055120Y-83465535D01*
X142208005Y-83236727D01*
X142313314Y-82982490D01*
X142367000Y-82712592D01*
X142367000Y-82437408D01*
X149733000Y-82437408D01*
X149733000Y-82712592D01*
X149786686Y-82982490D01*
X149891995Y-83236727D01*
X150044880Y-83465535D01*
X150239465Y-83660120D01*
X150468273Y-83813005D01*
X150722510Y-83918314D01*
X150992408Y-83972000D01*
X151267592Y-83972000D01*
X151537490Y-83918314D01*
X151791727Y-83813005D01*
X152020535Y-83660120D01*
X152215120Y-83465535D01*
X152368005Y-83236727D01*
X152400000Y-83159485D01*
X152431995Y-83236727D01*
X152584880Y-83465535D01*
X152779465Y-83660120D01*
X153008273Y-83813005D01*
X153262510Y-83918314D01*
X153532408Y-83972000D01*
X153807592Y-83972000D01*
X154077490Y-83918314D01*
X154331727Y-83813005D01*
X154560535Y-83660120D01*
X154755120Y-83465535D01*
X154908005Y-83236727D01*
X155013314Y-82982490D01*
X155067000Y-82712592D01*
X155067000Y-82437408D01*
X155013314Y-82167510D01*
X154908005Y-81913273D01*
X154755120Y-81684465D01*
X154560535Y-81489880D01*
X154331727Y-81336995D01*
X154077490Y-81231686D01*
X153807592Y-81178000D01*
X153532408Y-81178000D01*
X153262510Y-81231686D01*
X153008273Y-81336995D01*
X152779465Y-81489880D01*
X152584880Y-81684465D01*
X152431995Y-81913273D01*
X152400000Y-81990515D01*
X152368005Y-81913273D01*
X152215120Y-81684465D01*
X152020535Y-81489880D01*
X151791727Y-81336995D01*
X151537490Y-81231686D01*
X151267592Y-81178000D01*
X150992408Y-81178000D01*
X150722510Y-81231686D01*
X150468273Y-81336995D01*
X150239465Y-81489880D01*
X150044880Y-81684465D01*
X149891995Y-81913273D01*
X149786686Y-82167510D01*
X149733000Y-82437408D01*
X142367000Y-82437408D01*
X142313314Y-82167510D01*
X142208005Y-81913273D01*
X142055120Y-81684465D01*
X141860535Y-81489880D01*
X141631727Y-81336995D01*
X141377490Y-81231686D01*
X141107592Y-81178000D01*
X140832408Y-81178000D01*
X140562510Y-81231686D01*
X140308273Y-81336995D01*
X140079465Y-81489880D01*
X139884880Y-81684465D01*
X139731995Y-81913273D01*
X139710000Y-81966373D01*
X139688005Y-81913273D01*
X139535120Y-81684465D01*
X139340535Y-81489880D01*
X139111727Y-81336995D01*
X138857490Y-81231686D01*
X138587592Y-81178000D01*
X138312408Y-81178000D01*
X138042510Y-81231686D01*
X137788273Y-81336995D01*
X137559465Y-81489880D01*
X137364880Y-81684465D01*
X137211995Y-81913273D01*
X137106686Y-82167510D01*
X137053000Y-82437408D01*
X124640222Y-82437408D01*
X125065279Y-82012351D01*
X126352353Y-80725278D01*
X126381422Y-80701422D01*
X126476645Y-80585392D01*
X126547402Y-80453015D01*
X126590974Y-80309378D01*
X126599671Y-80221077D01*
X126641101Y-80198932D01*
X126859608Y-80019608D01*
X127038932Y-79801101D01*
X127172182Y-79551808D01*
X127254236Y-79281309D01*
X127281943Y-79000000D01*
X127268023Y-78858665D01*
X134565000Y-78858665D01*
X134565000Y-79141335D01*
X134620147Y-79418574D01*
X134728320Y-79679727D01*
X134885363Y-79914759D01*
X135085241Y-80114637D01*
X135320273Y-80271680D01*
X135581426Y-80379853D01*
X135858665Y-80435000D01*
X136141335Y-80435000D01*
X136418574Y-80379853D01*
X136679727Y-80271680D01*
X136914759Y-80114637D01*
X137114637Y-79914759D01*
X137271680Y-79679727D01*
X137379853Y-79418574D01*
X137435000Y-79141335D01*
X137435000Y-78858665D01*
X137379853Y-78581426D01*
X137271680Y-78320273D01*
X137114637Y-78085241D01*
X136914759Y-77885363D01*
X136679727Y-77728320D01*
X136418574Y-77620147D01*
X136141335Y-77565000D01*
X135858665Y-77565000D01*
X135581426Y-77620147D01*
X135320273Y-77728320D01*
X135085241Y-77885363D01*
X134885363Y-78085241D01*
X134728320Y-78320273D01*
X134620147Y-78581426D01*
X134565000Y-78858665D01*
X127268023Y-78858665D01*
X127254236Y-78718691D01*
X127172182Y-78448192D01*
X127038932Y-78198899D01*
X126859608Y-77980392D01*
X126641101Y-77801068D01*
X126391808Y-77667818D01*
X126121309Y-77585764D01*
X125910492Y-77565000D01*
X125769508Y-77565000D01*
X125558691Y-77585764D01*
X125288192Y-77667818D01*
X125038899Y-77801068D01*
X124820392Y-77980392D01*
X124641068Y-78198899D01*
X124507818Y-78448192D01*
X124425764Y-78718691D01*
X124398057Y-79000000D01*
X124425764Y-79281309D01*
X124507818Y-79551808D01*
X124641068Y-79801101D01*
X124820392Y-80019608D01*
X124865633Y-80056736D01*
X123987649Y-80934721D01*
X120594370Y-84328000D01*
X116947422Y-84328000D01*
X116909999Y-84324314D01*
X116872576Y-84328000D01*
X116872574Y-84328000D01*
X116760622Y-84339026D01*
X116616985Y-84382598D01*
X116484608Y-84453355D01*
X116368578Y-84548578D01*
X116344721Y-84577648D01*
X105837649Y-95084721D01*
X105808579Y-95108578D01*
X105784722Y-95137648D01*
X105784721Y-95137649D01*
X105713355Y-95224608D01*
X105642599Y-95356985D01*
X105599027Y-95500622D01*
X105584314Y-95650000D01*
X105588001Y-95687433D01*
X105588000Y-98717345D01*
X105447990Y-98810897D01*
X105250897Y-99007990D01*
X105096043Y-99239746D01*
X105080000Y-99278477D01*
X105063957Y-99239746D01*
X104909103Y-99007990D01*
X104712010Y-98810897D01*
X104480254Y-98656043D01*
X104222740Y-98549377D01*
X103949365Y-98495000D01*
X103670635Y-98495000D01*
X103397260Y-98549377D01*
X103139746Y-98656043D01*
X102907990Y-98810897D01*
X102710897Y-99007990D01*
X102556043Y-99239746D01*
X102540000Y-99278477D01*
X102523957Y-99239746D01*
X102369103Y-99007990D01*
X102172010Y-98810897D01*
X101940254Y-98656043D01*
X101682740Y-98549377D01*
X101409365Y-98495000D01*
X101130635Y-98495000D01*
X100857260Y-98549377D01*
X100599746Y-98656043D01*
X100367990Y-98810897D01*
X100170897Y-99007990D01*
X100016043Y-99239746D01*
X100000000Y-99278477D01*
X99983957Y-99239746D01*
X99829103Y-99007990D01*
X99632010Y-98810897D01*
X99400254Y-98656043D01*
X99142740Y-98549377D01*
X98869365Y-98495000D01*
X98590635Y-98495000D01*
X98317260Y-98549377D01*
X98059746Y-98656043D01*
X97827990Y-98810897D01*
X97630897Y-99007990D01*
X97476043Y-99239746D01*
X97460000Y-99278477D01*
X97443957Y-99239746D01*
X97289103Y-99007990D01*
X97092010Y-98810897D01*
X96860254Y-98656043D01*
X96602740Y-98549377D01*
X96329365Y-98495000D01*
X96050635Y-98495000D01*
X95777260Y-98549377D01*
X95519746Y-98656043D01*
X95287990Y-98810897D01*
X95090897Y-99007990D01*
X94936043Y-99239746D01*
X94920000Y-99278477D01*
X94903957Y-99239746D01*
X94749103Y-99007990D01*
X94552010Y-98810897D01*
X94320254Y-98656043D01*
X94062740Y-98549377D01*
X93789365Y-98495000D01*
X93510635Y-98495000D01*
X93237260Y-98549377D01*
X92979746Y-98656043D01*
X92747990Y-98810897D01*
X92550897Y-99007990D01*
X92396043Y-99239746D01*
X92380000Y-99278477D01*
X92363957Y-99239746D01*
X92209103Y-99007990D01*
X92012010Y-98810897D01*
X91780254Y-98656043D01*
X91522740Y-98549377D01*
X91249365Y-98495000D01*
X90970635Y-98495000D01*
X90697260Y-98549377D01*
X90439746Y-98656043D01*
X90207990Y-98810897D01*
X90010897Y-99007990D01*
X89856043Y-99239746D01*
X89840000Y-99278477D01*
X89823957Y-99239746D01*
X89669103Y-99007990D01*
X89472010Y-98810897D01*
X89332000Y-98717346D01*
X89332000Y-83607421D01*
X89335686Y-83569998D01*
X89332000Y-83532572D01*
X89320974Y-83420620D01*
X89277402Y-83276983D01*
X89244465Y-83215362D01*
X89206645Y-83144605D01*
X89135279Y-83057646D01*
X89111422Y-83028576D01*
X89082352Y-83004719D01*
X85477052Y-79399420D01*
X85445593Y-79241263D01*
X118623000Y-79241263D01*
X118623000Y-79758737D01*
X118723954Y-80266268D01*
X118921983Y-80744351D01*
X119209476Y-81174615D01*
X119575385Y-81540524D01*
X120005649Y-81828017D01*
X120483732Y-82026046D01*
X120991263Y-82127000D01*
X121508737Y-82127000D01*
X122016268Y-82026046D01*
X122494351Y-81828017D01*
X122924615Y-81540524D01*
X123290524Y-81174615D01*
X123578017Y-80744351D01*
X123776046Y-80266268D01*
X123877000Y-79758737D01*
X123877000Y-79241263D01*
X123776046Y-78733732D01*
X123578017Y-78255649D01*
X123290524Y-77825385D01*
X122924615Y-77459476D01*
X122494351Y-77171983D01*
X122016268Y-76973954D01*
X121508737Y-76873000D01*
X120991263Y-76873000D01*
X120483732Y-76973954D01*
X120005649Y-77171983D01*
X119575385Y-77459476D01*
X119209476Y-77825385D01*
X118921983Y-78255649D01*
X118723954Y-78733732D01*
X118623000Y-79241263D01*
X85445593Y-79241263D01*
X85440320Y-79214755D01*
X85366604Y-79036788D01*
X85259585Y-78876623D01*
X85123375Y-78740413D01*
X84963210Y-78633394D01*
X84785243Y-78559678D01*
X84596315Y-78522098D01*
X84403685Y-78522098D01*
X84214757Y-78559678D01*
X84036790Y-78633394D01*
X83876625Y-78740413D01*
X83740415Y-78876623D01*
X83633396Y-79036788D01*
X83559680Y-79214755D01*
X83522100Y-79403683D01*
X83522100Y-79596313D01*
X83559680Y-79785241D01*
X83633396Y-79963208D01*
X83740415Y-80123373D01*
X83876625Y-80259583D01*
X84036790Y-80366602D01*
X84214757Y-80440318D01*
X84399422Y-80477050D01*
X87808001Y-83885630D01*
X87808000Y-98717345D01*
X87667990Y-98810897D01*
X87470897Y-99007990D01*
X87316043Y-99239746D01*
X87300000Y-99278477D01*
X87283957Y-99239746D01*
X87129103Y-99007990D01*
X86932010Y-98810897D01*
X86792000Y-98717346D01*
X86792000Y-84317423D01*
X86795686Y-84280000D01*
X86788461Y-84206643D01*
X86780974Y-84130622D01*
X86737402Y-83986985D01*
X86718113Y-83950898D01*
X86713822Y-83936752D01*
X86645424Y-83808788D01*
X86553375Y-83696625D01*
X86441213Y-83604576D01*
X86421864Y-83594234D01*
X81315284Y-78487654D01*
X81291422Y-78458578D01*
X81258302Y-78431397D01*
X81362740Y-78410623D01*
X81620254Y-78303957D01*
X81852010Y-78149103D01*
X82049103Y-77952010D01*
X82203957Y-77720254D01*
X82220000Y-77681523D01*
X82236043Y-77720254D01*
X82390897Y-77952010D01*
X82587990Y-78149103D01*
X82819746Y-78303957D01*
X83077260Y-78410623D01*
X83350635Y-78465000D01*
X83629365Y-78465000D01*
X83902740Y-78410623D01*
X84160254Y-78303957D01*
X84392010Y-78149103D01*
X84589103Y-77952010D01*
X84743957Y-77720254D01*
X84760000Y-77681523D01*
X84776043Y-77720254D01*
X84930897Y-77952010D01*
X85127990Y-78149103D01*
X85359746Y-78303957D01*
X85617260Y-78410623D01*
X85890635Y-78465000D01*
X86169365Y-78465000D01*
X86442740Y-78410623D01*
X86700254Y-78303957D01*
X86932010Y-78149103D01*
X87129103Y-77952010D01*
X87283957Y-77720254D01*
X87300000Y-77681523D01*
X87316043Y-77720254D01*
X87470897Y-77952010D01*
X87667990Y-78149103D01*
X87899746Y-78303957D01*
X88157260Y-78410623D01*
X88430635Y-78465000D01*
X88709365Y-78465000D01*
X88982740Y-78410623D01*
X89240254Y-78303957D01*
X89472010Y-78149103D01*
X89669103Y-77952010D01*
X89823957Y-77720254D01*
X89840000Y-77681523D01*
X89856043Y-77720254D01*
X90010897Y-77952010D01*
X90207990Y-78149103D01*
X90439746Y-78303957D01*
X90697260Y-78410623D01*
X90970635Y-78465000D01*
X91249365Y-78465000D01*
X91522740Y-78410623D01*
X91780254Y-78303957D01*
X92012010Y-78149103D01*
X92209103Y-77952010D01*
X92363957Y-77720254D01*
X92380000Y-77681523D01*
X92396043Y-77720254D01*
X92550897Y-77952010D01*
X92747990Y-78149103D01*
X92979746Y-78303957D01*
X93237260Y-78410623D01*
X93510635Y-78465000D01*
X93789365Y-78465000D01*
X94062740Y-78410623D01*
X94320254Y-78303957D01*
X94552010Y-78149103D01*
X94749103Y-77952010D01*
X94903957Y-77720254D01*
X94920000Y-77681523D01*
X94936043Y-77720254D01*
X95090897Y-77952010D01*
X95287990Y-78149103D01*
X95519746Y-78303957D01*
X95777260Y-78410623D01*
X96050635Y-78465000D01*
X96329365Y-78465000D01*
X96602740Y-78410623D01*
X96860254Y-78303957D01*
X97092010Y-78149103D01*
X97289103Y-77952010D01*
X97443957Y-77720254D01*
X97460000Y-77681523D01*
X97476043Y-77720254D01*
X97630897Y-77952010D01*
X97827990Y-78149103D01*
X98059746Y-78303957D01*
X98317260Y-78410623D01*
X98590635Y-78465000D01*
X98869365Y-78465000D01*
X99142740Y-78410623D01*
X99400254Y-78303957D01*
X99632010Y-78149103D01*
X99829103Y-77952010D01*
X99983957Y-77720254D01*
X100000000Y-77681523D01*
X100016043Y-77720254D01*
X100170897Y-77952010D01*
X100367990Y-78149103D01*
X100599746Y-78303957D01*
X100857260Y-78410623D01*
X101130635Y-78465000D01*
X101409365Y-78465000D01*
X101682740Y-78410623D01*
X101940254Y-78303957D01*
X102172010Y-78149103D01*
X102369103Y-77952010D01*
X102523957Y-77720254D01*
X102540000Y-77681523D01*
X102556043Y-77720254D01*
X102710897Y-77952010D01*
X102907990Y-78149103D01*
X103139746Y-78303957D01*
X103397260Y-78410623D01*
X103670635Y-78465000D01*
X103949365Y-78465000D01*
X104222740Y-78410623D01*
X104480254Y-78303957D01*
X104712010Y-78149103D01*
X104909103Y-77952010D01*
X105063957Y-77720254D01*
X105080000Y-77681523D01*
X105096043Y-77720254D01*
X105250897Y-77952010D01*
X105447990Y-78149103D01*
X105679746Y-78303957D01*
X105937260Y-78410623D01*
X106210635Y-78465000D01*
X106489365Y-78465000D01*
X106762740Y-78410623D01*
X107020254Y-78303957D01*
X107252010Y-78149103D01*
X107449103Y-77952010D01*
X107603957Y-77720254D01*
X107620000Y-77681523D01*
X107636043Y-77720254D01*
X107790897Y-77952010D01*
X107987990Y-78149103D01*
X108219746Y-78303957D01*
X108477260Y-78410623D01*
X108750635Y-78465000D01*
X109029365Y-78465000D01*
X109302740Y-78410623D01*
X109560254Y-78303957D01*
X109792010Y-78149103D01*
X109989103Y-77952010D01*
X110143957Y-77720254D01*
X110160000Y-77681523D01*
X110176043Y-77720254D01*
X110330897Y-77952010D01*
X110527990Y-78149103D01*
X110759746Y-78303957D01*
X111017260Y-78410623D01*
X111290635Y-78465000D01*
X111569365Y-78465000D01*
X111842740Y-78410623D01*
X112100254Y-78303957D01*
X112332010Y-78149103D01*
X112529103Y-77952010D01*
X112683957Y-77720254D01*
X112700000Y-77681523D01*
X112716043Y-77720254D01*
X112870897Y-77952010D01*
X113067990Y-78149103D01*
X113299746Y-78303957D01*
X113557260Y-78410623D01*
X113830635Y-78465000D01*
X114109365Y-78465000D01*
X114382740Y-78410623D01*
X114640254Y-78303957D01*
X114872010Y-78149103D01*
X115069103Y-77952010D01*
X115223957Y-77720254D01*
X115240000Y-77681523D01*
X115256043Y-77720254D01*
X115410897Y-77952010D01*
X115607990Y-78149103D01*
X115839746Y-78303957D01*
X116097260Y-78410623D01*
X116370635Y-78465000D01*
X116649365Y-78465000D01*
X116922740Y-78410623D01*
X117180254Y-78303957D01*
X117412010Y-78149103D01*
X117609103Y-77952010D01*
X117763957Y-77720254D01*
X117870623Y-77462740D01*
X117925000Y-77189365D01*
X117925000Y-76910635D01*
X117870623Y-76637260D01*
X117763957Y-76379746D01*
X117609103Y-76147990D01*
X117412010Y-75950897D01*
X117180254Y-75796043D01*
X116922740Y-75689377D01*
X116649365Y-75635000D01*
X116370635Y-75635000D01*
X116097260Y-75689377D01*
X115839746Y-75796043D01*
X115607990Y-75950897D01*
X115410897Y-76147990D01*
X115256043Y-76379746D01*
X115240000Y-76418477D01*
X115223957Y-76379746D01*
X115069103Y-76147990D01*
X114872010Y-75950897D01*
X114640254Y-75796043D01*
X114382740Y-75689377D01*
X114109365Y-75635000D01*
X113830635Y-75635000D01*
X113557260Y-75689377D01*
X113299746Y-75796043D01*
X113067990Y-75950897D01*
X112870897Y-76147990D01*
X112716043Y-76379746D01*
X112700000Y-76418477D01*
X112683957Y-76379746D01*
X112529103Y-76147990D01*
X112332010Y-75950897D01*
X112100254Y-75796043D01*
X111842740Y-75689377D01*
X111569365Y-75635000D01*
X111290635Y-75635000D01*
X111017260Y-75689377D01*
X110759746Y-75796043D01*
X110527990Y-75950897D01*
X110330897Y-76147990D01*
X110176043Y-76379746D01*
X110160000Y-76418477D01*
X110143957Y-76379746D01*
X109989103Y-76147990D01*
X109792010Y-75950897D01*
X109560254Y-75796043D01*
X109302740Y-75689377D01*
X109029365Y-75635000D01*
X108750635Y-75635000D01*
X108477260Y-75689377D01*
X108219746Y-75796043D01*
X107987990Y-75950897D01*
X107790897Y-76147990D01*
X107636043Y-76379746D01*
X107620000Y-76418477D01*
X107603957Y-76379746D01*
X107449103Y-76147990D01*
X107252010Y-75950897D01*
X107020254Y-75796043D01*
X106762740Y-75689377D01*
X106489365Y-75635000D01*
X106210635Y-75635000D01*
X105937260Y-75689377D01*
X105679746Y-75796043D01*
X105447990Y-75950897D01*
X105250897Y-76147990D01*
X105096043Y-76379746D01*
X105080000Y-76418477D01*
X105063957Y-76379746D01*
X104909103Y-76147990D01*
X104712010Y-75950897D01*
X104480254Y-75796043D01*
X104222740Y-75689377D01*
X103949365Y-75635000D01*
X103670635Y-75635000D01*
X103397260Y-75689377D01*
X103139746Y-75796043D01*
X102907990Y-75950897D01*
X102710897Y-76147990D01*
X102556043Y-76379746D01*
X102540000Y-76418477D01*
X102523957Y-76379746D01*
X102369103Y-76147990D01*
X102172010Y-75950897D01*
X101940254Y-75796043D01*
X101682740Y-75689377D01*
X101409365Y-75635000D01*
X101130635Y-75635000D01*
X100857260Y-75689377D01*
X100599746Y-75796043D01*
X100367990Y-75950897D01*
X100170897Y-76147990D01*
X100016043Y-76379746D01*
X100000000Y-76418477D01*
X99983957Y-76379746D01*
X99829103Y-76147990D01*
X99632010Y-75950897D01*
X99400254Y-75796043D01*
X99142740Y-75689377D01*
X98869365Y-75635000D01*
X98590635Y-75635000D01*
X98317260Y-75689377D01*
X98059746Y-75796043D01*
X97827990Y-75950897D01*
X97630897Y-76147990D01*
X97476043Y-76379746D01*
X97460000Y-76418477D01*
X97443957Y-76379746D01*
X97289103Y-76147990D01*
X97092010Y-75950897D01*
X96860254Y-75796043D01*
X96602740Y-75689377D01*
X96329365Y-75635000D01*
X96050635Y-75635000D01*
X95777260Y-75689377D01*
X95519746Y-75796043D01*
X95287990Y-75950897D01*
X95090897Y-76147990D01*
X94936043Y-76379746D01*
X94920000Y-76418477D01*
X94903957Y-76379746D01*
X94749103Y-76147990D01*
X94552010Y-75950897D01*
X94320254Y-75796043D01*
X94062740Y-75689377D01*
X93789365Y-75635000D01*
X93510635Y-75635000D01*
X93237260Y-75689377D01*
X92979746Y-75796043D01*
X92747990Y-75950897D01*
X92550897Y-76147990D01*
X92396043Y-76379746D01*
X92380000Y-76418477D01*
X92363957Y-76379746D01*
X92209103Y-76147990D01*
X92012010Y-75950897D01*
X91780254Y-75796043D01*
X91522740Y-75689377D01*
X91249365Y-75635000D01*
X90970635Y-75635000D01*
X90697260Y-75689377D01*
X90439746Y-75796043D01*
X90207990Y-75950897D01*
X90010897Y-76147990D01*
X89856043Y-76379746D01*
X89840000Y-76418477D01*
X89823957Y-76379746D01*
X89669103Y-76147990D01*
X89472010Y-75950897D01*
X89240254Y-75796043D01*
X88982740Y-75689377D01*
X88709365Y-75635000D01*
X88430635Y-75635000D01*
X88157260Y-75689377D01*
X87899746Y-75796043D01*
X87667990Y-75950897D01*
X87470897Y-76147990D01*
X87316043Y-76379746D01*
X87300000Y-76418477D01*
X87283957Y-76379746D01*
X87129103Y-76147990D01*
X86932010Y-75950897D01*
X86700254Y-75796043D01*
X86442740Y-75689377D01*
X86169365Y-75635000D01*
X85890635Y-75635000D01*
X85617260Y-75689377D01*
X85359746Y-75796043D01*
X85127990Y-75950897D01*
X84930897Y-76147990D01*
X84776043Y-76379746D01*
X84760000Y-76418477D01*
X84743957Y-76379746D01*
X84589103Y-76147990D01*
X84392010Y-75950897D01*
X84160254Y-75796043D01*
X83902740Y-75689377D01*
X83629365Y-75635000D01*
X83350635Y-75635000D01*
X83077260Y-75689377D01*
X82819746Y-75796043D01*
X82587990Y-75950897D01*
X82390897Y-76147990D01*
X82236043Y-76379746D01*
X82220000Y-76418477D01*
X82203957Y-76379746D01*
X82049103Y-76147990D01*
X81852010Y-75950897D01*
X81620254Y-75796043D01*
X81362740Y-75689377D01*
X81089365Y-75635000D01*
X80810635Y-75635000D01*
X80537260Y-75689377D01*
X80279746Y-75796043D01*
X80047990Y-75950897D01*
X79850897Y-76147990D01*
X79696043Y-76379746D01*
X79680000Y-76418477D01*
X79663957Y-76379746D01*
X79509103Y-76147990D01*
X79312010Y-75950897D01*
X79080254Y-75796043D01*
X78822740Y-75689377D01*
X78549365Y-75635000D01*
X78270635Y-75635000D01*
X77997260Y-75689377D01*
X77739746Y-75796043D01*
X77507990Y-75950897D01*
X77310897Y-76147990D01*
X77156043Y-76379746D01*
X77140000Y-76418477D01*
X77123957Y-76379746D01*
X76969103Y-76147990D01*
X76772010Y-75950897D01*
X76540254Y-75796043D01*
X76282740Y-75689377D01*
X76009365Y-75635000D01*
X75730635Y-75635000D01*
X75457260Y-75689377D01*
X75199746Y-75796043D01*
X74967990Y-75950897D01*
X74770897Y-76147990D01*
X74616043Y-76379746D01*
X74600000Y-76418477D01*
X74583957Y-76379746D01*
X74429103Y-76147990D01*
X74232010Y-75950897D01*
X74000254Y-75796043D01*
X73742740Y-75689377D01*
X73469365Y-75635000D01*
X73190635Y-75635000D01*
X72917260Y-75689377D01*
X72659746Y-75796043D01*
X72427990Y-75950897D01*
X72230897Y-76147990D01*
X72076043Y-76379746D01*
X72060000Y-76418477D01*
X72043957Y-76379746D01*
X71889103Y-76147990D01*
X71692010Y-75950897D01*
X71460254Y-75796043D01*
X71202740Y-75689377D01*
X70929365Y-75635000D01*
X70650635Y-75635000D01*
X70377260Y-75689377D01*
X70119746Y-75796043D01*
X69887990Y-75950897D01*
X69690897Y-76147990D01*
X69536043Y-76379746D01*
X69429377Y-76637260D01*
X69375000Y-76910635D01*
X69375000Y-77189365D01*
X69429377Y-77462740D01*
X69536043Y-77720254D01*
X69690897Y-77952010D01*
X69887990Y-78149103D01*
X70021034Y-78238000D01*
X65330703Y-78238000D01*
X64815284Y-77722581D01*
X64791422Y-77693505D01*
X64724973Y-77638972D01*
X64690320Y-77464757D01*
X64616604Y-77286790D01*
X64509585Y-77126625D01*
X64373375Y-76990415D01*
X64213210Y-76883396D01*
X64035243Y-76809680D01*
X63846315Y-76772100D01*
X63653685Y-76772100D01*
X63464757Y-76809680D01*
X63286790Y-76883396D01*
X63126625Y-76990415D01*
X62990415Y-77126625D01*
X62883396Y-77286790D01*
X62809680Y-77464757D01*
X62772100Y-77653685D01*
X62772100Y-77846315D01*
X62809680Y-78035243D01*
X62883396Y-78213210D01*
X62990415Y-78373375D01*
X63126625Y-78509585D01*
X63286790Y-78616604D01*
X63464757Y-78690320D01*
X63649422Y-78727052D01*
X63669643Y-78747273D01*
X63693505Y-78776349D01*
X63806635Y-78869192D01*
X64449789Y-79512346D01*
X64473651Y-79541422D01*
X64538596Y-79594721D01*
X64589680Y-79636645D01*
X64660437Y-79674465D01*
X64722058Y-79707402D01*
X64865695Y-79750974D01*
X64977647Y-79762000D01*
X64977650Y-79762000D01*
X65015073Y-79765686D01*
X65052496Y-79762000D01*
X80434370Y-79762000D01*
X85268001Y-84595631D01*
X85268000Y-98717345D01*
X85127990Y-98810897D01*
X84930897Y-99007990D01*
X84776043Y-99239746D01*
X84760000Y-99278477D01*
X84743957Y-99239746D01*
X84589103Y-99007990D01*
X84392010Y-98810897D01*
X84160254Y-98656043D01*
X83902740Y-98549377D01*
X83629365Y-98495000D01*
X83350635Y-98495000D01*
X83077260Y-98549377D01*
X82819746Y-98656043D01*
X82587990Y-98810897D01*
X82390897Y-99007990D01*
X82236043Y-99239746D01*
X82220000Y-99278477D01*
X82203957Y-99239746D01*
X82049103Y-99007990D01*
X81852010Y-98810897D01*
X81620254Y-98656043D01*
X81362740Y-98549377D01*
X81089365Y-98495000D01*
X80810635Y-98495000D01*
X80537260Y-98549377D01*
X80279746Y-98656043D01*
X80047990Y-98810897D01*
X79850897Y-99007990D01*
X79696043Y-99239746D01*
X79680000Y-99278477D01*
X79663957Y-99239746D01*
X79509103Y-99007990D01*
X79312010Y-98810897D01*
X79080254Y-98656043D01*
X78822740Y-98549377D01*
X78549365Y-98495000D01*
X78270635Y-98495000D01*
X77997260Y-98549377D01*
X77739746Y-98656043D01*
X77507990Y-98810897D01*
X77310897Y-99007990D01*
X77156043Y-99239746D01*
X77140000Y-99278477D01*
X77123957Y-99239746D01*
X76969103Y-99007990D01*
X76772010Y-98810897D01*
X76540254Y-98656043D01*
X76282740Y-98549377D01*
X76009365Y-98495000D01*
X75730635Y-98495000D01*
X75457260Y-98549377D01*
X75199746Y-98656043D01*
X74967990Y-98810897D01*
X74770897Y-99007990D01*
X74616043Y-99239746D01*
X74600000Y-99278477D01*
X74583957Y-99239746D01*
X74429103Y-99007990D01*
X74232010Y-98810897D01*
X74000254Y-98656043D01*
X73742740Y-98549377D01*
X73469365Y-98495000D01*
X73190635Y-98495000D01*
X72917260Y-98549377D01*
X72659746Y-98656043D01*
X72427990Y-98810897D01*
X72230897Y-99007990D01*
X72200531Y-99053436D01*
X72195812Y-99005518D01*
X72159502Y-98885820D01*
X72100537Y-98775506D01*
X72021185Y-98678815D01*
X71924494Y-98599463D01*
X71814180Y-98540498D01*
X71694482Y-98504188D01*
X71570000Y-98491928D01*
X70010000Y-98491928D01*
X69885518Y-98504188D01*
X69765820Y-98540498D01*
X69655506Y-98599463D01*
X69558815Y-98678815D01*
X69479463Y-98775506D01*
X69420498Y-98885820D01*
X69384188Y-99005518D01*
X69371928Y-99130000D01*
X69371928Y-100690000D01*
X69384188Y-100814482D01*
X69420498Y-100934180D01*
X69479463Y-101044494D01*
X69558815Y-101141185D01*
X69606111Y-101180000D01*
X69558815Y-101218815D01*
X69479463Y-101315506D01*
X69420498Y-101425820D01*
X69384188Y-101545518D01*
X69371928Y-101670000D01*
X69371928Y-103230000D01*
X69382762Y-103340000D01*
X41414336Y-103340000D01*
X41718029Y-103214206D01*
X42312078Y-102817275D01*
X42817275Y-102312078D01*
X43214206Y-101718029D01*
X43487617Y-101057957D01*
X43627000Y-100357228D01*
X43627000Y-99642772D01*
X43528983Y-99150000D01*
X44886928Y-99150000D01*
X44886928Y-100850000D01*
X44899188Y-100974482D01*
X44935498Y-101094180D01*
X44994463Y-101204494D01*
X45073815Y-101301185D01*
X45170506Y-101380537D01*
X45280820Y-101439502D01*
X45400518Y-101475812D01*
X45525000Y-101488072D01*
X47225000Y-101488072D01*
X47349482Y-101475812D01*
X47469180Y-101439502D01*
X47579494Y-101380537D01*
X47676185Y-101301185D01*
X47755537Y-101204494D01*
X47814502Y-101094180D01*
X47835393Y-101025313D01*
X47859866Y-101055134D01*
X48085986Y-101240706D01*
X48343966Y-101378599D01*
X48623889Y-101463513D01*
X48842050Y-101485000D01*
X48987950Y-101485000D01*
X49206111Y-101463513D01*
X49486034Y-101378599D01*
X49744014Y-101240706D01*
X49970134Y-101055134D01*
X50155706Y-100829014D01*
X50293599Y-100571034D01*
X50378513Y-100291111D01*
X50407185Y-100000000D01*
X50378513Y-99708889D01*
X50293599Y-99428966D01*
X50155706Y-99170986D01*
X50138484Y-99150000D01*
X53141928Y-99150000D01*
X53141928Y-100850000D01*
X53154188Y-100974482D01*
X53190498Y-101094180D01*
X53249463Y-101204494D01*
X53328815Y-101301185D01*
X53425506Y-101380537D01*
X53535820Y-101439502D01*
X53655518Y-101475812D01*
X53780000Y-101488072D01*
X55480000Y-101488072D01*
X55604482Y-101475812D01*
X55724180Y-101439502D01*
X55834494Y-101380537D01*
X55931185Y-101301185D01*
X56010537Y-101204494D01*
X56069502Y-101094180D01*
X56093966Y-101013534D01*
X56169731Y-101097588D01*
X56403080Y-101271641D01*
X56665901Y-101396825D01*
X56813110Y-101441476D01*
X57043000Y-101320155D01*
X57043000Y-100127000D01*
X57297000Y-100127000D01*
X57297000Y-101320155D01*
X57526890Y-101441476D01*
X57674099Y-101396825D01*
X57936920Y-101271641D01*
X58170269Y-101097588D01*
X58365178Y-100881355D01*
X58514157Y-100631252D01*
X58611481Y-100356891D01*
X58490814Y-100127000D01*
X57297000Y-100127000D01*
X57043000Y-100127000D01*
X57023000Y-100127000D01*
X57023000Y-99873000D01*
X57043000Y-99873000D01*
X57043000Y-98679845D01*
X57297000Y-98679845D01*
X57297000Y-99873000D01*
X58490814Y-99873000D01*
X58611481Y-99643109D01*
X58514157Y-99368748D01*
X58365178Y-99118645D01*
X58170269Y-98902412D01*
X57936920Y-98728359D01*
X57674099Y-98603175D01*
X57526890Y-98558524D01*
X57297000Y-98679845D01*
X57043000Y-98679845D01*
X56813110Y-98558524D01*
X56665901Y-98603175D01*
X56403080Y-98728359D01*
X56169731Y-98902412D01*
X56093966Y-98986466D01*
X56069502Y-98905820D01*
X56010537Y-98795506D01*
X55931185Y-98698815D01*
X55834494Y-98619463D01*
X55724180Y-98560498D01*
X55604482Y-98524188D01*
X55480000Y-98511928D01*
X53780000Y-98511928D01*
X53655518Y-98524188D01*
X53535820Y-98560498D01*
X53425506Y-98619463D01*
X53328815Y-98698815D01*
X53249463Y-98795506D01*
X53190498Y-98905820D01*
X53154188Y-99025518D01*
X53141928Y-99150000D01*
X50138484Y-99150000D01*
X49970134Y-98944866D01*
X49744014Y-98759294D01*
X49486034Y-98621401D01*
X49206111Y-98536487D01*
X48987950Y-98515000D01*
X48842050Y-98515000D01*
X48623889Y-98536487D01*
X48343966Y-98621401D01*
X48085986Y-98759294D01*
X47859866Y-98944866D01*
X47835393Y-98974687D01*
X47814502Y-98905820D01*
X47755537Y-98795506D01*
X47676185Y-98698815D01*
X47579494Y-98619463D01*
X47469180Y-98560498D01*
X47349482Y-98524188D01*
X47225000Y-98511928D01*
X45525000Y-98511928D01*
X45400518Y-98524188D01*
X45280820Y-98560498D01*
X45170506Y-98619463D01*
X45073815Y-98698815D01*
X44994463Y-98795506D01*
X44935498Y-98905820D01*
X44899188Y-99025518D01*
X44886928Y-99150000D01*
X43528983Y-99150000D01*
X43487617Y-98942043D01*
X43214206Y-98281971D01*
X42817275Y-97687922D01*
X42312078Y-97182725D01*
X41718029Y-96785794D01*
X41057957Y-96512383D01*
X40357228Y-96373000D01*
X39642772Y-96373000D01*
X38942043Y-96512383D01*
X38281971Y-96785794D01*
X37687922Y-97182725D01*
X37182725Y-97687922D01*
X36785794Y-98281971D01*
X36660000Y-98585664D01*
X36660000Y-93862408D01*
X37863000Y-93862408D01*
X37863000Y-94137592D01*
X37916686Y-94407490D01*
X38021995Y-94661727D01*
X38174880Y-94890535D01*
X38369465Y-95085120D01*
X38598273Y-95238005D01*
X38852510Y-95343314D01*
X39122408Y-95397000D01*
X39397592Y-95397000D01*
X39667490Y-95343314D01*
X39921727Y-95238005D01*
X40150535Y-95085120D01*
X40345120Y-94890535D01*
X40498005Y-94661727D01*
X40603314Y-94407490D01*
X40657000Y-94137592D01*
X40657000Y-93862408D01*
X55863000Y-93862408D01*
X55863000Y-94137592D01*
X55916686Y-94407490D01*
X56021995Y-94661727D01*
X56174880Y-94890535D01*
X56369465Y-95085120D01*
X56598273Y-95238005D01*
X56852510Y-95343314D01*
X57122408Y-95397000D01*
X57397592Y-95397000D01*
X57667490Y-95343314D01*
X57921727Y-95238005D01*
X58150535Y-95085120D01*
X58345120Y-94890535D01*
X58498005Y-94661727D01*
X58603314Y-94407490D01*
X58657000Y-94137592D01*
X58657000Y-93862408D01*
X58603314Y-93592510D01*
X58498005Y-93338273D01*
X58345120Y-93109465D01*
X58150535Y-92914880D01*
X57921727Y-92761995D01*
X57667490Y-92656686D01*
X57397592Y-92603000D01*
X57122408Y-92603000D01*
X56852510Y-92656686D01*
X56598273Y-92761995D01*
X56369465Y-92914880D01*
X56174880Y-93109465D01*
X56021995Y-93338273D01*
X55916686Y-93592510D01*
X55863000Y-93862408D01*
X40657000Y-93862408D01*
X40603314Y-93592510D01*
X40498005Y-93338273D01*
X40345120Y-93109465D01*
X40150535Y-92914880D01*
X39921727Y-92761995D01*
X39667490Y-92656686D01*
X39397592Y-92603000D01*
X39122408Y-92603000D01*
X38852510Y-92656686D01*
X38598273Y-92761995D01*
X38369465Y-92914880D01*
X38174880Y-93109465D01*
X38021995Y-93338273D01*
X37916686Y-93592510D01*
X37863000Y-93862408D01*
X36660000Y-93862408D01*
X36660000Y-80250000D01*
X62623000Y-80250000D01*
X62623000Y-100750000D01*
X62625440Y-100774776D01*
X62632667Y-100798601D01*
X62644403Y-100820557D01*
X62660197Y-100839803D01*
X62679443Y-100855597D01*
X62701399Y-100867333D01*
X62725224Y-100874560D01*
X62750000Y-100877000D01*
X69000000Y-100877000D01*
X69024776Y-100874560D01*
X69048601Y-100867333D01*
X69070557Y-100855597D01*
X69089803Y-100839803D01*
X69105597Y-100820557D01*
X69117333Y-100798601D01*
X69124560Y-100774776D01*
X69127000Y-100750000D01*
X69127000Y-98127000D01*
X76875000Y-98127000D01*
X76900653Y-98124382D01*
X76924426Y-98116988D01*
X76946299Y-98105097D01*
X76965433Y-98089168D01*
X76981091Y-98069812D01*
X76992672Y-98047773D01*
X76999731Y-98023899D01*
X77001997Y-97999106D01*
X76876997Y-80249106D01*
X76874560Y-80225224D01*
X76867333Y-80201399D01*
X76855597Y-80179443D01*
X76839803Y-80160197D01*
X76820557Y-80144403D01*
X76798601Y-80132667D01*
X76774776Y-80125440D01*
X76750000Y-80123000D01*
X62750000Y-80123000D01*
X62725224Y-80125440D01*
X62701399Y-80132667D01*
X62679443Y-80144403D01*
X62660197Y-80160197D01*
X62644403Y-80179443D01*
X62632667Y-80201399D01*
X62625440Y-80225224D01*
X62623000Y-80250000D01*
X36660000Y-80250000D01*
X36660000Y-65992702D01*
X64186903Y-65992702D01*
X64258486Y-66236671D01*
X64513996Y-66357571D01*
X64788184Y-66426300D01*
X65070512Y-66440217D01*
X65350130Y-66398787D01*
X65616292Y-66303603D01*
X65741514Y-66236671D01*
X65813097Y-65992702D01*
X65000000Y-65179605D01*
X64186903Y-65992702D01*
X36660000Y-65992702D01*
X36660000Y-65070512D01*
X63559783Y-65070512D01*
X63601213Y-65350130D01*
X63696397Y-65616292D01*
X63763329Y-65741514D01*
X64007298Y-65813097D01*
X64820395Y-65000000D01*
X65179605Y-65000000D01*
X65992702Y-65813097D01*
X66236671Y-65741514D01*
X66357571Y-65486004D01*
X66399182Y-65320000D01*
X69352749Y-65320000D01*
X69381684Y-65613777D01*
X69467375Y-65896264D01*
X69606531Y-66156606D01*
X69793803Y-66384797D01*
X70021994Y-66572069D01*
X70282336Y-66711225D01*
X70564823Y-66796916D01*
X70784981Y-66818600D01*
X71455019Y-66818600D01*
X71675177Y-66796916D01*
X71957664Y-66711225D01*
X72218006Y-66572069D01*
X72446197Y-66384797D01*
X72633469Y-66156606D01*
X72772625Y-65896264D01*
X72858316Y-65613777D01*
X72887251Y-65320000D01*
X72858316Y-65026223D01*
X72772625Y-64743736D01*
X72633469Y-64483394D01*
X72446197Y-64255203D01*
X72218006Y-64067931D01*
X72178647Y-64046893D01*
X72319574Y-63955483D01*
X72530873Y-63749868D01*
X72697998Y-63506981D01*
X72814527Y-63236157D01*
X72836358Y-63139026D01*
X72715217Y-62907000D01*
X71247000Y-62907000D01*
X71247000Y-62927000D01*
X70993000Y-62927000D01*
X70993000Y-62907000D01*
X69524783Y-62907000D01*
X69403642Y-63139026D01*
X69425473Y-63236157D01*
X69542002Y-63506981D01*
X69709127Y-63749868D01*
X69920426Y-63955483D01*
X70061353Y-64046893D01*
X70021994Y-64067931D01*
X69793803Y-64255203D01*
X69606531Y-64483394D01*
X69467375Y-64743736D01*
X69381684Y-65026223D01*
X69352749Y-65320000D01*
X66399182Y-65320000D01*
X66426300Y-65211816D01*
X66440217Y-64929488D01*
X66398787Y-64649870D01*
X66303603Y-64383708D01*
X66236671Y-64258486D01*
X65992702Y-64186903D01*
X65179605Y-65000000D01*
X64820395Y-65000000D01*
X64007298Y-64186903D01*
X63763329Y-64258486D01*
X63642429Y-64513996D01*
X63573700Y-64788184D01*
X63559783Y-65070512D01*
X36660000Y-65070512D01*
X36660000Y-64007298D01*
X64186903Y-64007298D01*
X65000000Y-64820395D01*
X65813097Y-64007298D01*
X65741514Y-63763329D01*
X65486004Y-63642429D01*
X65211816Y-63573700D01*
X64929488Y-63559783D01*
X64649870Y-63601213D01*
X64383708Y-63696397D01*
X64258486Y-63763329D01*
X64186903Y-64007298D01*
X36660000Y-64007298D01*
X36660000Y-53862408D01*
X37863000Y-53862408D01*
X37863000Y-54137592D01*
X37916686Y-54407490D01*
X38021995Y-54661727D01*
X38174880Y-54890535D01*
X38369465Y-55085120D01*
X38598273Y-55238005D01*
X38852510Y-55343314D01*
X39122408Y-55397000D01*
X39397592Y-55397000D01*
X39667490Y-55343314D01*
X39921727Y-55238005D01*
X40150535Y-55085120D01*
X40345120Y-54890535D01*
X40498005Y-54661727D01*
X40603314Y-54407490D01*
X40657000Y-54137592D01*
X40657000Y-53862408D01*
X40603314Y-53592510D01*
X40498005Y-53338273D01*
X40345120Y-53109465D01*
X40150535Y-52914880D01*
X39921727Y-52761995D01*
X39667490Y-52656686D01*
X39397592Y-52603000D01*
X39122408Y-52603000D01*
X38852510Y-52656686D01*
X38598273Y-52761995D01*
X38369465Y-52914880D01*
X38174880Y-53109465D01*
X38021995Y-53338273D01*
X37916686Y-53592510D01*
X37863000Y-53862408D01*
X36660000Y-53862408D01*
X36660000Y-48040000D01*
X38007815Y-48040000D01*
X38036487Y-48331111D01*
X38121401Y-48611034D01*
X38259294Y-48869014D01*
X38444866Y-49095134D01*
X38670986Y-49280706D01*
X38928966Y-49418599D01*
X39208889Y-49503513D01*
X39427050Y-49525000D01*
X39572950Y-49525000D01*
X39791111Y-49503513D01*
X40071034Y-49418599D01*
X40329014Y-49280706D01*
X40555134Y-49095134D01*
X40740706Y-48869014D01*
X40878599Y-48611034D01*
X40963513Y-48331111D01*
X40992185Y-48040000D01*
X40963513Y-47748889D01*
X40878599Y-47468966D01*
X40740706Y-47210986D01*
X40555134Y-46984866D01*
X40525313Y-46960393D01*
X40594180Y-46939502D01*
X40704494Y-46880537D01*
X40801185Y-46801185D01*
X40880537Y-46704494D01*
X40939502Y-46594180D01*
X40975812Y-46474482D01*
X40988072Y-46350000D01*
X40988072Y-44650000D01*
X40975812Y-44525518D01*
X40939502Y-44405820D01*
X40880537Y-44295506D01*
X40801185Y-44198815D01*
X40704494Y-44119463D01*
X40594180Y-44060498D01*
X40474482Y-44024188D01*
X40350000Y-44011928D01*
X38650000Y-44011928D01*
X38525518Y-44024188D01*
X38405820Y-44060498D01*
X38295506Y-44119463D01*
X38198815Y-44198815D01*
X38119463Y-44295506D01*
X38060498Y-44405820D01*
X38024188Y-44525518D01*
X38011928Y-44650000D01*
X38011928Y-46350000D01*
X38024188Y-46474482D01*
X38060498Y-46594180D01*
X38119463Y-46704494D01*
X38198815Y-46801185D01*
X38295506Y-46880537D01*
X38405820Y-46939502D01*
X38474687Y-46960393D01*
X38444866Y-46984866D01*
X38259294Y-47210986D01*
X38121401Y-47468966D01*
X38036487Y-47748889D01*
X38007815Y-48040000D01*
X36660000Y-48040000D01*
X36660000Y-40414336D01*
X36785794Y-40718029D01*
X37182725Y-41312078D01*
X37687922Y-41817275D01*
X38281971Y-42214206D01*
X38942043Y-42487617D01*
X39642772Y-42627000D01*
X40357228Y-42627000D01*
X41057957Y-42487617D01*
X41718029Y-42214206D01*
X42312078Y-41817275D01*
X42817275Y-41312078D01*
X43214206Y-40718029D01*
X43487617Y-40057957D01*
X43627000Y-39357228D01*
X43627000Y-38642772D01*
X43487617Y-37942043D01*
X43214206Y-37281971D01*
X42817275Y-36687922D01*
X42312078Y-36182725D01*
X41718029Y-35785794D01*
X41414336Y-35660000D01*
X44673414Y-35660000D01*
X44520422Y-35846422D01*
M02*
