M48
; DRILL file {KiCad (5.1.4)-1} date 09/10/2019 17:37:31
; FORMAT={-:-/ absolute / inch / decimal}
; #@! TF.CreationDate,2019-10-09T17:37:31-04:00
; #@! TF.GenerationSoftware,Kicad,Pcbnew,(5.1.4)-1
; #@! TF.FileFunction,Plated,1,2,PTH
FMAT,2
INCH
T1C0.0130
T2C0.0300
T3C0.0315
T4C0.0354
T5C0.0394
T6C0.0400
T7C0.0409
T8C0.0433
T9C0.0591
T10C0.0630
T11C0.0709
%
G90
G05
T1
X2.5098Y-3.061
X3.2874Y-2.6476
X3.3268Y-3.1299
X3.487Y-2.6504
X3.561Y-2.2717
X3.6Y-2.65
T2
X5.4508Y-3.251
X5.4508Y-3.999
X5.55Y-3.251
X5.55Y-3.999
X5.65Y-3.999
X5.95Y-3.251
X5.95Y-3.999
X6.05Y-3.251
X6.05Y-3.999
X1.5457Y-2.126
X1.5457Y-3.7008
X2.2543Y-2.126
X2.2543Y-3.7008
T3
X2.5591Y-2.1591
X2.5591Y-2.5591
X4.9543Y-3.1102
X5.3543Y-3.1102
T4
X1.8925Y-1.475
X1.9713Y-1.475
X2.05Y-1.475
T5
X4.9094Y-3.3465
X4.9094Y-3.9173
X5.0079Y-3.9173
X5.1063Y-3.3465
X5.1063Y-3.9173
X1.8258Y-3.937
X1.9258Y-3.937
X2.1508Y-3.937
X2.2508Y-3.937
X6.3016Y-3.9163
X6.4Y-3.9163
X6.4984Y-3.9163
X1.5551Y-1.7913
X1.5551Y-1.8913
T6
X2.8Y-1.7717
X2.8Y-1.8717
X2.8Y-1.9717
X2.8Y-2.0717
X2.8Y-2.1717
X2.8Y-2.2717
X2.8Y-2.3717
X2.8Y-2.4717
X2.8Y-2.5717
X5.3008Y-1.9717
X5.3008Y-2.0717
X5.3008Y-2.1717
X5.3008Y-2.2717
X5.3008Y-2.3717
T7
X2.787Y-3.0335
X2.787Y-3.9335
X2.787Y-4.0335
X2.887Y-3.0335
X2.887Y-3.9335
X2.887Y-4.0335
X2.987Y-3.0335
X2.987Y-3.9335
X2.987Y-4.0335
X3.087Y-3.0335
X3.087Y-3.9335
X3.087Y-4.0335
X3.187Y-3.0335
X3.187Y-3.9335
X3.187Y-4.0335
X3.287Y-3.0335
X3.287Y-3.9335
X3.287Y-4.0335
X3.387Y-3.0335
X3.387Y-3.9335
X3.387Y-4.0335
X3.487Y-3.0335
X3.487Y-3.9335
X3.487Y-4.0335
X3.587Y-3.0335
X3.587Y-3.9335
X3.587Y-4.0335
X3.687Y-3.0335
X3.687Y-3.9335
X3.687Y-4.0335
X3.787Y-3.0335
X3.787Y-3.9335
X3.787Y-4.0335
X3.887Y-3.0335
X3.887Y-3.9335
X3.887Y-4.0335
X3.987Y-3.0335
X3.987Y-3.9335
X3.987Y-4.0335
X4.087Y-3.0335
X4.087Y-3.9335
X4.087Y-4.0335
X4.187Y-3.0335
X4.187Y-3.9335
X4.187Y-4.0335
X4.287Y-3.0335
X4.287Y-3.9335
X4.287Y-4.0335
X4.387Y-3.0335
X4.387Y-3.9335
X4.387Y-4.0335
X4.487Y-3.0335
X4.487Y-3.9335
X4.487Y-4.0335
X4.587Y-3.0335
X4.587Y-3.9335
X4.587Y-4.0335
T8
X5.5531Y-1.7165
X5.6516Y-1.7165
X5.75Y-1.5
X5.8484Y-1.7165
X5.9469Y-1.7165
X6.1531Y-1.7126
X6.2516Y-1.7126
X6.35Y-1.4961
X6.4484Y-1.7126
X6.5469Y-1.7126
X5.7547Y-2.525
X6.3453Y-2.525
T9
X1.8098Y-1.475
X2.1327Y-1.475
T10
X2.24Y-1.7319
X2.425Y-1.6138
X2.425Y-1.85
T11
G00X4.7835Y-3.6063
M15
G01X4.7835Y-3.6378
M16
G05
G00X5.2323Y-3.6063
M15
G01X5.2323Y-3.6378
M16
G05
T0
M30
