G04 #@! TF.GenerationSoftware,KiCad,Pcbnew,(5.1.4)-1*
G04 #@! TF.CreationDate,2019-10-09T17:37:27-04:00*
G04 #@! TF.ProjectId,MorseTutor3,4d6f7273-6554-4757-946f-72332e6b6963,rev?*
G04 #@! TF.SameCoordinates,Original*
G04 #@! TF.FileFunction,Copper,L1,Top*
G04 #@! TF.FilePolarity,Positive*
%FSLAX46Y46*%
G04 Gerber Fmt 4.6, Leading zero omitted, Abs format (unit mm)*
G04 Created by KiCad (PCBNEW (5.1.4)-1) date 2019-10-09 17:37:27*
%MOMM*%
%LPD*%
G04 APERTURE LIST*
%ADD10C,2.000000*%
%ADD11C,1.560000*%
%ADD12R,1.560000X1.560000*%
%ADD13O,1.800000X2.000000*%
%ADD14C,1.524000*%
%ADD15R,2.600000X2.600000*%
%ADD16C,2.600000*%
%ADD17C,1.600000*%
%ADD18O,1.600000X1.600000*%
%ADD19R,1.500000X2.500000*%
%ADD20O,1.500000X2.500000*%
%ADD21O,2.200000X3.500000*%
%ADD22O,1.700000X1.700000*%
%ADD23R,1.700000X1.700000*%
%ADD24R,2.800000X3.600000*%
%ADD25R,2.250000X1.727200*%
%ADD26O,2.250000X1.727200*%
%ADD27C,1.800000*%
%ADD28C,4.000000*%
%ADD29C,0.685800*%
%ADD30C,0.508000*%
%ADD31C,0.254000*%
%ADD32C,0.203200*%
%ADD33C,0.304800*%
G04 APERTURE END LIST*
D10*
X146170000Y-64135000D03*
X161170000Y-64135000D03*
D11*
X113970000Y-99910000D03*
X75870000Y-99910000D03*
X96190000Y-99910000D03*
X98730000Y-99910000D03*
X108890000Y-99910000D03*
X83490000Y-99910000D03*
X73330000Y-99910000D03*
X91110000Y-99910000D03*
X111430000Y-99910000D03*
X93650000Y-99910000D03*
X116510000Y-99910000D03*
X106350000Y-99910000D03*
X86030000Y-99910000D03*
X78410000Y-99910000D03*
D12*
X70790000Y-99910000D03*
D11*
X80950000Y-99910000D03*
X88570000Y-99910000D03*
X101270000Y-99910000D03*
X103810000Y-99910000D03*
X70790000Y-77050000D03*
X73330000Y-77050000D03*
X75870000Y-77050000D03*
X78410000Y-77050000D03*
X80950000Y-77050000D03*
X83490000Y-77050000D03*
X86030000Y-77050000D03*
X88570000Y-77050000D03*
X91110000Y-77050000D03*
X93650000Y-77050000D03*
X96190000Y-77050000D03*
X98730000Y-77050000D03*
X101270000Y-77050000D03*
X103810000Y-77050000D03*
X106350000Y-77050000D03*
X108890000Y-77050000D03*
X111430000Y-77050000D03*
X113970000Y-77050000D03*
X116510000Y-77050000D03*
X113970000Y-102450000D03*
X111430000Y-102450000D03*
X108890000Y-102450000D03*
X106350000Y-102450000D03*
X103810000Y-102450000D03*
X101270000Y-102450000D03*
X98730000Y-102450000D03*
X96190000Y-102450000D03*
X93650000Y-102450000D03*
X91110000Y-102450000D03*
X88570000Y-102450000D03*
X86030000Y-102450000D03*
X83490000Y-102450000D03*
X80950000Y-102450000D03*
X78410000Y-102450000D03*
X75870000Y-102450000D03*
X116510000Y-102450000D03*
X73330000Y-102450000D03*
D12*
X70790000Y-102450000D03*
D13*
X141050000Y-43600000D03*
X143550000Y-43600000D03*
X151050000Y-43600000D03*
X148550000Y-43600000D03*
X146050000Y-38100000D03*
X156290000Y-43500000D03*
X158790000Y-43500000D03*
X166290000Y-43500000D03*
X163790000Y-43500000D03*
X161290000Y-38000000D03*
D14*
X153670000Y-82575000D03*
X151130000Y-82575000D03*
X140970000Y-82575000D03*
X138450000Y-82575000D03*
X153670000Y-101575000D03*
X151130000Y-101575000D03*
X143510000Y-101575000D03*
X140970000Y-101575000D03*
X138450000Y-101575000D03*
D15*
X61595000Y-46990000D03*
D16*
X61595000Y-40990000D03*
X56895000Y-43990000D03*
D17*
X65000000Y-65000000D03*
D18*
X65000000Y-54840000D03*
X125840000Y-79000000D03*
D17*
X136000000Y-79000000D03*
D19*
X52070000Y-37465000D03*
D20*
X50070000Y-37465000D03*
X48070000Y-37465000D03*
D21*
X54170000Y-37465000D03*
X45970000Y-37465000D03*
D22*
X48915000Y-100000000D03*
D23*
X46375000Y-100000000D03*
X54630000Y-100000000D03*
D22*
X57170000Y-100000000D03*
D23*
X39500000Y-45500000D03*
D22*
X39500000Y-48040000D03*
D24*
X121500000Y-92000000D03*
X132900000Y-92000000D03*
D10*
X124700000Y-85000000D03*
X129700000Y-85000000D03*
X124700000Y-99500000D03*
X127200000Y-99500000D03*
X129700000Y-99500000D03*
D14*
X57260000Y-54000000D03*
X39260000Y-54000000D03*
X39260000Y-94000000D03*
X57260000Y-94000000D03*
D25*
X71120000Y-45000000D03*
D26*
X71120000Y-47540000D03*
X71120000Y-50080000D03*
X71120000Y-52620000D03*
X71120000Y-55160000D03*
X71120000Y-57700000D03*
X71120000Y-60240000D03*
X71120000Y-62780000D03*
X71120000Y-65320000D03*
X134640000Y-57700000D03*
X134640000Y-55160000D03*
X134640000Y-52620000D03*
D25*
X134640000Y-50080000D03*
D26*
X134640000Y-60240000D03*
D27*
X160060000Y-99475000D03*
X162560000Y-99475000D03*
X165060000Y-99475000D03*
D28*
X158160000Y-92475000D03*
X166960000Y-92475000D03*
D29*
X84500000Y-79499998D03*
X63750000Y-77750000D03*
X83500000Y-67250000D03*
X91440000Y-67310000D03*
X88570000Y-67320000D03*
X90450000Y-57700000D03*
D30*
X39500000Y-45500000D02*
X47592000Y-45500000D01*
X61595000Y-45182000D02*
X58420000Y-42007000D01*
X61595000Y-46990000D02*
X61595000Y-45182000D01*
X56515000Y-41910000D02*
X55245000Y-41910000D01*
X55880000Y-41910000D02*
X58420000Y-41910000D01*
X56728000Y-41910000D02*
X55880000Y-41910000D01*
X55880000Y-41910000D02*
X55245000Y-41910000D01*
X52070000Y-41275000D02*
X52705000Y-41910000D01*
X52070000Y-37465000D02*
X52070000Y-41275000D01*
X55245000Y-41910000D02*
X52705000Y-41910000D01*
X47592000Y-45500000D02*
X51655000Y-45500000D01*
X51655000Y-45500000D02*
X55245000Y-41910000D01*
X42460000Y-50800000D02*
X39260000Y-54000000D01*
X61207962Y-50800000D02*
X42460000Y-50800000D01*
X63352201Y-48655761D02*
X61207962Y-50800000D01*
X61595000Y-40990000D02*
X63352201Y-42747201D01*
X63352201Y-42747201D02*
X63352201Y-48655761D01*
X51250000Y-48040000D02*
X55300000Y-43990000D01*
X39500000Y-48040000D02*
X51250000Y-48040000D01*
X55300000Y-43990000D02*
X56895000Y-43990000D01*
D31*
X141050000Y-43600000D02*
X141050000Y-81225000D01*
X140970000Y-81305000D02*
X140970000Y-82575000D01*
X141050000Y-81225000D02*
X140970000Y-81305000D01*
X143550000Y-43600000D02*
X143930000Y-43980000D01*
X143550000Y-43700000D02*
X143550000Y-43600000D01*
X142240000Y-45010000D02*
X143550000Y-43700000D01*
X142240000Y-56515000D02*
X142240000Y-45010000D01*
X149860000Y-64135000D02*
X142240000Y-56515000D01*
X161170000Y-64135000D02*
X149860000Y-64135000D01*
X141494257Y-83667201D02*
X142062201Y-83099257D01*
X142062201Y-67165169D02*
X145092370Y-64135000D01*
X139542201Y-83667201D02*
X141494257Y-83667201D01*
X138450000Y-82575000D02*
X139542201Y-83667201D01*
X142062201Y-83099257D02*
X142062201Y-67165169D01*
X145092370Y-64135000D02*
X146170000Y-64135000D01*
D30*
X47733000Y-98642000D02*
X46375000Y-100000000D01*
X54212000Y-98642000D02*
X54630000Y-99060000D01*
X54630000Y-99060000D02*
X54630000Y-98642000D01*
X54630000Y-100000000D02*
X54630000Y-99060000D01*
X54630000Y-98642000D02*
X54212000Y-98642000D01*
X54212000Y-98642000D02*
X47733000Y-98642000D01*
X57260000Y-96012000D02*
X55761000Y-97511000D01*
X57260000Y-94000000D02*
X57260000Y-96012000D01*
X54630000Y-98642000D02*
X55761000Y-97511000D01*
X55761000Y-97511000D02*
X56010000Y-97262000D01*
D32*
X103810000Y-99910000D02*
X103810000Y-102450000D01*
D31*
X166290000Y-43400000D02*
X163530000Y-40640000D01*
X163530000Y-40640000D02*
X66190000Y-40640000D01*
X166290000Y-43500000D02*
X166290000Y-43400000D01*
X66190000Y-40640000D02*
X64210000Y-42620000D01*
X64210000Y-42620000D02*
X64210000Y-49605000D01*
X64210000Y-49605000D02*
X62305000Y-51510000D01*
X84500000Y-79499998D02*
X66499998Y-79499998D01*
X63609998Y-79499998D02*
X62305000Y-78195000D01*
X66499998Y-79499998D02*
X63609998Y-79499998D01*
X62305000Y-51510000D02*
X62305000Y-78195000D01*
X63750000Y-51970000D02*
X63750000Y-77265067D01*
X153882000Y-42246000D02*
X65854000Y-42246000D01*
X63750000Y-77265067D02*
X63750000Y-77750000D01*
X155136000Y-43500000D02*
X153882000Y-42246000D01*
X156290000Y-43500000D02*
X155136000Y-43500000D01*
X64845000Y-50875000D02*
X63750000Y-51970000D01*
X65854000Y-42246000D02*
X64845000Y-43255000D01*
X64845000Y-43255000D02*
X64845000Y-50875000D01*
D33*
X65000000Y-54840000D02*
X65000000Y-53110000D01*
X65490000Y-52620000D02*
X71120000Y-52620000D01*
X65000000Y-53110000D02*
X65490000Y-52620000D01*
D32*
X106350000Y-99910000D02*
X106350000Y-102450000D01*
D31*
X135500000Y-79000000D02*
X135750000Y-79250000D01*
X136000000Y-86500000D02*
X136000000Y-79000000D01*
X136000000Y-86250000D02*
X136000000Y-86500000D01*
X136000000Y-86250000D02*
X136000000Y-79000000D01*
X165060000Y-98202208D02*
X165060000Y-99475000D01*
X164107792Y-97250000D02*
X165060000Y-98202208D01*
X137000000Y-97250000D02*
X164107792Y-97250000D01*
X136000000Y-86250000D02*
X136000000Y-96250000D01*
X136000000Y-96250000D02*
X137000000Y-97250000D01*
X99060000Y-77470000D02*
X99122200Y-77470000D01*
D32*
X124700000Y-97950000D02*
X124700000Y-99500000D01*
X124700000Y-89450000D02*
X124700000Y-97950000D01*
X122500000Y-87250000D02*
X124700000Y-89450000D01*
X108788457Y-87250000D02*
X122500000Y-87250000D01*
X98730000Y-76800000D02*
X98730000Y-77191543D01*
X98730000Y-77191543D02*
X108788457Y-87250000D01*
X129700000Y-99450000D02*
X129700000Y-99500000D01*
X101270000Y-78020000D02*
X109750000Y-86500000D01*
X101270000Y-76800000D02*
X101270000Y-78020000D01*
X109750000Y-86500000D02*
X122824751Y-86500000D01*
X122824751Y-86500000D02*
X125500000Y-89175249D01*
X125500000Y-89175249D02*
X125500000Y-95250000D01*
X125500000Y-95250000D02*
X129700000Y-99450000D01*
X70790000Y-99910000D02*
X70790000Y-102450000D01*
X73330000Y-99910000D02*
X73330000Y-102450000D01*
X75870000Y-101013086D02*
X75870000Y-102450000D01*
X75870000Y-99910000D02*
X75870000Y-101013086D01*
X78410000Y-99910000D02*
X78410000Y-102450000D01*
D31*
X83500000Y-77020000D02*
X83500000Y-67500000D01*
D32*
X71120000Y-55160000D02*
X72448200Y-55160000D01*
D31*
X71120000Y-50080000D02*
X71381400Y-50080000D01*
X71120000Y-50080000D02*
X88180000Y-50080000D01*
X89080000Y-50080000D02*
X88180000Y-50080000D01*
X93675000Y-54675000D02*
X89080000Y-50080000D01*
X93675000Y-75671914D02*
X93675000Y-54675000D01*
D32*
X93650000Y-76800000D02*
X93650000Y-75696914D01*
X93650000Y-75696914D02*
X93675000Y-75671914D01*
D31*
X96190000Y-54810000D02*
X96190000Y-76800000D01*
X100750000Y-50250000D02*
X96190000Y-54810000D01*
D32*
X133141800Y-50250000D02*
X100750000Y-50250000D01*
X134640000Y-50080000D02*
X133311800Y-50080000D01*
X133311800Y-50080000D02*
X133141800Y-50250000D01*
D31*
X71120000Y-60240000D02*
X84370000Y-60240000D01*
X84370000Y-60240000D02*
X91440000Y-67310000D01*
D32*
X91440000Y-76470000D02*
X91110000Y-76800000D01*
D31*
X91440000Y-67310000D02*
X91440000Y-76470000D01*
X88570000Y-67320000D02*
X88570000Y-76800000D01*
X71120000Y-65320000D02*
X86570000Y-65320000D01*
X86570000Y-65320000D02*
X88570000Y-67320000D01*
X70858600Y-57700000D02*
X68580000Y-59978600D01*
X71120000Y-57700000D02*
X70858600Y-57700000D01*
X68580000Y-59978600D02*
X68580000Y-64969200D01*
X68580000Y-66040000D02*
X68580000Y-63500000D01*
D32*
X68580000Y-66040000D02*
X68580000Y-66580000D01*
X73330000Y-71330000D02*
X73330000Y-76800000D01*
X68580000Y-66580000D02*
X73330000Y-71330000D01*
X71120000Y-57700000D02*
X72448200Y-57700000D01*
D31*
X72448200Y-57700000D02*
X90450000Y-57700000D01*
D32*
X101270000Y-99910000D02*
X101270000Y-102450000D01*
X108890000Y-99910000D02*
X108890000Y-102450000D01*
X111430000Y-101013086D02*
X111430000Y-102450000D01*
X111430000Y-99910000D02*
X111430000Y-101013086D01*
X129700000Y-85000000D02*
X127950000Y-83250000D01*
X127950000Y-83250000D02*
X112500000Y-83250000D01*
X108890000Y-79640000D02*
X108890000Y-76800000D01*
X112500000Y-83250000D02*
X108890000Y-79640000D01*
X80950000Y-99910000D02*
X80950000Y-102450000D01*
X83490000Y-99910000D02*
X83490000Y-102450000D01*
X91110000Y-99910000D02*
X91110000Y-102450000D01*
X93650000Y-99910000D02*
X93650000Y-102450000D01*
X96190000Y-99910000D02*
X96190000Y-102450000D01*
X98730000Y-99910000D02*
X98730000Y-102450000D01*
X113970000Y-99910000D02*
X113970000Y-102450000D01*
D31*
G36*
X44520422Y-35846422D02*
G01*
X44359315Y-36147832D01*
X44260105Y-36474881D01*
X44235000Y-36729775D01*
X44235000Y-38200224D01*
X44260105Y-38455118D01*
X44359314Y-38782167D01*
X44520421Y-39083577D01*
X44737234Y-39347766D01*
X45001422Y-39564579D01*
X45302832Y-39725686D01*
X45629881Y-39824895D01*
X45970000Y-39858394D01*
X46310118Y-39824895D01*
X46637167Y-39725686D01*
X46938577Y-39564579D01*
X47202766Y-39347766D01*
X47360139Y-39156006D01*
X47537419Y-39250764D01*
X47798493Y-39329960D01*
X48070000Y-39356701D01*
X48341506Y-39329960D01*
X48602580Y-39250764D01*
X48843187Y-39122157D01*
X49054080Y-38949081D01*
X49070000Y-38929683D01*
X49085919Y-38949080D01*
X49296812Y-39122157D01*
X49537419Y-39250764D01*
X49798493Y-39329960D01*
X50070000Y-39356701D01*
X50341506Y-39329960D01*
X50602580Y-39250764D01*
X50835885Y-39126060D01*
X50868815Y-39166185D01*
X50965506Y-39245537D01*
X51075820Y-39304502D01*
X51181000Y-39336408D01*
X51181001Y-41231330D01*
X51176700Y-41275000D01*
X51193864Y-41449274D01*
X51244698Y-41616852D01*
X51327248Y-41771291D01*
X51409131Y-41871065D01*
X51438342Y-41906659D01*
X51472259Y-41934494D01*
X52045505Y-42507741D01*
X52073341Y-42541659D01*
X52107258Y-42569494D01*
X52107259Y-42569495D01*
X52111441Y-42572927D01*
X52208709Y-42652753D01*
X52363149Y-42735303D01*
X52455626Y-42763355D01*
X52530725Y-42786136D01*
X52547325Y-42787771D01*
X52661333Y-42799000D01*
X52661340Y-42799000D01*
X52705000Y-42803300D01*
X52748660Y-42799000D01*
X53098764Y-42799000D01*
X51286765Y-44611000D01*
X40984231Y-44611000D01*
X40975812Y-44525518D01*
X40939502Y-44405820D01*
X40880537Y-44295506D01*
X40801185Y-44198815D01*
X40704494Y-44119463D01*
X40594180Y-44060498D01*
X40474482Y-44024188D01*
X40350000Y-44011928D01*
X38650000Y-44011928D01*
X38525518Y-44024188D01*
X38405820Y-44060498D01*
X38295506Y-44119463D01*
X38198815Y-44198815D01*
X38119463Y-44295506D01*
X38060498Y-44405820D01*
X38024188Y-44525518D01*
X38011928Y-44650000D01*
X38011928Y-46350000D01*
X38024188Y-46474482D01*
X38060498Y-46594180D01*
X38119463Y-46704494D01*
X38198815Y-46801185D01*
X38295506Y-46880537D01*
X38405820Y-46939502D01*
X38474687Y-46960393D01*
X38444866Y-46984866D01*
X38259294Y-47210986D01*
X38121401Y-47468966D01*
X38036487Y-47748889D01*
X38007815Y-48040000D01*
X38036487Y-48331111D01*
X38121401Y-48611034D01*
X38259294Y-48869014D01*
X38444866Y-49095134D01*
X38670986Y-49280706D01*
X38928966Y-49418599D01*
X39208889Y-49503513D01*
X39427050Y-49525000D01*
X39572950Y-49525000D01*
X39791111Y-49503513D01*
X40071034Y-49418599D01*
X40329014Y-49280706D01*
X40555134Y-49095134D01*
X40691477Y-48929000D01*
X51206340Y-48929000D01*
X51250000Y-48933300D01*
X51293660Y-48929000D01*
X51293667Y-48929000D01*
X51424274Y-48916136D01*
X51591851Y-48865303D01*
X51746291Y-48782753D01*
X51881659Y-48671659D01*
X51909499Y-48637736D01*
X55364653Y-45182583D01*
X55391987Y-45223491D01*
X55661509Y-45493013D01*
X55978434Y-45704775D01*
X56330581Y-45850639D01*
X56704419Y-45925000D01*
X57085581Y-45925000D01*
X57459419Y-45850639D01*
X57811566Y-45704775D01*
X58128491Y-45493013D01*
X58398013Y-45223491D01*
X58609775Y-44906566D01*
X58755639Y-44554419D01*
X58830000Y-44180581D01*
X58830000Y-43799419D01*
X58798917Y-43643152D01*
X60215520Y-45059756D01*
X60170518Y-45064188D01*
X60050820Y-45100498D01*
X59940506Y-45159463D01*
X59843815Y-45238815D01*
X59764463Y-45335506D01*
X59705498Y-45445820D01*
X59669188Y-45565518D01*
X59656928Y-45690000D01*
X59656928Y-48290000D01*
X59669188Y-48414482D01*
X59705498Y-48534180D01*
X59764463Y-48644494D01*
X59843815Y-48741185D01*
X59940506Y-48820537D01*
X60050820Y-48879502D01*
X60170518Y-48915812D01*
X60295000Y-48928072D01*
X61822654Y-48928072D01*
X60839727Y-49911000D01*
X42503659Y-49911000D01*
X42459999Y-49906700D01*
X42416339Y-49911000D01*
X42416333Y-49911000D01*
X42318924Y-49920594D01*
X42285724Y-49923864D01*
X42184058Y-49954704D01*
X42118149Y-49974697D01*
X41963709Y-50057247D01*
X41828341Y-50168341D01*
X41800501Y-50202264D01*
X39399404Y-52603361D01*
X39397592Y-52603000D01*
X39122408Y-52603000D01*
X38852510Y-52656686D01*
X38598273Y-52761995D01*
X38369465Y-52914880D01*
X38174880Y-53109465D01*
X38021995Y-53338273D01*
X37916686Y-53592510D01*
X37863000Y-53862408D01*
X37863000Y-54137592D01*
X37916686Y-54407490D01*
X38021995Y-54661727D01*
X38174880Y-54890535D01*
X38369465Y-55085120D01*
X38598273Y-55238005D01*
X38852510Y-55343314D01*
X39122408Y-55397000D01*
X39397592Y-55397000D01*
X39667490Y-55343314D01*
X39921727Y-55238005D01*
X40150535Y-55085120D01*
X40345120Y-54890535D01*
X40498005Y-54661727D01*
X40603314Y-54407490D01*
X40657000Y-54137592D01*
X40657000Y-53862408D01*
X55863000Y-53862408D01*
X55863000Y-54137592D01*
X55916686Y-54407490D01*
X56021995Y-54661727D01*
X56174880Y-54890535D01*
X56369465Y-55085120D01*
X56598273Y-55238005D01*
X56852510Y-55343314D01*
X57122408Y-55397000D01*
X57397592Y-55397000D01*
X57667490Y-55343314D01*
X57921727Y-55238005D01*
X58150535Y-55085120D01*
X58345120Y-54890535D01*
X58498005Y-54661727D01*
X58603314Y-54407490D01*
X58657000Y-54137592D01*
X58657000Y-53862408D01*
X58603314Y-53592510D01*
X58498005Y-53338273D01*
X58345120Y-53109465D01*
X58150535Y-52914880D01*
X57921727Y-52761995D01*
X57667490Y-52656686D01*
X57397592Y-52603000D01*
X57122408Y-52603000D01*
X56852510Y-52656686D01*
X56598273Y-52761995D01*
X56369465Y-52914880D01*
X56174880Y-53109465D01*
X56021995Y-53338273D01*
X55916686Y-53592510D01*
X55863000Y-53862408D01*
X40657000Y-53862408D01*
X40656639Y-53860596D01*
X42828235Y-51689000D01*
X61164302Y-51689000D01*
X61207962Y-51693300D01*
X61251622Y-51689000D01*
X61251629Y-51689000D01*
X61382236Y-51676136D01*
X61543000Y-51627370D01*
X61543001Y-78157567D01*
X61539314Y-78195000D01*
X61554027Y-78344378D01*
X61597599Y-78488015D01*
X61668355Y-78620392D01*
X61679026Y-78633394D01*
X61763579Y-78736422D01*
X61792649Y-78760279D01*
X63044719Y-80012350D01*
X63068576Y-80041420D01*
X63097646Y-80065277D01*
X63167981Y-80123000D01*
X62750000Y-80123000D01*
X62725224Y-80125440D01*
X62701399Y-80132667D01*
X62679443Y-80144403D01*
X62660197Y-80160197D01*
X62644403Y-80179443D01*
X62632667Y-80201399D01*
X62625440Y-80225224D01*
X62623000Y-80250000D01*
X62623000Y-100750000D01*
X62625440Y-100774776D01*
X62632667Y-100798601D01*
X62644403Y-100820557D01*
X62660197Y-100839803D01*
X62679443Y-100855597D01*
X62701399Y-100867333D01*
X62725224Y-100874560D01*
X62750000Y-100877000D01*
X69000000Y-100877000D01*
X69024776Y-100874560D01*
X69048601Y-100867333D01*
X69070557Y-100855597D01*
X69089803Y-100839803D01*
X69105597Y-100820557D01*
X69117333Y-100798601D01*
X69124560Y-100774776D01*
X69127000Y-100750000D01*
X69127000Y-98127000D01*
X76875000Y-98127000D01*
X76900653Y-98124382D01*
X76924426Y-98116988D01*
X76946299Y-98105097D01*
X76965433Y-98089168D01*
X76981091Y-98069812D01*
X76992672Y-98047773D01*
X76999731Y-98023899D01*
X77001997Y-97999106D01*
X76947074Y-90200000D01*
X119461928Y-90200000D01*
X119461928Y-93800000D01*
X119474188Y-93924482D01*
X119510498Y-94044180D01*
X119569463Y-94154494D01*
X119648815Y-94251185D01*
X119745506Y-94330537D01*
X119855820Y-94389502D01*
X119975518Y-94425812D01*
X120100000Y-94438072D01*
X122900000Y-94438072D01*
X123024482Y-94425812D01*
X123144180Y-94389502D01*
X123254494Y-94330537D01*
X123351185Y-94251185D01*
X123430537Y-94154494D01*
X123489502Y-94044180D01*
X123525812Y-93924482D01*
X123538072Y-93800000D01*
X123538072Y-90200000D01*
X123525812Y-90075518D01*
X123489502Y-89955820D01*
X123430537Y-89845506D01*
X123351185Y-89748815D01*
X123254494Y-89669463D01*
X123144180Y-89610498D01*
X123024482Y-89574188D01*
X122900000Y-89561928D01*
X120100000Y-89561928D01*
X119975518Y-89574188D01*
X119855820Y-89610498D01*
X119745506Y-89669463D01*
X119648815Y-89748815D01*
X119569463Y-89845506D01*
X119510498Y-89955820D01*
X119474188Y-90075518D01*
X119461928Y-90200000D01*
X76947074Y-90200000D01*
X76877088Y-80261998D01*
X83880239Y-80261998D01*
X84036790Y-80366602D01*
X84214757Y-80440318D01*
X84403685Y-80477898D01*
X84596315Y-80477898D01*
X84785243Y-80440318D01*
X84963210Y-80366602D01*
X85123375Y-80259583D01*
X85259585Y-80123373D01*
X85366604Y-79963208D01*
X85440320Y-79785241D01*
X85477900Y-79596313D01*
X85477900Y-79403683D01*
X85440320Y-79214755D01*
X85366604Y-79036788D01*
X85259585Y-78876623D01*
X85123375Y-78740413D01*
X84963210Y-78633394D01*
X84785243Y-78559678D01*
X84596315Y-78522098D01*
X84403685Y-78522098D01*
X84214757Y-78559678D01*
X84036790Y-78633394D01*
X83880239Y-78737998D01*
X63925629Y-78737998D01*
X63904047Y-78716416D01*
X64035243Y-78690320D01*
X64213210Y-78616604D01*
X64373375Y-78509585D01*
X64509585Y-78373375D01*
X64616604Y-78213210D01*
X64690320Y-78035243D01*
X64691676Y-78028421D01*
X69991184Y-78028421D01*
X70060345Y-78270349D01*
X70312443Y-78389248D01*
X70582894Y-78456681D01*
X70861303Y-78470057D01*
X71136972Y-78428860D01*
X71399308Y-78334675D01*
X71519655Y-78270349D01*
X71588816Y-78028421D01*
X70790000Y-77229605D01*
X69991184Y-78028421D01*
X64691676Y-78028421D01*
X64727900Y-77846315D01*
X64727900Y-77653685D01*
X64690320Y-77464757D01*
X64616604Y-77286790D01*
X64512000Y-77130239D01*
X64512000Y-77121303D01*
X69369943Y-77121303D01*
X69411140Y-77396972D01*
X69505325Y-77659308D01*
X69569651Y-77779655D01*
X69811579Y-77848816D01*
X70610395Y-77050000D01*
X69811579Y-76251184D01*
X69569651Y-76320345D01*
X69450752Y-76572443D01*
X69383319Y-76842894D01*
X69369943Y-77121303D01*
X64512000Y-77121303D01*
X64512000Y-76071579D01*
X69991184Y-76071579D01*
X70790000Y-76870395D01*
X71588816Y-76071579D01*
X71519655Y-75829651D01*
X71267557Y-75710752D01*
X70997106Y-75643319D01*
X70718697Y-75629943D01*
X70443028Y-75671140D01*
X70180692Y-75765325D01*
X70060345Y-75829651D01*
X69991184Y-76071579D01*
X64512000Y-76071579D01*
X64512000Y-66351096D01*
X64581426Y-66379853D01*
X64858665Y-66435000D01*
X65141335Y-66435000D01*
X65418574Y-66379853D01*
X65679727Y-66271680D01*
X65914759Y-66114637D01*
X66114637Y-65914759D01*
X66271680Y-65679727D01*
X66379853Y-65418574D01*
X66435000Y-65141335D01*
X66435000Y-64858665D01*
X66379853Y-64581426D01*
X66271680Y-64320273D01*
X66114637Y-64085241D01*
X65914759Y-63885363D01*
X65679727Y-63728320D01*
X65418574Y-63620147D01*
X65141335Y-63565000D01*
X64858665Y-63565000D01*
X64581426Y-63620147D01*
X64512000Y-63648904D01*
X64512000Y-56191538D01*
X64718691Y-56254236D01*
X64929508Y-56275000D01*
X65070492Y-56275000D01*
X65281309Y-56254236D01*
X65551808Y-56172182D01*
X65801101Y-56038932D01*
X66019608Y-55859608D01*
X66198932Y-55641101D01*
X66332182Y-55391808D01*
X66414236Y-55121309D01*
X66441943Y-54840000D01*
X66414236Y-54558691D01*
X66332182Y-54288192D01*
X66198932Y-54038899D01*
X66019608Y-53820392D01*
X65801101Y-53641068D01*
X65787400Y-53633745D01*
X65787400Y-53436150D01*
X65816151Y-53407400D01*
X69580230Y-53407400D01*
X69606531Y-53456606D01*
X69793803Y-53684797D01*
X70021994Y-53872069D01*
X70055540Y-53890000D01*
X70021994Y-53907931D01*
X69793803Y-54095203D01*
X69606531Y-54323394D01*
X69467375Y-54583736D01*
X69381684Y-54866223D01*
X69352749Y-55160000D01*
X69381684Y-55453777D01*
X69467375Y-55736264D01*
X69606531Y-55996606D01*
X69793803Y-56224797D01*
X70021994Y-56412069D01*
X70055540Y-56430000D01*
X70021994Y-56447931D01*
X69793803Y-56635203D01*
X69606531Y-56863394D01*
X69467375Y-57123736D01*
X69381684Y-57406223D01*
X69352749Y-57700000D01*
X69381684Y-57993777D01*
X69406240Y-58074729D01*
X68067654Y-59413316D01*
X68038578Y-59437178D01*
X68008102Y-59474314D01*
X67943355Y-59553208D01*
X67916551Y-59603355D01*
X67872598Y-59685586D01*
X67829026Y-59829223D01*
X67818000Y-59941174D01*
X67814314Y-59978600D01*
X67818000Y-60016023D01*
X67818001Y-63462574D01*
X67818000Y-66077425D01*
X67829026Y-66189377D01*
X67843400Y-66236762D01*
X67843400Y-66543817D01*
X67839836Y-66580000D01*
X67843400Y-66616183D01*
X67843400Y-66616186D01*
X67854058Y-66724399D01*
X67896178Y-66863249D01*
X67943828Y-66952395D01*
X67964576Y-66991212D01*
X68033018Y-67074608D01*
X68056626Y-67103375D01*
X68084732Y-67126441D01*
X72593400Y-71635109D01*
X72593401Y-75840373D01*
X72427990Y-75950897D01*
X72230897Y-76147990D01*
X72076043Y-76379746D01*
X72061223Y-76415525D01*
X72010349Y-76320345D01*
X71768421Y-76251184D01*
X70969605Y-77050000D01*
X71768421Y-77848816D01*
X72010349Y-77779655D01*
X72058425Y-77677721D01*
X72076043Y-77720254D01*
X72230897Y-77952010D01*
X72427990Y-78149103D01*
X72659746Y-78303957D01*
X72917260Y-78410623D01*
X73190635Y-78465000D01*
X73469365Y-78465000D01*
X73742740Y-78410623D01*
X74000254Y-78303957D01*
X74232010Y-78149103D01*
X74429103Y-77952010D01*
X74583957Y-77720254D01*
X74600000Y-77681523D01*
X74616043Y-77720254D01*
X74770897Y-77952010D01*
X74967990Y-78149103D01*
X75199746Y-78303957D01*
X75457260Y-78410623D01*
X75730635Y-78465000D01*
X76009365Y-78465000D01*
X76282740Y-78410623D01*
X76540254Y-78303957D01*
X76772010Y-78149103D01*
X76969103Y-77952010D01*
X77123957Y-77720254D01*
X77140000Y-77681523D01*
X77156043Y-77720254D01*
X77310897Y-77952010D01*
X77507990Y-78149103D01*
X77739746Y-78303957D01*
X77997260Y-78410623D01*
X78270635Y-78465000D01*
X78549365Y-78465000D01*
X78822740Y-78410623D01*
X79080254Y-78303957D01*
X79312010Y-78149103D01*
X79509103Y-77952010D01*
X79663957Y-77720254D01*
X79680000Y-77681523D01*
X79696043Y-77720254D01*
X79850897Y-77952010D01*
X80047990Y-78149103D01*
X80279746Y-78303957D01*
X80537260Y-78410623D01*
X80810635Y-78465000D01*
X81089365Y-78465000D01*
X81362740Y-78410623D01*
X81620254Y-78303957D01*
X81852010Y-78149103D01*
X82049103Y-77952010D01*
X82203957Y-77720254D01*
X82220000Y-77681523D01*
X82236043Y-77720254D01*
X82390897Y-77952010D01*
X82587990Y-78149103D01*
X82819746Y-78303957D01*
X83077260Y-78410623D01*
X83350635Y-78465000D01*
X83629365Y-78465000D01*
X83902740Y-78410623D01*
X84160254Y-78303957D01*
X84392010Y-78149103D01*
X84512692Y-78028421D01*
X85231184Y-78028421D01*
X85300345Y-78270349D01*
X85552443Y-78389248D01*
X85822894Y-78456681D01*
X86101303Y-78470057D01*
X86376972Y-78428860D01*
X86639308Y-78334675D01*
X86759655Y-78270349D01*
X86828816Y-78028421D01*
X86030000Y-77229605D01*
X85231184Y-78028421D01*
X84512692Y-78028421D01*
X84589103Y-77952010D01*
X84743957Y-77720254D01*
X84758777Y-77684475D01*
X84809651Y-77779655D01*
X85051579Y-77848816D01*
X85850395Y-77050000D01*
X85051579Y-76251184D01*
X84809651Y-76320345D01*
X84761575Y-76422279D01*
X84743957Y-76379746D01*
X84589103Y-76147990D01*
X84512692Y-76071579D01*
X85231184Y-76071579D01*
X86030000Y-76870395D01*
X86828816Y-76071579D01*
X86759655Y-75829651D01*
X86507557Y-75710752D01*
X86237106Y-75643319D01*
X85958697Y-75629943D01*
X85683028Y-75671140D01*
X85420692Y-75765325D01*
X85300345Y-75829651D01*
X85231184Y-76071579D01*
X84512692Y-76071579D01*
X84392010Y-75950897D01*
X84262000Y-75864027D01*
X84262000Y-67869761D01*
X84366604Y-67713210D01*
X84440320Y-67535243D01*
X84477900Y-67346315D01*
X84477900Y-67153685D01*
X84440320Y-66964757D01*
X84366604Y-66786790D01*
X84259585Y-66626625D01*
X84123375Y-66490415D01*
X83963210Y-66383396D01*
X83785243Y-66309680D01*
X83596315Y-66272100D01*
X83403685Y-66272100D01*
X83214757Y-66309680D01*
X83036790Y-66383396D01*
X82876625Y-66490415D01*
X82740415Y-66626625D01*
X82633396Y-66786790D01*
X82559680Y-66964757D01*
X82522100Y-67153685D01*
X82522100Y-67346315D01*
X82559680Y-67535243D01*
X82633396Y-67713210D01*
X82738001Y-67869762D01*
X82738000Y-75850664D01*
X82587990Y-75950897D01*
X82390897Y-76147990D01*
X82236043Y-76379746D01*
X82220000Y-76418477D01*
X82203957Y-76379746D01*
X82049103Y-76147990D01*
X81852010Y-75950897D01*
X81620254Y-75796043D01*
X81362740Y-75689377D01*
X81089365Y-75635000D01*
X80810635Y-75635000D01*
X80537260Y-75689377D01*
X80279746Y-75796043D01*
X80047990Y-75950897D01*
X79850897Y-76147990D01*
X79696043Y-76379746D01*
X79680000Y-76418477D01*
X79663957Y-76379746D01*
X79509103Y-76147990D01*
X79312010Y-75950897D01*
X79080254Y-75796043D01*
X78822740Y-75689377D01*
X78549365Y-75635000D01*
X78270635Y-75635000D01*
X77997260Y-75689377D01*
X77739746Y-75796043D01*
X77507990Y-75950897D01*
X77310897Y-76147990D01*
X77156043Y-76379746D01*
X77140000Y-76418477D01*
X77123957Y-76379746D01*
X76969103Y-76147990D01*
X76772010Y-75950897D01*
X76540254Y-75796043D01*
X76282740Y-75689377D01*
X76009365Y-75635000D01*
X75730635Y-75635000D01*
X75457260Y-75689377D01*
X75199746Y-75796043D01*
X74967990Y-75950897D01*
X74770897Y-76147990D01*
X74616043Y-76379746D01*
X74600000Y-76418477D01*
X74583957Y-76379746D01*
X74429103Y-76147990D01*
X74232010Y-75950897D01*
X74066600Y-75840374D01*
X74066600Y-71366175D01*
X74070163Y-71329999D01*
X74066600Y-71293823D01*
X74066600Y-71293814D01*
X74055942Y-71185601D01*
X74013822Y-71046751D01*
X73945424Y-70918787D01*
X73853374Y-70806625D01*
X73825268Y-70783559D01*
X69316600Y-66274891D01*
X69316600Y-66236763D01*
X69330974Y-66189378D01*
X69342000Y-66077426D01*
X69342000Y-60294230D01*
X69356648Y-60279583D01*
X69381684Y-60533777D01*
X69467375Y-60816264D01*
X69606531Y-61076606D01*
X69793803Y-61304797D01*
X70021994Y-61492069D01*
X70055540Y-61510000D01*
X70021994Y-61527931D01*
X69793803Y-61715203D01*
X69606531Y-61943394D01*
X69467375Y-62203736D01*
X69381684Y-62486223D01*
X69352749Y-62780000D01*
X69381684Y-63073777D01*
X69467375Y-63356264D01*
X69606531Y-63616606D01*
X69793803Y-63844797D01*
X70021994Y-64032069D01*
X70055540Y-64050000D01*
X70021994Y-64067931D01*
X69793803Y-64255203D01*
X69606531Y-64483394D01*
X69467375Y-64743736D01*
X69381684Y-65026223D01*
X69352749Y-65320000D01*
X69381684Y-65613777D01*
X69467375Y-65896264D01*
X69606531Y-66156606D01*
X69793803Y-66384797D01*
X70021994Y-66572069D01*
X70282336Y-66711225D01*
X70564823Y-66796916D01*
X70784981Y-66818600D01*
X71455019Y-66818600D01*
X71675177Y-66796916D01*
X71957664Y-66711225D01*
X72218006Y-66572069D01*
X72446197Y-66384797D01*
X72633469Y-66156606D01*
X72673347Y-66082000D01*
X86254370Y-66082000D01*
X87592948Y-67420579D01*
X87629680Y-67605243D01*
X87703396Y-67783210D01*
X87808000Y-67939761D01*
X87808001Y-75857345D01*
X87667990Y-75950897D01*
X87470897Y-76147990D01*
X87316043Y-76379746D01*
X87301223Y-76415525D01*
X87250349Y-76320345D01*
X87008421Y-76251184D01*
X86209605Y-77050000D01*
X87008421Y-77848816D01*
X87250349Y-77779655D01*
X87298425Y-77677721D01*
X87316043Y-77720254D01*
X87470897Y-77952010D01*
X87667990Y-78149103D01*
X87899746Y-78303957D01*
X88157260Y-78410623D01*
X88430635Y-78465000D01*
X88709365Y-78465000D01*
X88982740Y-78410623D01*
X89240254Y-78303957D01*
X89472010Y-78149103D01*
X89669103Y-77952010D01*
X89823957Y-77720254D01*
X89840000Y-77681523D01*
X89856043Y-77720254D01*
X90010897Y-77952010D01*
X90207990Y-78149103D01*
X90439746Y-78303957D01*
X90697260Y-78410623D01*
X90970635Y-78465000D01*
X91249365Y-78465000D01*
X91522740Y-78410623D01*
X91780254Y-78303957D01*
X92012010Y-78149103D01*
X92209103Y-77952010D01*
X92363957Y-77720254D01*
X92380000Y-77681523D01*
X92396043Y-77720254D01*
X92550897Y-77952010D01*
X92747990Y-78149103D01*
X92979746Y-78303957D01*
X93237260Y-78410623D01*
X93510635Y-78465000D01*
X93789365Y-78465000D01*
X94062740Y-78410623D01*
X94320254Y-78303957D01*
X94552010Y-78149103D01*
X94749103Y-77952010D01*
X94903957Y-77720254D01*
X94920000Y-77681523D01*
X94936043Y-77720254D01*
X95090897Y-77952010D01*
X95287990Y-78149103D01*
X95519746Y-78303957D01*
X95777260Y-78410623D01*
X96050635Y-78465000D01*
X96329365Y-78465000D01*
X96602740Y-78410623D01*
X96860254Y-78303957D01*
X97092010Y-78149103D01*
X97289103Y-77952010D01*
X97443957Y-77720254D01*
X97460000Y-77681523D01*
X97476043Y-77720254D01*
X97630897Y-77952010D01*
X97827990Y-78149103D01*
X98059746Y-78303957D01*
X98317260Y-78410623D01*
X98590635Y-78465000D01*
X98869365Y-78465000D01*
X98946421Y-78449673D01*
X108242014Y-87745267D01*
X108265082Y-87773375D01*
X108377244Y-87865424D01*
X108505208Y-87933822D01*
X108644058Y-87975942D01*
X108752271Y-87986600D01*
X108752280Y-87986600D01*
X108788456Y-87990163D01*
X108824632Y-87986600D01*
X122194891Y-87986600D01*
X123963400Y-89755110D01*
X123963401Y-97913805D01*
X123963400Y-97913815D01*
X123963400Y-98035399D01*
X123925537Y-98051082D01*
X123657748Y-98230013D01*
X123430013Y-98457748D01*
X123251082Y-98725537D01*
X123127832Y-99023088D01*
X123065000Y-99338967D01*
X123065000Y-99661033D01*
X123127832Y-99976912D01*
X123251082Y-100274463D01*
X123430013Y-100542252D01*
X123657748Y-100769987D01*
X123925537Y-100948918D01*
X124223088Y-101072168D01*
X124538967Y-101135000D01*
X124861033Y-101135000D01*
X125176912Y-101072168D01*
X125474463Y-100948918D01*
X125742252Y-100769987D01*
X125876826Y-100635413D01*
X126244192Y-100635413D01*
X126339956Y-100899814D01*
X126629571Y-101040704D01*
X126941108Y-101122384D01*
X127262595Y-101141718D01*
X127581675Y-101097961D01*
X127886088Y-100992795D01*
X128060044Y-100899814D01*
X128155808Y-100635413D01*
X127200000Y-99679605D01*
X126244192Y-100635413D01*
X125876826Y-100635413D01*
X125969987Y-100542252D01*
X126034925Y-100445065D01*
X126064587Y-100455808D01*
X127020395Y-99500000D01*
X126064587Y-98544192D01*
X126034925Y-98554935D01*
X125969987Y-98457748D01*
X125742252Y-98230013D01*
X125474463Y-98051082D01*
X125436600Y-98035399D01*
X125436600Y-96228309D01*
X127075115Y-97866824D01*
X126818325Y-97902039D01*
X126513912Y-98007205D01*
X126339956Y-98100186D01*
X126244192Y-98364587D01*
X127200000Y-99320395D01*
X127214143Y-99306253D01*
X127393748Y-99485858D01*
X127379605Y-99500000D01*
X128335413Y-100455808D01*
X128365075Y-100445065D01*
X128430013Y-100542252D01*
X128657748Y-100769987D01*
X128925537Y-100948918D01*
X129223088Y-101072168D01*
X129538967Y-101135000D01*
X129861033Y-101135000D01*
X130176912Y-101072168D01*
X130474463Y-100948918D01*
X130742252Y-100769987D01*
X130969987Y-100542252D01*
X131148918Y-100274463D01*
X131272168Y-99976912D01*
X131335000Y-99661033D01*
X131335000Y-99541553D01*
X158519009Y-99541553D01*
X158561603Y-99840907D01*
X158661778Y-100126199D01*
X158741739Y-100275792D01*
X158995920Y-100359475D01*
X159880395Y-99475000D01*
X158995920Y-98590525D01*
X158741739Y-98674208D01*
X158610842Y-98946775D01*
X158535635Y-99239642D01*
X158519009Y-99541553D01*
X131335000Y-99541553D01*
X131335000Y-99338967D01*
X131272168Y-99023088D01*
X131148918Y-98725537D01*
X130969987Y-98457748D01*
X130742252Y-98230013D01*
X130474463Y-98051082D01*
X130176912Y-97927832D01*
X129861033Y-97865000D01*
X129538967Y-97865000D01*
X129223088Y-97927832D01*
X129220580Y-97928871D01*
X126236600Y-94944891D01*
X126236600Y-90200000D01*
X130861928Y-90200000D01*
X130861928Y-93800000D01*
X130874188Y-93924482D01*
X130910498Y-94044180D01*
X130969463Y-94154494D01*
X131048815Y-94251185D01*
X131145506Y-94330537D01*
X131255820Y-94389502D01*
X131375518Y-94425812D01*
X131500000Y-94438072D01*
X134300000Y-94438072D01*
X134424482Y-94425812D01*
X134544180Y-94389502D01*
X134654494Y-94330537D01*
X134751185Y-94251185D01*
X134830537Y-94154494D01*
X134889502Y-94044180D01*
X134925812Y-93924482D01*
X134938072Y-93800000D01*
X134938072Y-90200000D01*
X134925812Y-90075518D01*
X134889502Y-89955820D01*
X134830537Y-89845506D01*
X134751185Y-89748815D01*
X134654494Y-89669463D01*
X134544180Y-89610498D01*
X134424482Y-89574188D01*
X134300000Y-89561928D01*
X131500000Y-89561928D01*
X131375518Y-89574188D01*
X131255820Y-89610498D01*
X131145506Y-89669463D01*
X131048815Y-89748815D01*
X130969463Y-89845506D01*
X130910498Y-89955820D01*
X130874188Y-90075518D01*
X130861928Y-90200000D01*
X126236600Y-90200000D01*
X126236600Y-89211424D01*
X126240163Y-89175248D01*
X126236600Y-89139072D01*
X126236600Y-89139063D01*
X126225942Y-89030850D01*
X126183822Y-88892000D01*
X126115424Y-88764036D01*
X126023374Y-88651874D01*
X125995268Y-88628808D01*
X123501873Y-86135413D01*
X123744192Y-86135413D01*
X123839956Y-86399814D01*
X124129571Y-86540704D01*
X124441108Y-86622384D01*
X124762595Y-86641718D01*
X125081675Y-86597961D01*
X125386088Y-86492795D01*
X125560044Y-86399814D01*
X125655808Y-86135413D01*
X124700000Y-85179605D01*
X123744192Y-86135413D01*
X123501873Y-86135413D01*
X123371197Y-86004737D01*
X123348126Y-85976625D01*
X123235964Y-85884576D01*
X123108000Y-85816178D01*
X122969150Y-85774058D01*
X122860937Y-85763400D01*
X122860934Y-85763400D01*
X122824751Y-85759836D01*
X122788568Y-85763400D01*
X110055110Y-85763400D01*
X102306411Y-78014702D01*
X102369103Y-77952010D01*
X102523957Y-77720254D01*
X102540000Y-77681523D01*
X102556043Y-77720254D01*
X102710897Y-77952010D01*
X102907990Y-78149103D01*
X103139746Y-78303957D01*
X103397260Y-78410623D01*
X103670635Y-78465000D01*
X103949365Y-78465000D01*
X104222740Y-78410623D01*
X104480254Y-78303957D01*
X104712010Y-78149103D01*
X104909103Y-77952010D01*
X105063957Y-77720254D01*
X105080000Y-77681523D01*
X105096043Y-77720254D01*
X105250897Y-77952010D01*
X105447990Y-78149103D01*
X105679746Y-78303957D01*
X105937260Y-78410623D01*
X106210635Y-78465000D01*
X106489365Y-78465000D01*
X106762740Y-78410623D01*
X107020254Y-78303957D01*
X107252010Y-78149103D01*
X107449103Y-77952010D01*
X107603957Y-77720254D01*
X107620000Y-77681523D01*
X107636043Y-77720254D01*
X107790897Y-77952010D01*
X107987990Y-78149103D01*
X108153400Y-78259626D01*
X108153400Y-79603816D01*
X108149836Y-79640000D01*
X108153400Y-79676183D01*
X108153400Y-79676185D01*
X108164058Y-79784398D01*
X108206178Y-79923248D01*
X108227537Y-79963208D01*
X108274576Y-80051212D01*
X108326628Y-80114637D01*
X108366625Y-80163374D01*
X108394732Y-80186441D01*
X111953557Y-83745267D01*
X111976625Y-83773375D01*
X112004731Y-83796441D01*
X112004732Y-83796442D01*
X112024914Y-83813005D01*
X112088787Y-83865424D01*
X112216751Y-83933822D01*
X112295624Y-83957748D01*
X112355601Y-83975942D01*
X112500000Y-83990164D01*
X112536186Y-83986600D01*
X123506992Y-83986600D01*
X123564585Y-84044193D01*
X123300186Y-84139956D01*
X123159296Y-84429571D01*
X123077616Y-84741108D01*
X123058282Y-85062595D01*
X123102039Y-85381675D01*
X123207205Y-85686088D01*
X123300186Y-85860044D01*
X123564587Y-85955808D01*
X124520395Y-85000000D01*
X124506253Y-84985858D01*
X124685858Y-84806253D01*
X124700000Y-84820395D01*
X124714143Y-84806253D01*
X124893748Y-84985858D01*
X124879605Y-85000000D01*
X125835413Y-85955808D01*
X126099814Y-85860044D01*
X126240704Y-85570429D01*
X126322384Y-85258892D01*
X126341718Y-84937405D01*
X126297961Y-84618325D01*
X126192795Y-84313912D01*
X126099814Y-84139956D01*
X125835415Y-84044193D01*
X125893008Y-83986600D01*
X127644891Y-83986600D01*
X128143515Y-84485225D01*
X128127832Y-84523088D01*
X128065000Y-84838967D01*
X128065000Y-85161033D01*
X128127832Y-85476912D01*
X128251082Y-85774463D01*
X128430013Y-86042252D01*
X128657748Y-86269987D01*
X128925537Y-86448918D01*
X129223088Y-86572168D01*
X129538967Y-86635000D01*
X129861033Y-86635000D01*
X130176912Y-86572168D01*
X130474463Y-86448918D01*
X130742252Y-86269987D01*
X130969987Y-86042252D01*
X131148918Y-85774463D01*
X131272168Y-85476912D01*
X131335000Y-85161033D01*
X131335000Y-84838967D01*
X131272168Y-84523088D01*
X131148918Y-84225537D01*
X130969987Y-83957748D01*
X130742252Y-83730013D01*
X130474463Y-83551082D01*
X130176912Y-83427832D01*
X129861033Y-83365000D01*
X129538967Y-83365000D01*
X129223088Y-83427832D01*
X129185225Y-83443515D01*
X128496445Y-82754736D01*
X128473375Y-82726625D01*
X128361213Y-82634576D01*
X128233249Y-82566178D01*
X128094399Y-82524058D01*
X127986186Y-82513400D01*
X127986183Y-82513400D01*
X127950000Y-82509836D01*
X127913817Y-82513400D01*
X112805110Y-82513400D01*
X109626600Y-79334891D01*
X109626600Y-79241263D01*
X118623000Y-79241263D01*
X118623000Y-79758737D01*
X118723954Y-80266268D01*
X118921983Y-80744351D01*
X119209476Y-81174615D01*
X119575385Y-81540524D01*
X120005649Y-81828017D01*
X120483732Y-82026046D01*
X120991263Y-82127000D01*
X121508737Y-82127000D01*
X122016268Y-82026046D01*
X122494351Y-81828017D01*
X122924615Y-81540524D01*
X123290524Y-81174615D01*
X123578017Y-80744351D01*
X123776046Y-80266268D01*
X123877000Y-79758737D01*
X123877000Y-79241263D01*
X123829010Y-79000000D01*
X124398057Y-79000000D01*
X124425764Y-79281309D01*
X124507818Y-79551808D01*
X124641068Y-79801101D01*
X124820392Y-80019608D01*
X125038899Y-80198932D01*
X125288192Y-80332182D01*
X125558691Y-80414236D01*
X125769508Y-80435000D01*
X125910492Y-80435000D01*
X126121309Y-80414236D01*
X126391808Y-80332182D01*
X126641101Y-80198932D01*
X126859608Y-80019608D01*
X127038932Y-79801101D01*
X127172182Y-79551808D01*
X127254236Y-79281309D01*
X127281943Y-79000000D01*
X127268023Y-78858665D01*
X134565000Y-78858665D01*
X134565000Y-79141335D01*
X134620147Y-79418574D01*
X134728320Y-79679727D01*
X134885363Y-79914759D01*
X135085241Y-80114637D01*
X135238001Y-80216708D01*
X135238001Y-82726626D01*
X135238000Y-86212574D01*
X135238000Y-86212575D01*
X135238001Y-96212567D01*
X135234314Y-96250000D01*
X135249027Y-96399378D01*
X135292599Y-96543015D01*
X135363355Y-96675392D01*
X135434721Y-96762351D01*
X135458579Y-96791422D01*
X135487649Y-96815279D01*
X136434716Y-97762346D01*
X136458578Y-97791422D01*
X136532219Y-97851857D01*
X136574607Y-97886645D01*
X136625439Y-97913815D01*
X136706985Y-97957402D01*
X136850622Y-98000974D01*
X136962574Y-98012000D01*
X136962577Y-98012000D01*
X137000000Y-98015686D01*
X137037423Y-98012000D01*
X159593285Y-98012000D01*
X159408801Y-98076778D01*
X159259208Y-98156739D01*
X159175525Y-98410920D01*
X160060000Y-99295395D01*
X160944475Y-98410920D01*
X160860792Y-98156739D01*
X160588225Y-98025842D01*
X160534322Y-98012000D01*
X162080846Y-98012000D01*
X161832905Y-98114701D01*
X161581495Y-98282688D01*
X161367688Y-98496495D01*
X161272262Y-98639310D01*
X161124080Y-98590525D01*
X160239605Y-99475000D01*
X161124080Y-100359475D01*
X161272262Y-100310690D01*
X161367688Y-100453505D01*
X161581495Y-100667312D01*
X161832905Y-100835299D01*
X162112257Y-100951011D01*
X162408816Y-101010000D01*
X162711184Y-101010000D01*
X163007743Y-100951011D01*
X163287095Y-100835299D01*
X163538505Y-100667312D01*
X163752312Y-100453505D01*
X163810000Y-100367169D01*
X163867688Y-100453505D01*
X164081495Y-100667312D01*
X164332905Y-100835299D01*
X164612257Y-100951011D01*
X164908816Y-101010000D01*
X165211184Y-101010000D01*
X165507743Y-100951011D01*
X165787095Y-100835299D01*
X166038505Y-100667312D01*
X166252312Y-100453505D01*
X166420299Y-100202095D01*
X166536011Y-99922743D01*
X166595000Y-99626184D01*
X166595000Y-99323816D01*
X166536011Y-99027257D01*
X166420299Y-98747905D01*
X166252312Y-98496495D01*
X166038505Y-98282688D01*
X165819179Y-98136139D01*
X165810974Y-98052830D01*
X165767402Y-97909193D01*
X165696645Y-97776816D01*
X165601422Y-97660786D01*
X165572353Y-97636930D01*
X164673076Y-96737654D01*
X164649214Y-96708578D01*
X164533184Y-96613355D01*
X164400807Y-96542598D01*
X164257170Y-96499026D01*
X164145218Y-96488000D01*
X164145215Y-96488000D01*
X164107792Y-96484314D01*
X164070369Y-96488000D01*
X137315630Y-96488000D01*
X136762000Y-95934370D01*
X136762000Y-92215475D01*
X155525000Y-92215475D01*
X155525000Y-92734525D01*
X155626261Y-93243601D01*
X155824893Y-93723141D01*
X156113262Y-94154715D01*
X156480285Y-94521738D01*
X156911859Y-94810107D01*
X157391399Y-95008739D01*
X157900475Y-95110000D01*
X158419525Y-95110000D01*
X158928601Y-95008739D01*
X159408141Y-94810107D01*
X159839715Y-94521738D01*
X160206738Y-94154715D01*
X160495107Y-93723141D01*
X160693739Y-93243601D01*
X160795000Y-92734525D01*
X160795000Y-92215475D01*
X164325000Y-92215475D01*
X164325000Y-92734525D01*
X164426261Y-93243601D01*
X164624893Y-93723141D01*
X164913262Y-94154715D01*
X165280285Y-94521738D01*
X165711859Y-94810107D01*
X166191399Y-95008739D01*
X166700475Y-95110000D01*
X167219525Y-95110000D01*
X167728601Y-95008739D01*
X168208141Y-94810107D01*
X168639715Y-94521738D01*
X169006738Y-94154715D01*
X169295107Y-93723141D01*
X169493739Y-93243601D01*
X169595000Y-92734525D01*
X169595000Y-92215475D01*
X169493739Y-91706399D01*
X169295107Y-91226859D01*
X169006738Y-90795285D01*
X168639715Y-90428262D01*
X168208141Y-90139893D01*
X167728601Y-89941261D01*
X167219525Y-89840000D01*
X166700475Y-89840000D01*
X166191399Y-89941261D01*
X165711859Y-90139893D01*
X165280285Y-90428262D01*
X164913262Y-90795285D01*
X164624893Y-91226859D01*
X164426261Y-91706399D01*
X164325000Y-92215475D01*
X160795000Y-92215475D01*
X160693739Y-91706399D01*
X160495107Y-91226859D01*
X160206738Y-90795285D01*
X159839715Y-90428262D01*
X159408141Y-90139893D01*
X158928601Y-89941261D01*
X158419525Y-89840000D01*
X157900475Y-89840000D01*
X157391399Y-89941261D01*
X156911859Y-90139893D01*
X156480285Y-90428262D01*
X156113262Y-90795285D01*
X155824893Y-91226859D01*
X155626261Y-91706399D01*
X155525000Y-92215475D01*
X136762000Y-92215475D01*
X136762000Y-80216707D01*
X136914759Y-80114637D01*
X137114637Y-79914759D01*
X137271680Y-79679727D01*
X137379853Y-79418574D01*
X137435000Y-79141335D01*
X137435000Y-78858665D01*
X137379853Y-78581426D01*
X137271680Y-78320273D01*
X137114637Y-78085241D01*
X136914759Y-77885363D01*
X136679727Y-77728320D01*
X136418574Y-77620147D01*
X136141335Y-77565000D01*
X135858665Y-77565000D01*
X135581426Y-77620147D01*
X135320273Y-77728320D01*
X135085241Y-77885363D01*
X134885363Y-78085241D01*
X134728320Y-78320273D01*
X134620147Y-78581426D01*
X134565000Y-78858665D01*
X127268023Y-78858665D01*
X127254236Y-78718691D01*
X127172182Y-78448192D01*
X127038932Y-78198899D01*
X126859608Y-77980392D01*
X126641101Y-77801068D01*
X126391808Y-77667818D01*
X126121309Y-77585764D01*
X125910492Y-77565000D01*
X125769508Y-77565000D01*
X125558691Y-77585764D01*
X125288192Y-77667818D01*
X125038899Y-77801068D01*
X124820392Y-77980392D01*
X124641068Y-78198899D01*
X124507818Y-78448192D01*
X124425764Y-78718691D01*
X124398057Y-79000000D01*
X123829010Y-79000000D01*
X123776046Y-78733732D01*
X123578017Y-78255649D01*
X123290524Y-77825385D01*
X122924615Y-77459476D01*
X122494351Y-77171983D01*
X122016268Y-76973954D01*
X121508737Y-76873000D01*
X120991263Y-76873000D01*
X120483732Y-76973954D01*
X120005649Y-77171983D01*
X119575385Y-77459476D01*
X119209476Y-77825385D01*
X118921983Y-78255649D01*
X118723954Y-78733732D01*
X118623000Y-79241263D01*
X109626600Y-79241263D01*
X109626600Y-78259626D01*
X109792010Y-78149103D01*
X109989103Y-77952010D01*
X110143957Y-77720254D01*
X110160000Y-77681523D01*
X110176043Y-77720254D01*
X110330897Y-77952010D01*
X110527990Y-78149103D01*
X110759746Y-78303957D01*
X111017260Y-78410623D01*
X111290635Y-78465000D01*
X111569365Y-78465000D01*
X111842740Y-78410623D01*
X112100254Y-78303957D01*
X112332010Y-78149103D01*
X112529103Y-77952010D01*
X112683957Y-77720254D01*
X112700000Y-77681523D01*
X112716043Y-77720254D01*
X112870897Y-77952010D01*
X113067990Y-78149103D01*
X113299746Y-78303957D01*
X113557260Y-78410623D01*
X113830635Y-78465000D01*
X114109365Y-78465000D01*
X114382740Y-78410623D01*
X114640254Y-78303957D01*
X114872010Y-78149103D01*
X115069103Y-77952010D01*
X115223957Y-77720254D01*
X115240000Y-77681523D01*
X115256043Y-77720254D01*
X115410897Y-77952010D01*
X115607990Y-78149103D01*
X115839746Y-78303957D01*
X116097260Y-78410623D01*
X116370635Y-78465000D01*
X116649365Y-78465000D01*
X116922740Y-78410623D01*
X117180254Y-78303957D01*
X117412010Y-78149103D01*
X117609103Y-77952010D01*
X117763957Y-77720254D01*
X117870623Y-77462740D01*
X117925000Y-77189365D01*
X117925000Y-76910635D01*
X117870623Y-76637260D01*
X117763957Y-76379746D01*
X117609103Y-76147990D01*
X117412010Y-75950897D01*
X117180254Y-75796043D01*
X116922740Y-75689377D01*
X116649365Y-75635000D01*
X116370635Y-75635000D01*
X116097260Y-75689377D01*
X115839746Y-75796043D01*
X115607990Y-75950897D01*
X115410897Y-76147990D01*
X115256043Y-76379746D01*
X115240000Y-76418477D01*
X115223957Y-76379746D01*
X115069103Y-76147990D01*
X114872010Y-75950897D01*
X114640254Y-75796043D01*
X114382740Y-75689377D01*
X114109365Y-75635000D01*
X113830635Y-75635000D01*
X113557260Y-75689377D01*
X113299746Y-75796043D01*
X113067990Y-75950897D01*
X112870897Y-76147990D01*
X112716043Y-76379746D01*
X112700000Y-76418477D01*
X112683957Y-76379746D01*
X112529103Y-76147990D01*
X112332010Y-75950897D01*
X112100254Y-75796043D01*
X111842740Y-75689377D01*
X111569365Y-75635000D01*
X111290635Y-75635000D01*
X111017260Y-75689377D01*
X110759746Y-75796043D01*
X110527990Y-75950897D01*
X110330897Y-76147990D01*
X110176043Y-76379746D01*
X110160000Y-76418477D01*
X110143957Y-76379746D01*
X109989103Y-76147990D01*
X109792010Y-75950897D01*
X109560254Y-75796043D01*
X109302740Y-75689377D01*
X109029365Y-75635000D01*
X108750635Y-75635000D01*
X108477260Y-75689377D01*
X108219746Y-75796043D01*
X107987990Y-75950897D01*
X107790897Y-76147990D01*
X107636043Y-76379746D01*
X107620000Y-76418477D01*
X107603957Y-76379746D01*
X107449103Y-76147990D01*
X107252010Y-75950897D01*
X107020254Y-75796043D01*
X106762740Y-75689377D01*
X106489365Y-75635000D01*
X106210635Y-75635000D01*
X105937260Y-75689377D01*
X105679746Y-75796043D01*
X105447990Y-75950897D01*
X105250897Y-76147990D01*
X105096043Y-76379746D01*
X105080000Y-76418477D01*
X105063957Y-76379746D01*
X104909103Y-76147990D01*
X104712010Y-75950897D01*
X104480254Y-75796043D01*
X104222740Y-75689377D01*
X103949365Y-75635000D01*
X103670635Y-75635000D01*
X103397260Y-75689377D01*
X103139746Y-75796043D01*
X102907990Y-75950897D01*
X102710897Y-76147990D01*
X102556043Y-76379746D01*
X102540000Y-76418477D01*
X102523957Y-76379746D01*
X102369103Y-76147990D01*
X102172010Y-75950897D01*
X101940254Y-75796043D01*
X101682740Y-75689377D01*
X101409365Y-75635000D01*
X101130635Y-75635000D01*
X100857260Y-75689377D01*
X100599746Y-75796043D01*
X100367990Y-75950897D01*
X100170897Y-76147990D01*
X100016043Y-76379746D01*
X100000000Y-76418477D01*
X99983957Y-76379746D01*
X99829103Y-76147990D01*
X99632010Y-75950897D01*
X99400254Y-75796043D01*
X99142740Y-75689377D01*
X98869365Y-75635000D01*
X98590635Y-75635000D01*
X98317260Y-75689377D01*
X98059746Y-75796043D01*
X97827990Y-75950897D01*
X97630897Y-76147990D01*
X97476043Y-76379746D01*
X97460000Y-76418477D01*
X97443957Y-76379746D01*
X97289103Y-76147990D01*
X97092010Y-75950897D01*
X96952000Y-75857346D01*
X96952000Y-55125630D01*
X101091031Y-50986600D01*
X132881163Y-50986600D01*
X132889188Y-51068082D01*
X132925498Y-51187780D01*
X132984463Y-51298094D01*
X133063815Y-51394785D01*
X133160506Y-51474137D01*
X133270820Y-51533102D01*
X133321865Y-51548586D01*
X133313803Y-51555203D01*
X133126531Y-51783394D01*
X132987375Y-52043736D01*
X132901684Y-52326223D01*
X132872749Y-52620000D01*
X132901684Y-52913777D01*
X132987375Y-53196264D01*
X133126531Y-53456606D01*
X133313803Y-53684797D01*
X133541994Y-53872069D01*
X133575540Y-53890000D01*
X133541994Y-53907931D01*
X133313803Y-54095203D01*
X133126531Y-54323394D01*
X132987375Y-54583736D01*
X132901684Y-54866223D01*
X132872749Y-55160000D01*
X132901684Y-55453777D01*
X132987375Y-55736264D01*
X133126531Y-55996606D01*
X133313803Y-56224797D01*
X133541994Y-56412069D01*
X133575540Y-56430000D01*
X133541994Y-56447931D01*
X133313803Y-56635203D01*
X133126531Y-56863394D01*
X132987375Y-57123736D01*
X132901684Y-57406223D01*
X132872749Y-57700000D01*
X132901684Y-57993777D01*
X132987375Y-58276264D01*
X133126531Y-58536606D01*
X133313803Y-58764797D01*
X133541994Y-58952069D01*
X133575540Y-58970000D01*
X133541994Y-58987931D01*
X133313803Y-59175203D01*
X133126531Y-59403394D01*
X132987375Y-59663736D01*
X132901684Y-59946223D01*
X132872749Y-60240000D01*
X132901684Y-60533777D01*
X132987375Y-60816264D01*
X133126531Y-61076606D01*
X133313803Y-61304797D01*
X133541994Y-61492069D01*
X133802336Y-61631225D01*
X134084823Y-61716916D01*
X134304981Y-61738600D01*
X134975019Y-61738600D01*
X135195177Y-61716916D01*
X135477664Y-61631225D01*
X135738006Y-61492069D01*
X135966197Y-61304797D01*
X136153469Y-61076606D01*
X136292625Y-60816264D01*
X136378316Y-60533777D01*
X136407251Y-60240000D01*
X136378316Y-59946223D01*
X136292625Y-59663736D01*
X136153469Y-59403394D01*
X135966197Y-59175203D01*
X135738006Y-58987931D01*
X135704460Y-58970000D01*
X135738006Y-58952069D01*
X135966197Y-58764797D01*
X136153469Y-58536606D01*
X136292625Y-58276264D01*
X136378316Y-57993777D01*
X136407251Y-57700000D01*
X136378316Y-57406223D01*
X136292625Y-57123736D01*
X136153469Y-56863394D01*
X135966197Y-56635203D01*
X135738006Y-56447931D01*
X135704460Y-56430000D01*
X135738006Y-56412069D01*
X135966197Y-56224797D01*
X136153469Y-55996606D01*
X136292625Y-55736264D01*
X136378316Y-55453777D01*
X136407251Y-55160000D01*
X136378316Y-54866223D01*
X136292625Y-54583736D01*
X136153469Y-54323394D01*
X135966197Y-54095203D01*
X135738006Y-53907931D01*
X135704460Y-53890000D01*
X135738006Y-53872069D01*
X135966197Y-53684797D01*
X136153469Y-53456606D01*
X136292625Y-53196264D01*
X136378316Y-52913777D01*
X136407251Y-52620000D01*
X136378316Y-52326223D01*
X136292625Y-52043736D01*
X136153469Y-51783394D01*
X135966197Y-51555203D01*
X135958135Y-51548586D01*
X136009180Y-51533102D01*
X136119494Y-51474137D01*
X136216185Y-51394785D01*
X136295537Y-51298094D01*
X136354502Y-51187780D01*
X136390812Y-51068082D01*
X136403072Y-50943600D01*
X136403072Y-49216400D01*
X136390812Y-49091918D01*
X136354502Y-48972220D01*
X136295537Y-48861906D01*
X136216185Y-48765215D01*
X136119494Y-48685863D01*
X136009180Y-48626898D01*
X135889482Y-48590588D01*
X135765000Y-48578328D01*
X133515000Y-48578328D01*
X133390518Y-48590588D01*
X133270820Y-48626898D01*
X133160506Y-48685863D01*
X133063815Y-48765215D01*
X132984463Y-48861906D01*
X132925498Y-48972220D01*
X132889188Y-49091918D01*
X132876928Y-49216400D01*
X132876928Y-49483992D01*
X132841095Y-49513400D01*
X100946759Y-49513400D01*
X100899378Y-49499027D01*
X100750000Y-49484314D01*
X100600621Y-49499027D01*
X100456984Y-49542599D01*
X100324607Y-49613355D01*
X100237648Y-49684721D01*
X95677654Y-54244716D01*
X95648578Y-54268578D01*
X95603592Y-54323394D01*
X95553355Y-54384608D01*
X95532621Y-54423400D01*
X95482598Y-54516986D01*
X95439026Y-54660623D01*
X95430343Y-54748787D01*
X95424314Y-54810000D01*
X95428000Y-54847423D01*
X95428001Y-75857345D01*
X95287990Y-75950897D01*
X95090897Y-76147990D01*
X94936043Y-76379746D01*
X94920000Y-76418477D01*
X94903957Y-76379746D01*
X94749103Y-76147990D01*
X94552010Y-75950897D01*
X94414525Y-75859033D01*
X94425974Y-75821292D01*
X94437000Y-75709340D01*
X94437000Y-54712422D01*
X94440686Y-54674999D01*
X94437000Y-54637574D01*
X94425974Y-54525622D01*
X94382402Y-54381985D01*
X94311645Y-54249608D01*
X94216422Y-54133578D01*
X94187352Y-54109721D01*
X89645284Y-49567654D01*
X89621422Y-49538578D01*
X89505392Y-49443355D01*
X89373015Y-49372598D01*
X89229378Y-49329026D01*
X89117426Y-49318000D01*
X89117423Y-49318000D01*
X89080000Y-49314314D01*
X89042577Y-49318000D01*
X72673347Y-49318000D01*
X72633469Y-49243394D01*
X72446197Y-49015203D01*
X72218006Y-48827931D01*
X72178647Y-48806893D01*
X72319574Y-48715483D01*
X72530873Y-48509868D01*
X72697998Y-48266981D01*
X72814527Y-47996157D01*
X72836358Y-47899026D01*
X72715217Y-47667000D01*
X71247000Y-47667000D01*
X71247000Y-47687000D01*
X70993000Y-47687000D01*
X70993000Y-47667000D01*
X69524783Y-47667000D01*
X69403642Y-47899026D01*
X69425473Y-47996157D01*
X69542002Y-48266981D01*
X69709127Y-48509868D01*
X69920426Y-48715483D01*
X70061353Y-48806893D01*
X70021994Y-48827931D01*
X69793803Y-49015203D01*
X69606531Y-49243394D01*
X69467375Y-49503736D01*
X69381684Y-49786223D01*
X69352749Y-50080000D01*
X69381684Y-50373777D01*
X69467375Y-50656264D01*
X69606531Y-50916606D01*
X69793803Y-51144797D01*
X70021994Y-51332069D01*
X70055540Y-51350000D01*
X70021994Y-51367931D01*
X69793803Y-51555203D01*
X69606531Y-51783394D01*
X69580230Y-51832600D01*
X65528665Y-51832600D01*
X65490000Y-51828792D01*
X65451335Y-51832600D01*
X65451327Y-51832600D01*
X65335643Y-51843994D01*
X65187217Y-51889018D01*
X65050428Y-51962134D01*
X64930531Y-52060531D01*
X64905876Y-52090573D01*
X64512000Y-52484450D01*
X64512000Y-52285630D01*
X65357352Y-51440279D01*
X65386422Y-51416422D01*
X65413772Y-51383096D01*
X65481645Y-51300393D01*
X65552401Y-51168016D01*
X65552402Y-51168015D01*
X65595974Y-51024378D01*
X65607000Y-50912426D01*
X65607000Y-50912423D01*
X65610686Y-50875000D01*
X65607000Y-50837577D01*
X65607000Y-44136400D01*
X69356928Y-44136400D01*
X69356928Y-45863600D01*
X69369188Y-45988082D01*
X69405498Y-46107780D01*
X69464463Y-46218094D01*
X69543815Y-46314785D01*
X69640506Y-46394137D01*
X69750820Y-46453102D01*
X69810720Y-46471272D01*
X69709127Y-46570132D01*
X69542002Y-46813019D01*
X69425473Y-47083843D01*
X69403642Y-47180974D01*
X69524783Y-47413000D01*
X70993000Y-47413000D01*
X70993000Y-47393000D01*
X71247000Y-47393000D01*
X71247000Y-47413000D01*
X72715217Y-47413000D01*
X72836358Y-47180974D01*
X72814527Y-47083843D01*
X72697998Y-46813019D01*
X72530873Y-46570132D01*
X72429280Y-46471272D01*
X72489180Y-46453102D01*
X72599494Y-46394137D01*
X72696185Y-46314785D01*
X72775537Y-46218094D01*
X72834502Y-46107780D01*
X72870812Y-45988082D01*
X72883072Y-45863600D01*
X72883072Y-44136400D01*
X72870812Y-44011918D01*
X72834502Y-43892220D01*
X72775537Y-43781906D01*
X72696185Y-43685215D01*
X72599494Y-43605863D01*
X72489180Y-43546898D01*
X72369482Y-43510588D01*
X72245000Y-43498328D01*
X69995000Y-43498328D01*
X69870518Y-43510588D01*
X69750820Y-43546898D01*
X69640506Y-43605863D01*
X69543815Y-43685215D01*
X69464463Y-43781906D01*
X69405498Y-43892220D01*
X69369188Y-44011918D01*
X69356928Y-44136400D01*
X65607000Y-44136400D01*
X65607000Y-43570630D01*
X66169631Y-43008000D01*
X139595176Y-43008000D01*
X139537210Y-43199087D01*
X139515000Y-43424592D01*
X139515000Y-43775407D01*
X139537210Y-44000912D01*
X139624983Y-44290260D01*
X139767519Y-44556926D01*
X139959339Y-44790661D01*
X140193073Y-44982481D01*
X140288000Y-45033221D01*
X140288001Y-80964460D01*
X140262598Y-81011986D01*
X140219026Y-81155623D01*
X140211535Y-81231686D01*
X140204314Y-81305000D01*
X140208000Y-81342424D01*
X140208000Y-81403995D01*
X140079465Y-81489880D01*
X139884880Y-81684465D01*
X139731995Y-81913273D01*
X139710000Y-81966373D01*
X139688005Y-81913273D01*
X139535120Y-81684465D01*
X139340535Y-81489880D01*
X139111727Y-81336995D01*
X138857490Y-81231686D01*
X138587592Y-81178000D01*
X138312408Y-81178000D01*
X138042510Y-81231686D01*
X137788273Y-81336995D01*
X137559465Y-81489880D01*
X137364880Y-81684465D01*
X137211995Y-81913273D01*
X137106686Y-82167510D01*
X137053000Y-82437408D01*
X137053000Y-82712592D01*
X137106686Y-82982490D01*
X137211995Y-83236727D01*
X137364880Y-83465535D01*
X137559465Y-83660120D01*
X137788273Y-83813005D01*
X138042510Y-83918314D01*
X138312408Y-83972000D01*
X138587592Y-83972000D01*
X138739210Y-83941841D01*
X138976922Y-84179553D01*
X139000779Y-84208623D01*
X139116809Y-84303846D01*
X139249186Y-84374603D01*
X139392823Y-84418175D01*
X139504775Y-84429201D01*
X139504777Y-84429201D01*
X139542200Y-84432887D01*
X139579623Y-84429201D01*
X141456834Y-84429201D01*
X141494257Y-84432887D01*
X141531680Y-84429201D01*
X141531683Y-84429201D01*
X141643635Y-84418175D01*
X141787272Y-84374603D01*
X141919649Y-84303846D01*
X142035679Y-84208623D01*
X142059540Y-84179548D01*
X142574553Y-83664535D01*
X142603623Y-83640679D01*
X142698846Y-83524649D01*
X142769603Y-83392272D01*
X142813175Y-83248635D01*
X142824201Y-83136683D01*
X142824201Y-83136681D01*
X142827887Y-83099258D01*
X142824201Y-83061835D01*
X142824201Y-82437408D01*
X149733000Y-82437408D01*
X149733000Y-82712592D01*
X149786686Y-82982490D01*
X149891995Y-83236727D01*
X150044880Y-83465535D01*
X150239465Y-83660120D01*
X150468273Y-83813005D01*
X150722510Y-83918314D01*
X150992408Y-83972000D01*
X151267592Y-83972000D01*
X151537490Y-83918314D01*
X151791727Y-83813005D01*
X152020535Y-83660120D01*
X152215120Y-83465535D01*
X152368005Y-83236727D01*
X152400000Y-83159485D01*
X152431995Y-83236727D01*
X152584880Y-83465535D01*
X152779465Y-83660120D01*
X153008273Y-83813005D01*
X153262510Y-83918314D01*
X153532408Y-83972000D01*
X153807592Y-83972000D01*
X154077490Y-83918314D01*
X154331727Y-83813005D01*
X154560535Y-83660120D01*
X154755120Y-83465535D01*
X154908005Y-83236727D01*
X155013314Y-82982490D01*
X155067000Y-82712592D01*
X155067000Y-82437408D01*
X155013314Y-82167510D01*
X154908005Y-81913273D01*
X154755120Y-81684465D01*
X154560535Y-81489880D01*
X154331727Y-81336995D01*
X154077490Y-81231686D01*
X153807592Y-81178000D01*
X153532408Y-81178000D01*
X153262510Y-81231686D01*
X153008273Y-81336995D01*
X152779465Y-81489880D01*
X152584880Y-81684465D01*
X152431995Y-81913273D01*
X152400000Y-81990515D01*
X152368005Y-81913273D01*
X152215120Y-81684465D01*
X152020535Y-81489880D01*
X151791727Y-81336995D01*
X151537490Y-81231686D01*
X151267592Y-81178000D01*
X150992408Y-81178000D01*
X150722510Y-81231686D01*
X150468273Y-81336995D01*
X150239465Y-81489880D01*
X150044880Y-81684465D01*
X149891995Y-81913273D01*
X149786686Y-82167510D01*
X149733000Y-82437408D01*
X142824201Y-82437408D01*
X142824201Y-67480799D01*
X145013881Y-65291120D01*
X145127748Y-65404987D01*
X145395537Y-65583918D01*
X145693088Y-65707168D01*
X146008967Y-65770000D01*
X146331033Y-65770000D01*
X146646912Y-65707168D01*
X146944463Y-65583918D01*
X147212252Y-65404987D01*
X147439987Y-65177252D01*
X147618918Y-64909463D01*
X147742168Y-64611912D01*
X147805000Y-64296033D01*
X147805000Y-63973967D01*
X147742168Y-63658088D01*
X147618918Y-63360537D01*
X147439987Y-63092748D01*
X147212252Y-62865013D01*
X146944463Y-62686082D01*
X146646912Y-62562832D01*
X146331033Y-62500000D01*
X146008967Y-62500000D01*
X145693088Y-62562832D01*
X145395537Y-62686082D01*
X145127748Y-62865013D01*
X144900013Y-63092748D01*
X144721082Y-63360537D01*
X144662460Y-63502063D01*
X144550948Y-63593578D01*
X144527091Y-63622648D01*
X141812000Y-66337740D01*
X141812000Y-57164630D01*
X149294721Y-64647352D01*
X149318578Y-64676422D01*
X149434608Y-64771645D01*
X149566985Y-64842402D01*
X149710622Y-64885974D01*
X149822574Y-64897000D01*
X149822576Y-64897000D01*
X149859999Y-64900686D01*
X149897422Y-64897000D01*
X159715920Y-64897000D01*
X159721082Y-64909463D01*
X159900013Y-65177252D01*
X160127748Y-65404987D01*
X160395537Y-65583918D01*
X160693088Y-65707168D01*
X161008967Y-65770000D01*
X161331033Y-65770000D01*
X161646912Y-65707168D01*
X161944463Y-65583918D01*
X162212252Y-65404987D01*
X162439987Y-65177252D01*
X162618918Y-64909463D01*
X162742168Y-64611912D01*
X162805000Y-64296033D01*
X162805000Y-63973967D01*
X162742168Y-63658088D01*
X162618918Y-63360537D01*
X162439987Y-63092748D01*
X162212252Y-62865013D01*
X161944463Y-62686082D01*
X161646912Y-62562832D01*
X161331033Y-62500000D01*
X161008967Y-62500000D01*
X160693088Y-62562832D01*
X160395537Y-62686082D01*
X160127748Y-62865013D01*
X159900013Y-63092748D01*
X159721082Y-63360537D01*
X159715920Y-63373000D01*
X150175631Y-63373000D01*
X143002000Y-56199370D01*
X143002000Y-45325630D01*
X143146086Y-45181545D01*
X143249087Y-45212790D01*
X143550000Y-45242427D01*
X143850912Y-45212790D01*
X144140260Y-45125017D01*
X144406926Y-44982481D01*
X144640661Y-44790661D01*
X144832481Y-44556927D01*
X144975017Y-44290261D01*
X145062790Y-44000913D01*
X145085000Y-43775408D01*
X145085000Y-43424593D01*
X145062790Y-43199088D01*
X145004824Y-43008000D01*
X147095176Y-43008000D01*
X147037210Y-43199087D01*
X147015000Y-43424592D01*
X147015000Y-43775407D01*
X147037210Y-44000912D01*
X147124983Y-44290260D01*
X147267519Y-44556926D01*
X147459339Y-44790661D01*
X147693073Y-44982481D01*
X147959739Y-45125017D01*
X148249087Y-45212790D01*
X148550000Y-45242427D01*
X148850912Y-45212790D01*
X149140260Y-45125017D01*
X149406926Y-44982481D01*
X149640661Y-44790661D01*
X149800000Y-44596505D01*
X149959339Y-44790661D01*
X150193073Y-44982481D01*
X150459739Y-45125017D01*
X150749087Y-45212790D01*
X151050000Y-45242427D01*
X151350912Y-45212790D01*
X151640260Y-45125017D01*
X151906926Y-44982481D01*
X152140661Y-44790661D01*
X152332481Y-44556927D01*
X152475017Y-44290261D01*
X152562790Y-44000913D01*
X152585000Y-43775408D01*
X152585000Y-43424593D01*
X152562790Y-43199088D01*
X152504824Y-43008000D01*
X153566370Y-43008000D01*
X154570721Y-44012352D01*
X154594578Y-44041422D01*
X154623648Y-44065279D01*
X154710607Y-44136645D01*
X154762298Y-44164274D01*
X154842985Y-44207402D01*
X154880176Y-44218684D01*
X155007519Y-44456926D01*
X155199339Y-44690661D01*
X155433073Y-44882481D01*
X155699739Y-45025017D01*
X155989087Y-45112790D01*
X156290000Y-45142427D01*
X156590912Y-45112790D01*
X156880260Y-45025017D01*
X157146926Y-44882481D01*
X157380661Y-44690661D01*
X157540000Y-44496505D01*
X157699339Y-44690661D01*
X157933073Y-44882481D01*
X158199739Y-45025017D01*
X158489087Y-45112790D01*
X158790000Y-45142427D01*
X159090912Y-45112790D01*
X159380260Y-45025017D01*
X159646926Y-44882481D01*
X159880661Y-44690661D01*
X160072481Y-44456927D01*
X160215017Y-44190261D01*
X160302790Y-43900913D01*
X160325000Y-43675408D01*
X160325000Y-43324593D01*
X160302790Y-43099088D01*
X160215017Y-42809740D01*
X160072481Y-42543073D01*
X159880661Y-42309339D01*
X159646927Y-42117519D01*
X159380261Y-41974983D01*
X159090913Y-41887210D01*
X158790000Y-41857573D01*
X158489088Y-41887210D01*
X158199740Y-41974983D01*
X157933074Y-42117519D01*
X157699339Y-42309339D01*
X157540000Y-42503495D01*
X157380661Y-42309339D01*
X157146927Y-42117519D01*
X156880261Y-41974983D01*
X156590913Y-41887210D01*
X156290000Y-41857573D01*
X155989088Y-41887210D01*
X155699740Y-41974983D01*
X155433074Y-42117519D01*
X155199339Y-42309339D01*
X155119840Y-42406209D01*
X154447284Y-41733654D01*
X154423422Y-41704578D01*
X154307392Y-41609355D01*
X154175015Y-41538598D01*
X154031378Y-41495026D01*
X153919426Y-41484000D01*
X153919423Y-41484000D01*
X153882000Y-41480314D01*
X153844577Y-41484000D01*
X66423631Y-41484000D01*
X66505631Y-41402000D01*
X163214370Y-41402000D01*
X163680707Y-41868337D01*
X163489088Y-41887210D01*
X163199740Y-41974983D01*
X162933074Y-42117519D01*
X162699339Y-42309339D01*
X162507519Y-42543073D01*
X162364983Y-42809739D01*
X162277210Y-43099087D01*
X162255000Y-43324592D01*
X162255000Y-43675407D01*
X162277210Y-43900912D01*
X162364983Y-44190260D01*
X162507519Y-44456926D01*
X162699339Y-44690661D01*
X162933073Y-44882481D01*
X163199739Y-45025017D01*
X163489087Y-45112790D01*
X163790000Y-45142427D01*
X164090912Y-45112790D01*
X164380260Y-45025017D01*
X164646926Y-44882481D01*
X164880661Y-44690661D01*
X165040000Y-44496505D01*
X165199339Y-44690661D01*
X165433073Y-44882481D01*
X165699739Y-45025017D01*
X165989087Y-45112790D01*
X166290000Y-45142427D01*
X166590912Y-45112790D01*
X166880260Y-45025017D01*
X167146926Y-44882481D01*
X167380661Y-44690661D01*
X167572481Y-44456927D01*
X167715017Y-44190261D01*
X167802790Y-43900913D01*
X167825000Y-43675408D01*
X167825000Y-43324593D01*
X167802790Y-43099088D01*
X167715017Y-42809740D01*
X167572481Y-42543073D01*
X167380661Y-42309339D01*
X167146927Y-42117519D01*
X166880261Y-41974983D01*
X166590913Y-41887210D01*
X166290000Y-41857573D01*
X165989088Y-41887210D01*
X165886086Y-41918455D01*
X164095284Y-40127654D01*
X164071422Y-40098578D01*
X163955392Y-40003355D01*
X163823015Y-39932598D01*
X163679378Y-39889026D01*
X163567426Y-39878000D01*
X163567423Y-39878000D01*
X163530000Y-39874314D01*
X163492577Y-39878000D01*
X66227423Y-39878000D01*
X66190000Y-39874314D01*
X66152577Y-39878000D01*
X66152574Y-39878000D01*
X66040622Y-39889026D01*
X65896985Y-39932598D01*
X65835364Y-39965535D01*
X65764607Y-40003355D01*
X65698075Y-40057957D01*
X65648578Y-40098578D01*
X65624721Y-40127648D01*
X63807303Y-41945067D01*
X63444221Y-41581985D01*
X63455639Y-41554419D01*
X63530000Y-41180581D01*
X63530000Y-40799419D01*
X63455639Y-40425581D01*
X63309775Y-40073434D01*
X63098013Y-39756509D01*
X62828491Y-39486987D01*
X62511566Y-39275225D01*
X62159419Y-39129361D01*
X61785581Y-39055000D01*
X61404419Y-39055000D01*
X61030581Y-39129361D01*
X60678434Y-39275225D01*
X60361509Y-39486987D01*
X60091987Y-39756509D01*
X59880225Y-40073434D01*
X59734361Y-40425581D01*
X59660000Y-40799419D01*
X59660000Y-41180581D01*
X59734361Y-41554419D01*
X59880225Y-41906566D01*
X60091987Y-42223491D01*
X60361509Y-42493013D01*
X60678434Y-42704775D01*
X61030581Y-42850639D01*
X61404419Y-42925000D01*
X61785581Y-42925000D01*
X62159419Y-42850639D01*
X62186985Y-42839221D01*
X62463201Y-43115437D01*
X62463201Y-44981568D01*
X62420302Y-44840147D01*
X62416589Y-44833200D01*
X62337753Y-44685709D01*
X62262659Y-44594207D01*
X62254495Y-44584259D01*
X62254494Y-44584258D01*
X62226659Y-44550341D01*
X62192742Y-44522506D01*
X59248316Y-41578081D01*
X59245303Y-41568149D01*
X59162753Y-41413709D01*
X59051659Y-41278341D01*
X58916291Y-41167247D01*
X58761851Y-41084697D01*
X58594274Y-41033864D01*
X58463667Y-41021000D01*
X55288660Y-41021000D01*
X55245000Y-41016700D01*
X55201340Y-41021000D01*
X53073236Y-41021000D01*
X52959000Y-40906765D01*
X52959000Y-39365629D01*
X53201422Y-39564579D01*
X53502832Y-39725686D01*
X53829881Y-39824895D01*
X54170000Y-39858394D01*
X54510118Y-39824895D01*
X54837167Y-39725686D01*
X55138577Y-39564579D01*
X55402766Y-39347766D01*
X55619579Y-39083578D01*
X55780686Y-38782168D01*
X55879895Y-38455119D01*
X55905000Y-38200225D01*
X55905000Y-37924592D01*
X144515000Y-37924592D01*
X144515000Y-38275407D01*
X144537210Y-38500912D01*
X144624983Y-38790260D01*
X144767519Y-39056926D01*
X144959339Y-39290661D01*
X145193073Y-39482481D01*
X145459739Y-39625017D01*
X145749087Y-39712790D01*
X146050000Y-39742427D01*
X146350912Y-39712790D01*
X146640260Y-39625017D01*
X146906926Y-39482481D01*
X147140661Y-39290661D01*
X147332481Y-39056927D01*
X147475017Y-38790261D01*
X147562790Y-38500913D01*
X147576016Y-38366620D01*
X159779224Y-38366620D01*
X159860268Y-38656235D01*
X159996256Y-38924474D01*
X160181962Y-39161029D01*
X160410249Y-39356809D01*
X160672344Y-39504291D01*
X160925260Y-39591036D01*
X161163000Y-39470378D01*
X161163000Y-38127000D01*
X161417000Y-38127000D01*
X161417000Y-39470378D01*
X161654740Y-39591036D01*
X161907656Y-39504291D01*
X162169751Y-39356809D01*
X162398038Y-39161029D01*
X162583744Y-38924474D01*
X162719732Y-38656235D01*
X162800776Y-38366620D01*
X162665134Y-38127000D01*
X161417000Y-38127000D01*
X161163000Y-38127000D01*
X159914866Y-38127000D01*
X159779224Y-38366620D01*
X147576016Y-38366620D01*
X147585000Y-38275408D01*
X147585000Y-37924593D01*
X147562790Y-37699088D01*
X147542858Y-37633380D01*
X159779224Y-37633380D01*
X159914866Y-37873000D01*
X161163000Y-37873000D01*
X161163000Y-36529622D01*
X161417000Y-36529622D01*
X161417000Y-37873000D01*
X162665134Y-37873000D01*
X162800776Y-37633380D01*
X162719732Y-37343765D01*
X162583744Y-37075526D01*
X162398038Y-36838971D01*
X162169751Y-36643191D01*
X161907656Y-36495709D01*
X161654740Y-36408964D01*
X161417000Y-36529622D01*
X161163000Y-36529622D01*
X160925260Y-36408964D01*
X160672344Y-36495709D01*
X160410249Y-36643191D01*
X160181962Y-36838971D01*
X159996256Y-37075526D01*
X159860268Y-37343765D01*
X159779224Y-37633380D01*
X147542858Y-37633380D01*
X147475017Y-37409740D01*
X147332481Y-37143073D01*
X147140661Y-36909339D01*
X146906927Y-36717519D01*
X146640261Y-36574983D01*
X146350913Y-36487210D01*
X146050000Y-36457573D01*
X145749088Y-36487210D01*
X145459740Y-36574983D01*
X145193074Y-36717519D01*
X144959339Y-36909339D01*
X144767519Y-37143073D01*
X144624983Y-37409739D01*
X144537210Y-37699087D01*
X144515000Y-37924592D01*
X55905000Y-37924592D01*
X55905000Y-36729775D01*
X55879895Y-36474881D01*
X55780686Y-36147832D01*
X55619579Y-35846422D01*
X55466587Y-35660000D01*
X171585664Y-35660000D01*
X171281971Y-35785794D01*
X170687922Y-36182725D01*
X170182725Y-36687922D01*
X169785794Y-37281971D01*
X169512383Y-37942043D01*
X169373000Y-38642772D01*
X169373000Y-39357228D01*
X169512383Y-40057957D01*
X169785794Y-40718029D01*
X170182725Y-41312078D01*
X170687922Y-41817275D01*
X171281971Y-42214206D01*
X171942043Y-42487617D01*
X172642772Y-42627000D01*
X173357228Y-42627000D01*
X174057957Y-42487617D01*
X174718029Y-42214206D01*
X175312078Y-41817275D01*
X175817275Y-41312078D01*
X176214206Y-40718029D01*
X176340000Y-40414336D01*
X176340001Y-98585667D01*
X176214206Y-98281971D01*
X175817275Y-97687922D01*
X175312078Y-97182725D01*
X174718029Y-96785794D01*
X174057957Y-96512383D01*
X173357228Y-96373000D01*
X172642772Y-96373000D01*
X171942043Y-96512383D01*
X171281971Y-96785794D01*
X170687922Y-97182725D01*
X170182725Y-97687922D01*
X169785794Y-98281971D01*
X169512383Y-98942043D01*
X169373000Y-99642772D01*
X169373000Y-100357228D01*
X169512383Y-101057957D01*
X169785794Y-101718029D01*
X170182725Y-102312078D01*
X170687922Y-102817275D01*
X171281971Y-103214206D01*
X171585664Y-103340000D01*
X117617128Y-103340000D01*
X117763957Y-103120254D01*
X117870623Y-102862740D01*
X117925000Y-102589365D01*
X117925000Y-102310635D01*
X117870623Y-102037260D01*
X117763957Y-101779746D01*
X117609103Y-101547990D01*
X117498521Y-101437408D01*
X137053000Y-101437408D01*
X137053000Y-101712592D01*
X137106686Y-101982490D01*
X137211995Y-102236727D01*
X137364880Y-102465535D01*
X137559465Y-102660120D01*
X137788273Y-102813005D01*
X138042510Y-102918314D01*
X138312408Y-102972000D01*
X138587592Y-102972000D01*
X138857490Y-102918314D01*
X139111727Y-102813005D01*
X139340535Y-102660120D01*
X139460090Y-102540565D01*
X140184040Y-102540565D01*
X140251020Y-102780656D01*
X140500048Y-102897756D01*
X140767135Y-102964023D01*
X141042017Y-102976910D01*
X141314133Y-102935922D01*
X141573023Y-102842636D01*
X141688980Y-102780656D01*
X141755960Y-102540565D01*
X140970000Y-101754605D01*
X140184040Y-102540565D01*
X139460090Y-102540565D01*
X139535120Y-102465535D01*
X139688005Y-102236727D01*
X139707974Y-102188518D01*
X139764344Y-102293980D01*
X140004435Y-102360960D01*
X140790395Y-101575000D01*
X141149605Y-101575000D01*
X141935565Y-102360960D01*
X142175656Y-102293980D01*
X142239485Y-102158240D01*
X142271995Y-102236727D01*
X142424880Y-102465535D01*
X142619465Y-102660120D01*
X142848273Y-102813005D01*
X143102510Y-102918314D01*
X143372408Y-102972000D01*
X143647592Y-102972000D01*
X143917490Y-102918314D01*
X144171727Y-102813005D01*
X144400535Y-102660120D01*
X144595120Y-102465535D01*
X144748005Y-102236727D01*
X144853314Y-101982490D01*
X144907000Y-101712592D01*
X144907000Y-101437408D01*
X149733000Y-101437408D01*
X149733000Y-101712592D01*
X149786686Y-101982490D01*
X149891995Y-102236727D01*
X150044880Y-102465535D01*
X150239465Y-102660120D01*
X150468273Y-102813005D01*
X150722510Y-102918314D01*
X150992408Y-102972000D01*
X151267592Y-102972000D01*
X151537490Y-102918314D01*
X151791727Y-102813005D01*
X152020535Y-102660120D01*
X152140090Y-102540565D01*
X152884040Y-102540565D01*
X152951020Y-102780656D01*
X153200048Y-102897756D01*
X153467135Y-102964023D01*
X153742017Y-102976910D01*
X154014133Y-102935922D01*
X154273023Y-102842636D01*
X154388980Y-102780656D01*
X154455960Y-102540565D01*
X153670000Y-101754605D01*
X152884040Y-102540565D01*
X152140090Y-102540565D01*
X152215120Y-102465535D01*
X152368005Y-102236727D01*
X152397692Y-102165057D01*
X152402364Y-102178023D01*
X152464344Y-102293980D01*
X152704435Y-102360960D01*
X153490395Y-101575000D01*
X153849605Y-101575000D01*
X154635565Y-102360960D01*
X154875656Y-102293980D01*
X154992756Y-102044952D01*
X155059023Y-101777865D01*
X155071910Y-101502983D01*
X155030922Y-101230867D01*
X154937636Y-100971977D01*
X154875656Y-100856020D01*
X154635565Y-100789040D01*
X153849605Y-101575000D01*
X153490395Y-101575000D01*
X152704435Y-100789040D01*
X152464344Y-100856020D01*
X152400515Y-100991760D01*
X152368005Y-100913273D01*
X152215120Y-100684465D01*
X152140090Y-100609435D01*
X152884040Y-100609435D01*
X153670000Y-101395395D01*
X154455960Y-100609435D01*
X154436333Y-100539080D01*
X159175525Y-100539080D01*
X159259208Y-100793261D01*
X159531775Y-100924158D01*
X159824642Y-100999365D01*
X160126553Y-101015991D01*
X160425907Y-100973397D01*
X160711199Y-100873222D01*
X160860792Y-100793261D01*
X160944475Y-100539080D01*
X160060000Y-99654605D01*
X159175525Y-100539080D01*
X154436333Y-100539080D01*
X154388980Y-100369344D01*
X154139952Y-100252244D01*
X153872865Y-100185977D01*
X153597983Y-100173090D01*
X153325867Y-100214078D01*
X153066977Y-100307364D01*
X152951020Y-100369344D01*
X152884040Y-100609435D01*
X152140090Y-100609435D01*
X152020535Y-100489880D01*
X151791727Y-100336995D01*
X151537490Y-100231686D01*
X151267592Y-100178000D01*
X150992408Y-100178000D01*
X150722510Y-100231686D01*
X150468273Y-100336995D01*
X150239465Y-100489880D01*
X150044880Y-100684465D01*
X149891995Y-100913273D01*
X149786686Y-101167510D01*
X149733000Y-101437408D01*
X144907000Y-101437408D01*
X144853314Y-101167510D01*
X144748005Y-100913273D01*
X144595120Y-100684465D01*
X144400535Y-100489880D01*
X144171727Y-100336995D01*
X143917490Y-100231686D01*
X143647592Y-100178000D01*
X143372408Y-100178000D01*
X143102510Y-100231686D01*
X142848273Y-100336995D01*
X142619465Y-100489880D01*
X142424880Y-100684465D01*
X142271995Y-100913273D01*
X142242308Y-100984943D01*
X142237636Y-100971977D01*
X142175656Y-100856020D01*
X141935565Y-100789040D01*
X141149605Y-101575000D01*
X140790395Y-101575000D01*
X140004435Y-100789040D01*
X139764344Y-100856020D01*
X139711149Y-100969147D01*
X139688005Y-100913273D01*
X139535120Y-100684465D01*
X139460090Y-100609435D01*
X140184040Y-100609435D01*
X140970000Y-101395395D01*
X141755960Y-100609435D01*
X141688980Y-100369344D01*
X141439952Y-100252244D01*
X141172865Y-100185977D01*
X140897983Y-100173090D01*
X140625867Y-100214078D01*
X140366977Y-100307364D01*
X140251020Y-100369344D01*
X140184040Y-100609435D01*
X139460090Y-100609435D01*
X139340535Y-100489880D01*
X139111727Y-100336995D01*
X138857490Y-100231686D01*
X138587592Y-100178000D01*
X138312408Y-100178000D01*
X138042510Y-100231686D01*
X137788273Y-100336995D01*
X137559465Y-100489880D01*
X137364880Y-100684465D01*
X137211995Y-100913273D01*
X137106686Y-101167510D01*
X137053000Y-101437408D01*
X117498521Y-101437408D01*
X117412010Y-101350897D01*
X117180254Y-101196043D01*
X117141523Y-101180000D01*
X117180254Y-101163957D01*
X117412010Y-101009103D01*
X117609103Y-100812010D01*
X117763957Y-100580254D01*
X117870623Y-100322740D01*
X117925000Y-100049365D01*
X117925000Y-99770635D01*
X117870623Y-99497260D01*
X117763957Y-99239746D01*
X117609103Y-99007990D01*
X117412010Y-98810897D01*
X117180254Y-98656043D01*
X116922740Y-98549377D01*
X116649365Y-98495000D01*
X116370635Y-98495000D01*
X116097260Y-98549377D01*
X115839746Y-98656043D01*
X115607990Y-98810897D01*
X115410897Y-99007990D01*
X115256043Y-99239746D01*
X115240000Y-99278477D01*
X115223957Y-99239746D01*
X115069103Y-99007990D01*
X114872010Y-98810897D01*
X114640254Y-98656043D01*
X114382740Y-98549377D01*
X114109365Y-98495000D01*
X113830635Y-98495000D01*
X113557260Y-98549377D01*
X113299746Y-98656043D01*
X113067990Y-98810897D01*
X112870897Y-99007990D01*
X112716043Y-99239746D01*
X112700000Y-99278477D01*
X112683957Y-99239746D01*
X112529103Y-99007990D01*
X112332010Y-98810897D01*
X112100254Y-98656043D01*
X111842740Y-98549377D01*
X111569365Y-98495000D01*
X111290635Y-98495000D01*
X111017260Y-98549377D01*
X110759746Y-98656043D01*
X110527990Y-98810897D01*
X110330897Y-99007990D01*
X110176043Y-99239746D01*
X110160000Y-99278477D01*
X110143957Y-99239746D01*
X109989103Y-99007990D01*
X109792010Y-98810897D01*
X109560254Y-98656043D01*
X109302740Y-98549377D01*
X109029365Y-98495000D01*
X108750635Y-98495000D01*
X108477260Y-98549377D01*
X108219746Y-98656043D01*
X107987990Y-98810897D01*
X107790897Y-99007990D01*
X107636043Y-99239746D01*
X107620000Y-99278477D01*
X107603957Y-99239746D01*
X107449103Y-99007990D01*
X107252010Y-98810897D01*
X107020254Y-98656043D01*
X106762740Y-98549377D01*
X106489365Y-98495000D01*
X106210635Y-98495000D01*
X105937260Y-98549377D01*
X105679746Y-98656043D01*
X105447990Y-98810897D01*
X105250897Y-99007990D01*
X105096043Y-99239746D01*
X105081223Y-99275525D01*
X105030349Y-99180345D01*
X104788421Y-99111184D01*
X103989605Y-99910000D01*
X104788421Y-100708816D01*
X105030349Y-100639655D01*
X105078425Y-100537721D01*
X105096043Y-100580254D01*
X105250897Y-100812010D01*
X105447990Y-101009103D01*
X105613400Y-101119626D01*
X105613401Y-101240374D01*
X105447990Y-101350897D01*
X105250897Y-101547990D01*
X105096043Y-101779746D01*
X105081223Y-101815525D01*
X105030349Y-101720345D01*
X104788421Y-101651184D01*
X103989605Y-102450000D01*
X104003748Y-102464143D01*
X103824143Y-102643748D01*
X103810000Y-102629605D01*
X103795858Y-102643748D01*
X103616253Y-102464143D01*
X103630395Y-102450000D01*
X102831579Y-101651184D01*
X102589651Y-101720345D01*
X102541575Y-101822279D01*
X102523957Y-101779746D01*
X102369103Y-101547990D01*
X102172010Y-101350897D01*
X102006600Y-101240374D01*
X102006600Y-101119626D01*
X102172010Y-101009103D01*
X102292692Y-100888421D01*
X103011184Y-100888421D01*
X103080345Y-101130349D01*
X103179041Y-101176898D01*
X103080345Y-101229651D01*
X103011184Y-101471579D01*
X103810000Y-102270395D01*
X104608816Y-101471579D01*
X104539655Y-101229651D01*
X104440959Y-101183102D01*
X104539655Y-101130349D01*
X104608816Y-100888421D01*
X103810000Y-100089605D01*
X103011184Y-100888421D01*
X102292692Y-100888421D01*
X102369103Y-100812010D01*
X102523957Y-100580254D01*
X102538777Y-100544475D01*
X102589651Y-100639655D01*
X102831579Y-100708816D01*
X103630395Y-99910000D01*
X102831579Y-99111184D01*
X102589651Y-99180345D01*
X102541575Y-99282279D01*
X102523957Y-99239746D01*
X102369103Y-99007990D01*
X102292692Y-98931579D01*
X103011184Y-98931579D01*
X103810000Y-99730395D01*
X104608816Y-98931579D01*
X104539655Y-98689651D01*
X104287557Y-98570752D01*
X104017106Y-98503319D01*
X103738697Y-98489943D01*
X103463028Y-98531140D01*
X103200692Y-98625325D01*
X103080345Y-98689651D01*
X103011184Y-98931579D01*
X102292692Y-98931579D01*
X102172010Y-98810897D01*
X101940254Y-98656043D01*
X101682740Y-98549377D01*
X101409365Y-98495000D01*
X101130635Y-98495000D01*
X100857260Y-98549377D01*
X100599746Y-98656043D01*
X100367990Y-98810897D01*
X100170897Y-99007990D01*
X100016043Y-99239746D01*
X100000000Y-99278477D01*
X99983957Y-99239746D01*
X99829103Y-99007990D01*
X99632010Y-98810897D01*
X99400254Y-98656043D01*
X99142740Y-98549377D01*
X98869365Y-98495000D01*
X98590635Y-98495000D01*
X98317260Y-98549377D01*
X98059746Y-98656043D01*
X97827990Y-98810897D01*
X97630897Y-99007990D01*
X97476043Y-99239746D01*
X97460000Y-99278477D01*
X97443957Y-99239746D01*
X97289103Y-99007990D01*
X97092010Y-98810897D01*
X96860254Y-98656043D01*
X96602740Y-98549377D01*
X96329365Y-98495000D01*
X96050635Y-98495000D01*
X95777260Y-98549377D01*
X95519746Y-98656043D01*
X95287990Y-98810897D01*
X95090897Y-99007990D01*
X94936043Y-99239746D01*
X94920000Y-99278477D01*
X94903957Y-99239746D01*
X94749103Y-99007990D01*
X94552010Y-98810897D01*
X94320254Y-98656043D01*
X94062740Y-98549377D01*
X93789365Y-98495000D01*
X93510635Y-98495000D01*
X93237260Y-98549377D01*
X92979746Y-98656043D01*
X92747990Y-98810897D01*
X92550897Y-99007990D01*
X92396043Y-99239746D01*
X92380000Y-99278477D01*
X92363957Y-99239746D01*
X92209103Y-99007990D01*
X92012010Y-98810897D01*
X91780254Y-98656043D01*
X91522740Y-98549377D01*
X91249365Y-98495000D01*
X90970635Y-98495000D01*
X90697260Y-98549377D01*
X90439746Y-98656043D01*
X90207990Y-98810897D01*
X90010897Y-99007990D01*
X89856043Y-99239746D01*
X89840000Y-99278477D01*
X89823957Y-99239746D01*
X89669103Y-99007990D01*
X89472010Y-98810897D01*
X89240254Y-98656043D01*
X88982740Y-98549377D01*
X88709365Y-98495000D01*
X88430635Y-98495000D01*
X88157260Y-98549377D01*
X87899746Y-98656043D01*
X87667990Y-98810897D01*
X87470897Y-99007990D01*
X87316043Y-99239746D01*
X87300000Y-99278477D01*
X87283957Y-99239746D01*
X87129103Y-99007990D01*
X86932010Y-98810897D01*
X86700254Y-98656043D01*
X86442740Y-98549377D01*
X86169365Y-98495000D01*
X85890635Y-98495000D01*
X85617260Y-98549377D01*
X85359746Y-98656043D01*
X85127990Y-98810897D01*
X84930897Y-99007990D01*
X84776043Y-99239746D01*
X84760000Y-99278477D01*
X84743957Y-99239746D01*
X84589103Y-99007990D01*
X84392010Y-98810897D01*
X84160254Y-98656043D01*
X83902740Y-98549377D01*
X83629365Y-98495000D01*
X83350635Y-98495000D01*
X83077260Y-98549377D01*
X82819746Y-98656043D01*
X82587990Y-98810897D01*
X82390897Y-99007990D01*
X82236043Y-99239746D01*
X82220000Y-99278477D01*
X82203957Y-99239746D01*
X82049103Y-99007990D01*
X81852010Y-98810897D01*
X81620254Y-98656043D01*
X81362740Y-98549377D01*
X81089365Y-98495000D01*
X80810635Y-98495000D01*
X80537260Y-98549377D01*
X80279746Y-98656043D01*
X80047990Y-98810897D01*
X79850897Y-99007990D01*
X79696043Y-99239746D01*
X79680000Y-99278477D01*
X79663957Y-99239746D01*
X79509103Y-99007990D01*
X79312010Y-98810897D01*
X79080254Y-98656043D01*
X78822740Y-98549377D01*
X78549365Y-98495000D01*
X78270635Y-98495000D01*
X77997260Y-98549377D01*
X77739746Y-98656043D01*
X77507990Y-98810897D01*
X77310897Y-99007990D01*
X77156043Y-99239746D01*
X77140000Y-99278477D01*
X77123957Y-99239746D01*
X76969103Y-99007990D01*
X76772010Y-98810897D01*
X76540254Y-98656043D01*
X76282740Y-98549377D01*
X76009365Y-98495000D01*
X75730635Y-98495000D01*
X75457260Y-98549377D01*
X75199746Y-98656043D01*
X74967990Y-98810897D01*
X74770897Y-99007990D01*
X74616043Y-99239746D01*
X74600000Y-99278477D01*
X74583957Y-99239746D01*
X74429103Y-99007990D01*
X74232010Y-98810897D01*
X74000254Y-98656043D01*
X73742740Y-98549377D01*
X73469365Y-98495000D01*
X73190635Y-98495000D01*
X72917260Y-98549377D01*
X72659746Y-98656043D01*
X72427990Y-98810897D01*
X72230897Y-99007990D01*
X72200531Y-99053436D01*
X72195812Y-99005518D01*
X72159502Y-98885820D01*
X72100537Y-98775506D01*
X72021185Y-98678815D01*
X71924494Y-98599463D01*
X71814180Y-98540498D01*
X71694482Y-98504188D01*
X71570000Y-98491928D01*
X70010000Y-98491928D01*
X69885518Y-98504188D01*
X69765820Y-98540498D01*
X69655506Y-98599463D01*
X69558815Y-98678815D01*
X69479463Y-98775506D01*
X69420498Y-98885820D01*
X69384188Y-99005518D01*
X69371928Y-99130000D01*
X69371928Y-100690000D01*
X69384188Y-100814482D01*
X69420498Y-100934180D01*
X69479463Y-101044494D01*
X69558815Y-101141185D01*
X69606111Y-101180000D01*
X69558815Y-101218815D01*
X69479463Y-101315506D01*
X69420498Y-101425820D01*
X69384188Y-101545518D01*
X69371928Y-101670000D01*
X69371928Y-103230000D01*
X69382762Y-103340000D01*
X41414336Y-103340000D01*
X41718029Y-103214206D01*
X42312078Y-102817275D01*
X42817275Y-102312078D01*
X43214206Y-101718029D01*
X43487617Y-101057957D01*
X43627000Y-100357228D01*
X43627000Y-99642772D01*
X43528983Y-99150000D01*
X44886928Y-99150000D01*
X44886928Y-100850000D01*
X44899188Y-100974482D01*
X44935498Y-101094180D01*
X44994463Y-101204494D01*
X45073815Y-101301185D01*
X45170506Y-101380537D01*
X45280820Y-101439502D01*
X45400518Y-101475812D01*
X45525000Y-101488072D01*
X47225000Y-101488072D01*
X47349482Y-101475812D01*
X47469180Y-101439502D01*
X47579494Y-101380537D01*
X47676185Y-101301185D01*
X47755537Y-101204494D01*
X47814502Y-101094180D01*
X47838966Y-101013534D01*
X47914731Y-101097588D01*
X48148080Y-101271641D01*
X48410901Y-101396825D01*
X48558110Y-101441476D01*
X48788000Y-101320155D01*
X48788000Y-100127000D01*
X49042000Y-100127000D01*
X49042000Y-101320155D01*
X49271890Y-101441476D01*
X49419099Y-101396825D01*
X49681920Y-101271641D01*
X49915269Y-101097588D01*
X50110178Y-100881355D01*
X50259157Y-100631252D01*
X50356481Y-100356891D01*
X50235814Y-100127000D01*
X49042000Y-100127000D01*
X48788000Y-100127000D01*
X48768000Y-100127000D01*
X48768000Y-99873000D01*
X48788000Y-99873000D01*
X48788000Y-99853000D01*
X49042000Y-99853000D01*
X49042000Y-99873000D01*
X50235814Y-99873000D01*
X50356481Y-99643109D01*
X50316713Y-99531000D01*
X53141928Y-99531000D01*
X53141928Y-100850000D01*
X53154188Y-100974482D01*
X53190498Y-101094180D01*
X53249463Y-101204494D01*
X53328815Y-101301185D01*
X53425506Y-101380537D01*
X53535820Y-101439502D01*
X53655518Y-101475812D01*
X53780000Y-101488072D01*
X55480000Y-101488072D01*
X55604482Y-101475812D01*
X55724180Y-101439502D01*
X55834494Y-101380537D01*
X55931185Y-101301185D01*
X56010537Y-101204494D01*
X56069502Y-101094180D01*
X56090393Y-101025313D01*
X56114866Y-101055134D01*
X56340986Y-101240706D01*
X56598966Y-101378599D01*
X56878889Y-101463513D01*
X57097050Y-101485000D01*
X57242950Y-101485000D01*
X57461111Y-101463513D01*
X57741034Y-101378599D01*
X57999014Y-101240706D01*
X58225134Y-101055134D01*
X58410706Y-100829014D01*
X58548599Y-100571034D01*
X58633513Y-100291111D01*
X58662185Y-100000000D01*
X58633513Y-99708889D01*
X58548599Y-99428966D01*
X58410706Y-99170986D01*
X58225134Y-98944866D01*
X57999014Y-98759294D01*
X57741034Y-98621401D01*
X57461111Y-98536487D01*
X57242950Y-98515000D01*
X57097050Y-98515000D01*
X56878889Y-98536487D01*
X56598966Y-98621401D01*
X56340986Y-98759294D01*
X56114866Y-98944866D01*
X56090393Y-98974687D01*
X56069502Y-98905820D01*
X56010537Y-98795506D01*
X55931185Y-98698815D01*
X55875840Y-98653395D01*
X56420495Y-98108741D01*
X56420500Y-98108735D01*
X57857741Y-96671494D01*
X57891659Y-96643659D01*
X58002753Y-96508291D01*
X58085303Y-96353851D01*
X58105452Y-96287426D01*
X58136136Y-96186276D01*
X58144572Y-96100622D01*
X58149000Y-96055667D01*
X58149000Y-96055661D01*
X58153300Y-96012001D01*
X58149000Y-95968341D01*
X58149000Y-95086146D01*
X58150535Y-95085120D01*
X58345120Y-94890535D01*
X58498005Y-94661727D01*
X58603314Y-94407490D01*
X58657000Y-94137592D01*
X58657000Y-93862408D01*
X58603314Y-93592510D01*
X58498005Y-93338273D01*
X58345120Y-93109465D01*
X58150535Y-92914880D01*
X57921727Y-92761995D01*
X57667490Y-92656686D01*
X57397592Y-92603000D01*
X57122408Y-92603000D01*
X56852510Y-92656686D01*
X56598273Y-92761995D01*
X56369465Y-92914880D01*
X56174880Y-93109465D01*
X56021995Y-93338273D01*
X55916686Y-93592510D01*
X55863000Y-93862408D01*
X55863000Y-94137592D01*
X55916686Y-94407490D01*
X56021995Y-94661727D01*
X56174880Y-94890535D01*
X56369465Y-95085120D01*
X56371001Y-95086146D01*
X56371001Y-95643763D01*
X55163264Y-96851501D01*
X55163259Y-96851505D01*
X54261765Y-97753000D01*
X54255660Y-97753000D01*
X54212000Y-97748700D01*
X54168340Y-97753000D01*
X47776659Y-97753000D01*
X47732999Y-97748700D01*
X47689339Y-97753000D01*
X47689333Y-97753000D01*
X47577073Y-97764057D01*
X47558725Y-97765864D01*
X47522621Y-97776816D01*
X47391149Y-97816697D01*
X47236709Y-97899247D01*
X47101341Y-98010341D01*
X47073506Y-98044259D01*
X46605836Y-98511928D01*
X45525000Y-98511928D01*
X45400518Y-98524188D01*
X45280820Y-98560498D01*
X45170506Y-98619463D01*
X45073815Y-98698815D01*
X44994463Y-98795506D01*
X44935498Y-98905820D01*
X44899188Y-99025518D01*
X44886928Y-99150000D01*
X43528983Y-99150000D01*
X43487617Y-98942043D01*
X43214206Y-98281971D01*
X42817275Y-97687922D01*
X42312078Y-97182725D01*
X41718029Y-96785794D01*
X41057957Y-96512383D01*
X40357228Y-96373000D01*
X39642772Y-96373000D01*
X38942043Y-96512383D01*
X38281971Y-96785794D01*
X37687922Y-97182725D01*
X37182725Y-97687922D01*
X36785794Y-98281971D01*
X36660000Y-98585664D01*
X36660000Y-94965565D01*
X38474040Y-94965565D01*
X38541020Y-95205656D01*
X38790048Y-95322756D01*
X39057135Y-95389023D01*
X39332017Y-95401910D01*
X39604133Y-95360922D01*
X39863023Y-95267636D01*
X39978980Y-95205656D01*
X40045960Y-94965565D01*
X39260000Y-94179605D01*
X38474040Y-94965565D01*
X36660000Y-94965565D01*
X36660000Y-94072017D01*
X37858090Y-94072017D01*
X37899078Y-94344133D01*
X37992364Y-94603023D01*
X38054344Y-94718980D01*
X38294435Y-94785960D01*
X39080395Y-94000000D01*
X39439605Y-94000000D01*
X40225565Y-94785960D01*
X40465656Y-94718980D01*
X40582756Y-94469952D01*
X40649023Y-94202865D01*
X40661910Y-93927983D01*
X40620922Y-93655867D01*
X40527636Y-93396977D01*
X40465656Y-93281020D01*
X40225565Y-93214040D01*
X39439605Y-94000000D01*
X39080395Y-94000000D01*
X38294435Y-93214040D01*
X38054344Y-93281020D01*
X37937244Y-93530048D01*
X37870977Y-93797135D01*
X37858090Y-94072017D01*
X36660000Y-94072017D01*
X36660000Y-93034435D01*
X38474040Y-93034435D01*
X39260000Y-93820395D01*
X40045960Y-93034435D01*
X39978980Y-92794344D01*
X39729952Y-92677244D01*
X39462865Y-92610977D01*
X39187983Y-92598090D01*
X38915867Y-92639078D01*
X38656977Y-92732364D01*
X38541020Y-92794344D01*
X38474040Y-93034435D01*
X36660000Y-93034435D01*
X36660000Y-40414336D01*
X36785794Y-40718029D01*
X37182725Y-41312078D01*
X37687922Y-41817275D01*
X38281971Y-42214206D01*
X38942043Y-42487617D01*
X39642772Y-42627000D01*
X40357228Y-42627000D01*
X41057957Y-42487617D01*
X41718029Y-42214206D01*
X42312078Y-41817275D01*
X42817275Y-41312078D01*
X43214206Y-40718029D01*
X43487617Y-40057957D01*
X43627000Y-39357228D01*
X43627000Y-38642772D01*
X43487617Y-37942043D01*
X43214206Y-37281971D01*
X42817275Y-36687922D01*
X42312078Y-36182725D01*
X41718029Y-35785794D01*
X41414336Y-35660000D01*
X44673414Y-35660000D01*
X44520422Y-35846422D01*
X44520422Y-35846422D01*
G37*
X44520422Y-35846422D02*
X44359315Y-36147832D01*
X44260105Y-36474881D01*
X44235000Y-36729775D01*
X44235000Y-38200224D01*
X44260105Y-38455118D01*
X44359314Y-38782167D01*
X44520421Y-39083577D01*
X44737234Y-39347766D01*
X45001422Y-39564579D01*
X45302832Y-39725686D01*
X45629881Y-39824895D01*
X45970000Y-39858394D01*
X46310118Y-39824895D01*
X46637167Y-39725686D01*
X46938577Y-39564579D01*
X47202766Y-39347766D01*
X47360139Y-39156006D01*
X47537419Y-39250764D01*
X47798493Y-39329960D01*
X48070000Y-39356701D01*
X48341506Y-39329960D01*
X48602580Y-39250764D01*
X48843187Y-39122157D01*
X49054080Y-38949081D01*
X49070000Y-38929683D01*
X49085919Y-38949080D01*
X49296812Y-39122157D01*
X49537419Y-39250764D01*
X49798493Y-39329960D01*
X50070000Y-39356701D01*
X50341506Y-39329960D01*
X50602580Y-39250764D01*
X50835885Y-39126060D01*
X50868815Y-39166185D01*
X50965506Y-39245537D01*
X51075820Y-39304502D01*
X51181000Y-39336408D01*
X51181001Y-41231330D01*
X51176700Y-41275000D01*
X51193864Y-41449274D01*
X51244698Y-41616852D01*
X51327248Y-41771291D01*
X51409131Y-41871065D01*
X51438342Y-41906659D01*
X51472259Y-41934494D01*
X52045505Y-42507741D01*
X52073341Y-42541659D01*
X52107258Y-42569494D01*
X52107259Y-42569495D01*
X52111441Y-42572927D01*
X52208709Y-42652753D01*
X52363149Y-42735303D01*
X52455626Y-42763355D01*
X52530725Y-42786136D01*
X52547325Y-42787771D01*
X52661333Y-42799000D01*
X52661340Y-42799000D01*
X52705000Y-42803300D01*
X52748660Y-42799000D01*
X53098764Y-42799000D01*
X51286765Y-44611000D01*
X40984231Y-44611000D01*
X40975812Y-44525518D01*
X40939502Y-44405820D01*
X40880537Y-44295506D01*
X40801185Y-44198815D01*
X40704494Y-44119463D01*
X40594180Y-44060498D01*
X40474482Y-44024188D01*
X40350000Y-44011928D01*
X38650000Y-44011928D01*
X38525518Y-44024188D01*
X38405820Y-44060498D01*
X38295506Y-44119463D01*
X38198815Y-44198815D01*
X38119463Y-44295506D01*
X38060498Y-44405820D01*
X38024188Y-44525518D01*
X38011928Y-44650000D01*
X38011928Y-46350000D01*
X38024188Y-46474482D01*
X38060498Y-46594180D01*
X38119463Y-46704494D01*
X38198815Y-46801185D01*
X38295506Y-46880537D01*
X38405820Y-46939502D01*
X38474687Y-46960393D01*
X38444866Y-46984866D01*
X38259294Y-47210986D01*
X38121401Y-47468966D01*
X38036487Y-47748889D01*
X38007815Y-48040000D01*
X38036487Y-48331111D01*
X38121401Y-48611034D01*
X38259294Y-48869014D01*
X38444866Y-49095134D01*
X38670986Y-49280706D01*
X38928966Y-49418599D01*
X39208889Y-49503513D01*
X39427050Y-49525000D01*
X39572950Y-49525000D01*
X39791111Y-49503513D01*
X40071034Y-49418599D01*
X40329014Y-49280706D01*
X40555134Y-49095134D01*
X40691477Y-48929000D01*
X51206340Y-48929000D01*
X51250000Y-48933300D01*
X51293660Y-48929000D01*
X51293667Y-48929000D01*
X51424274Y-48916136D01*
X51591851Y-48865303D01*
X51746291Y-48782753D01*
X51881659Y-48671659D01*
X51909499Y-48637736D01*
X55364653Y-45182583D01*
X55391987Y-45223491D01*
X55661509Y-45493013D01*
X55978434Y-45704775D01*
X56330581Y-45850639D01*
X56704419Y-45925000D01*
X57085581Y-45925000D01*
X57459419Y-45850639D01*
X57811566Y-45704775D01*
X58128491Y-45493013D01*
X58398013Y-45223491D01*
X58609775Y-44906566D01*
X58755639Y-44554419D01*
X58830000Y-44180581D01*
X58830000Y-43799419D01*
X58798917Y-43643152D01*
X60215520Y-45059756D01*
X60170518Y-45064188D01*
X60050820Y-45100498D01*
X59940506Y-45159463D01*
X59843815Y-45238815D01*
X59764463Y-45335506D01*
X59705498Y-45445820D01*
X59669188Y-45565518D01*
X59656928Y-45690000D01*
X59656928Y-48290000D01*
X59669188Y-48414482D01*
X59705498Y-48534180D01*
X59764463Y-48644494D01*
X59843815Y-48741185D01*
X59940506Y-48820537D01*
X60050820Y-48879502D01*
X60170518Y-48915812D01*
X60295000Y-48928072D01*
X61822654Y-48928072D01*
X60839727Y-49911000D01*
X42503659Y-49911000D01*
X42459999Y-49906700D01*
X42416339Y-49911000D01*
X42416333Y-49911000D01*
X42318924Y-49920594D01*
X42285724Y-49923864D01*
X42184058Y-49954704D01*
X42118149Y-49974697D01*
X41963709Y-50057247D01*
X41828341Y-50168341D01*
X41800501Y-50202264D01*
X39399404Y-52603361D01*
X39397592Y-52603000D01*
X39122408Y-52603000D01*
X38852510Y-52656686D01*
X38598273Y-52761995D01*
X38369465Y-52914880D01*
X38174880Y-53109465D01*
X38021995Y-53338273D01*
X37916686Y-53592510D01*
X37863000Y-53862408D01*
X37863000Y-54137592D01*
X37916686Y-54407490D01*
X38021995Y-54661727D01*
X38174880Y-54890535D01*
X38369465Y-55085120D01*
X38598273Y-55238005D01*
X38852510Y-55343314D01*
X39122408Y-55397000D01*
X39397592Y-55397000D01*
X39667490Y-55343314D01*
X39921727Y-55238005D01*
X40150535Y-55085120D01*
X40345120Y-54890535D01*
X40498005Y-54661727D01*
X40603314Y-54407490D01*
X40657000Y-54137592D01*
X40657000Y-53862408D01*
X55863000Y-53862408D01*
X55863000Y-54137592D01*
X55916686Y-54407490D01*
X56021995Y-54661727D01*
X56174880Y-54890535D01*
X56369465Y-55085120D01*
X56598273Y-55238005D01*
X56852510Y-55343314D01*
X57122408Y-55397000D01*
X57397592Y-55397000D01*
X57667490Y-55343314D01*
X57921727Y-55238005D01*
X58150535Y-55085120D01*
X58345120Y-54890535D01*
X58498005Y-54661727D01*
X58603314Y-54407490D01*
X58657000Y-54137592D01*
X58657000Y-53862408D01*
X58603314Y-53592510D01*
X58498005Y-53338273D01*
X58345120Y-53109465D01*
X58150535Y-52914880D01*
X57921727Y-52761995D01*
X57667490Y-52656686D01*
X57397592Y-52603000D01*
X57122408Y-52603000D01*
X56852510Y-52656686D01*
X56598273Y-52761995D01*
X56369465Y-52914880D01*
X56174880Y-53109465D01*
X56021995Y-53338273D01*
X55916686Y-53592510D01*
X55863000Y-53862408D01*
X40657000Y-53862408D01*
X40656639Y-53860596D01*
X42828235Y-51689000D01*
X61164302Y-51689000D01*
X61207962Y-51693300D01*
X61251622Y-51689000D01*
X61251629Y-51689000D01*
X61382236Y-51676136D01*
X61543000Y-51627370D01*
X61543001Y-78157567D01*
X61539314Y-78195000D01*
X61554027Y-78344378D01*
X61597599Y-78488015D01*
X61668355Y-78620392D01*
X61679026Y-78633394D01*
X61763579Y-78736422D01*
X61792649Y-78760279D01*
X63044719Y-80012350D01*
X63068576Y-80041420D01*
X63097646Y-80065277D01*
X63167981Y-80123000D01*
X62750000Y-80123000D01*
X62725224Y-80125440D01*
X62701399Y-80132667D01*
X62679443Y-80144403D01*
X62660197Y-80160197D01*
X62644403Y-80179443D01*
X62632667Y-80201399D01*
X62625440Y-80225224D01*
X62623000Y-80250000D01*
X62623000Y-100750000D01*
X62625440Y-100774776D01*
X62632667Y-100798601D01*
X62644403Y-100820557D01*
X62660197Y-100839803D01*
X62679443Y-100855597D01*
X62701399Y-100867333D01*
X62725224Y-100874560D01*
X62750000Y-100877000D01*
X69000000Y-100877000D01*
X69024776Y-100874560D01*
X69048601Y-100867333D01*
X69070557Y-100855597D01*
X69089803Y-100839803D01*
X69105597Y-100820557D01*
X69117333Y-100798601D01*
X69124560Y-100774776D01*
X69127000Y-100750000D01*
X69127000Y-98127000D01*
X76875000Y-98127000D01*
X76900653Y-98124382D01*
X76924426Y-98116988D01*
X76946299Y-98105097D01*
X76965433Y-98089168D01*
X76981091Y-98069812D01*
X76992672Y-98047773D01*
X76999731Y-98023899D01*
X77001997Y-97999106D01*
X76947074Y-90200000D01*
X119461928Y-90200000D01*
X119461928Y-93800000D01*
X119474188Y-93924482D01*
X119510498Y-94044180D01*
X119569463Y-94154494D01*
X119648815Y-94251185D01*
X119745506Y-94330537D01*
X119855820Y-94389502D01*
X119975518Y-94425812D01*
X120100000Y-94438072D01*
X122900000Y-94438072D01*
X123024482Y-94425812D01*
X123144180Y-94389502D01*
X123254494Y-94330537D01*
X123351185Y-94251185D01*
X123430537Y-94154494D01*
X123489502Y-94044180D01*
X123525812Y-93924482D01*
X123538072Y-93800000D01*
X123538072Y-90200000D01*
X123525812Y-90075518D01*
X123489502Y-89955820D01*
X123430537Y-89845506D01*
X123351185Y-89748815D01*
X123254494Y-89669463D01*
X123144180Y-89610498D01*
X123024482Y-89574188D01*
X122900000Y-89561928D01*
X120100000Y-89561928D01*
X119975518Y-89574188D01*
X119855820Y-89610498D01*
X119745506Y-89669463D01*
X119648815Y-89748815D01*
X119569463Y-89845506D01*
X119510498Y-89955820D01*
X119474188Y-90075518D01*
X119461928Y-90200000D01*
X76947074Y-90200000D01*
X76877088Y-80261998D01*
X83880239Y-80261998D01*
X84036790Y-80366602D01*
X84214757Y-80440318D01*
X84403685Y-80477898D01*
X84596315Y-80477898D01*
X84785243Y-80440318D01*
X84963210Y-80366602D01*
X85123375Y-80259583D01*
X85259585Y-80123373D01*
X85366604Y-79963208D01*
X85440320Y-79785241D01*
X85477900Y-79596313D01*
X85477900Y-79403683D01*
X85440320Y-79214755D01*
X85366604Y-79036788D01*
X85259585Y-78876623D01*
X85123375Y-78740413D01*
X84963210Y-78633394D01*
X84785243Y-78559678D01*
X84596315Y-78522098D01*
X84403685Y-78522098D01*
X84214757Y-78559678D01*
X84036790Y-78633394D01*
X83880239Y-78737998D01*
X63925629Y-78737998D01*
X63904047Y-78716416D01*
X64035243Y-78690320D01*
X64213210Y-78616604D01*
X64373375Y-78509585D01*
X64509585Y-78373375D01*
X64616604Y-78213210D01*
X64690320Y-78035243D01*
X64691676Y-78028421D01*
X69991184Y-78028421D01*
X70060345Y-78270349D01*
X70312443Y-78389248D01*
X70582894Y-78456681D01*
X70861303Y-78470057D01*
X71136972Y-78428860D01*
X71399308Y-78334675D01*
X71519655Y-78270349D01*
X71588816Y-78028421D01*
X70790000Y-77229605D01*
X69991184Y-78028421D01*
X64691676Y-78028421D01*
X64727900Y-77846315D01*
X64727900Y-77653685D01*
X64690320Y-77464757D01*
X64616604Y-77286790D01*
X64512000Y-77130239D01*
X64512000Y-77121303D01*
X69369943Y-77121303D01*
X69411140Y-77396972D01*
X69505325Y-77659308D01*
X69569651Y-77779655D01*
X69811579Y-77848816D01*
X70610395Y-77050000D01*
X69811579Y-76251184D01*
X69569651Y-76320345D01*
X69450752Y-76572443D01*
X69383319Y-76842894D01*
X69369943Y-77121303D01*
X64512000Y-77121303D01*
X64512000Y-76071579D01*
X69991184Y-76071579D01*
X70790000Y-76870395D01*
X71588816Y-76071579D01*
X71519655Y-75829651D01*
X71267557Y-75710752D01*
X70997106Y-75643319D01*
X70718697Y-75629943D01*
X70443028Y-75671140D01*
X70180692Y-75765325D01*
X70060345Y-75829651D01*
X69991184Y-76071579D01*
X64512000Y-76071579D01*
X64512000Y-66351096D01*
X64581426Y-66379853D01*
X64858665Y-66435000D01*
X65141335Y-66435000D01*
X65418574Y-66379853D01*
X65679727Y-66271680D01*
X65914759Y-66114637D01*
X66114637Y-65914759D01*
X66271680Y-65679727D01*
X66379853Y-65418574D01*
X66435000Y-65141335D01*
X66435000Y-64858665D01*
X66379853Y-64581426D01*
X66271680Y-64320273D01*
X66114637Y-64085241D01*
X65914759Y-63885363D01*
X65679727Y-63728320D01*
X65418574Y-63620147D01*
X65141335Y-63565000D01*
X64858665Y-63565000D01*
X64581426Y-63620147D01*
X64512000Y-63648904D01*
X64512000Y-56191538D01*
X64718691Y-56254236D01*
X64929508Y-56275000D01*
X65070492Y-56275000D01*
X65281309Y-56254236D01*
X65551808Y-56172182D01*
X65801101Y-56038932D01*
X66019608Y-55859608D01*
X66198932Y-55641101D01*
X66332182Y-55391808D01*
X66414236Y-55121309D01*
X66441943Y-54840000D01*
X66414236Y-54558691D01*
X66332182Y-54288192D01*
X66198932Y-54038899D01*
X66019608Y-53820392D01*
X65801101Y-53641068D01*
X65787400Y-53633745D01*
X65787400Y-53436150D01*
X65816151Y-53407400D01*
X69580230Y-53407400D01*
X69606531Y-53456606D01*
X69793803Y-53684797D01*
X70021994Y-53872069D01*
X70055540Y-53890000D01*
X70021994Y-53907931D01*
X69793803Y-54095203D01*
X69606531Y-54323394D01*
X69467375Y-54583736D01*
X69381684Y-54866223D01*
X69352749Y-55160000D01*
X69381684Y-55453777D01*
X69467375Y-55736264D01*
X69606531Y-55996606D01*
X69793803Y-56224797D01*
X70021994Y-56412069D01*
X70055540Y-56430000D01*
X70021994Y-56447931D01*
X69793803Y-56635203D01*
X69606531Y-56863394D01*
X69467375Y-57123736D01*
X69381684Y-57406223D01*
X69352749Y-57700000D01*
X69381684Y-57993777D01*
X69406240Y-58074729D01*
X68067654Y-59413316D01*
X68038578Y-59437178D01*
X68008102Y-59474314D01*
X67943355Y-59553208D01*
X67916551Y-59603355D01*
X67872598Y-59685586D01*
X67829026Y-59829223D01*
X67818000Y-59941174D01*
X67814314Y-59978600D01*
X67818000Y-60016023D01*
X67818001Y-63462574D01*
X67818000Y-66077425D01*
X67829026Y-66189377D01*
X67843400Y-66236762D01*
X67843400Y-66543817D01*
X67839836Y-66580000D01*
X67843400Y-66616183D01*
X67843400Y-66616186D01*
X67854058Y-66724399D01*
X67896178Y-66863249D01*
X67943828Y-66952395D01*
X67964576Y-66991212D01*
X68033018Y-67074608D01*
X68056626Y-67103375D01*
X68084732Y-67126441D01*
X72593400Y-71635109D01*
X72593401Y-75840373D01*
X72427990Y-75950897D01*
X72230897Y-76147990D01*
X72076043Y-76379746D01*
X72061223Y-76415525D01*
X72010349Y-76320345D01*
X71768421Y-76251184D01*
X70969605Y-77050000D01*
X71768421Y-77848816D01*
X72010349Y-77779655D01*
X72058425Y-77677721D01*
X72076043Y-77720254D01*
X72230897Y-77952010D01*
X72427990Y-78149103D01*
X72659746Y-78303957D01*
X72917260Y-78410623D01*
X73190635Y-78465000D01*
X73469365Y-78465000D01*
X73742740Y-78410623D01*
X74000254Y-78303957D01*
X74232010Y-78149103D01*
X74429103Y-77952010D01*
X74583957Y-77720254D01*
X74600000Y-77681523D01*
X74616043Y-77720254D01*
X74770897Y-77952010D01*
X74967990Y-78149103D01*
X75199746Y-78303957D01*
X75457260Y-78410623D01*
X75730635Y-78465000D01*
X76009365Y-78465000D01*
X76282740Y-78410623D01*
X76540254Y-78303957D01*
X76772010Y-78149103D01*
X76969103Y-77952010D01*
X77123957Y-77720254D01*
X77140000Y-77681523D01*
X77156043Y-77720254D01*
X77310897Y-77952010D01*
X77507990Y-78149103D01*
X77739746Y-78303957D01*
X77997260Y-78410623D01*
X78270635Y-78465000D01*
X78549365Y-78465000D01*
X78822740Y-78410623D01*
X79080254Y-78303957D01*
X79312010Y-78149103D01*
X79509103Y-77952010D01*
X79663957Y-77720254D01*
X79680000Y-77681523D01*
X79696043Y-77720254D01*
X79850897Y-77952010D01*
X80047990Y-78149103D01*
X80279746Y-78303957D01*
X80537260Y-78410623D01*
X80810635Y-78465000D01*
X81089365Y-78465000D01*
X81362740Y-78410623D01*
X81620254Y-78303957D01*
X81852010Y-78149103D01*
X82049103Y-77952010D01*
X82203957Y-77720254D01*
X82220000Y-77681523D01*
X82236043Y-77720254D01*
X82390897Y-77952010D01*
X82587990Y-78149103D01*
X82819746Y-78303957D01*
X83077260Y-78410623D01*
X83350635Y-78465000D01*
X83629365Y-78465000D01*
X83902740Y-78410623D01*
X84160254Y-78303957D01*
X84392010Y-78149103D01*
X84512692Y-78028421D01*
X85231184Y-78028421D01*
X85300345Y-78270349D01*
X85552443Y-78389248D01*
X85822894Y-78456681D01*
X86101303Y-78470057D01*
X86376972Y-78428860D01*
X86639308Y-78334675D01*
X86759655Y-78270349D01*
X86828816Y-78028421D01*
X86030000Y-77229605D01*
X85231184Y-78028421D01*
X84512692Y-78028421D01*
X84589103Y-77952010D01*
X84743957Y-77720254D01*
X84758777Y-77684475D01*
X84809651Y-77779655D01*
X85051579Y-77848816D01*
X85850395Y-77050000D01*
X85051579Y-76251184D01*
X84809651Y-76320345D01*
X84761575Y-76422279D01*
X84743957Y-76379746D01*
X84589103Y-76147990D01*
X84512692Y-76071579D01*
X85231184Y-76071579D01*
X86030000Y-76870395D01*
X86828816Y-76071579D01*
X86759655Y-75829651D01*
X86507557Y-75710752D01*
X86237106Y-75643319D01*
X85958697Y-75629943D01*
X85683028Y-75671140D01*
X85420692Y-75765325D01*
X85300345Y-75829651D01*
X85231184Y-76071579D01*
X84512692Y-76071579D01*
X84392010Y-75950897D01*
X84262000Y-75864027D01*
X84262000Y-67869761D01*
X84366604Y-67713210D01*
X84440320Y-67535243D01*
X84477900Y-67346315D01*
X84477900Y-67153685D01*
X84440320Y-66964757D01*
X84366604Y-66786790D01*
X84259585Y-66626625D01*
X84123375Y-66490415D01*
X83963210Y-66383396D01*
X83785243Y-66309680D01*
X83596315Y-66272100D01*
X83403685Y-66272100D01*
X83214757Y-66309680D01*
X83036790Y-66383396D01*
X82876625Y-66490415D01*
X82740415Y-66626625D01*
X82633396Y-66786790D01*
X82559680Y-66964757D01*
X82522100Y-67153685D01*
X82522100Y-67346315D01*
X82559680Y-67535243D01*
X82633396Y-67713210D01*
X82738001Y-67869762D01*
X82738000Y-75850664D01*
X82587990Y-75950897D01*
X82390897Y-76147990D01*
X82236043Y-76379746D01*
X82220000Y-76418477D01*
X82203957Y-76379746D01*
X82049103Y-76147990D01*
X81852010Y-75950897D01*
X81620254Y-75796043D01*
X81362740Y-75689377D01*
X81089365Y-75635000D01*
X80810635Y-75635000D01*
X80537260Y-75689377D01*
X80279746Y-75796043D01*
X80047990Y-75950897D01*
X79850897Y-76147990D01*
X79696043Y-76379746D01*
X79680000Y-76418477D01*
X79663957Y-76379746D01*
X79509103Y-76147990D01*
X79312010Y-75950897D01*
X79080254Y-75796043D01*
X78822740Y-75689377D01*
X78549365Y-75635000D01*
X78270635Y-75635000D01*
X77997260Y-75689377D01*
X77739746Y-75796043D01*
X77507990Y-75950897D01*
X77310897Y-76147990D01*
X77156043Y-76379746D01*
X77140000Y-76418477D01*
X77123957Y-76379746D01*
X76969103Y-76147990D01*
X76772010Y-75950897D01*
X76540254Y-75796043D01*
X76282740Y-75689377D01*
X76009365Y-75635000D01*
X75730635Y-75635000D01*
X75457260Y-75689377D01*
X75199746Y-75796043D01*
X74967990Y-75950897D01*
X74770897Y-76147990D01*
X74616043Y-76379746D01*
X74600000Y-76418477D01*
X74583957Y-76379746D01*
X74429103Y-76147990D01*
X74232010Y-75950897D01*
X74066600Y-75840374D01*
X74066600Y-71366175D01*
X74070163Y-71329999D01*
X74066600Y-71293823D01*
X74066600Y-71293814D01*
X74055942Y-71185601D01*
X74013822Y-71046751D01*
X73945424Y-70918787D01*
X73853374Y-70806625D01*
X73825268Y-70783559D01*
X69316600Y-66274891D01*
X69316600Y-66236763D01*
X69330974Y-66189378D01*
X69342000Y-66077426D01*
X69342000Y-60294230D01*
X69356648Y-60279583D01*
X69381684Y-60533777D01*
X69467375Y-60816264D01*
X69606531Y-61076606D01*
X69793803Y-61304797D01*
X70021994Y-61492069D01*
X70055540Y-61510000D01*
X70021994Y-61527931D01*
X69793803Y-61715203D01*
X69606531Y-61943394D01*
X69467375Y-62203736D01*
X69381684Y-62486223D01*
X69352749Y-62780000D01*
X69381684Y-63073777D01*
X69467375Y-63356264D01*
X69606531Y-63616606D01*
X69793803Y-63844797D01*
X70021994Y-64032069D01*
X70055540Y-64050000D01*
X70021994Y-64067931D01*
X69793803Y-64255203D01*
X69606531Y-64483394D01*
X69467375Y-64743736D01*
X69381684Y-65026223D01*
X69352749Y-65320000D01*
X69381684Y-65613777D01*
X69467375Y-65896264D01*
X69606531Y-66156606D01*
X69793803Y-66384797D01*
X70021994Y-66572069D01*
X70282336Y-66711225D01*
X70564823Y-66796916D01*
X70784981Y-66818600D01*
X71455019Y-66818600D01*
X71675177Y-66796916D01*
X71957664Y-66711225D01*
X72218006Y-66572069D01*
X72446197Y-66384797D01*
X72633469Y-66156606D01*
X72673347Y-66082000D01*
X86254370Y-66082000D01*
X87592948Y-67420579D01*
X87629680Y-67605243D01*
X87703396Y-67783210D01*
X87808000Y-67939761D01*
X87808001Y-75857345D01*
X87667990Y-75950897D01*
X87470897Y-76147990D01*
X87316043Y-76379746D01*
X87301223Y-76415525D01*
X87250349Y-76320345D01*
X87008421Y-76251184D01*
X86209605Y-77050000D01*
X87008421Y-77848816D01*
X87250349Y-77779655D01*
X87298425Y-77677721D01*
X87316043Y-77720254D01*
X87470897Y-77952010D01*
X87667990Y-78149103D01*
X87899746Y-78303957D01*
X88157260Y-78410623D01*
X88430635Y-78465000D01*
X88709365Y-78465000D01*
X88982740Y-78410623D01*
X89240254Y-78303957D01*
X89472010Y-78149103D01*
X89669103Y-77952010D01*
X89823957Y-77720254D01*
X89840000Y-77681523D01*
X89856043Y-77720254D01*
X90010897Y-77952010D01*
X90207990Y-78149103D01*
X90439746Y-78303957D01*
X90697260Y-78410623D01*
X90970635Y-78465000D01*
X91249365Y-78465000D01*
X91522740Y-78410623D01*
X91780254Y-78303957D01*
X92012010Y-78149103D01*
X92209103Y-77952010D01*
X92363957Y-77720254D01*
X92380000Y-77681523D01*
X92396043Y-77720254D01*
X92550897Y-77952010D01*
X92747990Y-78149103D01*
X92979746Y-78303957D01*
X93237260Y-78410623D01*
X93510635Y-78465000D01*
X93789365Y-78465000D01*
X94062740Y-78410623D01*
X94320254Y-78303957D01*
X94552010Y-78149103D01*
X94749103Y-77952010D01*
X94903957Y-77720254D01*
X94920000Y-77681523D01*
X94936043Y-77720254D01*
X95090897Y-77952010D01*
X95287990Y-78149103D01*
X95519746Y-78303957D01*
X95777260Y-78410623D01*
X96050635Y-78465000D01*
X96329365Y-78465000D01*
X96602740Y-78410623D01*
X96860254Y-78303957D01*
X97092010Y-78149103D01*
X97289103Y-77952010D01*
X97443957Y-77720254D01*
X97460000Y-77681523D01*
X97476043Y-77720254D01*
X97630897Y-77952010D01*
X97827990Y-78149103D01*
X98059746Y-78303957D01*
X98317260Y-78410623D01*
X98590635Y-78465000D01*
X98869365Y-78465000D01*
X98946421Y-78449673D01*
X108242014Y-87745267D01*
X108265082Y-87773375D01*
X108377244Y-87865424D01*
X108505208Y-87933822D01*
X108644058Y-87975942D01*
X108752271Y-87986600D01*
X108752280Y-87986600D01*
X108788456Y-87990163D01*
X108824632Y-87986600D01*
X122194891Y-87986600D01*
X123963400Y-89755110D01*
X123963401Y-97913805D01*
X123963400Y-97913815D01*
X123963400Y-98035399D01*
X123925537Y-98051082D01*
X123657748Y-98230013D01*
X123430013Y-98457748D01*
X123251082Y-98725537D01*
X123127832Y-99023088D01*
X123065000Y-99338967D01*
X123065000Y-99661033D01*
X123127832Y-99976912D01*
X123251082Y-100274463D01*
X123430013Y-100542252D01*
X123657748Y-100769987D01*
X123925537Y-100948918D01*
X124223088Y-101072168D01*
X124538967Y-101135000D01*
X124861033Y-101135000D01*
X125176912Y-101072168D01*
X125474463Y-100948918D01*
X125742252Y-100769987D01*
X125876826Y-100635413D01*
X126244192Y-100635413D01*
X126339956Y-100899814D01*
X126629571Y-101040704D01*
X126941108Y-101122384D01*
X127262595Y-101141718D01*
X127581675Y-101097961D01*
X127886088Y-100992795D01*
X128060044Y-100899814D01*
X128155808Y-100635413D01*
X127200000Y-99679605D01*
X126244192Y-100635413D01*
X125876826Y-100635413D01*
X125969987Y-100542252D01*
X126034925Y-100445065D01*
X126064587Y-100455808D01*
X127020395Y-99500000D01*
X126064587Y-98544192D01*
X126034925Y-98554935D01*
X125969987Y-98457748D01*
X125742252Y-98230013D01*
X125474463Y-98051082D01*
X125436600Y-98035399D01*
X125436600Y-96228309D01*
X127075115Y-97866824D01*
X126818325Y-97902039D01*
X126513912Y-98007205D01*
X126339956Y-98100186D01*
X126244192Y-98364587D01*
X127200000Y-99320395D01*
X127214143Y-99306253D01*
X127393748Y-99485858D01*
X127379605Y-99500000D01*
X128335413Y-100455808D01*
X128365075Y-100445065D01*
X128430013Y-100542252D01*
X128657748Y-100769987D01*
X128925537Y-100948918D01*
X129223088Y-101072168D01*
X129538967Y-101135000D01*
X129861033Y-101135000D01*
X130176912Y-101072168D01*
X130474463Y-100948918D01*
X130742252Y-100769987D01*
X130969987Y-100542252D01*
X131148918Y-100274463D01*
X131272168Y-99976912D01*
X131335000Y-99661033D01*
X131335000Y-99541553D01*
X158519009Y-99541553D01*
X158561603Y-99840907D01*
X158661778Y-100126199D01*
X158741739Y-100275792D01*
X158995920Y-100359475D01*
X159880395Y-99475000D01*
X158995920Y-98590525D01*
X158741739Y-98674208D01*
X158610842Y-98946775D01*
X158535635Y-99239642D01*
X158519009Y-99541553D01*
X131335000Y-99541553D01*
X131335000Y-99338967D01*
X131272168Y-99023088D01*
X131148918Y-98725537D01*
X130969987Y-98457748D01*
X130742252Y-98230013D01*
X130474463Y-98051082D01*
X130176912Y-97927832D01*
X129861033Y-97865000D01*
X129538967Y-97865000D01*
X129223088Y-97927832D01*
X129220580Y-97928871D01*
X126236600Y-94944891D01*
X126236600Y-90200000D01*
X130861928Y-90200000D01*
X130861928Y-93800000D01*
X130874188Y-93924482D01*
X130910498Y-94044180D01*
X130969463Y-94154494D01*
X131048815Y-94251185D01*
X131145506Y-94330537D01*
X131255820Y-94389502D01*
X131375518Y-94425812D01*
X131500000Y-94438072D01*
X134300000Y-94438072D01*
X134424482Y-94425812D01*
X134544180Y-94389502D01*
X134654494Y-94330537D01*
X134751185Y-94251185D01*
X134830537Y-94154494D01*
X134889502Y-94044180D01*
X134925812Y-93924482D01*
X134938072Y-93800000D01*
X134938072Y-90200000D01*
X134925812Y-90075518D01*
X134889502Y-89955820D01*
X134830537Y-89845506D01*
X134751185Y-89748815D01*
X134654494Y-89669463D01*
X134544180Y-89610498D01*
X134424482Y-89574188D01*
X134300000Y-89561928D01*
X131500000Y-89561928D01*
X131375518Y-89574188D01*
X131255820Y-89610498D01*
X131145506Y-89669463D01*
X131048815Y-89748815D01*
X130969463Y-89845506D01*
X130910498Y-89955820D01*
X130874188Y-90075518D01*
X130861928Y-90200000D01*
X126236600Y-90200000D01*
X126236600Y-89211424D01*
X126240163Y-89175248D01*
X126236600Y-89139072D01*
X126236600Y-89139063D01*
X126225942Y-89030850D01*
X126183822Y-88892000D01*
X126115424Y-88764036D01*
X126023374Y-88651874D01*
X125995268Y-88628808D01*
X123501873Y-86135413D01*
X123744192Y-86135413D01*
X123839956Y-86399814D01*
X124129571Y-86540704D01*
X124441108Y-86622384D01*
X124762595Y-86641718D01*
X125081675Y-86597961D01*
X125386088Y-86492795D01*
X125560044Y-86399814D01*
X125655808Y-86135413D01*
X124700000Y-85179605D01*
X123744192Y-86135413D01*
X123501873Y-86135413D01*
X123371197Y-86004737D01*
X123348126Y-85976625D01*
X123235964Y-85884576D01*
X123108000Y-85816178D01*
X122969150Y-85774058D01*
X122860937Y-85763400D01*
X122860934Y-85763400D01*
X122824751Y-85759836D01*
X122788568Y-85763400D01*
X110055110Y-85763400D01*
X102306411Y-78014702D01*
X102369103Y-77952010D01*
X102523957Y-77720254D01*
X102540000Y-77681523D01*
X102556043Y-77720254D01*
X102710897Y-77952010D01*
X102907990Y-78149103D01*
X103139746Y-78303957D01*
X103397260Y-78410623D01*
X103670635Y-78465000D01*
X103949365Y-78465000D01*
X104222740Y-78410623D01*
X104480254Y-78303957D01*
X104712010Y-78149103D01*
X104909103Y-77952010D01*
X105063957Y-77720254D01*
X105080000Y-77681523D01*
X105096043Y-77720254D01*
X105250897Y-77952010D01*
X105447990Y-78149103D01*
X105679746Y-78303957D01*
X105937260Y-78410623D01*
X106210635Y-78465000D01*
X106489365Y-78465000D01*
X106762740Y-78410623D01*
X107020254Y-78303957D01*
X107252010Y-78149103D01*
X107449103Y-77952010D01*
X107603957Y-77720254D01*
X107620000Y-77681523D01*
X107636043Y-77720254D01*
X107790897Y-77952010D01*
X107987990Y-78149103D01*
X108153400Y-78259626D01*
X108153400Y-79603816D01*
X108149836Y-79640000D01*
X108153400Y-79676183D01*
X108153400Y-79676185D01*
X108164058Y-79784398D01*
X108206178Y-79923248D01*
X108227537Y-79963208D01*
X108274576Y-80051212D01*
X108326628Y-80114637D01*
X108366625Y-80163374D01*
X108394732Y-80186441D01*
X111953557Y-83745267D01*
X111976625Y-83773375D01*
X112004731Y-83796441D01*
X112004732Y-83796442D01*
X112024914Y-83813005D01*
X112088787Y-83865424D01*
X112216751Y-83933822D01*
X112295624Y-83957748D01*
X112355601Y-83975942D01*
X112500000Y-83990164D01*
X112536186Y-83986600D01*
X123506992Y-83986600D01*
X123564585Y-84044193D01*
X123300186Y-84139956D01*
X123159296Y-84429571D01*
X123077616Y-84741108D01*
X123058282Y-85062595D01*
X123102039Y-85381675D01*
X123207205Y-85686088D01*
X123300186Y-85860044D01*
X123564587Y-85955808D01*
X124520395Y-85000000D01*
X124506253Y-84985858D01*
X124685858Y-84806253D01*
X124700000Y-84820395D01*
X124714143Y-84806253D01*
X124893748Y-84985858D01*
X124879605Y-85000000D01*
X125835413Y-85955808D01*
X126099814Y-85860044D01*
X126240704Y-85570429D01*
X126322384Y-85258892D01*
X126341718Y-84937405D01*
X126297961Y-84618325D01*
X126192795Y-84313912D01*
X126099814Y-84139956D01*
X125835415Y-84044193D01*
X125893008Y-83986600D01*
X127644891Y-83986600D01*
X128143515Y-84485225D01*
X128127832Y-84523088D01*
X128065000Y-84838967D01*
X128065000Y-85161033D01*
X128127832Y-85476912D01*
X128251082Y-85774463D01*
X128430013Y-86042252D01*
X128657748Y-86269987D01*
X128925537Y-86448918D01*
X129223088Y-86572168D01*
X129538967Y-86635000D01*
X129861033Y-86635000D01*
X130176912Y-86572168D01*
X130474463Y-86448918D01*
X130742252Y-86269987D01*
X130969987Y-86042252D01*
X131148918Y-85774463D01*
X131272168Y-85476912D01*
X131335000Y-85161033D01*
X131335000Y-84838967D01*
X131272168Y-84523088D01*
X131148918Y-84225537D01*
X130969987Y-83957748D01*
X130742252Y-83730013D01*
X130474463Y-83551082D01*
X130176912Y-83427832D01*
X129861033Y-83365000D01*
X129538967Y-83365000D01*
X129223088Y-83427832D01*
X129185225Y-83443515D01*
X128496445Y-82754736D01*
X128473375Y-82726625D01*
X128361213Y-82634576D01*
X128233249Y-82566178D01*
X128094399Y-82524058D01*
X127986186Y-82513400D01*
X127986183Y-82513400D01*
X127950000Y-82509836D01*
X127913817Y-82513400D01*
X112805110Y-82513400D01*
X109626600Y-79334891D01*
X109626600Y-79241263D01*
X118623000Y-79241263D01*
X118623000Y-79758737D01*
X118723954Y-80266268D01*
X118921983Y-80744351D01*
X119209476Y-81174615D01*
X119575385Y-81540524D01*
X120005649Y-81828017D01*
X120483732Y-82026046D01*
X120991263Y-82127000D01*
X121508737Y-82127000D01*
X122016268Y-82026046D01*
X122494351Y-81828017D01*
X122924615Y-81540524D01*
X123290524Y-81174615D01*
X123578017Y-80744351D01*
X123776046Y-80266268D01*
X123877000Y-79758737D01*
X123877000Y-79241263D01*
X123829010Y-79000000D01*
X124398057Y-79000000D01*
X124425764Y-79281309D01*
X124507818Y-79551808D01*
X124641068Y-79801101D01*
X124820392Y-80019608D01*
X125038899Y-80198932D01*
X125288192Y-80332182D01*
X125558691Y-80414236D01*
X125769508Y-80435000D01*
X125910492Y-80435000D01*
X126121309Y-80414236D01*
X126391808Y-80332182D01*
X126641101Y-80198932D01*
X126859608Y-80019608D01*
X127038932Y-79801101D01*
X127172182Y-79551808D01*
X127254236Y-79281309D01*
X127281943Y-79000000D01*
X127268023Y-78858665D01*
X134565000Y-78858665D01*
X134565000Y-79141335D01*
X134620147Y-79418574D01*
X134728320Y-79679727D01*
X134885363Y-79914759D01*
X135085241Y-80114637D01*
X135238001Y-80216708D01*
X135238001Y-82726626D01*
X135238000Y-86212574D01*
X135238000Y-86212575D01*
X135238001Y-96212567D01*
X135234314Y-96250000D01*
X135249027Y-96399378D01*
X135292599Y-96543015D01*
X135363355Y-96675392D01*
X135434721Y-96762351D01*
X135458579Y-96791422D01*
X135487649Y-96815279D01*
X136434716Y-97762346D01*
X136458578Y-97791422D01*
X136532219Y-97851857D01*
X136574607Y-97886645D01*
X136625439Y-97913815D01*
X136706985Y-97957402D01*
X136850622Y-98000974D01*
X136962574Y-98012000D01*
X136962577Y-98012000D01*
X137000000Y-98015686D01*
X137037423Y-98012000D01*
X159593285Y-98012000D01*
X159408801Y-98076778D01*
X159259208Y-98156739D01*
X159175525Y-98410920D01*
X160060000Y-99295395D01*
X160944475Y-98410920D01*
X160860792Y-98156739D01*
X160588225Y-98025842D01*
X160534322Y-98012000D01*
X162080846Y-98012000D01*
X161832905Y-98114701D01*
X161581495Y-98282688D01*
X161367688Y-98496495D01*
X161272262Y-98639310D01*
X161124080Y-98590525D01*
X160239605Y-99475000D01*
X161124080Y-100359475D01*
X161272262Y-100310690D01*
X161367688Y-100453505D01*
X161581495Y-100667312D01*
X161832905Y-100835299D01*
X162112257Y-100951011D01*
X162408816Y-101010000D01*
X162711184Y-101010000D01*
X163007743Y-100951011D01*
X163287095Y-100835299D01*
X163538505Y-100667312D01*
X163752312Y-100453505D01*
X163810000Y-100367169D01*
X163867688Y-100453505D01*
X164081495Y-100667312D01*
X164332905Y-100835299D01*
X164612257Y-100951011D01*
X164908816Y-101010000D01*
X165211184Y-101010000D01*
X165507743Y-100951011D01*
X165787095Y-100835299D01*
X166038505Y-100667312D01*
X166252312Y-100453505D01*
X166420299Y-100202095D01*
X166536011Y-99922743D01*
X166595000Y-99626184D01*
X166595000Y-99323816D01*
X166536011Y-99027257D01*
X166420299Y-98747905D01*
X166252312Y-98496495D01*
X166038505Y-98282688D01*
X165819179Y-98136139D01*
X165810974Y-98052830D01*
X165767402Y-97909193D01*
X165696645Y-97776816D01*
X165601422Y-97660786D01*
X165572353Y-97636930D01*
X164673076Y-96737654D01*
X164649214Y-96708578D01*
X164533184Y-96613355D01*
X164400807Y-96542598D01*
X164257170Y-96499026D01*
X164145218Y-96488000D01*
X164145215Y-96488000D01*
X164107792Y-96484314D01*
X164070369Y-96488000D01*
X137315630Y-96488000D01*
X136762000Y-95934370D01*
X136762000Y-92215475D01*
X155525000Y-92215475D01*
X155525000Y-92734525D01*
X155626261Y-93243601D01*
X155824893Y-93723141D01*
X156113262Y-94154715D01*
X156480285Y-94521738D01*
X156911859Y-94810107D01*
X157391399Y-95008739D01*
X157900475Y-95110000D01*
X158419525Y-95110000D01*
X158928601Y-95008739D01*
X159408141Y-94810107D01*
X159839715Y-94521738D01*
X160206738Y-94154715D01*
X160495107Y-93723141D01*
X160693739Y-93243601D01*
X160795000Y-92734525D01*
X160795000Y-92215475D01*
X164325000Y-92215475D01*
X164325000Y-92734525D01*
X164426261Y-93243601D01*
X164624893Y-93723141D01*
X164913262Y-94154715D01*
X165280285Y-94521738D01*
X165711859Y-94810107D01*
X166191399Y-95008739D01*
X166700475Y-95110000D01*
X167219525Y-95110000D01*
X167728601Y-95008739D01*
X168208141Y-94810107D01*
X168639715Y-94521738D01*
X169006738Y-94154715D01*
X169295107Y-93723141D01*
X169493739Y-93243601D01*
X169595000Y-92734525D01*
X169595000Y-92215475D01*
X169493739Y-91706399D01*
X169295107Y-91226859D01*
X169006738Y-90795285D01*
X168639715Y-90428262D01*
X168208141Y-90139893D01*
X167728601Y-89941261D01*
X167219525Y-89840000D01*
X166700475Y-89840000D01*
X166191399Y-89941261D01*
X165711859Y-90139893D01*
X165280285Y-90428262D01*
X164913262Y-90795285D01*
X164624893Y-91226859D01*
X164426261Y-91706399D01*
X164325000Y-92215475D01*
X160795000Y-92215475D01*
X160693739Y-91706399D01*
X160495107Y-91226859D01*
X160206738Y-90795285D01*
X159839715Y-90428262D01*
X159408141Y-90139893D01*
X158928601Y-89941261D01*
X158419525Y-89840000D01*
X157900475Y-89840000D01*
X157391399Y-89941261D01*
X156911859Y-90139893D01*
X156480285Y-90428262D01*
X156113262Y-90795285D01*
X155824893Y-91226859D01*
X155626261Y-91706399D01*
X155525000Y-92215475D01*
X136762000Y-92215475D01*
X136762000Y-80216707D01*
X136914759Y-80114637D01*
X137114637Y-79914759D01*
X137271680Y-79679727D01*
X137379853Y-79418574D01*
X137435000Y-79141335D01*
X137435000Y-78858665D01*
X137379853Y-78581426D01*
X137271680Y-78320273D01*
X137114637Y-78085241D01*
X136914759Y-77885363D01*
X136679727Y-77728320D01*
X136418574Y-77620147D01*
X136141335Y-77565000D01*
X135858665Y-77565000D01*
X135581426Y-77620147D01*
X135320273Y-77728320D01*
X135085241Y-77885363D01*
X134885363Y-78085241D01*
X134728320Y-78320273D01*
X134620147Y-78581426D01*
X134565000Y-78858665D01*
X127268023Y-78858665D01*
X127254236Y-78718691D01*
X127172182Y-78448192D01*
X127038932Y-78198899D01*
X126859608Y-77980392D01*
X126641101Y-77801068D01*
X126391808Y-77667818D01*
X126121309Y-77585764D01*
X125910492Y-77565000D01*
X125769508Y-77565000D01*
X125558691Y-77585764D01*
X125288192Y-77667818D01*
X125038899Y-77801068D01*
X124820392Y-77980392D01*
X124641068Y-78198899D01*
X124507818Y-78448192D01*
X124425764Y-78718691D01*
X124398057Y-79000000D01*
X123829010Y-79000000D01*
X123776046Y-78733732D01*
X123578017Y-78255649D01*
X123290524Y-77825385D01*
X122924615Y-77459476D01*
X122494351Y-77171983D01*
X122016268Y-76973954D01*
X121508737Y-76873000D01*
X120991263Y-76873000D01*
X120483732Y-76973954D01*
X120005649Y-77171983D01*
X119575385Y-77459476D01*
X119209476Y-77825385D01*
X118921983Y-78255649D01*
X118723954Y-78733732D01*
X118623000Y-79241263D01*
X109626600Y-79241263D01*
X109626600Y-78259626D01*
X109792010Y-78149103D01*
X109989103Y-77952010D01*
X110143957Y-77720254D01*
X110160000Y-77681523D01*
X110176043Y-77720254D01*
X110330897Y-77952010D01*
X110527990Y-78149103D01*
X110759746Y-78303957D01*
X111017260Y-78410623D01*
X111290635Y-78465000D01*
X111569365Y-78465000D01*
X111842740Y-78410623D01*
X112100254Y-78303957D01*
X112332010Y-78149103D01*
X112529103Y-77952010D01*
X112683957Y-77720254D01*
X112700000Y-77681523D01*
X112716043Y-77720254D01*
X112870897Y-77952010D01*
X113067990Y-78149103D01*
X113299746Y-78303957D01*
X113557260Y-78410623D01*
X113830635Y-78465000D01*
X114109365Y-78465000D01*
X114382740Y-78410623D01*
X114640254Y-78303957D01*
X114872010Y-78149103D01*
X115069103Y-77952010D01*
X115223957Y-77720254D01*
X115240000Y-77681523D01*
X115256043Y-77720254D01*
X115410897Y-77952010D01*
X115607990Y-78149103D01*
X115839746Y-78303957D01*
X116097260Y-78410623D01*
X116370635Y-78465000D01*
X116649365Y-78465000D01*
X116922740Y-78410623D01*
X117180254Y-78303957D01*
X117412010Y-78149103D01*
X117609103Y-77952010D01*
X117763957Y-77720254D01*
X117870623Y-77462740D01*
X117925000Y-77189365D01*
X117925000Y-76910635D01*
X117870623Y-76637260D01*
X117763957Y-76379746D01*
X117609103Y-76147990D01*
X117412010Y-75950897D01*
X117180254Y-75796043D01*
X116922740Y-75689377D01*
X116649365Y-75635000D01*
X116370635Y-75635000D01*
X116097260Y-75689377D01*
X115839746Y-75796043D01*
X115607990Y-75950897D01*
X115410897Y-76147990D01*
X115256043Y-76379746D01*
X115240000Y-76418477D01*
X115223957Y-76379746D01*
X115069103Y-76147990D01*
X114872010Y-75950897D01*
X114640254Y-75796043D01*
X114382740Y-75689377D01*
X114109365Y-75635000D01*
X113830635Y-75635000D01*
X113557260Y-75689377D01*
X113299746Y-75796043D01*
X113067990Y-75950897D01*
X112870897Y-76147990D01*
X112716043Y-76379746D01*
X112700000Y-76418477D01*
X112683957Y-76379746D01*
X112529103Y-76147990D01*
X112332010Y-75950897D01*
X112100254Y-75796043D01*
X111842740Y-75689377D01*
X111569365Y-75635000D01*
X111290635Y-75635000D01*
X111017260Y-75689377D01*
X110759746Y-75796043D01*
X110527990Y-75950897D01*
X110330897Y-76147990D01*
X110176043Y-76379746D01*
X110160000Y-76418477D01*
X110143957Y-76379746D01*
X109989103Y-76147990D01*
X109792010Y-75950897D01*
X109560254Y-75796043D01*
X109302740Y-75689377D01*
X109029365Y-75635000D01*
X108750635Y-75635000D01*
X108477260Y-75689377D01*
X108219746Y-75796043D01*
X107987990Y-75950897D01*
X107790897Y-76147990D01*
X107636043Y-76379746D01*
X107620000Y-76418477D01*
X107603957Y-76379746D01*
X107449103Y-76147990D01*
X107252010Y-75950897D01*
X107020254Y-75796043D01*
X106762740Y-75689377D01*
X106489365Y-75635000D01*
X106210635Y-75635000D01*
X105937260Y-75689377D01*
X105679746Y-75796043D01*
X105447990Y-75950897D01*
X105250897Y-76147990D01*
X105096043Y-76379746D01*
X105080000Y-76418477D01*
X105063957Y-76379746D01*
X104909103Y-76147990D01*
X104712010Y-75950897D01*
X104480254Y-75796043D01*
X104222740Y-75689377D01*
X103949365Y-75635000D01*
X103670635Y-75635000D01*
X103397260Y-75689377D01*
X103139746Y-75796043D01*
X102907990Y-75950897D01*
X102710897Y-76147990D01*
X102556043Y-76379746D01*
X102540000Y-76418477D01*
X102523957Y-76379746D01*
X102369103Y-76147990D01*
X102172010Y-75950897D01*
X101940254Y-75796043D01*
X101682740Y-75689377D01*
X101409365Y-75635000D01*
X101130635Y-75635000D01*
X100857260Y-75689377D01*
X100599746Y-75796043D01*
X100367990Y-75950897D01*
X100170897Y-76147990D01*
X100016043Y-76379746D01*
X100000000Y-76418477D01*
X99983957Y-76379746D01*
X99829103Y-76147990D01*
X99632010Y-75950897D01*
X99400254Y-75796043D01*
X99142740Y-75689377D01*
X98869365Y-75635000D01*
X98590635Y-75635000D01*
X98317260Y-75689377D01*
X98059746Y-75796043D01*
X97827990Y-75950897D01*
X97630897Y-76147990D01*
X97476043Y-76379746D01*
X97460000Y-76418477D01*
X97443957Y-76379746D01*
X97289103Y-76147990D01*
X97092010Y-75950897D01*
X96952000Y-75857346D01*
X96952000Y-55125630D01*
X101091031Y-50986600D01*
X132881163Y-50986600D01*
X132889188Y-51068082D01*
X132925498Y-51187780D01*
X132984463Y-51298094D01*
X133063815Y-51394785D01*
X133160506Y-51474137D01*
X133270820Y-51533102D01*
X133321865Y-51548586D01*
X133313803Y-51555203D01*
X133126531Y-51783394D01*
X132987375Y-52043736D01*
X132901684Y-52326223D01*
X132872749Y-52620000D01*
X132901684Y-52913777D01*
X132987375Y-53196264D01*
X133126531Y-53456606D01*
X133313803Y-53684797D01*
X133541994Y-53872069D01*
X133575540Y-53890000D01*
X133541994Y-53907931D01*
X133313803Y-54095203D01*
X133126531Y-54323394D01*
X132987375Y-54583736D01*
X132901684Y-54866223D01*
X132872749Y-55160000D01*
X132901684Y-55453777D01*
X132987375Y-55736264D01*
X133126531Y-55996606D01*
X133313803Y-56224797D01*
X133541994Y-56412069D01*
X133575540Y-56430000D01*
X133541994Y-56447931D01*
X133313803Y-56635203D01*
X133126531Y-56863394D01*
X132987375Y-57123736D01*
X132901684Y-57406223D01*
X132872749Y-57700000D01*
X132901684Y-57993777D01*
X132987375Y-58276264D01*
X133126531Y-58536606D01*
X133313803Y-58764797D01*
X133541994Y-58952069D01*
X133575540Y-58970000D01*
X133541994Y-58987931D01*
X133313803Y-59175203D01*
X133126531Y-59403394D01*
X132987375Y-59663736D01*
X132901684Y-59946223D01*
X132872749Y-60240000D01*
X132901684Y-60533777D01*
X132987375Y-60816264D01*
X133126531Y-61076606D01*
X133313803Y-61304797D01*
X133541994Y-61492069D01*
X133802336Y-61631225D01*
X134084823Y-61716916D01*
X134304981Y-61738600D01*
X134975019Y-61738600D01*
X135195177Y-61716916D01*
X135477664Y-61631225D01*
X135738006Y-61492069D01*
X135966197Y-61304797D01*
X136153469Y-61076606D01*
X136292625Y-60816264D01*
X136378316Y-60533777D01*
X136407251Y-60240000D01*
X136378316Y-59946223D01*
X136292625Y-59663736D01*
X136153469Y-59403394D01*
X135966197Y-59175203D01*
X135738006Y-58987931D01*
X135704460Y-58970000D01*
X135738006Y-58952069D01*
X135966197Y-58764797D01*
X136153469Y-58536606D01*
X136292625Y-58276264D01*
X136378316Y-57993777D01*
X136407251Y-57700000D01*
X136378316Y-57406223D01*
X136292625Y-57123736D01*
X136153469Y-56863394D01*
X135966197Y-56635203D01*
X135738006Y-56447931D01*
X135704460Y-56430000D01*
X135738006Y-56412069D01*
X135966197Y-56224797D01*
X136153469Y-55996606D01*
X136292625Y-55736264D01*
X136378316Y-55453777D01*
X136407251Y-55160000D01*
X136378316Y-54866223D01*
X136292625Y-54583736D01*
X136153469Y-54323394D01*
X135966197Y-54095203D01*
X135738006Y-53907931D01*
X135704460Y-53890000D01*
X135738006Y-53872069D01*
X135966197Y-53684797D01*
X136153469Y-53456606D01*
X136292625Y-53196264D01*
X136378316Y-52913777D01*
X136407251Y-52620000D01*
X136378316Y-52326223D01*
X136292625Y-52043736D01*
X136153469Y-51783394D01*
X135966197Y-51555203D01*
X135958135Y-51548586D01*
X136009180Y-51533102D01*
X136119494Y-51474137D01*
X136216185Y-51394785D01*
X136295537Y-51298094D01*
X136354502Y-51187780D01*
X136390812Y-51068082D01*
X136403072Y-50943600D01*
X136403072Y-49216400D01*
X136390812Y-49091918D01*
X136354502Y-48972220D01*
X136295537Y-48861906D01*
X136216185Y-48765215D01*
X136119494Y-48685863D01*
X136009180Y-48626898D01*
X135889482Y-48590588D01*
X135765000Y-48578328D01*
X133515000Y-48578328D01*
X133390518Y-48590588D01*
X133270820Y-48626898D01*
X133160506Y-48685863D01*
X133063815Y-48765215D01*
X132984463Y-48861906D01*
X132925498Y-48972220D01*
X132889188Y-49091918D01*
X132876928Y-49216400D01*
X132876928Y-49483992D01*
X132841095Y-49513400D01*
X100946759Y-49513400D01*
X100899378Y-49499027D01*
X100750000Y-49484314D01*
X100600621Y-49499027D01*
X100456984Y-49542599D01*
X100324607Y-49613355D01*
X100237648Y-49684721D01*
X95677654Y-54244716D01*
X95648578Y-54268578D01*
X95603592Y-54323394D01*
X95553355Y-54384608D01*
X95532621Y-54423400D01*
X95482598Y-54516986D01*
X95439026Y-54660623D01*
X95430343Y-54748787D01*
X95424314Y-54810000D01*
X95428000Y-54847423D01*
X95428001Y-75857345D01*
X95287990Y-75950897D01*
X95090897Y-76147990D01*
X94936043Y-76379746D01*
X94920000Y-76418477D01*
X94903957Y-76379746D01*
X94749103Y-76147990D01*
X94552010Y-75950897D01*
X94414525Y-75859033D01*
X94425974Y-75821292D01*
X94437000Y-75709340D01*
X94437000Y-54712422D01*
X94440686Y-54674999D01*
X94437000Y-54637574D01*
X94425974Y-54525622D01*
X94382402Y-54381985D01*
X94311645Y-54249608D01*
X94216422Y-54133578D01*
X94187352Y-54109721D01*
X89645284Y-49567654D01*
X89621422Y-49538578D01*
X89505392Y-49443355D01*
X89373015Y-49372598D01*
X89229378Y-49329026D01*
X89117426Y-49318000D01*
X89117423Y-49318000D01*
X89080000Y-49314314D01*
X89042577Y-49318000D01*
X72673347Y-49318000D01*
X72633469Y-49243394D01*
X72446197Y-49015203D01*
X72218006Y-48827931D01*
X72178647Y-48806893D01*
X72319574Y-48715483D01*
X72530873Y-48509868D01*
X72697998Y-48266981D01*
X72814527Y-47996157D01*
X72836358Y-47899026D01*
X72715217Y-47667000D01*
X71247000Y-47667000D01*
X71247000Y-47687000D01*
X70993000Y-47687000D01*
X70993000Y-47667000D01*
X69524783Y-47667000D01*
X69403642Y-47899026D01*
X69425473Y-47996157D01*
X69542002Y-48266981D01*
X69709127Y-48509868D01*
X69920426Y-48715483D01*
X70061353Y-48806893D01*
X70021994Y-48827931D01*
X69793803Y-49015203D01*
X69606531Y-49243394D01*
X69467375Y-49503736D01*
X69381684Y-49786223D01*
X69352749Y-50080000D01*
X69381684Y-50373777D01*
X69467375Y-50656264D01*
X69606531Y-50916606D01*
X69793803Y-51144797D01*
X70021994Y-51332069D01*
X70055540Y-51350000D01*
X70021994Y-51367931D01*
X69793803Y-51555203D01*
X69606531Y-51783394D01*
X69580230Y-51832600D01*
X65528665Y-51832600D01*
X65490000Y-51828792D01*
X65451335Y-51832600D01*
X65451327Y-51832600D01*
X65335643Y-51843994D01*
X65187217Y-51889018D01*
X65050428Y-51962134D01*
X64930531Y-52060531D01*
X64905876Y-52090573D01*
X64512000Y-52484450D01*
X64512000Y-52285630D01*
X65357352Y-51440279D01*
X65386422Y-51416422D01*
X65413772Y-51383096D01*
X65481645Y-51300393D01*
X65552401Y-51168016D01*
X65552402Y-51168015D01*
X65595974Y-51024378D01*
X65607000Y-50912426D01*
X65607000Y-50912423D01*
X65610686Y-50875000D01*
X65607000Y-50837577D01*
X65607000Y-44136400D01*
X69356928Y-44136400D01*
X69356928Y-45863600D01*
X69369188Y-45988082D01*
X69405498Y-46107780D01*
X69464463Y-46218094D01*
X69543815Y-46314785D01*
X69640506Y-46394137D01*
X69750820Y-46453102D01*
X69810720Y-46471272D01*
X69709127Y-46570132D01*
X69542002Y-46813019D01*
X69425473Y-47083843D01*
X69403642Y-47180974D01*
X69524783Y-47413000D01*
X70993000Y-47413000D01*
X70993000Y-47393000D01*
X71247000Y-47393000D01*
X71247000Y-47413000D01*
X72715217Y-47413000D01*
X72836358Y-47180974D01*
X72814527Y-47083843D01*
X72697998Y-46813019D01*
X72530873Y-46570132D01*
X72429280Y-46471272D01*
X72489180Y-46453102D01*
X72599494Y-46394137D01*
X72696185Y-46314785D01*
X72775537Y-46218094D01*
X72834502Y-46107780D01*
X72870812Y-45988082D01*
X72883072Y-45863600D01*
X72883072Y-44136400D01*
X72870812Y-44011918D01*
X72834502Y-43892220D01*
X72775537Y-43781906D01*
X72696185Y-43685215D01*
X72599494Y-43605863D01*
X72489180Y-43546898D01*
X72369482Y-43510588D01*
X72245000Y-43498328D01*
X69995000Y-43498328D01*
X69870518Y-43510588D01*
X69750820Y-43546898D01*
X69640506Y-43605863D01*
X69543815Y-43685215D01*
X69464463Y-43781906D01*
X69405498Y-43892220D01*
X69369188Y-44011918D01*
X69356928Y-44136400D01*
X65607000Y-44136400D01*
X65607000Y-43570630D01*
X66169631Y-43008000D01*
X139595176Y-43008000D01*
X139537210Y-43199087D01*
X139515000Y-43424592D01*
X139515000Y-43775407D01*
X139537210Y-44000912D01*
X139624983Y-44290260D01*
X139767519Y-44556926D01*
X139959339Y-44790661D01*
X140193073Y-44982481D01*
X140288000Y-45033221D01*
X140288001Y-80964460D01*
X140262598Y-81011986D01*
X140219026Y-81155623D01*
X140211535Y-81231686D01*
X140204314Y-81305000D01*
X140208000Y-81342424D01*
X140208000Y-81403995D01*
X140079465Y-81489880D01*
X139884880Y-81684465D01*
X139731995Y-81913273D01*
X139710000Y-81966373D01*
X139688005Y-81913273D01*
X139535120Y-81684465D01*
X139340535Y-81489880D01*
X139111727Y-81336995D01*
X138857490Y-81231686D01*
X138587592Y-81178000D01*
X138312408Y-81178000D01*
X138042510Y-81231686D01*
X137788273Y-81336995D01*
X137559465Y-81489880D01*
X137364880Y-81684465D01*
X137211995Y-81913273D01*
X137106686Y-82167510D01*
X137053000Y-82437408D01*
X137053000Y-82712592D01*
X137106686Y-82982490D01*
X137211995Y-83236727D01*
X137364880Y-83465535D01*
X137559465Y-83660120D01*
X137788273Y-83813005D01*
X138042510Y-83918314D01*
X138312408Y-83972000D01*
X138587592Y-83972000D01*
X138739210Y-83941841D01*
X138976922Y-84179553D01*
X139000779Y-84208623D01*
X139116809Y-84303846D01*
X139249186Y-84374603D01*
X139392823Y-84418175D01*
X139504775Y-84429201D01*
X139504777Y-84429201D01*
X139542200Y-84432887D01*
X139579623Y-84429201D01*
X141456834Y-84429201D01*
X141494257Y-84432887D01*
X141531680Y-84429201D01*
X141531683Y-84429201D01*
X141643635Y-84418175D01*
X141787272Y-84374603D01*
X141919649Y-84303846D01*
X142035679Y-84208623D01*
X142059540Y-84179548D01*
X142574553Y-83664535D01*
X142603623Y-83640679D01*
X142698846Y-83524649D01*
X142769603Y-83392272D01*
X142813175Y-83248635D01*
X142824201Y-83136683D01*
X142824201Y-83136681D01*
X142827887Y-83099258D01*
X142824201Y-83061835D01*
X142824201Y-82437408D01*
X149733000Y-82437408D01*
X149733000Y-82712592D01*
X149786686Y-82982490D01*
X149891995Y-83236727D01*
X150044880Y-83465535D01*
X150239465Y-83660120D01*
X150468273Y-83813005D01*
X150722510Y-83918314D01*
X150992408Y-83972000D01*
X151267592Y-83972000D01*
X151537490Y-83918314D01*
X151791727Y-83813005D01*
X152020535Y-83660120D01*
X152215120Y-83465535D01*
X152368005Y-83236727D01*
X152400000Y-83159485D01*
X152431995Y-83236727D01*
X152584880Y-83465535D01*
X152779465Y-83660120D01*
X153008273Y-83813005D01*
X153262510Y-83918314D01*
X153532408Y-83972000D01*
X153807592Y-83972000D01*
X154077490Y-83918314D01*
X154331727Y-83813005D01*
X154560535Y-83660120D01*
X154755120Y-83465535D01*
X154908005Y-83236727D01*
X155013314Y-82982490D01*
X155067000Y-82712592D01*
X155067000Y-82437408D01*
X155013314Y-82167510D01*
X154908005Y-81913273D01*
X154755120Y-81684465D01*
X154560535Y-81489880D01*
X154331727Y-81336995D01*
X154077490Y-81231686D01*
X153807592Y-81178000D01*
X153532408Y-81178000D01*
X153262510Y-81231686D01*
X153008273Y-81336995D01*
X152779465Y-81489880D01*
X152584880Y-81684465D01*
X152431995Y-81913273D01*
X152400000Y-81990515D01*
X152368005Y-81913273D01*
X152215120Y-81684465D01*
X152020535Y-81489880D01*
X151791727Y-81336995D01*
X151537490Y-81231686D01*
X151267592Y-81178000D01*
X150992408Y-81178000D01*
X150722510Y-81231686D01*
X150468273Y-81336995D01*
X150239465Y-81489880D01*
X150044880Y-81684465D01*
X149891995Y-81913273D01*
X149786686Y-82167510D01*
X149733000Y-82437408D01*
X142824201Y-82437408D01*
X142824201Y-67480799D01*
X145013881Y-65291120D01*
X145127748Y-65404987D01*
X145395537Y-65583918D01*
X145693088Y-65707168D01*
X146008967Y-65770000D01*
X146331033Y-65770000D01*
X146646912Y-65707168D01*
X146944463Y-65583918D01*
X147212252Y-65404987D01*
X147439987Y-65177252D01*
X147618918Y-64909463D01*
X147742168Y-64611912D01*
X147805000Y-64296033D01*
X147805000Y-63973967D01*
X147742168Y-63658088D01*
X147618918Y-63360537D01*
X147439987Y-63092748D01*
X147212252Y-62865013D01*
X146944463Y-62686082D01*
X146646912Y-62562832D01*
X146331033Y-62500000D01*
X146008967Y-62500000D01*
X145693088Y-62562832D01*
X145395537Y-62686082D01*
X145127748Y-62865013D01*
X144900013Y-63092748D01*
X144721082Y-63360537D01*
X144662460Y-63502063D01*
X144550948Y-63593578D01*
X144527091Y-63622648D01*
X141812000Y-66337740D01*
X141812000Y-57164630D01*
X149294721Y-64647352D01*
X149318578Y-64676422D01*
X149434608Y-64771645D01*
X149566985Y-64842402D01*
X149710622Y-64885974D01*
X149822574Y-64897000D01*
X149822576Y-64897000D01*
X149859999Y-64900686D01*
X149897422Y-64897000D01*
X159715920Y-64897000D01*
X159721082Y-64909463D01*
X159900013Y-65177252D01*
X160127748Y-65404987D01*
X160395537Y-65583918D01*
X160693088Y-65707168D01*
X161008967Y-65770000D01*
X161331033Y-65770000D01*
X161646912Y-65707168D01*
X161944463Y-65583918D01*
X162212252Y-65404987D01*
X162439987Y-65177252D01*
X162618918Y-64909463D01*
X162742168Y-64611912D01*
X162805000Y-64296033D01*
X162805000Y-63973967D01*
X162742168Y-63658088D01*
X162618918Y-63360537D01*
X162439987Y-63092748D01*
X162212252Y-62865013D01*
X161944463Y-62686082D01*
X161646912Y-62562832D01*
X161331033Y-62500000D01*
X161008967Y-62500000D01*
X160693088Y-62562832D01*
X160395537Y-62686082D01*
X160127748Y-62865013D01*
X159900013Y-63092748D01*
X159721082Y-63360537D01*
X159715920Y-63373000D01*
X150175631Y-63373000D01*
X143002000Y-56199370D01*
X143002000Y-45325630D01*
X143146086Y-45181545D01*
X143249087Y-45212790D01*
X143550000Y-45242427D01*
X143850912Y-45212790D01*
X144140260Y-45125017D01*
X144406926Y-44982481D01*
X144640661Y-44790661D01*
X144832481Y-44556927D01*
X144975017Y-44290261D01*
X145062790Y-44000913D01*
X145085000Y-43775408D01*
X145085000Y-43424593D01*
X145062790Y-43199088D01*
X145004824Y-43008000D01*
X147095176Y-43008000D01*
X147037210Y-43199087D01*
X147015000Y-43424592D01*
X147015000Y-43775407D01*
X147037210Y-44000912D01*
X147124983Y-44290260D01*
X147267519Y-44556926D01*
X147459339Y-44790661D01*
X147693073Y-44982481D01*
X147959739Y-45125017D01*
X148249087Y-45212790D01*
X148550000Y-45242427D01*
X148850912Y-45212790D01*
X149140260Y-45125017D01*
X149406926Y-44982481D01*
X149640661Y-44790661D01*
X149800000Y-44596505D01*
X149959339Y-44790661D01*
X150193073Y-44982481D01*
X150459739Y-45125017D01*
X150749087Y-45212790D01*
X151050000Y-45242427D01*
X151350912Y-45212790D01*
X151640260Y-45125017D01*
X151906926Y-44982481D01*
X152140661Y-44790661D01*
X152332481Y-44556927D01*
X152475017Y-44290261D01*
X152562790Y-44000913D01*
X152585000Y-43775408D01*
X152585000Y-43424593D01*
X152562790Y-43199088D01*
X152504824Y-43008000D01*
X153566370Y-43008000D01*
X154570721Y-44012352D01*
X154594578Y-44041422D01*
X154623648Y-44065279D01*
X154710607Y-44136645D01*
X154762298Y-44164274D01*
X154842985Y-44207402D01*
X154880176Y-44218684D01*
X155007519Y-44456926D01*
X155199339Y-44690661D01*
X155433073Y-44882481D01*
X155699739Y-45025017D01*
X155989087Y-45112790D01*
X156290000Y-45142427D01*
X156590912Y-45112790D01*
X156880260Y-45025017D01*
X157146926Y-44882481D01*
X157380661Y-44690661D01*
X157540000Y-44496505D01*
X157699339Y-44690661D01*
X157933073Y-44882481D01*
X158199739Y-45025017D01*
X158489087Y-45112790D01*
X158790000Y-45142427D01*
X159090912Y-45112790D01*
X159380260Y-45025017D01*
X159646926Y-44882481D01*
X159880661Y-44690661D01*
X160072481Y-44456927D01*
X160215017Y-44190261D01*
X160302790Y-43900913D01*
X160325000Y-43675408D01*
X160325000Y-43324593D01*
X160302790Y-43099088D01*
X160215017Y-42809740D01*
X160072481Y-42543073D01*
X159880661Y-42309339D01*
X159646927Y-42117519D01*
X159380261Y-41974983D01*
X159090913Y-41887210D01*
X158790000Y-41857573D01*
X158489088Y-41887210D01*
X158199740Y-41974983D01*
X157933074Y-42117519D01*
X157699339Y-42309339D01*
X157540000Y-42503495D01*
X157380661Y-42309339D01*
X157146927Y-42117519D01*
X156880261Y-41974983D01*
X156590913Y-41887210D01*
X156290000Y-41857573D01*
X155989088Y-41887210D01*
X155699740Y-41974983D01*
X155433074Y-42117519D01*
X155199339Y-42309339D01*
X155119840Y-42406209D01*
X154447284Y-41733654D01*
X154423422Y-41704578D01*
X154307392Y-41609355D01*
X154175015Y-41538598D01*
X154031378Y-41495026D01*
X153919426Y-41484000D01*
X153919423Y-41484000D01*
X153882000Y-41480314D01*
X153844577Y-41484000D01*
X66423631Y-41484000D01*
X66505631Y-41402000D01*
X163214370Y-41402000D01*
X163680707Y-41868337D01*
X163489088Y-41887210D01*
X163199740Y-41974983D01*
X162933074Y-42117519D01*
X162699339Y-42309339D01*
X162507519Y-42543073D01*
X162364983Y-42809739D01*
X162277210Y-43099087D01*
X162255000Y-43324592D01*
X162255000Y-43675407D01*
X162277210Y-43900912D01*
X162364983Y-44190260D01*
X162507519Y-44456926D01*
X162699339Y-44690661D01*
X162933073Y-44882481D01*
X163199739Y-45025017D01*
X163489087Y-45112790D01*
X163790000Y-45142427D01*
X164090912Y-45112790D01*
X164380260Y-45025017D01*
X164646926Y-44882481D01*
X164880661Y-44690661D01*
X165040000Y-44496505D01*
X165199339Y-44690661D01*
X165433073Y-44882481D01*
X165699739Y-45025017D01*
X165989087Y-45112790D01*
X166290000Y-45142427D01*
X166590912Y-45112790D01*
X166880260Y-45025017D01*
X167146926Y-44882481D01*
X167380661Y-44690661D01*
X167572481Y-44456927D01*
X167715017Y-44190261D01*
X167802790Y-43900913D01*
X167825000Y-43675408D01*
X167825000Y-43324593D01*
X167802790Y-43099088D01*
X167715017Y-42809740D01*
X167572481Y-42543073D01*
X167380661Y-42309339D01*
X167146927Y-42117519D01*
X166880261Y-41974983D01*
X166590913Y-41887210D01*
X166290000Y-41857573D01*
X165989088Y-41887210D01*
X165886086Y-41918455D01*
X164095284Y-40127654D01*
X164071422Y-40098578D01*
X163955392Y-40003355D01*
X163823015Y-39932598D01*
X163679378Y-39889026D01*
X163567426Y-39878000D01*
X163567423Y-39878000D01*
X163530000Y-39874314D01*
X163492577Y-39878000D01*
X66227423Y-39878000D01*
X66190000Y-39874314D01*
X66152577Y-39878000D01*
X66152574Y-39878000D01*
X66040622Y-39889026D01*
X65896985Y-39932598D01*
X65835364Y-39965535D01*
X65764607Y-40003355D01*
X65698075Y-40057957D01*
X65648578Y-40098578D01*
X65624721Y-40127648D01*
X63807303Y-41945067D01*
X63444221Y-41581985D01*
X63455639Y-41554419D01*
X63530000Y-41180581D01*
X63530000Y-40799419D01*
X63455639Y-40425581D01*
X63309775Y-40073434D01*
X63098013Y-39756509D01*
X62828491Y-39486987D01*
X62511566Y-39275225D01*
X62159419Y-39129361D01*
X61785581Y-39055000D01*
X61404419Y-39055000D01*
X61030581Y-39129361D01*
X60678434Y-39275225D01*
X60361509Y-39486987D01*
X60091987Y-39756509D01*
X59880225Y-40073434D01*
X59734361Y-40425581D01*
X59660000Y-40799419D01*
X59660000Y-41180581D01*
X59734361Y-41554419D01*
X59880225Y-41906566D01*
X60091987Y-42223491D01*
X60361509Y-42493013D01*
X60678434Y-42704775D01*
X61030581Y-42850639D01*
X61404419Y-42925000D01*
X61785581Y-42925000D01*
X62159419Y-42850639D01*
X62186985Y-42839221D01*
X62463201Y-43115437D01*
X62463201Y-44981568D01*
X62420302Y-44840147D01*
X62416589Y-44833200D01*
X62337753Y-44685709D01*
X62262659Y-44594207D01*
X62254495Y-44584259D01*
X62254494Y-44584258D01*
X62226659Y-44550341D01*
X62192742Y-44522506D01*
X59248316Y-41578081D01*
X59245303Y-41568149D01*
X59162753Y-41413709D01*
X59051659Y-41278341D01*
X58916291Y-41167247D01*
X58761851Y-41084697D01*
X58594274Y-41033864D01*
X58463667Y-41021000D01*
X55288660Y-41021000D01*
X55245000Y-41016700D01*
X55201340Y-41021000D01*
X53073236Y-41021000D01*
X52959000Y-40906765D01*
X52959000Y-39365629D01*
X53201422Y-39564579D01*
X53502832Y-39725686D01*
X53829881Y-39824895D01*
X54170000Y-39858394D01*
X54510118Y-39824895D01*
X54837167Y-39725686D01*
X55138577Y-39564579D01*
X55402766Y-39347766D01*
X55619579Y-39083578D01*
X55780686Y-38782168D01*
X55879895Y-38455119D01*
X55905000Y-38200225D01*
X55905000Y-37924592D01*
X144515000Y-37924592D01*
X144515000Y-38275407D01*
X144537210Y-38500912D01*
X144624983Y-38790260D01*
X144767519Y-39056926D01*
X144959339Y-39290661D01*
X145193073Y-39482481D01*
X145459739Y-39625017D01*
X145749087Y-39712790D01*
X146050000Y-39742427D01*
X146350912Y-39712790D01*
X146640260Y-39625017D01*
X146906926Y-39482481D01*
X147140661Y-39290661D01*
X147332481Y-39056927D01*
X147475017Y-38790261D01*
X147562790Y-38500913D01*
X147576016Y-38366620D01*
X159779224Y-38366620D01*
X159860268Y-38656235D01*
X159996256Y-38924474D01*
X160181962Y-39161029D01*
X160410249Y-39356809D01*
X160672344Y-39504291D01*
X160925260Y-39591036D01*
X161163000Y-39470378D01*
X161163000Y-38127000D01*
X161417000Y-38127000D01*
X161417000Y-39470378D01*
X161654740Y-39591036D01*
X161907656Y-39504291D01*
X162169751Y-39356809D01*
X162398038Y-39161029D01*
X162583744Y-38924474D01*
X162719732Y-38656235D01*
X162800776Y-38366620D01*
X162665134Y-38127000D01*
X161417000Y-38127000D01*
X161163000Y-38127000D01*
X159914866Y-38127000D01*
X159779224Y-38366620D01*
X147576016Y-38366620D01*
X147585000Y-38275408D01*
X147585000Y-37924593D01*
X147562790Y-37699088D01*
X147542858Y-37633380D01*
X159779224Y-37633380D01*
X159914866Y-37873000D01*
X161163000Y-37873000D01*
X161163000Y-36529622D01*
X161417000Y-36529622D01*
X161417000Y-37873000D01*
X162665134Y-37873000D01*
X162800776Y-37633380D01*
X162719732Y-37343765D01*
X162583744Y-37075526D01*
X162398038Y-36838971D01*
X162169751Y-36643191D01*
X161907656Y-36495709D01*
X161654740Y-36408964D01*
X161417000Y-36529622D01*
X161163000Y-36529622D01*
X160925260Y-36408964D01*
X160672344Y-36495709D01*
X160410249Y-36643191D01*
X160181962Y-36838971D01*
X159996256Y-37075526D01*
X159860268Y-37343765D01*
X159779224Y-37633380D01*
X147542858Y-37633380D01*
X147475017Y-37409740D01*
X147332481Y-37143073D01*
X147140661Y-36909339D01*
X146906927Y-36717519D01*
X146640261Y-36574983D01*
X146350913Y-36487210D01*
X146050000Y-36457573D01*
X145749088Y-36487210D01*
X145459740Y-36574983D01*
X145193074Y-36717519D01*
X144959339Y-36909339D01*
X144767519Y-37143073D01*
X144624983Y-37409739D01*
X144537210Y-37699087D01*
X144515000Y-37924592D01*
X55905000Y-37924592D01*
X55905000Y-36729775D01*
X55879895Y-36474881D01*
X55780686Y-36147832D01*
X55619579Y-35846422D01*
X55466587Y-35660000D01*
X171585664Y-35660000D01*
X171281971Y-35785794D01*
X170687922Y-36182725D01*
X170182725Y-36687922D01*
X169785794Y-37281971D01*
X169512383Y-37942043D01*
X169373000Y-38642772D01*
X169373000Y-39357228D01*
X169512383Y-40057957D01*
X169785794Y-40718029D01*
X170182725Y-41312078D01*
X170687922Y-41817275D01*
X171281971Y-42214206D01*
X171942043Y-42487617D01*
X172642772Y-42627000D01*
X173357228Y-42627000D01*
X174057957Y-42487617D01*
X174718029Y-42214206D01*
X175312078Y-41817275D01*
X175817275Y-41312078D01*
X176214206Y-40718029D01*
X176340000Y-40414336D01*
X176340001Y-98585667D01*
X176214206Y-98281971D01*
X175817275Y-97687922D01*
X175312078Y-97182725D01*
X174718029Y-96785794D01*
X174057957Y-96512383D01*
X173357228Y-96373000D01*
X172642772Y-96373000D01*
X171942043Y-96512383D01*
X171281971Y-96785794D01*
X170687922Y-97182725D01*
X170182725Y-97687922D01*
X169785794Y-98281971D01*
X169512383Y-98942043D01*
X169373000Y-99642772D01*
X169373000Y-100357228D01*
X169512383Y-101057957D01*
X169785794Y-101718029D01*
X170182725Y-102312078D01*
X170687922Y-102817275D01*
X171281971Y-103214206D01*
X171585664Y-103340000D01*
X117617128Y-103340000D01*
X117763957Y-103120254D01*
X117870623Y-102862740D01*
X117925000Y-102589365D01*
X117925000Y-102310635D01*
X117870623Y-102037260D01*
X117763957Y-101779746D01*
X117609103Y-101547990D01*
X117498521Y-101437408D01*
X137053000Y-101437408D01*
X137053000Y-101712592D01*
X137106686Y-101982490D01*
X137211995Y-102236727D01*
X137364880Y-102465535D01*
X137559465Y-102660120D01*
X137788273Y-102813005D01*
X138042510Y-102918314D01*
X138312408Y-102972000D01*
X138587592Y-102972000D01*
X138857490Y-102918314D01*
X139111727Y-102813005D01*
X139340535Y-102660120D01*
X139460090Y-102540565D01*
X140184040Y-102540565D01*
X140251020Y-102780656D01*
X140500048Y-102897756D01*
X140767135Y-102964023D01*
X141042017Y-102976910D01*
X141314133Y-102935922D01*
X141573023Y-102842636D01*
X141688980Y-102780656D01*
X141755960Y-102540565D01*
X140970000Y-101754605D01*
X140184040Y-102540565D01*
X139460090Y-102540565D01*
X139535120Y-102465535D01*
X139688005Y-102236727D01*
X139707974Y-102188518D01*
X139764344Y-102293980D01*
X140004435Y-102360960D01*
X140790395Y-101575000D01*
X141149605Y-101575000D01*
X141935565Y-102360960D01*
X142175656Y-102293980D01*
X142239485Y-102158240D01*
X142271995Y-102236727D01*
X142424880Y-102465535D01*
X142619465Y-102660120D01*
X142848273Y-102813005D01*
X143102510Y-102918314D01*
X143372408Y-102972000D01*
X143647592Y-102972000D01*
X143917490Y-102918314D01*
X144171727Y-102813005D01*
X144400535Y-102660120D01*
X144595120Y-102465535D01*
X144748005Y-102236727D01*
X144853314Y-101982490D01*
X144907000Y-101712592D01*
X144907000Y-101437408D01*
X149733000Y-101437408D01*
X149733000Y-101712592D01*
X149786686Y-101982490D01*
X149891995Y-102236727D01*
X150044880Y-102465535D01*
X150239465Y-102660120D01*
X150468273Y-102813005D01*
X150722510Y-102918314D01*
X150992408Y-102972000D01*
X151267592Y-102972000D01*
X151537490Y-102918314D01*
X151791727Y-102813005D01*
X152020535Y-102660120D01*
X152140090Y-102540565D01*
X152884040Y-102540565D01*
X152951020Y-102780656D01*
X153200048Y-102897756D01*
X153467135Y-102964023D01*
X153742017Y-102976910D01*
X154014133Y-102935922D01*
X154273023Y-102842636D01*
X154388980Y-102780656D01*
X154455960Y-102540565D01*
X153670000Y-101754605D01*
X152884040Y-102540565D01*
X152140090Y-102540565D01*
X152215120Y-102465535D01*
X152368005Y-102236727D01*
X152397692Y-102165057D01*
X152402364Y-102178023D01*
X152464344Y-102293980D01*
X152704435Y-102360960D01*
X153490395Y-101575000D01*
X153849605Y-101575000D01*
X154635565Y-102360960D01*
X154875656Y-102293980D01*
X154992756Y-102044952D01*
X155059023Y-101777865D01*
X155071910Y-101502983D01*
X155030922Y-101230867D01*
X154937636Y-100971977D01*
X154875656Y-100856020D01*
X154635565Y-100789040D01*
X153849605Y-101575000D01*
X153490395Y-101575000D01*
X152704435Y-100789040D01*
X152464344Y-100856020D01*
X152400515Y-100991760D01*
X152368005Y-100913273D01*
X152215120Y-100684465D01*
X152140090Y-100609435D01*
X152884040Y-100609435D01*
X153670000Y-101395395D01*
X154455960Y-100609435D01*
X154436333Y-100539080D01*
X159175525Y-100539080D01*
X159259208Y-100793261D01*
X159531775Y-100924158D01*
X159824642Y-100999365D01*
X160126553Y-101015991D01*
X160425907Y-100973397D01*
X160711199Y-100873222D01*
X160860792Y-100793261D01*
X160944475Y-100539080D01*
X160060000Y-99654605D01*
X159175525Y-100539080D01*
X154436333Y-100539080D01*
X154388980Y-100369344D01*
X154139952Y-100252244D01*
X153872865Y-100185977D01*
X153597983Y-100173090D01*
X153325867Y-100214078D01*
X153066977Y-100307364D01*
X152951020Y-100369344D01*
X152884040Y-100609435D01*
X152140090Y-100609435D01*
X152020535Y-100489880D01*
X151791727Y-100336995D01*
X151537490Y-100231686D01*
X151267592Y-100178000D01*
X150992408Y-100178000D01*
X150722510Y-100231686D01*
X150468273Y-100336995D01*
X150239465Y-100489880D01*
X150044880Y-100684465D01*
X149891995Y-100913273D01*
X149786686Y-101167510D01*
X149733000Y-101437408D01*
X144907000Y-101437408D01*
X144853314Y-101167510D01*
X144748005Y-100913273D01*
X144595120Y-100684465D01*
X144400535Y-100489880D01*
X144171727Y-100336995D01*
X143917490Y-100231686D01*
X143647592Y-100178000D01*
X143372408Y-100178000D01*
X143102510Y-100231686D01*
X142848273Y-100336995D01*
X142619465Y-100489880D01*
X142424880Y-100684465D01*
X142271995Y-100913273D01*
X142242308Y-100984943D01*
X142237636Y-100971977D01*
X142175656Y-100856020D01*
X141935565Y-100789040D01*
X141149605Y-101575000D01*
X140790395Y-101575000D01*
X140004435Y-100789040D01*
X139764344Y-100856020D01*
X139711149Y-100969147D01*
X139688005Y-100913273D01*
X139535120Y-100684465D01*
X139460090Y-100609435D01*
X140184040Y-100609435D01*
X140970000Y-101395395D01*
X141755960Y-100609435D01*
X141688980Y-100369344D01*
X141439952Y-100252244D01*
X141172865Y-100185977D01*
X140897983Y-100173090D01*
X140625867Y-100214078D01*
X140366977Y-100307364D01*
X140251020Y-100369344D01*
X140184040Y-100609435D01*
X139460090Y-100609435D01*
X139340535Y-100489880D01*
X139111727Y-100336995D01*
X138857490Y-100231686D01*
X138587592Y-100178000D01*
X138312408Y-100178000D01*
X138042510Y-100231686D01*
X137788273Y-100336995D01*
X137559465Y-100489880D01*
X137364880Y-100684465D01*
X137211995Y-100913273D01*
X137106686Y-101167510D01*
X137053000Y-101437408D01*
X117498521Y-101437408D01*
X117412010Y-101350897D01*
X117180254Y-101196043D01*
X117141523Y-101180000D01*
X117180254Y-101163957D01*
X117412010Y-101009103D01*
X117609103Y-100812010D01*
X117763957Y-100580254D01*
X117870623Y-100322740D01*
X117925000Y-100049365D01*
X117925000Y-99770635D01*
X117870623Y-99497260D01*
X117763957Y-99239746D01*
X117609103Y-99007990D01*
X117412010Y-98810897D01*
X117180254Y-98656043D01*
X116922740Y-98549377D01*
X116649365Y-98495000D01*
X116370635Y-98495000D01*
X116097260Y-98549377D01*
X115839746Y-98656043D01*
X115607990Y-98810897D01*
X115410897Y-99007990D01*
X115256043Y-99239746D01*
X115240000Y-99278477D01*
X115223957Y-99239746D01*
X115069103Y-99007990D01*
X114872010Y-98810897D01*
X114640254Y-98656043D01*
X114382740Y-98549377D01*
X114109365Y-98495000D01*
X113830635Y-98495000D01*
X113557260Y-98549377D01*
X113299746Y-98656043D01*
X113067990Y-98810897D01*
X112870897Y-99007990D01*
X112716043Y-99239746D01*
X112700000Y-99278477D01*
X112683957Y-99239746D01*
X112529103Y-99007990D01*
X112332010Y-98810897D01*
X112100254Y-98656043D01*
X111842740Y-98549377D01*
X111569365Y-98495000D01*
X111290635Y-98495000D01*
X111017260Y-98549377D01*
X110759746Y-98656043D01*
X110527990Y-98810897D01*
X110330897Y-99007990D01*
X110176043Y-99239746D01*
X110160000Y-99278477D01*
X110143957Y-99239746D01*
X109989103Y-99007990D01*
X109792010Y-98810897D01*
X109560254Y-98656043D01*
X109302740Y-98549377D01*
X109029365Y-98495000D01*
X108750635Y-98495000D01*
X108477260Y-98549377D01*
X108219746Y-98656043D01*
X107987990Y-98810897D01*
X107790897Y-99007990D01*
X107636043Y-99239746D01*
X107620000Y-99278477D01*
X107603957Y-99239746D01*
X107449103Y-99007990D01*
X107252010Y-98810897D01*
X107020254Y-98656043D01*
X106762740Y-98549377D01*
X106489365Y-98495000D01*
X106210635Y-98495000D01*
X105937260Y-98549377D01*
X105679746Y-98656043D01*
X105447990Y-98810897D01*
X105250897Y-99007990D01*
X105096043Y-99239746D01*
X105081223Y-99275525D01*
X105030349Y-99180345D01*
X104788421Y-99111184D01*
X103989605Y-99910000D01*
X104788421Y-100708816D01*
X105030349Y-100639655D01*
X105078425Y-100537721D01*
X105096043Y-100580254D01*
X105250897Y-100812010D01*
X105447990Y-101009103D01*
X105613400Y-101119626D01*
X105613401Y-101240374D01*
X105447990Y-101350897D01*
X105250897Y-101547990D01*
X105096043Y-101779746D01*
X105081223Y-101815525D01*
X105030349Y-101720345D01*
X104788421Y-101651184D01*
X103989605Y-102450000D01*
X104003748Y-102464143D01*
X103824143Y-102643748D01*
X103810000Y-102629605D01*
X103795858Y-102643748D01*
X103616253Y-102464143D01*
X103630395Y-102450000D01*
X102831579Y-101651184D01*
X102589651Y-101720345D01*
X102541575Y-101822279D01*
X102523957Y-101779746D01*
X102369103Y-101547990D01*
X102172010Y-101350897D01*
X102006600Y-101240374D01*
X102006600Y-101119626D01*
X102172010Y-101009103D01*
X102292692Y-100888421D01*
X103011184Y-100888421D01*
X103080345Y-101130349D01*
X103179041Y-101176898D01*
X103080345Y-101229651D01*
X103011184Y-101471579D01*
X103810000Y-102270395D01*
X104608816Y-101471579D01*
X104539655Y-101229651D01*
X104440959Y-101183102D01*
X104539655Y-101130349D01*
X104608816Y-100888421D01*
X103810000Y-100089605D01*
X103011184Y-100888421D01*
X102292692Y-100888421D01*
X102369103Y-100812010D01*
X102523957Y-100580254D01*
X102538777Y-100544475D01*
X102589651Y-100639655D01*
X102831579Y-100708816D01*
X103630395Y-99910000D01*
X102831579Y-99111184D01*
X102589651Y-99180345D01*
X102541575Y-99282279D01*
X102523957Y-99239746D01*
X102369103Y-99007990D01*
X102292692Y-98931579D01*
X103011184Y-98931579D01*
X103810000Y-99730395D01*
X104608816Y-98931579D01*
X104539655Y-98689651D01*
X104287557Y-98570752D01*
X104017106Y-98503319D01*
X103738697Y-98489943D01*
X103463028Y-98531140D01*
X103200692Y-98625325D01*
X103080345Y-98689651D01*
X103011184Y-98931579D01*
X102292692Y-98931579D01*
X102172010Y-98810897D01*
X101940254Y-98656043D01*
X101682740Y-98549377D01*
X101409365Y-98495000D01*
X101130635Y-98495000D01*
X100857260Y-98549377D01*
X100599746Y-98656043D01*
X100367990Y-98810897D01*
X100170897Y-99007990D01*
X100016043Y-99239746D01*
X100000000Y-99278477D01*
X99983957Y-99239746D01*
X99829103Y-99007990D01*
X99632010Y-98810897D01*
X99400254Y-98656043D01*
X99142740Y-98549377D01*
X98869365Y-98495000D01*
X98590635Y-98495000D01*
X98317260Y-98549377D01*
X98059746Y-98656043D01*
X97827990Y-98810897D01*
X97630897Y-99007990D01*
X97476043Y-99239746D01*
X97460000Y-99278477D01*
X97443957Y-99239746D01*
X97289103Y-99007990D01*
X97092010Y-98810897D01*
X96860254Y-98656043D01*
X96602740Y-98549377D01*
X96329365Y-98495000D01*
X96050635Y-98495000D01*
X95777260Y-98549377D01*
X95519746Y-98656043D01*
X95287990Y-98810897D01*
X95090897Y-99007990D01*
X94936043Y-99239746D01*
X94920000Y-99278477D01*
X94903957Y-99239746D01*
X94749103Y-99007990D01*
X94552010Y-98810897D01*
X94320254Y-98656043D01*
X94062740Y-98549377D01*
X93789365Y-98495000D01*
X93510635Y-98495000D01*
X93237260Y-98549377D01*
X92979746Y-98656043D01*
X92747990Y-98810897D01*
X92550897Y-99007990D01*
X92396043Y-99239746D01*
X92380000Y-99278477D01*
X92363957Y-99239746D01*
X92209103Y-99007990D01*
X92012010Y-98810897D01*
X91780254Y-98656043D01*
X91522740Y-98549377D01*
X91249365Y-98495000D01*
X90970635Y-98495000D01*
X90697260Y-98549377D01*
X90439746Y-98656043D01*
X90207990Y-98810897D01*
X90010897Y-99007990D01*
X89856043Y-99239746D01*
X89840000Y-99278477D01*
X89823957Y-99239746D01*
X89669103Y-99007990D01*
X89472010Y-98810897D01*
X89240254Y-98656043D01*
X88982740Y-98549377D01*
X88709365Y-98495000D01*
X88430635Y-98495000D01*
X88157260Y-98549377D01*
X87899746Y-98656043D01*
X87667990Y-98810897D01*
X87470897Y-99007990D01*
X87316043Y-99239746D01*
X87300000Y-99278477D01*
X87283957Y-99239746D01*
X87129103Y-99007990D01*
X86932010Y-98810897D01*
X86700254Y-98656043D01*
X86442740Y-98549377D01*
X86169365Y-98495000D01*
X85890635Y-98495000D01*
X85617260Y-98549377D01*
X85359746Y-98656043D01*
X85127990Y-98810897D01*
X84930897Y-99007990D01*
X84776043Y-99239746D01*
X84760000Y-99278477D01*
X84743957Y-99239746D01*
X84589103Y-99007990D01*
X84392010Y-98810897D01*
X84160254Y-98656043D01*
X83902740Y-98549377D01*
X83629365Y-98495000D01*
X83350635Y-98495000D01*
X83077260Y-98549377D01*
X82819746Y-98656043D01*
X82587990Y-98810897D01*
X82390897Y-99007990D01*
X82236043Y-99239746D01*
X82220000Y-99278477D01*
X82203957Y-99239746D01*
X82049103Y-99007990D01*
X81852010Y-98810897D01*
X81620254Y-98656043D01*
X81362740Y-98549377D01*
X81089365Y-98495000D01*
X80810635Y-98495000D01*
X80537260Y-98549377D01*
X80279746Y-98656043D01*
X80047990Y-98810897D01*
X79850897Y-99007990D01*
X79696043Y-99239746D01*
X79680000Y-99278477D01*
X79663957Y-99239746D01*
X79509103Y-99007990D01*
X79312010Y-98810897D01*
X79080254Y-98656043D01*
X78822740Y-98549377D01*
X78549365Y-98495000D01*
X78270635Y-98495000D01*
X77997260Y-98549377D01*
X77739746Y-98656043D01*
X77507990Y-98810897D01*
X77310897Y-99007990D01*
X77156043Y-99239746D01*
X77140000Y-99278477D01*
X77123957Y-99239746D01*
X76969103Y-99007990D01*
X76772010Y-98810897D01*
X76540254Y-98656043D01*
X76282740Y-98549377D01*
X76009365Y-98495000D01*
X75730635Y-98495000D01*
X75457260Y-98549377D01*
X75199746Y-98656043D01*
X74967990Y-98810897D01*
X74770897Y-99007990D01*
X74616043Y-99239746D01*
X74600000Y-99278477D01*
X74583957Y-99239746D01*
X74429103Y-99007990D01*
X74232010Y-98810897D01*
X74000254Y-98656043D01*
X73742740Y-98549377D01*
X73469365Y-98495000D01*
X73190635Y-98495000D01*
X72917260Y-98549377D01*
X72659746Y-98656043D01*
X72427990Y-98810897D01*
X72230897Y-99007990D01*
X72200531Y-99053436D01*
X72195812Y-99005518D01*
X72159502Y-98885820D01*
X72100537Y-98775506D01*
X72021185Y-98678815D01*
X71924494Y-98599463D01*
X71814180Y-98540498D01*
X71694482Y-98504188D01*
X71570000Y-98491928D01*
X70010000Y-98491928D01*
X69885518Y-98504188D01*
X69765820Y-98540498D01*
X69655506Y-98599463D01*
X69558815Y-98678815D01*
X69479463Y-98775506D01*
X69420498Y-98885820D01*
X69384188Y-99005518D01*
X69371928Y-99130000D01*
X69371928Y-100690000D01*
X69384188Y-100814482D01*
X69420498Y-100934180D01*
X69479463Y-101044494D01*
X69558815Y-101141185D01*
X69606111Y-101180000D01*
X69558815Y-101218815D01*
X69479463Y-101315506D01*
X69420498Y-101425820D01*
X69384188Y-101545518D01*
X69371928Y-101670000D01*
X69371928Y-103230000D01*
X69382762Y-103340000D01*
X41414336Y-103340000D01*
X41718029Y-103214206D01*
X42312078Y-102817275D01*
X42817275Y-102312078D01*
X43214206Y-101718029D01*
X43487617Y-101057957D01*
X43627000Y-100357228D01*
X43627000Y-99642772D01*
X43528983Y-99150000D01*
X44886928Y-99150000D01*
X44886928Y-100850000D01*
X44899188Y-100974482D01*
X44935498Y-101094180D01*
X44994463Y-101204494D01*
X45073815Y-101301185D01*
X45170506Y-101380537D01*
X45280820Y-101439502D01*
X45400518Y-101475812D01*
X45525000Y-101488072D01*
X47225000Y-101488072D01*
X47349482Y-101475812D01*
X47469180Y-101439502D01*
X47579494Y-101380537D01*
X47676185Y-101301185D01*
X47755537Y-101204494D01*
X47814502Y-101094180D01*
X47838966Y-101013534D01*
X47914731Y-101097588D01*
X48148080Y-101271641D01*
X48410901Y-101396825D01*
X48558110Y-101441476D01*
X48788000Y-101320155D01*
X48788000Y-100127000D01*
X49042000Y-100127000D01*
X49042000Y-101320155D01*
X49271890Y-101441476D01*
X49419099Y-101396825D01*
X49681920Y-101271641D01*
X49915269Y-101097588D01*
X50110178Y-100881355D01*
X50259157Y-100631252D01*
X50356481Y-100356891D01*
X50235814Y-100127000D01*
X49042000Y-100127000D01*
X48788000Y-100127000D01*
X48768000Y-100127000D01*
X48768000Y-99873000D01*
X48788000Y-99873000D01*
X48788000Y-99853000D01*
X49042000Y-99853000D01*
X49042000Y-99873000D01*
X50235814Y-99873000D01*
X50356481Y-99643109D01*
X50316713Y-99531000D01*
X53141928Y-99531000D01*
X53141928Y-100850000D01*
X53154188Y-100974482D01*
X53190498Y-101094180D01*
X53249463Y-101204494D01*
X53328815Y-101301185D01*
X53425506Y-101380537D01*
X53535820Y-101439502D01*
X53655518Y-101475812D01*
X53780000Y-101488072D01*
X55480000Y-101488072D01*
X55604482Y-101475812D01*
X55724180Y-101439502D01*
X55834494Y-101380537D01*
X55931185Y-101301185D01*
X56010537Y-101204494D01*
X56069502Y-101094180D01*
X56090393Y-101025313D01*
X56114866Y-101055134D01*
X56340986Y-101240706D01*
X56598966Y-101378599D01*
X56878889Y-101463513D01*
X57097050Y-101485000D01*
X57242950Y-101485000D01*
X57461111Y-101463513D01*
X57741034Y-101378599D01*
X57999014Y-101240706D01*
X58225134Y-101055134D01*
X58410706Y-100829014D01*
X58548599Y-100571034D01*
X58633513Y-100291111D01*
X58662185Y-100000000D01*
X58633513Y-99708889D01*
X58548599Y-99428966D01*
X58410706Y-99170986D01*
X58225134Y-98944866D01*
X57999014Y-98759294D01*
X57741034Y-98621401D01*
X57461111Y-98536487D01*
X57242950Y-98515000D01*
X57097050Y-98515000D01*
X56878889Y-98536487D01*
X56598966Y-98621401D01*
X56340986Y-98759294D01*
X56114866Y-98944866D01*
X56090393Y-98974687D01*
X56069502Y-98905820D01*
X56010537Y-98795506D01*
X55931185Y-98698815D01*
X55875840Y-98653395D01*
X56420495Y-98108741D01*
X56420500Y-98108735D01*
X57857741Y-96671494D01*
X57891659Y-96643659D01*
X58002753Y-96508291D01*
X58085303Y-96353851D01*
X58105452Y-96287426D01*
X58136136Y-96186276D01*
X58144572Y-96100622D01*
X58149000Y-96055667D01*
X58149000Y-96055661D01*
X58153300Y-96012001D01*
X58149000Y-95968341D01*
X58149000Y-95086146D01*
X58150535Y-95085120D01*
X58345120Y-94890535D01*
X58498005Y-94661727D01*
X58603314Y-94407490D01*
X58657000Y-94137592D01*
X58657000Y-93862408D01*
X58603314Y-93592510D01*
X58498005Y-93338273D01*
X58345120Y-93109465D01*
X58150535Y-92914880D01*
X57921727Y-92761995D01*
X57667490Y-92656686D01*
X57397592Y-92603000D01*
X57122408Y-92603000D01*
X56852510Y-92656686D01*
X56598273Y-92761995D01*
X56369465Y-92914880D01*
X56174880Y-93109465D01*
X56021995Y-93338273D01*
X55916686Y-93592510D01*
X55863000Y-93862408D01*
X55863000Y-94137592D01*
X55916686Y-94407490D01*
X56021995Y-94661727D01*
X56174880Y-94890535D01*
X56369465Y-95085120D01*
X56371001Y-95086146D01*
X56371001Y-95643763D01*
X55163264Y-96851501D01*
X55163259Y-96851505D01*
X54261765Y-97753000D01*
X54255660Y-97753000D01*
X54212000Y-97748700D01*
X54168340Y-97753000D01*
X47776659Y-97753000D01*
X47732999Y-97748700D01*
X47689339Y-97753000D01*
X47689333Y-97753000D01*
X47577073Y-97764057D01*
X47558725Y-97765864D01*
X47522621Y-97776816D01*
X47391149Y-97816697D01*
X47236709Y-97899247D01*
X47101341Y-98010341D01*
X47073506Y-98044259D01*
X46605836Y-98511928D01*
X45525000Y-98511928D01*
X45400518Y-98524188D01*
X45280820Y-98560498D01*
X45170506Y-98619463D01*
X45073815Y-98698815D01*
X44994463Y-98795506D01*
X44935498Y-98905820D01*
X44899188Y-99025518D01*
X44886928Y-99150000D01*
X43528983Y-99150000D01*
X43487617Y-98942043D01*
X43214206Y-98281971D01*
X42817275Y-97687922D01*
X42312078Y-97182725D01*
X41718029Y-96785794D01*
X41057957Y-96512383D01*
X40357228Y-96373000D01*
X39642772Y-96373000D01*
X38942043Y-96512383D01*
X38281971Y-96785794D01*
X37687922Y-97182725D01*
X37182725Y-97687922D01*
X36785794Y-98281971D01*
X36660000Y-98585664D01*
X36660000Y-94965565D01*
X38474040Y-94965565D01*
X38541020Y-95205656D01*
X38790048Y-95322756D01*
X39057135Y-95389023D01*
X39332017Y-95401910D01*
X39604133Y-95360922D01*
X39863023Y-95267636D01*
X39978980Y-95205656D01*
X40045960Y-94965565D01*
X39260000Y-94179605D01*
X38474040Y-94965565D01*
X36660000Y-94965565D01*
X36660000Y-94072017D01*
X37858090Y-94072017D01*
X37899078Y-94344133D01*
X37992364Y-94603023D01*
X38054344Y-94718980D01*
X38294435Y-94785960D01*
X39080395Y-94000000D01*
X39439605Y-94000000D01*
X40225565Y-94785960D01*
X40465656Y-94718980D01*
X40582756Y-94469952D01*
X40649023Y-94202865D01*
X40661910Y-93927983D01*
X40620922Y-93655867D01*
X40527636Y-93396977D01*
X40465656Y-93281020D01*
X40225565Y-93214040D01*
X39439605Y-94000000D01*
X39080395Y-94000000D01*
X38294435Y-93214040D01*
X38054344Y-93281020D01*
X37937244Y-93530048D01*
X37870977Y-93797135D01*
X37858090Y-94072017D01*
X36660000Y-94072017D01*
X36660000Y-93034435D01*
X38474040Y-93034435D01*
X39260000Y-93820395D01*
X40045960Y-93034435D01*
X39978980Y-92794344D01*
X39729952Y-92677244D01*
X39462865Y-92610977D01*
X39187983Y-92598090D01*
X38915867Y-92639078D01*
X38656977Y-92732364D01*
X38541020Y-92794344D01*
X38474040Y-93034435D01*
X36660000Y-93034435D01*
X36660000Y-40414336D01*
X36785794Y-40718029D01*
X37182725Y-41312078D01*
X37687922Y-41817275D01*
X38281971Y-42214206D01*
X38942043Y-42487617D01*
X39642772Y-42627000D01*
X40357228Y-42627000D01*
X41057957Y-42487617D01*
X41718029Y-42214206D01*
X42312078Y-41817275D01*
X42817275Y-41312078D01*
X43214206Y-40718029D01*
X43487617Y-40057957D01*
X43627000Y-39357228D01*
X43627000Y-38642772D01*
X43487617Y-37942043D01*
X43214206Y-37281971D01*
X42817275Y-36687922D01*
X42312078Y-36182725D01*
X41718029Y-35785794D01*
X41414336Y-35660000D01*
X44673414Y-35660000D01*
X44520422Y-35846422D01*
M02*
