G04 #@! TF.GenerationSoftware,KiCad,Pcbnew,(5.1.4)-1*
G04 #@! TF.CreationDate,2019-09-15T13:59:41-04:00*
G04 #@! TF.ProjectId,MorseTutor1,4d6f7273-6554-4757-946f-72312e6b6963,rev?*
G04 #@! TF.SameCoordinates,Original*
G04 #@! TF.FileFunction,Soldermask,Top*
G04 #@! TF.FilePolarity,Negative*
%FSLAX46Y46*%
G04 Gerber Fmt 4.6, Leading zero omitted, Abs format (unit mm)*
G04 Created by KiCad (PCBNEW (5.1.4)-1) date 2019-09-15 13:59:41*
%MOMM*%
%LPD*%
G04 APERTURE LIST*
%ADD10C,0.100000*%
G04 APERTURE END LIST*
D10*
G36*
X143747086Y-100793435D02*
G01*
X143895003Y-100854704D01*
X144028134Y-100943660D01*
X144141340Y-101056866D01*
X144230296Y-101189997D01*
X144291565Y-101337914D01*
X144322800Y-101494946D01*
X144322800Y-101655054D01*
X144291565Y-101812086D01*
X144230296Y-101960003D01*
X144141340Y-102093134D01*
X144028134Y-102206340D01*
X143895003Y-102295296D01*
X143747086Y-102356565D01*
X143590054Y-102387800D01*
X143429946Y-102387800D01*
X143272914Y-102356565D01*
X143124997Y-102295296D01*
X142991866Y-102206340D01*
X142878660Y-102093134D01*
X142789704Y-101960003D01*
X142728435Y-101812086D01*
X142697200Y-101655054D01*
X142697200Y-101494946D01*
X142728435Y-101337914D01*
X142789704Y-101189997D01*
X142878660Y-101056866D01*
X142991866Y-100943660D01*
X143124997Y-100854704D01*
X143272914Y-100793435D01*
X143429946Y-100762200D01*
X143590054Y-100762200D01*
X143747086Y-100793435D01*
X143747086Y-100793435D01*
G37*
G36*
X141207086Y-100793435D02*
G01*
X141355003Y-100854704D01*
X141488134Y-100943660D01*
X141601340Y-101056866D01*
X141690296Y-101189997D01*
X141751565Y-101337914D01*
X141782800Y-101494946D01*
X141782800Y-101655054D01*
X141751565Y-101812086D01*
X141690296Y-101960003D01*
X141601340Y-102093134D01*
X141488134Y-102206340D01*
X141355003Y-102295296D01*
X141207086Y-102356565D01*
X141050054Y-102387800D01*
X140889946Y-102387800D01*
X140732914Y-102356565D01*
X140584997Y-102295296D01*
X140451866Y-102206340D01*
X140338660Y-102093134D01*
X140249704Y-101960003D01*
X140188435Y-101812086D01*
X140157200Y-101655054D01*
X140157200Y-101494946D01*
X140188435Y-101337914D01*
X140249704Y-101189997D01*
X140338660Y-101056866D01*
X140451866Y-100943660D01*
X140584997Y-100854704D01*
X140732914Y-100793435D01*
X140889946Y-100762200D01*
X141050054Y-100762200D01*
X141207086Y-100793435D01*
X141207086Y-100793435D01*
G37*
G36*
X138687086Y-100793435D02*
G01*
X138835003Y-100854704D01*
X138968134Y-100943660D01*
X139081340Y-101056866D01*
X139170296Y-101189997D01*
X139231565Y-101337914D01*
X139262800Y-101494946D01*
X139262800Y-101655054D01*
X139231565Y-101812086D01*
X139170296Y-101960003D01*
X139081340Y-102093134D01*
X138968134Y-102206340D01*
X138835003Y-102295296D01*
X138687086Y-102356565D01*
X138530054Y-102387800D01*
X138369946Y-102387800D01*
X138212914Y-102356565D01*
X138064997Y-102295296D01*
X137931866Y-102206340D01*
X137818660Y-102093134D01*
X137729704Y-101960003D01*
X137668435Y-101812086D01*
X137637200Y-101655054D01*
X137637200Y-101494946D01*
X137668435Y-101337914D01*
X137729704Y-101189997D01*
X137818660Y-101056866D01*
X137931866Y-100943660D01*
X138064997Y-100854704D01*
X138212914Y-100793435D01*
X138369946Y-100762200D01*
X138530054Y-100762200D01*
X138687086Y-100793435D01*
X138687086Y-100793435D01*
G37*
G36*
X153907086Y-100793435D02*
G01*
X154055003Y-100854704D01*
X154188134Y-100943660D01*
X154301340Y-101056866D01*
X154390296Y-101189997D01*
X154451565Y-101337914D01*
X154482800Y-101494946D01*
X154482800Y-101655054D01*
X154451565Y-101812086D01*
X154390296Y-101960003D01*
X154301340Y-102093134D01*
X154188134Y-102206340D01*
X154055003Y-102295296D01*
X153907086Y-102356565D01*
X153750054Y-102387800D01*
X153589946Y-102387800D01*
X153432914Y-102356565D01*
X153284997Y-102295296D01*
X153151866Y-102206340D01*
X153038660Y-102093134D01*
X152949704Y-101960003D01*
X152888435Y-101812086D01*
X152857200Y-101655054D01*
X152857200Y-101494946D01*
X152888435Y-101337914D01*
X152949704Y-101189997D01*
X153038660Y-101056866D01*
X153151866Y-100943660D01*
X153284997Y-100854704D01*
X153432914Y-100793435D01*
X153589946Y-100762200D01*
X153750054Y-100762200D01*
X153907086Y-100793435D01*
X153907086Y-100793435D01*
G37*
G36*
X151367086Y-100793435D02*
G01*
X151515003Y-100854704D01*
X151648134Y-100943660D01*
X151761340Y-101056866D01*
X151850296Y-101189997D01*
X151911565Y-101337914D01*
X151942800Y-101494946D01*
X151942800Y-101655054D01*
X151911565Y-101812086D01*
X151850296Y-101960003D01*
X151761340Y-102093134D01*
X151648134Y-102206340D01*
X151515003Y-102295296D01*
X151367086Y-102356565D01*
X151210054Y-102387800D01*
X151049946Y-102387800D01*
X150892914Y-102356565D01*
X150744997Y-102295296D01*
X150611866Y-102206340D01*
X150498660Y-102093134D01*
X150409704Y-101960003D01*
X150348435Y-101812086D01*
X150317200Y-101655054D01*
X150317200Y-101494946D01*
X150348435Y-101337914D01*
X150409704Y-101189997D01*
X150498660Y-101056866D01*
X150611866Y-100943660D01*
X150744997Y-100854704D01*
X150892914Y-100793435D01*
X151049946Y-100762200D01*
X151210054Y-100762200D01*
X151367086Y-100793435D01*
X151367086Y-100793435D01*
G37*
G36*
X173452352Y-98508796D02*
G01*
X173734579Y-98625699D01*
X173988578Y-98795415D01*
X174204585Y-99011422D01*
X174374301Y-99265421D01*
X174491204Y-99547648D01*
X174550800Y-99847259D01*
X174550800Y-100152741D01*
X174491204Y-100452352D01*
X174374301Y-100734579D01*
X174204585Y-100988578D01*
X173988578Y-101204585D01*
X173734579Y-101374301D01*
X173452352Y-101491204D01*
X173152741Y-101550800D01*
X172847259Y-101550800D01*
X172547648Y-101491204D01*
X172265421Y-101374301D01*
X172011422Y-101204585D01*
X171795415Y-100988578D01*
X171625699Y-100734579D01*
X171508796Y-100452352D01*
X171449200Y-100152741D01*
X171449200Y-99847259D01*
X171508796Y-99547648D01*
X171625699Y-99265421D01*
X171795415Y-99011422D01*
X172011422Y-98795415D01*
X172265421Y-98625699D01*
X172547648Y-98508796D01*
X172847259Y-98449200D01*
X173152741Y-98449200D01*
X173452352Y-98508796D01*
X173452352Y-98508796D01*
G37*
G36*
X40452352Y-98508796D02*
G01*
X40734579Y-98625699D01*
X40988578Y-98795415D01*
X41204585Y-99011422D01*
X41374301Y-99265421D01*
X41491204Y-99547648D01*
X41550800Y-99847259D01*
X41550800Y-100152741D01*
X41491204Y-100452352D01*
X41374301Y-100734579D01*
X41204585Y-100988578D01*
X40988578Y-101204585D01*
X40734579Y-101374301D01*
X40452352Y-101491204D01*
X40152741Y-101550800D01*
X39847259Y-101550800D01*
X39547648Y-101491204D01*
X39265421Y-101374301D01*
X39011422Y-101204585D01*
X38795415Y-100988578D01*
X38625699Y-100734579D01*
X38508796Y-100452352D01*
X38449200Y-100152741D01*
X38449200Y-99847259D01*
X38508796Y-99547648D01*
X38625699Y-99265421D01*
X38795415Y-99011422D01*
X39011422Y-98795415D01*
X39265421Y-98625699D01*
X39547648Y-98508796D01*
X39847259Y-98449200D01*
X40152741Y-98449200D01*
X40452352Y-98508796D01*
X40452352Y-98508796D01*
G37*
G36*
X58596584Y-99112233D02*
G01*
X58596587Y-99112234D01*
X58596588Y-99112234D01*
X58766389Y-99163743D01*
X58813861Y-99189117D01*
X58922881Y-99247389D01*
X59060044Y-99359956D01*
X59172611Y-99497119D01*
X59210842Y-99568646D01*
X59256257Y-99653611D01*
X59286206Y-99752339D01*
X59307767Y-99823416D01*
X59325159Y-100000000D01*
X59307767Y-100176584D01*
X59307766Y-100176587D01*
X59307766Y-100176588D01*
X59256257Y-100346389D01*
X59256256Y-100346390D01*
X59172611Y-100502881D01*
X59060044Y-100640044D01*
X58922881Y-100752611D01*
X58813861Y-100810883D01*
X58766389Y-100836257D01*
X58596588Y-100887766D01*
X58596587Y-100887766D01*
X58596584Y-100887767D01*
X58464255Y-100900800D01*
X58375745Y-100900800D01*
X58243416Y-100887767D01*
X58243413Y-100887766D01*
X58243412Y-100887766D01*
X58073611Y-100836257D01*
X58026139Y-100810883D01*
X57917119Y-100752611D01*
X57779956Y-100640044D01*
X57667389Y-100502881D01*
X57583744Y-100346390D01*
X57583743Y-100346389D01*
X57532234Y-100176588D01*
X57532234Y-100176587D01*
X57532233Y-100176584D01*
X57514841Y-100000000D01*
X57532233Y-99823416D01*
X57553794Y-99752339D01*
X57583743Y-99653611D01*
X57629158Y-99568646D01*
X57667389Y-99497119D01*
X57779956Y-99359956D01*
X57917119Y-99247389D01*
X58026139Y-99189117D01*
X58073611Y-99163743D01*
X58243412Y-99112234D01*
X58243413Y-99112234D01*
X58243416Y-99112233D01*
X58375745Y-99099200D01*
X58464255Y-99099200D01*
X58596584Y-99112233D01*
X58596584Y-99112233D01*
G37*
G36*
X56780800Y-100900800D02*
G01*
X54979200Y-100900800D01*
X54979200Y-99099200D01*
X56780800Y-99099200D01*
X56780800Y-100900800D01*
X56780800Y-100900800D01*
G37*
G36*
X48525800Y-100900800D02*
G01*
X46724200Y-100900800D01*
X46724200Y-99099200D01*
X48525800Y-99099200D01*
X48525800Y-100900800D01*
X48525800Y-100900800D01*
G37*
G36*
X50341584Y-99112233D02*
G01*
X50341587Y-99112234D01*
X50341588Y-99112234D01*
X50511389Y-99163743D01*
X50558861Y-99189117D01*
X50667881Y-99247389D01*
X50805044Y-99359956D01*
X50917611Y-99497119D01*
X50955842Y-99568646D01*
X51001257Y-99653611D01*
X51031206Y-99752339D01*
X51052767Y-99823416D01*
X51070159Y-100000000D01*
X51052767Y-100176584D01*
X51052766Y-100176587D01*
X51052766Y-100176588D01*
X51001257Y-100346389D01*
X51001256Y-100346390D01*
X50917611Y-100502881D01*
X50805044Y-100640044D01*
X50667881Y-100752611D01*
X50558861Y-100810883D01*
X50511389Y-100836257D01*
X50341588Y-100887766D01*
X50341587Y-100887766D01*
X50341584Y-100887767D01*
X50209255Y-100900800D01*
X50120745Y-100900800D01*
X49988416Y-100887767D01*
X49988413Y-100887766D01*
X49988412Y-100887766D01*
X49818611Y-100836257D01*
X49771139Y-100810883D01*
X49662119Y-100752611D01*
X49524956Y-100640044D01*
X49412389Y-100502881D01*
X49328744Y-100346390D01*
X49328743Y-100346389D01*
X49277234Y-100176588D01*
X49277234Y-100176587D01*
X49277233Y-100176584D01*
X49259841Y-100000000D01*
X49277233Y-99823416D01*
X49298794Y-99752339D01*
X49328743Y-99653611D01*
X49374158Y-99568646D01*
X49412389Y-99497119D01*
X49524956Y-99359956D01*
X49662119Y-99247389D01*
X49771139Y-99189117D01*
X49818611Y-99163743D01*
X49988412Y-99112234D01*
X49988413Y-99112234D01*
X49988416Y-99112233D01*
X50120745Y-99099200D01*
X50209255Y-99099200D01*
X50341584Y-99112233D01*
X50341584Y-99112233D01*
G37*
G36*
X127506508Y-98489582D02*
G01*
X127697741Y-98568793D01*
X127869847Y-98683791D01*
X128016209Y-98830153D01*
X128131207Y-99002259D01*
X128210418Y-99193492D01*
X128250800Y-99396505D01*
X128250800Y-99603495D01*
X128210418Y-99806508D01*
X128131207Y-99997741D01*
X128016209Y-100169847D01*
X127869847Y-100316209D01*
X127697741Y-100431207D01*
X127506508Y-100510418D01*
X127303495Y-100550800D01*
X127096505Y-100550800D01*
X126893492Y-100510418D01*
X126702259Y-100431207D01*
X126530153Y-100316209D01*
X126383791Y-100169847D01*
X126268793Y-99997741D01*
X126189582Y-99806508D01*
X126149200Y-99603495D01*
X126149200Y-99396505D01*
X126189582Y-99193492D01*
X126268793Y-99002259D01*
X126383791Y-98830153D01*
X126530153Y-98683791D01*
X126702259Y-98568793D01*
X126893492Y-98489582D01*
X127096505Y-98449200D01*
X127303495Y-98449200D01*
X127506508Y-98489582D01*
X127506508Y-98489582D01*
G37*
G36*
X130006508Y-98489582D02*
G01*
X130197741Y-98568793D01*
X130369847Y-98683791D01*
X130516209Y-98830153D01*
X130631207Y-99002259D01*
X130710418Y-99193492D01*
X130750800Y-99396505D01*
X130750800Y-99603495D01*
X130710418Y-99806508D01*
X130631207Y-99997741D01*
X130516209Y-100169847D01*
X130369847Y-100316209D01*
X130197741Y-100431207D01*
X130006508Y-100510418D01*
X129803495Y-100550800D01*
X129596505Y-100550800D01*
X129393492Y-100510418D01*
X129202259Y-100431207D01*
X129030153Y-100316209D01*
X128883791Y-100169847D01*
X128768793Y-99997741D01*
X128689582Y-99806508D01*
X128649200Y-99603495D01*
X128649200Y-99396505D01*
X128689582Y-99193492D01*
X128768793Y-99002259D01*
X128883791Y-98830153D01*
X129030153Y-98683791D01*
X129202259Y-98568793D01*
X129393492Y-98489582D01*
X129596505Y-98449200D01*
X129803495Y-98449200D01*
X130006508Y-98489582D01*
X130006508Y-98489582D01*
G37*
G36*
X125006508Y-98489582D02*
G01*
X125197741Y-98568793D01*
X125369847Y-98683791D01*
X125516209Y-98830153D01*
X125631207Y-99002259D01*
X125710418Y-99193492D01*
X125750800Y-99396505D01*
X125750800Y-99603495D01*
X125710418Y-99806508D01*
X125631207Y-99997741D01*
X125516209Y-100169847D01*
X125369847Y-100316209D01*
X125197741Y-100431207D01*
X125006508Y-100510418D01*
X124803495Y-100550800D01*
X124596505Y-100550800D01*
X124393492Y-100510418D01*
X124202259Y-100431207D01*
X124030153Y-100316209D01*
X123883791Y-100169847D01*
X123768793Y-99997741D01*
X123689582Y-99806508D01*
X123649200Y-99603495D01*
X123649200Y-99396505D01*
X123689582Y-99193492D01*
X123768793Y-99002259D01*
X123883791Y-98830153D01*
X124030153Y-98683791D01*
X124202259Y-98568793D01*
X124393492Y-98489582D01*
X124596505Y-98449200D01*
X124803495Y-98449200D01*
X125006508Y-98489582D01*
X125006508Y-98489582D01*
G37*
G36*
X160337338Y-98560738D02*
G01*
X160510373Y-98632412D01*
X160666100Y-98736465D01*
X160798535Y-98868900D01*
X160902588Y-99024627D01*
X160974262Y-99197662D01*
X161010800Y-99381354D01*
X161010800Y-99568646D01*
X160974262Y-99752338D01*
X160902588Y-99925373D01*
X160798535Y-100081100D01*
X160666100Y-100213535D01*
X160510373Y-100317588D01*
X160337338Y-100389262D01*
X160153646Y-100425800D01*
X159966354Y-100425800D01*
X159782662Y-100389262D01*
X159609627Y-100317588D01*
X159453900Y-100213535D01*
X159321465Y-100081100D01*
X159217412Y-99925373D01*
X159145738Y-99752338D01*
X159109200Y-99568646D01*
X159109200Y-99381354D01*
X159145738Y-99197662D01*
X159217412Y-99024627D01*
X159321465Y-98868900D01*
X159453900Y-98736465D01*
X159609627Y-98632412D01*
X159782662Y-98560738D01*
X159966354Y-98524200D01*
X160153646Y-98524200D01*
X160337338Y-98560738D01*
X160337338Y-98560738D01*
G37*
G36*
X162837338Y-98560738D02*
G01*
X163010373Y-98632412D01*
X163166100Y-98736465D01*
X163298535Y-98868900D01*
X163402588Y-99024627D01*
X163474262Y-99197662D01*
X163510800Y-99381354D01*
X163510800Y-99568646D01*
X163474262Y-99752338D01*
X163402588Y-99925373D01*
X163298535Y-100081100D01*
X163166100Y-100213535D01*
X163010373Y-100317588D01*
X162837338Y-100389262D01*
X162653646Y-100425800D01*
X162466354Y-100425800D01*
X162282662Y-100389262D01*
X162109627Y-100317588D01*
X161953900Y-100213535D01*
X161821465Y-100081100D01*
X161717412Y-99925373D01*
X161645738Y-99752338D01*
X161609200Y-99568646D01*
X161609200Y-99381354D01*
X161645738Y-99197662D01*
X161717412Y-99024627D01*
X161821465Y-98868900D01*
X161953900Y-98736465D01*
X162109627Y-98632412D01*
X162282662Y-98560738D01*
X162466354Y-98524200D01*
X162653646Y-98524200D01*
X162837338Y-98560738D01*
X162837338Y-98560738D01*
G37*
G36*
X165337338Y-98560738D02*
G01*
X165510373Y-98632412D01*
X165666100Y-98736465D01*
X165798535Y-98868900D01*
X165902588Y-99024627D01*
X165974262Y-99197662D01*
X166010800Y-99381354D01*
X166010800Y-99568646D01*
X165974262Y-99752338D01*
X165902588Y-99925373D01*
X165798535Y-100081100D01*
X165666100Y-100213535D01*
X165510373Y-100317588D01*
X165337338Y-100389262D01*
X165153646Y-100425800D01*
X164966354Y-100425800D01*
X164782662Y-100389262D01*
X164609627Y-100317588D01*
X164453900Y-100213535D01*
X164321465Y-100081100D01*
X164217412Y-99925373D01*
X164145738Y-99752338D01*
X164109200Y-99568646D01*
X164109200Y-99381354D01*
X164145738Y-99197662D01*
X164217412Y-99024627D01*
X164321465Y-98868900D01*
X164453900Y-98736465D01*
X164609627Y-98632412D01*
X164782662Y-98560738D01*
X164966354Y-98524200D01*
X165153646Y-98524200D01*
X165337338Y-98560738D01*
X165337338Y-98560738D01*
G37*
G36*
X112240049Y-96617430D02*
G01*
X112240052Y-96617431D01*
X112240053Y-96617431D01*
X112412418Y-96669717D01*
X112462875Y-96696687D01*
X112571270Y-96754625D01*
X112710507Y-96868893D01*
X112824774Y-97008129D01*
X112909683Y-97166981D01*
X112909683Y-97166982D01*
X112961970Y-97339350D01*
X112975200Y-97473677D01*
X112975200Y-98086322D01*
X112961970Y-98220649D01*
X112961969Y-98220651D01*
X112961969Y-98220654D01*
X112909683Y-98393019D01*
X112909682Y-98393020D01*
X112824775Y-98551870D01*
X112710507Y-98691107D01*
X112571270Y-98805375D01*
X112491845Y-98847828D01*
X112412419Y-98890283D01*
X112240054Y-98942569D01*
X112240053Y-98942569D01*
X112240050Y-98942570D01*
X112060800Y-98960225D01*
X111881551Y-98942570D01*
X111881548Y-98942569D01*
X111881547Y-98942569D01*
X111709182Y-98890283D01*
X111629756Y-98847829D01*
X111550331Y-98805375D01*
X111411094Y-98691107D01*
X111296827Y-98551872D01*
X111211918Y-98393020D01*
X111211917Y-98393019D01*
X111159631Y-98220654D01*
X111159631Y-98220653D01*
X111159630Y-98220650D01*
X111146400Y-98086323D01*
X111146400Y-97473678D01*
X111159630Y-97339351D01*
X111159631Y-97339347D01*
X111211917Y-97166982D01*
X111238887Y-97116525D01*
X111296825Y-97008130D01*
X111411093Y-96868893D01*
X111550330Y-96754625D01*
X111629755Y-96712172D01*
X111709181Y-96669717D01*
X111881546Y-96617431D01*
X111881547Y-96617431D01*
X111881550Y-96617430D01*
X112060800Y-96599775D01*
X112240049Y-96617430D01*
X112240049Y-96617430D01*
G37*
G36*
X71600049Y-96617430D02*
G01*
X71600052Y-96617431D01*
X71600053Y-96617431D01*
X71772418Y-96669717D01*
X71822875Y-96696687D01*
X71931270Y-96754625D01*
X72070507Y-96868893D01*
X72184774Y-97008129D01*
X72269683Y-97166981D01*
X72269683Y-97166982D01*
X72321970Y-97339350D01*
X72335200Y-97473677D01*
X72335200Y-98086322D01*
X72321970Y-98220649D01*
X72321969Y-98220651D01*
X72321969Y-98220654D01*
X72269683Y-98393019D01*
X72269682Y-98393020D01*
X72184775Y-98551870D01*
X72070507Y-98691107D01*
X71931270Y-98805375D01*
X71851845Y-98847829D01*
X71772419Y-98890283D01*
X71600054Y-98942569D01*
X71600053Y-98942569D01*
X71600050Y-98942570D01*
X71420800Y-98960225D01*
X71241551Y-98942570D01*
X71241548Y-98942569D01*
X71241547Y-98942569D01*
X71069182Y-98890283D01*
X70989756Y-98847829D01*
X70910331Y-98805375D01*
X70771094Y-98691107D01*
X70656827Y-98551872D01*
X70571918Y-98393020D01*
X70571917Y-98393019D01*
X70519631Y-98220654D01*
X70519631Y-98220653D01*
X70519630Y-98220650D01*
X70506400Y-98086323D01*
X70506400Y-97473678D01*
X70519630Y-97339351D01*
X70519631Y-97339347D01*
X70571917Y-97166982D01*
X70598887Y-97116525D01*
X70656825Y-97008130D01*
X70771093Y-96868893D01*
X70910330Y-96754625D01*
X70989755Y-96712172D01*
X71069181Y-96669717D01*
X71241546Y-96617431D01*
X71241547Y-96617431D01*
X71241550Y-96617430D01*
X71420800Y-96599775D01*
X71600049Y-96617430D01*
X71600049Y-96617430D01*
G37*
G36*
X91920049Y-96617430D02*
G01*
X91920052Y-96617431D01*
X91920053Y-96617431D01*
X92092418Y-96669717D01*
X92142875Y-96696687D01*
X92251270Y-96754625D01*
X92390507Y-96868893D01*
X92504774Y-97008129D01*
X92589683Y-97166981D01*
X92589683Y-97166982D01*
X92641970Y-97339350D01*
X92655200Y-97473677D01*
X92655200Y-98086322D01*
X92641970Y-98220649D01*
X92641969Y-98220651D01*
X92641969Y-98220654D01*
X92589683Y-98393019D01*
X92589682Y-98393020D01*
X92504775Y-98551870D01*
X92390507Y-98691107D01*
X92251270Y-98805375D01*
X92171845Y-98847828D01*
X92092419Y-98890283D01*
X91920054Y-98942569D01*
X91920053Y-98942569D01*
X91920050Y-98942570D01*
X91740800Y-98960225D01*
X91561551Y-98942570D01*
X91561548Y-98942569D01*
X91561547Y-98942569D01*
X91389182Y-98890283D01*
X91309756Y-98847829D01*
X91230331Y-98805375D01*
X91091094Y-98691107D01*
X90976827Y-98551872D01*
X90891918Y-98393020D01*
X90891917Y-98393019D01*
X90839631Y-98220654D01*
X90839631Y-98220653D01*
X90839630Y-98220650D01*
X90826400Y-98086323D01*
X90826400Y-97473678D01*
X90839630Y-97339351D01*
X90839631Y-97339347D01*
X90891917Y-97166982D01*
X90918887Y-97116525D01*
X90976825Y-97008130D01*
X91091093Y-96868893D01*
X91230330Y-96754625D01*
X91309755Y-96712172D01*
X91389181Y-96669717D01*
X91561546Y-96617431D01*
X91561547Y-96617431D01*
X91561550Y-96617430D01*
X91740800Y-96599775D01*
X91920049Y-96617430D01*
X91920049Y-96617430D01*
G37*
G36*
X74140049Y-96617430D02*
G01*
X74140052Y-96617431D01*
X74140053Y-96617431D01*
X74312418Y-96669717D01*
X74362875Y-96696687D01*
X74471270Y-96754625D01*
X74610507Y-96868893D01*
X74724774Y-97008129D01*
X74809683Y-97166981D01*
X74809683Y-97166982D01*
X74861970Y-97339350D01*
X74875200Y-97473677D01*
X74875200Y-98086322D01*
X74861970Y-98220649D01*
X74861969Y-98220651D01*
X74861969Y-98220654D01*
X74809683Y-98393019D01*
X74809682Y-98393020D01*
X74724775Y-98551870D01*
X74610507Y-98691107D01*
X74471270Y-98805375D01*
X74391845Y-98847829D01*
X74312419Y-98890283D01*
X74140054Y-98942569D01*
X74140053Y-98942569D01*
X74140050Y-98942570D01*
X73960800Y-98960225D01*
X73781551Y-98942570D01*
X73781548Y-98942569D01*
X73781547Y-98942569D01*
X73609182Y-98890283D01*
X73529756Y-98847829D01*
X73450331Y-98805375D01*
X73311094Y-98691107D01*
X73196827Y-98551872D01*
X73111918Y-98393020D01*
X73111917Y-98393019D01*
X73059631Y-98220654D01*
X73059631Y-98220653D01*
X73059630Y-98220650D01*
X73046400Y-98086323D01*
X73046400Y-97473678D01*
X73059630Y-97339351D01*
X73059631Y-97339347D01*
X73111917Y-97166982D01*
X73138887Y-97116525D01*
X73196825Y-97008130D01*
X73311093Y-96868893D01*
X73450330Y-96754625D01*
X73529755Y-96712172D01*
X73609181Y-96669717D01*
X73781546Y-96617431D01*
X73781547Y-96617431D01*
X73781550Y-96617430D01*
X73960800Y-96599775D01*
X74140049Y-96617430D01*
X74140049Y-96617430D01*
G37*
G36*
X114830849Y-96617430D02*
G01*
X114830852Y-96617431D01*
X114830853Y-96617431D01*
X115003218Y-96669717D01*
X115053675Y-96696687D01*
X115162070Y-96754625D01*
X115301307Y-96868893D01*
X115415574Y-97008129D01*
X115500483Y-97166981D01*
X115500483Y-97166982D01*
X115552770Y-97339350D01*
X115566000Y-97473677D01*
X115566000Y-98086322D01*
X115552770Y-98220649D01*
X115552769Y-98220651D01*
X115552769Y-98220654D01*
X115500483Y-98393019D01*
X115500482Y-98393020D01*
X115415575Y-98551870D01*
X115301307Y-98691107D01*
X115162070Y-98805375D01*
X115082645Y-98847828D01*
X115003219Y-98890283D01*
X114830854Y-98942569D01*
X114830853Y-98942569D01*
X114830850Y-98942570D01*
X114651600Y-98960225D01*
X114472351Y-98942570D01*
X114472348Y-98942569D01*
X114472347Y-98942569D01*
X114299982Y-98890283D01*
X114220556Y-98847829D01*
X114141131Y-98805375D01*
X114001894Y-98691107D01*
X113887627Y-98551872D01*
X113802718Y-98393020D01*
X113802717Y-98393019D01*
X113750431Y-98220654D01*
X113750431Y-98220653D01*
X113750430Y-98220650D01*
X113737200Y-98086323D01*
X113737200Y-97473678D01*
X113750430Y-97339351D01*
X113750431Y-97339347D01*
X113802717Y-97166982D01*
X113829687Y-97116525D01*
X113887625Y-97008130D01*
X114001893Y-96868893D01*
X114141130Y-96754625D01*
X114220555Y-96712172D01*
X114299981Y-96669717D01*
X114472346Y-96617431D01*
X114472347Y-96617431D01*
X114472350Y-96617430D01*
X114651600Y-96599775D01*
X114830849Y-96617430D01*
X114830849Y-96617430D01*
G37*
G36*
X76680049Y-96617430D02*
G01*
X76680052Y-96617431D01*
X76680053Y-96617431D01*
X76852418Y-96669717D01*
X76902875Y-96696687D01*
X77011270Y-96754625D01*
X77150507Y-96868893D01*
X77264774Y-97008129D01*
X77349683Y-97166981D01*
X77349683Y-97166982D01*
X77401970Y-97339350D01*
X77415200Y-97473677D01*
X77415200Y-98086322D01*
X77401970Y-98220649D01*
X77401969Y-98220651D01*
X77401969Y-98220654D01*
X77349683Y-98393019D01*
X77349682Y-98393020D01*
X77264775Y-98551870D01*
X77150507Y-98691107D01*
X77011270Y-98805375D01*
X76931845Y-98847829D01*
X76852419Y-98890283D01*
X76680054Y-98942569D01*
X76680053Y-98942569D01*
X76680050Y-98942570D01*
X76500800Y-98960225D01*
X76321551Y-98942570D01*
X76321548Y-98942569D01*
X76321547Y-98942569D01*
X76149182Y-98890283D01*
X76069756Y-98847829D01*
X75990331Y-98805375D01*
X75851094Y-98691107D01*
X75736827Y-98551872D01*
X75651918Y-98393020D01*
X75651917Y-98393019D01*
X75599631Y-98220654D01*
X75599631Y-98220653D01*
X75599630Y-98220650D01*
X75586400Y-98086323D01*
X75586400Y-97473678D01*
X75599630Y-97339351D01*
X75599631Y-97339347D01*
X75651917Y-97166982D01*
X75678887Y-97116525D01*
X75736825Y-97008130D01*
X75851093Y-96868893D01*
X75990330Y-96754625D01*
X76069755Y-96712172D01*
X76149181Y-96669717D01*
X76321546Y-96617431D01*
X76321547Y-96617431D01*
X76321550Y-96617430D01*
X76500800Y-96599775D01*
X76680049Y-96617430D01*
X76680049Y-96617430D01*
G37*
G36*
X81760049Y-96617430D02*
G01*
X81760052Y-96617431D01*
X81760053Y-96617431D01*
X81932418Y-96669717D01*
X81982875Y-96696687D01*
X82091270Y-96754625D01*
X82230507Y-96868893D01*
X82344774Y-97008129D01*
X82429683Y-97166981D01*
X82429683Y-97166982D01*
X82481970Y-97339350D01*
X82495200Y-97473677D01*
X82495200Y-98086322D01*
X82481970Y-98220649D01*
X82481969Y-98220651D01*
X82481969Y-98220654D01*
X82429683Y-98393019D01*
X82429682Y-98393020D01*
X82344775Y-98551870D01*
X82230507Y-98691107D01*
X82091270Y-98805375D01*
X82011845Y-98847829D01*
X81932419Y-98890283D01*
X81760054Y-98942569D01*
X81760053Y-98942569D01*
X81760050Y-98942570D01*
X81580800Y-98960225D01*
X81401551Y-98942570D01*
X81401548Y-98942569D01*
X81401547Y-98942569D01*
X81229182Y-98890283D01*
X81149756Y-98847829D01*
X81070331Y-98805375D01*
X80931094Y-98691107D01*
X80816827Y-98551872D01*
X80731918Y-98393020D01*
X80731917Y-98393019D01*
X80679631Y-98220654D01*
X80679631Y-98220653D01*
X80679630Y-98220650D01*
X80666400Y-98086323D01*
X80666400Y-97473678D01*
X80679630Y-97339351D01*
X80679631Y-97339347D01*
X80731917Y-97166982D01*
X80758887Y-97116525D01*
X80816825Y-97008130D01*
X80931093Y-96868893D01*
X81070330Y-96754625D01*
X81149755Y-96712172D01*
X81229181Y-96669717D01*
X81401546Y-96617431D01*
X81401547Y-96617431D01*
X81401550Y-96617430D01*
X81580800Y-96599775D01*
X81760049Y-96617430D01*
X81760049Y-96617430D01*
G37*
G36*
X107160049Y-96617430D02*
G01*
X107160052Y-96617431D01*
X107160053Y-96617431D01*
X107332418Y-96669717D01*
X107382875Y-96696687D01*
X107491270Y-96754625D01*
X107630507Y-96868893D01*
X107744774Y-97008129D01*
X107829683Y-97166981D01*
X107829683Y-97166982D01*
X107881970Y-97339350D01*
X107895200Y-97473677D01*
X107895200Y-98086322D01*
X107881970Y-98220649D01*
X107881969Y-98220651D01*
X107881969Y-98220654D01*
X107829683Y-98393019D01*
X107829682Y-98393020D01*
X107744775Y-98551870D01*
X107630507Y-98691107D01*
X107491270Y-98805375D01*
X107411845Y-98847828D01*
X107332419Y-98890283D01*
X107160054Y-98942569D01*
X107160053Y-98942569D01*
X107160050Y-98942570D01*
X106980800Y-98960225D01*
X106801551Y-98942570D01*
X106801548Y-98942569D01*
X106801547Y-98942569D01*
X106629182Y-98890283D01*
X106549756Y-98847829D01*
X106470331Y-98805375D01*
X106331094Y-98691107D01*
X106216827Y-98551872D01*
X106131918Y-98393020D01*
X106131917Y-98393019D01*
X106079631Y-98220654D01*
X106079631Y-98220653D01*
X106079630Y-98220650D01*
X106066400Y-98086323D01*
X106066400Y-97473678D01*
X106079630Y-97339351D01*
X106079631Y-97339347D01*
X106131917Y-97166982D01*
X106158887Y-97116525D01*
X106216825Y-97008130D01*
X106331093Y-96868893D01*
X106470330Y-96754625D01*
X106549755Y-96712172D01*
X106629181Y-96669717D01*
X106801546Y-96617431D01*
X106801547Y-96617431D01*
X106801550Y-96617430D01*
X106980800Y-96599775D01*
X107160049Y-96617430D01*
X107160049Y-96617430D01*
G37*
G36*
X84300049Y-96617430D02*
G01*
X84300052Y-96617431D01*
X84300053Y-96617431D01*
X84472418Y-96669717D01*
X84522875Y-96696687D01*
X84631270Y-96754625D01*
X84770507Y-96868893D01*
X84884774Y-97008129D01*
X84969683Y-97166981D01*
X84969683Y-97166982D01*
X85021970Y-97339350D01*
X85035200Y-97473677D01*
X85035200Y-98086322D01*
X85021970Y-98220649D01*
X85021969Y-98220651D01*
X85021969Y-98220654D01*
X84969683Y-98393019D01*
X84969682Y-98393020D01*
X84884775Y-98551870D01*
X84770507Y-98691107D01*
X84631270Y-98805375D01*
X84551845Y-98847828D01*
X84472419Y-98890283D01*
X84300054Y-98942569D01*
X84300053Y-98942569D01*
X84300050Y-98942570D01*
X84120800Y-98960225D01*
X83941551Y-98942570D01*
X83941548Y-98942569D01*
X83941547Y-98942569D01*
X83769182Y-98890283D01*
X83689756Y-98847829D01*
X83610331Y-98805375D01*
X83471094Y-98691107D01*
X83356827Y-98551872D01*
X83271918Y-98393020D01*
X83271917Y-98393019D01*
X83219631Y-98220654D01*
X83219631Y-98220653D01*
X83219630Y-98220650D01*
X83206400Y-98086323D01*
X83206400Y-97473678D01*
X83219630Y-97339351D01*
X83219631Y-97339347D01*
X83271917Y-97166982D01*
X83298887Y-97116525D01*
X83356825Y-97008130D01*
X83471093Y-96868893D01*
X83610330Y-96754625D01*
X83689755Y-96712172D01*
X83769181Y-96669717D01*
X83941546Y-96617431D01*
X83941547Y-96617431D01*
X83941550Y-96617430D01*
X84120800Y-96599775D01*
X84300049Y-96617430D01*
X84300049Y-96617430D01*
G37*
G36*
X86840049Y-96617430D02*
G01*
X86840052Y-96617431D01*
X86840053Y-96617431D01*
X87012418Y-96669717D01*
X87062875Y-96696687D01*
X87171270Y-96754625D01*
X87310507Y-96868893D01*
X87424774Y-97008129D01*
X87509683Y-97166981D01*
X87509683Y-97166982D01*
X87561970Y-97339350D01*
X87575200Y-97473677D01*
X87575200Y-98086322D01*
X87561970Y-98220649D01*
X87561969Y-98220651D01*
X87561969Y-98220654D01*
X87509683Y-98393019D01*
X87509682Y-98393020D01*
X87424775Y-98551870D01*
X87310507Y-98691107D01*
X87171270Y-98805375D01*
X87091845Y-98847828D01*
X87012419Y-98890283D01*
X86840054Y-98942569D01*
X86840053Y-98942569D01*
X86840050Y-98942570D01*
X86660800Y-98960225D01*
X86481551Y-98942570D01*
X86481548Y-98942569D01*
X86481547Y-98942569D01*
X86309182Y-98890283D01*
X86229756Y-98847829D01*
X86150331Y-98805375D01*
X86011094Y-98691107D01*
X85896827Y-98551872D01*
X85811918Y-98393020D01*
X85811917Y-98393019D01*
X85759631Y-98220654D01*
X85759631Y-98220653D01*
X85759630Y-98220650D01*
X85746400Y-98086323D01*
X85746400Y-97473678D01*
X85759630Y-97339351D01*
X85759631Y-97339347D01*
X85811917Y-97166982D01*
X85838887Y-97116525D01*
X85896825Y-97008130D01*
X86011093Y-96868893D01*
X86150330Y-96754625D01*
X86229755Y-96712172D01*
X86309181Y-96669717D01*
X86481546Y-96617431D01*
X86481547Y-96617431D01*
X86481550Y-96617430D01*
X86660800Y-96599775D01*
X86840049Y-96617430D01*
X86840049Y-96617430D01*
G37*
G36*
X69060049Y-96617430D02*
G01*
X69060052Y-96617431D01*
X69060053Y-96617431D01*
X69232418Y-96669717D01*
X69282875Y-96696687D01*
X69391270Y-96754625D01*
X69530507Y-96868893D01*
X69644774Y-97008129D01*
X69729683Y-97166981D01*
X69729683Y-97166982D01*
X69781970Y-97339350D01*
X69795200Y-97473677D01*
X69795200Y-98086322D01*
X69781970Y-98220649D01*
X69781969Y-98220651D01*
X69781969Y-98220654D01*
X69729683Y-98393019D01*
X69729682Y-98393020D01*
X69644775Y-98551870D01*
X69530507Y-98691107D01*
X69391270Y-98805375D01*
X69311845Y-98847829D01*
X69232419Y-98890283D01*
X69060054Y-98942569D01*
X69060053Y-98942569D01*
X69060050Y-98942570D01*
X68880800Y-98960225D01*
X68701551Y-98942570D01*
X68701548Y-98942569D01*
X68701547Y-98942569D01*
X68529182Y-98890283D01*
X68449756Y-98847829D01*
X68370331Y-98805375D01*
X68231094Y-98691107D01*
X68116827Y-98551872D01*
X68031918Y-98393020D01*
X68031917Y-98393019D01*
X67979631Y-98220654D01*
X67979631Y-98220653D01*
X67979630Y-98220650D01*
X67966400Y-98086323D01*
X67966400Y-97473678D01*
X67979630Y-97339351D01*
X67979631Y-97339347D01*
X68031917Y-97166982D01*
X68058887Y-97116525D01*
X68116825Y-97008130D01*
X68231093Y-96868893D01*
X68370330Y-96754625D01*
X68449755Y-96712172D01*
X68529181Y-96669717D01*
X68701546Y-96617431D01*
X68701547Y-96617431D01*
X68701550Y-96617430D01*
X68880800Y-96599775D01*
X69060049Y-96617430D01*
X69060049Y-96617430D01*
G37*
G36*
X89380049Y-96617430D02*
G01*
X89380052Y-96617431D01*
X89380053Y-96617431D01*
X89552418Y-96669717D01*
X89602875Y-96696687D01*
X89711270Y-96754625D01*
X89850507Y-96868893D01*
X89964774Y-97008129D01*
X90049683Y-97166981D01*
X90049683Y-97166982D01*
X90101970Y-97339350D01*
X90115200Y-97473677D01*
X90115200Y-98086322D01*
X90101970Y-98220649D01*
X90101969Y-98220651D01*
X90101969Y-98220654D01*
X90049683Y-98393019D01*
X90049682Y-98393020D01*
X89964775Y-98551870D01*
X89850507Y-98691107D01*
X89711270Y-98805375D01*
X89631845Y-98847828D01*
X89552419Y-98890283D01*
X89380054Y-98942569D01*
X89380053Y-98942569D01*
X89380050Y-98942570D01*
X89200800Y-98960225D01*
X89021551Y-98942570D01*
X89021548Y-98942569D01*
X89021547Y-98942569D01*
X88849182Y-98890283D01*
X88769756Y-98847829D01*
X88690331Y-98805375D01*
X88551094Y-98691107D01*
X88436827Y-98551872D01*
X88351918Y-98393020D01*
X88351917Y-98393019D01*
X88299631Y-98220654D01*
X88299631Y-98220653D01*
X88299630Y-98220650D01*
X88286400Y-98086323D01*
X88286400Y-97473678D01*
X88299630Y-97339351D01*
X88299631Y-97339347D01*
X88351917Y-97166982D01*
X88378887Y-97116525D01*
X88436825Y-97008130D01*
X88551093Y-96868893D01*
X88690330Y-96754625D01*
X88769755Y-96712172D01*
X88849181Y-96669717D01*
X89021546Y-96617431D01*
X89021547Y-96617431D01*
X89021550Y-96617430D01*
X89200800Y-96599775D01*
X89380049Y-96617430D01*
X89380049Y-96617430D01*
G37*
G36*
X109700049Y-96617430D02*
G01*
X109700052Y-96617431D01*
X109700053Y-96617431D01*
X109872418Y-96669717D01*
X109922875Y-96696687D01*
X110031270Y-96754625D01*
X110170507Y-96868893D01*
X110284774Y-97008129D01*
X110369683Y-97166981D01*
X110369683Y-97166982D01*
X110421970Y-97339350D01*
X110435200Y-97473677D01*
X110435200Y-98086322D01*
X110421970Y-98220649D01*
X110421969Y-98220651D01*
X110421969Y-98220654D01*
X110369683Y-98393019D01*
X110369682Y-98393020D01*
X110284775Y-98551870D01*
X110170507Y-98691107D01*
X110031270Y-98805375D01*
X109951845Y-98847828D01*
X109872419Y-98890283D01*
X109700054Y-98942569D01*
X109700053Y-98942569D01*
X109700050Y-98942570D01*
X109520800Y-98960225D01*
X109341551Y-98942570D01*
X109341548Y-98942569D01*
X109341547Y-98942569D01*
X109169182Y-98890283D01*
X109089756Y-98847829D01*
X109010331Y-98805375D01*
X108871094Y-98691107D01*
X108756827Y-98551872D01*
X108671918Y-98393020D01*
X108671917Y-98393019D01*
X108619631Y-98220654D01*
X108619631Y-98220653D01*
X108619630Y-98220650D01*
X108606400Y-98086323D01*
X108606400Y-97473678D01*
X108619630Y-97339351D01*
X108619631Y-97339347D01*
X108671917Y-97166982D01*
X108698887Y-97116525D01*
X108756825Y-97008130D01*
X108871093Y-96868893D01*
X109010330Y-96754625D01*
X109089755Y-96712172D01*
X109169181Y-96669717D01*
X109341546Y-96617431D01*
X109341547Y-96617431D01*
X109341550Y-96617430D01*
X109520800Y-96599775D01*
X109700049Y-96617430D01*
X109700049Y-96617430D01*
G37*
G36*
X104620049Y-96617430D02*
G01*
X104620052Y-96617431D01*
X104620053Y-96617431D01*
X104792418Y-96669717D01*
X104842875Y-96696687D01*
X104951270Y-96754625D01*
X105090507Y-96868893D01*
X105204774Y-97008129D01*
X105289683Y-97166981D01*
X105289683Y-97166982D01*
X105341970Y-97339350D01*
X105355200Y-97473677D01*
X105355200Y-98086322D01*
X105341970Y-98220649D01*
X105341969Y-98220651D01*
X105341969Y-98220654D01*
X105289683Y-98393019D01*
X105289682Y-98393020D01*
X105204775Y-98551870D01*
X105090507Y-98691107D01*
X104951270Y-98805375D01*
X104871845Y-98847828D01*
X104792419Y-98890283D01*
X104620054Y-98942569D01*
X104620053Y-98942569D01*
X104620050Y-98942570D01*
X104440800Y-98960225D01*
X104261551Y-98942570D01*
X104261548Y-98942569D01*
X104261547Y-98942569D01*
X104089182Y-98890283D01*
X104009756Y-98847829D01*
X103930331Y-98805375D01*
X103791094Y-98691107D01*
X103676827Y-98551872D01*
X103591918Y-98393020D01*
X103591917Y-98393019D01*
X103539631Y-98220654D01*
X103539631Y-98220653D01*
X103539630Y-98220650D01*
X103526400Y-98086323D01*
X103526400Y-97473678D01*
X103539630Y-97339351D01*
X103539631Y-97339347D01*
X103591917Y-97166982D01*
X103618887Y-97116525D01*
X103676825Y-97008130D01*
X103791093Y-96868893D01*
X103930330Y-96754625D01*
X104009755Y-96712172D01*
X104089181Y-96669717D01*
X104261546Y-96617431D01*
X104261547Y-96617431D01*
X104261550Y-96617430D01*
X104440800Y-96599775D01*
X104620049Y-96617430D01*
X104620049Y-96617430D01*
G37*
G36*
X102080049Y-96617430D02*
G01*
X102080052Y-96617431D01*
X102080053Y-96617431D01*
X102252418Y-96669717D01*
X102302875Y-96696687D01*
X102411270Y-96754625D01*
X102550507Y-96868893D01*
X102664774Y-97008129D01*
X102749683Y-97166981D01*
X102749683Y-97166982D01*
X102801970Y-97339350D01*
X102815200Y-97473677D01*
X102815200Y-98086322D01*
X102801970Y-98220649D01*
X102801969Y-98220651D01*
X102801969Y-98220654D01*
X102749683Y-98393019D01*
X102749682Y-98393020D01*
X102664775Y-98551870D01*
X102550507Y-98691107D01*
X102411270Y-98805375D01*
X102331845Y-98847828D01*
X102252419Y-98890283D01*
X102080054Y-98942569D01*
X102080053Y-98942569D01*
X102080050Y-98942570D01*
X101900800Y-98960225D01*
X101721551Y-98942570D01*
X101721548Y-98942569D01*
X101721547Y-98942569D01*
X101549182Y-98890283D01*
X101469756Y-98847829D01*
X101390331Y-98805375D01*
X101251094Y-98691107D01*
X101136827Y-98551872D01*
X101051918Y-98393020D01*
X101051917Y-98393019D01*
X100999631Y-98220654D01*
X100999631Y-98220653D01*
X100999630Y-98220650D01*
X100986400Y-98086323D01*
X100986400Y-97473678D01*
X100999630Y-97339351D01*
X100999631Y-97339347D01*
X101051917Y-97166982D01*
X101078887Y-97116525D01*
X101136825Y-97008130D01*
X101251093Y-96868893D01*
X101390330Y-96754625D01*
X101469755Y-96712172D01*
X101549181Y-96669717D01*
X101721546Y-96617431D01*
X101721547Y-96617431D01*
X101721550Y-96617430D01*
X101900800Y-96599775D01*
X102080049Y-96617430D01*
X102080049Y-96617430D01*
G37*
G36*
X99540049Y-96617430D02*
G01*
X99540052Y-96617431D01*
X99540053Y-96617431D01*
X99712418Y-96669717D01*
X99762875Y-96696687D01*
X99871270Y-96754625D01*
X100010507Y-96868893D01*
X100124774Y-97008129D01*
X100209683Y-97166981D01*
X100209683Y-97166982D01*
X100261970Y-97339350D01*
X100275200Y-97473677D01*
X100275200Y-98086322D01*
X100261970Y-98220649D01*
X100261969Y-98220651D01*
X100261969Y-98220654D01*
X100209683Y-98393019D01*
X100209682Y-98393020D01*
X100124775Y-98551870D01*
X100010507Y-98691107D01*
X99871270Y-98805375D01*
X99791845Y-98847828D01*
X99712419Y-98890283D01*
X99540054Y-98942569D01*
X99540053Y-98942569D01*
X99540050Y-98942570D01*
X99360800Y-98960225D01*
X99181551Y-98942570D01*
X99181548Y-98942569D01*
X99181547Y-98942569D01*
X99009182Y-98890283D01*
X98929756Y-98847829D01*
X98850331Y-98805375D01*
X98711094Y-98691107D01*
X98596827Y-98551872D01*
X98511918Y-98393020D01*
X98511917Y-98393019D01*
X98459631Y-98220654D01*
X98459631Y-98220653D01*
X98459630Y-98220650D01*
X98446400Y-98086323D01*
X98446400Y-97473678D01*
X98459630Y-97339351D01*
X98459631Y-97339347D01*
X98511917Y-97166982D01*
X98538887Y-97116525D01*
X98596825Y-97008130D01*
X98711093Y-96868893D01*
X98850330Y-96754625D01*
X98929755Y-96712172D01*
X99009181Y-96669717D01*
X99181546Y-96617431D01*
X99181547Y-96617431D01*
X99181550Y-96617430D01*
X99360800Y-96599775D01*
X99540049Y-96617430D01*
X99540049Y-96617430D01*
G37*
G36*
X79220049Y-96617430D02*
G01*
X79220052Y-96617431D01*
X79220053Y-96617431D01*
X79392418Y-96669717D01*
X79442875Y-96696687D01*
X79551270Y-96754625D01*
X79690507Y-96868893D01*
X79804774Y-97008129D01*
X79889683Y-97166981D01*
X79889683Y-97166982D01*
X79941970Y-97339350D01*
X79955200Y-97473677D01*
X79955200Y-98086322D01*
X79941970Y-98220649D01*
X79941969Y-98220651D01*
X79941969Y-98220654D01*
X79889683Y-98393019D01*
X79889682Y-98393020D01*
X79804775Y-98551870D01*
X79690507Y-98691107D01*
X79551270Y-98805375D01*
X79471845Y-98847829D01*
X79392419Y-98890283D01*
X79220054Y-98942569D01*
X79220053Y-98942569D01*
X79220050Y-98942570D01*
X79040800Y-98960225D01*
X78861551Y-98942570D01*
X78861548Y-98942569D01*
X78861547Y-98942569D01*
X78689182Y-98890283D01*
X78609756Y-98847829D01*
X78530331Y-98805375D01*
X78391094Y-98691107D01*
X78276827Y-98551872D01*
X78191918Y-98393020D01*
X78191917Y-98393019D01*
X78139631Y-98220654D01*
X78139631Y-98220653D01*
X78139630Y-98220650D01*
X78126400Y-98086323D01*
X78126400Y-97473678D01*
X78139630Y-97339351D01*
X78139631Y-97339347D01*
X78191917Y-97166982D01*
X78218887Y-97116525D01*
X78276825Y-97008130D01*
X78391093Y-96868893D01*
X78530330Y-96754625D01*
X78609755Y-96712172D01*
X78689181Y-96669717D01*
X78861546Y-96617431D01*
X78861547Y-96617431D01*
X78861550Y-96617430D01*
X79040800Y-96599775D01*
X79220049Y-96617430D01*
X79220049Y-96617430D01*
G37*
G36*
X97000049Y-96617430D02*
G01*
X97000052Y-96617431D01*
X97000053Y-96617431D01*
X97172418Y-96669717D01*
X97222875Y-96696687D01*
X97331270Y-96754625D01*
X97470507Y-96868893D01*
X97584774Y-97008129D01*
X97669683Y-97166981D01*
X97669683Y-97166982D01*
X97721970Y-97339350D01*
X97735200Y-97473677D01*
X97735200Y-98086322D01*
X97721970Y-98220649D01*
X97721969Y-98220651D01*
X97721969Y-98220654D01*
X97669683Y-98393019D01*
X97669682Y-98393020D01*
X97584775Y-98551870D01*
X97470507Y-98691107D01*
X97331270Y-98805375D01*
X97251845Y-98847828D01*
X97172419Y-98890283D01*
X97000054Y-98942569D01*
X97000053Y-98942569D01*
X97000050Y-98942570D01*
X96820800Y-98960225D01*
X96641551Y-98942570D01*
X96641548Y-98942569D01*
X96641547Y-98942569D01*
X96469182Y-98890283D01*
X96389756Y-98847829D01*
X96310331Y-98805375D01*
X96171094Y-98691107D01*
X96056827Y-98551872D01*
X95971918Y-98393020D01*
X95971917Y-98393019D01*
X95919631Y-98220654D01*
X95919631Y-98220653D01*
X95919630Y-98220650D01*
X95906400Y-98086323D01*
X95906400Y-97473678D01*
X95919630Y-97339351D01*
X95919631Y-97339347D01*
X95971917Y-97166982D01*
X95998887Y-97116525D01*
X96056825Y-97008130D01*
X96171093Y-96868893D01*
X96310330Y-96754625D01*
X96389755Y-96712172D01*
X96469181Y-96669717D01*
X96641546Y-96617431D01*
X96641547Y-96617431D01*
X96641550Y-96617430D01*
X96820800Y-96599775D01*
X97000049Y-96617430D01*
X97000049Y-96617430D01*
G37*
G36*
X94460049Y-96617430D02*
G01*
X94460052Y-96617431D01*
X94460053Y-96617431D01*
X94632418Y-96669717D01*
X94682875Y-96696687D01*
X94791270Y-96754625D01*
X94930507Y-96868893D01*
X95044774Y-97008129D01*
X95129683Y-97166981D01*
X95129683Y-97166982D01*
X95181970Y-97339350D01*
X95195200Y-97473677D01*
X95195200Y-98086322D01*
X95181970Y-98220649D01*
X95181969Y-98220651D01*
X95181969Y-98220654D01*
X95129683Y-98393019D01*
X95129682Y-98393020D01*
X95044775Y-98551870D01*
X94930507Y-98691107D01*
X94791270Y-98805375D01*
X94711845Y-98847828D01*
X94632419Y-98890283D01*
X94460054Y-98942569D01*
X94460053Y-98942569D01*
X94460050Y-98942570D01*
X94280800Y-98960225D01*
X94101551Y-98942570D01*
X94101548Y-98942569D01*
X94101547Y-98942569D01*
X93929182Y-98890283D01*
X93849756Y-98847829D01*
X93770331Y-98805375D01*
X93631094Y-98691107D01*
X93516827Y-98551872D01*
X93431918Y-98393020D01*
X93431917Y-98393019D01*
X93379631Y-98220654D01*
X93379631Y-98220653D01*
X93379630Y-98220650D01*
X93366400Y-98086323D01*
X93366400Y-97473678D01*
X93379630Y-97339351D01*
X93379631Y-97339347D01*
X93431917Y-97166982D01*
X93458887Y-97116525D01*
X93516825Y-97008130D01*
X93631093Y-96868893D01*
X93770330Y-96754625D01*
X93849755Y-96712172D01*
X93929181Y-96669717D01*
X94101546Y-96617431D01*
X94101547Y-96617431D01*
X94101550Y-96617430D01*
X94280800Y-96599775D01*
X94460049Y-96617430D01*
X94460049Y-96617430D01*
G37*
G36*
X66520049Y-96617430D02*
G01*
X66520052Y-96617431D01*
X66520053Y-96617431D01*
X66692418Y-96669717D01*
X66742875Y-96696687D01*
X66851270Y-96754625D01*
X66990507Y-96868893D01*
X67104774Y-97008129D01*
X67189683Y-97166981D01*
X67189683Y-97166982D01*
X67241970Y-97339350D01*
X67255200Y-97473677D01*
X67255200Y-98086322D01*
X67241970Y-98220649D01*
X67241969Y-98220651D01*
X67241969Y-98220654D01*
X67189683Y-98393019D01*
X67189682Y-98393020D01*
X67104775Y-98551870D01*
X66990507Y-98691107D01*
X66851270Y-98805375D01*
X66771845Y-98847829D01*
X66692419Y-98890283D01*
X66520054Y-98942569D01*
X66520053Y-98942569D01*
X66520050Y-98942570D01*
X66340800Y-98960225D01*
X66161551Y-98942570D01*
X66161548Y-98942569D01*
X66161547Y-98942569D01*
X65989182Y-98890283D01*
X65909756Y-98847829D01*
X65830331Y-98805375D01*
X65691094Y-98691107D01*
X65576827Y-98551872D01*
X65491918Y-98393020D01*
X65491917Y-98393019D01*
X65439631Y-98220654D01*
X65439631Y-98220653D01*
X65439630Y-98220650D01*
X65426400Y-98086323D01*
X65426400Y-97473678D01*
X65439630Y-97339351D01*
X65439631Y-97339347D01*
X65491917Y-97166982D01*
X65518887Y-97116525D01*
X65576825Y-97008130D01*
X65691093Y-96868893D01*
X65830330Y-96754625D01*
X65909755Y-96712172D01*
X65989181Y-96669717D01*
X66161546Y-96617431D01*
X66161547Y-96617431D01*
X66161550Y-96617430D01*
X66340800Y-96599775D01*
X66520049Y-96617430D01*
X66520049Y-96617430D01*
G37*
G36*
X108201584Y-93167233D02*
G01*
X108201587Y-93167234D01*
X108201588Y-93167234D01*
X108371389Y-93218743D01*
X108418861Y-93244117D01*
X108527881Y-93302389D01*
X108665044Y-93414956D01*
X108777611Y-93552119D01*
X108818373Y-93628381D01*
X108861257Y-93708611D01*
X108889206Y-93800746D01*
X108912767Y-93878416D01*
X108930159Y-94055000D01*
X108912767Y-94231584D01*
X108912766Y-94231587D01*
X108912766Y-94231588D01*
X108861257Y-94401389D01*
X108861256Y-94401390D01*
X108777611Y-94557881D01*
X108665044Y-94695044D01*
X108527881Y-94807611D01*
X108418861Y-94865883D01*
X108371389Y-94891257D01*
X108201588Y-94942766D01*
X108201587Y-94942766D01*
X108201584Y-94942767D01*
X108069255Y-94955800D01*
X107980745Y-94955800D01*
X107848416Y-94942767D01*
X107848413Y-94942766D01*
X107848412Y-94942766D01*
X107678611Y-94891257D01*
X107631139Y-94865883D01*
X107522119Y-94807611D01*
X107384956Y-94695044D01*
X107272389Y-94557881D01*
X107188744Y-94401390D01*
X107188743Y-94401389D01*
X107137234Y-94231588D01*
X107137234Y-94231587D01*
X107137233Y-94231584D01*
X107119841Y-94055000D01*
X107137233Y-93878416D01*
X107160794Y-93800746D01*
X107188743Y-93708611D01*
X107231627Y-93628381D01*
X107272389Y-93552119D01*
X107384956Y-93414956D01*
X107522119Y-93302389D01*
X107631139Y-93244117D01*
X107678611Y-93218743D01*
X107848412Y-93167234D01*
X107848413Y-93167234D01*
X107848416Y-93167233D01*
X107980745Y-93154200D01*
X108069255Y-93154200D01*
X108201584Y-93167233D01*
X108201584Y-93167233D01*
G37*
G36*
X111106450Y-93078830D02*
G01*
X111106453Y-93078831D01*
X111106454Y-93078831D01*
X111278819Y-93131117D01*
X111346388Y-93167234D01*
X111437670Y-93216025D01*
X111576907Y-93330293D01*
X111691175Y-93469530D01*
X111733628Y-93548955D01*
X111776083Y-93628381D01*
X111828369Y-93800746D01*
X111828370Y-93800750D01*
X111846025Y-93980000D01*
X111828370Y-94159250D01*
X111828369Y-94159253D01*
X111828369Y-94159254D01*
X111776083Y-94331619D01*
X111776082Y-94331620D01*
X111691175Y-94490470D01*
X111576907Y-94629707D01*
X111437670Y-94743975D01*
X111367344Y-94781565D01*
X111278819Y-94828883D01*
X111106454Y-94881169D01*
X111106453Y-94881169D01*
X111106450Y-94881170D01*
X110972123Y-94894400D01*
X110609477Y-94894400D01*
X110475150Y-94881170D01*
X110475147Y-94881169D01*
X110475146Y-94881169D01*
X110302781Y-94828883D01*
X110214256Y-94781565D01*
X110143930Y-94743975D01*
X110004693Y-94629707D01*
X109890425Y-94490470D01*
X109805518Y-94331620D01*
X109805517Y-94331619D01*
X109753231Y-94159254D01*
X109753231Y-94159253D01*
X109753230Y-94159250D01*
X109735575Y-93980000D01*
X109753230Y-93800750D01*
X109753231Y-93800746D01*
X109805517Y-93628381D01*
X109847971Y-93548955D01*
X109890425Y-93469530D01*
X110004693Y-93330293D01*
X110143930Y-93216025D01*
X110235212Y-93167234D01*
X110302781Y-93131117D01*
X110475146Y-93078831D01*
X110475147Y-93078831D01*
X110475150Y-93078830D01*
X110609477Y-93065600D01*
X110972123Y-93065600D01*
X111106450Y-93078830D01*
X111106450Y-93078830D01*
G37*
G36*
X39497086Y-93218435D02*
G01*
X39645003Y-93279704D01*
X39778134Y-93368660D01*
X39891340Y-93481866D01*
X39980296Y-93614997D01*
X40041565Y-93762914D01*
X40072800Y-93919946D01*
X40072800Y-94080054D01*
X40041565Y-94237086D01*
X39980296Y-94385003D01*
X39891340Y-94518134D01*
X39778134Y-94631340D01*
X39645003Y-94720296D01*
X39497086Y-94781565D01*
X39340054Y-94812800D01*
X39179946Y-94812800D01*
X39022914Y-94781565D01*
X38874997Y-94720296D01*
X38741866Y-94631340D01*
X38628660Y-94518134D01*
X38539704Y-94385003D01*
X38478435Y-94237086D01*
X38447200Y-94080054D01*
X38447200Y-93919946D01*
X38478435Y-93762914D01*
X38539704Y-93614997D01*
X38628660Y-93481866D01*
X38741866Y-93368660D01*
X38874997Y-93279704D01*
X39022914Y-93218435D01*
X39179946Y-93187200D01*
X39340054Y-93187200D01*
X39497086Y-93218435D01*
X39497086Y-93218435D01*
G37*
G36*
X57497086Y-93218435D02*
G01*
X57645003Y-93279704D01*
X57778134Y-93368660D01*
X57891340Y-93481866D01*
X57980296Y-93614997D01*
X58041565Y-93762914D01*
X58072800Y-93919946D01*
X58072800Y-94080054D01*
X58041565Y-94237086D01*
X57980296Y-94385003D01*
X57891340Y-94518134D01*
X57778134Y-94631340D01*
X57645003Y-94720296D01*
X57497086Y-94781565D01*
X57340054Y-94812800D01*
X57179946Y-94812800D01*
X57022914Y-94781565D01*
X56874997Y-94720296D01*
X56741866Y-94631340D01*
X56628660Y-94518134D01*
X56539704Y-94385003D01*
X56478435Y-94237086D01*
X56447200Y-94080054D01*
X56447200Y-93919946D01*
X56478435Y-93762914D01*
X56539704Y-93614997D01*
X56628660Y-93481866D01*
X56741866Y-93368660D01*
X56874997Y-93279704D01*
X57022914Y-93218435D01*
X57179946Y-93187200D01*
X57340054Y-93187200D01*
X57497086Y-93218435D01*
X57497086Y-93218435D01*
G37*
G36*
X158758197Y-90503011D02*
G01*
X159131419Y-90657604D01*
X159467310Y-90882040D01*
X159752960Y-91167690D01*
X159977396Y-91503581D01*
X160131989Y-91876803D01*
X160210800Y-92273014D01*
X160210800Y-92676986D01*
X160131989Y-93073197D01*
X159977396Y-93446419D01*
X159752960Y-93782310D01*
X159467310Y-94067960D01*
X159131419Y-94292396D01*
X158758197Y-94446989D01*
X158361986Y-94525800D01*
X157958014Y-94525800D01*
X157561803Y-94446989D01*
X157188581Y-94292396D01*
X156852690Y-94067960D01*
X156567040Y-93782310D01*
X156342604Y-93446419D01*
X156188011Y-93073197D01*
X156109200Y-92676986D01*
X156109200Y-92273014D01*
X156188011Y-91876803D01*
X156342604Y-91503581D01*
X156567040Y-91167690D01*
X156852690Y-90882040D01*
X157188581Y-90657604D01*
X157561803Y-90503011D01*
X157958014Y-90424200D01*
X158361986Y-90424200D01*
X158758197Y-90503011D01*
X158758197Y-90503011D01*
G37*
G36*
X167558197Y-90503011D02*
G01*
X167931419Y-90657604D01*
X168267310Y-90882040D01*
X168552960Y-91167690D01*
X168777396Y-91503581D01*
X168931989Y-91876803D01*
X169010800Y-92273014D01*
X169010800Y-92676986D01*
X168931989Y-93073197D01*
X168777396Y-93446419D01*
X168552960Y-93782310D01*
X168267310Y-94067960D01*
X167931419Y-94292396D01*
X167558197Y-94446989D01*
X167161986Y-94525800D01*
X166758014Y-94525800D01*
X166361803Y-94446989D01*
X165988581Y-94292396D01*
X165652690Y-94067960D01*
X165367040Y-93782310D01*
X165142604Y-93446419D01*
X164988011Y-93073197D01*
X164909200Y-92676986D01*
X164909200Y-92273014D01*
X164988011Y-91876803D01*
X165142604Y-91503581D01*
X165367040Y-91167690D01*
X165652690Y-90882040D01*
X165988581Y-90657604D01*
X166361803Y-90503011D01*
X166758014Y-90424200D01*
X167161986Y-90424200D01*
X167558197Y-90503011D01*
X167558197Y-90503011D01*
G37*
G36*
X134350800Y-93850800D02*
G01*
X131449200Y-93850800D01*
X131449200Y-90149200D01*
X134350800Y-90149200D01*
X134350800Y-93850800D01*
X134350800Y-93850800D01*
G37*
G36*
X122950800Y-93850800D02*
G01*
X120049200Y-93850800D01*
X120049200Y-90149200D01*
X122950800Y-90149200D01*
X122950800Y-93850800D01*
X122950800Y-93850800D01*
G37*
G36*
X108201584Y-90627233D02*
G01*
X108201587Y-90627234D01*
X108201588Y-90627234D01*
X108371389Y-90678743D01*
X108418861Y-90704117D01*
X108527881Y-90762389D01*
X108665044Y-90874956D01*
X108777611Y-91012119D01*
X108818373Y-91088381D01*
X108861257Y-91168611D01*
X108889206Y-91260746D01*
X108912767Y-91338416D01*
X108930159Y-91515000D01*
X108912767Y-91691584D01*
X108912766Y-91691587D01*
X108912766Y-91691588D01*
X108861257Y-91861389D01*
X108861256Y-91861390D01*
X108777611Y-92017881D01*
X108665044Y-92155044D01*
X108527881Y-92267611D01*
X108418861Y-92325883D01*
X108371389Y-92351257D01*
X108201588Y-92402766D01*
X108201587Y-92402766D01*
X108201584Y-92402767D01*
X108069255Y-92415800D01*
X107980745Y-92415800D01*
X107848416Y-92402767D01*
X107848413Y-92402766D01*
X107848412Y-92402766D01*
X107678611Y-92351257D01*
X107631139Y-92325883D01*
X107522119Y-92267611D01*
X107384956Y-92155044D01*
X107272389Y-92017881D01*
X107188744Y-91861390D01*
X107188743Y-91861389D01*
X107137234Y-91691588D01*
X107137234Y-91691587D01*
X107137233Y-91691584D01*
X107119841Y-91515000D01*
X107137233Y-91338416D01*
X107160794Y-91260746D01*
X107188743Y-91168611D01*
X107231627Y-91088381D01*
X107272389Y-91012119D01*
X107384956Y-90874956D01*
X107522119Y-90762389D01*
X107631139Y-90704117D01*
X107678611Y-90678743D01*
X107848412Y-90627234D01*
X107848413Y-90627234D01*
X107848416Y-90627233D01*
X107980745Y-90614200D01*
X108069255Y-90614200D01*
X108201584Y-90627233D01*
X108201584Y-90627233D01*
G37*
G36*
X111106450Y-90538830D02*
G01*
X111106453Y-90538831D01*
X111106454Y-90538831D01*
X111278819Y-90591117D01*
X111346388Y-90627234D01*
X111437670Y-90676025D01*
X111437672Y-90676026D01*
X111437671Y-90676026D01*
X111576907Y-90790293D01*
X111691174Y-90929529D01*
X111776083Y-91088381D01*
X111800141Y-91167691D01*
X111828370Y-91260750D01*
X111846025Y-91440000D01*
X111828370Y-91619250D01*
X111828369Y-91619253D01*
X111828369Y-91619254D01*
X111776083Y-91791619D01*
X111776082Y-91791620D01*
X111691175Y-91950470D01*
X111576907Y-92089707D01*
X111437670Y-92203975D01*
X111358245Y-92246429D01*
X111278819Y-92288883D01*
X111106454Y-92341169D01*
X111106453Y-92341169D01*
X111106450Y-92341170D01*
X110972123Y-92354400D01*
X110609477Y-92354400D01*
X110475150Y-92341170D01*
X110475147Y-92341169D01*
X110475146Y-92341169D01*
X110302781Y-92288883D01*
X110223355Y-92246429D01*
X110143930Y-92203975D01*
X110004693Y-92089707D01*
X109890425Y-91950470D01*
X109805518Y-91791620D01*
X109805517Y-91791619D01*
X109753231Y-91619254D01*
X109753231Y-91619253D01*
X109753230Y-91619250D01*
X109735575Y-91440000D01*
X109753230Y-91260750D01*
X109781459Y-91167691D01*
X109805517Y-91088381D01*
X109890426Y-90929529D01*
X110004693Y-90790293D01*
X110143929Y-90676026D01*
X110143928Y-90676026D01*
X110143930Y-90676025D01*
X110235212Y-90627234D01*
X110302781Y-90591117D01*
X110475146Y-90538831D01*
X110475147Y-90538831D01*
X110475150Y-90538830D01*
X110609477Y-90525600D01*
X110972123Y-90525600D01*
X111106450Y-90538830D01*
X111106450Y-90538830D01*
G37*
G36*
X108201584Y-88087233D02*
G01*
X108201587Y-88087234D01*
X108201588Y-88087234D01*
X108371389Y-88138743D01*
X108387564Y-88147389D01*
X108527881Y-88222389D01*
X108665044Y-88334956D01*
X108777611Y-88472119D01*
X108835883Y-88581139D01*
X108861257Y-88628611D01*
X108890016Y-88723416D01*
X108912767Y-88798416D01*
X108930159Y-88975000D01*
X108912767Y-89151584D01*
X108912766Y-89151587D01*
X108912766Y-89151588D01*
X108861257Y-89321389D01*
X108861256Y-89321390D01*
X108777611Y-89477881D01*
X108665044Y-89615044D01*
X108527881Y-89727611D01*
X108418861Y-89785883D01*
X108371389Y-89811257D01*
X108201588Y-89862766D01*
X108201587Y-89862766D01*
X108201584Y-89862767D01*
X108069255Y-89875800D01*
X107980745Y-89875800D01*
X107848416Y-89862767D01*
X107848413Y-89862766D01*
X107848412Y-89862766D01*
X107678611Y-89811257D01*
X107631139Y-89785883D01*
X107522119Y-89727611D01*
X107384956Y-89615044D01*
X107272389Y-89477881D01*
X107188744Y-89321390D01*
X107188743Y-89321389D01*
X107137234Y-89151588D01*
X107137234Y-89151587D01*
X107137233Y-89151584D01*
X107119841Y-88975000D01*
X107137233Y-88798416D01*
X107159984Y-88723416D01*
X107188743Y-88628611D01*
X107214117Y-88581139D01*
X107272389Y-88472119D01*
X107384956Y-88334956D01*
X107522119Y-88222389D01*
X107662436Y-88147389D01*
X107678611Y-88138743D01*
X107848412Y-88087234D01*
X107848413Y-88087234D01*
X107848416Y-88087233D01*
X107980745Y-88074200D01*
X108069255Y-88074200D01*
X108201584Y-88087233D01*
X108201584Y-88087233D01*
G37*
G36*
X111117384Y-88012233D02*
G01*
X111117387Y-88012234D01*
X111117388Y-88012234D01*
X111287189Y-88063743D01*
X111331137Y-88087234D01*
X111443681Y-88147389D01*
X111580844Y-88259956D01*
X111693411Y-88397119D01*
X111733500Y-88472121D01*
X111777057Y-88553611D01*
X111799808Y-88628611D01*
X111828567Y-88723416D01*
X111845959Y-88900000D01*
X111828567Y-89076584D01*
X111828566Y-89076587D01*
X111828566Y-89076588D01*
X111777057Y-89246389D01*
X111777056Y-89246390D01*
X111693411Y-89402881D01*
X111580844Y-89540044D01*
X111443681Y-89652611D01*
X111334661Y-89710883D01*
X111287189Y-89736257D01*
X111117388Y-89787766D01*
X111117387Y-89787766D01*
X111117384Y-89787767D01*
X110985055Y-89800800D01*
X110596545Y-89800800D01*
X110464216Y-89787767D01*
X110464213Y-89787766D01*
X110464212Y-89787766D01*
X110294411Y-89736257D01*
X110246939Y-89710883D01*
X110137919Y-89652611D01*
X110000756Y-89540044D01*
X109888189Y-89402881D01*
X109804544Y-89246390D01*
X109804543Y-89246389D01*
X109753034Y-89076588D01*
X109753034Y-89076587D01*
X109753033Y-89076584D01*
X109735641Y-88900000D01*
X109753033Y-88723416D01*
X109781792Y-88628611D01*
X109804543Y-88553611D01*
X109848100Y-88472121D01*
X109888189Y-88397119D01*
X110000756Y-88259956D01*
X110137919Y-88147389D01*
X110250463Y-88087234D01*
X110294411Y-88063743D01*
X110464212Y-88012234D01*
X110464213Y-88012234D01*
X110464216Y-88012233D01*
X110596545Y-87999200D01*
X110985055Y-87999200D01*
X111117384Y-88012233D01*
X111117384Y-88012233D01*
G37*
G36*
X108925800Y-87335800D02*
G01*
X107124200Y-87335800D01*
X107124200Y-85534200D01*
X108925800Y-85534200D01*
X108925800Y-87335800D01*
X108925800Y-87335800D01*
G37*
G36*
X111106450Y-85458830D02*
G01*
X111106453Y-85458831D01*
X111106454Y-85458831D01*
X111278819Y-85511117D01*
X111358245Y-85553572D01*
X111437670Y-85596025D01*
X111437672Y-85596026D01*
X111437671Y-85596026D01*
X111576907Y-85710293D01*
X111691174Y-85849529D01*
X111776083Y-86008381D01*
X111828369Y-86180746D01*
X111828370Y-86180750D01*
X111846025Y-86360000D01*
X111828370Y-86539250D01*
X111828369Y-86539253D01*
X111828369Y-86539254D01*
X111776083Y-86711619D01*
X111776082Y-86711620D01*
X111691175Y-86870470D01*
X111576907Y-87009707D01*
X111437670Y-87123975D01*
X111358245Y-87166429D01*
X111278819Y-87208883D01*
X111106454Y-87261169D01*
X111106453Y-87261169D01*
X111106450Y-87261170D01*
X110972123Y-87274400D01*
X110609477Y-87274400D01*
X110475150Y-87261170D01*
X110475147Y-87261169D01*
X110475146Y-87261169D01*
X110302781Y-87208883D01*
X110223355Y-87166429D01*
X110143930Y-87123975D01*
X110004693Y-87009707D01*
X109890425Y-86870470D01*
X109805518Y-86711620D01*
X109805517Y-86711619D01*
X109753231Y-86539254D01*
X109753231Y-86539253D01*
X109753230Y-86539250D01*
X109735575Y-86360000D01*
X109753230Y-86180750D01*
X109753231Y-86180746D01*
X109805517Y-86008381D01*
X109890426Y-85849529D01*
X110004693Y-85710293D01*
X110143929Y-85596026D01*
X110143928Y-85596026D01*
X110143930Y-85596025D01*
X110223355Y-85553572D01*
X110302781Y-85511117D01*
X110475146Y-85458831D01*
X110475147Y-85458831D01*
X110475150Y-85458830D01*
X110609477Y-85445600D01*
X110972123Y-85445600D01*
X111106450Y-85458830D01*
X111106450Y-85458830D01*
G37*
G36*
X125006508Y-83989582D02*
G01*
X125197741Y-84068793D01*
X125369847Y-84183791D01*
X125516209Y-84330153D01*
X125631207Y-84502259D01*
X125710418Y-84693492D01*
X125750800Y-84896505D01*
X125750800Y-85103495D01*
X125710418Y-85306508D01*
X125631207Y-85497741D01*
X125516209Y-85669847D01*
X125369847Y-85816209D01*
X125197741Y-85931207D01*
X125006508Y-86010418D01*
X124803495Y-86050800D01*
X124596505Y-86050800D01*
X124393492Y-86010418D01*
X124202259Y-85931207D01*
X124030153Y-85816209D01*
X123883791Y-85669847D01*
X123768793Y-85497741D01*
X123689582Y-85306508D01*
X123649200Y-85103495D01*
X123649200Y-84896505D01*
X123689582Y-84693492D01*
X123768793Y-84502259D01*
X123883791Y-84330153D01*
X124030153Y-84183791D01*
X124202259Y-84068793D01*
X124393492Y-83989582D01*
X124596505Y-83949200D01*
X124803495Y-83949200D01*
X125006508Y-83989582D01*
X125006508Y-83989582D01*
G37*
G36*
X130006508Y-83989582D02*
G01*
X130197741Y-84068793D01*
X130369847Y-84183791D01*
X130516209Y-84330153D01*
X130631207Y-84502259D01*
X130710418Y-84693492D01*
X130750800Y-84896505D01*
X130750800Y-85103495D01*
X130710418Y-85306508D01*
X130631207Y-85497741D01*
X130516209Y-85669847D01*
X130369847Y-85816209D01*
X130197741Y-85931207D01*
X130006508Y-86010418D01*
X129803495Y-86050800D01*
X129596505Y-86050800D01*
X129393492Y-86010418D01*
X129202259Y-85931207D01*
X129030153Y-85816209D01*
X128883791Y-85669847D01*
X128768793Y-85497741D01*
X128689582Y-85306508D01*
X128649200Y-85103495D01*
X128649200Y-84896505D01*
X128689582Y-84693492D01*
X128768793Y-84502259D01*
X128883791Y-84330153D01*
X129030153Y-84183791D01*
X129202259Y-84068793D01*
X129393492Y-83989582D01*
X129596505Y-83949200D01*
X129803495Y-83949200D01*
X130006508Y-83989582D01*
X130006508Y-83989582D01*
G37*
G36*
X112240050Y-81377430D02*
G01*
X112240053Y-81377431D01*
X112240054Y-81377431D01*
X112412419Y-81429717D01*
X112491845Y-81472172D01*
X112571270Y-81514625D01*
X112710507Y-81628893D01*
X112824775Y-81768130D01*
X112867229Y-81847555D01*
X112909683Y-81926981D01*
X112961969Y-82099346D01*
X112961969Y-82099349D01*
X112961970Y-82099351D01*
X112975200Y-82233678D01*
X112975200Y-82846323D01*
X112961970Y-82980650D01*
X112961969Y-82980653D01*
X112961969Y-82980654D01*
X112909683Y-83153019D01*
X112909682Y-83153020D01*
X112824775Y-83311870D01*
X112710507Y-83451107D01*
X112571270Y-83565375D01*
X112462875Y-83623313D01*
X112412418Y-83650283D01*
X112240053Y-83702569D01*
X112240052Y-83702569D01*
X112240049Y-83702570D01*
X112060800Y-83720225D01*
X111881550Y-83702570D01*
X111881547Y-83702569D01*
X111881546Y-83702569D01*
X111709181Y-83650283D01*
X111629755Y-83607829D01*
X111550330Y-83565375D01*
X111411093Y-83451107D01*
X111296825Y-83311870D01*
X111238887Y-83203475D01*
X111211917Y-83153018D01*
X111159631Y-82980653D01*
X111159631Y-82980652D01*
X111159630Y-82980649D01*
X111146400Y-82846322D01*
X111146400Y-82233677D01*
X111159630Y-82099350D01*
X111206858Y-81943660D01*
X111211917Y-81926981D01*
X111296826Y-81768130D01*
X111296827Y-81768128D01*
X111411094Y-81628893D01*
X111550331Y-81514625D01*
X111629756Y-81472172D01*
X111709182Y-81429717D01*
X111881547Y-81377431D01*
X111881548Y-81377431D01*
X111881551Y-81377430D01*
X112060800Y-81359775D01*
X112240050Y-81377430D01*
X112240050Y-81377430D01*
G37*
G36*
X81760050Y-81377430D02*
G01*
X81760053Y-81377431D01*
X81760054Y-81377431D01*
X81932419Y-81429717D01*
X82011845Y-81472172D01*
X82091270Y-81514625D01*
X82230507Y-81628893D01*
X82344775Y-81768130D01*
X82387229Y-81847555D01*
X82429683Y-81926981D01*
X82481969Y-82099346D01*
X82481969Y-82099349D01*
X82481970Y-82099351D01*
X82495200Y-82233678D01*
X82495200Y-82846323D01*
X82481970Y-82980650D01*
X82481969Y-82980653D01*
X82481969Y-82980654D01*
X82429683Y-83153019D01*
X82429682Y-83153020D01*
X82344775Y-83311870D01*
X82230507Y-83451107D01*
X82091270Y-83565375D01*
X81982875Y-83623313D01*
X81932418Y-83650283D01*
X81760053Y-83702569D01*
X81760052Y-83702569D01*
X81760049Y-83702570D01*
X81580800Y-83720225D01*
X81401550Y-83702570D01*
X81401547Y-83702569D01*
X81401546Y-83702569D01*
X81229181Y-83650283D01*
X81149755Y-83607829D01*
X81070330Y-83565375D01*
X80931093Y-83451107D01*
X80816825Y-83311870D01*
X80758887Y-83203475D01*
X80731917Y-83153018D01*
X80679631Y-82980653D01*
X80679631Y-82980652D01*
X80679630Y-82980649D01*
X80666400Y-82846322D01*
X80666400Y-82233677D01*
X80679630Y-82099350D01*
X80726858Y-81943660D01*
X80731917Y-81926981D01*
X80816826Y-81768130D01*
X80816827Y-81768128D01*
X80931094Y-81628893D01*
X81070331Y-81514625D01*
X81149756Y-81472172D01*
X81229182Y-81429717D01*
X81401547Y-81377431D01*
X81401548Y-81377431D01*
X81401551Y-81377430D01*
X81580800Y-81359775D01*
X81760050Y-81377430D01*
X81760050Y-81377430D01*
G37*
G36*
X109700050Y-81377430D02*
G01*
X109700053Y-81377431D01*
X109700054Y-81377431D01*
X109872419Y-81429717D01*
X109951845Y-81472172D01*
X110031270Y-81514625D01*
X110170507Y-81628893D01*
X110284775Y-81768130D01*
X110327229Y-81847555D01*
X110369683Y-81926981D01*
X110421969Y-82099346D01*
X110421969Y-82099349D01*
X110421970Y-82099351D01*
X110435200Y-82233678D01*
X110435200Y-82846323D01*
X110421970Y-82980650D01*
X110421969Y-82980653D01*
X110421969Y-82980654D01*
X110369683Y-83153019D01*
X110369682Y-83153020D01*
X110284775Y-83311870D01*
X110170507Y-83451107D01*
X110031270Y-83565375D01*
X109922875Y-83623313D01*
X109872418Y-83650283D01*
X109700053Y-83702569D01*
X109700052Y-83702569D01*
X109700049Y-83702570D01*
X109520800Y-83720225D01*
X109341550Y-83702570D01*
X109341547Y-83702569D01*
X109341546Y-83702569D01*
X109169181Y-83650283D01*
X109089755Y-83607829D01*
X109010330Y-83565375D01*
X108871093Y-83451107D01*
X108756825Y-83311870D01*
X108698887Y-83203475D01*
X108671917Y-83153018D01*
X108619631Y-82980653D01*
X108619631Y-82980652D01*
X108619630Y-82980649D01*
X108606400Y-82846322D01*
X108606400Y-82233677D01*
X108619630Y-82099350D01*
X108666858Y-81943660D01*
X108671917Y-81926981D01*
X108756826Y-81768130D01*
X108756827Y-81768128D01*
X108871094Y-81628893D01*
X109010331Y-81514625D01*
X109089756Y-81472172D01*
X109169182Y-81429717D01*
X109341547Y-81377431D01*
X109341548Y-81377431D01*
X109341551Y-81377430D01*
X109520800Y-81359775D01*
X109700050Y-81377430D01*
X109700050Y-81377430D01*
G37*
G36*
X107160050Y-81377430D02*
G01*
X107160053Y-81377431D01*
X107160054Y-81377431D01*
X107332419Y-81429717D01*
X107411845Y-81472172D01*
X107491270Y-81514625D01*
X107630507Y-81628893D01*
X107744775Y-81768130D01*
X107787229Y-81847555D01*
X107829683Y-81926981D01*
X107881969Y-82099346D01*
X107881969Y-82099349D01*
X107881970Y-82099351D01*
X107895200Y-82233678D01*
X107895200Y-82846323D01*
X107881970Y-82980650D01*
X107881969Y-82980653D01*
X107881969Y-82980654D01*
X107829683Y-83153019D01*
X107829682Y-83153020D01*
X107744775Y-83311870D01*
X107630507Y-83451107D01*
X107491270Y-83565375D01*
X107382875Y-83623313D01*
X107332418Y-83650283D01*
X107160053Y-83702569D01*
X107160052Y-83702569D01*
X107160049Y-83702570D01*
X106980800Y-83720225D01*
X106801550Y-83702570D01*
X106801547Y-83702569D01*
X106801546Y-83702569D01*
X106629181Y-83650283D01*
X106549755Y-83607829D01*
X106470330Y-83565375D01*
X106331093Y-83451107D01*
X106216825Y-83311870D01*
X106158887Y-83203475D01*
X106131917Y-83153018D01*
X106079631Y-82980653D01*
X106079631Y-82980652D01*
X106079630Y-82980649D01*
X106066400Y-82846322D01*
X106066400Y-82233677D01*
X106079630Y-82099350D01*
X106126858Y-81943660D01*
X106131917Y-81926981D01*
X106216826Y-81768130D01*
X106216827Y-81768128D01*
X106331094Y-81628893D01*
X106470331Y-81514625D01*
X106549756Y-81472172D01*
X106629182Y-81429717D01*
X106801547Y-81377431D01*
X106801548Y-81377431D01*
X106801551Y-81377430D01*
X106980800Y-81359775D01*
X107160050Y-81377430D01*
X107160050Y-81377430D01*
G37*
G36*
X104620050Y-81377430D02*
G01*
X104620053Y-81377431D01*
X104620054Y-81377431D01*
X104792419Y-81429717D01*
X104871845Y-81472172D01*
X104951270Y-81514625D01*
X105090507Y-81628893D01*
X105204775Y-81768130D01*
X105247229Y-81847555D01*
X105289683Y-81926981D01*
X105341969Y-82099346D01*
X105341969Y-82099349D01*
X105341970Y-82099351D01*
X105355200Y-82233678D01*
X105355200Y-82846323D01*
X105341970Y-82980650D01*
X105341969Y-82980653D01*
X105341969Y-82980654D01*
X105289683Y-83153019D01*
X105289682Y-83153020D01*
X105204775Y-83311870D01*
X105090507Y-83451107D01*
X104951270Y-83565375D01*
X104842875Y-83623313D01*
X104792418Y-83650283D01*
X104620053Y-83702569D01*
X104620052Y-83702569D01*
X104620049Y-83702570D01*
X104440800Y-83720225D01*
X104261550Y-83702570D01*
X104261547Y-83702569D01*
X104261546Y-83702569D01*
X104089181Y-83650283D01*
X104009755Y-83607829D01*
X103930330Y-83565375D01*
X103791093Y-83451107D01*
X103676825Y-83311870D01*
X103618887Y-83203475D01*
X103591917Y-83153018D01*
X103539631Y-82980653D01*
X103539631Y-82980652D01*
X103539630Y-82980649D01*
X103526400Y-82846322D01*
X103526400Y-82233677D01*
X103539630Y-82099350D01*
X103586858Y-81943660D01*
X103591917Y-81926981D01*
X103676826Y-81768130D01*
X103676827Y-81768128D01*
X103791094Y-81628893D01*
X103930331Y-81514625D01*
X104009756Y-81472172D01*
X104089182Y-81429717D01*
X104261547Y-81377431D01*
X104261548Y-81377431D01*
X104261551Y-81377430D01*
X104440800Y-81359775D01*
X104620050Y-81377430D01*
X104620050Y-81377430D01*
G37*
G36*
X102080050Y-81377430D02*
G01*
X102080053Y-81377431D01*
X102080054Y-81377431D01*
X102252419Y-81429717D01*
X102331845Y-81472172D01*
X102411270Y-81514625D01*
X102550507Y-81628893D01*
X102664775Y-81768130D01*
X102707229Y-81847555D01*
X102749683Y-81926981D01*
X102801969Y-82099346D01*
X102801969Y-82099349D01*
X102801970Y-82099351D01*
X102815200Y-82233678D01*
X102815200Y-82846323D01*
X102801970Y-82980650D01*
X102801969Y-82980653D01*
X102801969Y-82980654D01*
X102749683Y-83153019D01*
X102749682Y-83153020D01*
X102664775Y-83311870D01*
X102550507Y-83451107D01*
X102411270Y-83565375D01*
X102302875Y-83623313D01*
X102252418Y-83650283D01*
X102080053Y-83702569D01*
X102080052Y-83702569D01*
X102080049Y-83702570D01*
X101900800Y-83720225D01*
X101721550Y-83702570D01*
X101721547Y-83702569D01*
X101721546Y-83702569D01*
X101549181Y-83650283D01*
X101469755Y-83607829D01*
X101390330Y-83565375D01*
X101251093Y-83451107D01*
X101136825Y-83311870D01*
X101078887Y-83203475D01*
X101051917Y-83153018D01*
X100999631Y-82980653D01*
X100999631Y-82980652D01*
X100999630Y-82980649D01*
X100986400Y-82846322D01*
X100986400Y-82233677D01*
X100999630Y-82099350D01*
X101046858Y-81943660D01*
X101051917Y-81926981D01*
X101136826Y-81768130D01*
X101136827Y-81768128D01*
X101251094Y-81628893D01*
X101390331Y-81514625D01*
X101469756Y-81472172D01*
X101549182Y-81429717D01*
X101721547Y-81377431D01*
X101721548Y-81377431D01*
X101721551Y-81377430D01*
X101900800Y-81359775D01*
X102080050Y-81377430D01*
X102080050Y-81377430D01*
G37*
G36*
X99540050Y-81377430D02*
G01*
X99540053Y-81377431D01*
X99540054Y-81377431D01*
X99712419Y-81429717D01*
X99791845Y-81472172D01*
X99871270Y-81514625D01*
X100010507Y-81628893D01*
X100124775Y-81768130D01*
X100167229Y-81847555D01*
X100209683Y-81926981D01*
X100261969Y-82099346D01*
X100261969Y-82099349D01*
X100261970Y-82099351D01*
X100275200Y-82233678D01*
X100275200Y-82846323D01*
X100261970Y-82980650D01*
X100261969Y-82980653D01*
X100261969Y-82980654D01*
X100209683Y-83153019D01*
X100209682Y-83153020D01*
X100124775Y-83311870D01*
X100010507Y-83451107D01*
X99871270Y-83565375D01*
X99762875Y-83623313D01*
X99712418Y-83650283D01*
X99540053Y-83702569D01*
X99540052Y-83702569D01*
X99540049Y-83702570D01*
X99360800Y-83720225D01*
X99181550Y-83702570D01*
X99181547Y-83702569D01*
X99181546Y-83702569D01*
X99009181Y-83650283D01*
X98929755Y-83607829D01*
X98850330Y-83565375D01*
X98711093Y-83451107D01*
X98596825Y-83311870D01*
X98538887Y-83203475D01*
X98511917Y-83153018D01*
X98459631Y-82980653D01*
X98459631Y-82980652D01*
X98459630Y-82980649D01*
X98446400Y-82846322D01*
X98446400Y-82233677D01*
X98459630Y-82099350D01*
X98506858Y-81943660D01*
X98511917Y-81926981D01*
X98596826Y-81768130D01*
X98596827Y-81768128D01*
X98711094Y-81628893D01*
X98850331Y-81514625D01*
X98929756Y-81472172D01*
X99009182Y-81429717D01*
X99181547Y-81377431D01*
X99181548Y-81377431D01*
X99181551Y-81377430D01*
X99360800Y-81359775D01*
X99540050Y-81377430D01*
X99540050Y-81377430D01*
G37*
G36*
X97000050Y-81377430D02*
G01*
X97000053Y-81377431D01*
X97000054Y-81377431D01*
X97172419Y-81429717D01*
X97251845Y-81472172D01*
X97331270Y-81514625D01*
X97470507Y-81628893D01*
X97584775Y-81768130D01*
X97627229Y-81847555D01*
X97669683Y-81926981D01*
X97721969Y-82099346D01*
X97721969Y-82099349D01*
X97721970Y-82099351D01*
X97735200Y-82233678D01*
X97735200Y-82846323D01*
X97721970Y-82980650D01*
X97721969Y-82980653D01*
X97721969Y-82980654D01*
X97669683Y-83153019D01*
X97669682Y-83153020D01*
X97584775Y-83311870D01*
X97470507Y-83451107D01*
X97331270Y-83565375D01*
X97222875Y-83623313D01*
X97172418Y-83650283D01*
X97000053Y-83702569D01*
X97000052Y-83702569D01*
X97000049Y-83702570D01*
X96820800Y-83720225D01*
X96641550Y-83702570D01*
X96641547Y-83702569D01*
X96641546Y-83702569D01*
X96469181Y-83650283D01*
X96389755Y-83607829D01*
X96310330Y-83565375D01*
X96171093Y-83451107D01*
X96056825Y-83311870D01*
X95998887Y-83203475D01*
X95971917Y-83153018D01*
X95919631Y-82980653D01*
X95919631Y-82980652D01*
X95919630Y-82980649D01*
X95906400Y-82846322D01*
X95906400Y-82233677D01*
X95919630Y-82099350D01*
X95966858Y-81943660D01*
X95971917Y-81926981D01*
X96056826Y-81768130D01*
X96056827Y-81768128D01*
X96171094Y-81628893D01*
X96310331Y-81514625D01*
X96389756Y-81472172D01*
X96469182Y-81429717D01*
X96641547Y-81377431D01*
X96641548Y-81377431D01*
X96641551Y-81377430D01*
X96820800Y-81359775D01*
X97000050Y-81377430D01*
X97000050Y-81377430D01*
G37*
G36*
X91920050Y-81377430D02*
G01*
X91920053Y-81377431D01*
X91920054Y-81377431D01*
X92092419Y-81429717D01*
X92171845Y-81472172D01*
X92251270Y-81514625D01*
X92390507Y-81628893D01*
X92504775Y-81768130D01*
X92547229Y-81847555D01*
X92589683Y-81926981D01*
X92641969Y-82099346D01*
X92641969Y-82099349D01*
X92641970Y-82099351D01*
X92655200Y-82233678D01*
X92655200Y-82846323D01*
X92641970Y-82980650D01*
X92641969Y-82980653D01*
X92641969Y-82980654D01*
X92589683Y-83153019D01*
X92589682Y-83153020D01*
X92504775Y-83311870D01*
X92390507Y-83451107D01*
X92251270Y-83565375D01*
X92142875Y-83623313D01*
X92092418Y-83650283D01*
X91920053Y-83702569D01*
X91920052Y-83702569D01*
X91920049Y-83702570D01*
X91740800Y-83720225D01*
X91561550Y-83702570D01*
X91561547Y-83702569D01*
X91561546Y-83702569D01*
X91389181Y-83650283D01*
X91309755Y-83607829D01*
X91230330Y-83565375D01*
X91091093Y-83451107D01*
X90976825Y-83311870D01*
X90918887Y-83203475D01*
X90891917Y-83153018D01*
X90839631Y-82980653D01*
X90839631Y-82980652D01*
X90839630Y-82980649D01*
X90826400Y-82846322D01*
X90826400Y-82233677D01*
X90839630Y-82099350D01*
X90886858Y-81943660D01*
X90891917Y-81926981D01*
X90976826Y-81768130D01*
X90976827Y-81768128D01*
X91091094Y-81628893D01*
X91230331Y-81514625D01*
X91309756Y-81472172D01*
X91389182Y-81429717D01*
X91561547Y-81377431D01*
X91561548Y-81377431D01*
X91561551Y-81377430D01*
X91740800Y-81359775D01*
X91920050Y-81377430D01*
X91920050Y-81377430D01*
G37*
G36*
X94460050Y-81377430D02*
G01*
X94460053Y-81377431D01*
X94460054Y-81377431D01*
X94632419Y-81429717D01*
X94711845Y-81472172D01*
X94791270Y-81514625D01*
X94930507Y-81628893D01*
X95044775Y-81768130D01*
X95087229Y-81847555D01*
X95129683Y-81926981D01*
X95181969Y-82099346D01*
X95181969Y-82099349D01*
X95181970Y-82099351D01*
X95195200Y-82233678D01*
X95195200Y-82846323D01*
X95181970Y-82980650D01*
X95181969Y-82980653D01*
X95181969Y-82980654D01*
X95129683Y-83153019D01*
X95129682Y-83153020D01*
X95044775Y-83311870D01*
X94930507Y-83451107D01*
X94791270Y-83565375D01*
X94682875Y-83623313D01*
X94632418Y-83650283D01*
X94460053Y-83702569D01*
X94460052Y-83702569D01*
X94460049Y-83702570D01*
X94280800Y-83720225D01*
X94101550Y-83702570D01*
X94101547Y-83702569D01*
X94101546Y-83702569D01*
X93929181Y-83650283D01*
X93849755Y-83607829D01*
X93770330Y-83565375D01*
X93631093Y-83451107D01*
X93516825Y-83311870D01*
X93458887Y-83203475D01*
X93431917Y-83153018D01*
X93379631Y-82980653D01*
X93379631Y-82980652D01*
X93379630Y-82980649D01*
X93366400Y-82846322D01*
X93366400Y-82233677D01*
X93379630Y-82099350D01*
X93426858Y-81943660D01*
X93431917Y-81926981D01*
X93516826Y-81768130D01*
X93516827Y-81768128D01*
X93631094Y-81628893D01*
X93770331Y-81514625D01*
X93849756Y-81472172D01*
X93929182Y-81429717D01*
X94101547Y-81377431D01*
X94101548Y-81377431D01*
X94101551Y-81377430D01*
X94280800Y-81359775D01*
X94460050Y-81377430D01*
X94460050Y-81377430D01*
G37*
G36*
X66520050Y-81377430D02*
G01*
X66520053Y-81377431D01*
X66520054Y-81377431D01*
X66692419Y-81429717D01*
X66771845Y-81472172D01*
X66851270Y-81514625D01*
X66990507Y-81628893D01*
X67104775Y-81768130D01*
X67147229Y-81847555D01*
X67189683Y-81926981D01*
X67241969Y-82099346D01*
X67241969Y-82099349D01*
X67241970Y-82099351D01*
X67255200Y-82233678D01*
X67255200Y-82846323D01*
X67241970Y-82980650D01*
X67241969Y-82980653D01*
X67241969Y-82980654D01*
X67189683Y-83153019D01*
X67189682Y-83153020D01*
X67104775Y-83311870D01*
X66990507Y-83451107D01*
X66851270Y-83565375D01*
X66742875Y-83623313D01*
X66692418Y-83650283D01*
X66520053Y-83702569D01*
X66520052Y-83702569D01*
X66520049Y-83702570D01*
X66340800Y-83720225D01*
X66161550Y-83702570D01*
X66161547Y-83702569D01*
X66161546Y-83702569D01*
X65989181Y-83650283D01*
X65909755Y-83607829D01*
X65830330Y-83565375D01*
X65691093Y-83451107D01*
X65576825Y-83311870D01*
X65518887Y-83203475D01*
X65491917Y-83153018D01*
X65439631Y-82980653D01*
X65439631Y-82980652D01*
X65439630Y-82980649D01*
X65426400Y-82846322D01*
X65426400Y-82233677D01*
X65439630Y-82099350D01*
X65486858Y-81943660D01*
X65491917Y-81926981D01*
X65576826Y-81768130D01*
X65576827Y-81768128D01*
X65691094Y-81628893D01*
X65830331Y-81514625D01*
X65909756Y-81472172D01*
X65989182Y-81429717D01*
X66161547Y-81377431D01*
X66161548Y-81377431D01*
X66161551Y-81377430D01*
X66340800Y-81359775D01*
X66520050Y-81377430D01*
X66520050Y-81377430D01*
G37*
G36*
X89380050Y-81377430D02*
G01*
X89380053Y-81377431D01*
X89380054Y-81377431D01*
X89552419Y-81429717D01*
X89631845Y-81472172D01*
X89711270Y-81514625D01*
X89850507Y-81628893D01*
X89964775Y-81768130D01*
X90007229Y-81847555D01*
X90049683Y-81926981D01*
X90101969Y-82099346D01*
X90101969Y-82099349D01*
X90101970Y-82099351D01*
X90115200Y-82233678D01*
X90115200Y-82846323D01*
X90101970Y-82980650D01*
X90101969Y-82980653D01*
X90101969Y-82980654D01*
X90049683Y-83153019D01*
X90049682Y-83153020D01*
X89964775Y-83311870D01*
X89850507Y-83451107D01*
X89711270Y-83565375D01*
X89602875Y-83623313D01*
X89552418Y-83650283D01*
X89380053Y-83702569D01*
X89380052Y-83702569D01*
X89380049Y-83702570D01*
X89200800Y-83720225D01*
X89021550Y-83702570D01*
X89021547Y-83702569D01*
X89021546Y-83702569D01*
X88849181Y-83650283D01*
X88769755Y-83607829D01*
X88690330Y-83565375D01*
X88551093Y-83451107D01*
X88436825Y-83311870D01*
X88378887Y-83203475D01*
X88351917Y-83153018D01*
X88299631Y-82980653D01*
X88299631Y-82980652D01*
X88299630Y-82980649D01*
X88286400Y-82846322D01*
X88286400Y-82233677D01*
X88299630Y-82099350D01*
X88346858Y-81943660D01*
X88351917Y-81926981D01*
X88436826Y-81768130D01*
X88436827Y-81768128D01*
X88551094Y-81628893D01*
X88690331Y-81514625D01*
X88769756Y-81472172D01*
X88849182Y-81429717D01*
X89021547Y-81377431D01*
X89021548Y-81377431D01*
X89021551Y-81377430D01*
X89200800Y-81359775D01*
X89380050Y-81377430D01*
X89380050Y-81377430D01*
G37*
G36*
X79220050Y-81377430D02*
G01*
X79220053Y-81377431D01*
X79220054Y-81377431D01*
X79392419Y-81429717D01*
X79471845Y-81472172D01*
X79551270Y-81514625D01*
X79690507Y-81628893D01*
X79804775Y-81768130D01*
X79847229Y-81847555D01*
X79889683Y-81926981D01*
X79941969Y-82099346D01*
X79941969Y-82099349D01*
X79941970Y-82099351D01*
X79955200Y-82233678D01*
X79955200Y-82846323D01*
X79941970Y-82980650D01*
X79941969Y-82980653D01*
X79941969Y-82980654D01*
X79889683Y-83153019D01*
X79889682Y-83153020D01*
X79804775Y-83311870D01*
X79690507Y-83451107D01*
X79551270Y-83565375D01*
X79442875Y-83623313D01*
X79392418Y-83650283D01*
X79220053Y-83702569D01*
X79220052Y-83702569D01*
X79220049Y-83702570D01*
X79040800Y-83720225D01*
X78861550Y-83702570D01*
X78861547Y-83702569D01*
X78861546Y-83702569D01*
X78689181Y-83650283D01*
X78609755Y-83607829D01*
X78530330Y-83565375D01*
X78391093Y-83451107D01*
X78276825Y-83311870D01*
X78218887Y-83203475D01*
X78191917Y-83153018D01*
X78139631Y-82980653D01*
X78139631Y-82980652D01*
X78139630Y-82980649D01*
X78126400Y-82846322D01*
X78126400Y-82233677D01*
X78139630Y-82099350D01*
X78186858Y-81943660D01*
X78191917Y-81926981D01*
X78276826Y-81768130D01*
X78276827Y-81768128D01*
X78391094Y-81628893D01*
X78530331Y-81514625D01*
X78609756Y-81472172D01*
X78689182Y-81429717D01*
X78861547Y-81377431D01*
X78861548Y-81377431D01*
X78861551Y-81377430D01*
X79040800Y-81359775D01*
X79220050Y-81377430D01*
X79220050Y-81377430D01*
G37*
G36*
X76680050Y-81377430D02*
G01*
X76680053Y-81377431D01*
X76680054Y-81377431D01*
X76852419Y-81429717D01*
X76931845Y-81472172D01*
X77011270Y-81514625D01*
X77150507Y-81628893D01*
X77264775Y-81768130D01*
X77307229Y-81847555D01*
X77349683Y-81926981D01*
X77401969Y-82099346D01*
X77401969Y-82099349D01*
X77401970Y-82099351D01*
X77415200Y-82233678D01*
X77415200Y-82846323D01*
X77401970Y-82980650D01*
X77401969Y-82980653D01*
X77401969Y-82980654D01*
X77349683Y-83153019D01*
X77349682Y-83153020D01*
X77264775Y-83311870D01*
X77150507Y-83451107D01*
X77011270Y-83565375D01*
X76902875Y-83623313D01*
X76852418Y-83650283D01*
X76680053Y-83702569D01*
X76680052Y-83702569D01*
X76680049Y-83702570D01*
X76500800Y-83720225D01*
X76321550Y-83702570D01*
X76321547Y-83702569D01*
X76321546Y-83702569D01*
X76149181Y-83650283D01*
X76069755Y-83607829D01*
X75990330Y-83565375D01*
X75851093Y-83451107D01*
X75736825Y-83311870D01*
X75678887Y-83203475D01*
X75651917Y-83153018D01*
X75599631Y-82980653D01*
X75599631Y-82980652D01*
X75599630Y-82980649D01*
X75586400Y-82846322D01*
X75586400Y-82233677D01*
X75599630Y-82099350D01*
X75646858Y-81943660D01*
X75651917Y-81926981D01*
X75736826Y-81768130D01*
X75736827Y-81768128D01*
X75851094Y-81628893D01*
X75990331Y-81514625D01*
X76069756Y-81472172D01*
X76149182Y-81429717D01*
X76321547Y-81377431D01*
X76321548Y-81377431D01*
X76321551Y-81377430D01*
X76500800Y-81359775D01*
X76680050Y-81377430D01*
X76680050Y-81377430D01*
G37*
G36*
X74140050Y-81377430D02*
G01*
X74140053Y-81377431D01*
X74140054Y-81377431D01*
X74312419Y-81429717D01*
X74391845Y-81472172D01*
X74471270Y-81514625D01*
X74610507Y-81628893D01*
X74724775Y-81768130D01*
X74767229Y-81847555D01*
X74809683Y-81926981D01*
X74861969Y-82099346D01*
X74861969Y-82099349D01*
X74861970Y-82099351D01*
X74875200Y-82233678D01*
X74875200Y-82846323D01*
X74861970Y-82980650D01*
X74861969Y-82980653D01*
X74861969Y-82980654D01*
X74809683Y-83153019D01*
X74809682Y-83153020D01*
X74724775Y-83311870D01*
X74610507Y-83451107D01*
X74471270Y-83565375D01*
X74362875Y-83623313D01*
X74312418Y-83650283D01*
X74140053Y-83702569D01*
X74140052Y-83702569D01*
X74140049Y-83702570D01*
X73960800Y-83720225D01*
X73781550Y-83702570D01*
X73781547Y-83702569D01*
X73781546Y-83702569D01*
X73609181Y-83650283D01*
X73529755Y-83607829D01*
X73450330Y-83565375D01*
X73311093Y-83451107D01*
X73196825Y-83311870D01*
X73138887Y-83203475D01*
X73111917Y-83153018D01*
X73059631Y-82980653D01*
X73059631Y-82980652D01*
X73059630Y-82980649D01*
X73046400Y-82846322D01*
X73046400Y-82233677D01*
X73059630Y-82099350D01*
X73106858Y-81943660D01*
X73111917Y-81926981D01*
X73196826Y-81768130D01*
X73196827Y-81768128D01*
X73311094Y-81628893D01*
X73450331Y-81514625D01*
X73529756Y-81472172D01*
X73609182Y-81429717D01*
X73781547Y-81377431D01*
X73781548Y-81377431D01*
X73781551Y-81377430D01*
X73960800Y-81359775D01*
X74140050Y-81377430D01*
X74140050Y-81377430D01*
G37*
G36*
X69060050Y-81377430D02*
G01*
X69060053Y-81377431D01*
X69060054Y-81377431D01*
X69232419Y-81429717D01*
X69311845Y-81472172D01*
X69391270Y-81514625D01*
X69530507Y-81628893D01*
X69644775Y-81768130D01*
X69687229Y-81847555D01*
X69729683Y-81926981D01*
X69781969Y-82099346D01*
X69781969Y-82099349D01*
X69781970Y-82099351D01*
X69795200Y-82233678D01*
X69795200Y-82846323D01*
X69781970Y-82980650D01*
X69781969Y-82980653D01*
X69781969Y-82980654D01*
X69729683Y-83153019D01*
X69729682Y-83153020D01*
X69644775Y-83311870D01*
X69530507Y-83451107D01*
X69391270Y-83565375D01*
X69282875Y-83623313D01*
X69232418Y-83650283D01*
X69060053Y-83702569D01*
X69060052Y-83702569D01*
X69060049Y-83702570D01*
X68880800Y-83720225D01*
X68701550Y-83702570D01*
X68701547Y-83702569D01*
X68701546Y-83702569D01*
X68529181Y-83650283D01*
X68449755Y-83607829D01*
X68370330Y-83565375D01*
X68231093Y-83451107D01*
X68116825Y-83311870D01*
X68058887Y-83203475D01*
X68031917Y-83153018D01*
X67979631Y-82980653D01*
X67979631Y-82980652D01*
X67979630Y-82980649D01*
X67966400Y-82846322D01*
X67966400Y-82233677D01*
X67979630Y-82099350D01*
X68026858Y-81943660D01*
X68031917Y-81926981D01*
X68116826Y-81768130D01*
X68116827Y-81768128D01*
X68231094Y-81628893D01*
X68370331Y-81514625D01*
X68449756Y-81472172D01*
X68529182Y-81429717D01*
X68701547Y-81377431D01*
X68701548Y-81377431D01*
X68701551Y-81377430D01*
X68880800Y-81359775D01*
X69060050Y-81377430D01*
X69060050Y-81377430D01*
G37*
G36*
X84300050Y-81377430D02*
G01*
X84300053Y-81377431D01*
X84300054Y-81377431D01*
X84472419Y-81429717D01*
X84551845Y-81472172D01*
X84631270Y-81514625D01*
X84770507Y-81628893D01*
X84884775Y-81768130D01*
X84927229Y-81847555D01*
X84969683Y-81926981D01*
X85021969Y-82099346D01*
X85021969Y-82099349D01*
X85021970Y-82099351D01*
X85035200Y-82233678D01*
X85035200Y-82846323D01*
X85021970Y-82980650D01*
X85021969Y-82980653D01*
X85021969Y-82980654D01*
X84969683Y-83153019D01*
X84969682Y-83153020D01*
X84884775Y-83311870D01*
X84770507Y-83451107D01*
X84631270Y-83565375D01*
X84522875Y-83623313D01*
X84472418Y-83650283D01*
X84300053Y-83702569D01*
X84300052Y-83702569D01*
X84300049Y-83702570D01*
X84120800Y-83720225D01*
X83941550Y-83702570D01*
X83941547Y-83702569D01*
X83941546Y-83702569D01*
X83769181Y-83650283D01*
X83689755Y-83607829D01*
X83610330Y-83565375D01*
X83471093Y-83451107D01*
X83356825Y-83311870D01*
X83298887Y-83203475D01*
X83271917Y-83153018D01*
X83219631Y-82980653D01*
X83219631Y-82980652D01*
X83219630Y-82980649D01*
X83206400Y-82846322D01*
X83206400Y-82233677D01*
X83219630Y-82099350D01*
X83266858Y-81943660D01*
X83271917Y-81926981D01*
X83356826Y-81768130D01*
X83356827Y-81768128D01*
X83471094Y-81628893D01*
X83610331Y-81514625D01*
X83689756Y-81472172D01*
X83769182Y-81429717D01*
X83941547Y-81377431D01*
X83941548Y-81377431D01*
X83941551Y-81377430D01*
X84120800Y-81359775D01*
X84300050Y-81377430D01*
X84300050Y-81377430D01*
G37*
G36*
X86840050Y-81377430D02*
G01*
X86840053Y-81377431D01*
X86840054Y-81377431D01*
X87012419Y-81429717D01*
X87091845Y-81472172D01*
X87171270Y-81514625D01*
X87310507Y-81628893D01*
X87424775Y-81768130D01*
X87467229Y-81847555D01*
X87509683Y-81926981D01*
X87561969Y-82099346D01*
X87561969Y-82099349D01*
X87561970Y-82099351D01*
X87575200Y-82233678D01*
X87575200Y-82846323D01*
X87561970Y-82980650D01*
X87561969Y-82980653D01*
X87561969Y-82980654D01*
X87509683Y-83153019D01*
X87509682Y-83153020D01*
X87424775Y-83311870D01*
X87310507Y-83451107D01*
X87171270Y-83565375D01*
X87062875Y-83623313D01*
X87012418Y-83650283D01*
X86840053Y-83702569D01*
X86840052Y-83702569D01*
X86840049Y-83702570D01*
X86660800Y-83720225D01*
X86481550Y-83702570D01*
X86481547Y-83702569D01*
X86481546Y-83702569D01*
X86309181Y-83650283D01*
X86229755Y-83607829D01*
X86150330Y-83565375D01*
X86011093Y-83451107D01*
X85896825Y-83311870D01*
X85838887Y-83203475D01*
X85811917Y-83153018D01*
X85759631Y-82980653D01*
X85759631Y-82980652D01*
X85759630Y-82980649D01*
X85746400Y-82846322D01*
X85746400Y-82233677D01*
X85759630Y-82099350D01*
X85806858Y-81943660D01*
X85811917Y-81926981D01*
X85896826Y-81768130D01*
X85896827Y-81768128D01*
X86011094Y-81628893D01*
X86150331Y-81514625D01*
X86229756Y-81472172D01*
X86309182Y-81429717D01*
X86481547Y-81377431D01*
X86481548Y-81377431D01*
X86481551Y-81377430D01*
X86660800Y-81359775D01*
X86840050Y-81377430D01*
X86840050Y-81377430D01*
G37*
G36*
X71600050Y-81377430D02*
G01*
X71600053Y-81377431D01*
X71600054Y-81377431D01*
X71772419Y-81429717D01*
X71851845Y-81472172D01*
X71931270Y-81514625D01*
X72070507Y-81628893D01*
X72184775Y-81768130D01*
X72227229Y-81847555D01*
X72269683Y-81926981D01*
X72321969Y-82099346D01*
X72321969Y-82099349D01*
X72321970Y-82099351D01*
X72335200Y-82233678D01*
X72335200Y-82846323D01*
X72321970Y-82980650D01*
X72321969Y-82980653D01*
X72321969Y-82980654D01*
X72269683Y-83153019D01*
X72269682Y-83153020D01*
X72184775Y-83311870D01*
X72070507Y-83451107D01*
X71931270Y-83565375D01*
X71822875Y-83623313D01*
X71772418Y-83650283D01*
X71600053Y-83702569D01*
X71600052Y-83702569D01*
X71600049Y-83702570D01*
X71420800Y-83720225D01*
X71241550Y-83702570D01*
X71241547Y-83702569D01*
X71241546Y-83702569D01*
X71069181Y-83650283D01*
X70989755Y-83607829D01*
X70910330Y-83565375D01*
X70771093Y-83451107D01*
X70656825Y-83311870D01*
X70598887Y-83203475D01*
X70571917Y-83153018D01*
X70519631Y-82980653D01*
X70519631Y-82980652D01*
X70519630Y-82980649D01*
X70506400Y-82846322D01*
X70506400Y-82233677D01*
X70519630Y-82099350D01*
X70566858Y-81943660D01*
X70571917Y-81926981D01*
X70656826Y-81768130D01*
X70656827Y-81768128D01*
X70771094Y-81628893D01*
X70910331Y-81514625D01*
X70989756Y-81472172D01*
X71069182Y-81429717D01*
X71241547Y-81377431D01*
X71241548Y-81377431D01*
X71241551Y-81377430D01*
X71420800Y-81359775D01*
X71600050Y-81377430D01*
X71600050Y-81377430D01*
G37*
G36*
X115515200Y-83715800D02*
G01*
X113686400Y-83715800D01*
X113686400Y-81364200D01*
X115515200Y-81364200D01*
X115515200Y-83715800D01*
X115515200Y-83715800D01*
G37*
G36*
X153907086Y-81793435D02*
G01*
X154055003Y-81854704D01*
X154144163Y-81914279D01*
X154163173Y-81926981D01*
X154188134Y-81943660D01*
X154301340Y-82056866D01*
X154390296Y-82189997D01*
X154451565Y-82337914D01*
X154482800Y-82494946D01*
X154482800Y-82655054D01*
X154451565Y-82812086D01*
X154390296Y-82960003D01*
X154301340Y-83093134D01*
X154188134Y-83206340D01*
X154055003Y-83295296D01*
X153907086Y-83356565D01*
X153750054Y-83387800D01*
X153589946Y-83387800D01*
X153432914Y-83356565D01*
X153284997Y-83295296D01*
X153151866Y-83206340D01*
X153038660Y-83093134D01*
X152949704Y-82960003D01*
X152888435Y-82812086D01*
X152857200Y-82655054D01*
X152857200Y-82494946D01*
X152888435Y-82337914D01*
X152949704Y-82189997D01*
X153038660Y-82056866D01*
X153151866Y-81943660D01*
X153176828Y-81926981D01*
X153195837Y-81914279D01*
X153284997Y-81854704D01*
X153432914Y-81793435D01*
X153589946Y-81762200D01*
X153750054Y-81762200D01*
X153907086Y-81793435D01*
X153907086Y-81793435D01*
G37*
G36*
X151367086Y-81793435D02*
G01*
X151515003Y-81854704D01*
X151604163Y-81914279D01*
X151623173Y-81926981D01*
X151648134Y-81943660D01*
X151761340Y-82056866D01*
X151850296Y-82189997D01*
X151911565Y-82337914D01*
X151942800Y-82494946D01*
X151942800Y-82655054D01*
X151911565Y-82812086D01*
X151850296Y-82960003D01*
X151761340Y-83093134D01*
X151648134Y-83206340D01*
X151515003Y-83295296D01*
X151367086Y-83356565D01*
X151210054Y-83387800D01*
X151049946Y-83387800D01*
X150892914Y-83356565D01*
X150744997Y-83295296D01*
X150611866Y-83206340D01*
X150498660Y-83093134D01*
X150409704Y-82960003D01*
X150348435Y-82812086D01*
X150317200Y-82655054D01*
X150317200Y-82494946D01*
X150348435Y-82337914D01*
X150409704Y-82189997D01*
X150498660Y-82056866D01*
X150611866Y-81943660D01*
X150636828Y-81926981D01*
X150655837Y-81914279D01*
X150744997Y-81854704D01*
X150892914Y-81793435D01*
X151049946Y-81762200D01*
X151210054Y-81762200D01*
X151367086Y-81793435D01*
X151367086Y-81793435D01*
G37*
G36*
X141207086Y-81793435D02*
G01*
X141355003Y-81854704D01*
X141444163Y-81914279D01*
X141463173Y-81926981D01*
X141488134Y-81943660D01*
X141601340Y-82056866D01*
X141690296Y-82189997D01*
X141751565Y-82337914D01*
X141782800Y-82494946D01*
X141782800Y-82655054D01*
X141751565Y-82812086D01*
X141690296Y-82960003D01*
X141601340Y-83093134D01*
X141488134Y-83206340D01*
X141355003Y-83295296D01*
X141207086Y-83356565D01*
X141050054Y-83387800D01*
X140889946Y-83387800D01*
X140732914Y-83356565D01*
X140584997Y-83295296D01*
X140451866Y-83206340D01*
X140338660Y-83093134D01*
X140249704Y-82960003D01*
X140188435Y-82812086D01*
X140157200Y-82655054D01*
X140157200Y-82494946D01*
X140188435Y-82337914D01*
X140249704Y-82189997D01*
X140338660Y-82056866D01*
X140451866Y-81943660D01*
X140476828Y-81926981D01*
X140495837Y-81914279D01*
X140584997Y-81854704D01*
X140732914Y-81793435D01*
X140889946Y-81762200D01*
X141050054Y-81762200D01*
X141207086Y-81793435D01*
X141207086Y-81793435D01*
G37*
G36*
X138687086Y-81793435D02*
G01*
X138835003Y-81854704D01*
X138924163Y-81914279D01*
X138943173Y-81926981D01*
X138968134Y-81943660D01*
X139081340Y-82056866D01*
X139170296Y-82189997D01*
X139231565Y-82337914D01*
X139262800Y-82494946D01*
X139262800Y-82655054D01*
X139231565Y-82812086D01*
X139170296Y-82960003D01*
X139081340Y-83093134D01*
X138968134Y-83206340D01*
X138835003Y-83295296D01*
X138687086Y-83356565D01*
X138530054Y-83387800D01*
X138369946Y-83387800D01*
X138212914Y-83356565D01*
X138064997Y-83295296D01*
X137931866Y-83206340D01*
X137818660Y-83093134D01*
X137729704Y-82960003D01*
X137668435Y-82812086D01*
X137637200Y-82655054D01*
X137637200Y-82494946D01*
X137668435Y-82337914D01*
X137729704Y-82189997D01*
X137818660Y-82056866D01*
X137931866Y-81943660D01*
X137956828Y-81926981D01*
X137975837Y-81914279D01*
X138064997Y-81854704D01*
X138212914Y-81793435D01*
X138369946Y-81762200D01*
X138530054Y-81762200D01*
X138687086Y-81793435D01*
X138687086Y-81793435D01*
G37*
G36*
X120952352Y-78508796D02*
G01*
X121234579Y-78625699D01*
X121488578Y-78795415D01*
X121704585Y-79011422D01*
X121874301Y-79265421D01*
X121991204Y-79547648D01*
X122050800Y-79847259D01*
X122050800Y-80152741D01*
X121991204Y-80452352D01*
X121874301Y-80734579D01*
X121704585Y-80988578D01*
X121488578Y-81204585D01*
X121234579Y-81374301D01*
X120952352Y-81491204D01*
X120652741Y-81550800D01*
X120347259Y-81550800D01*
X120047648Y-81491204D01*
X119765421Y-81374301D01*
X119511422Y-81204585D01*
X119295415Y-80988578D01*
X119125699Y-80734579D01*
X119008796Y-80452352D01*
X118949200Y-80152741D01*
X118949200Y-79847259D01*
X119008796Y-79547648D01*
X119125699Y-79265421D01*
X119295415Y-79011422D01*
X119511422Y-78795415D01*
X119765421Y-78625699D01*
X120047648Y-78508796D01*
X120347259Y-78449200D01*
X120652741Y-78449200D01*
X120952352Y-78508796D01*
X120952352Y-78508796D01*
G37*
G36*
X125506782Y-78161510D02*
G01*
X125506785Y-78161511D01*
X125506786Y-78161511D01*
X125573014Y-78181601D01*
X125667163Y-78210161D01*
X125734271Y-78246031D01*
X125814966Y-78289163D01*
X125944517Y-78395483D01*
X126050837Y-78525034D01*
X126089301Y-78596995D01*
X126129839Y-78672837D01*
X126178490Y-78833218D01*
X126194917Y-79000000D01*
X126178490Y-79166782D01*
X126129839Y-79327163D01*
X126090338Y-79401064D01*
X126050837Y-79474966D01*
X125944517Y-79604517D01*
X125814966Y-79710837D01*
X125741064Y-79750338D01*
X125667163Y-79789839D01*
X125573986Y-79818104D01*
X125506786Y-79838489D01*
X125506785Y-79838489D01*
X125506782Y-79838490D01*
X125381796Y-79850800D01*
X125298204Y-79850800D01*
X125173218Y-79838490D01*
X125173215Y-79838489D01*
X125173214Y-79838489D01*
X125106014Y-79818104D01*
X125012837Y-79789839D01*
X124938936Y-79750338D01*
X124865034Y-79710837D01*
X124735483Y-79604517D01*
X124629163Y-79474966D01*
X124589662Y-79401064D01*
X124550161Y-79327163D01*
X124501510Y-79166782D01*
X124485083Y-79000000D01*
X124501510Y-78833218D01*
X124550161Y-78672837D01*
X124590699Y-78596995D01*
X124629163Y-78525034D01*
X124735483Y-78395483D01*
X124865034Y-78289163D01*
X124945729Y-78246031D01*
X125012837Y-78210161D01*
X125106986Y-78181601D01*
X125173214Y-78161511D01*
X125173215Y-78161511D01*
X125173218Y-78161510D01*
X125298204Y-78149200D01*
X125381796Y-78149200D01*
X125506782Y-78161510D01*
X125506782Y-78161510D01*
G37*
G36*
X135748169Y-78181895D02*
G01*
X135903005Y-78246031D01*
X136042354Y-78339140D01*
X136160860Y-78457646D01*
X136253969Y-78596995D01*
X136318105Y-78751831D01*
X136350800Y-78916203D01*
X136350800Y-79083797D01*
X136318105Y-79248169D01*
X136253969Y-79403005D01*
X136160860Y-79542354D01*
X136042354Y-79660860D01*
X135903005Y-79753969D01*
X135748169Y-79818105D01*
X135583797Y-79850800D01*
X135416203Y-79850800D01*
X135251831Y-79818105D01*
X135096995Y-79753969D01*
X134957646Y-79660860D01*
X134839140Y-79542354D01*
X134746031Y-79403005D01*
X134681895Y-79248169D01*
X134649200Y-79083797D01*
X134649200Y-78916203D01*
X134681895Y-78751831D01*
X134746031Y-78596995D01*
X134839140Y-78457646D01*
X134957646Y-78339140D01*
X135096995Y-78246031D01*
X135251831Y-78181895D01*
X135416203Y-78149200D01*
X135583797Y-78149200D01*
X135748169Y-78181895D01*
X135748169Y-78181895D01*
G37*
G36*
X71560650Y-64418830D02*
G01*
X71560653Y-64418831D01*
X71560654Y-64418831D01*
X71733019Y-64471117D01*
X71812445Y-64513571D01*
X71891870Y-64556025D01*
X72031107Y-64670293D01*
X72109933Y-64766343D01*
X72145374Y-64809529D01*
X72230283Y-64968381D01*
X72282569Y-65140746D01*
X72282570Y-65140750D01*
X72300225Y-65320000D01*
X72282570Y-65499250D01*
X72282569Y-65499253D01*
X72282569Y-65499254D01*
X72230283Y-65671619D01*
X72230282Y-65671620D01*
X72145375Y-65830470D01*
X72031107Y-65969707D01*
X71891870Y-66083975D01*
X71812445Y-66126429D01*
X71733019Y-66168883D01*
X71560654Y-66221169D01*
X71560653Y-66221169D01*
X71560650Y-66221170D01*
X71426323Y-66234400D01*
X70813677Y-66234400D01*
X70679350Y-66221170D01*
X70679347Y-66221169D01*
X70679346Y-66221169D01*
X70506981Y-66168883D01*
X70427555Y-66126428D01*
X70348130Y-66083975D01*
X70208893Y-65969707D01*
X70094625Y-65830470D01*
X70009718Y-65671620D01*
X70009717Y-65671619D01*
X69957431Y-65499254D01*
X69957431Y-65499253D01*
X69957430Y-65499250D01*
X69939775Y-65320000D01*
X69957430Y-65140750D01*
X69957431Y-65140746D01*
X70009717Y-64968381D01*
X70094626Y-64809529D01*
X70130068Y-64766343D01*
X70208893Y-64670293D01*
X70348130Y-64556025D01*
X70427555Y-64513572D01*
X70506981Y-64471117D01*
X70679346Y-64418831D01*
X70679347Y-64418831D01*
X70679350Y-64418830D01*
X70813677Y-64405600D01*
X71426323Y-64405600D01*
X71560650Y-64418830D01*
X71560650Y-64418830D01*
G37*
G36*
X65248169Y-64181895D02*
G01*
X65403005Y-64246031D01*
X65542354Y-64339140D01*
X65660860Y-64457646D01*
X65753969Y-64596995D01*
X65818105Y-64751831D01*
X65850800Y-64916203D01*
X65850800Y-65083797D01*
X65818105Y-65248169D01*
X65753969Y-65403005D01*
X65660860Y-65542354D01*
X65542354Y-65660860D01*
X65403005Y-65753969D01*
X65248169Y-65818105D01*
X65083797Y-65850800D01*
X64916203Y-65850800D01*
X64751831Y-65818105D01*
X64596995Y-65753969D01*
X64457646Y-65660860D01*
X64339140Y-65542354D01*
X64246031Y-65403005D01*
X64181895Y-65248169D01*
X64149200Y-65083797D01*
X64149200Y-64916203D01*
X64181895Y-64751831D01*
X64246031Y-64596995D01*
X64339140Y-64457646D01*
X64457646Y-64339140D01*
X64596995Y-64246031D01*
X64751831Y-64181895D01*
X64916203Y-64149200D01*
X65083797Y-64149200D01*
X65248169Y-64181895D01*
X65248169Y-64181895D01*
G37*
G36*
X146407086Y-63353435D02*
G01*
X146555003Y-63414704D01*
X146688134Y-63503660D01*
X146801340Y-63616866D01*
X146890296Y-63749997D01*
X146951565Y-63897914D01*
X146982800Y-64054946D01*
X146982800Y-64215054D01*
X146951565Y-64372086D01*
X146890296Y-64520003D01*
X146801340Y-64653134D01*
X146688134Y-64766340D01*
X146555003Y-64855296D01*
X146407086Y-64916565D01*
X146250054Y-64947800D01*
X146089946Y-64947800D01*
X145932914Y-64916565D01*
X145784997Y-64855296D01*
X145651866Y-64766340D01*
X145538660Y-64653134D01*
X145449704Y-64520003D01*
X145388435Y-64372086D01*
X145357200Y-64215054D01*
X145357200Y-64054946D01*
X145388435Y-63897914D01*
X145449704Y-63749997D01*
X145538660Y-63616866D01*
X145651866Y-63503660D01*
X145784997Y-63414704D01*
X145932914Y-63353435D01*
X146089946Y-63322200D01*
X146250054Y-63322200D01*
X146407086Y-63353435D01*
X146407086Y-63353435D01*
G37*
G36*
X161407086Y-63353435D02*
G01*
X161555003Y-63414704D01*
X161688134Y-63503660D01*
X161801340Y-63616866D01*
X161890296Y-63749997D01*
X161951565Y-63897914D01*
X161982800Y-64054946D01*
X161982800Y-64215054D01*
X161951565Y-64372086D01*
X161890296Y-64520003D01*
X161801340Y-64653134D01*
X161688134Y-64766340D01*
X161555003Y-64855296D01*
X161407086Y-64916565D01*
X161250054Y-64947800D01*
X161089946Y-64947800D01*
X160932914Y-64916565D01*
X160784997Y-64855296D01*
X160651866Y-64766340D01*
X160538660Y-64653134D01*
X160449704Y-64520003D01*
X160388435Y-64372086D01*
X160357200Y-64215054D01*
X160357200Y-64054946D01*
X160388435Y-63897914D01*
X160449704Y-63749997D01*
X160538660Y-63616866D01*
X160651866Y-63503660D01*
X160784997Y-63414704D01*
X160932914Y-63353435D01*
X161089946Y-63322200D01*
X161250054Y-63322200D01*
X161407086Y-63353435D01*
X161407086Y-63353435D01*
G37*
G36*
X71560650Y-61878830D02*
G01*
X71560653Y-61878831D01*
X71560654Y-61878831D01*
X71733019Y-61931117D01*
X71812445Y-61973572D01*
X71891870Y-62016025D01*
X71891872Y-62016026D01*
X71891871Y-62016026D01*
X72031107Y-62130293D01*
X72145374Y-62269529D01*
X72230283Y-62428381D01*
X72282569Y-62600746D01*
X72282570Y-62600750D01*
X72300225Y-62780000D01*
X72282570Y-62959250D01*
X72282569Y-62959253D01*
X72282569Y-62959254D01*
X72230283Y-63131619D01*
X72230282Y-63131620D01*
X72145375Y-63290470D01*
X72031107Y-63429707D01*
X71891870Y-63543975D01*
X71812445Y-63586429D01*
X71733019Y-63628883D01*
X71560654Y-63681169D01*
X71560653Y-63681169D01*
X71560650Y-63681170D01*
X71426323Y-63694400D01*
X70813677Y-63694400D01*
X70679350Y-63681170D01*
X70679347Y-63681169D01*
X70679346Y-63681169D01*
X70506981Y-63628883D01*
X70427555Y-63586429D01*
X70348130Y-63543975D01*
X70208893Y-63429707D01*
X70094625Y-63290470D01*
X70009718Y-63131620D01*
X70009717Y-63131619D01*
X69957431Y-62959254D01*
X69957431Y-62959253D01*
X69957430Y-62959250D01*
X69939775Y-62780000D01*
X69957430Y-62600750D01*
X69957431Y-62600746D01*
X70009717Y-62428381D01*
X70094626Y-62269529D01*
X70208893Y-62130293D01*
X70348129Y-62016026D01*
X70348128Y-62016026D01*
X70348130Y-62016025D01*
X70427555Y-61973572D01*
X70506981Y-61931117D01*
X70679346Y-61878831D01*
X70679347Y-61878831D01*
X70679350Y-61878830D01*
X70813677Y-61865600D01*
X71426323Y-61865600D01*
X71560650Y-61878830D01*
X71560650Y-61878830D01*
G37*
G36*
X135080650Y-59338830D02*
G01*
X135080653Y-59338831D01*
X135080654Y-59338831D01*
X135253019Y-59391117D01*
X135332445Y-59433572D01*
X135411870Y-59476025D01*
X135411872Y-59476026D01*
X135411871Y-59476026D01*
X135551107Y-59590293D01*
X135665374Y-59729529D01*
X135750283Y-59888381D01*
X135802569Y-60060746D01*
X135802570Y-60060750D01*
X135820225Y-60240000D01*
X135802570Y-60419250D01*
X135802569Y-60419253D01*
X135802569Y-60419254D01*
X135750283Y-60591619D01*
X135750282Y-60591620D01*
X135665375Y-60750470D01*
X135551107Y-60889707D01*
X135411870Y-61003975D01*
X135332445Y-61046429D01*
X135253019Y-61088883D01*
X135080654Y-61141169D01*
X135080653Y-61141169D01*
X135080650Y-61141170D01*
X134946323Y-61154400D01*
X134333677Y-61154400D01*
X134199350Y-61141170D01*
X134199347Y-61141169D01*
X134199346Y-61141169D01*
X134026981Y-61088883D01*
X133947555Y-61046429D01*
X133868130Y-61003975D01*
X133728893Y-60889707D01*
X133614625Y-60750470D01*
X133529718Y-60591620D01*
X133529717Y-60591619D01*
X133477431Y-60419254D01*
X133477431Y-60419253D01*
X133477430Y-60419250D01*
X133459775Y-60240000D01*
X133477430Y-60060750D01*
X133477431Y-60060746D01*
X133529717Y-59888381D01*
X133614626Y-59729529D01*
X133728893Y-59590293D01*
X133868129Y-59476026D01*
X133868128Y-59476026D01*
X133868130Y-59476025D01*
X133947555Y-59433572D01*
X134026981Y-59391117D01*
X134199346Y-59338831D01*
X134199347Y-59338831D01*
X134199350Y-59338830D01*
X134333677Y-59325600D01*
X134946323Y-59325600D01*
X135080650Y-59338830D01*
X135080650Y-59338830D01*
G37*
G36*
X71560650Y-59338830D02*
G01*
X71560653Y-59338831D01*
X71560654Y-59338831D01*
X71733019Y-59391117D01*
X71812445Y-59433572D01*
X71891870Y-59476025D01*
X71891872Y-59476026D01*
X71891871Y-59476026D01*
X72031107Y-59590293D01*
X72145374Y-59729529D01*
X72230283Y-59888381D01*
X72282569Y-60060746D01*
X72282570Y-60060750D01*
X72300225Y-60240000D01*
X72282570Y-60419250D01*
X72282569Y-60419253D01*
X72282569Y-60419254D01*
X72230283Y-60591619D01*
X72230282Y-60591620D01*
X72145375Y-60750470D01*
X72031107Y-60889707D01*
X71891870Y-61003975D01*
X71812445Y-61046429D01*
X71733019Y-61088883D01*
X71560654Y-61141169D01*
X71560653Y-61141169D01*
X71560650Y-61141170D01*
X71426323Y-61154400D01*
X70813677Y-61154400D01*
X70679350Y-61141170D01*
X70679347Y-61141169D01*
X70679346Y-61141169D01*
X70506981Y-61088883D01*
X70427555Y-61046429D01*
X70348130Y-61003975D01*
X70208893Y-60889707D01*
X70094625Y-60750470D01*
X70009718Y-60591620D01*
X70009717Y-60591619D01*
X69957431Y-60419254D01*
X69957431Y-60419253D01*
X69957430Y-60419250D01*
X69939775Y-60240000D01*
X69957430Y-60060750D01*
X69957431Y-60060746D01*
X70009717Y-59888381D01*
X70094626Y-59729529D01*
X70208893Y-59590293D01*
X70348129Y-59476026D01*
X70348128Y-59476026D01*
X70348130Y-59476025D01*
X70427555Y-59433572D01*
X70506981Y-59391117D01*
X70679346Y-59338831D01*
X70679347Y-59338831D01*
X70679350Y-59338830D01*
X70813677Y-59325600D01*
X71426323Y-59325600D01*
X71560650Y-59338830D01*
X71560650Y-59338830D01*
G37*
G36*
X135080650Y-56798830D02*
G01*
X135080653Y-56798831D01*
X135080654Y-56798831D01*
X135253019Y-56851117D01*
X135332445Y-56893571D01*
X135411870Y-56936025D01*
X135411872Y-56936026D01*
X135411871Y-56936026D01*
X135551107Y-57050293D01*
X135665374Y-57189529D01*
X135750283Y-57348381D01*
X135802569Y-57520746D01*
X135802570Y-57520750D01*
X135820225Y-57700000D01*
X135802570Y-57879250D01*
X135802569Y-57879253D01*
X135802569Y-57879254D01*
X135750283Y-58051619D01*
X135750282Y-58051620D01*
X135665375Y-58210470D01*
X135551107Y-58349707D01*
X135411870Y-58463975D01*
X135332445Y-58506428D01*
X135253019Y-58548883D01*
X135080654Y-58601169D01*
X135080653Y-58601169D01*
X135080650Y-58601170D01*
X134946323Y-58614400D01*
X134333677Y-58614400D01*
X134199350Y-58601170D01*
X134199347Y-58601169D01*
X134199346Y-58601169D01*
X134026981Y-58548883D01*
X133947555Y-58506429D01*
X133868130Y-58463975D01*
X133728893Y-58349707D01*
X133614625Y-58210470D01*
X133529718Y-58051620D01*
X133529717Y-58051619D01*
X133477431Y-57879254D01*
X133477431Y-57879253D01*
X133477430Y-57879250D01*
X133459775Y-57700000D01*
X133477430Y-57520750D01*
X133477431Y-57520746D01*
X133529717Y-57348381D01*
X133614626Y-57189529D01*
X133728893Y-57050293D01*
X133868129Y-56936026D01*
X133868128Y-56936026D01*
X133868130Y-56936025D01*
X133947555Y-56893572D01*
X134026981Y-56851117D01*
X134199346Y-56798831D01*
X134199347Y-56798831D01*
X134199350Y-56798830D01*
X134333677Y-56785600D01*
X134946323Y-56785600D01*
X135080650Y-56798830D01*
X135080650Y-56798830D01*
G37*
G36*
X71560650Y-56798830D02*
G01*
X71560653Y-56798831D01*
X71560654Y-56798831D01*
X71733019Y-56851117D01*
X71812445Y-56893571D01*
X71891870Y-56936025D01*
X71891872Y-56936026D01*
X71891871Y-56936026D01*
X72031107Y-57050293D01*
X72145374Y-57189529D01*
X72230283Y-57348381D01*
X72282569Y-57520746D01*
X72282570Y-57520750D01*
X72300225Y-57700000D01*
X72282570Y-57879250D01*
X72282569Y-57879253D01*
X72282569Y-57879254D01*
X72230283Y-58051619D01*
X72230282Y-58051620D01*
X72145375Y-58210470D01*
X72031107Y-58349707D01*
X71891870Y-58463975D01*
X71812445Y-58506428D01*
X71733019Y-58548883D01*
X71560654Y-58601169D01*
X71560653Y-58601169D01*
X71560650Y-58601170D01*
X71426323Y-58614400D01*
X70813677Y-58614400D01*
X70679350Y-58601170D01*
X70679347Y-58601169D01*
X70679346Y-58601169D01*
X70506981Y-58548883D01*
X70427555Y-58506429D01*
X70348130Y-58463975D01*
X70208893Y-58349707D01*
X70094625Y-58210470D01*
X70009718Y-58051620D01*
X70009717Y-58051619D01*
X69957431Y-57879254D01*
X69957431Y-57879253D01*
X69957430Y-57879250D01*
X69939775Y-57700000D01*
X69957430Y-57520750D01*
X69957431Y-57520746D01*
X70009717Y-57348381D01*
X70094626Y-57189529D01*
X70208893Y-57050293D01*
X70348129Y-56936026D01*
X70348128Y-56936026D01*
X70348130Y-56936025D01*
X70427555Y-56893572D01*
X70506981Y-56851117D01*
X70679346Y-56798831D01*
X70679347Y-56798831D01*
X70679350Y-56798830D01*
X70813677Y-56785600D01*
X71426323Y-56785600D01*
X71560650Y-56798830D01*
X71560650Y-56798830D01*
G37*
G36*
X135080650Y-54258830D02*
G01*
X135080653Y-54258831D01*
X135080654Y-54258831D01*
X135253019Y-54311117D01*
X135332445Y-54353572D01*
X135411870Y-54396025D01*
X135411872Y-54396026D01*
X135411871Y-54396026D01*
X135551107Y-54510293D01*
X135665374Y-54649529D01*
X135750283Y-54808381D01*
X135751623Y-54812800D01*
X135802570Y-54980750D01*
X135820225Y-55160000D01*
X135802570Y-55339250D01*
X135802569Y-55339253D01*
X135802569Y-55339254D01*
X135750283Y-55511619D01*
X135750282Y-55511620D01*
X135665375Y-55670470D01*
X135551107Y-55809707D01*
X135411870Y-55923975D01*
X135332445Y-55966428D01*
X135253019Y-56008883D01*
X135080654Y-56061169D01*
X135080653Y-56061169D01*
X135080650Y-56061170D01*
X134946323Y-56074400D01*
X134333677Y-56074400D01*
X134199350Y-56061170D01*
X134199347Y-56061169D01*
X134199346Y-56061169D01*
X134026981Y-56008883D01*
X133947555Y-55966429D01*
X133868130Y-55923975D01*
X133728893Y-55809707D01*
X133614625Y-55670470D01*
X133529718Y-55511620D01*
X133529717Y-55511619D01*
X133477431Y-55339254D01*
X133477431Y-55339253D01*
X133477430Y-55339250D01*
X133459775Y-55160000D01*
X133477430Y-54980750D01*
X133528377Y-54812800D01*
X133529717Y-54808381D01*
X133614626Y-54649529D01*
X133728893Y-54510293D01*
X133868129Y-54396026D01*
X133868128Y-54396026D01*
X133868130Y-54396025D01*
X133947555Y-54353572D01*
X134026981Y-54311117D01*
X134199346Y-54258831D01*
X134199347Y-54258831D01*
X134199350Y-54258830D01*
X134333677Y-54245600D01*
X134946323Y-54245600D01*
X135080650Y-54258830D01*
X135080650Y-54258830D01*
G37*
G36*
X71560650Y-54258830D02*
G01*
X71560653Y-54258831D01*
X71560654Y-54258831D01*
X71733019Y-54311117D01*
X71812445Y-54353572D01*
X71891870Y-54396025D01*
X71891872Y-54396026D01*
X71891871Y-54396026D01*
X72031107Y-54510293D01*
X72145374Y-54649529D01*
X72230283Y-54808381D01*
X72231623Y-54812800D01*
X72282570Y-54980750D01*
X72300225Y-55160000D01*
X72282570Y-55339250D01*
X72282569Y-55339253D01*
X72282569Y-55339254D01*
X72230283Y-55511619D01*
X72230282Y-55511620D01*
X72145375Y-55670470D01*
X72031107Y-55809707D01*
X71891870Y-55923975D01*
X71812445Y-55966428D01*
X71733019Y-56008883D01*
X71560654Y-56061169D01*
X71560653Y-56061169D01*
X71560650Y-56061170D01*
X71426323Y-56074400D01*
X70813677Y-56074400D01*
X70679350Y-56061170D01*
X70679347Y-56061169D01*
X70679346Y-56061169D01*
X70506981Y-56008883D01*
X70427555Y-55966429D01*
X70348130Y-55923975D01*
X70208893Y-55809707D01*
X70094625Y-55670470D01*
X70009718Y-55511620D01*
X70009717Y-55511619D01*
X69957431Y-55339254D01*
X69957431Y-55339253D01*
X69957430Y-55339250D01*
X69939775Y-55160000D01*
X69957430Y-54980750D01*
X70008377Y-54812800D01*
X70009717Y-54808381D01*
X70094626Y-54649529D01*
X70208893Y-54510293D01*
X70348129Y-54396026D01*
X70348128Y-54396026D01*
X70348130Y-54396025D01*
X70427555Y-54353572D01*
X70506981Y-54311117D01*
X70679346Y-54258831D01*
X70679347Y-54258831D01*
X70679350Y-54258830D01*
X70813677Y-54245600D01*
X71426323Y-54245600D01*
X71560650Y-54258830D01*
X71560650Y-54258830D01*
G37*
G36*
X65166782Y-54001510D02*
G01*
X65166785Y-54001511D01*
X65166786Y-54001511D01*
X65233014Y-54021601D01*
X65327163Y-54050161D01*
X65401064Y-54089662D01*
X65474966Y-54129163D01*
X65604517Y-54235483D01*
X65710837Y-54365034D01*
X65727402Y-54396025D01*
X65789839Y-54512837D01*
X65791446Y-54518134D01*
X65825787Y-54631340D01*
X65838490Y-54673218D01*
X65854917Y-54840000D01*
X65838490Y-55006782D01*
X65789839Y-55167163D01*
X65750338Y-55241064D01*
X65710837Y-55314966D01*
X65604517Y-55444517D01*
X65474966Y-55550837D01*
X65401064Y-55590338D01*
X65327163Y-55629839D01*
X65233014Y-55658399D01*
X65166786Y-55678489D01*
X65166785Y-55678489D01*
X65166782Y-55678490D01*
X65041796Y-55690800D01*
X64958204Y-55690800D01*
X64833218Y-55678490D01*
X64833215Y-55678489D01*
X64833214Y-55678489D01*
X64766986Y-55658399D01*
X64672837Y-55629839D01*
X64598936Y-55590338D01*
X64525034Y-55550837D01*
X64395483Y-55444517D01*
X64289163Y-55314966D01*
X64249662Y-55241064D01*
X64210161Y-55167163D01*
X64161510Y-55006782D01*
X64145083Y-54840000D01*
X64161510Y-54673218D01*
X64174214Y-54631340D01*
X64208554Y-54518134D01*
X64210161Y-54512837D01*
X64272598Y-54396025D01*
X64289163Y-54365034D01*
X64395483Y-54235483D01*
X64525034Y-54129163D01*
X64598936Y-54089662D01*
X64672837Y-54050161D01*
X64766986Y-54021601D01*
X64833214Y-54001511D01*
X64833215Y-54001511D01*
X64833218Y-54001510D01*
X64958204Y-53989200D01*
X65041796Y-53989200D01*
X65166782Y-54001510D01*
X65166782Y-54001510D01*
G37*
G36*
X39497086Y-53218435D02*
G01*
X39645003Y-53279704D01*
X39778134Y-53368660D01*
X39891340Y-53481866D01*
X39980296Y-53614997D01*
X40041565Y-53762914D01*
X40072800Y-53919946D01*
X40072800Y-54080054D01*
X40041565Y-54237086D01*
X39980296Y-54385003D01*
X39920721Y-54474163D01*
X39894880Y-54512837D01*
X39891340Y-54518134D01*
X39778134Y-54631340D01*
X39778131Y-54631342D01*
X39778130Y-54631343D01*
X39750911Y-54649530D01*
X39645003Y-54720296D01*
X39497086Y-54781565D01*
X39340054Y-54812800D01*
X39179946Y-54812800D01*
X39022914Y-54781565D01*
X38874997Y-54720296D01*
X38769089Y-54649530D01*
X38741870Y-54631343D01*
X38741869Y-54631342D01*
X38741866Y-54631340D01*
X38628660Y-54518134D01*
X38625121Y-54512837D01*
X38599279Y-54474163D01*
X38539704Y-54385003D01*
X38478435Y-54237086D01*
X38447200Y-54080054D01*
X38447200Y-53919946D01*
X38478435Y-53762914D01*
X38539704Y-53614997D01*
X38628660Y-53481866D01*
X38741866Y-53368660D01*
X38874997Y-53279704D01*
X39022914Y-53218435D01*
X39179946Y-53187200D01*
X39340054Y-53187200D01*
X39497086Y-53218435D01*
X39497086Y-53218435D01*
G37*
G36*
X57497086Y-53218435D02*
G01*
X57645003Y-53279704D01*
X57778134Y-53368660D01*
X57891340Y-53481866D01*
X57980296Y-53614997D01*
X58041565Y-53762914D01*
X58072800Y-53919946D01*
X58072800Y-54080054D01*
X58041565Y-54237086D01*
X57980296Y-54385003D01*
X57920721Y-54474163D01*
X57894880Y-54512837D01*
X57891340Y-54518134D01*
X57778134Y-54631340D01*
X57778131Y-54631342D01*
X57778130Y-54631343D01*
X57750911Y-54649530D01*
X57645003Y-54720296D01*
X57497086Y-54781565D01*
X57340054Y-54812800D01*
X57179946Y-54812800D01*
X57022914Y-54781565D01*
X56874997Y-54720296D01*
X56769089Y-54649530D01*
X56741870Y-54631343D01*
X56741869Y-54631342D01*
X56741866Y-54631340D01*
X56628660Y-54518134D01*
X56625121Y-54512837D01*
X56599279Y-54474163D01*
X56539704Y-54385003D01*
X56478435Y-54237086D01*
X56447200Y-54080054D01*
X56447200Y-53919946D01*
X56478435Y-53762914D01*
X56539704Y-53614997D01*
X56628660Y-53481866D01*
X56741866Y-53368660D01*
X56874997Y-53279704D01*
X57022914Y-53218435D01*
X57179946Y-53187200D01*
X57340054Y-53187200D01*
X57497086Y-53218435D01*
X57497086Y-53218435D01*
G37*
G36*
X71560650Y-51718830D02*
G01*
X71560653Y-51718831D01*
X71560654Y-51718831D01*
X71733019Y-51771117D01*
X71812445Y-51813571D01*
X71891870Y-51856025D01*
X71891872Y-51856026D01*
X71891871Y-51856026D01*
X72031107Y-51970293D01*
X72145374Y-52109529D01*
X72230283Y-52268381D01*
X72282569Y-52440746D01*
X72282570Y-52440750D01*
X72300225Y-52620000D01*
X72282570Y-52799250D01*
X72282569Y-52799253D01*
X72282569Y-52799254D01*
X72230283Y-52971619D01*
X72230282Y-52971620D01*
X72145375Y-53130470D01*
X72031107Y-53269707D01*
X71891870Y-53383975D01*
X71812445Y-53426428D01*
X71733019Y-53468883D01*
X71560654Y-53521169D01*
X71560653Y-53521169D01*
X71560650Y-53521170D01*
X71426323Y-53534400D01*
X70813677Y-53534400D01*
X70679350Y-53521170D01*
X70679347Y-53521169D01*
X70679346Y-53521169D01*
X70506981Y-53468883D01*
X70427555Y-53426428D01*
X70348130Y-53383975D01*
X70208893Y-53269707D01*
X70094625Y-53130470D01*
X70009718Y-52971620D01*
X70009717Y-52971619D01*
X69957431Y-52799254D01*
X69957431Y-52799253D01*
X69957430Y-52799250D01*
X69939775Y-52620000D01*
X69957430Y-52440750D01*
X69957431Y-52440746D01*
X70009717Y-52268381D01*
X70094626Y-52109529D01*
X70208893Y-51970293D01*
X70348129Y-51856026D01*
X70348128Y-51856026D01*
X70348130Y-51856025D01*
X70427555Y-51813572D01*
X70506981Y-51771117D01*
X70679346Y-51718831D01*
X70679347Y-51718831D01*
X70679350Y-51718830D01*
X70813677Y-51705600D01*
X71426323Y-51705600D01*
X71560650Y-51718830D01*
X71560650Y-51718830D01*
G37*
G36*
X135080650Y-51718830D02*
G01*
X135080653Y-51718831D01*
X135080654Y-51718831D01*
X135253019Y-51771117D01*
X135332445Y-51813571D01*
X135411870Y-51856025D01*
X135411872Y-51856026D01*
X135411871Y-51856026D01*
X135551107Y-51970293D01*
X135665374Y-52109529D01*
X135750283Y-52268381D01*
X135802569Y-52440746D01*
X135802570Y-52440750D01*
X135820225Y-52620000D01*
X135802570Y-52799250D01*
X135802569Y-52799253D01*
X135802569Y-52799254D01*
X135750283Y-52971619D01*
X135750282Y-52971620D01*
X135665375Y-53130470D01*
X135551107Y-53269707D01*
X135411870Y-53383975D01*
X135332445Y-53426428D01*
X135253019Y-53468883D01*
X135080654Y-53521169D01*
X135080653Y-53521169D01*
X135080650Y-53521170D01*
X134946323Y-53534400D01*
X134333677Y-53534400D01*
X134199350Y-53521170D01*
X134199347Y-53521169D01*
X134199346Y-53521169D01*
X134026981Y-53468883D01*
X133947555Y-53426428D01*
X133868130Y-53383975D01*
X133728893Y-53269707D01*
X133614625Y-53130470D01*
X133529718Y-52971620D01*
X133529717Y-52971619D01*
X133477431Y-52799254D01*
X133477431Y-52799253D01*
X133477430Y-52799250D01*
X133459775Y-52620000D01*
X133477430Y-52440750D01*
X133477431Y-52440746D01*
X133529717Y-52268381D01*
X133614626Y-52109529D01*
X133728893Y-51970293D01*
X133868129Y-51856026D01*
X133868128Y-51856026D01*
X133868130Y-51856025D01*
X133947555Y-51813572D01*
X134026981Y-51771117D01*
X134199346Y-51718831D01*
X134199347Y-51718831D01*
X134199350Y-51718830D01*
X134333677Y-51705600D01*
X134946323Y-51705600D01*
X135080650Y-51718830D01*
X135080650Y-51718830D01*
G37*
G36*
X71560650Y-49178830D02*
G01*
X71560653Y-49178831D01*
X71560654Y-49178831D01*
X71733019Y-49231117D01*
X71812445Y-49273571D01*
X71891870Y-49316025D01*
X71891872Y-49316026D01*
X71891871Y-49316026D01*
X72031107Y-49430293D01*
X72145374Y-49569529D01*
X72230283Y-49728381D01*
X72282569Y-49900746D01*
X72282570Y-49900750D01*
X72300225Y-50080000D01*
X72282570Y-50259250D01*
X72282569Y-50259253D01*
X72282569Y-50259254D01*
X72230283Y-50431619D01*
X72230282Y-50431620D01*
X72145375Y-50590470D01*
X72031107Y-50729707D01*
X71891870Y-50843975D01*
X71812445Y-50886428D01*
X71733019Y-50928883D01*
X71560654Y-50981169D01*
X71560653Y-50981169D01*
X71560650Y-50981170D01*
X71426323Y-50994400D01*
X70813677Y-50994400D01*
X70679350Y-50981170D01*
X70679347Y-50981169D01*
X70679346Y-50981169D01*
X70506981Y-50928883D01*
X70427555Y-50886429D01*
X70348130Y-50843975D01*
X70208893Y-50729707D01*
X70094625Y-50590470D01*
X70009718Y-50431620D01*
X70009717Y-50431619D01*
X69957431Y-50259254D01*
X69957431Y-50259253D01*
X69957430Y-50259250D01*
X69939775Y-50080000D01*
X69957430Y-49900750D01*
X69957431Y-49900746D01*
X70009717Y-49728381D01*
X70094626Y-49569529D01*
X70208893Y-49430293D01*
X70348129Y-49316026D01*
X70348128Y-49316026D01*
X70348130Y-49316025D01*
X70427555Y-49273572D01*
X70506981Y-49231117D01*
X70679346Y-49178831D01*
X70679347Y-49178831D01*
X70679350Y-49178830D01*
X70813677Y-49165600D01*
X71426323Y-49165600D01*
X71560650Y-49178830D01*
X71560650Y-49178830D01*
G37*
G36*
X135815800Y-50994400D02*
G01*
X133464200Y-50994400D01*
X133464200Y-49165600D01*
X135815800Y-49165600D01*
X135815800Y-50994400D01*
X135815800Y-50994400D01*
G37*
G36*
X39676584Y-47152233D02*
G01*
X39676587Y-47152234D01*
X39676588Y-47152234D01*
X39846389Y-47203743D01*
X39893861Y-47229117D01*
X40002881Y-47287389D01*
X40140044Y-47399956D01*
X40252611Y-47537119D01*
X40310883Y-47646139D01*
X40336257Y-47693611D01*
X40387766Y-47863412D01*
X40387767Y-47863416D01*
X40405159Y-48040000D01*
X40387767Y-48216584D01*
X40387766Y-48216587D01*
X40387766Y-48216588D01*
X40336257Y-48386389D01*
X40310883Y-48433861D01*
X40252611Y-48542881D01*
X40140044Y-48680044D01*
X40002881Y-48792611D01*
X39893861Y-48850883D01*
X39846389Y-48876257D01*
X39676588Y-48927766D01*
X39676587Y-48927766D01*
X39676584Y-48927767D01*
X39544255Y-48940800D01*
X39455745Y-48940800D01*
X39323416Y-48927767D01*
X39323413Y-48927766D01*
X39323412Y-48927766D01*
X39153611Y-48876257D01*
X39106139Y-48850883D01*
X38997119Y-48792611D01*
X38859956Y-48680044D01*
X38747389Y-48542881D01*
X38689117Y-48433861D01*
X38663743Y-48386389D01*
X38612234Y-48216588D01*
X38612234Y-48216587D01*
X38612233Y-48216584D01*
X38594841Y-48040000D01*
X38612233Y-47863416D01*
X38612234Y-47863412D01*
X38663743Y-47693611D01*
X38689117Y-47646139D01*
X38747389Y-47537119D01*
X38859956Y-47399956D01*
X38997119Y-47287389D01*
X39106139Y-47229117D01*
X39153611Y-47203743D01*
X39323412Y-47152234D01*
X39323413Y-47152234D01*
X39323416Y-47152233D01*
X39455745Y-47139200D01*
X39544255Y-47139200D01*
X39676584Y-47152233D01*
X39676584Y-47152233D01*
G37*
G36*
X71560650Y-46638830D02*
G01*
X71560653Y-46638831D01*
X71560654Y-46638831D01*
X71733019Y-46691117D01*
X71812445Y-46733572D01*
X71891870Y-46776025D01*
X71891872Y-46776026D01*
X71891871Y-46776026D01*
X72031107Y-46890293D01*
X72145374Y-47029529D01*
X72230283Y-47188381D01*
X72282569Y-47360746D01*
X72282570Y-47360750D01*
X72300225Y-47540000D01*
X72282570Y-47719250D01*
X72282569Y-47719253D01*
X72282569Y-47719254D01*
X72230283Y-47891619D01*
X72230282Y-47891620D01*
X72145375Y-48050470D01*
X72031107Y-48189707D01*
X71891870Y-48303975D01*
X71822975Y-48340800D01*
X71733019Y-48388883D01*
X71560654Y-48441169D01*
X71560653Y-48441169D01*
X71560650Y-48441170D01*
X71426323Y-48454400D01*
X70813677Y-48454400D01*
X70679350Y-48441170D01*
X70679347Y-48441169D01*
X70679346Y-48441169D01*
X70506981Y-48388883D01*
X70417025Y-48340800D01*
X70348130Y-48303975D01*
X70208893Y-48189707D01*
X70094625Y-48050470D01*
X70009718Y-47891620D01*
X70009717Y-47891619D01*
X69957431Y-47719254D01*
X69957431Y-47719253D01*
X69957430Y-47719250D01*
X69939775Y-47540000D01*
X69957430Y-47360750D01*
X69957431Y-47360746D01*
X70009717Y-47188381D01*
X70094626Y-47029529D01*
X70208893Y-46890293D01*
X70348129Y-46776026D01*
X70348128Y-46776026D01*
X70348130Y-46776025D01*
X70427555Y-46733572D01*
X70506981Y-46691117D01*
X70679346Y-46638831D01*
X70679347Y-46638831D01*
X70679350Y-46638830D01*
X70813677Y-46625600D01*
X71426323Y-46625600D01*
X71560650Y-46638830D01*
X71560650Y-46638830D01*
G37*
G36*
X62945800Y-48340800D02*
G01*
X60244200Y-48340800D01*
X60244200Y-45639200D01*
X62945800Y-45639200D01*
X62945800Y-48340800D01*
X62945800Y-48340800D01*
G37*
G36*
X40400800Y-46400800D02*
G01*
X38599200Y-46400800D01*
X38599200Y-44599200D01*
X40400800Y-44599200D01*
X40400800Y-46400800D01*
X40400800Y-46400800D01*
G37*
G36*
X72295800Y-45914400D02*
G01*
X69944200Y-45914400D01*
X69944200Y-44085600D01*
X72295800Y-44085600D01*
X72295800Y-45914400D01*
X72295800Y-45914400D01*
G37*
G36*
X57289014Y-42691110D02*
G01*
X57534843Y-42792936D01*
X57534844Y-42792937D01*
X57756085Y-42940765D01*
X57944235Y-43128915D01*
X58018149Y-43239535D01*
X58092064Y-43350157D01*
X58193890Y-43595986D01*
X58245800Y-43856958D01*
X58245800Y-44123042D01*
X58193890Y-44384014D01*
X58092064Y-44629843D01*
X57944234Y-44851086D01*
X57756086Y-45039234D01*
X57534843Y-45187064D01*
X57289014Y-45288890D01*
X57028042Y-45340800D01*
X56761958Y-45340800D01*
X56500986Y-45288890D01*
X56255157Y-45187064D01*
X56033914Y-45039234D01*
X55845766Y-44851086D01*
X55697936Y-44629843D01*
X55596110Y-44384014D01*
X55544200Y-44123042D01*
X55544200Y-43856958D01*
X55596110Y-43595986D01*
X55697936Y-43350157D01*
X55771851Y-43239535D01*
X55845765Y-43128915D01*
X56033915Y-42940765D01*
X56255156Y-42792937D01*
X56255157Y-42792936D01*
X56500986Y-42691110D01*
X56761958Y-42639200D01*
X57028042Y-42639200D01*
X57289014Y-42691110D01*
X57289014Y-42691110D01*
G37*
G36*
X151236386Y-42562957D02*
G01*
X151236389Y-42562958D01*
X151415616Y-42617325D01*
X151580792Y-42705614D01*
X151725570Y-42824430D01*
X151844386Y-42969208D01*
X151932675Y-43134384D01*
X151956709Y-43213615D01*
X151987043Y-43313615D01*
X152000800Y-43453292D01*
X152000800Y-43746709D01*
X151987043Y-43886386D01*
X151987042Y-43886388D01*
X151987042Y-43886389D01*
X151932675Y-44065616D01*
X151844386Y-44230792D01*
X151725570Y-44375570D01*
X151580792Y-44494386D01*
X151415615Y-44582675D01*
X151260120Y-44629843D01*
X151236385Y-44637043D01*
X151050000Y-44655401D01*
X150863614Y-44637043D01*
X150738861Y-44599200D01*
X150684384Y-44582675D01*
X150519208Y-44494386D01*
X150374430Y-44375570D01*
X150255614Y-44230792D01*
X150167325Y-44065615D01*
X150112958Y-43886388D01*
X150112957Y-43886385D01*
X150099200Y-43746708D01*
X150099200Y-43453291D01*
X150112957Y-43313614D01*
X150167325Y-43134385D01*
X150167325Y-43134384D01*
X150255614Y-42969208D01*
X150374430Y-42824430D01*
X150412805Y-42792937D01*
X150519205Y-42705617D01*
X150519206Y-42705616D01*
X150519209Y-42705614D01*
X150684385Y-42617325D01*
X150863612Y-42562958D01*
X150863615Y-42562957D01*
X151050000Y-42544599D01*
X151236386Y-42562957D01*
X151236386Y-42562957D01*
G37*
G36*
X148736386Y-42562957D02*
G01*
X148736389Y-42562958D01*
X148915616Y-42617325D01*
X149080792Y-42705614D01*
X149225570Y-42824430D01*
X149344386Y-42969208D01*
X149432675Y-43134384D01*
X149456709Y-43213615D01*
X149487043Y-43313615D01*
X149500800Y-43453292D01*
X149500800Y-43746709D01*
X149487043Y-43886386D01*
X149487042Y-43886388D01*
X149487042Y-43886389D01*
X149432675Y-44065616D01*
X149344386Y-44230792D01*
X149225570Y-44375570D01*
X149080792Y-44494386D01*
X148915615Y-44582675D01*
X148760120Y-44629843D01*
X148736385Y-44637043D01*
X148550000Y-44655401D01*
X148363614Y-44637043D01*
X148238861Y-44599200D01*
X148184384Y-44582675D01*
X148019208Y-44494386D01*
X147874430Y-44375570D01*
X147755614Y-44230792D01*
X147667325Y-44065615D01*
X147612958Y-43886388D01*
X147612957Y-43886385D01*
X147599200Y-43746708D01*
X147599200Y-43453291D01*
X147612957Y-43313614D01*
X147667325Y-43134385D01*
X147667325Y-43134384D01*
X147755614Y-42969208D01*
X147874430Y-42824430D01*
X147912805Y-42792937D01*
X148019205Y-42705617D01*
X148019206Y-42705616D01*
X148019209Y-42705614D01*
X148184385Y-42617325D01*
X148363612Y-42562958D01*
X148363615Y-42562957D01*
X148550000Y-42544599D01*
X148736386Y-42562957D01*
X148736386Y-42562957D01*
G37*
G36*
X143736386Y-42562957D02*
G01*
X143736389Y-42562958D01*
X143915616Y-42617325D01*
X144080792Y-42705614D01*
X144225570Y-42824430D01*
X144344386Y-42969208D01*
X144432675Y-43134384D01*
X144456709Y-43213615D01*
X144487043Y-43313615D01*
X144500800Y-43453292D01*
X144500800Y-43746709D01*
X144487043Y-43886386D01*
X144487042Y-43886388D01*
X144487042Y-43886389D01*
X144432675Y-44065616D01*
X144344386Y-44230792D01*
X144225570Y-44375570D01*
X144080792Y-44494386D01*
X143915615Y-44582675D01*
X143760120Y-44629843D01*
X143736385Y-44637043D01*
X143550000Y-44655401D01*
X143363614Y-44637043D01*
X143238861Y-44599200D01*
X143184384Y-44582675D01*
X143019208Y-44494386D01*
X142874430Y-44375570D01*
X142755614Y-44230792D01*
X142667325Y-44065615D01*
X142612958Y-43886388D01*
X142612957Y-43886385D01*
X142599200Y-43746708D01*
X142599200Y-43453291D01*
X142612957Y-43313614D01*
X142667325Y-43134385D01*
X142667325Y-43134384D01*
X142755614Y-42969208D01*
X142874430Y-42824430D01*
X142912805Y-42792937D01*
X143019205Y-42705617D01*
X143019206Y-42705616D01*
X143019209Y-42705614D01*
X143184385Y-42617325D01*
X143363612Y-42562958D01*
X143363615Y-42562957D01*
X143550000Y-42544599D01*
X143736386Y-42562957D01*
X143736386Y-42562957D01*
G37*
G36*
X141236386Y-42562957D02*
G01*
X141236389Y-42562958D01*
X141415616Y-42617325D01*
X141580792Y-42705614D01*
X141725570Y-42824430D01*
X141844386Y-42969208D01*
X141932675Y-43134384D01*
X141956709Y-43213615D01*
X141987043Y-43313615D01*
X142000800Y-43453292D01*
X142000800Y-43746709D01*
X141987043Y-43886386D01*
X141987042Y-43886388D01*
X141987042Y-43886389D01*
X141932675Y-44065616D01*
X141844386Y-44230792D01*
X141725570Y-44375570D01*
X141580792Y-44494386D01*
X141415615Y-44582675D01*
X141260120Y-44629843D01*
X141236385Y-44637043D01*
X141050000Y-44655401D01*
X140863614Y-44637043D01*
X140738861Y-44599200D01*
X140684384Y-44582675D01*
X140519208Y-44494386D01*
X140374430Y-44375570D01*
X140255614Y-44230792D01*
X140167325Y-44065615D01*
X140112958Y-43886388D01*
X140112957Y-43886385D01*
X140099200Y-43746708D01*
X140099200Y-43453291D01*
X140112957Y-43313614D01*
X140167325Y-43134385D01*
X140167325Y-43134384D01*
X140255614Y-42969208D01*
X140374430Y-42824430D01*
X140412805Y-42792937D01*
X140519205Y-42705617D01*
X140519206Y-42705616D01*
X140519209Y-42705614D01*
X140684385Y-42617325D01*
X140863612Y-42562958D01*
X140863615Y-42562957D01*
X141050000Y-42544599D01*
X141236386Y-42562957D01*
X141236386Y-42562957D01*
G37*
G36*
X166476386Y-42462957D02*
G01*
X166476389Y-42462958D01*
X166655616Y-42517325D01*
X166820792Y-42605614D01*
X166965570Y-42724430D01*
X167084386Y-42869208D01*
X167172675Y-43034384D01*
X167172675Y-43034385D01*
X167227043Y-43213615D01*
X167240800Y-43353292D01*
X167240800Y-43646709D01*
X167227043Y-43786386D01*
X167227042Y-43786388D01*
X167227042Y-43786389D01*
X167172675Y-43965616D01*
X167084386Y-44130792D01*
X166965570Y-44275570D01*
X166820792Y-44394386D01*
X166655615Y-44482675D01*
X166496885Y-44530824D01*
X166476385Y-44537043D01*
X166290000Y-44555401D01*
X166103614Y-44537043D01*
X165962991Y-44494386D01*
X165924384Y-44482675D01*
X165759208Y-44394386D01*
X165614430Y-44275570D01*
X165495614Y-44130792D01*
X165407325Y-43965615D01*
X165352958Y-43786388D01*
X165352957Y-43786385D01*
X165339200Y-43646708D01*
X165339200Y-43353291D01*
X165352957Y-43213614D01*
X165407325Y-43034385D01*
X165407325Y-43034384D01*
X165495614Y-42869208D01*
X165614430Y-42724430D01*
X165637354Y-42705617D01*
X165759205Y-42605617D01*
X165759206Y-42605616D01*
X165759209Y-42605614D01*
X165924385Y-42517325D01*
X166103612Y-42462958D01*
X166103615Y-42462957D01*
X166290000Y-42444599D01*
X166476386Y-42462957D01*
X166476386Y-42462957D01*
G37*
G36*
X163976386Y-42462957D02*
G01*
X163976389Y-42462958D01*
X164155616Y-42517325D01*
X164320792Y-42605614D01*
X164465570Y-42724430D01*
X164584386Y-42869208D01*
X164672675Y-43034384D01*
X164672675Y-43034385D01*
X164727043Y-43213615D01*
X164740800Y-43353292D01*
X164740800Y-43646709D01*
X164727043Y-43786386D01*
X164727042Y-43786388D01*
X164727042Y-43786389D01*
X164672675Y-43965616D01*
X164584386Y-44130792D01*
X164465570Y-44275570D01*
X164320792Y-44394386D01*
X164155615Y-44482675D01*
X163996885Y-44530824D01*
X163976385Y-44537043D01*
X163790000Y-44555401D01*
X163603614Y-44537043D01*
X163462991Y-44494386D01*
X163424384Y-44482675D01*
X163259208Y-44394386D01*
X163114430Y-44275570D01*
X162995614Y-44130792D01*
X162907325Y-43965615D01*
X162852958Y-43786388D01*
X162852957Y-43786385D01*
X162839200Y-43646708D01*
X162839200Y-43353291D01*
X162852957Y-43213614D01*
X162907325Y-43034385D01*
X162907325Y-43034384D01*
X162995614Y-42869208D01*
X163114430Y-42724430D01*
X163137354Y-42705617D01*
X163259205Y-42605617D01*
X163259206Y-42605616D01*
X163259209Y-42605614D01*
X163424385Y-42517325D01*
X163603612Y-42462958D01*
X163603615Y-42462957D01*
X163790000Y-42444599D01*
X163976386Y-42462957D01*
X163976386Y-42462957D01*
G37*
G36*
X156476386Y-42462957D02*
G01*
X156476389Y-42462958D01*
X156655616Y-42517325D01*
X156820792Y-42605614D01*
X156965570Y-42724430D01*
X157084386Y-42869208D01*
X157172675Y-43034384D01*
X157172675Y-43034385D01*
X157227043Y-43213615D01*
X157240800Y-43353292D01*
X157240800Y-43646709D01*
X157227043Y-43786386D01*
X157227042Y-43786388D01*
X157227042Y-43786389D01*
X157172675Y-43965616D01*
X157084386Y-44130792D01*
X156965570Y-44275570D01*
X156820792Y-44394386D01*
X156655615Y-44482675D01*
X156496885Y-44530824D01*
X156476385Y-44537043D01*
X156290000Y-44555401D01*
X156103614Y-44537043D01*
X155962991Y-44494386D01*
X155924384Y-44482675D01*
X155759208Y-44394386D01*
X155614430Y-44275570D01*
X155495614Y-44130792D01*
X155407325Y-43965615D01*
X155352958Y-43786388D01*
X155352957Y-43786385D01*
X155339200Y-43646708D01*
X155339200Y-43353291D01*
X155352957Y-43213614D01*
X155407325Y-43034385D01*
X155407325Y-43034384D01*
X155495614Y-42869208D01*
X155614430Y-42724430D01*
X155637354Y-42705617D01*
X155759205Y-42605617D01*
X155759206Y-42605616D01*
X155759209Y-42605614D01*
X155924385Y-42517325D01*
X156103612Y-42462958D01*
X156103615Y-42462957D01*
X156290000Y-42444599D01*
X156476386Y-42462957D01*
X156476386Y-42462957D01*
G37*
G36*
X158976386Y-42462957D02*
G01*
X158976389Y-42462958D01*
X159155616Y-42517325D01*
X159320792Y-42605614D01*
X159465570Y-42724430D01*
X159584386Y-42869208D01*
X159672675Y-43034384D01*
X159672675Y-43034385D01*
X159727043Y-43213615D01*
X159740800Y-43353292D01*
X159740800Y-43646709D01*
X159727043Y-43786386D01*
X159727042Y-43786388D01*
X159727042Y-43786389D01*
X159672675Y-43965616D01*
X159584386Y-44130792D01*
X159465570Y-44275570D01*
X159320792Y-44394386D01*
X159155615Y-44482675D01*
X158996885Y-44530824D01*
X158976385Y-44537043D01*
X158790000Y-44555401D01*
X158603614Y-44537043D01*
X158462991Y-44494386D01*
X158424384Y-44482675D01*
X158259208Y-44394386D01*
X158114430Y-44275570D01*
X157995614Y-44130792D01*
X157907325Y-43965615D01*
X157852958Y-43786388D01*
X157852957Y-43786385D01*
X157839200Y-43646708D01*
X157839200Y-43353291D01*
X157852957Y-43213614D01*
X157907325Y-43034385D01*
X157907325Y-43034384D01*
X157995614Y-42869208D01*
X158114430Y-42724430D01*
X158137354Y-42705617D01*
X158259205Y-42605617D01*
X158259206Y-42605616D01*
X158259209Y-42605614D01*
X158424385Y-42517325D01*
X158603612Y-42462958D01*
X158603615Y-42462957D01*
X158790000Y-42444599D01*
X158976386Y-42462957D01*
X158976386Y-42462957D01*
G37*
G36*
X61989014Y-39691110D02*
G01*
X62234843Y-39792936D01*
X62456086Y-39940766D01*
X62644234Y-40128914D01*
X62792064Y-40350157D01*
X62893890Y-40595986D01*
X62945800Y-40856958D01*
X62945800Y-41123042D01*
X62893890Y-41384014D01*
X62792064Y-41629843D01*
X62644234Y-41851086D01*
X62456086Y-42039234D01*
X62234843Y-42187064D01*
X61989014Y-42288890D01*
X61728042Y-42340800D01*
X61461958Y-42340800D01*
X61200986Y-42288890D01*
X60955157Y-42187064D01*
X60733914Y-42039234D01*
X60545766Y-41851086D01*
X60397936Y-41629843D01*
X60296110Y-41384014D01*
X60244200Y-41123042D01*
X60244200Y-40856958D01*
X60296110Y-40595986D01*
X60397936Y-40350157D01*
X60545766Y-40128914D01*
X60733914Y-39940766D01*
X60955157Y-39792936D01*
X61200986Y-39691110D01*
X61461958Y-39639200D01*
X61728042Y-39639200D01*
X61989014Y-39691110D01*
X61989014Y-39691110D01*
G37*
G36*
X40452352Y-37508796D02*
G01*
X40734579Y-37625699D01*
X40988578Y-37795415D01*
X41204585Y-38011422D01*
X41374301Y-38265421D01*
X41491204Y-38547648D01*
X41550800Y-38847259D01*
X41550800Y-39152741D01*
X41491204Y-39452352D01*
X41374301Y-39734579D01*
X41204585Y-39988578D01*
X40988578Y-40204585D01*
X40734579Y-40374301D01*
X40452352Y-40491204D01*
X40152741Y-40550800D01*
X39847259Y-40550800D01*
X39547648Y-40491204D01*
X39265421Y-40374301D01*
X39011422Y-40204585D01*
X38795415Y-39988578D01*
X38625699Y-39734579D01*
X38508796Y-39452352D01*
X38449200Y-39152741D01*
X38449200Y-38847259D01*
X38508796Y-38547648D01*
X38625699Y-38265421D01*
X38795415Y-38011422D01*
X39011422Y-37795415D01*
X39265421Y-37625699D01*
X39547648Y-37508796D01*
X39847259Y-37449200D01*
X40152741Y-37449200D01*
X40452352Y-37508796D01*
X40452352Y-37508796D01*
G37*
G36*
X173452352Y-37508796D02*
G01*
X173734579Y-37625699D01*
X173988578Y-37795415D01*
X174204585Y-38011422D01*
X174374301Y-38265421D01*
X174491204Y-38547648D01*
X174550800Y-38847259D01*
X174550800Y-39152741D01*
X174491204Y-39452352D01*
X174374301Y-39734579D01*
X174204585Y-39988578D01*
X173988578Y-40204585D01*
X173734579Y-40374301D01*
X173452352Y-40491204D01*
X173152741Y-40550800D01*
X172847259Y-40550800D01*
X172547648Y-40491204D01*
X172265421Y-40374301D01*
X172011422Y-40204585D01*
X171795415Y-39988578D01*
X171625699Y-39734579D01*
X171508796Y-39452352D01*
X171449200Y-39152741D01*
X171449200Y-38847259D01*
X171508796Y-38547648D01*
X171625699Y-38265421D01*
X171795415Y-38011422D01*
X172011422Y-37795415D01*
X172265421Y-37625699D01*
X172547648Y-37508796D01*
X172847259Y-37449200D01*
X173152741Y-37449200D01*
X173452352Y-37508796D01*
X173452352Y-37508796D01*
G37*
G36*
X46195593Y-35680850D02*
G01*
X46195596Y-35680851D01*
X46412523Y-35746655D01*
X46612444Y-35853515D01*
X46787676Y-35997324D01*
X46931485Y-36172556D01*
X47038345Y-36372477D01*
X47082472Y-36517945D01*
X47104150Y-36589407D01*
X47120800Y-36758460D01*
X47120800Y-38171540D01*
X47104150Y-38340593D01*
X47104149Y-38340595D01*
X47104149Y-38340596D01*
X47038345Y-38557523D01*
X46931485Y-38757444D01*
X46787676Y-38932676D01*
X46787674Y-38932678D01*
X46612445Y-39076484D01*
X46612443Y-39076485D01*
X46412522Y-39183345D01*
X46220401Y-39241624D01*
X46195592Y-39249150D01*
X45970000Y-39271369D01*
X45744407Y-39249150D01*
X45719598Y-39241624D01*
X45527477Y-39183345D01*
X45327556Y-39076485D01*
X45152324Y-38932676D01*
X45120900Y-38894386D01*
X45008516Y-38757445D01*
X44982312Y-38708421D01*
X44901655Y-38557522D01*
X44835851Y-38340595D01*
X44835850Y-38340592D01*
X44819200Y-38171539D01*
X44819200Y-36758460D01*
X44835850Y-36589407D01*
X44857528Y-36517945D01*
X44901655Y-36372477D01*
X45008516Y-36172556D01*
X45152325Y-35997324D01*
X45327557Y-35853515D01*
X45527478Y-35746655D01*
X45744405Y-35680851D01*
X45744408Y-35680850D01*
X45970000Y-35658631D01*
X46195593Y-35680850D01*
X46195593Y-35680850D01*
G37*
G36*
X54395593Y-35680850D02*
G01*
X54395596Y-35680851D01*
X54612523Y-35746655D01*
X54812444Y-35853515D01*
X54987676Y-35997324D01*
X55131485Y-36172556D01*
X55238345Y-36372477D01*
X55282472Y-36517945D01*
X55304150Y-36589407D01*
X55320800Y-36758460D01*
X55320800Y-38171540D01*
X55304150Y-38340593D01*
X55304149Y-38340595D01*
X55304149Y-38340596D01*
X55238345Y-38557523D01*
X55131485Y-38757444D01*
X54987676Y-38932676D01*
X54987674Y-38932678D01*
X54812445Y-39076484D01*
X54812443Y-39076485D01*
X54612522Y-39183345D01*
X54420401Y-39241624D01*
X54395592Y-39249150D01*
X54170000Y-39271369D01*
X53944407Y-39249150D01*
X53919598Y-39241624D01*
X53727477Y-39183345D01*
X53527556Y-39076485D01*
X53352324Y-38932676D01*
X53320900Y-38894386D01*
X53208516Y-38757445D01*
X53182312Y-38708421D01*
X53101655Y-38557522D01*
X53035851Y-38340595D01*
X53035850Y-38340592D01*
X53019200Y-38171539D01*
X53019200Y-36758460D01*
X53035850Y-36589407D01*
X53057528Y-36517945D01*
X53101655Y-36372477D01*
X53208516Y-36172556D01*
X53352325Y-35997324D01*
X53527557Y-35853515D01*
X53727478Y-35746655D01*
X53944405Y-35680851D01*
X53944408Y-35680850D01*
X54170000Y-35658631D01*
X54395593Y-35680850D01*
X54395593Y-35680850D01*
G37*
G36*
X146236386Y-37062957D02*
G01*
X146236389Y-37062958D01*
X146415616Y-37117325D01*
X146580792Y-37205614D01*
X146725570Y-37324430D01*
X146844386Y-37469208D01*
X146932675Y-37634384D01*
X146956709Y-37713615D01*
X146987043Y-37813615D01*
X147000800Y-37953292D01*
X147000800Y-38246709D01*
X146987043Y-38386386D01*
X146987042Y-38386388D01*
X146987042Y-38386389D01*
X146932675Y-38565616D01*
X146844386Y-38730792D01*
X146725570Y-38875570D01*
X146580792Y-38994386D01*
X146415615Y-39082675D01*
X146256885Y-39130824D01*
X146236385Y-39137043D01*
X146050000Y-39155401D01*
X145863614Y-39137043D01*
X145822614Y-39124606D01*
X145684384Y-39082675D01*
X145519208Y-38994386D01*
X145374430Y-38875570D01*
X145255614Y-38730792D01*
X145167325Y-38565615D01*
X145112958Y-38386388D01*
X145112957Y-38386385D01*
X145099200Y-38246708D01*
X145099200Y-37953291D01*
X145112957Y-37813614D01*
X145167325Y-37634385D01*
X145167325Y-37634384D01*
X145255614Y-37469208D01*
X145374430Y-37324430D01*
X145519209Y-37205614D01*
X145684385Y-37117325D01*
X145863612Y-37062958D01*
X145863615Y-37062957D01*
X146050000Y-37044599D01*
X146236386Y-37062957D01*
X146236386Y-37062957D01*
G37*
G36*
X161476386Y-36962957D02*
G01*
X161476389Y-36962958D01*
X161655616Y-37017325D01*
X161820792Y-37105614D01*
X161965570Y-37224430D01*
X162084386Y-37369208D01*
X162172675Y-37534384D01*
X162172675Y-37534385D01*
X162227043Y-37713615D01*
X162240800Y-37853292D01*
X162240800Y-38146709D01*
X162227043Y-38286386D01*
X162227042Y-38286388D01*
X162227042Y-38286389D01*
X162172675Y-38465616D01*
X162084386Y-38630792D01*
X161965570Y-38775570D01*
X161820792Y-38894386D01*
X161655615Y-38982675D01*
X161496885Y-39030824D01*
X161476385Y-39037043D01*
X161290000Y-39055401D01*
X161103614Y-39037043D01*
X160962991Y-38994386D01*
X160924384Y-38982675D01*
X160759208Y-38894386D01*
X160614430Y-38775570D01*
X160495614Y-38630792D01*
X160407325Y-38465615D01*
X160352958Y-38286388D01*
X160352957Y-38286385D01*
X160339200Y-38146708D01*
X160339200Y-37853291D01*
X160352957Y-37713614D01*
X160407325Y-37534385D01*
X160407325Y-37534384D01*
X160495614Y-37369208D01*
X160614430Y-37224430D01*
X160637354Y-37205617D01*
X160759205Y-37105617D01*
X160759206Y-37105616D01*
X160759209Y-37105614D01*
X160924385Y-37017325D01*
X161103612Y-36962958D01*
X161103615Y-36962957D01*
X161290000Y-36944599D01*
X161476386Y-36962957D01*
X161476386Y-36962957D01*
G37*
G36*
X48226980Y-36175786D02*
G01*
X48307036Y-36200071D01*
X48377935Y-36221578D01*
X48499091Y-36286337D01*
X48517055Y-36295939D01*
X48638991Y-36396009D01*
X48739061Y-36517945D01*
X48739062Y-36517947D01*
X48813422Y-36657065D01*
X48834929Y-36727964D01*
X48859214Y-36808020D01*
X48870800Y-36925659D01*
X48870800Y-38004341D01*
X48859214Y-38121980D01*
X48844180Y-38171539D01*
X48813422Y-38272935D01*
X48752782Y-38386385D01*
X48739061Y-38412055D01*
X48638991Y-38533991D01*
X48537121Y-38617592D01*
X48517052Y-38634062D01*
X48377934Y-38708422D01*
X48307035Y-38729929D01*
X48226979Y-38754214D01*
X48070000Y-38769675D01*
X47913020Y-38754214D01*
X47832964Y-38729929D01*
X47762065Y-38708422D01*
X47622947Y-38634062D01*
X47622945Y-38634061D01*
X47501009Y-38533991D01*
X47417408Y-38432121D01*
X47400938Y-38412052D01*
X47326578Y-38272934D01*
X47305071Y-38202035D01*
X47280786Y-38121979D01*
X47269200Y-38004340D01*
X47269201Y-36925659D01*
X47280787Y-36808020D01*
X47305072Y-36727964D01*
X47326579Y-36657065D01*
X47400939Y-36517947D01*
X47400940Y-36517945D01*
X47501010Y-36396009D01*
X47622946Y-36295939D01*
X47640910Y-36286337D01*
X47762066Y-36221578D01*
X47832965Y-36200071D01*
X47913021Y-36175786D01*
X48070000Y-36160325D01*
X48226980Y-36175786D01*
X48226980Y-36175786D01*
G37*
G36*
X50226980Y-36175786D02*
G01*
X50307036Y-36200071D01*
X50377935Y-36221578D01*
X50499091Y-36286337D01*
X50517055Y-36295939D01*
X50638991Y-36396009D01*
X50739061Y-36517945D01*
X50739062Y-36517947D01*
X50813422Y-36657065D01*
X50834929Y-36727964D01*
X50859214Y-36808020D01*
X50870800Y-36925659D01*
X50870800Y-38004341D01*
X50859214Y-38121980D01*
X50844180Y-38171539D01*
X50813422Y-38272935D01*
X50752782Y-38386385D01*
X50739061Y-38412055D01*
X50638991Y-38533991D01*
X50537121Y-38617592D01*
X50517052Y-38634062D01*
X50377934Y-38708422D01*
X50307035Y-38729929D01*
X50226979Y-38754214D01*
X50070000Y-38769675D01*
X49913020Y-38754214D01*
X49832964Y-38729929D01*
X49762065Y-38708422D01*
X49622947Y-38634062D01*
X49622945Y-38634061D01*
X49501009Y-38533991D01*
X49417408Y-38432121D01*
X49400938Y-38412052D01*
X49326578Y-38272934D01*
X49305071Y-38202035D01*
X49280786Y-38121979D01*
X49269200Y-38004340D01*
X49269201Y-36925659D01*
X49280787Y-36808020D01*
X49305072Y-36727964D01*
X49326579Y-36657065D01*
X49400939Y-36517947D01*
X49400940Y-36517945D01*
X49501010Y-36396009D01*
X49622946Y-36295939D01*
X49640910Y-36286337D01*
X49762066Y-36221578D01*
X49832965Y-36200071D01*
X49913021Y-36175786D01*
X50070000Y-36160325D01*
X50226980Y-36175786D01*
X50226980Y-36175786D01*
G37*
G36*
X52870800Y-38765800D02*
G01*
X51269200Y-38765800D01*
X51269200Y-36164200D01*
X52870800Y-36164200D01*
X52870800Y-38765800D01*
X52870800Y-38765800D01*
G37*
M02*
