G04 #@! TF.GenerationSoftware,KiCad,Pcbnew,(5.1.4)-1*
G04 #@! TF.CreationDate,2019-09-15T13:59:41-04:00*
G04 #@! TF.ProjectId,MorseTutor1,4d6f7273-6554-4757-946f-72312e6b6963,rev?*
G04 #@! TF.SameCoordinates,Original*
G04 #@! TF.FileFunction,Copper,L2,Bot*
G04 #@! TF.FilePolarity,Positive*
%FSLAX46Y46*%
G04 Gerber Fmt 4.6, Leading zero omitted, Abs format (unit mm)*
G04 Created by KiCad (PCBNEW (5.1.4)-1) date 2019-09-15 13:59:41*
%MOMM*%
%LPD*%
G04 APERTURE LIST*
%ADD10O,2.000000X1.727200*%
%ADD11O,2.000000X1.700000*%
%ADD12O,1.727200X2.250000*%
%ADD13R,1.727200X2.250000*%
%ADD14O,1.700000X1.700000*%
%ADD15R,1.700000X1.700000*%
%ADD16O,1.800000X2.000000*%
%ADD17C,1.524000*%
%ADD18R,2.600000X2.600000*%
%ADD19C,2.600000*%
%ADD20C,1.600000*%
%ADD21O,1.600000X1.600000*%
%ADD22R,1.500000X2.500000*%
%ADD23O,1.500000X2.500000*%
%ADD24O,2.200000X3.500000*%
%ADD25R,2.800000X3.600000*%
%ADD26C,2.000000*%
%ADD27R,2.250000X1.727200*%
%ADD28O,2.250000X1.727200*%
%ADD29C,1.800000*%
%ADD30C,4.000000*%
%ADD31C,0.685800*%
%ADD32C,0.254000*%
%ADD33C,0.203200*%
%ADD34C,0.508000*%
G04 APERTURE END LIST*
D10*
X110790800Y-86360000D03*
X110790800Y-93980000D03*
D11*
X110790800Y-88900000D03*
D10*
X110790800Y-91440000D03*
D12*
X114651600Y-97780000D03*
X112060800Y-97780000D03*
X109520800Y-97780000D03*
X106980800Y-97780000D03*
X104440800Y-97780000D03*
X101900800Y-97780000D03*
X99360800Y-97780000D03*
X96820800Y-97780000D03*
X94280800Y-97780000D03*
X91740800Y-97780000D03*
X89200800Y-97780000D03*
X86660800Y-97780000D03*
X84120800Y-97780000D03*
X81580800Y-97780000D03*
X79040800Y-97780000D03*
X76500800Y-97780000D03*
X73960800Y-97780000D03*
X71420800Y-97780000D03*
X68880800Y-97780000D03*
X66340800Y-97780000D03*
X66340800Y-82540000D03*
X68880800Y-82540000D03*
X71420800Y-82540000D03*
X73960800Y-82540000D03*
X76500800Y-82540000D03*
X79040800Y-82540000D03*
X81580800Y-82540000D03*
X84120800Y-82540000D03*
X86660800Y-82540000D03*
X89200800Y-82540000D03*
X91740800Y-82540000D03*
X94280800Y-82540000D03*
X96820800Y-82540000D03*
X99360800Y-82540000D03*
X101900800Y-82540000D03*
X104440800Y-82540000D03*
X106980800Y-82540000D03*
X109520800Y-82540000D03*
X112060800Y-82540000D03*
D13*
X114600800Y-82540000D03*
D14*
X108025000Y-94055000D03*
X108025000Y-91515000D03*
X108025000Y-88975000D03*
D15*
X108025000Y-86435000D03*
D16*
X141050000Y-43600000D03*
X143550000Y-43600000D03*
X151050000Y-43600000D03*
X148550000Y-43600000D03*
X146050000Y-38100000D03*
X156290000Y-43500000D03*
X158790000Y-43500000D03*
X166290000Y-43500000D03*
X163790000Y-43500000D03*
X161290000Y-38000000D03*
D17*
X153670000Y-82575000D03*
X151130000Y-82575000D03*
X140970000Y-82575000D03*
X138450000Y-82575000D03*
X153670000Y-101575000D03*
X151130000Y-101575000D03*
X143510000Y-101575000D03*
X140970000Y-101575000D03*
X138450000Y-101575000D03*
D18*
X61595000Y-46990000D03*
D19*
X61595000Y-40990000D03*
X56895000Y-43990000D03*
D20*
X65000000Y-65000000D03*
D21*
X65000000Y-54840000D03*
X125340000Y-79000000D03*
D20*
X135500000Y-79000000D03*
D22*
X52070000Y-37465000D03*
D23*
X50070000Y-37465000D03*
X48070000Y-37465000D03*
D24*
X54170000Y-37465000D03*
X45970000Y-37465000D03*
D14*
X50165000Y-100000000D03*
D15*
X47625000Y-100000000D03*
X55880000Y-100000000D03*
D14*
X58420000Y-100000000D03*
D15*
X39500000Y-45500000D03*
D14*
X39500000Y-48040000D03*
D25*
X121500000Y-92000000D03*
X132900000Y-92000000D03*
D26*
X124700000Y-85000000D03*
X129700000Y-85000000D03*
X124700000Y-99500000D03*
X127200000Y-99500000D03*
X129700000Y-99500000D03*
D17*
X161170000Y-64135000D03*
X146170000Y-64135000D03*
X57260000Y-54000000D03*
X39260000Y-54000000D03*
X39260000Y-94000000D03*
X57260000Y-94000000D03*
D27*
X71120000Y-45000000D03*
D28*
X71120000Y-47540000D03*
X71120000Y-50080000D03*
X71120000Y-52620000D03*
X71120000Y-55160000D03*
X71120000Y-57700000D03*
X71120000Y-60240000D03*
X71120000Y-62780000D03*
X71120000Y-65320000D03*
X134640000Y-57700000D03*
X134640000Y-55160000D03*
X134640000Y-52620000D03*
D27*
X134640000Y-50080000D03*
D28*
X134640000Y-60240000D03*
D29*
X160060000Y-99475000D03*
X162560000Y-99475000D03*
X165060000Y-99475000D03*
D30*
X158160000Y-92475000D03*
X166960000Y-92475000D03*
D31*
X101600000Y-76200000D03*
X111760000Y-50800000D03*
X100330000Y-58420000D03*
X91440000Y-67310000D03*
X97790000Y-55880000D03*
X97790000Y-53340000D03*
D32*
X146050000Y-64015000D02*
X146170000Y-64135000D01*
X146050000Y-38100000D02*
X146050000Y-64015000D01*
X67220000Y-62780000D02*
X65000000Y-65000000D01*
X71120000Y-62780000D02*
X67220000Y-62780000D01*
X98810800Y-82761400D02*
X98810800Y-82500000D01*
X101139400Y-85090000D02*
X98810800Y-82761400D01*
X119380000Y-85090000D02*
X101139400Y-85090000D01*
D33*
X119380000Y-85090000D02*
X120910000Y-85090000D01*
X120910000Y-85090000D02*
X124500000Y-81500000D01*
X124500000Y-81500000D02*
X124460000Y-81460000D01*
D32*
X125340000Y-80660000D02*
X124500000Y-81500000D01*
X125340000Y-79000000D02*
X125340000Y-80660000D01*
X162560000Y-98202208D02*
X162560000Y-99475000D01*
X162147792Y-97790000D02*
X162560000Y-98202208D01*
X140335000Y-97790000D02*
X162147792Y-97790000D01*
X138450000Y-99675000D02*
X140335000Y-97790000D01*
X138450000Y-101575000D02*
X138450000Y-99675000D01*
X101600000Y-82250800D02*
X101350800Y-82500000D01*
X101600000Y-76200000D02*
X101600000Y-82250800D01*
X93730800Y-68829200D02*
X93730800Y-82500000D01*
X111760000Y-50800000D02*
X93730800Y-68829200D01*
X100330000Y-58420000D02*
X91440000Y-67310000D01*
X97790000Y-55880000D02*
X88350000Y-65320000D01*
X88650800Y-70870800D02*
X83100000Y-65320000D01*
X88650800Y-82500000D02*
X88650800Y-70870800D01*
X88350000Y-65320000D02*
X83100000Y-65320000D01*
X83100000Y-65320000D02*
X71120000Y-65320000D01*
X93430000Y-57700000D02*
X71120000Y-57700000D01*
X97790000Y-53340000D02*
X93430000Y-57700000D01*
D34*
X50070000Y-37465000D02*
X50070000Y-42450000D01*
X50070000Y-42450000D02*
X57260000Y-49640000D01*
X57260000Y-49640000D02*
X57260000Y-54000000D01*
D32*
G36*
X44520422Y-35846422D02*
G01*
X44359315Y-36147832D01*
X44260105Y-36474881D01*
X44235000Y-36729775D01*
X44235000Y-38200224D01*
X44260105Y-38455118D01*
X44359314Y-38782167D01*
X44520421Y-39083577D01*
X44737234Y-39347766D01*
X45001422Y-39564579D01*
X45302832Y-39725686D01*
X45629881Y-39824895D01*
X45970000Y-39858394D01*
X46310118Y-39824895D01*
X46637167Y-39725686D01*
X46938577Y-39564579D01*
X47202766Y-39347766D01*
X47360139Y-39156006D01*
X47537419Y-39250764D01*
X47798493Y-39329960D01*
X48070000Y-39356701D01*
X48341506Y-39329960D01*
X48602580Y-39250764D01*
X48843187Y-39122157D01*
X49054080Y-38949081D01*
X49070000Y-38929683D01*
X49085919Y-38949080D01*
X49181000Y-39027112D01*
X49181001Y-42406330D01*
X49176700Y-42450000D01*
X49193864Y-42624274D01*
X49244698Y-42791852D01*
X49307711Y-42909740D01*
X49327248Y-42946291D01*
X49438342Y-43081659D01*
X49472259Y-43109494D01*
X56371000Y-50008236D01*
X56371001Y-52913854D01*
X56369465Y-52914880D01*
X56174880Y-53109465D01*
X56021995Y-53338273D01*
X55916686Y-53592510D01*
X55863000Y-53862408D01*
X55863000Y-54137592D01*
X55916686Y-54407490D01*
X56021995Y-54661727D01*
X56174880Y-54890535D01*
X56369465Y-55085120D01*
X56598273Y-55238005D01*
X56852510Y-55343314D01*
X57122408Y-55397000D01*
X57397592Y-55397000D01*
X57667490Y-55343314D01*
X57921727Y-55238005D01*
X58150535Y-55085120D01*
X58345120Y-54890535D01*
X58378886Y-54840000D01*
X63558057Y-54840000D01*
X63585764Y-55121309D01*
X63667818Y-55391808D01*
X63801068Y-55641101D01*
X63980392Y-55859608D01*
X64198899Y-56038932D01*
X64448192Y-56172182D01*
X64718691Y-56254236D01*
X64929508Y-56275000D01*
X65070492Y-56275000D01*
X65281309Y-56254236D01*
X65551808Y-56172182D01*
X65801101Y-56038932D01*
X66019608Y-55859608D01*
X66198932Y-55641101D01*
X66332182Y-55391808D01*
X66414236Y-55121309D01*
X66441943Y-54840000D01*
X66414236Y-54558691D01*
X66332182Y-54288192D01*
X66198932Y-54038899D01*
X66019608Y-53820392D01*
X65801101Y-53641068D01*
X65551808Y-53507818D01*
X65281309Y-53425764D01*
X65070492Y-53405000D01*
X64929508Y-53405000D01*
X64718691Y-53425764D01*
X64448192Y-53507818D01*
X64198899Y-53641068D01*
X63980392Y-53820392D01*
X63801068Y-54038899D01*
X63667818Y-54288192D01*
X63585764Y-54558691D01*
X63558057Y-54840000D01*
X58378886Y-54840000D01*
X58498005Y-54661727D01*
X58603314Y-54407490D01*
X58657000Y-54137592D01*
X58657000Y-53862408D01*
X58603314Y-53592510D01*
X58498005Y-53338273D01*
X58345120Y-53109465D01*
X58150535Y-52914880D01*
X58149000Y-52913854D01*
X58149000Y-49683668D01*
X58153301Y-49640000D01*
X58136136Y-49465725D01*
X58085303Y-49298150D01*
X58085303Y-49298149D01*
X58002753Y-49143709D01*
X57891659Y-49008341D01*
X57857743Y-48980507D01*
X52676655Y-43799419D01*
X54960000Y-43799419D01*
X54960000Y-44180581D01*
X55034361Y-44554419D01*
X55180225Y-44906566D01*
X55391987Y-45223491D01*
X55661509Y-45493013D01*
X55978434Y-45704775D01*
X56330581Y-45850639D01*
X56704419Y-45925000D01*
X57085581Y-45925000D01*
X57459419Y-45850639D01*
X57811566Y-45704775D01*
X57833678Y-45690000D01*
X59656928Y-45690000D01*
X59656928Y-48290000D01*
X59669188Y-48414482D01*
X59705498Y-48534180D01*
X59764463Y-48644494D01*
X59843815Y-48741185D01*
X59940506Y-48820537D01*
X60050820Y-48879502D01*
X60170518Y-48915812D01*
X60295000Y-48928072D01*
X62895000Y-48928072D01*
X63019482Y-48915812D01*
X63139180Y-48879502D01*
X63249494Y-48820537D01*
X63346185Y-48741185D01*
X63425537Y-48644494D01*
X63484502Y-48534180D01*
X63520812Y-48414482D01*
X63533072Y-48290000D01*
X63533072Y-47540000D01*
X69352749Y-47540000D01*
X69381684Y-47833777D01*
X69467375Y-48116264D01*
X69606531Y-48376606D01*
X69793803Y-48604797D01*
X70021994Y-48792069D01*
X70055540Y-48810000D01*
X70021994Y-48827931D01*
X69793803Y-49015203D01*
X69606531Y-49243394D01*
X69467375Y-49503736D01*
X69381684Y-49786223D01*
X69352749Y-50080000D01*
X69381684Y-50373777D01*
X69467375Y-50656264D01*
X69606531Y-50916606D01*
X69793803Y-51144797D01*
X70021994Y-51332069D01*
X70055540Y-51350000D01*
X70021994Y-51367931D01*
X69793803Y-51555203D01*
X69606531Y-51783394D01*
X69467375Y-52043736D01*
X69381684Y-52326223D01*
X69352749Y-52620000D01*
X69381684Y-52913777D01*
X69467375Y-53196264D01*
X69606531Y-53456606D01*
X69793803Y-53684797D01*
X70021994Y-53872069D01*
X70055540Y-53890000D01*
X70021994Y-53907931D01*
X69793803Y-54095203D01*
X69606531Y-54323394D01*
X69467375Y-54583736D01*
X69381684Y-54866223D01*
X69352749Y-55160000D01*
X69381684Y-55453777D01*
X69467375Y-55736264D01*
X69606531Y-55996606D01*
X69793803Y-56224797D01*
X70021994Y-56412069D01*
X70055540Y-56430000D01*
X70021994Y-56447931D01*
X69793803Y-56635203D01*
X69606531Y-56863394D01*
X69467375Y-57123736D01*
X69381684Y-57406223D01*
X69352749Y-57700000D01*
X69381684Y-57993777D01*
X69467375Y-58276264D01*
X69606531Y-58536606D01*
X69793803Y-58764797D01*
X70021994Y-58952069D01*
X70055540Y-58970000D01*
X70021994Y-58987931D01*
X69793803Y-59175203D01*
X69606531Y-59403394D01*
X69467375Y-59663736D01*
X69381684Y-59946223D01*
X69352749Y-60240000D01*
X69381684Y-60533777D01*
X69467375Y-60816264D01*
X69606531Y-61076606D01*
X69793803Y-61304797D01*
X70021994Y-61492069D01*
X70061353Y-61513107D01*
X69920426Y-61604517D01*
X69709127Y-61810132D01*
X69542002Y-62053019D01*
X69425473Y-62323843D01*
X69403642Y-62420974D01*
X69524783Y-62653000D01*
X70993000Y-62653000D01*
X70993000Y-62633000D01*
X71247000Y-62633000D01*
X71247000Y-62653000D01*
X72715217Y-62653000D01*
X72836358Y-62420974D01*
X72814527Y-62323843D01*
X72697998Y-62053019D01*
X72530873Y-61810132D01*
X72319574Y-61604517D01*
X72178647Y-61513107D01*
X72218006Y-61492069D01*
X72446197Y-61304797D01*
X72633469Y-61076606D01*
X72772625Y-60816264D01*
X72858316Y-60533777D01*
X72887251Y-60240000D01*
X72858316Y-59946223D01*
X72772625Y-59663736D01*
X72633469Y-59403394D01*
X72446197Y-59175203D01*
X72218006Y-58987931D01*
X72184460Y-58970000D01*
X72218006Y-58952069D01*
X72446197Y-58764797D01*
X72633469Y-58536606D01*
X72673347Y-58462000D01*
X93392577Y-58462000D01*
X93430000Y-58465686D01*
X93467423Y-58462000D01*
X93467426Y-58462000D01*
X93579378Y-58450974D01*
X93723015Y-58407402D01*
X93855392Y-58336645D01*
X93971422Y-58241422D01*
X93995284Y-58212346D01*
X97890579Y-54317052D01*
X98075243Y-54280320D01*
X98253210Y-54206604D01*
X98413375Y-54099585D01*
X98549585Y-53963375D01*
X98656604Y-53803210D01*
X98730320Y-53625243D01*
X98767900Y-53436315D01*
X98767900Y-53243685D01*
X98730320Y-53054757D01*
X98656604Y-52876790D01*
X98549585Y-52716625D01*
X98413375Y-52580415D01*
X98253210Y-52473396D01*
X98075243Y-52399680D01*
X97886315Y-52362100D01*
X97693685Y-52362100D01*
X97504757Y-52399680D01*
X97326790Y-52473396D01*
X97166625Y-52580415D01*
X97030415Y-52716625D01*
X96923396Y-52876790D01*
X96849680Y-53054757D01*
X96812948Y-53239421D01*
X93114370Y-56938000D01*
X72673347Y-56938000D01*
X72633469Y-56863394D01*
X72446197Y-56635203D01*
X72218006Y-56447931D01*
X72184460Y-56430000D01*
X72218006Y-56412069D01*
X72446197Y-56224797D01*
X72633469Y-55996606D01*
X72772625Y-55736264D01*
X72858316Y-55453777D01*
X72887251Y-55160000D01*
X72858316Y-54866223D01*
X72772625Y-54583736D01*
X72633469Y-54323394D01*
X72446197Y-54095203D01*
X72218006Y-53907931D01*
X72184460Y-53890000D01*
X72218006Y-53872069D01*
X72446197Y-53684797D01*
X72633469Y-53456606D01*
X72772625Y-53196264D01*
X72858316Y-52913777D01*
X72887251Y-52620000D01*
X72858316Y-52326223D01*
X72772625Y-52043736D01*
X72633469Y-51783394D01*
X72446197Y-51555203D01*
X72218006Y-51367931D01*
X72184460Y-51350000D01*
X72218006Y-51332069D01*
X72446197Y-51144797D01*
X72633469Y-50916606D01*
X72772625Y-50656264D01*
X72858316Y-50373777D01*
X72887251Y-50080000D01*
X72858316Y-49786223D01*
X72772625Y-49503736D01*
X72633469Y-49243394D01*
X72446197Y-49015203D01*
X72218006Y-48827931D01*
X72184460Y-48810000D01*
X72218006Y-48792069D01*
X72446197Y-48604797D01*
X72633469Y-48376606D01*
X72772625Y-48116264D01*
X72858316Y-47833777D01*
X72887251Y-47540000D01*
X72858316Y-47246223D01*
X72772625Y-46963736D01*
X72633469Y-46703394D01*
X72446197Y-46475203D01*
X72438135Y-46468586D01*
X72489180Y-46453102D01*
X72599494Y-46394137D01*
X72696185Y-46314785D01*
X72775537Y-46218094D01*
X72834502Y-46107780D01*
X72870812Y-45988082D01*
X72883072Y-45863600D01*
X72880000Y-45285750D01*
X72721250Y-45127000D01*
X71247000Y-45127000D01*
X71247000Y-45147000D01*
X70993000Y-45147000D01*
X70993000Y-45127000D01*
X69518750Y-45127000D01*
X69360000Y-45285750D01*
X69356928Y-45863600D01*
X69369188Y-45988082D01*
X69405498Y-46107780D01*
X69464463Y-46218094D01*
X69543815Y-46314785D01*
X69640506Y-46394137D01*
X69750820Y-46453102D01*
X69801865Y-46468586D01*
X69793803Y-46475203D01*
X69606531Y-46703394D01*
X69467375Y-46963736D01*
X69381684Y-47246223D01*
X69352749Y-47540000D01*
X63533072Y-47540000D01*
X63533072Y-45690000D01*
X63520812Y-45565518D01*
X63484502Y-45445820D01*
X63425537Y-45335506D01*
X63346185Y-45238815D01*
X63249494Y-45159463D01*
X63139180Y-45100498D01*
X63019482Y-45064188D01*
X62895000Y-45051928D01*
X60295000Y-45051928D01*
X60170518Y-45064188D01*
X60050820Y-45100498D01*
X59940506Y-45159463D01*
X59843815Y-45238815D01*
X59764463Y-45335506D01*
X59705498Y-45445820D01*
X59669188Y-45565518D01*
X59656928Y-45690000D01*
X57833678Y-45690000D01*
X58128491Y-45493013D01*
X58398013Y-45223491D01*
X58609775Y-44906566D01*
X58755639Y-44554419D01*
X58830000Y-44180581D01*
X58830000Y-44136400D01*
X69356928Y-44136400D01*
X69360000Y-44714250D01*
X69518750Y-44873000D01*
X70993000Y-44873000D01*
X70993000Y-43660150D01*
X71247000Y-43660150D01*
X71247000Y-44873000D01*
X72721250Y-44873000D01*
X72880000Y-44714250D01*
X72883072Y-44136400D01*
X72870812Y-44011918D01*
X72834502Y-43892220D01*
X72775537Y-43781906D01*
X72696185Y-43685215D01*
X72599494Y-43605863D01*
X72489180Y-43546898D01*
X72369482Y-43510588D01*
X72245000Y-43498328D01*
X71405750Y-43501400D01*
X71247000Y-43660150D01*
X70993000Y-43660150D01*
X70834250Y-43501400D01*
X69995000Y-43498328D01*
X69870518Y-43510588D01*
X69750820Y-43546898D01*
X69640506Y-43605863D01*
X69543815Y-43685215D01*
X69464463Y-43781906D01*
X69405498Y-43892220D01*
X69369188Y-44011918D01*
X69356928Y-44136400D01*
X58830000Y-44136400D01*
X58830000Y-43799419D01*
X58755639Y-43425581D01*
X58755230Y-43424592D01*
X139515000Y-43424592D01*
X139515000Y-43775407D01*
X139537210Y-44000912D01*
X139624983Y-44290260D01*
X139767519Y-44556926D01*
X139959339Y-44790661D01*
X140193073Y-44982481D01*
X140459739Y-45125017D01*
X140749087Y-45212790D01*
X141050000Y-45242427D01*
X141350912Y-45212790D01*
X141640260Y-45125017D01*
X141906926Y-44982481D01*
X142140661Y-44790661D01*
X142300000Y-44596505D01*
X142459339Y-44790661D01*
X142693073Y-44982481D01*
X142959739Y-45125017D01*
X143249087Y-45212790D01*
X143550000Y-45242427D01*
X143850912Y-45212790D01*
X144140260Y-45125017D01*
X144406926Y-44982481D01*
X144640661Y-44790661D01*
X144832481Y-44556927D01*
X144975017Y-44290261D01*
X145062790Y-44000913D01*
X145085000Y-43775408D01*
X145085000Y-43424593D01*
X145062790Y-43199088D01*
X144975017Y-42909740D01*
X144832481Y-42643073D01*
X144640661Y-42409339D01*
X144406927Y-42217519D01*
X144140261Y-42074983D01*
X143850913Y-41987210D01*
X143550000Y-41957573D01*
X143249088Y-41987210D01*
X142959740Y-42074983D01*
X142693074Y-42217519D01*
X142459339Y-42409339D01*
X142300000Y-42603495D01*
X142140661Y-42409339D01*
X141906927Y-42217519D01*
X141640261Y-42074983D01*
X141350913Y-41987210D01*
X141050000Y-41957573D01*
X140749088Y-41987210D01*
X140459740Y-42074983D01*
X140193074Y-42217519D01*
X139959339Y-42409339D01*
X139767519Y-42643073D01*
X139624983Y-42909739D01*
X139537210Y-43199087D01*
X139515000Y-43424592D01*
X58755230Y-43424592D01*
X58609775Y-43073434D01*
X58398013Y-42756509D01*
X58128491Y-42486987D01*
X57811566Y-42275225D01*
X57459419Y-42129361D01*
X57085581Y-42055000D01*
X56704419Y-42055000D01*
X56330581Y-42129361D01*
X55978434Y-42275225D01*
X55661509Y-42486987D01*
X55391987Y-42756509D01*
X55180225Y-43073434D01*
X55034361Y-43425581D01*
X54960000Y-43799419D01*
X52676655Y-43799419D01*
X50959000Y-42081765D01*
X50959000Y-40799419D01*
X59660000Y-40799419D01*
X59660000Y-41180581D01*
X59734361Y-41554419D01*
X59880225Y-41906566D01*
X60091987Y-42223491D01*
X60361509Y-42493013D01*
X60678434Y-42704775D01*
X61030581Y-42850639D01*
X61404419Y-42925000D01*
X61785581Y-42925000D01*
X62159419Y-42850639D01*
X62511566Y-42704775D01*
X62828491Y-42493013D01*
X63098013Y-42223491D01*
X63309775Y-41906566D01*
X63455639Y-41554419D01*
X63530000Y-41180581D01*
X63530000Y-40799419D01*
X63455639Y-40425581D01*
X63309775Y-40073434D01*
X63098013Y-39756509D01*
X62828491Y-39486987D01*
X62511566Y-39275225D01*
X62159419Y-39129361D01*
X61785581Y-39055000D01*
X61404419Y-39055000D01*
X61030581Y-39129361D01*
X60678434Y-39275225D01*
X60361509Y-39486987D01*
X60091987Y-39756509D01*
X59880225Y-40073434D01*
X59734361Y-40425581D01*
X59660000Y-40799419D01*
X50959000Y-40799419D01*
X50959000Y-39240198D01*
X50965506Y-39245537D01*
X51075820Y-39304502D01*
X51195518Y-39340812D01*
X51320000Y-39353072D01*
X52820000Y-39353072D01*
X52932496Y-39341992D01*
X52937234Y-39347766D01*
X53201422Y-39564579D01*
X53502832Y-39725686D01*
X53829881Y-39824895D01*
X54170000Y-39858394D01*
X54510118Y-39824895D01*
X54837167Y-39725686D01*
X55138577Y-39564579D01*
X55402766Y-39347766D01*
X55619579Y-39083578D01*
X55780686Y-38782168D01*
X55879895Y-38455119D01*
X55905000Y-38200225D01*
X55905000Y-37924592D01*
X144515000Y-37924592D01*
X144515000Y-38275407D01*
X144537210Y-38500912D01*
X144624983Y-38790260D01*
X144767519Y-39056926D01*
X144959339Y-39290661D01*
X145193073Y-39482481D01*
X145288000Y-39533221D01*
X145288001Y-63044176D01*
X145279465Y-63049880D01*
X145084880Y-63244465D01*
X144931995Y-63473273D01*
X144826686Y-63727510D01*
X144773000Y-63997408D01*
X144773000Y-64272592D01*
X144826686Y-64542490D01*
X144931995Y-64796727D01*
X145084880Y-65025535D01*
X145279465Y-65220120D01*
X145508273Y-65373005D01*
X145762510Y-65478314D01*
X146032408Y-65532000D01*
X146307592Y-65532000D01*
X146577490Y-65478314D01*
X146831727Y-65373005D01*
X147060535Y-65220120D01*
X147255120Y-65025535D01*
X147408005Y-64796727D01*
X147513314Y-64542490D01*
X147567000Y-64272592D01*
X147567000Y-63997408D01*
X159773000Y-63997408D01*
X159773000Y-64272592D01*
X159826686Y-64542490D01*
X159931995Y-64796727D01*
X160084880Y-65025535D01*
X160279465Y-65220120D01*
X160508273Y-65373005D01*
X160762510Y-65478314D01*
X161032408Y-65532000D01*
X161307592Y-65532000D01*
X161577490Y-65478314D01*
X161831727Y-65373005D01*
X162060535Y-65220120D01*
X162255120Y-65025535D01*
X162408005Y-64796727D01*
X162513314Y-64542490D01*
X162567000Y-64272592D01*
X162567000Y-63997408D01*
X162513314Y-63727510D01*
X162408005Y-63473273D01*
X162255120Y-63244465D01*
X162060535Y-63049880D01*
X161831727Y-62896995D01*
X161577490Y-62791686D01*
X161307592Y-62738000D01*
X161032408Y-62738000D01*
X160762510Y-62791686D01*
X160508273Y-62896995D01*
X160279465Y-63049880D01*
X160084880Y-63244465D01*
X159931995Y-63473273D01*
X159826686Y-63727510D01*
X159773000Y-63997408D01*
X147567000Y-63997408D01*
X147513314Y-63727510D01*
X147408005Y-63473273D01*
X147255120Y-63244465D01*
X147060535Y-63049880D01*
X146831727Y-62896995D01*
X146812000Y-62888824D01*
X146812000Y-43424592D01*
X147015000Y-43424592D01*
X147015000Y-43775407D01*
X147037210Y-44000912D01*
X147124983Y-44290260D01*
X147267519Y-44556926D01*
X147459339Y-44790661D01*
X147693073Y-44982481D01*
X147959739Y-45125017D01*
X148249087Y-45212790D01*
X148550000Y-45242427D01*
X148850912Y-45212790D01*
X149140260Y-45125017D01*
X149406926Y-44982481D01*
X149640661Y-44790661D01*
X149800000Y-44596505D01*
X149959339Y-44790661D01*
X150193073Y-44982481D01*
X150459739Y-45125017D01*
X150749087Y-45212790D01*
X151050000Y-45242427D01*
X151350912Y-45212790D01*
X151640260Y-45125017D01*
X151906926Y-44982481D01*
X152140661Y-44790661D01*
X152332481Y-44556927D01*
X152475017Y-44290261D01*
X152562790Y-44000913D01*
X152585000Y-43775408D01*
X152585000Y-43424593D01*
X152575151Y-43324592D01*
X154755000Y-43324592D01*
X154755000Y-43675407D01*
X154777210Y-43900912D01*
X154864983Y-44190260D01*
X155007519Y-44456926D01*
X155199339Y-44690661D01*
X155433073Y-44882481D01*
X155699739Y-45025017D01*
X155989087Y-45112790D01*
X156290000Y-45142427D01*
X156590912Y-45112790D01*
X156880260Y-45025017D01*
X157146926Y-44882481D01*
X157380661Y-44690661D01*
X157540000Y-44496505D01*
X157699339Y-44690661D01*
X157933073Y-44882481D01*
X158199739Y-45025017D01*
X158489087Y-45112790D01*
X158790000Y-45142427D01*
X159090912Y-45112790D01*
X159380260Y-45025017D01*
X159646926Y-44882481D01*
X159880661Y-44690661D01*
X160072481Y-44456927D01*
X160215017Y-44190261D01*
X160302790Y-43900913D01*
X160325000Y-43675408D01*
X160325000Y-43324593D01*
X160325000Y-43324592D01*
X162255000Y-43324592D01*
X162255000Y-43675407D01*
X162277210Y-43900912D01*
X162364983Y-44190260D01*
X162507519Y-44456926D01*
X162699339Y-44690661D01*
X162933073Y-44882481D01*
X163199739Y-45025017D01*
X163489087Y-45112790D01*
X163790000Y-45142427D01*
X164090912Y-45112790D01*
X164380260Y-45025017D01*
X164646926Y-44882481D01*
X164880661Y-44690661D01*
X165040000Y-44496505D01*
X165199339Y-44690661D01*
X165433073Y-44882481D01*
X165699739Y-45025017D01*
X165989087Y-45112790D01*
X166290000Y-45142427D01*
X166590912Y-45112790D01*
X166880260Y-45025017D01*
X167146926Y-44882481D01*
X167380661Y-44690661D01*
X167572481Y-44456927D01*
X167715017Y-44190261D01*
X167802790Y-43900913D01*
X167825000Y-43675408D01*
X167825000Y-43324593D01*
X167802790Y-43099088D01*
X167715017Y-42809740D01*
X167572481Y-42543073D01*
X167380661Y-42309339D01*
X167146927Y-42117519D01*
X166880261Y-41974983D01*
X166590913Y-41887210D01*
X166290000Y-41857573D01*
X165989088Y-41887210D01*
X165699740Y-41974983D01*
X165433074Y-42117519D01*
X165199339Y-42309339D01*
X165040000Y-42503495D01*
X164880661Y-42309339D01*
X164646927Y-42117519D01*
X164380261Y-41974983D01*
X164090913Y-41887210D01*
X163790000Y-41857573D01*
X163489088Y-41887210D01*
X163199740Y-41974983D01*
X162933074Y-42117519D01*
X162699339Y-42309339D01*
X162507519Y-42543073D01*
X162364983Y-42809739D01*
X162277210Y-43099087D01*
X162255000Y-43324592D01*
X160325000Y-43324592D01*
X160302790Y-43099088D01*
X160215017Y-42809740D01*
X160072481Y-42543073D01*
X159880661Y-42309339D01*
X159646927Y-42117519D01*
X159380261Y-41974983D01*
X159090913Y-41887210D01*
X158790000Y-41857573D01*
X158489088Y-41887210D01*
X158199740Y-41974983D01*
X157933074Y-42117519D01*
X157699339Y-42309339D01*
X157540000Y-42503495D01*
X157380661Y-42309339D01*
X157146927Y-42117519D01*
X156880261Y-41974983D01*
X156590913Y-41887210D01*
X156290000Y-41857573D01*
X155989088Y-41887210D01*
X155699740Y-41974983D01*
X155433074Y-42117519D01*
X155199339Y-42309339D01*
X155007519Y-42543073D01*
X154864983Y-42809739D01*
X154777210Y-43099087D01*
X154755000Y-43324592D01*
X152575151Y-43324592D01*
X152562790Y-43199088D01*
X152475017Y-42909740D01*
X152332481Y-42643073D01*
X152140661Y-42409339D01*
X151906927Y-42217519D01*
X151640261Y-42074983D01*
X151350913Y-41987210D01*
X151050000Y-41957573D01*
X150749088Y-41987210D01*
X150459740Y-42074983D01*
X150193074Y-42217519D01*
X149959339Y-42409339D01*
X149800000Y-42603495D01*
X149640661Y-42409339D01*
X149406927Y-42217519D01*
X149140261Y-42074983D01*
X148850913Y-41987210D01*
X148550000Y-41957573D01*
X148249088Y-41987210D01*
X147959740Y-42074983D01*
X147693074Y-42217519D01*
X147459339Y-42409339D01*
X147267519Y-42643073D01*
X147124983Y-42909739D01*
X147037210Y-43199087D01*
X147015000Y-43424592D01*
X146812000Y-43424592D01*
X146812000Y-39533220D01*
X146906926Y-39482481D01*
X147140661Y-39290661D01*
X147332481Y-39056927D01*
X147475017Y-38790261D01*
X147562790Y-38500913D01*
X147585000Y-38275408D01*
X147585000Y-37924593D01*
X147575151Y-37824592D01*
X159755000Y-37824592D01*
X159755000Y-38175407D01*
X159777210Y-38400912D01*
X159864983Y-38690260D01*
X160007519Y-38956926D01*
X160199339Y-39190661D01*
X160433073Y-39382481D01*
X160699739Y-39525017D01*
X160989087Y-39612790D01*
X161290000Y-39642427D01*
X161590912Y-39612790D01*
X161880260Y-39525017D01*
X162146926Y-39382481D01*
X162380661Y-39190661D01*
X162572481Y-38956927D01*
X162715017Y-38690261D01*
X162802790Y-38400913D01*
X162825000Y-38175408D01*
X162825000Y-37824593D01*
X162802790Y-37599088D01*
X162715017Y-37309740D01*
X162572481Y-37043073D01*
X162380661Y-36809339D01*
X162146927Y-36617519D01*
X161880261Y-36474983D01*
X161590913Y-36387210D01*
X161290000Y-36357573D01*
X160989088Y-36387210D01*
X160699740Y-36474983D01*
X160433074Y-36617519D01*
X160199339Y-36809339D01*
X160007519Y-37043073D01*
X159864983Y-37309739D01*
X159777210Y-37599087D01*
X159755000Y-37824592D01*
X147575151Y-37824592D01*
X147562790Y-37699088D01*
X147475017Y-37409740D01*
X147332481Y-37143073D01*
X147140661Y-36909339D01*
X146906927Y-36717519D01*
X146640261Y-36574983D01*
X146350913Y-36487210D01*
X146050000Y-36457573D01*
X145749088Y-36487210D01*
X145459740Y-36574983D01*
X145193074Y-36717519D01*
X144959339Y-36909339D01*
X144767519Y-37143073D01*
X144624983Y-37409739D01*
X144537210Y-37699087D01*
X144515000Y-37924592D01*
X55905000Y-37924592D01*
X55905000Y-36729775D01*
X55879895Y-36474881D01*
X55780686Y-36147832D01*
X55619579Y-35846422D01*
X55466587Y-35660000D01*
X171585664Y-35660000D01*
X171281971Y-35785794D01*
X170687922Y-36182725D01*
X170182725Y-36687922D01*
X169785794Y-37281971D01*
X169512383Y-37942043D01*
X169373000Y-38642772D01*
X169373000Y-39357228D01*
X169512383Y-40057957D01*
X169785794Y-40718029D01*
X170182725Y-41312078D01*
X170687922Y-41817275D01*
X171281971Y-42214206D01*
X171942043Y-42487617D01*
X172642772Y-42627000D01*
X173357228Y-42627000D01*
X174057957Y-42487617D01*
X174718029Y-42214206D01*
X175312078Y-41817275D01*
X175817275Y-41312078D01*
X176214206Y-40718029D01*
X176340000Y-40414336D01*
X176340001Y-98585667D01*
X176214206Y-98281971D01*
X175817275Y-97687922D01*
X175312078Y-97182725D01*
X174718029Y-96785794D01*
X174057957Y-96512383D01*
X173357228Y-96373000D01*
X172642772Y-96373000D01*
X171942043Y-96512383D01*
X171281971Y-96785794D01*
X170687922Y-97182725D01*
X170182725Y-97687922D01*
X169785794Y-98281971D01*
X169512383Y-98942043D01*
X169373000Y-99642772D01*
X169373000Y-100357228D01*
X169512383Y-101057957D01*
X169785794Y-101718029D01*
X170182725Y-102312078D01*
X170687922Y-102817275D01*
X171281971Y-103214206D01*
X171585664Y-103340000D01*
X41414336Y-103340000D01*
X41718029Y-103214206D01*
X42312078Y-102817275D01*
X42817275Y-102312078D01*
X43214206Y-101718029D01*
X43487617Y-101057957D01*
X43627000Y-100357228D01*
X43627000Y-99642772D01*
X43528983Y-99150000D01*
X46136928Y-99150000D01*
X46136928Y-100850000D01*
X46149188Y-100974482D01*
X46185498Y-101094180D01*
X46244463Y-101204494D01*
X46323815Y-101301185D01*
X46420506Y-101380537D01*
X46530820Y-101439502D01*
X46650518Y-101475812D01*
X46775000Y-101488072D01*
X48475000Y-101488072D01*
X48599482Y-101475812D01*
X48719180Y-101439502D01*
X48829494Y-101380537D01*
X48926185Y-101301185D01*
X49005537Y-101204494D01*
X49064502Y-101094180D01*
X49085393Y-101025313D01*
X49109866Y-101055134D01*
X49335986Y-101240706D01*
X49593966Y-101378599D01*
X49873889Y-101463513D01*
X50092050Y-101485000D01*
X50237950Y-101485000D01*
X50456111Y-101463513D01*
X50736034Y-101378599D01*
X50994014Y-101240706D01*
X51220134Y-101055134D01*
X51405706Y-100829014D01*
X51543599Y-100571034D01*
X51628513Y-100291111D01*
X51657185Y-100000000D01*
X51628513Y-99708889D01*
X51543599Y-99428966D01*
X51405706Y-99170986D01*
X51388484Y-99150000D01*
X54391928Y-99150000D01*
X54391928Y-100850000D01*
X54404188Y-100974482D01*
X54440498Y-101094180D01*
X54499463Y-101204494D01*
X54578815Y-101301185D01*
X54675506Y-101380537D01*
X54785820Y-101439502D01*
X54905518Y-101475812D01*
X55030000Y-101488072D01*
X56730000Y-101488072D01*
X56854482Y-101475812D01*
X56974180Y-101439502D01*
X57084494Y-101380537D01*
X57181185Y-101301185D01*
X57260537Y-101204494D01*
X57319502Y-101094180D01*
X57343966Y-101013534D01*
X57419731Y-101097588D01*
X57653080Y-101271641D01*
X57915901Y-101396825D01*
X58063110Y-101441476D01*
X58293000Y-101320155D01*
X58293000Y-100127000D01*
X58547000Y-100127000D01*
X58547000Y-101320155D01*
X58776890Y-101441476D01*
X58790301Y-101437408D01*
X137053000Y-101437408D01*
X137053000Y-101712592D01*
X137106686Y-101982490D01*
X137211995Y-102236727D01*
X137364880Y-102465535D01*
X137559465Y-102660120D01*
X137788273Y-102813005D01*
X138042510Y-102918314D01*
X138312408Y-102972000D01*
X138587592Y-102972000D01*
X138857490Y-102918314D01*
X139111727Y-102813005D01*
X139340535Y-102660120D01*
X139535120Y-102465535D01*
X139688005Y-102236727D01*
X139710000Y-102183627D01*
X139731995Y-102236727D01*
X139884880Y-102465535D01*
X140079465Y-102660120D01*
X140308273Y-102813005D01*
X140562510Y-102918314D01*
X140832408Y-102972000D01*
X141107592Y-102972000D01*
X141377490Y-102918314D01*
X141631727Y-102813005D01*
X141860535Y-102660120D01*
X142055120Y-102465535D01*
X142208005Y-102236727D01*
X142240000Y-102159485D01*
X142271995Y-102236727D01*
X142424880Y-102465535D01*
X142619465Y-102660120D01*
X142848273Y-102813005D01*
X143102510Y-102918314D01*
X143372408Y-102972000D01*
X143647592Y-102972000D01*
X143917490Y-102918314D01*
X144171727Y-102813005D01*
X144400535Y-102660120D01*
X144520090Y-102540565D01*
X150344040Y-102540565D01*
X150411020Y-102780656D01*
X150660048Y-102897756D01*
X150927135Y-102964023D01*
X151202017Y-102976910D01*
X151474133Y-102935922D01*
X151733023Y-102842636D01*
X151848980Y-102780656D01*
X151915960Y-102540565D01*
X151130000Y-101754605D01*
X150344040Y-102540565D01*
X144520090Y-102540565D01*
X144595120Y-102465535D01*
X144748005Y-102236727D01*
X144853314Y-101982490D01*
X144907000Y-101712592D01*
X144907000Y-101647017D01*
X149728090Y-101647017D01*
X149769078Y-101919133D01*
X149862364Y-102178023D01*
X149924344Y-102293980D01*
X150164435Y-102360960D01*
X150950395Y-101575000D01*
X151309605Y-101575000D01*
X152095565Y-102360960D01*
X152335656Y-102293980D01*
X152399485Y-102158240D01*
X152431995Y-102236727D01*
X152584880Y-102465535D01*
X152779465Y-102660120D01*
X153008273Y-102813005D01*
X153262510Y-102918314D01*
X153532408Y-102972000D01*
X153807592Y-102972000D01*
X154077490Y-102918314D01*
X154331727Y-102813005D01*
X154560535Y-102660120D01*
X154755120Y-102465535D01*
X154908005Y-102236727D01*
X155013314Y-101982490D01*
X155067000Y-101712592D01*
X155067000Y-101437408D01*
X155013314Y-101167510D01*
X154908005Y-100913273D01*
X154755120Y-100684465D01*
X154560535Y-100489880D01*
X154331727Y-100336995D01*
X154077490Y-100231686D01*
X153807592Y-100178000D01*
X153532408Y-100178000D01*
X153262510Y-100231686D01*
X153008273Y-100336995D01*
X152779465Y-100489880D01*
X152584880Y-100684465D01*
X152431995Y-100913273D01*
X152402308Y-100984943D01*
X152397636Y-100971977D01*
X152335656Y-100856020D01*
X152095565Y-100789040D01*
X151309605Y-101575000D01*
X150950395Y-101575000D01*
X150164435Y-100789040D01*
X149924344Y-100856020D01*
X149807244Y-101105048D01*
X149740977Y-101372135D01*
X149728090Y-101647017D01*
X144907000Y-101647017D01*
X144907000Y-101437408D01*
X144853314Y-101167510D01*
X144748005Y-100913273D01*
X144595120Y-100684465D01*
X144520090Y-100609435D01*
X150344040Y-100609435D01*
X151130000Y-101395395D01*
X151915960Y-100609435D01*
X151848980Y-100369344D01*
X151599952Y-100252244D01*
X151332865Y-100185977D01*
X151057983Y-100173090D01*
X150785867Y-100214078D01*
X150526977Y-100307364D01*
X150411020Y-100369344D01*
X150344040Y-100609435D01*
X144520090Y-100609435D01*
X144400535Y-100489880D01*
X144171727Y-100336995D01*
X143917490Y-100231686D01*
X143647592Y-100178000D01*
X143372408Y-100178000D01*
X143102510Y-100231686D01*
X142848273Y-100336995D01*
X142619465Y-100489880D01*
X142424880Y-100684465D01*
X142271995Y-100913273D01*
X142240000Y-100990515D01*
X142208005Y-100913273D01*
X142055120Y-100684465D01*
X141860535Y-100489880D01*
X141631727Y-100336995D01*
X141377490Y-100231686D01*
X141107592Y-100178000D01*
X140832408Y-100178000D01*
X140562510Y-100231686D01*
X140308273Y-100336995D01*
X140079465Y-100489880D01*
X139884880Y-100684465D01*
X139731995Y-100913273D01*
X139710000Y-100966373D01*
X139688005Y-100913273D01*
X139535120Y-100684465D01*
X139340535Y-100489880D01*
X139212000Y-100403995D01*
X139212000Y-99990630D01*
X140650630Y-98552000D01*
X158830601Y-98552000D01*
X158699701Y-98747905D01*
X158583989Y-99027257D01*
X158525000Y-99323816D01*
X158525000Y-99626184D01*
X158583989Y-99922743D01*
X158699701Y-100202095D01*
X158867688Y-100453505D01*
X159081495Y-100667312D01*
X159332905Y-100835299D01*
X159612257Y-100951011D01*
X159908816Y-101010000D01*
X160211184Y-101010000D01*
X160507743Y-100951011D01*
X160787095Y-100835299D01*
X161038505Y-100667312D01*
X161252312Y-100453505D01*
X161310000Y-100367169D01*
X161367688Y-100453505D01*
X161581495Y-100667312D01*
X161832905Y-100835299D01*
X162112257Y-100951011D01*
X162408816Y-101010000D01*
X162711184Y-101010000D01*
X163007743Y-100951011D01*
X163287095Y-100835299D01*
X163538505Y-100667312D01*
X163752312Y-100453505D01*
X163810000Y-100367169D01*
X163867688Y-100453505D01*
X164081495Y-100667312D01*
X164332905Y-100835299D01*
X164612257Y-100951011D01*
X164908816Y-101010000D01*
X165211184Y-101010000D01*
X165507743Y-100951011D01*
X165787095Y-100835299D01*
X166038505Y-100667312D01*
X166252312Y-100453505D01*
X166420299Y-100202095D01*
X166536011Y-99922743D01*
X166595000Y-99626184D01*
X166595000Y-99323816D01*
X166536011Y-99027257D01*
X166420299Y-98747905D01*
X166252312Y-98496495D01*
X166038505Y-98282688D01*
X165787095Y-98114701D01*
X165507743Y-97998989D01*
X165211184Y-97940000D01*
X164908816Y-97940000D01*
X164612257Y-97998989D01*
X164332905Y-98114701D01*
X164081495Y-98282688D01*
X163867688Y-98496495D01*
X163810000Y-98582831D01*
X163752312Y-98496495D01*
X163538505Y-98282688D01*
X163319179Y-98136139D01*
X163310974Y-98052830D01*
X163267402Y-97909193D01*
X163196645Y-97776816D01*
X163101422Y-97660786D01*
X163072347Y-97636925D01*
X162713076Y-97277654D01*
X162689214Y-97248578D01*
X162573184Y-97153355D01*
X162440807Y-97082598D01*
X162297170Y-97039026D01*
X162185218Y-97028000D01*
X162185215Y-97028000D01*
X162147792Y-97024314D01*
X162110369Y-97028000D01*
X140372423Y-97028000D01*
X140335000Y-97024314D01*
X140297577Y-97028000D01*
X140297574Y-97028000D01*
X140185622Y-97039026D01*
X140041985Y-97082598D01*
X140006289Y-97101678D01*
X139909607Y-97153355D01*
X139873820Y-97182725D01*
X139793578Y-97248578D01*
X139769716Y-97277654D01*
X137937649Y-99109721D01*
X137908579Y-99133578D01*
X137884722Y-99162648D01*
X137884721Y-99162649D01*
X137813355Y-99249608D01*
X137742599Y-99381985D01*
X137699027Y-99525622D01*
X137684314Y-99675000D01*
X137688001Y-99712433D01*
X137688001Y-100403995D01*
X137559465Y-100489880D01*
X137364880Y-100684465D01*
X137211995Y-100913273D01*
X137106686Y-101167510D01*
X137053000Y-101437408D01*
X58790301Y-101437408D01*
X58924099Y-101396825D01*
X59186920Y-101271641D01*
X59420269Y-101097588D01*
X59615178Y-100881355D01*
X59764157Y-100631252D01*
X59861481Y-100356891D01*
X59740814Y-100127000D01*
X58547000Y-100127000D01*
X58293000Y-100127000D01*
X58273000Y-100127000D01*
X58273000Y-99873000D01*
X58293000Y-99873000D01*
X58293000Y-98679845D01*
X58547000Y-98679845D01*
X58547000Y-99873000D01*
X59740814Y-99873000D01*
X59861481Y-99643109D01*
X59764157Y-99368748D01*
X59615178Y-99118645D01*
X59420269Y-98902412D01*
X59186920Y-98728359D01*
X58924099Y-98603175D01*
X58776890Y-98558524D01*
X58547000Y-98679845D01*
X58293000Y-98679845D01*
X58063110Y-98558524D01*
X57915901Y-98603175D01*
X57653080Y-98728359D01*
X57419731Y-98902412D01*
X57343966Y-98986466D01*
X57319502Y-98905820D01*
X57260537Y-98795506D01*
X57181185Y-98698815D01*
X57084494Y-98619463D01*
X56974180Y-98560498D01*
X56854482Y-98524188D01*
X56730000Y-98511928D01*
X55030000Y-98511928D01*
X54905518Y-98524188D01*
X54785820Y-98560498D01*
X54675506Y-98619463D01*
X54578815Y-98698815D01*
X54499463Y-98795506D01*
X54440498Y-98905820D01*
X54404188Y-99025518D01*
X54391928Y-99150000D01*
X51388484Y-99150000D01*
X51220134Y-98944866D01*
X50994014Y-98759294D01*
X50736034Y-98621401D01*
X50456111Y-98536487D01*
X50237950Y-98515000D01*
X50092050Y-98515000D01*
X49873889Y-98536487D01*
X49593966Y-98621401D01*
X49335986Y-98759294D01*
X49109866Y-98944866D01*
X49085393Y-98974687D01*
X49064502Y-98905820D01*
X49005537Y-98795506D01*
X48926185Y-98698815D01*
X48829494Y-98619463D01*
X48719180Y-98560498D01*
X48599482Y-98524188D01*
X48475000Y-98511928D01*
X46775000Y-98511928D01*
X46650518Y-98524188D01*
X46530820Y-98560498D01*
X46420506Y-98619463D01*
X46323815Y-98698815D01*
X46244463Y-98795506D01*
X46185498Y-98905820D01*
X46149188Y-99025518D01*
X46136928Y-99150000D01*
X43528983Y-99150000D01*
X43487617Y-98942043D01*
X43214206Y-98281971D01*
X42817275Y-97687922D01*
X42574335Y-97444982D01*
X64842200Y-97444982D01*
X64842200Y-98115019D01*
X64863884Y-98335177D01*
X64949575Y-98617664D01*
X65088731Y-98878006D01*
X65276003Y-99106197D01*
X65504195Y-99293469D01*
X65764537Y-99432625D01*
X66047024Y-99518316D01*
X66340800Y-99547251D01*
X66634577Y-99518316D01*
X66917064Y-99432625D01*
X67177406Y-99293469D01*
X67405597Y-99106197D01*
X67592869Y-98878006D01*
X67610800Y-98844460D01*
X67628731Y-98878006D01*
X67816003Y-99106197D01*
X68044195Y-99293469D01*
X68304537Y-99432625D01*
X68587024Y-99518316D01*
X68880800Y-99547251D01*
X69174577Y-99518316D01*
X69457064Y-99432625D01*
X69717406Y-99293469D01*
X69945597Y-99106197D01*
X70132869Y-98878006D01*
X70150800Y-98844460D01*
X70168731Y-98878006D01*
X70356003Y-99106197D01*
X70584195Y-99293469D01*
X70844537Y-99432625D01*
X71127024Y-99518316D01*
X71420800Y-99547251D01*
X71714577Y-99518316D01*
X71997064Y-99432625D01*
X72257406Y-99293469D01*
X72485597Y-99106197D01*
X72672869Y-98878006D01*
X72690800Y-98844460D01*
X72708731Y-98878006D01*
X72896003Y-99106197D01*
X73124195Y-99293469D01*
X73384537Y-99432625D01*
X73667024Y-99518316D01*
X73960800Y-99547251D01*
X74254577Y-99518316D01*
X74537064Y-99432625D01*
X74797406Y-99293469D01*
X75025597Y-99106197D01*
X75212869Y-98878006D01*
X75230800Y-98844460D01*
X75248731Y-98878006D01*
X75436003Y-99106197D01*
X75664195Y-99293469D01*
X75924537Y-99432625D01*
X76207024Y-99518316D01*
X76500800Y-99547251D01*
X76794577Y-99518316D01*
X77077064Y-99432625D01*
X77337406Y-99293469D01*
X77565597Y-99106197D01*
X77752869Y-98878006D01*
X77770800Y-98844460D01*
X77788731Y-98878006D01*
X77976003Y-99106197D01*
X78204195Y-99293469D01*
X78464537Y-99432625D01*
X78747024Y-99518316D01*
X79040800Y-99547251D01*
X79334577Y-99518316D01*
X79617064Y-99432625D01*
X79877406Y-99293469D01*
X80105597Y-99106197D01*
X80292869Y-98878006D01*
X80310800Y-98844460D01*
X80328731Y-98878006D01*
X80516003Y-99106197D01*
X80744195Y-99293469D01*
X81004537Y-99432625D01*
X81287024Y-99518316D01*
X81580800Y-99547251D01*
X81874577Y-99518316D01*
X82157064Y-99432625D01*
X82417406Y-99293469D01*
X82645597Y-99106197D01*
X82832869Y-98878006D01*
X82850800Y-98844460D01*
X82868731Y-98878006D01*
X83056003Y-99106197D01*
X83284195Y-99293469D01*
X83544537Y-99432625D01*
X83827024Y-99518316D01*
X84120800Y-99547251D01*
X84414577Y-99518316D01*
X84697064Y-99432625D01*
X84957406Y-99293469D01*
X85185597Y-99106197D01*
X85372869Y-98878006D01*
X85390800Y-98844460D01*
X85408731Y-98878006D01*
X85596003Y-99106197D01*
X85824195Y-99293469D01*
X86084537Y-99432625D01*
X86367024Y-99518316D01*
X86660800Y-99547251D01*
X86954577Y-99518316D01*
X87237064Y-99432625D01*
X87497406Y-99293469D01*
X87725597Y-99106197D01*
X87912869Y-98878006D01*
X87930800Y-98844460D01*
X87948731Y-98878006D01*
X88136003Y-99106197D01*
X88364195Y-99293469D01*
X88624537Y-99432625D01*
X88907024Y-99518316D01*
X89200800Y-99547251D01*
X89494577Y-99518316D01*
X89777064Y-99432625D01*
X90037406Y-99293469D01*
X90265597Y-99106197D01*
X90452869Y-98878006D01*
X90470800Y-98844460D01*
X90488731Y-98878006D01*
X90676003Y-99106197D01*
X90904195Y-99293469D01*
X91164537Y-99432625D01*
X91447024Y-99518316D01*
X91740800Y-99547251D01*
X92034577Y-99518316D01*
X92317064Y-99432625D01*
X92577406Y-99293469D01*
X92805597Y-99106197D01*
X92992869Y-98878006D01*
X93010800Y-98844460D01*
X93028731Y-98878006D01*
X93216003Y-99106197D01*
X93444195Y-99293469D01*
X93704537Y-99432625D01*
X93987024Y-99518316D01*
X94280800Y-99547251D01*
X94574577Y-99518316D01*
X94857064Y-99432625D01*
X95117406Y-99293469D01*
X95345597Y-99106197D01*
X95532869Y-98878006D01*
X95550800Y-98844460D01*
X95568731Y-98878006D01*
X95756003Y-99106197D01*
X95984195Y-99293469D01*
X96244537Y-99432625D01*
X96527024Y-99518316D01*
X96820800Y-99547251D01*
X97114577Y-99518316D01*
X97397064Y-99432625D01*
X97657406Y-99293469D01*
X97885597Y-99106197D01*
X98072869Y-98878006D01*
X98090800Y-98844460D01*
X98108731Y-98878006D01*
X98296003Y-99106197D01*
X98524195Y-99293469D01*
X98784537Y-99432625D01*
X99067024Y-99518316D01*
X99360800Y-99547251D01*
X99654577Y-99518316D01*
X99937064Y-99432625D01*
X100197406Y-99293469D01*
X100425597Y-99106197D01*
X100612869Y-98878006D01*
X100630800Y-98844460D01*
X100648731Y-98878006D01*
X100836003Y-99106197D01*
X101064195Y-99293469D01*
X101324537Y-99432625D01*
X101607024Y-99518316D01*
X101900800Y-99547251D01*
X102194577Y-99518316D01*
X102477064Y-99432625D01*
X102737406Y-99293469D01*
X102965597Y-99106197D01*
X103152869Y-98878006D01*
X103170800Y-98844460D01*
X103188731Y-98878006D01*
X103376003Y-99106197D01*
X103604195Y-99293469D01*
X103864537Y-99432625D01*
X104147024Y-99518316D01*
X104440800Y-99547251D01*
X104734577Y-99518316D01*
X105017064Y-99432625D01*
X105277406Y-99293469D01*
X105505597Y-99106197D01*
X105692869Y-98878006D01*
X105710800Y-98844460D01*
X105728731Y-98878006D01*
X105916003Y-99106197D01*
X106144195Y-99293469D01*
X106404537Y-99432625D01*
X106687024Y-99518316D01*
X106980800Y-99547251D01*
X107274577Y-99518316D01*
X107557064Y-99432625D01*
X107817406Y-99293469D01*
X108045597Y-99106197D01*
X108232869Y-98878006D01*
X108253907Y-98838647D01*
X108345317Y-98979574D01*
X108550932Y-99190873D01*
X108793819Y-99357998D01*
X109064643Y-99474527D01*
X109161774Y-99496358D01*
X109393800Y-99375217D01*
X109393800Y-97907000D01*
X109373800Y-97907000D01*
X109373800Y-97653000D01*
X109393800Y-97653000D01*
X109393800Y-96184783D01*
X109647800Y-96184783D01*
X109647800Y-97653000D01*
X109667800Y-97653000D01*
X109667800Y-97907000D01*
X109647800Y-97907000D01*
X109647800Y-99375217D01*
X109879826Y-99496358D01*
X109976957Y-99474527D01*
X110247781Y-99357998D01*
X110490668Y-99190873D01*
X110696283Y-98979574D01*
X110787693Y-98838647D01*
X110808731Y-98878006D01*
X110996003Y-99106197D01*
X111224195Y-99293469D01*
X111484537Y-99432625D01*
X111767024Y-99518316D01*
X112060800Y-99547251D01*
X112354577Y-99518316D01*
X112637064Y-99432625D01*
X112897406Y-99293469D01*
X113125597Y-99106197D01*
X113312869Y-98878006D01*
X113356200Y-98796940D01*
X113399531Y-98878006D01*
X113586803Y-99106197D01*
X113814995Y-99293469D01*
X114075337Y-99432625D01*
X114357824Y-99518316D01*
X114651600Y-99547251D01*
X114945377Y-99518316D01*
X115227864Y-99432625D01*
X115403085Y-99338967D01*
X123065000Y-99338967D01*
X123065000Y-99661033D01*
X123127832Y-99976912D01*
X123251082Y-100274463D01*
X123430013Y-100542252D01*
X123657748Y-100769987D01*
X123925537Y-100948918D01*
X124223088Y-101072168D01*
X124538967Y-101135000D01*
X124861033Y-101135000D01*
X125176912Y-101072168D01*
X125474463Y-100948918D01*
X125742252Y-100769987D01*
X125950000Y-100562239D01*
X126157748Y-100769987D01*
X126425537Y-100948918D01*
X126723088Y-101072168D01*
X127038967Y-101135000D01*
X127361033Y-101135000D01*
X127676912Y-101072168D01*
X127974463Y-100948918D01*
X128242252Y-100769987D01*
X128450000Y-100562239D01*
X128657748Y-100769987D01*
X128925537Y-100948918D01*
X129223088Y-101072168D01*
X129538967Y-101135000D01*
X129861033Y-101135000D01*
X130176912Y-101072168D01*
X130474463Y-100948918D01*
X130742252Y-100769987D01*
X130969987Y-100542252D01*
X131148918Y-100274463D01*
X131272168Y-99976912D01*
X131335000Y-99661033D01*
X131335000Y-99338967D01*
X131272168Y-99023088D01*
X131148918Y-98725537D01*
X130969987Y-98457748D01*
X130742252Y-98230013D01*
X130474463Y-98051082D01*
X130176912Y-97927832D01*
X129861033Y-97865000D01*
X129538967Y-97865000D01*
X129223088Y-97927832D01*
X128925537Y-98051082D01*
X128657748Y-98230013D01*
X128450000Y-98437761D01*
X128242252Y-98230013D01*
X127974463Y-98051082D01*
X127676912Y-97927832D01*
X127361033Y-97865000D01*
X127038967Y-97865000D01*
X126723088Y-97927832D01*
X126425537Y-98051082D01*
X126157748Y-98230013D01*
X125950000Y-98437761D01*
X125742252Y-98230013D01*
X125474463Y-98051082D01*
X125176912Y-97927832D01*
X124861033Y-97865000D01*
X124538967Y-97865000D01*
X124223088Y-97927832D01*
X123925537Y-98051082D01*
X123657748Y-98230013D01*
X123430013Y-98457748D01*
X123251082Y-98725537D01*
X123127832Y-99023088D01*
X123065000Y-99338967D01*
X115403085Y-99338967D01*
X115488206Y-99293469D01*
X115716397Y-99106197D01*
X115903669Y-98878006D01*
X116042825Y-98617664D01*
X116128516Y-98335176D01*
X116150200Y-98115018D01*
X116150200Y-97444981D01*
X116128516Y-97224823D01*
X116042825Y-96942336D01*
X115903669Y-96681994D01*
X115716397Y-96453803D01*
X115488205Y-96266531D01*
X115227863Y-96127375D01*
X114945376Y-96041684D01*
X114651600Y-96012749D01*
X114357823Y-96041684D01*
X114075336Y-96127375D01*
X113814994Y-96266531D01*
X113586803Y-96453803D01*
X113399531Y-96681995D01*
X113356200Y-96763061D01*
X113312869Y-96681994D01*
X113125597Y-96453803D01*
X112897405Y-96266531D01*
X112637063Y-96127375D01*
X112354576Y-96041684D01*
X112060800Y-96012749D01*
X111767023Y-96041684D01*
X111484536Y-96127375D01*
X111224194Y-96266531D01*
X110996003Y-96453803D01*
X110808731Y-96681995D01*
X110787694Y-96721353D01*
X110696283Y-96580426D01*
X110490668Y-96369127D01*
X110247781Y-96202002D01*
X109976957Y-96085473D01*
X109879826Y-96063642D01*
X109647800Y-96184783D01*
X109393800Y-96184783D01*
X109161774Y-96063642D01*
X109064643Y-96085473D01*
X108793819Y-96202002D01*
X108550932Y-96369127D01*
X108345317Y-96580426D01*
X108253907Y-96721353D01*
X108232869Y-96681994D01*
X108045597Y-96453803D01*
X107817405Y-96266531D01*
X107557063Y-96127375D01*
X107274576Y-96041684D01*
X106980800Y-96012749D01*
X106687023Y-96041684D01*
X106404536Y-96127375D01*
X106144194Y-96266531D01*
X105916003Y-96453803D01*
X105728731Y-96681995D01*
X105710800Y-96715541D01*
X105692869Y-96681994D01*
X105505597Y-96453803D01*
X105277405Y-96266531D01*
X105017063Y-96127375D01*
X104734576Y-96041684D01*
X104440800Y-96012749D01*
X104147023Y-96041684D01*
X103864536Y-96127375D01*
X103604194Y-96266531D01*
X103376003Y-96453803D01*
X103188731Y-96681995D01*
X103170800Y-96715541D01*
X103152869Y-96681994D01*
X102965597Y-96453803D01*
X102737405Y-96266531D01*
X102477063Y-96127375D01*
X102194576Y-96041684D01*
X101900800Y-96012749D01*
X101607023Y-96041684D01*
X101324536Y-96127375D01*
X101064194Y-96266531D01*
X100836003Y-96453803D01*
X100648731Y-96681995D01*
X100630800Y-96715541D01*
X100612869Y-96681994D01*
X100425597Y-96453803D01*
X100197405Y-96266531D01*
X99937063Y-96127375D01*
X99654576Y-96041684D01*
X99360800Y-96012749D01*
X99067023Y-96041684D01*
X98784536Y-96127375D01*
X98524194Y-96266531D01*
X98296003Y-96453803D01*
X98108731Y-96681995D01*
X98090800Y-96715541D01*
X98072869Y-96681994D01*
X97885597Y-96453803D01*
X97657405Y-96266531D01*
X97397063Y-96127375D01*
X97114576Y-96041684D01*
X96820800Y-96012749D01*
X96527023Y-96041684D01*
X96244536Y-96127375D01*
X95984194Y-96266531D01*
X95756003Y-96453803D01*
X95568731Y-96681995D01*
X95550800Y-96715541D01*
X95532869Y-96681994D01*
X95345597Y-96453803D01*
X95117405Y-96266531D01*
X94857063Y-96127375D01*
X94574576Y-96041684D01*
X94280800Y-96012749D01*
X93987023Y-96041684D01*
X93704536Y-96127375D01*
X93444194Y-96266531D01*
X93216003Y-96453803D01*
X93028731Y-96681995D01*
X93010800Y-96715541D01*
X92992869Y-96681994D01*
X92805597Y-96453803D01*
X92577405Y-96266531D01*
X92317063Y-96127375D01*
X92034576Y-96041684D01*
X91740800Y-96012749D01*
X91447023Y-96041684D01*
X91164536Y-96127375D01*
X90904194Y-96266531D01*
X90676003Y-96453803D01*
X90488731Y-96681995D01*
X90470800Y-96715541D01*
X90452869Y-96681994D01*
X90265597Y-96453803D01*
X90037405Y-96266531D01*
X89777063Y-96127375D01*
X89494576Y-96041684D01*
X89200800Y-96012749D01*
X88907023Y-96041684D01*
X88624536Y-96127375D01*
X88364194Y-96266531D01*
X88136003Y-96453803D01*
X87948731Y-96681995D01*
X87930800Y-96715541D01*
X87912869Y-96681994D01*
X87725597Y-96453803D01*
X87497405Y-96266531D01*
X87237063Y-96127375D01*
X86954576Y-96041684D01*
X86660800Y-96012749D01*
X86367023Y-96041684D01*
X86084536Y-96127375D01*
X85824194Y-96266531D01*
X85596003Y-96453803D01*
X85408731Y-96681995D01*
X85390800Y-96715541D01*
X85372869Y-96681994D01*
X85185597Y-96453803D01*
X84957405Y-96266531D01*
X84697063Y-96127375D01*
X84414576Y-96041684D01*
X84120800Y-96012749D01*
X83827023Y-96041684D01*
X83544536Y-96127375D01*
X83284194Y-96266531D01*
X83056003Y-96453803D01*
X82868731Y-96681995D01*
X82850800Y-96715541D01*
X82832869Y-96681994D01*
X82645597Y-96453803D01*
X82417405Y-96266531D01*
X82157063Y-96127375D01*
X81874576Y-96041684D01*
X81580800Y-96012749D01*
X81287023Y-96041684D01*
X81004536Y-96127375D01*
X80744194Y-96266531D01*
X80516003Y-96453803D01*
X80328731Y-96681995D01*
X80310800Y-96715541D01*
X80292869Y-96681994D01*
X80105597Y-96453803D01*
X79877405Y-96266531D01*
X79617063Y-96127375D01*
X79334576Y-96041684D01*
X79040800Y-96012749D01*
X78747023Y-96041684D01*
X78464536Y-96127375D01*
X78204194Y-96266531D01*
X77976003Y-96453803D01*
X77788731Y-96681995D01*
X77770800Y-96715541D01*
X77752869Y-96681994D01*
X77565597Y-96453803D01*
X77337405Y-96266531D01*
X77077063Y-96127375D01*
X76794576Y-96041684D01*
X76500800Y-96012749D01*
X76207023Y-96041684D01*
X75924536Y-96127375D01*
X75664194Y-96266531D01*
X75436003Y-96453803D01*
X75248731Y-96681995D01*
X75230800Y-96715541D01*
X75212869Y-96681994D01*
X75025597Y-96453803D01*
X74797405Y-96266531D01*
X74537063Y-96127375D01*
X74254576Y-96041684D01*
X73960800Y-96012749D01*
X73667023Y-96041684D01*
X73384536Y-96127375D01*
X73124194Y-96266531D01*
X72896003Y-96453803D01*
X72708731Y-96681995D01*
X72690800Y-96715541D01*
X72672869Y-96681994D01*
X72485597Y-96453803D01*
X72257405Y-96266531D01*
X71997063Y-96127375D01*
X71714576Y-96041684D01*
X71420800Y-96012749D01*
X71127023Y-96041684D01*
X70844536Y-96127375D01*
X70584194Y-96266531D01*
X70356003Y-96453803D01*
X70168731Y-96681995D01*
X70150800Y-96715541D01*
X70132869Y-96681994D01*
X69945597Y-96453803D01*
X69717405Y-96266531D01*
X69457063Y-96127375D01*
X69174576Y-96041684D01*
X68880800Y-96012749D01*
X68587023Y-96041684D01*
X68304536Y-96127375D01*
X68044194Y-96266531D01*
X67816003Y-96453803D01*
X67628731Y-96681995D01*
X67610800Y-96715541D01*
X67592869Y-96681994D01*
X67405597Y-96453803D01*
X67177405Y-96266531D01*
X66917063Y-96127375D01*
X66634576Y-96041684D01*
X66340800Y-96012749D01*
X66047023Y-96041684D01*
X65764536Y-96127375D01*
X65504194Y-96266531D01*
X65276003Y-96453803D01*
X65088731Y-96681995D01*
X64949575Y-96942337D01*
X64863884Y-97224824D01*
X64842200Y-97444982D01*
X42574335Y-97444982D01*
X42312078Y-97182725D01*
X41718029Y-96785794D01*
X41057957Y-96512383D01*
X40357228Y-96373000D01*
X39642772Y-96373000D01*
X38942043Y-96512383D01*
X38281971Y-96785794D01*
X37687922Y-97182725D01*
X37182725Y-97687922D01*
X36785794Y-98281971D01*
X36660000Y-98585664D01*
X36660000Y-93862408D01*
X37863000Y-93862408D01*
X37863000Y-94137592D01*
X37916686Y-94407490D01*
X38021995Y-94661727D01*
X38174880Y-94890535D01*
X38369465Y-95085120D01*
X38598273Y-95238005D01*
X38852510Y-95343314D01*
X39122408Y-95397000D01*
X39397592Y-95397000D01*
X39667490Y-95343314D01*
X39921727Y-95238005D01*
X40150535Y-95085120D01*
X40345120Y-94890535D01*
X40498005Y-94661727D01*
X40603314Y-94407490D01*
X40657000Y-94137592D01*
X40657000Y-93862408D01*
X55863000Y-93862408D01*
X55863000Y-94137592D01*
X55916686Y-94407490D01*
X56021995Y-94661727D01*
X56174880Y-94890535D01*
X56369465Y-95085120D01*
X56598273Y-95238005D01*
X56852510Y-95343314D01*
X57122408Y-95397000D01*
X57397592Y-95397000D01*
X57667490Y-95343314D01*
X57921727Y-95238005D01*
X58150535Y-95085120D01*
X58345120Y-94890535D01*
X58498005Y-94661727D01*
X58603314Y-94407490D01*
X58657000Y-94137592D01*
X58657000Y-93862408D01*
X58603314Y-93592510D01*
X58498005Y-93338273D01*
X58345120Y-93109465D01*
X58150535Y-92914880D01*
X57921727Y-92761995D01*
X57667490Y-92656686D01*
X57397592Y-92603000D01*
X57122408Y-92603000D01*
X56852510Y-92656686D01*
X56598273Y-92761995D01*
X56369465Y-92914880D01*
X56174880Y-93109465D01*
X56021995Y-93338273D01*
X55916686Y-93592510D01*
X55863000Y-93862408D01*
X40657000Y-93862408D01*
X40603314Y-93592510D01*
X40498005Y-93338273D01*
X40345120Y-93109465D01*
X40150535Y-92914880D01*
X39921727Y-92761995D01*
X39667490Y-92656686D01*
X39397592Y-92603000D01*
X39122408Y-92603000D01*
X38852510Y-92656686D01*
X38598273Y-92761995D01*
X38369465Y-92914880D01*
X38174880Y-93109465D01*
X38021995Y-93338273D01*
X37916686Y-93592510D01*
X37863000Y-93862408D01*
X36660000Y-93862408D01*
X36660000Y-82204981D01*
X64842200Y-82204981D01*
X64842200Y-82875018D01*
X64863884Y-83095176D01*
X64949575Y-83377663D01*
X65088731Y-83638005D01*
X65276003Y-83866197D01*
X65504194Y-84053469D01*
X65764536Y-84192625D01*
X66047023Y-84278316D01*
X66340800Y-84307251D01*
X66634576Y-84278316D01*
X66917063Y-84192625D01*
X67177405Y-84053469D01*
X67405597Y-83866197D01*
X67592869Y-83638006D01*
X67610800Y-83604459D01*
X67628731Y-83638005D01*
X67816003Y-83866197D01*
X68044194Y-84053469D01*
X68304536Y-84192625D01*
X68587023Y-84278316D01*
X68880800Y-84307251D01*
X69174576Y-84278316D01*
X69457063Y-84192625D01*
X69717405Y-84053469D01*
X69945597Y-83866197D01*
X70132869Y-83638006D01*
X70150800Y-83604459D01*
X70168731Y-83638005D01*
X70356003Y-83866197D01*
X70584194Y-84053469D01*
X70844536Y-84192625D01*
X71127023Y-84278316D01*
X71420800Y-84307251D01*
X71714576Y-84278316D01*
X71997063Y-84192625D01*
X72257405Y-84053469D01*
X72485597Y-83866197D01*
X72672869Y-83638006D01*
X72690800Y-83604459D01*
X72708731Y-83638005D01*
X72896003Y-83866197D01*
X73124194Y-84053469D01*
X73384536Y-84192625D01*
X73667023Y-84278316D01*
X73960800Y-84307251D01*
X74254576Y-84278316D01*
X74537063Y-84192625D01*
X74797405Y-84053469D01*
X75025597Y-83866197D01*
X75212869Y-83638006D01*
X75230800Y-83604459D01*
X75248731Y-83638005D01*
X75436003Y-83866197D01*
X75664194Y-84053469D01*
X75924536Y-84192625D01*
X76207023Y-84278316D01*
X76500800Y-84307251D01*
X76794576Y-84278316D01*
X77077063Y-84192625D01*
X77337405Y-84053469D01*
X77565597Y-83866197D01*
X77752869Y-83638006D01*
X77770800Y-83604459D01*
X77788731Y-83638005D01*
X77976003Y-83866197D01*
X78204194Y-84053469D01*
X78464536Y-84192625D01*
X78747023Y-84278316D01*
X79040800Y-84307251D01*
X79334576Y-84278316D01*
X79617063Y-84192625D01*
X79877405Y-84053469D01*
X80105597Y-83866197D01*
X80292869Y-83638006D01*
X80310800Y-83604459D01*
X80328731Y-83638005D01*
X80516003Y-83866197D01*
X80744194Y-84053469D01*
X81004536Y-84192625D01*
X81287023Y-84278316D01*
X81580800Y-84307251D01*
X81874576Y-84278316D01*
X82157063Y-84192625D01*
X82417405Y-84053469D01*
X82645597Y-83866197D01*
X82832869Y-83638006D01*
X82850800Y-83604459D01*
X82868731Y-83638005D01*
X83056003Y-83866197D01*
X83284194Y-84053469D01*
X83544536Y-84192625D01*
X83827023Y-84278316D01*
X84120800Y-84307251D01*
X84414576Y-84278316D01*
X84697063Y-84192625D01*
X84957405Y-84053469D01*
X85185597Y-83866197D01*
X85372869Y-83638006D01*
X85390800Y-83604459D01*
X85408731Y-83638005D01*
X85596003Y-83866197D01*
X85824194Y-84053469D01*
X86084536Y-84192625D01*
X86367023Y-84278316D01*
X86660800Y-84307251D01*
X86954576Y-84278316D01*
X87237063Y-84192625D01*
X87497405Y-84053469D01*
X87725597Y-83866197D01*
X87912869Y-83638006D01*
X87930800Y-83604459D01*
X87948731Y-83638005D01*
X88136003Y-83866197D01*
X88364194Y-84053469D01*
X88624536Y-84192625D01*
X88907023Y-84278316D01*
X89200800Y-84307251D01*
X89494576Y-84278316D01*
X89777063Y-84192625D01*
X90037405Y-84053469D01*
X90265597Y-83866197D01*
X90452869Y-83638006D01*
X90470800Y-83604459D01*
X90488731Y-83638005D01*
X90676003Y-83866197D01*
X90904194Y-84053469D01*
X91164536Y-84192625D01*
X91447023Y-84278316D01*
X91740800Y-84307251D01*
X92034576Y-84278316D01*
X92317063Y-84192625D01*
X92577405Y-84053469D01*
X92805597Y-83866197D01*
X92992869Y-83638006D01*
X93010800Y-83604459D01*
X93028731Y-83638005D01*
X93216003Y-83866197D01*
X93444194Y-84053469D01*
X93704536Y-84192625D01*
X93987023Y-84278316D01*
X94280800Y-84307251D01*
X94574576Y-84278316D01*
X94857063Y-84192625D01*
X95117405Y-84053469D01*
X95345597Y-83866197D01*
X95532869Y-83638006D01*
X95550800Y-83604459D01*
X95568731Y-83638005D01*
X95756003Y-83866197D01*
X95984194Y-84053469D01*
X96244536Y-84192625D01*
X96527023Y-84278316D01*
X96820800Y-84307251D01*
X97114576Y-84278316D01*
X97397063Y-84192625D01*
X97657405Y-84053469D01*
X97885597Y-83866197D01*
X98072869Y-83638006D01*
X98090800Y-83604459D01*
X98108731Y-83638005D01*
X98296003Y-83866197D01*
X98524194Y-84053469D01*
X98784536Y-84192625D01*
X99067023Y-84278316D01*
X99270086Y-84298316D01*
X100574116Y-85602346D01*
X100597978Y-85631422D01*
X100671619Y-85691857D01*
X100714007Y-85726645D01*
X100784764Y-85764465D01*
X100846385Y-85797402D01*
X100990022Y-85840974D01*
X101101974Y-85852000D01*
X101101977Y-85852000D01*
X101139400Y-85855686D01*
X101176823Y-85852000D01*
X106536928Y-85852000D01*
X106536928Y-87285000D01*
X106549188Y-87409482D01*
X106585498Y-87529180D01*
X106644463Y-87639494D01*
X106723815Y-87736185D01*
X106820506Y-87815537D01*
X106930820Y-87874502D01*
X106999687Y-87895393D01*
X106969866Y-87919866D01*
X106784294Y-88145986D01*
X106646401Y-88403966D01*
X106561487Y-88683889D01*
X106532815Y-88975000D01*
X106561487Y-89266111D01*
X106646401Y-89546034D01*
X106784294Y-89804014D01*
X106969866Y-90030134D01*
X107195986Y-90215706D01*
X107250791Y-90245000D01*
X107195986Y-90274294D01*
X106969866Y-90459866D01*
X106784294Y-90685986D01*
X106646401Y-90943966D01*
X106561487Y-91223889D01*
X106532815Y-91515000D01*
X106561487Y-91806111D01*
X106646401Y-92086034D01*
X106784294Y-92344014D01*
X106969866Y-92570134D01*
X107195986Y-92755706D01*
X107250791Y-92785000D01*
X107195986Y-92814294D01*
X106969866Y-92999866D01*
X106784294Y-93225986D01*
X106646401Y-93483966D01*
X106561487Y-93763889D01*
X106532815Y-94055000D01*
X106561487Y-94346111D01*
X106646401Y-94626034D01*
X106784294Y-94884014D01*
X106969866Y-95110134D01*
X107195986Y-95295706D01*
X107453966Y-95433599D01*
X107733889Y-95518513D01*
X107952050Y-95540000D01*
X108097950Y-95540000D01*
X108316111Y-95518513D01*
X108596034Y-95433599D01*
X108854014Y-95295706D01*
X109080134Y-95110134D01*
X109265706Y-94884014D01*
X109352034Y-94722506D01*
X109402331Y-94816606D01*
X109589603Y-95044797D01*
X109817794Y-95232069D01*
X110078136Y-95371225D01*
X110360623Y-95456916D01*
X110580781Y-95478600D01*
X111000819Y-95478600D01*
X111220977Y-95456916D01*
X111503464Y-95371225D01*
X111763806Y-95232069D01*
X111991997Y-95044797D01*
X112179269Y-94816606D01*
X112318425Y-94556264D01*
X112404116Y-94273777D01*
X112433051Y-93980000D01*
X112404116Y-93686223D01*
X112318425Y-93403736D01*
X112179269Y-93143394D01*
X111991997Y-92915203D01*
X111763806Y-92727931D01*
X111730260Y-92710000D01*
X111763806Y-92692069D01*
X111991997Y-92504797D01*
X112179269Y-92276606D01*
X112318425Y-92016264D01*
X112404116Y-91733777D01*
X112433051Y-91440000D01*
X112404116Y-91146223D01*
X112318425Y-90863736D01*
X112179269Y-90603394D01*
X111991997Y-90375203D01*
X111778513Y-90200000D01*
X119461928Y-90200000D01*
X119461928Y-93800000D01*
X119474188Y-93924482D01*
X119510498Y-94044180D01*
X119569463Y-94154494D01*
X119648815Y-94251185D01*
X119745506Y-94330537D01*
X119855820Y-94389502D01*
X119975518Y-94425812D01*
X120100000Y-94438072D01*
X122900000Y-94438072D01*
X123024482Y-94425812D01*
X123144180Y-94389502D01*
X123254494Y-94330537D01*
X123351185Y-94251185D01*
X123430537Y-94154494D01*
X123489502Y-94044180D01*
X123525812Y-93924482D01*
X123538072Y-93800000D01*
X123538072Y-90200000D01*
X130861928Y-90200000D01*
X130861928Y-93800000D01*
X130874188Y-93924482D01*
X130910498Y-94044180D01*
X130969463Y-94154494D01*
X131048815Y-94251185D01*
X131145506Y-94330537D01*
X131255820Y-94389502D01*
X131375518Y-94425812D01*
X131500000Y-94438072D01*
X134300000Y-94438072D01*
X134424482Y-94425812D01*
X134544180Y-94389502D01*
X134654494Y-94330537D01*
X134751185Y-94251185D01*
X134830537Y-94154494D01*
X134889502Y-94044180D01*
X134925812Y-93924482D01*
X134938072Y-93800000D01*
X134938072Y-92215475D01*
X155525000Y-92215475D01*
X155525000Y-92734525D01*
X155626261Y-93243601D01*
X155824893Y-93723141D01*
X156113262Y-94154715D01*
X156480285Y-94521738D01*
X156911859Y-94810107D01*
X157391399Y-95008739D01*
X157900475Y-95110000D01*
X158419525Y-95110000D01*
X158928601Y-95008739D01*
X159408141Y-94810107D01*
X159839715Y-94521738D01*
X160206738Y-94154715D01*
X160495107Y-93723141D01*
X160693739Y-93243601D01*
X160795000Y-92734525D01*
X160795000Y-92215475D01*
X164325000Y-92215475D01*
X164325000Y-92734525D01*
X164426261Y-93243601D01*
X164624893Y-93723141D01*
X164913262Y-94154715D01*
X165280285Y-94521738D01*
X165711859Y-94810107D01*
X166191399Y-95008739D01*
X166700475Y-95110000D01*
X167219525Y-95110000D01*
X167728601Y-95008739D01*
X168208141Y-94810107D01*
X168639715Y-94521738D01*
X169006738Y-94154715D01*
X169295107Y-93723141D01*
X169493739Y-93243601D01*
X169595000Y-92734525D01*
X169595000Y-92215475D01*
X169493739Y-91706399D01*
X169295107Y-91226859D01*
X169006738Y-90795285D01*
X168639715Y-90428262D01*
X168208141Y-90139893D01*
X167728601Y-89941261D01*
X167219525Y-89840000D01*
X166700475Y-89840000D01*
X166191399Y-89941261D01*
X165711859Y-90139893D01*
X165280285Y-90428262D01*
X164913262Y-90795285D01*
X164624893Y-91226859D01*
X164426261Y-91706399D01*
X164325000Y-92215475D01*
X160795000Y-92215475D01*
X160693739Y-91706399D01*
X160495107Y-91226859D01*
X160206738Y-90795285D01*
X159839715Y-90428262D01*
X159408141Y-90139893D01*
X158928601Y-89941261D01*
X158419525Y-89840000D01*
X157900475Y-89840000D01*
X157391399Y-89941261D01*
X156911859Y-90139893D01*
X156480285Y-90428262D01*
X156113262Y-90795285D01*
X155824893Y-91226859D01*
X155626261Y-91706399D01*
X155525000Y-92215475D01*
X134938072Y-92215475D01*
X134938072Y-90200000D01*
X134925812Y-90075518D01*
X134889502Y-89955820D01*
X134830537Y-89845506D01*
X134751185Y-89748815D01*
X134654494Y-89669463D01*
X134544180Y-89610498D01*
X134424482Y-89574188D01*
X134300000Y-89561928D01*
X131500000Y-89561928D01*
X131375518Y-89574188D01*
X131255820Y-89610498D01*
X131145506Y-89669463D01*
X131048815Y-89748815D01*
X130969463Y-89845506D01*
X130910498Y-89955820D01*
X130874188Y-90075518D01*
X130861928Y-90200000D01*
X123538072Y-90200000D01*
X123525812Y-90075518D01*
X123489502Y-89955820D01*
X123430537Y-89845506D01*
X123351185Y-89748815D01*
X123254494Y-89669463D01*
X123144180Y-89610498D01*
X123024482Y-89574188D01*
X122900000Y-89561928D01*
X120100000Y-89561928D01*
X119975518Y-89574188D01*
X119855820Y-89610498D01*
X119745506Y-89669463D01*
X119648815Y-89748815D01*
X119569463Y-89845506D01*
X119510498Y-89955820D01*
X119474188Y-90075518D01*
X119461928Y-90200000D01*
X111778513Y-90200000D01*
X111763806Y-90187931D01*
X111722634Y-90165924D01*
X111769814Y-90140706D01*
X111995934Y-89955134D01*
X112181506Y-89729014D01*
X112319399Y-89471034D01*
X112404313Y-89191111D01*
X112432985Y-88900000D01*
X112404313Y-88608889D01*
X112319399Y-88328966D01*
X112181506Y-88070986D01*
X111995934Y-87844866D01*
X111769814Y-87659294D01*
X111722634Y-87634076D01*
X111763806Y-87612069D01*
X111991997Y-87424797D01*
X112179269Y-87196606D01*
X112318425Y-86936264D01*
X112404116Y-86653777D01*
X112433051Y-86360000D01*
X112404116Y-86066223D01*
X112339133Y-85852000D01*
X119417426Y-85852000D01*
X119529378Y-85840974D01*
X119576763Y-85826600D01*
X120873817Y-85826600D01*
X120910000Y-85830164D01*
X120946183Y-85826600D01*
X120946186Y-85826600D01*
X121054399Y-85815942D01*
X121193249Y-85773822D01*
X121321213Y-85705424D01*
X121433375Y-85613375D01*
X121456446Y-85585263D01*
X122202742Y-84838967D01*
X123065000Y-84838967D01*
X123065000Y-85161033D01*
X123127832Y-85476912D01*
X123251082Y-85774463D01*
X123430013Y-86042252D01*
X123657748Y-86269987D01*
X123925537Y-86448918D01*
X124223088Y-86572168D01*
X124538967Y-86635000D01*
X124861033Y-86635000D01*
X125176912Y-86572168D01*
X125474463Y-86448918D01*
X125742252Y-86269987D01*
X125969987Y-86042252D01*
X126148918Y-85774463D01*
X126272168Y-85476912D01*
X126335000Y-85161033D01*
X126335000Y-84838967D01*
X128065000Y-84838967D01*
X128065000Y-85161033D01*
X128127832Y-85476912D01*
X128251082Y-85774463D01*
X128430013Y-86042252D01*
X128657748Y-86269987D01*
X128925537Y-86448918D01*
X129223088Y-86572168D01*
X129538967Y-86635000D01*
X129861033Y-86635000D01*
X130176912Y-86572168D01*
X130474463Y-86448918D01*
X130742252Y-86269987D01*
X130969987Y-86042252D01*
X131148918Y-85774463D01*
X131272168Y-85476912D01*
X131335000Y-85161033D01*
X131335000Y-84838967D01*
X131272168Y-84523088D01*
X131148918Y-84225537D01*
X130969987Y-83957748D01*
X130742252Y-83730013D01*
X130474463Y-83551082D01*
X130176912Y-83427832D01*
X129861033Y-83365000D01*
X129538967Y-83365000D01*
X129223088Y-83427832D01*
X128925537Y-83551082D01*
X128657748Y-83730013D01*
X128430013Y-83957748D01*
X128251082Y-84225537D01*
X128127832Y-84523088D01*
X128065000Y-84838967D01*
X126335000Y-84838967D01*
X126272168Y-84523088D01*
X126148918Y-84225537D01*
X125969987Y-83957748D01*
X125742252Y-83730013D01*
X125474463Y-83551082D01*
X125176912Y-83427832D01*
X124861033Y-83365000D01*
X124538967Y-83365000D01*
X124223088Y-83427832D01*
X123925537Y-83551082D01*
X123657748Y-83730013D01*
X123430013Y-83957748D01*
X123251082Y-84225537D01*
X123127832Y-84523088D01*
X123065000Y-84838967D01*
X122202742Y-84838967D01*
X124604301Y-82437408D01*
X137053000Y-82437408D01*
X137053000Y-82712592D01*
X137106686Y-82982490D01*
X137211995Y-83236727D01*
X137364880Y-83465535D01*
X137559465Y-83660120D01*
X137788273Y-83813005D01*
X138042510Y-83918314D01*
X138312408Y-83972000D01*
X138587592Y-83972000D01*
X138857490Y-83918314D01*
X139111727Y-83813005D01*
X139340535Y-83660120D01*
X139535120Y-83465535D01*
X139688005Y-83236727D01*
X139710000Y-83183627D01*
X139731995Y-83236727D01*
X139884880Y-83465535D01*
X140079465Y-83660120D01*
X140308273Y-83813005D01*
X140562510Y-83918314D01*
X140832408Y-83972000D01*
X141107592Y-83972000D01*
X141377490Y-83918314D01*
X141631727Y-83813005D01*
X141860535Y-83660120D01*
X142055120Y-83465535D01*
X142208005Y-83236727D01*
X142313314Y-82982490D01*
X142367000Y-82712592D01*
X142367000Y-82437408D01*
X149733000Y-82437408D01*
X149733000Y-82712592D01*
X149786686Y-82982490D01*
X149891995Y-83236727D01*
X150044880Y-83465535D01*
X150239465Y-83660120D01*
X150468273Y-83813005D01*
X150722510Y-83918314D01*
X150992408Y-83972000D01*
X151267592Y-83972000D01*
X151537490Y-83918314D01*
X151791727Y-83813005D01*
X152020535Y-83660120D01*
X152215120Y-83465535D01*
X152368005Y-83236727D01*
X152400000Y-83159485D01*
X152431995Y-83236727D01*
X152584880Y-83465535D01*
X152779465Y-83660120D01*
X153008273Y-83813005D01*
X153262510Y-83918314D01*
X153532408Y-83972000D01*
X153807592Y-83972000D01*
X154077490Y-83918314D01*
X154331727Y-83813005D01*
X154560535Y-83660120D01*
X154755120Y-83465535D01*
X154908005Y-83236727D01*
X155013314Y-82982490D01*
X155067000Y-82712592D01*
X155067000Y-82437408D01*
X155013314Y-82167510D01*
X154908005Y-81913273D01*
X154755120Y-81684465D01*
X154560535Y-81489880D01*
X154331727Y-81336995D01*
X154077490Y-81231686D01*
X153807592Y-81178000D01*
X153532408Y-81178000D01*
X153262510Y-81231686D01*
X153008273Y-81336995D01*
X152779465Y-81489880D01*
X152584880Y-81684465D01*
X152431995Y-81913273D01*
X152400000Y-81990515D01*
X152368005Y-81913273D01*
X152215120Y-81684465D01*
X152020535Y-81489880D01*
X151791727Y-81336995D01*
X151537490Y-81231686D01*
X151267592Y-81178000D01*
X150992408Y-81178000D01*
X150722510Y-81231686D01*
X150468273Y-81336995D01*
X150239465Y-81489880D01*
X150044880Y-81684465D01*
X149891995Y-81913273D01*
X149786686Y-82167510D01*
X149733000Y-82437408D01*
X142367000Y-82437408D01*
X142313314Y-82167510D01*
X142208005Y-81913273D01*
X142055120Y-81684465D01*
X141860535Y-81489880D01*
X141631727Y-81336995D01*
X141377490Y-81231686D01*
X141107592Y-81178000D01*
X140832408Y-81178000D01*
X140562510Y-81231686D01*
X140308273Y-81336995D01*
X140079465Y-81489880D01*
X139884880Y-81684465D01*
X139731995Y-81913273D01*
X139710000Y-81966373D01*
X139688005Y-81913273D01*
X139535120Y-81684465D01*
X139340535Y-81489880D01*
X139111727Y-81336995D01*
X138857490Y-81231686D01*
X138587592Y-81178000D01*
X138312408Y-81178000D01*
X138042510Y-81231686D01*
X137788273Y-81336995D01*
X137559465Y-81489880D01*
X137364880Y-81684465D01*
X137211995Y-81913273D01*
X137106686Y-82167510D01*
X137053000Y-82437408D01*
X124604301Y-82437408D01*
X124881725Y-82159985D01*
X124925392Y-82136645D01*
X125012351Y-82065279D01*
X125852351Y-81225280D01*
X125881422Y-81201422D01*
X125976645Y-81085392D01*
X126047402Y-80953015D01*
X126090974Y-80809378D01*
X126102000Y-80697426D01*
X126102000Y-80697424D01*
X126105686Y-80660001D01*
X126102000Y-80622578D01*
X126102000Y-80219832D01*
X126141101Y-80198932D01*
X126359608Y-80019608D01*
X126538932Y-79801101D01*
X126672182Y-79551808D01*
X126754236Y-79281309D01*
X126781943Y-79000000D01*
X126768023Y-78858665D01*
X134065000Y-78858665D01*
X134065000Y-79141335D01*
X134120147Y-79418574D01*
X134228320Y-79679727D01*
X134385363Y-79914759D01*
X134585241Y-80114637D01*
X134820273Y-80271680D01*
X135081426Y-80379853D01*
X135358665Y-80435000D01*
X135641335Y-80435000D01*
X135918574Y-80379853D01*
X136179727Y-80271680D01*
X136414759Y-80114637D01*
X136614637Y-79914759D01*
X136771680Y-79679727D01*
X136879853Y-79418574D01*
X136935000Y-79141335D01*
X136935000Y-78858665D01*
X136879853Y-78581426D01*
X136771680Y-78320273D01*
X136614637Y-78085241D01*
X136414759Y-77885363D01*
X136179727Y-77728320D01*
X135918574Y-77620147D01*
X135641335Y-77565000D01*
X135358665Y-77565000D01*
X135081426Y-77620147D01*
X134820273Y-77728320D01*
X134585241Y-77885363D01*
X134385363Y-78085241D01*
X134228320Y-78320273D01*
X134120147Y-78581426D01*
X134065000Y-78858665D01*
X126768023Y-78858665D01*
X126754236Y-78718691D01*
X126672182Y-78448192D01*
X126538932Y-78198899D01*
X126359608Y-77980392D01*
X126141101Y-77801068D01*
X125891808Y-77667818D01*
X125621309Y-77585764D01*
X125410492Y-77565000D01*
X125269508Y-77565000D01*
X125058691Y-77585764D01*
X124788192Y-77667818D01*
X124538899Y-77801068D01*
X124320392Y-77980392D01*
X124141068Y-78198899D01*
X124007818Y-78448192D01*
X123925764Y-78718691D01*
X123898057Y-79000000D01*
X123925764Y-79281309D01*
X124007818Y-79551808D01*
X124141068Y-79801101D01*
X124320392Y-80019608D01*
X124538899Y-80198932D01*
X124578001Y-80219832D01*
X124578001Y-80344368D01*
X124111100Y-80811270D01*
X124048788Y-80844576D01*
X123936626Y-80936626D01*
X123844576Y-81048788D01*
X123776178Y-81176753D01*
X123773845Y-81184446D01*
X120604891Y-84353400D01*
X119576763Y-84353400D01*
X119529378Y-84339026D01*
X119417426Y-84328000D01*
X101455030Y-84328000D01*
X101314050Y-84187020D01*
X101324536Y-84192625D01*
X101607023Y-84278316D01*
X101900800Y-84307251D01*
X102194576Y-84278316D01*
X102477063Y-84192625D01*
X102737405Y-84053469D01*
X102965597Y-83866197D01*
X103152869Y-83638006D01*
X103170800Y-83604459D01*
X103188731Y-83638005D01*
X103376003Y-83866197D01*
X103604194Y-84053469D01*
X103864536Y-84192625D01*
X104147023Y-84278316D01*
X104440800Y-84307251D01*
X104734576Y-84278316D01*
X105017063Y-84192625D01*
X105277405Y-84053469D01*
X105505597Y-83866197D01*
X105692869Y-83638006D01*
X105710800Y-83604459D01*
X105728731Y-83638005D01*
X105916003Y-83866197D01*
X106144194Y-84053469D01*
X106404536Y-84192625D01*
X106687023Y-84278316D01*
X106980800Y-84307251D01*
X107274576Y-84278316D01*
X107557063Y-84192625D01*
X107817405Y-84053469D01*
X108045597Y-83866197D01*
X108232869Y-83638006D01*
X108250800Y-83604459D01*
X108268731Y-83638005D01*
X108456003Y-83866197D01*
X108684194Y-84053469D01*
X108944536Y-84192625D01*
X109227023Y-84278316D01*
X109520800Y-84307251D01*
X109814576Y-84278316D01*
X110097063Y-84192625D01*
X110357405Y-84053469D01*
X110585597Y-83866197D01*
X110772869Y-83638006D01*
X110790800Y-83604459D01*
X110808731Y-83638005D01*
X110996003Y-83866197D01*
X111224194Y-84053469D01*
X111484536Y-84192625D01*
X111767023Y-84278316D01*
X112060800Y-84307251D01*
X112354576Y-84278316D01*
X112637063Y-84192625D01*
X112897405Y-84053469D01*
X113125597Y-83866197D01*
X113132214Y-83858135D01*
X113147698Y-83909180D01*
X113206663Y-84019494D01*
X113286015Y-84116185D01*
X113382706Y-84195537D01*
X113493020Y-84254502D01*
X113612718Y-84290812D01*
X113737200Y-84303072D01*
X115464400Y-84303072D01*
X115588882Y-84290812D01*
X115708580Y-84254502D01*
X115818894Y-84195537D01*
X115915585Y-84116185D01*
X115994937Y-84019494D01*
X116053902Y-83909180D01*
X116090212Y-83789482D01*
X116102472Y-83665000D01*
X116102472Y-81415000D01*
X116090212Y-81290518D01*
X116053902Y-81170820D01*
X115994937Y-81060506D01*
X115915585Y-80963815D01*
X115818894Y-80884463D01*
X115708580Y-80825498D01*
X115588882Y-80789188D01*
X115464400Y-80776928D01*
X113737200Y-80776928D01*
X113612718Y-80789188D01*
X113493020Y-80825498D01*
X113382706Y-80884463D01*
X113286015Y-80963815D01*
X113206663Y-81060506D01*
X113147698Y-81170820D01*
X113132214Y-81221865D01*
X113125597Y-81213803D01*
X112897406Y-81026531D01*
X112637064Y-80887375D01*
X112354577Y-80801684D01*
X112060800Y-80772749D01*
X111767024Y-80801684D01*
X111484537Y-80887375D01*
X111224195Y-81026531D01*
X110996003Y-81213803D01*
X110808731Y-81441994D01*
X110790800Y-81475540D01*
X110772869Y-81441994D01*
X110585597Y-81213803D01*
X110357406Y-81026531D01*
X110097064Y-80887375D01*
X109814577Y-80801684D01*
X109520800Y-80772749D01*
X109227024Y-80801684D01*
X108944537Y-80887375D01*
X108684195Y-81026531D01*
X108456003Y-81213803D01*
X108268731Y-81441994D01*
X108250800Y-81475540D01*
X108232869Y-81441994D01*
X108045597Y-81213803D01*
X107817406Y-81026531D01*
X107557064Y-80887375D01*
X107274577Y-80801684D01*
X106980800Y-80772749D01*
X106687024Y-80801684D01*
X106404537Y-80887375D01*
X106144195Y-81026531D01*
X105916003Y-81213803D01*
X105728731Y-81441994D01*
X105710800Y-81475540D01*
X105692869Y-81441994D01*
X105505597Y-81213803D01*
X105277406Y-81026531D01*
X105017064Y-80887375D01*
X104734577Y-80801684D01*
X104440800Y-80772749D01*
X104147024Y-80801684D01*
X103864537Y-80887375D01*
X103604195Y-81026531D01*
X103376003Y-81213803D01*
X103188731Y-81441994D01*
X103170800Y-81475540D01*
X103152869Y-81441994D01*
X102965597Y-81213803D01*
X102737406Y-81026531D01*
X102477064Y-80887375D01*
X102362000Y-80852471D01*
X102362000Y-79741263D01*
X117873000Y-79741263D01*
X117873000Y-80258737D01*
X117973954Y-80766268D01*
X118171983Y-81244351D01*
X118459476Y-81674615D01*
X118825385Y-82040524D01*
X119255649Y-82328017D01*
X119733732Y-82526046D01*
X120241263Y-82627000D01*
X120758737Y-82627000D01*
X121266268Y-82526046D01*
X121744351Y-82328017D01*
X122174615Y-82040524D01*
X122540524Y-81674615D01*
X122828017Y-81244351D01*
X123026046Y-80766268D01*
X123127000Y-80258737D01*
X123127000Y-79741263D01*
X123026046Y-79233732D01*
X122828017Y-78755649D01*
X122540524Y-78325385D01*
X122174615Y-77959476D01*
X121744351Y-77671983D01*
X121266268Y-77473954D01*
X120758737Y-77373000D01*
X120241263Y-77373000D01*
X119733732Y-77473954D01*
X119255649Y-77671983D01*
X118825385Y-77959476D01*
X118459476Y-78325385D01*
X118171983Y-78755649D01*
X117973954Y-79233732D01*
X117873000Y-79741263D01*
X102362000Y-79741263D01*
X102362000Y-76819761D01*
X102466604Y-76663210D01*
X102540320Y-76485243D01*
X102577900Y-76296315D01*
X102577900Y-76103685D01*
X102540320Y-75914757D01*
X102466604Y-75736790D01*
X102359585Y-75576625D01*
X102223375Y-75440415D01*
X102063210Y-75333396D01*
X101885243Y-75259680D01*
X101696315Y-75222100D01*
X101503685Y-75222100D01*
X101314757Y-75259680D01*
X101136790Y-75333396D01*
X100976625Y-75440415D01*
X100840415Y-75576625D01*
X100733396Y-75736790D01*
X100659680Y-75914757D01*
X100622100Y-76103685D01*
X100622100Y-76296315D01*
X100659680Y-76485243D01*
X100733396Y-76663210D01*
X100838000Y-76819761D01*
X100838001Y-81212163D01*
X100836003Y-81213803D01*
X100648731Y-81441994D01*
X100630800Y-81475540D01*
X100612869Y-81441994D01*
X100425597Y-81213803D01*
X100197406Y-81026531D01*
X99937064Y-80887375D01*
X99654577Y-80801684D01*
X99360800Y-80772749D01*
X99067024Y-80801684D01*
X98784537Y-80887375D01*
X98524195Y-81026531D01*
X98296003Y-81213803D01*
X98108731Y-81441994D01*
X98090800Y-81475540D01*
X98072869Y-81441994D01*
X97885597Y-81213803D01*
X97657406Y-81026531D01*
X97397064Y-80887375D01*
X97114577Y-80801684D01*
X96820800Y-80772749D01*
X96527024Y-80801684D01*
X96244537Y-80887375D01*
X95984195Y-81026531D01*
X95756003Y-81213803D01*
X95568731Y-81441994D01*
X95550800Y-81475540D01*
X95532869Y-81441994D01*
X95345597Y-81213803D01*
X95117406Y-81026531D01*
X94857064Y-80887375D01*
X94574577Y-80801684D01*
X94492800Y-80793630D01*
X94492800Y-69144830D01*
X111017630Y-52620000D01*
X132872749Y-52620000D01*
X132901684Y-52913777D01*
X132987375Y-53196264D01*
X133126531Y-53456606D01*
X133313803Y-53684797D01*
X133541994Y-53872069D01*
X133575540Y-53890000D01*
X133541994Y-53907931D01*
X133313803Y-54095203D01*
X133126531Y-54323394D01*
X132987375Y-54583736D01*
X132901684Y-54866223D01*
X132872749Y-55160000D01*
X132901684Y-55453777D01*
X132987375Y-55736264D01*
X133126531Y-55996606D01*
X133313803Y-56224797D01*
X133541994Y-56412069D01*
X133575540Y-56430000D01*
X133541994Y-56447931D01*
X133313803Y-56635203D01*
X133126531Y-56863394D01*
X132987375Y-57123736D01*
X132901684Y-57406223D01*
X132872749Y-57700000D01*
X132901684Y-57993777D01*
X132987375Y-58276264D01*
X133126531Y-58536606D01*
X133313803Y-58764797D01*
X133541994Y-58952069D01*
X133575540Y-58970000D01*
X133541994Y-58987931D01*
X133313803Y-59175203D01*
X133126531Y-59403394D01*
X132987375Y-59663736D01*
X132901684Y-59946223D01*
X132872749Y-60240000D01*
X132901684Y-60533777D01*
X132987375Y-60816264D01*
X133126531Y-61076606D01*
X133313803Y-61304797D01*
X133541994Y-61492069D01*
X133802336Y-61631225D01*
X134084823Y-61716916D01*
X134304981Y-61738600D01*
X134975019Y-61738600D01*
X135195177Y-61716916D01*
X135477664Y-61631225D01*
X135738006Y-61492069D01*
X135966197Y-61304797D01*
X136153469Y-61076606D01*
X136292625Y-60816264D01*
X136378316Y-60533777D01*
X136407251Y-60240000D01*
X136378316Y-59946223D01*
X136292625Y-59663736D01*
X136153469Y-59403394D01*
X135966197Y-59175203D01*
X135738006Y-58987931D01*
X135704460Y-58970000D01*
X135738006Y-58952069D01*
X135966197Y-58764797D01*
X136153469Y-58536606D01*
X136292625Y-58276264D01*
X136378316Y-57993777D01*
X136407251Y-57700000D01*
X136378316Y-57406223D01*
X136292625Y-57123736D01*
X136153469Y-56863394D01*
X135966197Y-56635203D01*
X135738006Y-56447931D01*
X135704460Y-56430000D01*
X135738006Y-56412069D01*
X135966197Y-56224797D01*
X136153469Y-55996606D01*
X136292625Y-55736264D01*
X136378316Y-55453777D01*
X136407251Y-55160000D01*
X136378316Y-54866223D01*
X136292625Y-54583736D01*
X136153469Y-54323394D01*
X135966197Y-54095203D01*
X135738006Y-53907931D01*
X135704460Y-53890000D01*
X135738006Y-53872069D01*
X135966197Y-53684797D01*
X136153469Y-53456606D01*
X136292625Y-53196264D01*
X136378316Y-52913777D01*
X136407251Y-52620000D01*
X136378316Y-52326223D01*
X136292625Y-52043736D01*
X136153469Y-51783394D01*
X135966197Y-51555203D01*
X135958135Y-51548586D01*
X136009180Y-51533102D01*
X136119494Y-51474137D01*
X136216185Y-51394785D01*
X136295537Y-51298094D01*
X136354502Y-51187780D01*
X136390812Y-51068082D01*
X136403072Y-50943600D01*
X136403072Y-49216400D01*
X136390812Y-49091918D01*
X136354502Y-48972220D01*
X136295537Y-48861906D01*
X136216185Y-48765215D01*
X136119494Y-48685863D01*
X136009180Y-48626898D01*
X135889482Y-48590588D01*
X135765000Y-48578328D01*
X133515000Y-48578328D01*
X133390518Y-48590588D01*
X133270820Y-48626898D01*
X133160506Y-48685863D01*
X133063815Y-48765215D01*
X132984463Y-48861906D01*
X132925498Y-48972220D01*
X132889188Y-49091918D01*
X132876928Y-49216400D01*
X132876928Y-50943600D01*
X132889188Y-51068082D01*
X132925498Y-51187780D01*
X132984463Y-51298094D01*
X133063815Y-51394785D01*
X133160506Y-51474137D01*
X133270820Y-51533102D01*
X133321865Y-51548586D01*
X133313803Y-51555203D01*
X133126531Y-51783394D01*
X132987375Y-52043736D01*
X132901684Y-52326223D01*
X132872749Y-52620000D01*
X111017630Y-52620000D01*
X111860579Y-51777052D01*
X112045243Y-51740320D01*
X112223210Y-51666604D01*
X112383375Y-51559585D01*
X112519585Y-51423375D01*
X112626604Y-51263210D01*
X112700320Y-51085243D01*
X112737900Y-50896315D01*
X112737900Y-50703685D01*
X112700320Y-50514757D01*
X112626604Y-50336790D01*
X112519585Y-50176625D01*
X112383375Y-50040415D01*
X112223210Y-49933396D01*
X112045243Y-49859680D01*
X111856315Y-49822100D01*
X111663685Y-49822100D01*
X111474757Y-49859680D01*
X111296790Y-49933396D01*
X111136625Y-50040415D01*
X111000415Y-50176625D01*
X110893396Y-50336790D01*
X110819680Y-50514757D01*
X110782948Y-50699421D01*
X93218454Y-68263916D01*
X93189378Y-68287778D01*
X93133783Y-68355522D01*
X93094155Y-68403808D01*
X93056335Y-68474565D01*
X93023398Y-68536186D01*
X92979826Y-68679823D01*
X92968800Y-68791774D01*
X92965114Y-68829200D01*
X92968800Y-68866623D01*
X92968801Y-81412667D01*
X92805597Y-81213803D01*
X92577406Y-81026531D01*
X92317064Y-80887375D01*
X92034577Y-80801684D01*
X91740800Y-80772749D01*
X91447024Y-80801684D01*
X91164537Y-80887375D01*
X90904195Y-81026531D01*
X90676003Y-81213803D01*
X90488731Y-81441994D01*
X90470800Y-81475540D01*
X90452869Y-81441994D01*
X90265597Y-81213803D01*
X90037406Y-81026531D01*
X89777064Y-80887375D01*
X89494577Y-80801684D01*
X89412800Y-80793630D01*
X89412800Y-70908223D01*
X89416486Y-70870800D01*
X89412800Y-70833374D01*
X89401774Y-70721422D01*
X89358202Y-70577785D01*
X89325265Y-70516164D01*
X89287445Y-70445407D01*
X89252657Y-70403019D01*
X89192222Y-70329378D01*
X89163146Y-70305516D01*
X86071315Y-67213685D01*
X90462100Y-67213685D01*
X90462100Y-67406315D01*
X90499680Y-67595243D01*
X90573396Y-67773210D01*
X90680415Y-67933375D01*
X90816625Y-68069585D01*
X90976790Y-68176604D01*
X91154757Y-68250320D01*
X91343685Y-68287900D01*
X91536315Y-68287900D01*
X91725243Y-68250320D01*
X91903210Y-68176604D01*
X92063375Y-68069585D01*
X92199585Y-67933375D01*
X92306604Y-67773210D01*
X92380320Y-67595243D01*
X92417052Y-67410578D01*
X100430578Y-59397052D01*
X100615243Y-59360320D01*
X100793210Y-59286604D01*
X100953375Y-59179585D01*
X101089585Y-59043375D01*
X101196604Y-58883210D01*
X101270320Y-58705243D01*
X101307900Y-58516315D01*
X101307900Y-58323685D01*
X101270320Y-58134757D01*
X101196604Y-57956790D01*
X101089585Y-57796625D01*
X100953375Y-57660415D01*
X100793210Y-57553396D01*
X100615243Y-57479680D01*
X100426315Y-57442100D01*
X100233685Y-57442100D01*
X100044757Y-57479680D01*
X99866790Y-57553396D01*
X99706625Y-57660415D01*
X99570415Y-57796625D01*
X99463396Y-57956790D01*
X99389680Y-58134757D01*
X99352948Y-58319422D01*
X91339422Y-66332948D01*
X91154757Y-66369680D01*
X90976790Y-66443396D01*
X90816625Y-66550415D01*
X90680415Y-66686625D01*
X90573396Y-66846790D01*
X90499680Y-67024757D01*
X90462100Y-67213685D01*
X86071315Y-67213685D01*
X84939630Y-66082000D01*
X88312577Y-66082000D01*
X88350000Y-66085686D01*
X88387423Y-66082000D01*
X88387426Y-66082000D01*
X88499378Y-66070974D01*
X88643015Y-66027402D01*
X88775392Y-65956645D01*
X88891422Y-65861422D01*
X88915284Y-65832346D01*
X97890579Y-56857052D01*
X98075243Y-56820320D01*
X98253210Y-56746604D01*
X98413375Y-56639585D01*
X98549585Y-56503375D01*
X98656604Y-56343210D01*
X98730320Y-56165243D01*
X98767900Y-55976315D01*
X98767900Y-55783685D01*
X98730320Y-55594757D01*
X98656604Y-55416790D01*
X98549585Y-55256625D01*
X98413375Y-55120415D01*
X98253210Y-55013396D01*
X98075243Y-54939680D01*
X97886315Y-54902100D01*
X97693685Y-54902100D01*
X97504757Y-54939680D01*
X97326790Y-55013396D01*
X97166625Y-55120415D01*
X97030415Y-55256625D01*
X96923396Y-55416790D01*
X96849680Y-55594757D01*
X96812948Y-55779421D01*
X88034370Y-64558000D01*
X83137423Y-64558000D01*
X83100000Y-64554314D01*
X83062577Y-64558000D01*
X72673347Y-64558000D01*
X72633469Y-64483394D01*
X72446197Y-64255203D01*
X72218006Y-64067931D01*
X72178647Y-64046893D01*
X72319574Y-63955483D01*
X72530873Y-63749868D01*
X72697998Y-63506981D01*
X72814527Y-63236157D01*
X72836358Y-63139026D01*
X72715217Y-62907000D01*
X71247000Y-62907000D01*
X71247000Y-62927000D01*
X70993000Y-62927000D01*
X70993000Y-62907000D01*
X69524783Y-62907000D01*
X69403642Y-63139026D01*
X69425473Y-63236157D01*
X69542002Y-63506981D01*
X69709127Y-63749868D01*
X69920426Y-63955483D01*
X70061353Y-64046893D01*
X70021994Y-64067931D01*
X69793803Y-64255203D01*
X69606531Y-64483394D01*
X69467375Y-64743736D01*
X69381684Y-65026223D01*
X69352749Y-65320000D01*
X69381684Y-65613777D01*
X69467375Y-65896264D01*
X69606531Y-66156606D01*
X69793803Y-66384797D01*
X70021994Y-66572069D01*
X70282336Y-66711225D01*
X70564823Y-66796916D01*
X70784981Y-66818600D01*
X71455019Y-66818600D01*
X71675177Y-66796916D01*
X71957664Y-66711225D01*
X72218006Y-66572069D01*
X72446197Y-66384797D01*
X72633469Y-66156606D01*
X72673347Y-66082000D01*
X82784370Y-66082000D01*
X87888801Y-71186431D01*
X87888800Y-81412666D01*
X87725597Y-81213803D01*
X87497406Y-81026531D01*
X87237064Y-80887375D01*
X86954577Y-80801684D01*
X86660800Y-80772749D01*
X86367024Y-80801684D01*
X86084537Y-80887375D01*
X85824195Y-81026531D01*
X85596003Y-81213803D01*
X85408731Y-81441994D01*
X85390800Y-81475540D01*
X85372869Y-81441994D01*
X85185597Y-81213803D01*
X84957406Y-81026531D01*
X84697064Y-80887375D01*
X84414577Y-80801684D01*
X84120800Y-80772749D01*
X83827024Y-80801684D01*
X83544537Y-80887375D01*
X83284195Y-81026531D01*
X83056003Y-81213803D01*
X82868731Y-81441994D01*
X82850800Y-81475540D01*
X82832869Y-81441994D01*
X82645597Y-81213803D01*
X82417406Y-81026531D01*
X82157064Y-80887375D01*
X81874577Y-80801684D01*
X81580800Y-80772749D01*
X81287024Y-80801684D01*
X81004537Y-80887375D01*
X80744195Y-81026531D01*
X80516003Y-81213803D01*
X80328731Y-81441994D01*
X80310800Y-81475540D01*
X80292869Y-81441994D01*
X80105597Y-81213803D01*
X79877406Y-81026531D01*
X79617064Y-80887375D01*
X79334577Y-80801684D01*
X79040800Y-80772749D01*
X78747024Y-80801684D01*
X78464537Y-80887375D01*
X78204195Y-81026531D01*
X77976003Y-81213803D01*
X77788731Y-81441994D01*
X77770800Y-81475540D01*
X77752869Y-81441994D01*
X77565597Y-81213803D01*
X77337406Y-81026531D01*
X77077064Y-80887375D01*
X76794577Y-80801684D01*
X76500800Y-80772749D01*
X76207024Y-80801684D01*
X75924537Y-80887375D01*
X75664195Y-81026531D01*
X75436003Y-81213803D01*
X75248731Y-81441994D01*
X75230800Y-81475540D01*
X75212869Y-81441994D01*
X75025597Y-81213803D01*
X74797406Y-81026531D01*
X74537064Y-80887375D01*
X74254577Y-80801684D01*
X73960800Y-80772749D01*
X73667024Y-80801684D01*
X73384537Y-80887375D01*
X73124195Y-81026531D01*
X72896003Y-81213803D01*
X72708731Y-81441994D01*
X72690800Y-81475540D01*
X72672869Y-81441994D01*
X72485597Y-81213803D01*
X72257406Y-81026531D01*
X71997064Y-80887375D01*
X71714577Y-80801684D01*
X71420800Y-80772749D01*
X71127024Y-80801684D01*
X70844537Y-80887375D01*
X70584195Y-81026531D01*
X70356003Y-81213803D01*
X70168731Y-81441994D01*
X70150800Y-81475540D01*
X70132869Y-81441994D01*
X69945597Y-81213803D01*
X69717406Y-81026531D01*
X69457064Y-80887375D01*
X69174577Y-80801684D01*
X68880800Y-80772749D01*
X68587024Y-80801684D01*
X68304537Y-80887375D01*
X68044195Y-81026531D01*
X67816003Y-81213803D01*
X67628731Y-81441994D01*
X67610800Y-81475540D01*
X67592869Y-81441994D01*
X67405597Y-81213803D01*
X67177406Y-81026531D01*
X66917064Y-80887375D01*
X66634577Y-80801684D01*
X66340800Y-80772749D01*
X66047024Y-80801684D01*
X65764537Y-80887375D01*
X65504195Y-81026531D01*
X65276003Y-81213803D01*
X65088731Y-81441994D01*
X64949575Y-81702336D01*
X64863884Y-81984823D01*
X64842200Y-82204981D01*
X36660000Y-82204981D01*
X36660000Y-65992702D01*
X64186903Y-65992702D01*
X64258486Y-66236671D01*
X64513996Y-66357571D01*
X64788184Y-66426300D01*
X65070512Y-66440217D01*
X65350130Y-66398787D01*
X65616292Y-66303603D01*
X65741514Y-66236671D01*
X65813097Y-65992702D01*
X65000000Y-65179605D01*
X64186903Y-65992702D01*
X36660000Y-65992702D01*
X36660000Y-65070512D01*
X63559783Y-65070512D01*
X63601213Y-65350130D01*
X63696397Y-65616292D01*
X63763329Y-65741514D01*
X64007298Y-65813097D01*
X64820395Y-65000000D01*
X65179605Y-65000000D01*
X65992702Y-65813097D01*
X66236671Y-65741514D01*
X66357571Y-65486004D01*
X66426300Y-65211816D01*
X66440217Y-64929488D01*
X66398787Y-64649870D01*
X66303603Y-64383708D01*
X66236671Y-64258486D01*
X65992702Y-64186903D01*
X65179605Y-65000000D01*
X64820395Y-65000000D01*
X64007298Y-64186903D01*
X63763329Y-64258486D01*
X63642429Y-64513996D01*
X63573700Y-64788184D01*
X63559783Y-65070512D01*
X36660000Y-65070512D01*
X36660000Y-64007298D01*
X64186903Y-64007298D01*
X65000000Y-64820395D01*
X65813097Y-64007298D01*
X65741514Y-63763329D01*
X65486004Y-63642429D01*
X65211816Y-63573700D01*
X64929488Y-63559783D01*
X64649870Y-63601213D01*
X64383708Y-63696397D01*
X64258486Y-63763329D01*
X64186903Y-64007298D01*
X36660000Y-64007298D01*
X36660000Y-53862408D01*
X37863000Y-53862408D01*
X37863000Y-54137592D01*
X37916686Y-54407490D01*
X38021995Y-54661727D01*
X38174880Y-54890535D01*
X38369465Y-55085120D01*
X38598273Y-55238005D01*
X38852510Y-55343314D01*
X39122408Y-55397000D01*
X39397592Y-55397000D01*
X39667490Y-55343314D01*
X39921727Y-55238005D01*
X40150535Y-55085120D01*
X40345120Y-54890535D01*
X40498005Y-54661727D01*
X40603314Y-54407490D01*
X40657000Y-54137592D01*
X40657000Y-53862408D01*
X40603314Y-53592510D01*
X40498005Y-53338273D01*
X40345120Y-53109465D01*
X40150535Y-52914880D01*
X39921727Y-52761995D01*
X39667490Y-52656686D01*
X39397592Y-52603000D01*
X39122408Y-52603000D01*
X38852510Y-52656686D01*
X38598273Y-52761995D01*
X38369465Y-52914880D01*
X38174880Y-53109465D01*
X38021995Y-53338273D01*
X37916686Y-53592510D01*
X37863000Y-53862408D01*
X36660000Y-53862408D01*
X36660000Y-48040000D01*
X38007815Y-48040000D01*
X38036487Y-48331111D01*
X38121401Y-48611034D01*
X38259294Y-48869014D01*
X38444866Y-49095134D01*
X38670986Y-49280706D01*
X38928966Y-49418599D01*
X39208889Y-49503513D01*
X39427050Y-49525000D01*
X39572950Y-49525000D01*
X39791111Y-49503513D01*
X40071034Y-49418599D01*
X40329014Y-49280706D01*
X40555134Y-49095134D01*
X40740706Y-48869014D01*
X40878599Y-48611034D01*
X40963513Y-48331111D01*
X40992185Y-48040000D01*
X40963513Y-47748889D01*
X40878599Y-47468966D01*
X40740706Y-47210986D01*
X40555134Y-46984866D01*
X40525313Y-46960393D01*
X40594180Y-46939502D01*
X40704494Y-46880537D01*
X40801185Y-46801185D01*
X40880537Y-46704494D01*
X40939502Y-46594180D01*
X40975812Y-46474482D01*
X40988072Y-46350000D01*
X40988072Y-44650000D01*
X40975812Y-44525518D01*
X40939502Y-44405820D01*
X40880537Y-44295506D01*
X40801185Y-44198815D01*
X40704494Y-44119463D01*
X40594180Y-44060498D01*
X40474482Y-44024188D01*
X40350000Y-44011928D01*
X38650000Y-44011928D01*
X38525518Y-44024188D01*
X38405820Y-44060498D01*
X38295506Y-44119463D01*
X38198815Y-44198815D01*
X38119463Y-44295506D01*
X38060498Y-44405820D01*
X38024188Y-44525518D01*
X38011928Y-44650000D01*
X38011928Y-46350000D01*
X38024188Y-46474482D01*
X38060498Y-46594180D01*
X38119463Y-46704494D01*
X38198815Y-46801185D01*
X38295506Y-46880537D01*
X38405820Y-46939502D01*
X38474687Y-46960393D01*
X38444866Y-46984866D01*
X38259294Y-47210986D01*
X38121401Y-47468966D01*
X38036487Y-47748889D01*
X38007815Y-48040000D01*
X36660000Y-48040000D01*
X36660000Y-40414336D01*
X36785794Y-40718029D01*
X37182725Y-41312078D01*
X37687922Y-41817275D01*
X38281971Y-42214206D01*
X38942043Y-42487617D01*
X39642772Y-42627000D01*
X40357228Y-42627000D01*
X41057957Y-42487617D01*
X41718029Y-42214206D01*
X42312078Y-41817275D01*
X42817275Y-41312078D01*
X43214206Y-40718029D01*
X43487617Y-40057957D01*
X43627000Y-39357228D01*
X43627000Y-38642772D01*
X43487617Y-37942043D01*
X43214206Y-37281971D01*
X42817275Y-36687922D01*
X42312078Y-36182725D01*
X41718029Y-35785794D01*
X41414336Y-35660000D01*
X44673414Y-35660000D01*
X44520422Y-35846422D01*
X44520422Y-35846422D01*
G37*
X44520422Y-35846422D02*
X44359315Y-36147832D01*
X44260105Y-36474881D01*
X44235000Y-36729775D01*
X44235000Y-38200224D01*
X44260105Y-38455118D01*
X44359314Y-38782167D01*
X44520421Y-39083577D01*
X44737234Y-39347766D01*
X45001422Y-39564579D01*
X45302832Y-39725686D01*
X45629881Y-39824895D01*
X45970000Y-39858394D01*
X46310118Y-39824895D01*
X46637167Y-39725686D01*
X46938577Y-39564579D01*
X47202766Y-39347766D01*
X47360139Y-39156006D01*
X47537419Y-39250764D01*
X47798493Y-39329960D01*
X48070000Y-39356701D01*
X48341506Y-39329960D01*
X48602580Y-39250764D01*
X48843187Y-39122157D01*
X49054080Y-38949081D01*
X49070000Y-38929683D01*
X49085919Y-38949080D01*
X49181000Y-39027112D01*
X49181001Y-42406330D01*
X49176700Y-42450000D01*
X49193864Y-42624274D01*
X49244698Y-42791852D01*
X49307711Y-42909740D01*
X49327248Y-42946291D01*
X49438342Y-43081659D01*
X49472259Y-43109494D01*
X56371000Y-50008236D01*
X56371001Y-52913854D01*
X56369465Y-52914880D01*
X56174880Y-53109465D01*
X56021995Y-53338273D01*
X55916686Y-53592510D01*
X55863000Y-53862408D01*
X55863000Y-54137592D01*
X55916686Y-54407490D01*
X56021995Y-54661727D01*
X56174880Y-54890535D01*
X56369465Y-55085120D01*
X56598273Y-55238005D01*
X56852510Y-55343314D01*
X57122408Y-55397000D01*
X57397592Y-55397000D01*
X57667490Y-55343314D01*
X57921727Y-55238005D01*
X58150535Y-55085120D01*
X58345120Y-54890535D01*
X58378886Y-54840000D01*
X63558057Y-54840000D01*
X63585764Y-55121309D01*
X63667818Y-55391808D01*
X63801068Y-55641101D01*
X63980392Y-55859608D01*
X64198899Y-56038932D01*
X64448192Y-56172182D01*
X64718691Y-56254236D01*
X64929508Y-56275000D01*
X65070492Y-56275000D01*
X65281309Y-56254236D01*
X65551808Y-56172182D01*
X65801101Y-56038932D01*
X66019608Y-55859608D01*
X66198932Y-55641101D01*
X66332182Y-55391808D01*
X66414236Y-55121309D01*
X66441943Y-54840000D01*
X66414236Y-54558691D01*
X66332182Y-54288192D01*
X66198932Y-54038899D01*
X66019608Y-53820392D01*
X65801101Y-53641068D01*
X65551808Y-53507818D01*
X65281309Y-53425764D01*
X65070492Y-53405000D01*
X64929508Y-53405000D01*
X64718691Y-53425764D01*
X64448192Y-53507818D01*
X64198899Y-53641068D01*
X63980392Y-53820392D01*
X63801068Y-54038899D01*
X63667818Y-54288192D01*
X63585764Y-54558691D01*
X63558057Y-54840000D01*
X58378886Y-54840000D01*
X58498005Y-54661727D01*
X58603314Y-54407490D01*
X58657000Y-54137592D01*
X58657000Y-53862408D01*
X58603314Y-53592510D01*
X58498005Y-53338273D01*
X58345120Y-53109465D01*
X58150535Y-52914880D01*
X58149000Y-52913854D01*
X58149000Y-49683668D01*
X58153301Y-49640000D01*
X58136136Y-49465725D01*
X58085303Y-49298150D01*
X58085303Y-49298149D01*
X58002753Y-49143709D01*
X57891659Y-49008341D01*
X57857743Y-48980507D01*
X52676655Y-43799419D01*
X54960000Y-43799419D01*
X54960000Y-44180581D01*
X55034361Y-44554419D01*
X55180225Y-44906566D01*
X55391987Y-45223491D01*
X55661509Y-45493013D01*
X55978434Y-45704775D01*
X56330581Y-45850639D01*
X56704419Y-45925000D01*
X57085581Y-45925000D01*
X57459419Y-45850639D01*
X57811566Y-45704775D01*
X57833678Y-45690000D01*
X59656928Y-45690000D01*
X59656928Y-48290000D01*
X59669188Y-48414482D01*
X59705498Y-48534180D01*
X59764463Y-48644494D01*
X59843815Y-48741185D01*
X59940506Y-48820537D01*
X60050820Y-48879502D01*
X60170518Y-48915812D01*
X60295000Y-48928072D01*
X62895000Y-48928072D01*
X63019482Y-48915812D01*
X63139180Y-48879502D01*
X63249494Y-48820537D01*
X63346185Y-48741185D01*
X63425537Y-48644494D01*
X63484502Y-48534180D01*
X63520812Y-48414482D01*
X63533072Y-48290000D01*
X63533072Y-47540000D01*
X69352749Y-47540000D01*
X69381684Y-47833777D01*
X69467375Y-48116264D01*
X69606531Y-48376606D01*
X69793803Y-48604797D01*
X70021994Y-48792069D01*
X70055540Y-48810000D01*
X70021994Y-48827931D01*
X69793803Y-49015203D01*
X69606531Y-49243394D01*
X69467375Y-49503736D01*
X69381684Y-49786223D01*
X69352749Y-50080000D01*
X69381684Y-50373777D01*
X69467375Y-50656264D01*
X69606531Y-50916606D01*
X69793803Y-51144797D01*
X70021994Y-51332069D01*
X70055540Y-51350000D01*
X70021994Y-51367931D01*
X69793803Y-51555203D01*
X69606531Y-51783394D01*
X69467375Y-52043736D01*
X69381684Y-52326223D01*
X69352749Y-52620000D01*
X69381684Y-52913777D01*
X69467375Y-53196264D01*
X69606531Y-53456606D01*
X69793803Y-53684797D01*
X70021994Y-53872069D01*
X70055540Y-53890000D01*
X70021994Y-53907931D01*
X69793803Y-54095203D01*
X69606531Y-54323394D01*
X69467375Y-54583736D01*
X69381684Y-54866223D01*
X69352749Y-55160000D01*
X69381684Y-55453777D01*
X69467375Y-55736264D01*
X69606531Y-55996606D01*
X69793803Y-56224797D01*
X70021994Y-56412069D01*
X70055540Y-56430000D01*
X70021994Y-56447931D01*
X69793803Y-56635203D01*
X69606531Y-56863394D01*
X69467375Y-57123736D01*
X69381684Y-57406223D01*
X69352749Y-57700000D01*
X69381684Y-57993777D01*
X69467375Y-58276264D01*
X69606531Y-58536606D01*
X69793803Y-58764797D01*
X70021994Y-58952069D01*
X70055540Y-58970000D01*
X70021994Y-58987931D01*
X69793803Y-59175203D01*
X69606531Y-59403394D01*
X69467375Y-59663736D01*
X69381684Y-59946223D01*
X69352749Y-60240000D01*
X69381684Y-60533777D01*
X69467375Y-60816264D01*
X69606531Y-61076606D01*
X69793803Y-61304797D01*
X70021994Y-61492069D01*
X70061353Y-61513107D01*
X69920426Y-61604517D01*
X69709127Y-61810132D01*
X69542002Y-62053019D01*
X69425473Y-62323843D01*
X69403642Y-62420974D01*
X69524783Y-62653000D01*
X70993000Y-62653000D01*
X70993000Y-62633000D01*
X71247000Y-62633000D01*
X71247000Y-62653000D01*
X72715217Y-62653000D01*
X72836358Y-62420974D01*
X72814527Y-62323843D01*
X72697998Y-62053019D01*
X72530873Y-61810132D01*
X72319574Y-61604517D01*
X72178647Y-61513107D01*
X72218006Y-61492069D01*
X72446197Y-61304797D01*
X72633469Y-61076606D01*
X72772625Y-60816264D01*
X72858316Y-60533777D01*
X72887251Y-60240000D01*
X72858316Y-59946223D01*
X72772625Y-59663736D01*
X72633469Y-59403394D01*
X72446197Y-59175203D01*
X72218006Y-58987931D01*
X72184460Y-58970000D01*
X72218006Y-58952069D01*
X72446197Y-58764797D01*
X72633469Y-58536606D01*
X72673347Y-58462000D01*
X93392577Y-58462000D01*
X93430000Y-58465686D01*
X93467423Y-58462000D01*
X93467426Y-58462000D01*
X93579378Y-58450974D01*
X93723015Y-58407402D01*
X93855392Y-58336645D01*
X93971422Y-58241422D01*
X93995284Y-58212346D01*
X97890579Y-54317052D01*
X98075243Y-54280320D01*
X98253210Y-54206604D01*
X98413375Y-54099585D01*
X98549585Y-53963375D01*
X98656604Y-53803210D01*
X98730320Y-53625243D01*
X98767900Y-53436315D01*
X98767900Y-53243685D01*
X98730320Y-53054757D01*
X98656604Y-52876790D01*
X98549585Y-52716625D01*
X98413375Y-52580415D01*
X98253210Y-52473396D01*
X98075243Y-52399680D01*
X97886315Y-52362100D01*
X97693685Y-52362100D01*
X97504757Y-52399680D01*
X97326790Y-52473396D01*
X97166625Y-52580415D01*
X97030415Y-52716625D01*
X96923396Y-52876790D01*
X96849680Y-53054757D01*
X96812948Y-53239421D01*
X93114370Y-56938000D01*
X72673347Y-56938000D01*
X72633469Y-56863394D01*
X72446197Y-56635203D01*
X72218006Y-56447931D01*
X72184460Y-56430000D01*
X72218006Y-56412069D01*
X72446197Y-56224797D01*
X72633469Y-55996606D01*
X72772625Y-55736264D01*
X72858316Y-55453777D01*
X72887251Y-55160000D01*
X72858316Y-54866223D01*
X72772625Y-54583736D01*
X72633469Y-54323394D01*
X72446197Y-54095203D01*
X72218006Y-53907931D01*
X72184460Y-53890000D01*
X72218006Y-53872069D01*
X72446197Y-53684797D01*
X72633469Y-53456606D01*
X72772625Y-53196264D01*
X72858316Y-52913777D01*
X72887251Y-52620000D01*
X72858316Y-52326223D01*
X72772625Y-52043736D01*
X72633469Y-51783394D01*
X72446197Y-51555203D01*
X72218006Y-51367931D01*
X72184460Y-51350000D01*
X72218006Y-51332069D01*
X72446197Y-51144797D01*
X72633469Y-50916606D01*
X72772625Y-50656264D01*
X72858316Y-50373777D01*
X72887251Y-50080000D01*
X72858316Y-49786223D01*
X72772625Y-49503736D01*
X72633469Y-49243394D01*
X72446197Y-49015203D01*
X72218006Y-48827931D01*
X72184460Y-48810000D01*
X72218006Y-48792069D01*
X72446197Y-48604797D01*
X72633469Y-48376606D01*
X72772625Y-48116264D01*
X72858316Y-47833777D01*
X72887251Y-47540000D01*
X72858316Y-47246223D01*
X72772625Y-46963736D01*
X72633469Y-46703394D01*
X72446197Y-46475203D01*
X72438135Y-46468586D01*
X72489180Y-46453102D01*
X72599494Y-46394137D01*
X72696185Y-46314785D01*
X72775537Y-46218094D01*
X72834502Y-46107780D01*
X72870812Y-45988082D01*
X72883072Y-45863600D01*
X72880000Y-45285750D01*
X72721250Y-45127000D01*
X71247000Y-45127000D01*
X71247000Y-45147000D01*
X70993000Y-45147000D01*
X70993000Y-45127000D01*
X69518750Y-45127000D01*
X69360000Y-45285750D01*
X69356928Y-45863600D01*
X69369188Y-45988082D01*
X69405498Y-46107780D01*
X69464463Y-46218094D01*
X69543815Y-46314785D01*
X69640506Y-46394137D01*
X69750820Y-46453102D01*
X69801865Y-46468586D01*
X69793803Y-46475203D01*
X69606531Y-46703394D01*
X69467375Y-46963736D01*
X69381684Y-47246223D01*
X69352749Y-47540000D01*
X63533072Y-47540000D01*
X63533072Y-45690000D01*
X63520812Y-45565518D01*
X63484502Y-45445820D01*
X63425537Y-45335506D01*
X63346185Y-45238815D01*
X63249494Y-45159463D01*
X63139180Y-45100498D01*
X63019482Y-45064188D01*
X62895000Y-45051928D01*
X60295000Y-45051928D01*
X60170518Y-45064188D01*
X60050820Y-45100498D01*
X59940506Y-45159463D01*
X59843815Y-45238815D01*
X59764463Y-45335506D01*
X59705498Y-45445820D01*
X59669188Y-45565518D01*
X59656928Y-45690000D01*
X57833678Y-45690000D01*
X58128491Y-45493013D01*
X58398013Y-45223491D01*
X58609775Y-44906566D01*
X58755639Y-44554419D01*
X58830000Y-44180581D01*
X58830000Y-44136400D01*
X69356928Y-44136400D01*
X69360000Y-44714250D01*
X69518750Y-44873000D01*
X70993000Y-44873000D01*
X70993000Y-43660150D01*
X71247000Y-43660150D01*
X71247000Y-44873000D01*
X72721250Y-44873000D01*
X72880000Y-44714250D01*
X72883072Y-44136400D01*
X72870812Y-44011918D01*
X72834502Y-43892220D01*
X72775537Y-43781906D01*
X72696185Y-43685215D01*
X72599494Y-43605863D01*
X72489180Y-43546898D01*
X72369482Y-43510588D01*
X72245000Y-43498328D01*
X71405750Y-43501400D01*
X71247000Y-43660150D01*
X70993000Y-43660150D01*
X70834250Y-43501400D01*
X69995000Y-43498328D01*
X69870518Y-43510588D01*
X69750820Y-43546898D01*
X69640506Y-43605863D01*
X69543815Y-43685215D01*
X69464463Y-43781906D01*
X69405498Y-43892220D01*
X69369188Y-44011918D01*
X69356928Y-44136400D01*
X58830000Y-44136400D01*
X58830000Y-43799419D01*
X58755639Y-43425581D01*
X58755230Y-43424592D01*
X139515000Y-43424592D01*
X139515000Y-43775407D01*
X139537210Y-44000912D01*
X139624983Y-44290260D01*
X139767519Y-44556926D01*
X139959339Y-44790661D01*
X140193073Y-44982481D01*
X140459739Y-45125017D01*
X140749087Y-45212790D01*
X141050000Y-45242427D01*
X141350912Y-45212790D01*
X141640260Y-45125017D01*
X141906926Y-44982481D01*
X142140661Y-44790661D01*
X142300000Y-44596505D01*
X142459339Y-44790661D01*
X142693073Y-44982481D01*
X142959739Y-45125017D01*
X143249087Y-45212790D01*
X143550000Y-45242427D01*
X143850912Y-45212790D01*
X144140260Y-45125017D01*
X144406926Y-44982481D01*
X144640661Y-44790661D01*
X144832481Y-44556927D01*
X144975017Y-44290261D01*
X145062790Y-44000913D01*
X145085000Y-43775408D01*
X145085000Y-43424593D01*
X145062790Y-43199088D01*
X144975017Y-42909740D01*
X144832481Y-42643073D01*
X144640661Y-42409339D01*
X144406927Y-42217519D01*
X144140261Y-42074983D01*
X143850913Y-41987210D01*
X143550000Y-41957573D01*
X143249088Y-41987210D01*
X142959740Y-42074983D01*
X142693074Y-42217519D01*
X142459339Y-42409339D01*
X142300000Y-42603495D01*
X142140661Y-42409339D01*
X141906927Y-42217519D01*
X141640261Y-42074983D01*
X141350913Y-41987210D01*
X141050000Y-41957573D01*
X140749088Y-41987210D01*
X140459740Y-42074983D01*
X140193074Y-42217519D01*
X139959339Y-42409339D01*
X139767519Y-42643073D01*
X139624983Y-42909739D01*
X139537210Y-43199087D01*
X139515000Y-43424592D01*
X58755230Y-43424592D01*
X58609775Y-43073434D01*
X58398013Y-42756509D01*
X58128491Y-42486987D01*
X57811566Y-42275225D01*
X57459419Y-42129361D01*
X57085581Y-42055000D01*
X56704419Y-42055000D01*
X56330581Y-42129361D01*
X55978434Y-42275225D01*
X55661509Y-42486987D01*
X55391987Y-42756509D01*
X55180225Y-43073434D01*
X55034361Y-43425581D01*
X54960000Y-43799419D01*
X52676655Y-43799419D01*
X50959000Y-42081765D01*
X50959000Y-40799419D01*
X59660000Y-40799419D01*
X59660000Y-41180581D01*
X59734361Y-41554419D01*
X59880225Y-41906566D01*
X60091987Y-42223491D01*
X60361509Y-42493013D01*
X60678434Y-42704775D01*
X61030581Y-42850639D01*
X61404419Y-42925000D01*
X61785581Y-42925000D01*
X62159419Y-42850639D01*
X62511566Y-42704775D01*
X62828491Y-42493013D01*
X63098013Y-42223491D01*
X63309775Y-41906566D01*
X63455639Y-41554419D01*
X63530000Y-41180581D01*
X63530000Y-40799419D01*
X63455639Y-40425581D01*
X63309775Y-40073434D01*
X63098013Y-39756509D01*
X62828491Y-39486987D01*
X62511566Y-39275225D01*
X62159419Y-39129361D01*
X61785581Y-39055000D01*
X61404419Y-39055000D01*
X61030581Y-39129361D01*
X60678434Y-39275225D01*
X60361509Y-39486987D01*
X60091987Y-39756509D01*
X59880225Y-40073434D01*
X59734361Y-40425581D01*
X59660000Y-40799419D01*
X50959000Y-40799419D01*
X50959000Y-39240198D01*
X50965506Y-39245537D01*
X51075820Y-39304502D01*
X51195518Y-39340812D01*
X51320000Y-39353072D01*
X52820000Y-39353072D01*
X52932496Y-39341992D01*
X52937234Y-39347766D01*
X53201422Y-39564579D01*
X53502832Y-39725686D01*
X53829881Y-39824895D01*
X54170000Y-39858394D01*
X54510118Y-39824895D01*
X54837167Y-39725686D01*
X55138577Y-39564579D01*
X55402766Y-39347766D01*
X55619579Y-39083578D01*
X55780686Y-38782168D01*
X55879895Y-38455119D01*
X55905000Y-38200225D01*
X55905000Y-37924592D01*
X144515000Y-37924592D01*
X144515000Y-38275407D01*
X144537210Y-38500912D01*
X144624983Y-38790260D01*
X144767519Y-39056926D01*
X144959339Y-39290661D01*
X145193073Y-39482481D01*
X145288000Y-39533221D01*
X145288001Y-63044176D01*
X145279465Y-63049880D01*
X145084880Y-63244465D01*
X144931995Y-63473273D01*
X144826686Y-63727510D01*
X144773000Y-63997408D01*
X144773000Y-64272592D01*
X144826686Y-64542490D01*
X144931995Y-64796727D01*
X145084880Y-65025535D01*
X145279465Y-65220120D01*
X145508273Y-65373005D01*
X145762510Y-65478314D01*
X146032408Y-65532000D01*
X146307592Y-65532000D01*
X146577490Y-65478314D01*
X146831727Y-65373005D01*
X147060535Y-65220120D01*
X147255120Y-65025535D01*
X147408005Y-64796727D01*
X147513314Y-64542490D01*
X147567000Y-64272592D01*
X147567000Y-63997408D01*
X159773000Y-63997408D01*
X159773000Y-64272592D01*
X159826686Y-64542490D01*
X159931995Y-64796727D01*
X160084880Y-65025535D01*
X160279465Y-65220120D01*
X160508273Y-65373005D01*
X160762510Y-65478314D01*
X161032408Y-65532000D01*
X161307592Y-65532000D01*
X161577490Y-65478314D01*
X161831727Y-65373005D01*
X162060535Y-65220120D01*
X162255120Y-65025535D01*
X162408005Y-64796727D01*
X162513314Y-64542490D01*
X162567000Y-64272592D01*
X162567000Y-63997408D01*
X162513314Y-63727510D01*
X162408005Y-63473273D01*
X162255120Y-63244465D01*
X162060535Y-63049880D01*
X161831727Y-62896995D01*
X161577490Y-62791686D01*
X161307592Y-62738000D01*
X161032408Y-62738000D01*
X160762510Y-62791686D01*
X160508273Y-62896995D01*
X160279465Y-63049880D01*
X160084880Y-63244465D01*
X159931995Y-63473273D01*
X159826686Y-63727510D01*
X159773000Y-63997408D01*
X147567000Y-63997408D01*
X147513314Y-63727510D01*
X147408005Y-63473273D01*
X147255120Y-63244465D01*
X147060535Y-63049880D01*
X146831727Y-62896995D01*
X146812000Y-62888824D01*
X146812000Y-43424592D01*
X147015000Y-43424592D01*
X147015000Y-43775407D01*
X147037210Y-44000912D01*
X147124983Y-44290260D01*
X147267519Y-44556926D01*
X147459339Y-44790661D01*
X147693073Y-44982481D01*
X147959739Y-45125017D01*
X148249087Y-45212790D01*
X148550000Y-45242427D01*
X148850912Y-45212790D01*
X149140260Y-45125017D01*
X149406926Y-44982481D01*
X149640661Y-44790661D01*
X149800000Y-44596505D01*
X149959339Y-44790661D01*
X150193073Y-44982481D01*
X150459739Y-45125017D01*
X150749087Y-45212790D01*
X151050000Y-45242427D01*
X151350912Y-45212790D01*
X151640260Y-45125017D01*
X151906926Y-44982481D01*
X152140661Y-44790661D01*
X152332481Y-44556927D01*
X152475017Y-44290261D01*
X152562790Y-44000913D01*
X152585000Y-43775408D01*
X152585000Y-43424593D01*
X152575151Y-43324592D01*
X154755000Y-43324592D01*
X154755000Y-43675407D01*
X154777210Y-43900912D01*
X154864983Y-44190260D01*
X155007519Y-44456926D01*
X155199339Y-44690661D01*
X155433073Y-44882481D01*
X155699739Y-45025017D01*
X155989087Y-45112790D01*
X156290000Y-45142427D01*
X156590912Y-45112790D01*
X156880260Y-45025017D01*
X157146926Y-44882481D01*
X157380661Y-44690661D01*
X157540000Y-44496505D01*
X157699339Y-44690661D01*
X157933073Y-44882481D01*
X158199739Y-45025017D01*
X158489087Y-45112790D01*
X158790000Y-45142427D01*
X159090912Y-45112790D01*
X159380260Y-45025017D01*
X159646926Y-44882481D01*
X159880661Y-44690661D01*
X160072481Y-44456927D01*
X160215017Y-44190261D01*
X160302790Y-43900913D01*
X160325000Y-43675408D01*
X160325000Y-43324593D01*
X160325000Y-43324592D01*
X162255000Y-43324592D01*
X162255000Y-43675407D01*
X162277210Y-43900912D01*
X162364983Y-44190260D01*
X162507519Y-44456926D01*
X162699339Y-44690661D01*
X162933073Y-44882481D01*
X163199739Y-45025017D01*
X163489087Y-45112790D01*
X163790000Y-45142427D01*
X164090912Y-45112790D01*
X164380260Y-45025017D01*
X164646926Y-44882481D01*
X164880661Y-44690661D01*
X165040000Y-44496505D01*
X165199339Y-44690661D01*
X165433073Y-44882481D01*
X165699739Y-45025017D01*
X165989087Y-45112790D01*
X166290000Y-45142427D01*
X166590912Y-45112790D01*
X166880260Y-45025017D01*
X167146926Y-44882481D01*
X167380661Y-44690661D01*
X167572481Y-44456927D01*
X167715017Y-44190261D01*
X167802790Y-43900913D01*
X167825000Y-43675408D01*
X167825000Y-43324593D01*
X167802790Y-43099088D01*
X167715017Y-42809740D01*
X167572481Y-42543073D01*
X167380661Y-42309339D01*
X167146927Y-42117519D01*
X166880261Y-41974983D01*
X166590913Y-41887210D01*
X166290000Y-41857573D01*
X165989088Y-41887210D01*
X165699740Y-41974983D01*
X165433074Y-42117519D01*
X165199339Y-42309339D01*
X165040000Y-42503495D01*
X164880661Y-42309339D01*
X164646927Y-42117519D01*
X164380261Y-41974983D01*
X164090913Y-41887210D01*
X163790000Y-41857573D01*
X163489088Y-41887210D01*
X163199740Y-41974983D01*
X162933074Y-42117519D01*
X162699339Y-42309339D01*
X162507519Y-42543073D01*
X162364983Y-42809739D01*
X162277210Y-43099087D01*
X162255000Y-43324592D01*
X160325000Y-43324592D01*
X160302790Y-43099088D01*
X160215017Y-42809740D01*
X160072481Y-42543073D01*
X159880661Y-42309339D01*
X159646927Y-42117519D01*
X159380261Y-41974983D01*
X159090913Y-41887210D01*
X158790000Y-41857573D01*
X158489088Y-41887210D01*
X158199740Y-41974983D01*
X157933074Y-42117519D01*
X157699339Y-42309339D01*
X157540000Y-42503495D01*
X157380661Y-42309339D01*
X157146927Y-42117519D01*
X156880261Y-41974983D01*
X156590913Y-41887210D01*
X156290000Y-41857573D01*
X155989088Y-41887210D01*
X155699740Y-41974983D01*
X155433074Y-42117519D01*
X155199339Y-42309339D01*
X155007519Y-42543073D01*
X154864983Y-42809739D01*
X154777210Y-43099087D01*
X154755000Y-43324592D01*
X152575151Y-43324592D01*
X152562790Y-43199088D01*
X152475017Y-42909740D01*
X152332481Y-42643073D01*
X152140661Y-42409339D01*
X151906927Y-42217519D01*
X151640261Y-42074983D01*
X151350913Y-41987210D01*
X151050000Y-41957573D01*
X150749088Y-41987210D01*
X150459740Y-42074983D01*
X150193074Y-42217519D01*
X149959339Y-42409339D01*
X149800000Y-42603495D01*
X149640661Y-42409339D01*
X149406927Y-42217519D01*
X149140261Y-42074983D01*
X148850913Y-41987210D01*
X148550000Y-41957573D01*
X148249088Y-41987210D01*
X147959740Y-42074983D01*
X147693074Y-42217519D01*
X147459339Y-42409339D01*
X147267519Y-42643073D01*
X147124983Y-42909739D01*
X147037210Y-43199087D01*
X147015000Y-43424592D01*
X146812000Y-43424592D01*
X146812000Y-39533220D01*
X146906926Y-39482481D01*
X147140661Y-39290661D01*
X147332481Y-39056927D01*
X147475017Y-38790261D01*
X147562790Y-38500913D01*
X147585000Y-38275408D01*
X147585000Y-37924593D01*
X147575151Y-37824592D01*
X159755000Y-37824592D01*
X159755000Y-38175407D01*
X159777210Y-38400912D01*
X159864983Y-38690260D01*
X160007519Y-38956926D01*
X160199339Y-39190661D01*
X160433073Y-39382481D01*
X160699739Y-39525017D01*
X160989087Y-39612790D01*
X161290000Y-39642427D01*
X161590912Y-39612790D01*
X161880260Y-39525017D01*
X162146926Y-39382481D01*
X162380661Y-39190661D01*
X162572481Y-38956927D01*
X162715017Y-38690261D01*
X162802790Y-38400913D01*
X162825000Y-38175408D01*
X162825000Y-37824593D01*
X162802790Y-37599088D01*
X162715017Y-37309740D01*
X162572481Y-37043073D01*
X162380661Y-36809339D01*
X162146927Y-36617519D01*
X161880261Y-36474983D01*
X161590913Y-36387210D01*
X161290000Y-36357573D01*
X160989088Y-36387210D01*
X160699740Y-36474983D01*
X160433074Y-36617519D01*
X160199339Y-36809339D01*
X160007519Y-37043073D01*
X159864983Y-37309739D01*
X159777210Y-37599087D01*
X159755000Y-37824592D01*
X147575151Y-37824592D01*
X147562790Y-37699088D01*
X147475017Y-37409740D01*
X147332481Y-37143073D01*
X147140661Y-36909339D01*
X146906927Y-36717519D01*
X146640261Y-36574983D01*
X146350913Y-36487210D01*
X146050000Y-36457573D01*
X145749088Y-36487210D01*
X145459740Y-36574983D01*
X145193074Y-36717519D01*
X144959339Y-36909339D01*
X144767519Y-37143073D01*
X144624983Y-37409739D01*
X144537210Y-37699087D01*
X144515000Y-37924592D01*
X55905000Y-37924592D01*
X55905000Y-36729775D01*
X55879895Y-36474881D01*
X55780686Y-36147832D01*
X55619579Y-35846422D01*
X55466587Y-35660000D01*
X171585664Y-35660000D01*
X171281971Y-35785794D01*
X170687922Y-36182725D01*
X170182725Y-36687922D01*
X169785794Y-37281971D01*
X169512383Y-37942043D01*
X169373000Y-38642772D01*
X169373000Y-39357228D01*
X169512383Y-40057957D01*
X169785794Y-40718029D01*
X170182725Y-41312078D01*
X170687922Y-41817275D01*
X171281971Y-42214206D01*
X171942043Y-42487617D01*
X172642772Y-42627000D01*
X173357228Y-42627000D01*
X174057957Y-42487617D01*
X174718029Y-42214206D01*
X175312078Y-41817275D01*
X175817275Y-41312078D01*
X176214206Y-40718029D01*
X176340000Y-40414336D01*
X176340001Y-98585667D01*
X176214206Y-98281971D01*
X175817275Y-97687922D01*
X175312078Y-97182725D01*
X174718029Y-96785794D01*
X174057957Y-96512383D01*
X173357228Y-96373000D01*
X172642772Y-96373000D01*
X171942043Y-96512383D01*
X171281971Y-96785794D01*
X170687922Y-97182725D01*
X170182725Y-97687922D01*
X169785794Y-98281971D01*
X169512383Y-98942043D01*
X169373000Y-99642772D01*
X169373000Y-100357228D01*
X169512383Y-101057957D01*
X169785794Y-101718029D01*
X170182725Y-102312078D01*
X170687922Y-102817275D01*
X171281971Y-103214206D01*
X171585664Y-103340000D01*
X41414336Y-103340000D01*
X41718029Y-103214206D01*
X42312078Y-102817275D01*
X42817275Y-102312078D01*
X43214206Y-101718029D01*
X43487617Y-101057957D01*
X43627000Y-100357228D01*
X43627000Y-99642772D01*
X43528983Y-99150000D01*
X46136928Y-99150000D01*
X46136928Y-100850000D01*
X46149188Y-100974482D01*
X46185498Y-101094180D01*
X46244463Y-101204494D01*
X46323815Y-101301185D01*
X46420506Y-101380537D01*
X46530820Y-101439502D01*
X46650518Y-101475812D01*
X46775000Y-101488072D01*
X48475000Y-101488072D01*
X48599482Y-101475812D01*
X48719180Y-101439502D01*
X48829494Y-101380537D01*
X48926185Y-101301185D01*
X49005537Y-101204494D01*
X49064502Y-101094180D01*
X49085393Y-101025313D01*
X49109866Y-101055134D01*
X49335986Y-101240706D01*
X49593966Y-101378599D01*
X49873889Y-101463513D01*
X50092050Y-101485000D01*
X50237950Y-101485000D01*
X50456111Y-101463513D01*
X50736034Y-101378599D01*
X50994014Y-101240706D01*
X51220134Y-101055134D01*
X51405706Y-100829014D01*
X51543599Y-100571034D01*
X51628513Y-100291111D01*
X51657185Y-100000000D01*
X51628513Y-99708889D01*
X51543599Y-99428966D01*
X51405706Y-99170986D01*
X51388484Y-99150000D01*
X54391928Y-99150000D01*
X54391928Y-100850000D01*
X54404188Y-100974482D01*
X54440498Y-101094180D01*
X54499463Y-101204494D01*
X54578815Y-101301185D01*
X54675506Y-101380537D01*
X54785820Y-101439502D01*
X54905518Y-101475812D01*
X55030000Y-101488072D01*
X56730000Y-101488072D01*
X56854482Y-101475812D01*
X56974180Y-101439502D01*
X57084494Y-101380537D01*
X57181185Y-101301185D01*
X57260537Y-101204494D01*
X57319502Y-101094180D01*
X57343966Y-101013534D01*
X57419731Y-101097588D01*
X57653080Y-101271641D01*
X57915901Y-101396825D01*
X58063110Y-101441476D01*
X58293000Y-101320155D01*
X58293000Y-100127000D01*
X58547000Y-100127000D01*
X58547000Y-101320155D01*
X58776890Y-101441476D01*
X58790301Y-101437408D01*
X137053000Y-101437408D01*
X137053000Y-101712592D01*
X137106686Y-101982490D01*
X137211995Y-102236727D01*
X137364880Y-102465535D01*
X137559465Y-102660120D01*
X137788273Y-102813005D01*
X138042510Y-102918314D01*
X138312408Y-102972000D01*
X138587592Y-102972000D01*
X138857490Y-102918314D01*
X139111727Y-102813005D01*
X139340535Y-102660120D01*
X139535120Y-102465535D01*
X139688005Y-102236727D01*
X139710000Y-102183627D01*
X139731995Y-102236727D01*
X139884880Y-102465535D01*
X140079465Y-102660120D01*
X140308273Y-102813005D01*
X140562510Y-102918314D01*
X140832408Y-102972000D01*
X141107592Y-102972000D01*
X141377490Y-102918314D01*
X141631727Y-102813005D01*
X141860535Y-102660120D01*
X142055120Y-102465535D01*
X142208005Y-102236727D01*
X142240000Y-102159485D01*
X142271995Y-102236727D01*
X142424880Y-102465535D01*
X142619465Y-102660120D01*
X142848273Y-102813005D01*
X143102510Y-102918314D01*
X143372408Y-102972000D01*
X143647592Y-102972000D01*
X143917490Y-102918314D01*
X144171727Y-102813005D01*
X144400535Y-102660120D01*
X144520090Y-102540565D01*
X150344040Y-102540565D01*
X150411020Y-102780656D01*
X150660048Y-102897756D01*
X150927135Y-102964023D01*
X151202017Y-102976910D01*
X151474133Y-102935922D01*
X151733023Y-102842636D01*
X151848980Y-102780656D01*
X151915960Y-102540565D01*
X151130000Y-101754605D01*
X150344040Y-102540565D01*
X144520090Y-102540565D01*
X144595120Y-102465535D01*
X144748005Y-102236727D01*
X144853314Y-101982490D01*
X144907000Y-101712592D01*
X144907000Y-101647017D01*
X149728090Y-101647017D01*
X149769078Y-101919133D01*
X149862364Y-102178023D01*
X149924344Y-102293980D01*
X150164435Y-102360960D01*
X150950395Y-101575000D01*
X151309605Y-101575000D01*
X152095565Y-102360960D01*
X152335656Y-102293980D01*
X152399485Y-102158240D01*
X152431995Y-102236727D01*
X152584880Y-102465535D01*
X152779465Y-102660120D01*
X153008273Y-102813005D01*
X153262510Y-102918314D01*
X153532408Y-102972000D01*
X153807592Y-102972000D01*
X154077490Y-102918314D01*
X154331727Y-102813005D01*
X154560535Y-102660120D01*
X154755120Y-102465535D01*
X154908005Y-102236727D01*
X155013314Y-101982490D01*
X155067000Y-101712592D01*
X155067000Y-101437408D01*
X155013314Y-101167510D01*
X154908005Y-100913273D01*
X154755120Y-100684465D01*
X154560535Y-100489880D01*
X154331727Y-100336995D01*
X154077490Y-100231686D01*
X153807592Y-100178000D01*
X153532408Y-100178000D01*
X153262510Y-100231686D01*
X153008273Y-100336995D01*
X152779465Y-100489880D01*
X152584880Y-100684465D01*
X152431995Y-100913273D01*
X152402308Y-100984943D01*
X152397636Y-100971977D01*
X152335656Y-100856020D01*
X152095565Y-100789040D01*
X151309605Y-101575000D01*
X150950395Y-101575000D01*
X150164435Y-100789040D01*
X149924344Y-100856020D01*
X149807244Y-101105048D01*
X149740977Y-101372135D01*
X149728090Y-101647017D01*
X144907000Y-101647017D01*
X144907000Y-101437408D01*
X144853314Y-101167510D01*
X144748005Y-100913273D01*
X144595120Y-100684465D01*
X144520090Y-100609435D01*
X150344040Y-100609435D01*
X151130000Y-101395395D01*
X151915960Y-100609435D01*
X151848980Y-100369344D01*
X151599952Y-100252244D01*
X151332865Y-100185977D01*
X151057983Y-100173090D01*
X150785867Y-100214078D01*
X150526977Y-100307364D01*
X150411020Y-100369344D01*
X150344040Y-100609435D01*
X144520090Y-100609435D01*
X144400535Y-100489880D01*
X144171727Y-100336995D01*
X143917490Y-100231686D01*
X143647592Y-100178000D01*
X143372408Y-100178000D01*
X143102510Y-100231686D01*
X142848273Y-100336995D01*
X142619465Y-100489880D01*
X142424880Y-100684465D01*
X142271995Y-100913273D01*
X142240000Y-100990515D01*
X142208005Y-100913273D01*
X142055120Y-100684465D01*
X141860535Y-100489880D01*
X141631727Y-100336995D01*
X141377490Y-100231686D01*
X141107592Y-100178000D01*
X140832408Y-100178000D01*
X140562510Y-100231686D01*
X140308273Y-100336995D01*
X140079465Y-100489880D01*
X139884880Y-100684465D01*
X139731995Y-100913273D01*
X139710000Y-100966373D01*
X139688005Y-100913273D01*
X139535120Y-100684465D01*
X139340535Y-100489880D01*
X139212000Y-100403995D01*
X139212000Y-99990630D01*
X140650630Y-98552000D01*
X158830601Y-98552000D01*
X158699701Y-98747905D01*
X158583989Y-99027257D01*
X158525000Y-99323816D01*
X158525000Y-99626184D01*
X158583989Y-99922743D01*
X158699701Y-100202095D01*
X158867688Y-100453505D01*
X159081495Y-100667312D01*
X159332905Y-100835299D01*
X159612257Y-100951011D01*
X159908816Y-101010000D01*
X160211184Y-101010000D01*
X160507743Y-100951011D01*
X160787095Y-100835299D01*
X161038505Y-100667312D01*
X161252312Y-100453505D01*
X161310000Y-100367169D01*
X161367688Y-100453505D01*
X161581495Y-100667312D01*
X161832905Y-100835299D01*
X162112257Y-100951011D01*
X162408816Y-101010000D01*
X162711184Y-101010000D01*
X163007743Y-100951011D01*
X163287095Y-100835299D01*
X163538505Y-100667312D01*
X163752312Y-100453505D01*
X163810000Y-100367169D01*
X163867688Y-100453505D01*
X164081495Y-100667312D01*
X164332905Y-100835299D01*
X164612257Y-100951011D01*
X164908816Y-101010000D01*
X165211184Y-101010000D01*
X165507743Y-100951011D01*
X165787095Y-100835299D01*
X166038505Y-100667312D01*
X166252312Y-100453505D01*
X166420299Y-100202095D01*
X166536011Y-99922743D01*
X166595000Y-99626184D01*
X166595000Y-99323816D01*
X166536011Y-99027257D01*
X166420299Y-98747905D01*
X166252312Y-98496495D01*
X166038505Y-98282688D01*
X165787095Y-98114701D01*
X165507743Y-97998989D01*
X165211184Y-97940000D01*
X164908816Y-97940000D01*
X164612257Y-97998989D01*
X164332905Y-98114701D01*
X164081495Y-98282688D01*
X163867688Y-98496495D01*
X163810000Y-98582831D01*
X163752312Y-98496495D01*
X163538505Y-98282688D01*
X163319179Y-98136139D01*
X163310974Y-98052830D01*
X163267402Y-97909193D01*
X163196645Y-97776816D01*
X163101422Y-97660786D01*
X163072347Y-97636925D01*
X162713076Y-97277654D01*
X162689214Y-97248578D01*
X162573184Y-97153355D01*
X162440807Y-97082598D01*
X162297170Y-97039026D01*
X162185218Y-97028000D01*
X162185215Y-97028000D01*
X162147792Y-97024314D01*
X162110369Y-97028000D01*
X140372423Y-97028000D01*
X140335000Y-97024314D01*
X140297577Y-97028000D01*
X140297574Y-97028000D01*
X140185622Y-97039026D01*
X140041985Y-97082598D01*
X140006289Y-97101678D01*
X139909607Y-97153355D01*
X139873820Y-97182725D01*
X139793578Y-97248578D01*
X139769716Y-97277654D01*
X137937649Y-99109721D01*
X137908579Y-99133578D01*
X137884722Y-99162648D01*
X137884721Y-99162649D01*
X137813355Y-99249608D01*
X137742599Y-99381985D01*
X137699027Y-99525622D01*
X137684314Y-99675000D01*
X137688001Y-99712433D01*
X137688001Y-100403995D01*
X137559465Y-100489880D01*
X137364880Y-100684465D01*
X137211995Y-100913273D01*
X137106686Y-101167510D01*
X137053000Y-101437408D01*
X58790301Y-101437408D01*
X58924099Y-101396825D01*
X59186920Y-101271641D01*
X59420269Y-101097588D01*
X59615178Y-100881355D01*
X59764157Y-100631252D01*
X59861481Y-100356891D01*
X59740814Y-100127000D01*
X58547000Y-100127000D01*
X58293000Y-100127000D01*
X58273000Y-100127000D01*
X58273000Y-99873000D01*
X58293000Y-99873000D01*
X58293000Y-98679845D01*
X58547000Y-98679845D01*
X58547000Y-99873000D01*
X59740814Y-99873000D01*
X59861481Y-99643109D01*
X59764157Y-99368748D01*
X59615178Y-99118645D01*
X59420269Y-98902412D01*
X59186920Y-98728359D01*
X58924099Y-98603175D01*
X58776890Y-98558524D01*
X58547000Y-98679845D01*
X58293000Y-98679845D01*
X58063110Y-98558524D01*
X57915901Y-98603175D01*
X57653080Y-98728359D01*
X57419731Y-98902412D01*
X57343966Y-98986466D01*
X57319502Y-98905820D01*
X57260537Y-98795506D01*
X57181185Y-98698815D01*
X57084494Y-98619463D01*
X56974180Y-98560498D01*
X56854482Y-98524188D01*
X56730000Y-98511928D01*
X55030000Y-98511928D01*
X54905518Y-98524188D01*
X54785820Y-98560498D01*
X54675506Y-98619463D01*
X54578815Y-98698815D01*
X54499463Y-98795506D01*
X54440498Y-98905820D01*
X54404188Y-99025518D01*
X54391928Y-99150000D01*
X51388484Y-99150000D01*
X51220134Y-98944866D01*
X50994014Y-98759294D01*
X50736034Y-98621401D01*
X50456111Y-98536487D01*
X50237950Y-98515000D01*
X50092050Y-98515000D01*
X49873889Y-98536487D01*
X49593966Y-98621401D01*
X49335986Y-98759294D01*
X49109866Y-98944866D01*
X49085393Y-98974687D01*
X49064502Y-98905820D01*
X49005537Y-98795506D01*
X48926185Y-98698815D01*
X48829494Y-98619463D01*
X48719180Y-98560498D01*
X48599482Y-98524188D01*
X48475000Y-98511928D01*
X46775000Y-98511928D01*
X46650518Y-98524188D01*
X46530820Y-98560498D01*
X46420506Y-98619463D01*
X46323815Y-98698815D01*
X46244463Y-98795506D01*
X46185498Y-98905820D01*
X46149188Y-99025518D01*
X46136928Y-99150000D01*
X43528983Y-99150000D01*
X43487617Y-98942043D01*
X43214206Y-98281971D01*
X42817275Y-97687922D01*
X42574335Y-97444982D01*
X64842200Y-97444982D01*
X64842200Y-98115019D01*
X64863884Y-98335177D01*
X64949575Y-98617664D01*
X65088731Y-98878006D01*
X65276003Y-99106197D01*
X65504195Y-99293469D01*
X65764537Y-99432625D01*
X66047024Y-99518316D01*
X66340800Y-99547251D01*
X66634577Y-99518316D01*
X66917064Y-99432625D01*
X67177406Y-99293469D01*
X67405597Y-99106197D01*
X67592869Y-98878006D01*
X67610800Y-98844460D01*
X67628731Y-98878006D01*
X67816003Y-99106197D01*
X68044195Y-99293469D01*
X68304537Y-99432625D01*
X68587024Y-99518316D01*
X68880800Y-99547251D01*
X69174577Y-99518316D01*
X69457064Y-99432625D01*
X69717406Y-99293469D01*
X69945597Y-99106197D01*
X70132869Y-98878006D01*
X70150800Y-98844460D01*
X70168731Y-98878006D01*
X70356003Y-99106197D01*
X70584195Y-99293469D01*
X70844537Y-99432625D01*
X71127024Y-99518316D01*
X71420800Y-99547251D01*
X71714577Y-99518316D01*
X71997064Y-99432625D01*
X72257406Y-99293469D01*
X72485597Y-99106197D01*
X72672869Y-98878006D01*
X72690800Y-98844460D01*
X72708731Y-98878006D01*
X72896003Y-99106197D01*
X73124195Y-99293469D01*
X73384537Y-99432625D01*
X73667024Y-99518316D01*
X73960800Y-99547251D01*
X74254577Y-99518316D01*
X74537064Y-99432625D01*
X74797406Y-99293469D01*
X75025597Y-99106197D01*
X75212869Y-98878006D01*
X75230800Y-98844460D01*
X75248731Y-98878006D01*
X75436003Y-99106197D01*
X75664195Y-99293469D01*
X75924537Y-99432625D01*
X76207024Y-99518316D01*
X76500800Y-99547251D01*
X76794577Y-99518316D01*
X77077064Y-99432625D01*
X77337406Y-99293469D01*
X77565597Y-99106197D01*
X77752869Y-98878006D01*
X77770800Y-98844460D01*
X77788731Y-98878006D01*
X77976003Y-99106197D01*
X78204195Y-99293469D01*
X78464537Y-99432625D01*
X78747024Y-99518316D01*
X79040800Y-99547251D01*
X79334577Y-99518316D01*
X79617064Y-99432625D01*
X79877406Y-99293469D01*
X80105597Y-99106197D01*
X80292869Y-98878006D01*
X80310800Y-98844460D01*
X80328731Y-98878006D01*
X80516003Y-99106197D01*
X80744195Y-99293469D01*
X81004537Y-99432625D01*
X81287024Y-99518316D01*
X81580800Y-99547251D01*
X81874577Y-99518316D01*
X82157064Y-99432625D01*
X82417406Y-99293469D01*
X82645597Y-99106197D01*
X82832869Y-98878006D01*
X82850800Y-98844460D01*
X82868731Y-98878006D01*
X83056003Y-99106197D01*
X83284195Y-99293469D01*
X83544537Y-99432625D01*
X83827024Y-99518316D01*
X84120800Y-99547251D01*
X84414577Y-99518316D01*
X84697064Y-99432625D01*
X84957406Y-99293469D01*
X85185597Y-99106197D01*
X85372869Y-98878006D01*
X85390800Y-98844460D01*
X85408731Y-98878006D01*
X85596003Y-99106197D01*
X85824195Y-99293469D01*
X86084537Y-99432625D01*
X86367024Y-99518316D01*
X86660800Y-99547251D01*
X86954577Y-99518316D01*
X87237064Y-99432625D01*
X87497406Y-99293469D01*
X87725597Y-99106197D01*
X87912869Y-98878006D01*
X87930800Y-98844460D01*
X87948731Y-98878006D01*
X88136003Y-99106197D01*
X88364195Y-99293469D01*
X88624537Y-99432625D01*
X88907024Y-99518316D01*
X89200800Y-99547251D01*
X89494577Y-99518316D01*
X89777064Y-99432625D01*
X90037406Y-99293469D01*
X90265597Y-99106197D01*
X90452869Y-98878006D01*
X90470800Y-98844460D01*
X90488731Y-98878006D01*
X90676003Y-99106197D01*
X90904195Y-99293469D01*
X91164537Y-99432625D01*
X91447024Y-99518316D01*
X91740800Y-99547251D01*
X92034577Y-99518316D01*
X92317064Y-99432625D01*
X92577406Y-99293469D01*
X92805597Y-99106197D01*
X92992869Y-98878006D01*
X93010800Y-98844460D01*
X93028731Y-98878006D01*
X93216003Y-99106197D01*
X93444195Y-99293469D01*
X93704537Y-99432625D01*
X93987024Y-99518316D01*
X94280800Y-99547251D01*
X94574577Y-99518316D01*
X94857064Y-99432625D01*
X95117406Y-99293469D01*
X95345597Y-99106197D01*
X95532869Y-98878006D01*
X95550800Y-98844460D01*
X95568731Y-98878006D01*
X95756003Y-99106197D01*
X95984195Y-99293469D01*
X96244537Y-99432625D01*
X96527024Y-99518316D01*
X96820800Y-99547251D01*
X97114577Y-99518316D01*
X97397064Y-99432625D01*
X97657406Y-99293469D01*
X97885597Y-99106197D01*
X98072869Y-98878006D01*
X98090800Y-98844460D01*
X98108731Y-98878006D01*
X98296003Y-99106197D01*
X98524195Y-99293469D01*
X98784537Y-99432625D01*
X99067024Y-99518316D01*
X99360800Y-99547251D01*
X99654577Y-99518316D01*
X99937064Y-99432625D01*
X100197406Y-99293469D01*
X100425597Y-99106197D01*
X100612869Y-98878006D01*
X100630800Y-98844460D01*
X100648731Y-98878006D01*
X100836003Y-99106197D01*
X101064195Y-99293469D01*
X101324537Y-99432625D01*
X101607024Y-99518316D01*
X101900800Y-99547251D01*
X102194577Y-99518316D01*
X102477064Y-99432625D01*
X102737406Y-99293469D01*
X102965597Y-99106197D01*
X103152869Y-98878006D01*
X103170800Y-98844460D01*
X103188731Y-98878006D01*
X103376003Y-99106197D01*
X103604195Y-99293469D01*
X103864537Y-99432625D01*
X104147024Y-99518316D01*
X104440800Y-99547251D01*
X104734577Y-99518316D01*
X105017064Y-99432625D01*
X105277406Y-99293469D01*
X105505597Y-99106197D01*
X105692869Y-98878006D01*
X105710800Y-98844460D01*
X105728731Y-98878006D01*
X105916003Y-99106197D01*
X106144195Y-99293469D01*
X106404537Y-99432625D01*
X106687024Y-99518316D01*
X106980800Y-99547251D01*
X107274577Y-99518316D01*
X107557064Y-99432625D01*
X107817406Y-99293469D01*
X108045597Y-99106197D01*
X108232869Y-98878006D01*
X108253907Y-98838647D01*
X108345317Y-98979574D01*
X108550932Y-99190873D01*
X108793819Y-99357998D01*
X109064643Y-99474527D01*
X109161774Y-99496358D01*
X109393800Y-99375217D01*
X109393800Y-97907000D01*
X109373800Y-97907000D01*
X109373800Y-97653000D01*
X109393800Y-97653000D01*
X109393800Y-96184783D01*
X109647800Y-96184783D01*
X109647800Y-97653000D01*
X109667800Y-97653000D01*
X109667800Y-97907000D01*
X109647800Y-97907000D01*
X109647800Y-99375217D01*
X109879826Y-99496358D01*
X109976957Y-99474527D01*
X110247781Y-99357998D01*
X110490668Y-99190873D01*
X110696283Y-98979574D01*
X110787693Y-98838647D01*
X110808731Y-98878006D01*
X110996003Y-99106197D01*
X111224195Y-99293469D01*
X111484537Y-99432625D01*
X111767024Y-99518316D01*
X112060800Y-99547251D01*
X112354577Y-99518316D01*
X112637064Y-99432625D01*
X112897406Y-99293469D01*
X113125597Y-99106197D01*
X113312869Y-98878006D01*
X113356200Y-98796940D01*
X113399531Y-98878006D01*
X113586803Y-99106197D01*
X113814995Y-99293469D01*
X114075337Y-99432625D01*
X114357824Y-99518316D01*
X114651600Y-99547251D01*
X114945377Y-99518316D01*
X115227864Y-99432625D01*
X115403085Y-99338967D01*
X123065000Y-99338967D01*
X123065000Y-99661033D01*
X123127832Y-99976912D01*
X123251082Y-100274463D01*
X123430013Y-100542252D01*
X123657748Y-100769987D01*
X123925537Y-100948918D01*
X124223088Y-101072168D01*
X124538967Y-101135000D01*
X124861033Y-101135000D01*
X125176912Y-101072168D01*
X125474463Y-100948918D01*
X125742252Y-100769987D01*
X125950000Y-100562239D01*
X126157748Y-100769987D01*
X126425537Y-100948918D01*
X126723088Y-101072168D01*
X127038967Y-101135000D01*
X127361033Y-101135000D01*
X127676912Y-101072168D01*
X127974463Y-100948918D01*
X128242252Y-100769987D01*
X128450000Y-100562239D01*
X128657748Y-100769987D01*
X128925537Y-100948918D01*
X129223088Y-101072168D01*
X129538967Y-101135000D01*
X129861033Y-101135000D01*
X130176912Y-101072168D01*
X130474463Y-100948918D01*
X130742252Y-100769987D01*
X130969987Y-100542252D01*
X131148918Y-100274463D01*
X131272168Y-99976912D01*
X131335000Y-99661033D01*
X131335000Y-99338967D01*
X131272168Y-99023088D01*
X131148918Y-98725537D01*
X130969987Y-98457748D01*
X130742252Y-98230013D01*
X130474463Y-98051082D01*
X130176912Y-97927832D01*
X129861033Y-97865000D01*
X129538967Y-97865000D01*
X129223088Y-97927832D01*
X128925537Y-98051082D01*
X128657748Y-98230013D01*
X128450000Y-98437761D01*
X128242252Y-98230013D01*
X127974463Y-98051082D01*
X127676912Y-97927832D01*
X127361033Y-97865000D01*
X127038967Y-97865000D01*
X126723088Y-97927832D01*
X126425537Y-98051082D01*
X126157748Y-98230013D01*
X125950000Y-98437761D01*
X125742252Y-98230013D01*
X125474463Y-98051082D01*
X125176912Y-97927832D01*
X124861033Y-97865000D01*
X124538967Y-97865000D01*
X124223088Y-97927832D01*
X123925537Y-98051082D01*
X123657748Y-98230013D01*
X123430013Y-98457748D01*
X123251082Y-98725537D01*
X123127832Y-99023088D01*
X123065000Y-99338967D01*
X115403085Y-99338967D01*
X115488206Y-99293469D01*
X115716397Y-99106197D01*
X115903669Y-98878006D01*
X116042825Y-98617664D01*
X116128516Y-98335176D01*
X116150200Y-98115018D01*
X116150200Y-97444981D01*
X116128516Y-97224823D01*
X116042825Y-96942336D01*
X115903669Y-96681994D01*
X115716397Y-96453803D01*
X115488205Y-96266531D01*
X115227863Y-96127375D01*
X114945376Y-96041684D01*
X114651600Y-96012749D01*
X114357823Y-96041684D01*
X114075336Y-96127375D01*
X113814994Y-96266531D01*
X113586803Y-96453803D01*
X113399531Y-96681995D01*
X113356200Y-96763061D01*
X113312869Y-96681994D01*
X113125597Y-96453803D01*
X112897405Y-96266531D01*
X112637063Y-96127375D01*
X112354576Y-96041684D01*
X112060800Y-96012749D01*
X111767023Y-96041684D01*
X111484536Y-96127375D01*
X111224194Y-96266531D01*
X110996003Y-96453803D01*
X110808731Y-96681995D01*
X110787694Y-96721353D01*
X110696283Y-96580426D01*
X110490668Y-96369127D01*
X110247781Y-96202002D01*
X109976957Y-96085473D01*
X109879826Y-96063642D01*
X109647800Y-96184783D01*
X109393800Y-96184783D01*
X109161774Y-96063642D01*
X109064643Y-96085473D01*
X108793819Y-96202002D01*
X108550932Y-96369127D01*
X108345317Y-96580426D01*
X108253907Y-96721353D01*
X108232869Y-96681994D01*
X108045597Y-96453803D01*
X107817405Y-96266531D01*
X107557063Y-96127375D01*
X107274576Y-96041684D01*
X106980800Y-96012749D01*
X106687023Y-96041684D01*
X106404536Y-96127375D01*
X106144194Y-96266531D01*
X105916003Y-96453803D01*
X105728731Y-96681995D01*
X105710800Y-96715541D01*
X105692869Y-96681994D01*
X105505597Y-96453803D01*
X105277405Y-96266531D01*
X105017063Y-96127375D01*
X104734576Y-96041684D01*
X104440800Y-96012749D01*
X104147023Y-96041684D01*
X103864536Y-96127375D01*
X103604194Y-96266531D01*
X103376003Y-96453803D01*
X103188731Y-96681995D01*
X103170800Y-96715541D01*
X103152869Y-96681994D01*
X102965597Y-96453803D01*
X102737405Y-96266531D01*
X102477063Y-96127375D01*
X102194576Y-96041684D01*
X101900800Y-96012749D01*
X101607023Y-96041684D01*
X101324536Y-96127375D01*
X101064194Y-96266531D01*
X100836003Y-96453803D01*
X100648731Y-96681995D01*
X100630800Y-96715541D01*
X100612869Y-96681994D01*
X100425597Y-96453803D01*
X100197405Y-96266531D01*
X99937063Y-96127375D01*
X99654576Y-96041684D01*
X99360800Y-96012749D01*
X99067023Y-96041684D01*
X98784536Y-96127375D01*
X98524194Y-96266531D01*
X98296003Y-96453803D01*
X98108731Y-96681995D01*
X98090800Y-96715541D01*
X98072869Y-96681994D01*
X97885597Y-96453803D01*
X97657405Y-96266531D01*
X97397063Y-96127375D01*
X97114576Y-96041684D01*
X96820800Y-96012749D01*
X96527023Y-96041684D01*
X96244536Y-96127375D01*
X95984194Y-96266531D01*
X95756003Y-96453803D01*
X95568731Y-96681995D01*
X95550800Y-96715541D01*
X95532869Y-96681994D01*
X95345597Y-96453803D01*
X95117405Y-96266531D01*
X94857063Y-96127375D01*
X94574576Y-96041684D01*
X94280800Y-96012749D01*
X93987023Y-96041684D01*
X93704536Y-96127375D01*
X93444194Y-96266531D01*
X93216003Y-96453803D01*
X93028731Y-96681995D01*
X93010800Y-96715541D01*
X92992869Y-96681994D01*
X92805597Y-96453803D01*
X92577405Y-96266531D01*
X92317063Y-96127375D01*
X92034576Y-96041684D01*
X91740800Y-96012749D01*
X91447023Y-96041684D01*
X91164536Y-96127375D01*
X90904194Y-96266531D01*
X90676003Y-96453803D01*
X90488731Y-96681995D01*
X90470800Y-96715541D01*
X90452869Y-96681994D01*
X90265597Y-96453803D01*
X90037405Y-96266531D01*
X89777063Y-96127375D01*
X89494576Y-96041684D01*
X89200800Y-96012749D01*
X88907023Y-96041684D01*
X88624536Y-96127375D01*
X88364194Y-96266531D01*
X88136003Y-96453803D01*
X87948731Y-96681995D01*
X87930800Y-96715541D01*
X87912869Y-96681994D01*
X87725597Y-96453803D01*
X87497405Y-96266531D01*
X87237063Y-96127375D01*
X86954576Y-96041684D01*
X86660800Y-96012749D01*
X86367023Y-96041684D01*
X86084536Y-96127375D01*
X85824194Y-96266531D01*
X85596003Y-96453803D01*
X85408731Y-96681995D01*
X85390800Y-96715541D01*
X85372869Y-96681994D01*
X85185597Y-96453803D01*
X84957405Y-96266531D01*
X84697063Y-96127375D01*
X84414576Y-96041684D01*
X84120800Y-96012749D01*
X83827023Y-96041684D01*
X83544536Y-96127375D01*
X83284194Y-96266531D01*
X83056003Y-96453803D01*
X82868731Y-96681995D01*
X82850800Y-96715541D01*
X82832869Y-96681994D01*
X82645597Y-96453803D01*
X82417405Y-96266531D01*
X82157063Y-96127375D01*
X81874576Y-96041684D01*
X81580800Y-96012749D01*
X81287023Y-96041684D01*
X81004536Y-96127375D01*
X80744194Y-96266531D01*
X80516003Y-96453803D01*
X80328731Y-96681995D01*
X80310800Y-96715541D01*
X80292869Y-96681994D01*
X80105597Y-96453803D01*
X79877405Y-96266531D01*
X79617063Y-96127375D01*
X79334576Y-96041684D01*
X79040800Y-96012749D01*
X78747023Y-96041684D01*
X78464536Y-96127375D01*
X78204194Y-96266531D01*
X77976003Y-96453803D01*
X77788731Y-96681995D01*
X77770800Y-96715541D01*
X77752869Y-96681994D01*
X77565597Y-96453803D01*
X77337405Y-96266531D01*
X77077063Y-96127375D01*
X76794576Y-96041684D01*
X76500800Y-96012749D01*
X76207023Y-96041684D01*
X75924536Y-96127375D01*
X75664194Y-96266531D01*
X75436003Y-96453803D01*
X75248731Y-96681995D01*
X75230800Y-96715541D01*
X75212869Y-96681994D01*
X75025597Y-96453803D01*
X74797405Y-96266531D01*
X74537063Y-96127375D01*
X74254576Y-96041684D01*
X73960800Y-96012749D01*
X73667023Y-96041684D01*
X73384536Y-96127375D01*
X73124194Y-96266531D01*
X72896003Y-96453803D01*
X72708731Y-96681995D01*
X72690800Y-96715541D01*
X72672869Y-96681994D01*
X72485597Y-96453803D01*
X72257405Y-96266531D01*
X71997063Y-96127375D01*
X71714576Y-96041684D01*
X71420800Y-96012749D01*
X71127023Y-96041684D01*
X70844536Y-96127375D01*
X70584194Y-96266531D01*
X70356003Y-96453803D01*
X70168731Y-96681995D01*
X70150800Y-96715541D01*
X70132869Y-96681994D01*
X69945597Y-96453803D01*
X69717405Y-96266531D01*
X69457063Y-96127375D01*
X69174576Y-96041684D01*
X68880800Y-96012749D01*
X68587023Y-96041684D01*
X68304536Y-96127375D01*
X68044194Y-96266531D01*
X67816003Y-96453803D01*
X67628731Y-96681995D01*
X67610800Y-96715541D01*
X67592869Y-96681994D01*
X67405597Y-96453803D01*
X67177405Y-96266531D01*
X66917063Y-96127375D01*
X66634576Y-96041684D01*
X66340800Y-96012749D01*
X66047023Y-96041684D01*
X65764536Y-96127375D01*
X65504194Y-96266531D01*
X65276003Y-96453803D01*
X65088731Y-96681995D01*
X64949575Y-96942337D01*
X64863884Y-97224824D01*
X64842200Y-97444982D01*
X42574335Y-97444982D01*
X42312078Y-97182725D01*
X41718029Y-96785794D01*
X41057957Y-96512383D01*
X40357228Y-96373000D01*
X39642772Y-96373000D01*
X38942043Y-96512383D01*
X38281971Y-96785794D01*
X37687922Y-97182725D01*
X37182725Y-97687922D01*
X36785794Y-98281971D01*
X36660000Y-98585664D01*
X36660000Y-93862408D01*
X37863000Y-93862408D01*
X37863000Y-94137592D01*
X37916686Y-94407490D01*
X38021995Y-94661727D01*
X38174880Y-94890535D01*
X38369465Y-95085120D01*
X38598273Y-95238005D01*
X38852510Y-95343314D01*
X39122408Y-95397000D01*
X39397592Y-95397000D01*
X39667490Y-95343314D01*
X39921727Y-95238005D01*
X40150535Y-95085120D01*
X40345120Y-94890535D01*
X40498005Y-94661727D01*
X40603314Y-94407490D01*
X40657000Y-94137592D01*
X40657000Y-93862408D01*
X55863000Y-93862408D01*
X55863000Y-94137592D01*
X55916686Y-94407490D01*
X56021995Y-94661727D01*
X56174880Y-94890535D01*
X56369465Y-95085120D01*
X56598273Y-95238005D01*
X56852510Y-95343314D01*
X57122408Y-95397000D01*
X57397592Y-95397000D01*
X57667490Y-95343314D01*
X57921727Y-95238005D01*
X58150535Y-95085120D01*
X58345120Y-94890535D01*
X58498005Y-94661727D01*
X58603314Y-94407490D01*
X58657000Y-94137592D01*
X58657000Y-93862408D01*
X58603314Y-93592510D01*
X58498005Y-93338273D01*
X58345120Y-93109465D01*
X58150535Y-92914880D01*
X57921727Y-92761995D01*
X57667490Y-92656686D01*
X57397592Y-92603000D01*
X57122408Y-92603000D01*
X56852510Y-92656686D01*
X56598273Y-92761995D01*
X56369465Y-92914880D01*
X56174880Y-93109465D01*
X56021995Y-93338273D01*
X55916686Y-93592510D01*
X55863000Y-93862408D01*
X40657000Y-93862408D01*
X40603314Y-93592510D01*
X40498005Y-93338273D01*
X40345120Y-93109465D01*
X40150535Y-92914880D01*
X39921727Y-92761995D01*
X39667490Y-92656686D01*
X39397592Y-92603000D01*
X39122408Y-92603000D01*
X38852510Y-92656686D01*
X38598273Y-92761995D01*
X38369465Y-92914880D01*
X38174880Y-93109465D01*
X38021995Y-93338273D01*
X37916686Y-93592510D01*
X37863000Y-93862408D01*
X36660000Y-93862408D01*
X36660000Y-82204981D01*
X64842200Y-82204981D01*
X64842200Y-82875018D01*
X64863884Y-83095176D01*
X64949575Y-83377663D01*
X65088731Y-83638005D01*
X65276003Y-83866197D01*
X65504194Y-84053469D01*
X65764536Y-84192625D01*
X66047023Y-84278316D01*
X66340800Y-84307251D01*
X66634576Y-84278316D01*
X66917063Y-84192625D01*
X67177405Y-84053469D01*
X67405597Y-83866197D01*
X67592869Y-83638006D01*
X67610800Y-83604459D01*
X67628731Y-83638005D01*
X67816003Y-83866197D01*
X68044194Y-84053469D01*
X68304536Y-84192625D01*
X68587023Y-84278316D01*
X68880800Y-84307251D01*
X69174576Y-84278316D01*
X69457063Y-84192625D01*
X69717405Y-84053469D01*
X69945597Y-83866197D01*
X70132869Y-83638006D01*
X70150800Y-83604459D01*
X70168731Y-83638005D01*
X70356003Y-83866197D01*
X70584194Y-84053469D01*
X70844536Y-84192625D01*
X71127023Y-84278316D01*
X71420800Y-84307251D01*
X71714576Y-84278316D01*
X71997063Y-84192625D01*
X72257405Y-84053469D01*
X72485597Y-83866197D01*
X72672869Y-83638006D01*
X72690800Y-83604459D01*
X72708731Y-83638005D01*
X72896003Y-83866197D01*
X73124194Y-84053469D01*
X73384536Y-84192625D01*
X73667023Y-84278316D01*
X73960800Y-84307251D01*
X74254576Y-84278316D01*
X74537063Y-84192625D01*
X74797405Y-84053469D01*
X75025597Y-83866197D01*
X75212869Y-83638006D01*
X75230800Y-83604459D01*
X75248731Y-83638005D01*
X75436003Y-83866197D01*
X75664194Y-84053469D01*
X75924536Y-84192625D01*
X76207023Y-84278316D01*
X76500800Y-84307251D01*
X76794576Y-84278316D01*
X77077063Y-84192625D01*
X77337405Y-84053469D01*
X77565597Y-83866197D01*
X77752869Y-83638006D01*
X77770800Y-83604459D01*
X77788731Y-83638005D01*
X77976003Y-83866197D01*
X78204194Y-84053469D01*
X78464536Y-84192625D01*
X78747023Y-84278316D01*
X79040800Y-84307251D01*
X79334576Y-84278316D01*
X79617063Y-84192625D01*
X79877405Y-84053469D01*
X80105597Y-83866197D01*
X80292869Y-83638006D01*
X80310800Y-83604459D01*
X80328731Y-83638005D01*
X80516003Y-83866197D01*
X80744194Y-84053469D01*
X81004536Y-84192625D01*
X81287023Y-84278316D01*
X81580800Y-84307251D01*
X81874576Y-84278316D01*
X82157063Y-84192625D01*
X82417405Y-84053469D01*
X82645597Y-83866197D01*
X82832869Y-83638006D01*
X82850800Y-83604459D01*
X82868731Y-83638005D01*
X83056003Y-83866197D01*
X83284194Y-84053469D01*
X83544536Y-84192625D01*
X83827023Y-84278316D01*
X84120800Y-84307251D01*
X84414576Y-84278316D01*
X84697063Y-84192625D01*
X84957405Y-84053469D01*
X85185597Y-83866197D01*
X85372869Y-83638006D01*
X85390800Y-83604459D01*
X85408731Y-83638005D01*
X85596003Y-83866197D01*
X85824194Y-84053469D01*
X86084536Y-84192625D01*
X86367023Y-84278316D01*
X86660800Y-84307251D01*
X86954576Y-84278316D01*
X87237063Y-84192625D01*
X87497405Y-84053469D01*
X87725597Y-83866197D01*
X87912869Y-83638006D01*
X87930800Y-83604459D01*
X87948731Y-83638005D01*
X88136003Y-83866197D01*
X88364194Y-84053469D01*
X88624536Y-84192625D01*
X88907023Y-84278316D01*
X89200800Y-84307251D01*
X89494576Y-84278316D01*
X89777063Y-84192625D01*
X90037405Y-84053469D01*
X90265597Y-83866197D01*
X90452869Y-83638006D01*
X90470800Y-83604459D01*
X90488731Y-83638005D01*
X90676003Y-83866197D01*
X90904194Y-84053469D01*
X91164536Y-84192625D01*
X91447023Y-84278316D01*
X91740800Y-84307251D01*
X92034576Y-84278316D01*
X92317063Y-84192625D01*
X92577405Y-84053469D01*
X92805597Y-83866197D01*
X92992869Y-83638006D01*
X93010800Y-83604459D01*
X93028731Y-83638005D01*
X93216003Y-83866197D01*
X93444194Y-84053469D01*
X93704536Y-84192625D01*
X93987023Y-84278316D01*
X94280800Y-84307251D01*
X94574576Y-84278316D01*
X94857063Y-84192625D01*
X95117405Y-84053469D01*
X95345597Y-83866197D01*
X95532869Y-83638006D01*
X95550800Y-83604459D01*
X95568731Y-83638005D01*
X95756003Y-83866197D01*
X95984194Y-84053469D01*
X96244536Y-84192625D01*
X96527023Y-84278316D01*
X96820800Y-84307251D01*
X97114576Y-84278316D01*
X97397063Y-84192625D01*
X97657405Y-84053469D01*
X97885597Y-83866197D01*
X98072869Y-83638006D01*
X98090800Y-83604459D01*
X98108731Y-83638005D01*
X98296003Y-83866197D01*
X98524194Y-84053469D01*
X98784536Y-84192625D01*
X99067023Y-84278316D01*
X99270086Y-84298316D01*
X100574116Y-85602346D01*
X100597978Y-85631422D01*
X100671619Y-85691857D01*
X100714007Y-85726645D01*
X100784764Y-85764465D01*
X100846385Y-85797402D01*
X100990022Y-85840974D01*
X101101974Y-85852000D01*
X101101977Y-85852000D01*
X101139400Y-85855686D01*
X101176823Y-85852000D01*
X106536928Y-85852000D01*
X106536928Y-87285000D01*
X106549188Y-87409482D01*
X106585498Y-87529180D01*
X106644463Y-87639494D01*
X106723815Y-87736185D01*
X106820506Y-87815537D01*
X106930820Y-87874502D01*
X106999687Y-87895393D01*
X106969866Y-87919866D01*
X106784294Y-88145986D01*
X106646401Y-88403966D01*
X106561487Y-88683889D01*
X106532815Y-88975000D01*
X106561487Y-89266111D01*
X106646401Y-89546034D01*
X106784294Y-89804014D01*
X106969866Y-90030134D01*
X107195986Y-90215706D01*
X107250791Y-90245000D01*
X107195986Y-90274294D01*
X106969866Y-90459866D01*
X106784294Y-90685986D01*
X106646401Y-90943966D01*
X106561487Y-91223889D01*
X106532815Y-91515000D01*
X106561487Y-91806111D01*
X106646401Y-92086034D01*
X106784294Y-92344014D01*
X106969866Y-92570134D01*
X107195986Y-92755706D01*
X107250791Y-92785000D01*
X107195986Y-92814294D01*
X106969866Y-92999866D01*
X106784294Y-93225986D01*
X106646401Y-93483966D01*
X106561487Y-93763889D01*
X106532815Y-94055000D01*
X106561487Y-94346111D01*
X106646401Y-94626034D01*
X106784294Y-94884014D01*
X106969866Y-95110134D01*
X107195986Y-95295706D01*
X107453966Y-95433599D01*
X107733889Y-95518513D01*
X107952050Y-95540000D01*
X108097950Y-95540000D01*
X108316111Y-95518513D01*
X108596034Y-95433599D01*
X108854014Y-95295706D01*
X109080134Y-95110134D01*
X109265706Y-94884014D01*
X109352034Y-94722506D01*
X109402331Y-94816606D01*
X109589603Y-95044797D01*
X109817794Y-95232069D01*
X110078136Y-95371225D01*
X110360623Y-95456916D01*
X110580781Y-95478600D01*
X111000819Y-95478600D01*
X111220977Y-95456916D01*
X111503464Y-95371225D01*
X111763806Y-95232069D01*
X111991997Y-95044797D01*
X112179269Y-94816606D01*
X112318425Y-94556264D01*
X112404116Y-94273777D01*
X112433051Y-93980000D01*
X112404116Y-93686223D01*
X112318425Y-93403736D01*
X112179269Y-93143394D01*
X111991997Y-92915203D01*
X111763806Y-92727931D01*
X111730260Y-92710000D01*
X111763806Y-92692069D01*
X111991997Y-92504797D01*
X112179269Y-92276606D01*
X112318425Y-92016264D01*
X112404116Y-91733777D01*
X112433051Y-91440000D01*
X112404116Y-91146223D01*
X112318425Y-90863736D01*
X112179269Y-90603394D01*
X111991997Y-90375203D01*
X111778513Y-90200000D01*
X119461928Y-90200000D01*
X119461928Y-93800000D01*
X119474188Y-93924482D01*
X119510498Y-94044180D01*
X119569463Y-94154494D01*
X119648815Y-94251185D01*
X119745506Y-94330537D01*
X119855820Y-94389502D01*
X119975518Y-94425812D01*
X120100000Y-94438072D01*
X122900000Y-94438072D01*
X123024482Y-94425812D01*
X123144180Y-94389502D01*
X123254494Y-94330537D01*
X123351185Y-94251185D01*
X123430537Y-94154494D01*
X123489502Y-94044180D01*
X123525812Y-93924482D01*
X123538072Y-93800000D01*
X123538072Y-90200000D01*
X130861928Y-90200000D01*
X130861928Y-93800000D01*
X130874188Y-93924482D01*
X130910498Y-94044180D01*
X130969463Y-94154494D01*
X131048815Y-94251185D01*
X131145506Y-94330537D01*
X131255820Y-94389502D01*
X131375518Y-94425812D01*
X131500000Y-94438072D01*
X134300000Y-94438072D01*
X134424482Y-94425812D01*
X134544180Y-94389502D01*
X134654494Y-94330537D01*
X134751185Y-94251185D01*
X134830537Y-94154494D01*
X134889502Y-94044180D01*
X134925812Y-93924482D01*
X134938072Y-93800000D01*
X134938072Y-92215475D01*
X155525000Y-92215475D01*
X155525000Y-92734525D01*
X155626261Y-93243601D01*
X155824893Y-93723141D01*
X156113262Y-94154715D01*
X156480285Y-94521738D01*
X156911859Y-94810107D01*
X157391399Y-95008739D01*
X157900475Y-95110000D01*
X158419525Y-95110000D01*
X158928601Y-95008739D01*
X159408141Y-94810107D01*
X159839715Y-94521738D01*
X160206738Y-94154715D01*
X160495107Y-93723141D01*
X160693739Y-93243601D01*
X160795000Y-92734525D01*
X160795000Y-92215475D01*
X164325000Y-92215475D01*
X164325000Y-92734525D01*
X164426261Y-93243601D01*
X164624893Y-93723141D01*
X164913262Y-94154715D01*
X165280285Y-94521738D01*
X165711859Y-94810107D01*
X166191399Y-95008739D01*
X166700475Y-95110000D01*
X167219525Y-95110000D01*
X167728601Y-95008739D01*
X168208141Y-94810107D01*
X168639715Y-94521738D01*
X169006738Y-94154715D01*
X169295107Y-93723141D01*
X169493739Y-93243601D01*
X169595000Y-92734525D01*
X169595000Y-92215475D01*
X169493739Y-91706399D01*
X169295107Y-91226859D01*
X169006738Y-90795285D01*
X168639715Y-90428262D01*
X168208141Y-90139893D01*
X167728601Y-89941261D01*
X167219525Y-89840000D01*
X166700475Y-89840000D01*
X166191399Y-89941261D01*
X165711859Y-90139893D01*
X165280285Y-90428262D01*
X164913262Y-90795285D01*
X164624893Y-91226859D01*
X164426261Y-91706399D01*
X164325000Y-92215475D01*
X160795000Y-92215475D01*
X160693739Y-91706399D01*
X160495107Y-91226859D01*
X160206738Y-90795285D01*
X159839715Y-90428262D01*
X159408141Y-90139893D01*
X158928601Y-89941261D01*
X158419525Y-89840000D01*
X157900475Y-89840000D01*
X157391399Y-89941261D01*
X156911859Y-90139893D01*
X156480285Y-90428262D01*
X156113262Y-90795285D01*
X155824893Y-91226859D01*
X155626261Y-91706399D01*
X155525000Y-92215475D01*
X134938072Y-92215475D01*
X134938072Y-90200000D01*
X134925812Y-90075518D01*
X134889502Y-89955820D01*
X134830537Y-89845506D01*
X134751185Y-89748815D01*
X134654494Y-89669463D01*
X134544180Y-89610498D01*
X134424482Y-89574188D01*
X134300000Y-89561928D01*
X131500000Y-89561928D01*
X131375518Y-89574188D01*
X131255820Y-89610498D01*
X131145506Y-89669463D01*
X131048815Y-89748815D01*
X130969463Y-89845506D01*
X130910498Y-89955820D01*
X130874188Y-90075518D01*
X130861928Y-90200000D01*
X123538072Y-90200000D01*
X123525812Y-90075518D01*
X123489502Y-89955820D01*
X123430537Y-89845506D01*
X123351185Y-89748815D01*
X123254494Y-89669463D01*
X123144180Y-89610498D01*
X123024482Y-89574188D01*
X122900000Y-89561928D01*
X120100000Y-89561928D01*
X119975518Y-89574188D01*
X119855820Y-89610498D01*
X119745506Y-89669463D01*
X119648815Y-89748815D01*
X119569463Y-89845506D01*
X119510498Y-89955820D01*
X119474188Y-90075518D01*
X119461928Y-90200000D01*
X111778513Y-90200000D01*
X111763806Y-90187931D01*
X111722634Y-90165924D01*
X111769814Y-90140706D01*
X111995934Y-89955134D01*
X112181506Y-89729014D01*
X112319399Y-89471034D01*
X112404313Y-89191111D01*
X112432985Y-88900000D01*
X112404313Y-88608889D01*
X112319399Y-88328966D01*
X112181506Y-88070986D01*
X111995934Y-87844866D01*
X111769814Y-87659294D01*
X111722634Y-87634076D01*
X111763806Y-87612069D01*
X111991997Y-87424797D01*
X112179269Y-87196606D01*
X112318425Y-86936264D01*
X112404116Y-86653777D01*
X112433051Y-86360000D01*
X112404116Y-86066223D01*
X112339133Y-85852000D01*
X119417426Y-85852000D01*
X119529378Y-85840974D01*
X119576763Y-85826600D01*
X120873817Y-85826600D01*
X120910000Y-85830164D01*
X120946183Y-85826600D01*
X120946186Y-85826600D01*
X121054399Y-85815942D01*
X121193249Y-85773822D01*
X121321213Y-85705424D01*
X121433375Y-85613375D01*
X121456446Y-85585263D01*
X122202742Y-84838967D01*
X123065000Y-84838967D01*
X123065000Y-85161033D01*
X123127832Y-85476912D01*
X123251082Y-85774463D01*
X123430013Y-86042252D01*
X123657748Y-86269987D01*
X123925537Y-86448918D01*
X124223088Y-86572168D01*
X124538967Y-86635000D01*
X124861033Y-86635000D01*
X125176912Y-86572168D01*
X125474463Y-86448918D01*
X125742252Y-86269987D01*
X125969987Y-86042252D01*
X126148918Y-85774463D01*
X126272168Y-85476912D01*
X126335000Y-85161033D01*
X126335000Y-84838967D01*
X128065000Y-84838967D01*
X128065000Y-85161033D01*
X128127832Y-85476912D01*
X128251082Y-85774463D01*
X128430013Y-86042252D01*
X128657748Y-86269987D01*
X128925537Y-86448918D01*
X129223088Y-86572168D01*
X129538967Y-86635000D01*
X129861033Y-86635000D01*
X130176912Y-86572168D01*
X130474463Y-86448918D01*
X130742252Y-86269987D01*
X130969987Y-86042252D01*
X131148918Y-85774463D01*
X131272168Y-85476912D01*
X131335000Y-85161033D01*
X131335000Y-84838967D01*
X131272168Y-84523088D01*
X131148918Y-84225537D01*
X130969987Y-83957748D01*
X130742252Y-83730013D01*
X130474463Y-83551082D01*
X130176912Y-83427832D01*
X129861033Y-83365000D01*
X129538967Y-83365000D01*
X129223088Y-83427832D01*
X128925537Y-83551082D01*
X128657748Y-83730013D01*
X128430013Y-83957748D01*
X128251082Y-84225537D01*
X128127832Y-84523088D01*
X128065000Y-84838967D01*
X126335000Y-84838967D01*
X126272168Y-84523088D01*
X126148918Y-84225537D01*
X125969987Y-83957748D01*
X125742252Y-83730013D01*
X125474463Y-83551082D01*
X125176912Y-83427832D01*
X124861033Y-83365000D01*
X124538967Y-83365000D01*
X124223088Y-83427832D01*
X123925537Y-83551082D01*
X123657748Y-83730013D01*
X123430013Y-83957748D01*
X123251082Y-84225537D01*
X123127832Y-84523088D01*
X123065000Y-84838967D01*
X122202742Y-84838967D01*
X124604301Y-82437408D01*
X137053000Y-82437408D01*
X137053000Y-82712592D01*
X137106686Y-82982490D01*
X137211995Y-83236727D01*
X137364880Y-83465535D01*
X137559465Y-83660120D01*
X137788273Y-83813005D01*
X138042510Y-83918314D01*
X138312408Y-83972000D01*
X138587592Y-83972000D01*
X138857490Y-83918314D01*
X139111727Y-83813005D01*
X139340535Y-83660120D01*
X139535120Y-83465535D01*
X139688005Y-83236727D01*
X139710000Y-83183627D01*
X139731995Y-83236727D01*
X139884880Y-83465535D01*
X140079465Y-83660120D01*
X140308273Y-83813005D01*
X140562510Y-83918314D01*
X140832408Y-83972000D01*
X141107592Y-83972000D01*
X141377490Y-83918314D01*
X141631727Y-83813005D01*
X141860535Y-83660120D01*
X142055120Y-83465535D01*
X142208005Y-83236727D01*
X142313314Y-82982490D01*
X142367000Y-82712592D01*
X142367000Y-82437408D01*
X149733000Y-82437408D01*
X149733000Y-82712592D01*
X149786686Y-82982490D01*
X149891995Y-83236727D01*
X150044880Y-83465535D01*
X150239465Y-83660120D01*
X150468273Y-83813005D01*
X150722510Y-83918314D01*
X150992408Y-83972000D01*
X151267592Y-83972000D01*
X151537490Y-83918314D01*
X151791727Y-83813005D01*
X152020535Y-83660120D01*
X152215120Y-83465535D01*
X152368005Y-83236727D01*
X152400000Y-83159485D01*
X152431995Y-83236727D01*
X152584880Y-83465535D01*
X152779465Y-83660120D01*
X153008273Y-83813005D01*
X153262510Y-83918314D01*
X153532408Y-83972000D01*
X153807592Y-83972000D01*
X154077490Y-83918314D01*
X154331727Y-83813005D01*
X154560535Y-83660120D01*
X154755120Y-83465535D01*
X154908005Y-83236727D01*
X155013314Y-82982490D01*
X155067000Y-82712592D01*
X155067000Y-82437408D01*
X155013314Y-82167510D01*
X154908005Y-81913273D01*
X154755120Y-81684465D01*
X154560535Y-81489880D01*
X154331727Y-81336995D01*
X154077490Y-81231686D01*
X153807592Y-81178000D01*
X153532408Y-81178000D01*
X153262510Y-81231686D01*
X153008273Y-81336995D01*
X152779465Y-81489880D01*
X152584880Y-81684465D01*
X152431995Y-81913273D01*
X152400000Y-81990515D01*
X152368005Y-81913273D01*
X152215120Y-81684465D01*
X152020535Y-81489880D01*
X151791727Y-81336995D01*
X151537490Y-81231686D01*
X151267592Y-81178000D01*
X150992408Y-81178000D01*
X150722510Y-81231686D01*
X150468273Y-81336995D01*
X150239465Y-81489880D01*
X150044880Y-81684465D01*
X149891995Y-81913273D01*
X149786686Y-82167510D01*
X149733000Y-82437408D01*
X142367000Y-82437408D01*
X142313314Y-82167510D01*
X142208005Y-81913273D01*
X142055120Y-81684465D01*
X141860535Y-81489880D01*
X141631727Y-81336995D01*
X141377490Y-81231686D01*
X141107592Y-81178000D01*
X140832408Y-81178000D01*
X140562510Y-81231686D01*
X140308273Y-81336995D01*
X140079465Y-81489880D01*
X139884880Y-81684465D01*
X139731995Y-81913273D01*
X139710000Y-81966373D01*
X139688005Y-81913273D01*
X139535120Y-81684465D01*
X139340535Y-81489880D01*
X139111727Y-81336995D01*
X138857490Y-81231686D01*
X138587592Y-81178000D01*
X138312408Y-81178000D01*
X138042510Y-81231686D01*
X137788273Y-81336995D01*
X137559465Y-81489880D01*
X137364880Y-81684465D01*
X137211995Y-81913273D01*
X137106686Y-82167510D01*
X137053000Y-82437408D01*
X124604301Y-82437408D01*
X124881725Y-82159985D01*
X124925392Y-82136645D01*
X125012351Y-82065279D01*
X125852351Y-81225280D01*
X125881422Y-81201422D01*
X125976645Y-81085392D01*
X126047402Y-80953015D01*
X126090974Y-80809378D01*
X126102000Y-80697426D01*
X126102000Y-80697424D01*
X126105686Y-80660001D01*
X126102000Y-80622578D01*
X126102000Y-80219832D01*
X126141101Y-80198932D01*
X126359608Y-80019608D01*
X126538932Y-79801101D01*
X126672182Y-79551808D01*
X126754236Y-79281309D01*
X126781943Y-79000000D01*
X126768023Y-78858665D01*
X134065000Y-78858665D01*
X134065000Y-79141335D01*
X134120147Y-79418574D01*
X134228320Y-79679727D01*
X134385363Y-79914759D01*
X134585241Y-80114637D01*
X134820273Y-80271680D01*
X135081426Y-80379853D01*
X135358665Y-80435000D01*
X135641335Y-80435000D01*
X135918574Y-80379853D01*
X136179727Y-80271680D01*
X136414759Y-80114637D01*
X136614637Y-79914759D01*
X136771680Y-79679727D01*
X136879853Y-79418574D01*
X136935000Y-79141335D01*
X136935000Y-78858665D01*
X136879853Y-78581426D01*
X136771680Y-78320273D01*
X136614637Y-78085241D01*
X136414759Y-77885363D01*
X136179727Y-77728320D01*
X135918574Y-77620147D01*
X135641335Y-77565000D01*
X135358665Y-77565000D01*
X135081426Y-77620147D01*
X134820273Y-77728320D01*
X134585241Y-77885363D01*
X134385363Y-78085241D01*
X134228320Y-78320273D01*
X134120147Y-78581426D01*
X134065000Y-78858665D01*
X126768023Y-78858665D01*
X126754236Y-78718691D01*
X126672182Y-78448192D01*
X126538932Y-78198899D01*
X126359608Y-77980392D01*
X126141101Y-77801068D01*
X125891808Y-77667818D01*
X125621309Y-77585764D01*
X125410492Y-77565000D01*
X125269508Y-77565000D01*
X125058691Y-77585764D01*
X124788192Y-77667818D01*
X124538899Y-77801068D01*
X124320392Y-77980392D01*
X124141068Y-78198899D01*
X124007818Y-78448192D01*
X123925764Y-78718691D01*
X123898057Y-79000000D01*
X123925764Y-79281309D01*
X124007818Y-79551808D01*
X124141068Y-79801101D01*
X124320392Y-80019608D01*
X124538899Y-80198932D01*
X124578001Y-80219832D01*
X124578001Y-80344368D01*
X124111100Y-80811270D01*
X124048788Y-80844576D01*
X123936626Y-80936626D01*
X123844576Y-81048788D01*
X123776178Y-81176753D01*
X123773845Y-81184446D01*
X120604891Y-84353400D01*
X119576763Y-84353400D01*
X119529378Y-84339026D01*
X119417426Y-84328000D01*
X101455030Y-84328000D01*
X101314050Y-84187020D01*
X101324536Y-84192625D01*
X101607023Y-84278316D01*
X101900800Y-84307251D01*
X102194576Y-84278316D01*
X102477063Y-84192625D01*
X102737405Y-84053469D01*
X102965597Y-83866197D01*
X103152869Y-83638006D01*
X103170800Y-83604459D01*
X103188731Y-83638005D01*
X103376003Y-83866197D01*
X103604194Y-84053469D01*
X103864536Y-84192625D01*
X104147023Y-84278316D01*
X104440800Y-84307251D01*
X104734576Y-84278316D01*
X105017063Y-84192625D01*
X105277405Y-84053469D01*
X105505597Y-83866197D01*
X105692869Y-83638006D01*
X105710800Y-83604459D01*
X105728731Y-83638005D01*
X105916003Y-83866197D01*
X106144194Y-84053469D01*
X106404536Y-84192625D01*
X106687023Y-84278316D01*
X106980800Y-84307251D01*
X107274576Y-84278316D01*
X107557063Y-84192625D01*
X107817405Y-84053469D01*
X108045597Y-83866197D01*
X108232869Y-83638006D01*
X108250800Y-83604459D01*
X108268731Y-83638005D01*
X108456003Y-83866197D01*
X108684194Y-84053469D01*
X108944536Y-84192625D01*
X109227023Y-84278316D01*
X109520800Y-84307251D01*
X109814576Y-84278316D01*
X110097063Y-84192625D01*
X110357405Y-84053469D01*
X110585597Y-83866197D01*
X110772869Y-83638006D01*
X110790800Y-83604459D01*
X110808731Y-83638005D01*
X110996003Y-83866197D01*
X111224194Y-84053469D01*
X111484536Y-84192625D01*
X111767023Y-84278316D01*
X112060800Y-84307251D01*
X112354576Y-84278316D01*
X112637063Y-84192625D01*
X112897405Y-84053469D01*
X113125597Y-83866197D01*
X113132214Y-83858135D01*
X113147698Y-83909180D01*
X113206663Y-84019494D01*
X113286015Y-84116185D01*
X113382706Y-84195537D01*
X113493020Y-84254502D01*
X113612718Y-84290812D01*
X113737200Y-84303072D01*
X115464400Y-84303072D01*
X115588882Y-84290812D01*
X115708580Y-84254502D01*
X115818894Y-84195537D01*
X115915585Y-84116185D01*
X115994937Y-84019494D01*
X116053902Y-83909180D01*
X116090212Y-83789482D01*
X116102472Y-83665000D01*
X116102472Y-81415000D01*
X116090212Y-81290518D01*
X116053902Y-81170820D01*
X115994937Y-81060506D01*
X115915585Y-80963815D01*
X115818894Y-80884463D01*
X115708580Y-80825498D01*
X115588882Y-80789188D01*
X115464400Y-80776928D01*
X113737200Y-80776928D01*
X113612718Y-80789188D01*
X113493020Y-80825498D01*
X113382706Y-80884463D01*
X113286015Y-80963815D01*
X113206663Y-81060506D01*
X113147698Y-81170820D01*
X113132214Y-81221865D01*
X113125597Y-81213803D01*
X112897406Y-81026531D01*
X112637064Y-80887375D01*
X112354577Y-80801684D01*
X112060800Y-80772749D01*
X111767024Y-80801684D01*
X111484537Y-80887375D01*
X111224195Y-81026531D01*
X110996003Y-81213803D01*
X110808731Y-81441994D01*
X110790800Y-81475540D01*
X110772869Y-81441994D01*
X110585597Y-81213803D01*
X110357406Y-81026531D01*
X110097064Y-80887375D01*
X109814577Y-80801684D01*
X109520800Y-80772749D01*
X109227024Y-80801684D01*
X108944537Y-80887375D01*
X108684195Y-81026531D01*
X108456003Y-81213803D01*
X108268731Y-81441994D01*
X108250800Y-81475540D01*
X108232869Y-81441994D01*
X108045597Y-81213803D01*
X107817406Y-81026531D01*
X107557064Y-80887375D01*
X107274577Y-80801684D01*
X106980800Y-80772749D01*
X106687024Y-80801684D01*
X106404537Y-80887375D01*
X106144195Y-81026531D01*
X105916003Y-81213803D01*
X105728731Y-81441994D01*
X105710800Y-81475540D01*
X105692869Y-81441994D01*
X105505597Y-81213803D01*
X105277406Y-81026531D01*
X105017064Y-80887375D01*
X104734577Y-80801684D01*
X104440800Y-80772749D01*
X104147024Y-80801684D01*
X103864537Y-80887375D01*
X103604195Y-81026531D01*
X103376003Y-81213803D01*
X103188731Y-81441994D01*
X103170800Y-81475540D01*
X103152869Y-81441994D01*
X102965597Y-81213803D01*
X102737406Y-81026531D01*
X102477064Y-80887375D01*
X102362000Y-80852471D01*
X102362000Y-79741263D01*
X117873000Y-79741263D01*
X117873000Y-80258737D01*
X117973954Y-80766268D01*
X118171983Y-81244351D01*
X118459476Y-81674615D01*
X118825385Y-82040524D01*
X119255649Y-82328017D01*
X119733732Y-82526046D01*
X120241263Y-82627000D01*
X120758737Y-82627000D01*
X121266268Y-82526046D01*
X121744351Y-82328017D01*
X122174615Y-82040524D01*
X122540524Y-81674615D01*
X122828017Y-81244351D01*
X123026046Y-80766268D01*
X123127000Y-80258737D01*
X123127000Y-79741263D01*
X123026046Y-79233732D01*
X122828017Y-78755649D01*
X122540524Y-78325385D01*
X122174615Y-77959476D01*
X121744351Y-77671983D01*
X121266268Y-77473954D01*
X120758737Y-77373000D01*
X120241263Y-77373000D01*
X119733732Y-77473954D01*
X119255649Y-77671983D01*
X118825385Y-77959476D01*
X118459476Y-78325385D01*
X118171983Y-78755649D01*
X117973954Y-79233732D01*
X117873000Y-79741263D01*
X102362000Y-79741263D01*
X102362000Y-76819761D01*
X102466604Y-76663210D01*
X102540320Y-76485243D01*
X102577900Y-76296315D01*
X102577900Y-76103685D01*
X102540320Y-75914757D01*
X102466604Y-75736790D01*
X102359585Y-75576625D01*
X102223375Y-75440415D01*
X102063210Y-75333396D01*
X101885243Y-75259680D01*
X101696315Y-75222100D01*
X101503685Y-75222100D01*
X101314757Y-75259680D01*
X101136790Y-75333396D01*
X100976625Y-75440415D01*
X100840415Y-75576625D01*
X100733396Y-75736790D01*
X100659680Y-75914757D01*
X100622100Y-76103685D01*
X100622100Y-76296315D01*
X100659680Y-76485243D01*
X100733396Y-76663210D01*
X100838000Y-76819761D01*
X100838001Y-81212163D01*
X100836003Y-81213803D01*
X100648731Y-81441994D01*
X100630800Y-81475540D01*
X100612869Y-81441994D01*
X100425597Y-81213803D01*
X100197406Y-81026531D01*
X99937064Y-80887375D01*
X99654577Y-80801684D01*
X99360800Y-80772749D01*
X99067024Y-80801684D01*
X98784537Y-80887375D01*
X98524195Y-81026531D01*
X98296003Y-81213803D01*
X98108731Y-81441994D01*
X98090800Y-81475540D01*
X98072869Y-81441994D01*
X97885597Y-81213803D01*
X97657406Y-81026531D01*
X97397064Y-80887375D01*
X97114577Y-80801684D01*
X96820800Y-80772749D01*
X96527024Y-80801684D01*
X96244537Y-80887375D01*
X95984195Y-81026531D01*
X95756003Y-81213803D01*
X95568731Y-81441994D01*
X95550800Y-81475540D01*
X95532869Y-81441994D01*
X95345597Y-81213803D01*
X95117406Y-81026531D01*
X94857064Y-80887375D01*
X94574577Y-80801684D01*
X94492800Y-80793630D01*
X94492800Y-69144830D01*
X111017630Y-52620000D01*
X132872749Y-52620000D01*
X132901684Y-52913777D01*
X132987375Y-53196264D01*
X133126531Y-53456606D01*
X133313803Y-53684797D01*
X133541994Y-53872069D01*
X133575540Y-53890000D01*
X133541994Y-53907931D01*
X133313803Y-54095203D01*
X133126531Y-54323394D01*
X132987375Y-54583736D01*
X132901684Y-54866223D01*
X132872749Y-55160000D01*
X132901684Y-55453777D01*
X132987375Y-55736264D01*
X133126531Y-55996606D01*
X133313803Y-56224797D01*
X133541994Y-56412069D01*
X133575540Y-56430000D01*
X133541994Y-56447931D01*
X133313803Y-56635203D01*
X133126531Y-56863394D01*
X132987375Y-57123736D01*
X132901684Y-57406223D01*
X132872749Y-57700000D01*
X132901684Y-57993777D01*
X132987375Y-58276264D01*
X133126531Y-58536606D01*
X133313803Y-58764797D01*
X133541994Y-58952069D01*
X133575540Y-58970000D01*
X133541994Y-58987931D01*
X133313803Y-59175203D01*
X133126531Y-59403394D01*
X132987375Y-59663736D01*
X132901684Y-59946223D01*
X132872749Y-60240000D01*
X132901684Y-60533777D01*
X132987375Y-60816264D01*
X133126531Y-61076606D01*
X133313803Y-61304797D01*
X133541994Y-61492069D01*
X133802336Y-61631225D01*
X134084823Y-61716916D01*
X134304981Y-61738600D01*
X134975019Y-61738600D01*
X135195177Y-61716916D01*
X135477664Y-61631225D01*
X135738006Y-61492069D01*
X135966197Y-61304797D01*
X136153469Y-61076606D01*
X136292625Y-60816264D01*
X136378316Y-60533777D01*
X136407251Y-60240000D01*
X136378316Y-59946223D01*
X136292625Y-59663736D01*
X136153469Y-59403394D01*
X135966197Y-59175203D01*
X135738006Y-58987931D01*
X135704460Y-58970000D01*
X135738006Y-58952069D01*
X135966197Y-58764797D01*
X136153469Y-58536606D01*
X136292625Y-58276264D01*
X136378316Y-57993777D01*
X136407251Y-57700000D01*
X136378316Y-57406223D01*
X136292625Y-57123736D01*
X136153469Y-56863394D01*
X135966197Y-56635203D01*
X135738006Y-56447931D01*
X135704460Y-56430000D01*
X135738006Y-56412069D01*
X135966197Y-56224797D01*
X136153469Y-55996606D01*
X136292625Y-55736264D01*
X136378316Y-55453777D01*
X136407251Y-55160000D01*
X136378316Y-54866223D01*
X136292625Y-54583736D01*
X136153469Y-54323394D01*
X135966197Y-54095203D01*
X135738006Y-53907931D01*
X135704460Y-53890000D01*
X135738006Y-53872069D01*
X135966197Y-53684797D01*
X136153469Y-53456606D01*
X136292625Y-53196264D01*
X136378316Y-52913777D01*
X136407251Y-52620000D01*
X136378316Y-52326223D01*
X136292625Y-52043736D01*
X136153469Y-51783394D01*
X135966197Y-51555203D01*
X135958135Y-51548586D01*
X136009180Y-51533102D01*
X136119494Y-51474137D01*
X136216185Y-51394785D01*
X136295537Y-51298094D01*
X136354502Y-51187780D01*
X136390812Y-51068082D01*
X136403072Y-50943600D01*
X136403072Y-49216400D01*
X136390812Y-49091918D01*
X136354502Y-48972220D01*
X136295537Y-48861906D01*
X136216185Y-48765215D01*
X136119494Y-48685863D01*
X136009180Y-48626898D01*
X135889482Y-48590588D01*
X135765000Y-48578328D01*
X133515000Y-48578328D01*
X133390518Y-48590588D01*
X133270820Y-48626898D01*
X133160506Y-48685863D01*
X133063815Y-48765215D01*
X132984463Y-48861906D01*
X132925498Y-48972220D01*
X132889188Y-49091918D01*
X132876928Y-49216400D01*
X132876928Y-50943600D01*
X132889188Y-51068082D01*
X132925498Y-51187780D01*
X132984463Y-51298094D01*
X133063815Y-51394785D01*
X133160506Y-51474137D01*
X133270820Y-51533102D01*
X133321865Y-51548586D01*
X133313803Y-51555203D01*
X133126531Y-51783394D01*
X132987375Y-52043736D01*
X132901684Y-52326223D01*
X132872749Y-52620000D01*
X111017630Y-52620000D01*
X111860579Y-51777052D01*
X112045243Y-51740320D01*
X112223210Y-51666604D01*
X112383375Y-51559585D01*
X112519585Y-51423375D01*
X112626604Y-51263210D01*
X112700320Y-51085243D01*
X112737900Y-50896315D01*
X112737900Y-50703685D01*
X112700320Y-50514757D01*
X112626604Y-50336790D01*
X112519585Y-50176625D01*
X112383375Y-50040415D01*
X112223210Y-49933396D01*
X112045243Y-49859680D01*
X111856315Y-49822100D01*
X111663685Y-49822100D01*
X111474757Y-49859680D01*
X111296790Y-49933396D01*
X111136625Y-50040415D01*
X111000415Y-50176625D01*
X110893396Y-50336790D01*
X110819680Y-50514757D01*
X110782948Y-50699421D01*
X93218454Y-68263916D01*
X93189378Y-68287778D01*
X93133783Y-68355522D01*
X93094155Y-68403808D01*
X93056335Y-68474565D01*
X93023398Y-68536186D01*
X92979826Y-68679823D01*
X92968800Y-68791774D01*
X92965114Y-68829200D01*
X92968800Y-68866623D01*
X92968801Y-81412667D01*
X92805597Y-81213803D01*
X92577406Y-81026531D01*
X92317064Y-80887375D01*
X92034577Y-80801684D01*
X91740800Y-80772749D01*
X91447024Y-80801684D01*
X91164537Y-80887375D01*
X90904195Y-81026531D01*
X90676003Y-81213803D01*
X90488731Y-81441994D01*
X90470800Y-81475540D01*
X90452869Y-81441994D01*
X90265597Y-81213803D01*
X90037406Y-81026531D01*
X89777064Y-80887375D01*
X89494577Y-80801684D01*
X89412800Y-80793630D01*
X89412800Y-70908223D01*
X89416486Y-70870800D01*
X89412800Y-70833374D01*
X89401774Y-70721422D01*
X89358202Y-70577785D01*
X89325265Y-70516164D01*
X89287445Y-70445407D01*
X89252657Y-70403019D01*
X89192222Y-70329378D01*
X89163146Y-70305516D01*
X86071315Y-67213685D01*
X90462100Y-67213685D01*
X90462100Y-67406315D01*
X90499680Y-67595243D01*
X90573396Y-67773210D01*
X90680415Y-67933375D01*
X90816625Y-68069585D01*
X90976790Y-68176604D01*
X91154757Y-68250320D01*
X91343685Y-68287900D01*
X91536315Y-68287900D01*
X91725243Y-68250320D01*
X91903210Y-68176604D01*
X92063375Y-68069585D01*
X92199585Y-67933375D01*
X92306604Y-67773210D01*
X92380320Y-67595243D01*
X92417052Y-67410578D01*
X100430578Y-59397052D01*
X100615243Y-59360320D01*
X100793210Y-59286604D01*
X100953375Y-59179585D01*
X101089585Y-59043375D01*
X101196604Y-58883210D01*
X101270320Y-58705243D01*
X101307900Y-58516315D01*
X101307900Y-58323685D01*
X101270320Y-58134757D01*
X101196604Y-57956790D01*
X101089585Y-57796625D01*
X100953375Y-57660415D01*
X100793210Y-57553396D01*
X100615243Y-57479680D01*
X100426315Y-57442100D01*
X100233685Y-57442100D01*
X100044757Y-57479680D01*
X99866790Y-57553396D01*
X99706625Y-57660415D01*
X99570415Y-57796625D01*
X99463396Y-57956790D01*
X99389680Y-58134757D01*
X99352948Y-58319422D01*
X91339422Y-66332948D01*
X91154757Y-66369680D01*
X90976790Y-66443396D01*
X90816625Y-66550415D01*
X90680415Y-66686625D01*
X90573396Y-66846790D01*
X90499680Y-67024757D01*
X90462100Y-67213685D01*
X86071315Y-67213685D01*
X84939630Y-66082000D01*
X88312577Y-66082000D01*
X88350000Y-66085686D01*
X88387423Y-66082000D01*
X88387426Y-66082000D01*
X88499378Y-66070974D01*
X88643015Y-66027402D01*
X88775392Y-65956645D01*
X88891422Y-65861422D01*
X88915284Y-65832346D01*
X97890579Y-56857052D01*
X98075243Y-56820320D01*
X98253210Y-56746604D01*
X98413375Y-56639585D01*
X98549585Y-56503375D01*
X98656604Y-56343210D01*
X98730320Y-56165243D01*
X98767900Y-55976315D01*
X98767900Y-55783685D01*
X98730320Y-55594757D01*
X98656604Y-55416790D01*
X98549585Y-55256625D01*
X98413375Y-55120415D01*
X98253210Y-55013396D01*
X98075243Y-54939680D01*
X97886315Y-54902100D01*
X97693685Y-54902100D01*
X97504757Y-54939680D01*
X97326790Y-55013396D01*
X97166625Y-55120415D01*
X97030415Y-55256625D01*
X96923396Y-55416790D01*
X96849680Y-55594757D01*
X96812948Y-55779421D01*
X88034370Y-64558000D01*
X83137423Y-64558000D01*
X83100000Y-64554314D01*
X83062577Y-64558000D01*
X72673347Y-64558000D01*
X72633469Y-64483394D01*
X72446197Y-64255203D01*
X72218006Y-64067931D01*
X72178647Y-64046893D01*
X72319574Y-63955483D01*
X72530873Y-63749868D01*
X72697998Y-63506981D01*
X72814527Y-63236157D01*
X72836358Y-63139026D01*
X72715217Y-62907000D01*
X71247000Y-62907000D01*
X71247000Y-62927000D01*
X70993000Y-62927000D01*
X70993000Y-62907000D01*
X69524783Y-62907000D01*
X69403642Y-63139026D01*
X69425473Y-63236157D01*
X69542002Y-63506981D01*
X69709127Y-63749868D01*
X69920426Y-63955483D01*
X70061353Y-64046893D01*
X70021994Y-64067931D01*
X69793803Y-64255203D01*
X69606531Y-64483394D01*
X69467375Y-64743736D01*
X69381684Y-65026223D01*
X69352749Y-65320000D01*
X69381684Y-65613777D01*
X69467375Y-65896264D01*
X69606531Y-66156606D01*
X69793803Y-66384797D01*
X70021994Y-66572069D01*
X70282336Y-66711225D01*
X70564823Y-66796916D01*
X70784981Y-66818600D01*
X71455019Y-66818600D01*
X71675177Y-66796916D01*
X71957664Y-66711225D01*
X72218006Y-66572069D01*
X72446197Y-66384797D01*
X72633469Y-66156606D01*
X72673347Y-66082000D01*
X82784370Y-66082000D01*
X87888801Y-71186431D01*
X87888800Y-81412666D01*
X87725597Y-81213803D01*
X87497406Y-81026531D01*
X87237064Y-80887375D01*
X86954577Y-80801684D01*
X86660800Y-80772749D01*
X86367024Y-80801684D01*
X86084537Y-80887375D01*
X85824195Y-81026531D01*
X85596003Y-81213803D01*
X85408731Y-81441994D01*
X85390800Y-81475540D01*
X85372869Y-81441994D01*
X85185597Y-81213803D01*
X84957406Y-81026531D01*
X84697064Y-80887375D01*
X84414577Y-80801684D01*
X84120800Y-80772749D01*
X83827024Y-80801684D01*
X83544537Y-80887375D01*
X83284195Y-81026531D01*
X83056003Y-81213803D01*
X82868731Y-81441994D01*
X82850800Y-81475540D01*
X82832869Y-81441994D01*
X82645597Y-81213803D01*
X82417406Y-81026531D01*
X82157064Y-80887375D01*
X81874577Y-80801684D01*
X81580800Y-80772749D01*
X81287024Y-80801684D01*
X81004537Y-80887375D01*
X80744195Y-81026531D01*
X80516003Y-81213803D01*
X80328731Y-81441994D01*
X80310800Y-81475540D01*
X80292869Y-81441994D01*
X80105597Y-81213803D01*
X79877406Y-81026531D01*
X79617064Y-80887375D01*
X79334577Y-80801684D01*
X79040800Y-80772749D01*
X78747024Y-80801684D01*
X78464537Y-80887375D01*
X78204195Y-81026531D01*
X77976003Y-81213803D01*
X77788731Y-81441994D01*
X77770800Y-81475540D01*
X77752869Y-81441994D01*
X77565597Y-81213803D01*
X77337406Y-81026531D01*
X77077064Y-80887375D01*
X76794577Y-80801684D01*
X76500800Y-80772749D01*
X76207024Y-80801684D01*
X75924537Y-80887375D01*
X75664195Y-81026531D01*
X75436003Y-81213803D01*
X75248731Y-81441994D01*
X75230800Y-81475540D01*
X75212869Y-81441994D01*
X75025597Y-81213803D01*
X74797406Y-81026531D01*
X74537064Y-80887375D01*
X74254577Y-80801684D01*
X73960800Y-80772749D01*
X73667024Y-80801684D01*
X73384537Y-80887375D01*
X73124195Y-81026531D01*
X72896003Y-81213803D01*
X72708731Y-81441994D01*
X72690800Y-81475540D01*
X72672869Y-81441994D01*
X72485597Y-81213803D01*
X72257406Y-81026531D01*
X71997064Y-80887375D01*
X71714577Y-80801684D01*
X71420800Y-80772749D01*
X71127024Y-80801684D01*
X70844537Y-80887375D01*
X70584195Y-81026531D01*
X70356003Y-81213803D01*
X70168731Y-81441994D01*
X70150800Y-81475540D01*
X70132869Y-81441994D01*
X69945597Y-81213803D01*
X69717406Y-81026531D01*
X69457064Y-80887375D01*
X69174577Y-80801684D01*
X68880800Y-80772749D01*
X68587024Y-80801684D01*
X68304537Y-80887375D01*
X68044195Y-81026531D01*
X67816003Y-81213803D01*
X67628731Y-81441994D01*
X67610800Y-81475540D01*
X67592869Y-81441994D01*
X67405597Y-81213803D01*
X67177406Y-81026531D01*
X66917064Y-80887375D01*
X66634577Y-80801684D01*
X66340800Y-80772749D01*
X66047024Y-80801684D01*
X65764537Y-80887375D01*
X65504195Y-81026531D01*
X65276003Y-81213803D01*
X65088731Y-81441994D01*
X64949575Y-81702336D01*
X64863884Y-81984823D01*
X64842200Y-82204981D01*
X36660000Y-82204981D01*
X36660000Y-65992702D01*
X64186903Y-65992702D01*
X64258486Y-66236671D01*
X64513996Y-66357571D01*
X64788184Y-66426300D01*
X65070512Y-66440217D01*
X65350130Y-66398787D01*
X65616292Y-66303603D01*
X65741514Y-66236671D01*
X65813097Y-65992702D01*
X65000000Y-65179605D01*
X64186903Y-65992702D01*
X36660000Y-65992702D01*
X36660000Y-65070512D01*
X63559783Y-65070512D01*
X63601213Y-65350130D01*
X63696397Y-65616292D01*
X63763329Y-65741514D01*
X64007298Y-65813097D01*
X64820395Y-65000000D01*
X65179605Y-65000000D01*
X65992702Y-65813097D01*
X66236671Y-65741514D01*
X66357571Y-65486004D01*
X66426300Y-65211816D01*
X66440217Y-64929488D01*
X66398787Y-64649870D01*
X66303603Y-64383708D01*
X66236671Y-64258486D01*
X65992702Y-64186903D01*
X65179605Y-65000000D01*
X64820395Y-65000000D01*
X64007298Y-64186903D01*
X63763329Y-64258486D01*
X63642429Y-64513996D01*
X63573700Y-64788184D01*
X63559783Y-65070512D01*
X36660000Y-65070512D01*
X36660000Y-64007298D01*
X64186903Y-64007298D01*
X65000000Y-64820395D01*
X65813097Y-64007298D01*
X65741514Y-63763329D01*
X65486004Y-63642429D01*
X65211816Y-63573700D01*
X64929488Y-63559783D01*
X64649870Y-63601213D01*
X64383708Y-63696397D01*
X64258486Y-63763329D01*
X64186903Y-64007298D01*
X36660000Y-64007298D01*
X36660000Y-53862408D01*
X37863000Y-53862408D01*
X37863000Y-54137592D01*
X37916686Y-54407490D01*
X38021995Y-54661727D01*
X38174880Y-54890535D01*
X38369465Y-55085120D01*
X38598273Y-55238005D01*
X38852510Y-55343314D01*
X39122408Y-55397000D01*
X39397592Y-55397000D01*
X39667490Y-55343314D01*
X39921727Y-55238005D01*
X40150535Y-55085120D01*
X40345120Y-54890535D01*
X40498005Y-54661727D01*
X40603314Y-54407490D01*
X40657000Y-54137592D01*
X40657000Y-53862408D01*
X40603314Y-53592510D01*
X40498005Y-53338273D01*
X40345120Y-53109465D01*
X40150535Y-52914880D01*
X39921727Y-52761995D01*
X39667490Y-52656686D01*
X39397592Y-52603000D01*
X39122408Y-52603000D01*
X38852510Y-52656686D01*
X38598273Y-52761995D01*
X38369465Y-52914880D01*
X38174880Y-53109465D01*
X38021995Y-53338273D01*
X37916686Y-53592510D01*
X37863000Y-53862408D01*
X36660000Y-53862408D01*
X36660000Y-48040000D01*
X38007815Y-48040000D01*
X38036487Y-48331111D01*
X38121401Y-48611034D01*
X38259294Y-48869014D01*
X38444866Y-49095134D01*
X38670986Y-49280706D01*
X38928966Y-49418599D01*
X39208889Y-49503513D01*
X39427050Y-49525000D01*
X39572950Y-49525000D01*
X39791111Y-49503513D01*
X40071034Y-49418599D01*
X40329014Y-49280706D01*
X40555134Y-49095134D01*
X40740706Y-48869014D01*
X40878599Y-48611034D01*
X40963513Y-48331111D01*
X40992185Y-48040000D01*
X40963513Y-47748889D01*
X40878599Y-47468966D01*
X40740706Y-47210986D01*
X40555134Y-46984866D01*
X40525313Y-46960393D01*
X40594180Y-46939502D01*
X40704494Y-46880537D01*
X40801185Y-46801185D01*
X40880537Y-46704494D01*
X40939502Y-46594180D01*
X40975812Y-46474482D01*
X40988072Y-46350000D01*
X40988072Y-44650000D01*
X40975812Y-44525518D01*
X40939502Y-44405820D01*
X40880537Y-44295506D01*
X40801185Y-44198815D01*
X40704494Y-44119463D01*
X40594180Y-44060498D01*
X40474482Y-44024188D01*
X40350000Y-44011928D01*
X38650000Y-44011928D01*
X38525518Y-44024188D01*
X38405820Y-44060498D01*
X38295506Y-44119463D01*
X38198815Y-44198815D01*
X38119463Y-44295506D01*
X38060498Y-44405820D01*
X38024188Y-44525518D01*
X38011928Y-44650000D01*
X38011928Y-46350000D01*
X38024188Y-46474482D01*
X38060498Y-46594180D01*
X38119463Y-46704494D01*
X38198815Y-46801185D01*
X38295506Y-46880537D01*
X38405820Y-46939502D01*
X38474687Y-46960393D01*
X38444866Y-46984866D01*
X38259294Y-47210986D01*
X38121401Y-47468966D01*
X38036487Y-47748889D01*
X38007815Y-48040000D01*
X36660000Y-48040000D01*
X36660000Y-40414336D01*
X36785794Y-40718029D01*
X37182725Y-41312078D01*
X37687922Y-41817275D01*
X38281971Y-42214206D01*
X38942043Y-42487617D01*
X39642772Y-42627000D01*
X40357228Y-42627000D01*
X41057957Y-42487617D01*
X41718029Y-42214206D01*
X42312078Y-41817275D01*
X42817275Y-41312078D01*
X43214206Y-40718029D01*
X43487617Y-40057957D01*
X43627000Y-39357228D01*
X43627000Y-38642772D01*
X43487617Y-37942043D01*
X43214206Y-37281971D01*
X42817275Y-36687922D01*
X42312078Y-36182725D01*
X41718029Y-35785794D01*
X41414336Y-35660000D01*
X44673414Y-35660000D01*
X44520422Y-35846422D01*
M02*
