G04 #@! TF.GenerationSoftware,KiCad,Pcbnew,(5.1.4)-1*
G04 #@! TF.CreationDate,2019-09-15T13:59:41-04:00*
G04 #@! TF.ProjectId,MorseTutor1,4d6f7273-6554-4757-946f-72312e6b6963,rev?*
G04 #@! TF.SameCoordinates,Original*
G04 #@! TF.FileFunction,Legend,Top*
G04 #@! TF.FilePolarity,Positive*
%FSLAX46Y46*%
G04 Gerber Fmt 4.6, Leading zero omitted, Abs format (unit mm)*
G04 Created by KiCad (PCBNEW (5.1.4)-1) date 2019-09-15 13:59:41*
%MOMM*%
%LPD*%
G04 APERTURE LIST*
%ADD10C,0.300000*%
%ADD11C,0.150000*%
%ADD12C,0.304800*%
%ADD13C,0.100000*%
%ADD14C,0.120000*%
%ADD15C,0.222250*%
%ADD16C,0.250000*%
G04 APERTURE END LIST*
D10*
X159385714Y-83842857D02*
X159785714Y-85042857D01*
X160185714Y-83842857D01*
X160757142Y-85042857D02*
X160642857Y-84985714D01*
X160585714Y-84928571D01*
X160528571Y-84814285D01*
X160528571Y-84471428D01*
X160585714Y-84357142D01*
X160642857Y-84300000D01*
X160757142Y-84242857D01*
X160928571Y-84242857D01*
X161042857Y-84300000D01*
X161100000Y-84357142D01*
X161157142Y-84471428D01*
X161157142Y-84814285D01*
X161100000Y-84928571D01*
X161042857Y-84985714D01*
X160928571Y-85042857D01*
X160757142Y-85042857D01*
X161842857Y-85042857D02*
X161728571Y-84985714D01*
X161671428Y-84871428D01*
X161671428Y-83842857D01*
X162814285Y-84242857D02*
X162814285Y-85042857D01*
X162300000Y-84242857D02*
X162300000Y-84871428D01*
X162357142Y-84985714D01*
X162471428Y-85042857D01*
X162642857Y-85042857D01*
X162757142Y-84985714D01*
X162814285Y-84928571D01*
X163385714Y-85042857D02*
X163385714Y-84242857D01*
X163385714Y-84357142D02*
X163442857Y-84300000D01*
X163557142Y-84242857D01*
X163728571Y-84242857D01*
X163842857Y-84300000D01*
X163900000Y-84414285D01*
X163900000Y-85042857D01*
X163900000Y-84414285D02*
X163957142Y-84300000D01*
X164071428Y-84242857D01*
X164242857Y-84242857D01*
X164357142Y-84300000D01*
X164414285Y-84414285D01*
X164414285Y-85042857D01*
X165442857Y-84985714D02*
X165328571Y-85042857D01*
X165100000Y-85042857D01*
X164985714Y-84985714D01*
X164928571Y-84871428D01*
X164928571Y-84414285D01*
X164985714Y-84300000D01*
X165100000Y-84242857D01*
X165328571Y-84242857D01*
X165442857Y-84300000D01*
X165500000Y-84414285D01*
X165500000Y-84528571D01*
X164928571Y-84642857D01*
X175321428Y-53571428D02*
X173821428Y-53928571D01*
X174892857Y-54214285D01*
X173821428Y-54500000D01*
X175321428Y-54857142D01*
X174678571Y-55642857D02*
X174750000Y-55500000D01*
X174821428Y-55428571D01*
X174964285Y-55357142D01*
X175035714Y-55357142D01*
X175178571Y-55428571D01*
X175250000Y-55500000D01*
X175321428Y-55642857D01*
X175321428Y-55928571D01*
X175250000Y-56071428D01*
X175178571Y-56142857D01*
X175035714Y-56214285D01*
X174964285Y-56214285D01*
X174821428Y-56142857D01*
X174750000Y-56071428D01*
X174678571Y-55928571D01*
X174678571Y-55642857D01*
X174607142Y-55500000D01*
X174535714Y-55428571D01*
X174392857Y-55357142D01*
X174107142Y-55357142D01*
X173964285Y-55428571D01*
X173892857Y-55500000D01*
X173821428Y-55642857D01*
X173821428Y-55928571D01*
X173892857Y-56071428D01*
X173964285Y-56142857D01*
X174107142Y-56214285D01*
X174392857Y-56214285D01*
X174535714Y-56142857D01*
X174607142Y-56071428D01*
X174678571Y-55928571D01*
X174607142Y-57357142D02*
X174535714Y-57571428D01*
X174464285Y-57642857D01*
X174321428Y-57714285D01*
X174107142Y-57714285D01*
X173964285Y-57642857D01*
X173892857Y-57571428D01*
X173821428Y-57428571D01*
X173821428Y-56857142D01*
X175321428Y-56857142D01*
X175321428Y-57357142D01*
X175250000Y-57500000D01*
X175178571Y-57571428D01*
X175035714Y-57642857D01*
X174892857Y-57642857D01*
X174750000Y-57571428D01*
X174678571Y-57500000D01*
X174607142Y-57357142D01*
X174607142Y-56857142D01*
X173821428Y-58357142D02*
X175321428Y-58357142D01*
X174607142Y-58357142D02*
X174607142Y-59214285D01*
X173821428Y-59214285D02*
X175321428Y-59214285D01*
X173821428Y-61071428D02*
X175321428Y-61071428D01*
X174250000Y-61571428D01*
X175321428Y-62071428D01*
X173821428Y-62071428D01*
X173821428Y-63000000D02*
X173892857Y-62857142D01*
X173964285Y-62785714D01*
X174107142Y-62714285D01*
X174535714Y-62714285D01*
X174678571Y-62785714D01*
X174750000Y-62857142D01*
X174821428Y-63000000D01*
X174821428Y-63214285D01*
X174750000Y-63357142D01*
X174678571Y-63428571D01*
X174535714Y-63500000D01*
X174107142Y-63500000D01*
X173964285Y-63428571D01*
X173892857Y-63357142D01*
X173821428Y-63214285D01*
X173821428Y-63000000D01*
X173821428Y-64142857D02*
X174821428Y-64142857D01*
X174535714Y-64142857D02*
X174678571Y-64214285D01*
X174750000Y-64285714D01*
X174821428Y-64428571D01*
X174821428Y-64571428D01*
X173892857Y-65000000D02*
X173821428Y-65142857D01*
X173821428Y-65428571D01*
X173892857Y-65571428D01*
X174035714Y-65642857D01*
X174107142Y-65642857D01*
X174250000Y-65571428D01*
X174321428Y-65428571D01*
X174321428Y-65214285D01*
X174392857Y-65071428D01*
X174535714Y-65000000D01*
X174607142Y-65000000D01*
X174750000Y-65071428D01*
X174821428Y-65214285D01*
X174821428Y-65428571D01*
X174750000Y-65571428D01*
X173892857Y-66857142D02*
X173821428Y-66714285D01*
X173821428Y-66428571D01*
X173892857Y-66285714D01*
X174035714Y-66214285D01*
X174607142Y-66214285D01*
X174750000Y-66285714D01*
X174821428Y-66428571D01*
X174821428Y-66714285D01*
X174750000Y-66857142D01*
X174607142Y-66928571D01*
X174464285Y-66928571D01*
X174321428Y-66214285D01*
X175321428Y-68500000D02*
X175321428Y-69357142D01*
X173821428Y-68928571D02*
X175321428Y-68928571D01*
X174821428Y-70500000D02*
X173821428Y-70500000D01*
X174821428Y-69857142D02*
X174035714Y-69857142D01*
X173892857Y-69928571D01*
X173821428Y-70071428D01*
X173821428Y-70285714D01*
X173892857Y-70428571D01*
X173964285Y-70500000D01*
X174821428Y-71000000D02*
X174821428Y-71571428D01*
X175321428Y-71214285D02*
X174035714Y-71214285D01*
X173892857Y-71285714D01*
X173821428Y-71428571D01*
X173821428Y-71571428D01*
X173821428Y-72285714D02*
X173892857Y-72142857D01*
X173964285Y-72071428D01*
X174107142Y-72000000D01*
X174535714Y-72000000D01*
X174678571Y-72071428D01*
X174750000Y-72142857D01*
X174821428Y-72285714D01*
X174821428Y-72500000D01*
X174750000Y-72642857D01*
X174678571Y-72714285D01*
X174535714Y-72785714D01*
X174107142Y-72785714D01*
X173964285Y-72714285D01*
X173892857Y-72642857D01*
X173821428Y-72500000D01*
X173821428Y-72285714D01*
X173821428Y-73428571D02*
X174821428Y-73428571D01*
X174535714Y-73428571D02*
X174678571Y-73500000D01*
X174750000Y-73571428D01*
X174821428Y-73714285D01*
X174821428Y-73857142D01*
X174392857Y-75500000D02*
X174392857Y-76642857D01*
X173821428Y-79357142D02*
X174535714Y-78857142D01*
X173821428Y-78500000D02*
X175321428Y-78500000D01*
X175321428Y-79071428D01*
X175250000Y-79214285D01*
X175178571Y-79285714D01*
X175035714Y-79357142D01*
X174821428Y-79357142D01*
X174678571Y-79285714D01*
X174607142Y-79214285D01*
X174535714Y-79071428D01*
X174535714Y-78500000D01*
X173892857Y-80571428D02*
X173821428Y-80428571D01*
X173821428Y-80142857D01*
X173892857Y-80000000D01*
X174035714Y-79928571D01*
X174607142Y-79928571D01*
X174750000Y-80000000D01*
X174821428Y-80142857D01*
X174821428Y-80428571D01*
X174750000Y-80571428D01*
X174607142Y-80642857D01*
X174464285Y-80642857D01*
X174321428Y-79928571D01*
X174821428Y-81142857D02*
X173821428Y-81500000D01*
X174821428Y-81857142D01*
X175178571Y-83500000D02*
X175250000Y-83571428D01*
X175321428Y-83714285D01*
X175321428Y-84071428D01*
X175250000Y-84214285D01*
X175178571Y-84285714D01*
X175035714Y-84357142D01*
X174892857Y-84357142D01*
X174678571Y-84285714D01*
X173821428Y-83428571D01*
X173821428Y-84357142D01*
D11*
X45465952Y-101036428D02*
X44704047Y-101036428D01*
X45085000Y-101417380D02*
X45085000Y-100655476D01*
X37210952Y-45791428D02*
X36449047Y-45791428D01*
X36830000Y-46172380D02*
X36830000Y-45410476D01*
D12*
X117140000Y-78660000D02*
X117140000Y-101660000D01*
X63740000Y-78660000D02*
X117140000Y-78660000D01*
X63740000Y-101660000D02*
X63740000Y-78660000D01*
X117140000Y-101660000D02*
X63740000Y-101660000D01*
D13*
X142650000Y-31600000D02*
X142650000Y-35100000D01*
X149450000Y-31600000D02*
X142650000Y-31600000D01*
X149450000Y-35100000D02*
X149450000Y-31600000D01*
X140050000Y-46700000D02*
X140050000Y-35100000D01*
X152050000Y-46700000D02*
X140050000Y-46700000D01*
X152050000Y-35100000D02*
X152050000Y-46700000D01*
X152050000Y-35100000D02*
X140050000Y-35100000D01*
X157890000Y-31500000D02*
X157890000Y-35000000D01*
X164690000Y-31500000D02*
X157890000Y-31500000D01*
X164690000Y-35000000D02*
X164690000Y-31500000D01*
X155290000Y-46600000D02*
X155290000Y-35000000D01*
X167290000Y-46600000D02*
X155290000Y-46600000D01*
X167290000Y-35000000D02*
X167290000Y-46600000D01*
X167290000Y-35000000D02*
X155290000Y-35000000D01*
X155150000Y-102825000D02*
X136950000Y-102825000D01*
X155150000Y-81325000D02*
X155150000Y-102825000D01*
X136950000Y-81325000D02*
X155150000Y-81325000D01*
X136950000Y-102825000D02*
X136950000Y-81325000D01*
D14*
X56995000Y-42190000D02*
X56995000Y-33190000D01*
X56995000Y-33190000D02*
X66195000Y-33190000D01*
X66195000Y-33190000D02*
X66195000Y-47790000D01*
X66195000Y-47790000D02*
X63395000Y-47790000D01*
X59795000Y-47790000D02*
X56995000Y-47790000D01*
X56995000Y-47790000D02*
X56995000Y-45790000D01*
X66435000Y-46290000D02*
X66435000Y-48030000D01*
X66435000Y-48030000D02*
X64695000Y-48030000D01*
X63630000Y-63190000D02*
X66370000Y-63190000D01*
X66370000Y-63190000D02*
X66370000Y-56650000D01*
X66370000Y-56650000D02*
X63630000Y-56650000D01*
X63630000Y-56650000D02*
X63630000Y-63190000D01*
X65000000Y-63960000D02*
X65000000Y-63190000D01*
X65000000Y-55880000D02*
X65000000Y-56650000D01*
X126380000Y-79000000D02*
X127150000Y-79000000D01*
X134460000Y-79000000D02*
X133690000Y-79000000D01*
X127150000Y-80370000D02*
X133690000Y-80370000D01*
X127150000Y-77630000D02*
X127150000Y-80370000D01*
X133690000Y-77630000D02*
X127150000Y-77630000D01*
X133690000Y-80370000D02*
X133690000Y-77630000D01*
D11*
X54370000Y-39765000D02*
X45770000Y-39765000D01*
X54370000Y-35165000D02*
X52170000Y-35165000D01*
X48070000Y-35165000D02*
X45770000Y-35165000D01*
D14*
X46295000Y-101330000D02*
X46295000Y-100000000D01*
X47625000Y-101330000D02*
X46295000Y-101330000D01*
X48895000Y-101330000D02*
X48895000Y-98670000D01*
X48895000Y-98670000D02*
X51495000Y-98670000D01*
X48895000Y-101330000D02*
X51495000Y-101330000D01*
X51495000Y-101330000D02*
X51495000Y-98670000D01*
X59750000Y-101330000D02*
X59750000Y-98670000D01*
X57150000Y-101330000D02*
X59750000Y-101330000D01*
X57150000Y-98670000D02*
X59750000Y-98670000D01*
X57150000Y-101330000D02*
X57150000Y-98670000D01*
X55880000Y-101330000D02*
X54550000Y-101330000D01*
X54550000Y-101330000D02*
X54550000Y-100000000D01*
X38170000Y-49370000D02*
X40830000Y-49370000D01*
X38170000Y-46770000D02*
X38170000Y-49370000D01*
X40830000Y-46770000D02*
X40830000Y-49370000D01*
X38170000Y-46770000D02*
X40830000Y-46770000D01*
X38170000Y-45500000D02*
X38170000Y-44170000D01*
X38170000Y-44170000D02*
X39500000Y-44170000D01*
D13*
X121775000Y-98825000D02*
X120825000Y-98825000D01*
X120825000Y-98825000D02*
X120825000Y-98150000D01*
X121675000Y-85175000D02*
X120825000Y-85175000D01*
X120825000Y-85175000D02*
X120825000Y-85850000D01*
X133575000Y-98250000D02*
X133575000Y-98825000D01*
X133575000Y-98825000D02*
X132775000Y-98825000D01*
X132875000Y-85175000D02*
X133575000Y-85175000D01*
X133575000Y-85175000D02*
X133575000Y-85675000D01*
X168670000Y-64135000D02*
G75*
G03X168670000Y-64135000I-15000000J0D01*
G01*
X58760000Y-52500000D02*
X58760000Y-95500000D01*
X58760000Y-95500000D02*
X37760000Y-95500000D01*
X37760000Y-95500000D02*
X37760000Y-52500000D01*
X37760000Y-52500000D02*
X58760000Y-52500000D01*
X69620000Y-35110000D02*
X136820000Y-35110000D01*
X136820000Y-35110000D02*
X136820000Y-75210000D01*
X136820000Y-75210000D02*
X69620000Y-75210000D01*
X69620000Y-75210000D02*
X69620000Y-35110000D01*
X74120000Y-38110000D02*
G75*
G03X74120000Y-38110000I-1500000J0D01*
G01*
X74120000Y-72210000D02*
G75*
G03X74120000Y-72210000I-1500000J0D01*
G01*
X135320000Y-38110000D02*
G75*
G03X135320000Y-38110000I-1500000J0D01*
G01*
X135320000Y-72210000D02*
G75*
G03X135320000Y-72210000I-1500000J0D01*
G01*
D14*
X157590000Y-98595000D02*
X157590000Y-94730000D01*
X157590000Y-90220000D02*
X157590000Y-86355000D01*
X167530000Y-98595000D02*
X167530000Y-94730000D01*
X167530000Y-90220000D02*
X167530000Y-86355000D01*
X157590000Y-98595000D02*
X159189000Y-98595000D01*
X160931000Y-98595000D02*
X161690000Y-98595000D01*
X163431000Y-98595000D02*
X164190000Y-98595000D01*
X165930000Y-98595000D02*
X167530000Y-98595000D01*
X157590000Y-86355000D02*
X167530000Y-86355000D01*
D11*
D15*
X72347666Y-89683166D02*
X72347666Y-90402833D01*
X72390000Y-90487500D01*
X72432333Y-90529833D01*
X72517000Y-90572166D01*
X72686333Y-90572166D01*
X72771000Y-90529833D01*
X72813333Y-90487500D01*
X72855666Y-90402833D01*
X72855666Y-89683166D01*
X73194333Y-89683166D02*
X73744666Y-89683166D01*
X73448333Y-90021833D01*
X73575333Y-90021833D01*
X73660000Y-90064166D01*
X73702333Y-90106500D01*
X73744666Y-90191166D01*
X73744666Y-90402833D01*
X73702333Y-90487500D01*
X73660000Y-90529833D01*
X73575333Y-90572166D01*
X73321333Y-90572166D01*
X73236666Y-90529833D01*
X73194333Y-90487500D01*
D12*
D15*
X84374833Y-89936500D02*
X84501833Y-89978833D01*
X84544166Y-90021166D01*
X84586500Y-90105833D01*
X84586500Y-90232833D01*
X84544166Y-90317500D01*
X84501833Y-90359833D01*
X84417166Y-90402166D01*
X84078500Y-90402166D01*
X84078500Y-89513166D01*
X84374833Y-89513166D01*
X84459500Y-89555500D01*
X84501833Y-89597833D01*
X84544166Y-89682500D01*
X84544166Y-89767166D01*
X84501833Y-89851833D01*
X84459500Y-89894166D01*
X84374833Y-89936500D01*
X84078500Y-89936500D01*
X85094500Y-90402166D02*
X85009833Y-90359833D01*
X84967500Y-90275166D01*
X84967500Y-89513166D01*
X85814166Y-89809500D02*
X85814166Y-90402166D01*
X85433166Y-89809500D02*
X85433166Y-90275166D01*
X85475500Y-90359833D01*
X85560166Y-90402166D01*
X85687166Y-90402166D01*
X85771833Y-90359833D01*
X85814166Y-90317500D01*
X86576166Y-90359833D02*
X86491500Y-90402166D01*
X86322166Y-90402166D01*
X86237500Y-90359833D01*
X86195166Y-90275166D01*
X86195166Y-89936500D01*
X86237500Y-89851833D01*
X86322166Y-89809500D01*
X86491500Y-89809500D01*
X86576166Y-89851833D01*
X86618500Y-89936500D01*
X86618500Y-90021166D01*
X86195166Y-90105833D01*
X86999500Y-90402166D02*
X86999500Y-89513166D01*
X87338166Y-89513166D01*
X87422833Y-89555500D01*
X87465166Y-89597833D01*
X87507500Y-89682500D01*
X87507500Y-89809500D01*
X87465166Y-89894166D01*
X87422833Y-89936500D01*
X87338166Y-89978833D01*
X86999500Y-89978833D01*
X87888500Y-90402166D02*
X87888500Y-89809500D01*
X87888500Y-89513166D02*
X87846166Y-89555500D01*
X87888500Y-89597833D01*
X87930833Y-89555500D01*
X87888500Y-89513166D01*
X87888500Y-89597833D01*
X88438833Y-90402166D02*
X88354166Y-90359833D01*
X88311833Y-90275166D01*
X88311833Y-89513166D01*
X88904500Y-90402166D02*
X88819833Y-90359833D01*
X88777500Y-90275166D01*
X88777500Y-89513166D01*
X89878166Y-90359833D02*
X90005166Y-90402166D01*
X90216833Y-90402166D01*
X90301500Y-90359833D01*
X90343833Y-90317500D01*
X90386166Y-90232833D01*
X90386166Y-90148166D01*
X90343833Y-90063500D01*
X90301500Y-90021166D01*
X90216833Y-89978833D01*
X90047500Y-89936500D01*
X89962833Y-89894166D01*
X89920500Y-89851833D01*
X89878166Y-89767166D01*
X89878166Y-89682500D01*
X89920500Y-89597833D01*
X89962833Y-89555500D01*
X90047500Y-89513166D01*
X90259166Y-89513166D01*
X90386166Y-89555500D01*
X90640166Y-89513166D02*
X91148166Y-89513166D01*
X90894166Y-90402166D02*
X90894166Y-89513166D01*
X91444500Y-90402166D02*
X91444500Y-89513166D01*
X91740833Y-90148166D01*
X92037166Y-89513166D01*
X92037166Y-90402166D01*
X92375833Y-89513166D02*
X92926166Y-89513166D01*
X92629833Y-89851833D01*
X92756833Y-89851833D01*
X92841500Y-89894166D01*
X92883833Y-89936500D01*
X92926166Y-90021166D01*
X92926166Y-90232833D01*
X92883833Y-90317500D01*
X92841500Y-90359833D01*
X92756833Y-90402166D01*
X92502833Y-90402166D01*
X92418166Y-90359833D01*
X92375833Y-90317500D01*
X93264833Y-89597833D02*
X93307166Y-89555500D01*
X93391833Y-89513166D01*
X93603500Y-89513166D01*
X93688166Y-89555500D01*
X93730500Y-89597833D01*
X93772833Y-89682500D01*
X93772833Y-89767166D01*
X93730500Y-89894166D01*
X93222500Y-90402166D01*
X93772833Y-90402166D01*
X94450166Y-89936500D02*
X94153833Y-89936500D01*
X94153833Y-90402166D02*
X94153833Y-89513166D01*
X94577166Y-89513166D01*
X95381500Y-90402166D02*
X94873500Y-90402166D01*
X95127500Y-90402166D02*
X95127500Y-89513166D01*
X95042833Y-89640166D01*
X94958166Y-89724833D01*
X94873500Y-89767166D01*
X95931833Y-89513166D02*
X96016500Y-89513166D01*
X96101166Y-89555500D01*
X96143500Y-89597833D01*
X96185833Y-89682500D01*
X96228166Y-89851833D01*
X96228166Y-90063500D01*
X96185833Y-90232833D01*
X96143500Y-90317500D01*
X96101166Y-90359833D01*
X96016500Y-90402166D01*
X95931833Y-90402166D01*
X95847166Y-90359833D01*
X95804833Y-90317500D01*
X95762500Y-90232833D01*
X95720166Y-90063500D01*
X95720166Y-89851833D01*
X95762500Y-89682500D01*
X95804833Y-89597833D01*
X95847166Y-89555500D01*
X95931833Y-89513166D01*
X96524500Y-89513166D02*
X97074833Y-89513166D01*
X96778500Y-89851833D01*
X96905500Y-89851833D01*
X96990166Y-89894166D01*
X97032500Y-89936500D01*
X97074833Y-90021166D01*
X97074833Y-90232833D01*
X97032500Y-90317500D01*
X96990166Y-90359833D01*
X96905500Y-90402166D01*
X96651500Y-90402166D01*
X96566833Y-90359833D01*
X96524500Y-90317500D01*
X97963833Y-90317500D02*
X97921500Y-90359833D01*
X97794500Y-90402166D01*
X97709833Y-90402166D01*
X97582833Y-90359833D01*
X97498166Y-90275166D01*
X97455833Y-90190500D01*
X97413500Y-90021166D01*
X97413500Y-89894166D01*
X97455833Y-89724833D01*
X97498166Y-89640166D01*
X97582833Y-89555500D01*
X97709833Y-89513166D01*
X97794500Y-89513166D01*
X97921500Y-89555500D01*
X97963833Y-89597833D01*
D11*
D10*
X141128571Y-47914285D02*
X141528571Y-47914285D01*
X141700000Y-48542857D02*
X141128571Y-48542857D01*
X141128571Y-47342857D01*
X141700000Y-47342857D01*
X142100000Y-48542857D02*
X142728571Y-47742857D01*
X142100000Y-47742857D02*
X142728571Y-48542857D01*
X143014285Y-47742857D02*
X143471428Y-47742857D01*
X143185714Y-47342857D02*
X143185714Y-48371428D01*
X143242857Y-48485714D01*
X143357142Y-48542857D01*
X143471428Y-48542857D01*
X143871428Y-48428571D02*
X143928571Y-48485714D01*
X143871428Y-48542857D01*
X143814285Y-48485714D01*
X143871428Y-48428571D01*
X143871428Y-48542857D01*
X145300000Y-48485714D02*
X145471428Y-48542857D01*
X145757142Y-48542857D01*
X145871428Y-48485714D01*
X145928571Y-48428571D01*
X145985714Y-48314285D01*
X145985714Y-48200000D01*
X145928571Y-48085714D01*
X145871428Y-48028571D01*
X145757142Y-47971428D01*
X145528571Y-47914285D01*
X145414285Y-47857142D01*
X145357142Y-47800000D01*
X145300000Y-47685714D01*
X145300000Y-47571428D01*
X145357142Y-47457142D01*
X145414285Y-47400000D01*
X145528571Y-47342857D01*
X145814285Y-47342857D01*
X145985714Y-47400000D01*
X146500000Y-47742857D02*
X146500000Y-48942857D01*
X146500000Y-47800000D02*
X146614285Y-47742857D01*
X146842857Y-47742857D01*
X146957142Y-47800000D01*
X147014285Y-47857142D01*
X147071428Y-47971428D01*
X147071428Y-48314285D01*
X147014285Y-48428571D01*
X146957142Y-48485714D01*
X146842857Y-48542857D01*
X146614285Y-48542857D01*
X146500000Y-48485714D01*
X148042857Y-48485714D02*
X147928571Y-48542857D01*
X147700000Y-48542857D01*
X147585714Y-48485714D01*
X147528571Y-48371428D01*
X147528571Y-47914285D01*
X147585714Y-47800000D01*
X147700000Y-47742857D01*
X147928571Y-47742857D01*
X148042857Y-47800000D01*
X148100000Y-47914285D01*
X148100000Y-48028571D01*
X147528571Y-48142857D01*
X149128571Y-48542857D02*
X149128571Y-47914285D01*
X149071428Y-47800000D01*
X148957142Y-47742857D01*
X148728571Y-47742857D01*
X148614285Y-47800000D01*
X149128571Y-48485714D02*
X149014285Y-48542857D01*
X148728571Y-48542857D01*
X148614285Y-48485714D01*
X148557142Y-48371428D01*
X148557142Y-48257142D01*
X148614285Y-48142857D01*
X148728571Y-48085714D01*
X149014285Y-48085714D01*
X149128571Y-48028571D01*
X149700000Y-48542857D02*
X149700000Y-47342857D01*
X149814285Y-48085714D02*
X150157142Y-48542857D01*
X150157142Y-47742857D02*
X149700000Y-48200000D01*
X151128571Y-48485714D02*
X151014285Y-48542857D01*
X150785714Y-48542857D01*
X150671428Y-48485714D01*
X150614285Y-48371428D01*
X150614285Y-47914285D01*
X150671428Y-47800000D01*
X150785714Y-47742857D01*
X151014285Y-47742857D01*
X151128571Y-47800000D01*
X151185714Y-47914285D01*
X151185714Y-48028571D01*
X150614285Y-48142857D01*
X151700000Y-48542857D02*
X151700000Y-47742857D01*
X151700000Y-47971428D02*
X151757142Y-47857142D01*
X151814285Y-47800000D01*
X151928571Y-47742857D01*
X152042857Y-47742857D01*
X156947142Y-48542857D02*
X156947142Y-47342857D01*
X157347142Y-48200000D01*
X157747142Y-47342857D01*
X157747142Y-48542857D01*
X158490000Y-48542857D02*
X158375714Y-48485714D01*
X158318571Y-48428571D01*
X158261428Y-48314285D01*
X158261428Y-47971428D01*
X158318571Y-47857142D01*
X158375714Y-47800000D01*
X158490000Y-47742857D01*
X158661428Y-47742857D01*
X158775714Y-47800000D01*
X158832857Y-47857142D01*
X158890000Y-47971428D01*
X158890000Y-48314285D01*
X158832857Y-48428571D01*
X158775714Y-48485714D01*
X158661428Y-48542857D01*
X158490000Y-48542857D01*
X159404285Y-48542857D02*
X159404285Y-47742857D01*
X159404285Y-47971428D02*
X159461428Y-47857142D01*
X159518571Y-47800000D01*
X159632857Y-47742857D01*
X159747142Y-47742857D01*
X160090000Y-48485714D02*
X160204285Y-48542857D01*
X160432857Y-48542857D01*
X160547142Y-48485714D01*
X160604285Y-48371428D01*
X160604285Y-48314285D01*
X160547142Y-48200000D01*
X160432857Y-48142857D01*
X160261428Y-48142857D01*
X160147142Y-48085714D01*
X160090000Y-47971428D01*
X160090000Y-47914285D01*
X160147142Y-47800000D01*
X160261428Y-47742857D01*
X160432857Y-47742857D01*
X160547142Y-47800000D01*
X161575714Y-48485714D02*
X161461428Y-48542857D01*
X161232857Y-48542857D01*
X161118571Y-48485714D01*
X161061428Y-48371428D01*
X161061428Y-47914285D01*
X161118571Y-47800000D01*
X161232857Y-47742857D01*
X161461428Y-47742857D01*
X161575714Y-47800000D01*
X161632857Y-47914285D01*
X161632857Y-48028571D01*
X161061428Y-48142857D01*
X163061428Y-48542857D02*
X163061428Y-47342857D01*
X163747142Y-48542857D02*
X163232857Y-47857142D01*
X163747142Y-47342857D02*
X163061428Y-48028571D01*
X164718571Y-48485714D02*
X164604285Y-48542857D01*
X164375714Y-48542857D01*
X164261428Y-48485714D01*
X164204285Y-48371428D01*
X164204285Y-47914285D01*
X164261428Y-47800000D01*
X164375714Y-47742857D01*
X164604285Y-47742857D01*
X164718571Y-47800000D01*
X164775714Y-47914285D01*
X164775714Y-48028571D01*
X164204285Y-48142857D01*
X165175714Y-47742857D02*
X165461428Y-48542857D01*
X165747142Y-47742857D02*
X165461428Y-48542857D01*
X165347142Y-48828571D01*
X165290000Y-48885714D01*
X165175714Y-48942857D01*
D11*
X158902380Y-92736904D02*
X159711904Y-92736904D01*
X159807142Y-92689285D01*
X159854761Y-92641666D01*
X159902380Y-92546428D01*
X159902380Y-92355952D01*
X159854761Y-92260714D01*
X159807142Y-92213095D01*
X159711904Y-92165476D01*
X158902380Y-92165476D01*
X159902380Y-91165476D02*
X159902380Y-91736904D01*
X159902380Y-91451190D02*
X158902380Y-91451190D01*
X159045238Y-91546428D01*
X159140476Y-91641666D01*
X159188095Y-91736904D01*
X139526190Y-91937380D02*
X139526190Y-90937380D01*
X139907142Y-90937380D01*
X140002380Y-90985000D01*
X140050000Y-91032619D01*
X140097619Y-91127857D01*
X140097619Y-91270714D01*
X140050000Y-91365952D01*
X140002380Y-91413571D01*
X139907142Y-91461190D01*
X139526190Y-91461190D01*
X140478571Y-91651666D02*
X140954761Y-91651666D01*
X140383333Y-91937380D02*
X140716666Y-90937380D01*
X141050000Y-91937380D01*
X141383333Y-91937380D02*
X141383333Y-90937380D01*
X141716666Y-91651666D01*
X142050000Y-90937380D01*
X142050000Y-91937380D01*
X142669047Y-91365952D02*
X142573809Y-91318333D01*
X142526190Y-91270714D01*
X142478571Y-91175476D01*
X142478571Y-91127857D01*
X142526190Y-91032619D01*
X142573809Y-90985000D01*
X142669047Y-90937380D01*
X142859523Y-90937380D01*
X142954761Y-90985000D01*
X143002380Y-91032619D01*
X143050000Y-91127857D01*
X143050000Y-91175476D01*
X143002380Y-91270714D01*
X142954761Y-91318333D01*
X142859523Y-91365952D01*
X142669047Y-91365952D01*
X142573809Y-91413571D01*
X142526190Y-91461190D01*
X142478571Y-91556428D01*
X142478571Y-91746904D01*
X142526190Y-91842142D01*
X142573809Y-91889761D01*
X142669047Y-91937380D01*
X142859523Y-91937380D01*
X142954761Y-91889761D01*
X143002380Y-91842142D01*
X143050000Y-91746904D01*
X143050000Y-91556428D01*
X143002380Y-91461190D01*
X142954761Y-91413571D01*
X142859523Y-91365952D01*
X143907142Y-91270714D02*
X143907142Y-91937380D01*
X143669047Y-90889761D02*
X143430952Y-91604047D01*
X144050000Y-91604047D01*
X144621428Y-90937380D02*
X144716666Y-90937380D01*
X144811904Y-90985000D01*
X144859523Y-91032619D01*
X144907142Y-91127857D01*
X144954761Y-91318333D01*
X144954761Y-91556428D01*
X144907142Y-91746904D01*
X144859523Y-91842142D01*
X144811904Y-91889761D01*
X144716666Y-91937380D01*
X144621428Y-91937380D01*
X144526190Y-91889761D01*
X144478571Y-91842142D01*
X144430952Y-91746904D01*
X144383333Y-91556428D01*
X144383333Y-91318333D01*
X144430952Y-91127857D01*
X144478571Y-91032619D01*
X144526190Y-90985000D01*
X144621428Y-90937380D01*
X145288095Y-90937380D02*
X145907142Y-90937380D01*
X145573809Y-91318333D01*
X145716666Y-91318333D01*
X145811904Y-91365952D01*
X145859523Y-91413571D01*
X145907142Y-91508809D01*
X145907142Y-91746904D01*
X145859523Y-91842142D01*
X145811904Y-91889761D01*
X145716666Y-91937380D01*
X145430952Y-91937380D01*
X145335714Y-91889761D01*
X145288095Y-91842142D01*
X147097619Y-91937380D02*
X147097619Y-90937380D01*
X147430952Y-91651666D01*
X147764285Y-90937380D01*
X147764285Y-91937380D01*
X148430952Y-90937380D02*
X148621428Y-90937380D01*
X148716666Y-90985000D01*
X148811904Y-91080238D01*
X148859523Y-91270714D01*
X148859523Y-91604047D01*
X148811904Y-91794523D01*
X148716666Y-91889761D01*
X148621428Y-91937380D01*
X148430952Y-91937380D01*
X148335714Y-91889761D01*
X148240476Y-91794523D01*
X148192857Y-91604047D01*
X148192857Y-91270714D01*
X148240476Y-91080238D01*
X148335714Y-90985000D01*
X148430952Y-90937380D01*
X149288095Y-91937380D02*
X149288095Y-90937380D01*
X149526190Y-90937380D01*
X149669047Y-90985000D01*
X149764285Y-91080238D01*
X149811904Y-91175476D01*
X149859523Y-91365952D01*
X149859523Y-91508809D01*
X149811904Y-91699285D01*
X149764285Y-91794523D01*
X149669047Y-91889761D01*
X149526190Y-91937380D01*
X149288095Y-91937380D01*
X150288095Y-90937380D02*
X150288095Y-91746904D01*
X150335714Y-91842142D01*
X150383333Y-91889761D01*
X150478571Y-91937380D01*
X150669047Y-91937380D01*
X150764285Y-91889761D01*
X150811904Y-91842142D01*
X150859523Y-91746904D01*
X150859523Y-90937380D01*
X151811904Y-91937380D02*
X151335714Y-91937380D01*
X151335714Y-90937380D01*
X152145238Y-91413571D02*
X152478571Y-91413571D01*
X152621428Y-91937380D02*
X152145238Y-91937380D01*
X152145238Y-90937380D01*
X152621428Y-90937380D01*
X57570714Y-48982380D02*
X58237380Y-48982380D01*
X57808809Y-49982380D01*
X58618333Y-49601428D02*
X59380238Y-49601428D01*
X60380238Y-49982380D02*
X59808809Y-49982380D01*
X60094523Y-49982380D02*
X60094523Y-48982380D01*
X59999285Y-49125238D01*
X59904047Y-49220476D01*
X59808809Y-49268095D01*
X61285000Y-48982380D02*
X60808809Y-48982380D01*
X60761190Y-49458571D01*
X60808809Y-49410952D01*
X60904047Y-49363333D01*
X61142142Y-49363333D01*
X61237380Y-49410952D01*
X61285000Y-49458571D01*
X61332619Y-49553809D01*
X61332619Y-49791904D01*
X61285000Y-49887142D01*
X61237380Y-49934761D01*
X61142142Y-49982380D01*
X60904047Y-49982380D01*
X60808809Y-49934761D01*
X60761190Y-49887142D01*
X62380238Y-48982380D02*
X62713571Y-49982380D01*
X63046904Y-48982380D01*
X63380238Y-49982380D02*
X63380238Y-48982380D01*
X63618333Y-48982380D01*
X63761190Y-49030000D01*
X63856428Y-49125238D01*
X63904047Y-49220476D01*
X63951666Y-49410952D01*
X63951666Y-49553809D01*
X63904047Y-49744285D01*
X63856428Y-49839523D01*
X63761190Y-49934761D01*
X63618333Y-49982380D01*
X63380238Y-49982380D01*
X64951666Y-49887142D02*
X64904047Y-49934761D01*
X64761190Y-49982380D01*
X64665952Y-49982380D01*
X64523095Y-49934761D01*
X64427857Y-49839523D01*
X64380238Y-49744285D01*
X64332619Y-49553809D01*
X64332619Y-49410952D01*
X64380238Y-49220476D01*
X64427857Y-49125238D01*
X64523095Y-49030000D01*
X64665952Y-48982380D01*
X64761190Y-48982380D01*
X64904047Y-49030000D01*
X64951666Y-49077619D01*
X63082380Y-60086666D02*
X62606190Y-60420000D01*
X63082380Y-60658095D02*
X62082380Y-60658095D01*
X62082380Y-60277142D01*
X62130000Y-60181904D01*
X62177619Y-60134285D01*
X62272857Y-60086666D01*
X62415714Y-60086666D01*
X62510952Y-60134285D01*
X62558571Y-60181904D01*
X62606190Y-60277142D01*
X62606190Y-60658095D01*
X63082380Y-59134285D02*
X63082380Y-59705714D01*
X63082380Y-59420000D02*
X62082380Y-59420000D01*
X62225238Y-59515238D01*
X62320476Y-59610476D01*
X62368095Y-59705714D01*
X130253333Y-81822380D02*
X129920000Y-81346190D01*
X129681904Y-81822380D02*
X129681904Y-80822380D01*
X130062857Y-80822380D01*
X130158095Y-80870000D01*
X130205714Y-80917619D01*
X130253333Y-81012857D01*
X130253333Y-81155714D01*
X130205714Y-81250952D01*
X130158095Y-81298571D01*
X130062857Y-81346190D01*
X129681904Y-81346190D01*
X130634285Y-80917619D02*
X130681904Y-80870000D01*
X130777142Y-80822380D01*
X131015238Y-80822380D01*
X131110476Y-80870000D01*
X131158095Y-80917619D01*
X131205714Y-81012857D01*
X131205714Y-81108095D01*
X131158095Y-81250952D01*
X130586666Y-81822380D01*
X131205714Y-81822380D01*
D16*
X47641190Y-40517380D02*
X47831666Y-40517380D01*
X47926904Y-40565000D01*
X48022142Y-40660238D01*
X48069761Y-40850714D01*
X48069761Y-41184047D01*
X48022142Y-41374523D01*
X47926904Y-41469761D01*
X47831666Y-41517380D01*
X47641190Y-41517380D01*
X47545952Y-41469761D01*
X47450714Y-41374523D01*
X47403095Y-41184047D01*
X47403095Y-40850714D01*
X47450714Y-40660238D01*
X47545952Y-40565000D01*
X47641190Y-40517380D01*
X48831666Y-40993571D02*
X48498333Y-40993571D01*
X48498333Y-41517380D02*
X48498333Y-40517380D01*
X48974523Y-40517380D01*
X49688809Y-40993571D02*
X49355476Y-40993571D01*
X49355476Y-41517380D02*
X49355476Y-40517380D01*
X49831666Y-40517380D01*
X50926904Y-40469761D02*
X50069761Y-41755476D01*
X51450714Y-40517380D02*
X51641190Y-40517380D01*
X51736428Y-40565000D01*
X51831666Y-40660238D01*
X51879285Y-40850714D01*
X51879285Y-41184047D01*
X51831666Y-41374523D01*
X51736428Y-41469761D01*
X51641190Y-41517380D01*
X51450714Y-41517380D01*
X51355476Y-41469761D01*
X51260238Y-41374523D01*
X51212619Y-41184047D01*
X51212619Y-40850714D01*
X51260238Y-40660238D01*
X51355476Y-40565000D01*
X51450714Y-40517380D01*
X52307857Y-41517380D02*
X52307857Y-40517380D01*
X52879285Y-41517380D01*
X52879285Y-40517380D01*
D11*
X46083095Y-102322380D02*
X45606904Y-102322380D01*
X45559285Y-102798571D01*
X45606904Y-102750952D01*
X45702142Y-102703333D01*
X45940238Y-102703333D01*
X46035476Y-102750952D01*
X46083095Y-102798571D01*
X46130714Y-102893809D01*
X46130714Y-103131904D01*
X46083095Y-103227142D01*
X46035476Y-103274761D01*
X45940238Y-103322380D01*
X45702142Y-103322380D01*
X45606904Y-103274761D01*
X45559285Y-103227142D01*
X46416428Y-102322380D02*
X46749761Y-103322380D01*
X47083095Y-102322380D01*
X48035476Y-102322380D02*
X48606904Y-102322380D01*
X48321190Y-103322380D02*
X48321190Y-102322380D01*
X48940238Y-102798571D02*
X49273571Y-102798571D01*
X49416428Y-103322380D02*
X48940238Y-103322380D01*
X48940238Y-102322380D01*
X49416428Y-102322380D01*
X49797380Y-103274761D02*
X49940238Y-103322380D01*
X50178333Y-103322380D01*
X50273571Y-103274761D01*
X50321190Y-103227142D01*
X50368809Y-103131904D01*
X50368809Y-103036666D01*
X50321190Y-102941428D01*
X50273571Y-102893809D01*
X50178333Y-102846190D01*
X49987857Y-102798571D01*
X49892619Y-102750952D01*
X49845000Y-102703333D01*
X49797380Y-102608095D01*
X49797380Y-102512857D01*
X49845000Y-102417619D01*
X49892619Y-102370000D01*
X49987857Y-102322380D01*
X50225952Y-102322380D01*
X50368809Y-102370000D01*
X50654523Y-102322380D02*
X51225952Y-102322380D01*
X50940238Y-103322380D02*
X50940238Y-102322380D01*
X54499523Y-102322380D02*
X54023333Y-102322380D01*
X53975714Y-102798571D01*
X54023333Y-102750952D01*
X54118571Y-102703333D01*
X54356666Y-102703333D01*
X54451904Y-102750952D01*
X54499523Y-102798571D01*
X54547142Y-102893809D01*
X54547142Y-103131904D01*
X54499523Y-103227142D01*
X54451904Y-103274761D01*
X54356666Y-103322380D01*
X54118571Y-103322380D01*
X54023333Y-103274761D01*
X53975714Y-103227142D01*
X54832857Y-102322380D02*
X55166190Y-103322380D01*
X55499523Y-102322380D01*
X56594761Y-103322380D02*
X56594761Y-102322380D01*
X56832857Y-102322380D01*
X56975714Y-102370000D01*
X57070952Y-102465238D01*
X57118571Y-102560476D01*
X57166190Y-102750952D01*
X57166190Y-102893809D01*
X57118571Y-103084285D01*
X57070952Y-103179523D01*
X56975714Y-103274761D01*
X56832857Y-103322380D01*
X56594761Y-103322380D01*
X57594761Y-103322380D02*
X57594761Y-102322380D01*
X58023333Y-103274761D02*
X58166190Y-103322380D01*
X58404285Y-103322380D01*
X58499523Y-103274761D01*
X58547142Y-103227142D01*
X58594761Y-103131904D01*
X58594761Y-103036666D01*
X58547142Y-102941428D01*
X58499523Y-102893809D01*
X58404285Y-102846190D01*
X58213809Y-102798571D01*
X58118571Y-102750952D01*
X58070952Y-102703333D01*
X58023333Y-102608095D01*
X58023333Y-102512857D01*
X58070952Y-102417619D01*
X58118571Y-102370000D01*
X58213809Y-102322380D01*
X58451904Y-102322380D01*
X58594761Y-102370000D01*
X59594761Y-103227142D02*
X59547142Y-103274761D01*
X59404285Y-103322380D01*
X59309047Y-103322380D01*
X59166190Y-103274761D01*
X59070952Y-103179523D01*
X59023333Y-103084285D01*
X58975714Y-102893809D01*
X58975714Y-102750952D01*
X59023333Y-102560476D01*
X59070952Y-102465238D01*
X59166190Y-102370000D01*
X59309047Y-102322380D01*
X59404285Y-102322380D01*
X59547142Y-102370000D01*
X59594761Y-102417619D01*
X60213809Y-102322380D02*
X60404285Y-102322380D01*
X60499523Y-102370000D01*
X60594761Y-102465238D01*
X60642380Y-102655714D01*
X60642380Y-102989047D01*
X60594761Y-103179523D01*
X60499523Y-103274761D01*
X60404285Y-103322380D01*
X60213809Y-103322380D01*
X60118571Y-103274761D01*
X60023333Y-103179523D01*
X59975714Y-102989047D01*
X59975714Y-102655714D01*
X60023333Y-102465238D01*
X60118571Y-102370000D01*
X60213809Y-102322380D01*
X61070952Y-103322380D02*
X61070952Y-102322380D01*
X61642380Y-103322380D01*
X61642380Y-102322380D01*
X62118571Y-103322380D02*
X62118571Y-102322380D01*
X62690000Y-103322380D01*
X62690000Y-102322380D01*
X63166190Y-102798571D02*
X63499523Y-102798571D01*
X63642380Y-103322380D02*
X63166190Y-103322380D01*
X63166190Y-102322380D01*
X63642380Y-102322380D01*
X64642380Y-103227142D02*
X64594761Y-103274761D01*
X64451904Y-103322380D01*
X64356666Y-103322380D01*
X64213809Y-103274761D01*
X64118571Y-103179523D01*
X64070952Y-103084285D01*
X64023333Y-102893809D01*
X64023333Y-102750952D01*
X64070952Y-102560476D01*
X64118571Y-102465238D01*
X64213809Y-102370000D01*
X64356666Y-102322380D01*
X64451904Y-102322380D01*
X64594761Y-102370000D01*
X64642380Y-102417619D01*
X64928095Y-102322380D02*
X65499523Y-102322380D01*
X65213809Y-103322380D02*
X65213809Y-102322380D01*
X37190476Y-50822380D02*
X37380952Y-50822380D01*
X37476190Y-50774761D01*
X37523809Y-50727142D01*
X37619047Y-50584285D01*
X37666666Y-50393809D01*
X37666666Y-50012857D01*
X37619047Y-49917619D01*
X37571428Y-49870000D01*
X37476190Y-49822380D01*
X37285714Y-49822380D01*
X37190476Y-49870000D01*
X37142857Y-49917619D01*
X37095238Y-50012857D01*
X37095238Y-50250952D01*
X37142857Y-50346190D01*
X37190476Y-50393809D01*
X37285714Y-50441428D01*
X37476190Y-50441428D01*
X37571428Y-50393809D01*
X37619047Y-50346190D01*
X37666666Y-50250952D01*
X37952380Y-49822380D02*
X38285714Y-50822380D01*
X38619047Y-49822380D01*
X40047619Y-50298571D02*
X40190476Y-50346190D01*
X40238095Y-50393809D01*
X40285714Y-50489047D01*
X40285714Y-50631904D01*
X40238095Y-50727142D01*
X40190476Y-50774761D01*
X40095238Y-50822380D01*
X39714285Y-50822380D01*
X39714285Y-49822380D01*
X40047619Y-49822380D01*
X40142857Y-49870000D01*
X40190476Y-49917619D01*
X40238095Y-50012857D01*
X40238095Y-50108095D01*
X40190476Y-50203333D01*
X40142857Y-50250952D01*
X40047619Y-50298571D01*
X39714285Y-50298571D01*
X40666666Y-50536666D02*
X41142857Y-50536666D01*
X40571428Y-50822380D02*
X40904761Y-49822380D01*
X41238095Y-50822380D01*
X41428571Y-49822380D02*
X42000000Y-49822380D01*
X41714285Y-50822380D02*
X41714285Y-49822380D01*
X125666666Y-94384761D02*
X125809523Y-94432380D01*
X126047619Y-94432380D01*
X126142857Y-94384761D01*
X126190476Y-94337142D01*
X126238095Y-94241904D01*
X126238095Y-94146666D01*
X126190476Y-94051428D01*
X126142857Y-94003809D01*
X126047619Y-93956190D01*
X125857142Y-93908571D01*
X125761904Y-93860952D01*
X125714285Y-93813333D01*
X125666666Y-93718095D01*
X125666666Y-93622857D01*
X125714285Y-93527619D01*
X125761904Y-93480000D01*
X125857142Y-93432380D01*
X126095238Y-93432380D01*
X126238095Y-93480000D01*
X126571428Y-93432380D02*
X126809523Y-94432380D01*
X127000000Y-93718095D01*
X127190476Y-94432380D01*
X127428571Y-93432380D01*
X127761904Y-93527619D02*
X127809523Y-93480000D01*
X127904761Y-93432380D01*
X128142857Y-93432380D01*
X128238095Y-93480000D01*
X128285714Y-93527619D01*
X128333333Y-93622857D01*
X128333333Y-93718095D01*
X128285714Y-93860952D01*
X127714285Y-94432380D01*
X128333333Y-94432380D01*
X124261904Y-90098571D02*
X124595238Y-90098571D01*
X124738095Y-90622380D02*
X124261904Y-90622380D01*
X124261904Y-89622380D01*
X124738095Y-89622380D01*
X125166666Y-89955714D02*
X125166666Y-90622380D01*
X125166666Y-90050952D02*
X125214285Y-90003333D01*
X125309523Y-89955714D01*
X125452380Y-89955714D01*
X125547619Y-90003333D01*
X125595238Y-90098571D01*
X125595238Y-90622380D01*
X126500000Y-90574761D02*
X126404761Y-90622380D01*
X126214285Y-90622380D01*
X126119047Y-90574761D01*
X126071428Y-90527142D01*
X126023809Y-90431904D01*
X126023809Y-90146190D01*
X126071428Y-90050952D01*
X126119047Y-90003333D01*
X126214285Y-89955714D01*
X126404761Y-89955714D01*
X126500000Y-90003333D01*
X127071428Y-90622380D02*
X126976190Y-90574761D01*
X126928571Y-90527142D01*
X126880952Y-90431904D01*
X126880952Y-90146190D01*
X126928571Y-90050952D01*
X126976190Y-90003333D01*
X127071428Y-89955714D01*
X127214285Y-89955714D01*
X127309523Y-90003333D01*
X127357142Y-90050952D01*
X127404761Y-90146190D01*
X127404761Y-90431904D01*
X127357142Y-90527142D01*
X127309523Y-90574761D01*
X127214285Y-90622380D01*
X127071428Y-90622380D01*
X128261904Y-90622380D02*
X128261904Y-89622380D01*
X128261904Y-90574761D02*
X128166666Y-90622380D01*
X127976190Y-90622380D01*
X127880952Y-90574761D01*
X127833333Y-90527142D01*
X127785714Y-90431904D01*
X127785714Y-90146190D01*
X127833333Y-90050952D01*
X127880952Y-90003333D01*
X127976190Y-89955714D01*
X128166666Y-89955714D01*
X128261904Y-90003333D01*
X129119047Y-90574761D02*
X129023809Y-90622380D01*
X128833333Y-90622380D01*
X128738095Y-90574761D01*
X128690476Y-90479523D01*
X128690476Y-90098571D01*
X128738095Y-90003333D01*
X128833333Y-89955714D01*
X129023809Y-89955714D01*
X129119047Y-90003333D01*
X129166666Y-90098571D01*
X129166666Y-90193809D01*
X128690476Y-90289047D01*
X129595238Y-90622380D02*
X129595238Y-89955714D01*
X129595238Y-90146190D02*
X129642857Y-90050952D01*
X129690476Y-90003333D01*
X129785714Y-89955714D01*
X129880952Y-89955714D01*
X152947142Y-62087380D02*
X152470952Y-62087380D01*
X152470952Y-61087380D01*
X153232857Y-62039761D02*
X153375714Y-62087380D01*
X153613809Y-62087380D01*
X153709047Y-62039761D01*
X153756666Y-61992142D01*
X153804285Y-61896904D01*
X153804285Y-61801666D01*
X153756666Y-61706428D01*
X153709047Y-61658809D01*
X153613809Y-61611190D01*
X153423333Y-61563571D01*
X153328095Y-61515952D01*
X153280476Y-61468333D01*
X153232857Y-61373095D01*
X153232857Y-61277857D01*
X153280476Y-61182619D01*
X153328095Y-61135000D01*
X153423333Y-61087380D01*
X153661428Y-61087380D01*
X153804285Y-61135000D01*
X154756666Y-62087380D02*
X154185238Y-62087380D01*
X154470952Y-62087380D02*
X154470952Y-61087380D01*
X154375714Y-61230238D01*
X154280476Y-61325476D01*
X154185238Y-61373095D01*
X150908095Y-59999761D02*
X151050952Y-60047380D01*
X151289047Y-60047380D01*
X151384285Y-59999761D01*
X151431904Y-59952142D01*
X151479523Y-59856904D01*
X151479523Y-59761666D01*
X151431904Y-59666428D01*
X151384285Y-59618809D01*
X151289047Y-59571190D01*
X151098571Y-59523571D01*
X151003333Y-59475952D01*
X150955714Y-59428333D01*
X150908095Y-59333095D01*
X150908095Y-59237857D01*
X150955714Y-59142619D01*
X151003333Y-59095000D01*
X151098571Y-59047380D01*
X151336666Y-59047380D01*
X151479523Y-59095000D01*
X151908095Y-59380714D02*
X151908095Y-60380714D01*
X151908095Y-59428333D02*
X152003333Y-59380714D01*
X152193809Y-59380714D01*
X152289047Y-59428333D01*
X152336666Y-59475952D01*
X152384285Y-59571190D01*
X152384285Y-59856904D01*
X152336666Y-59952142D01*
X152289047Y-59999761D01*
X152193809Y-60047380D01*
X152003333Y-60047380D01*
X151908095Y-59999761D01*
X153193809Y-59999761D02*
X153098571Y-60047380D01*
X152908095Y-60047380D01*
X152812857Y-59999761D01*
X152765238Y-59904523D01*
X152765238Y-59523571D01*
X152812857Y-59428333D01*
X152908095Y-59380714D01*
X153098571Y-59380714D01*
X153193809Y-59428333D01*
X153241428Y-59523571D01*
X153241428Y-59618809D01*
X152765238Y-59714047D01*
X154098571Y-60047380D02*
X154098571Y-59523571D01*
X154050952Y-59428333D01*
X153955714Y-59380714D01*
X153765238Y-59380714D01*
X153670000Y-59428333D01*
X154098571Y-59999761D02*
X154003333Y-60047380D01*
X153765238Y-60047380D01*
X153670000Y-59999761D01*
X153622380Y-59904523D01*
X153622380Y-59809285D01*
X153670000Y-59714047D01*
X153765238Y-59666428D01*
X154003333Y-59666428D01*
X154098571Y-59618809D01*
X154574761Y-60047380D02*
X154574761Y-59047380D01*
X154670000Y-59666428D02*
X154955714Y-60047380D01*
X154955714Y-59380714D02*
X154574761Y-59761666D01*
X155765238Y-59999761D02*
X155670000Y-60047380D01*
X155479523Y-60047380D01*
X155384285Y-59999761D01*
X155336666Y-59904523D01*
X155336666Y-59523571D01*
X155384285Y-59428333D01*
X155479523Y-59380714D01*
X155670000Y-59380714D01*
X155765238Y-59428333D01*
X155812857Y-59523571D01*
X155812857Y-59618809D01*
X155336666Y-59714047D01*
X156241428Y-60047380D02*
X156241428Y-59380714D01*
X156241428Y-59571190D02*
X156289047Y-59475952D01*
X156336666Y-59428333D01*
X156431904Y-59380714D01*
X156527142Y-59380714D01*
X52157380Y-74761904D02*
X52966904Y-74761904D01*
X53062142Y-74714285D01*
X53109761Y-74666666D01*
X53157380Y-74571428D01*
X53157380Y-74380952D01*
X53109761Y-74285714D01*
X53062142Y-74238095D01*
X52966904Y-74190476D01*
X52157380Y-74190476D01*
X52252619Y-73761904D02*
X52205000Y-73714285D01*
X52157380Y-73619047D01*
X52157380Y-73380952D01*
X52205000Y-73285714D01*
X52252619Y-73238095D01*
X52347857Y-73190476D01*
X52443095Y-73190476D01*
X52585952Y-73238095D01*
X53157380Y-73809523D01*
X53157380Y-73190476D01*
X60212380Y-55142857D02*
X59212380Y-55142857D01*
X60212380Y-54666666D02*
X59212380Y-54666666D01*
X60212380Y-54095238D01*
X59212380Y-54095238D01*
X59831428Y-53619047D02*
X59831428Y-52857142D01*
X60212380Y-53238095D02*
X59450476Y-53238095D01*
X59212380Y-95119047D02*
X59212380Y-94928571D01*
X59260000Y-94833333D01*
X59355238Y-94738095D01*
X59545714Y-94690476D01*
X59879047Y-94690476D01*
X60069523Y-94738095D01*
X60164761Y-94833333D01*
X60212380Y-94928571D01*
X60212380Y-95119047D01*
X60164761Y-95214285D01*
X60069523Y-95309523D01*
X59879047Y-95357142D01*
X59545714Y-95357142D01*
X59355238Y-95309523D01*
X59260000Y-95214285D01*
X59212380Y-95119047D01*
X59212380Y-94261904D02*
X60021904Y-94261904D01*
X60117142Y-94214285D01*
X60164761Y-94166666D01*
X60212380Y-94071428D01*
X60212380Y-93880952D01*
X60164761Y-93785714D01*
X60117142Y-93738095D01*
X60021904Y-93690476D01*
X59212380Y-93690476D01*
X59212380Y-93357142D02*
X59212380Y-92785714D01*
X60212380Y-93071428D02*
X59212380Y-93071428D01*
X59831428Y-92452380D02*
X59831428Y-91690476D01*
X60212380Y-92071428D02*
X59450476Y-92071428D01*
X48812380Y-82461904D02*
X48812380Y-82938095D01*
X47812380Y-82938095D01*
X48812380Y-82128571D02*
X47812380Y-82128571D01*
X48526666Y-81795238D01*
X47812380Y-81461904D01*
X48812380Y-81461904D01*
X47907619Y-81033333D02*
X47860000Y-80985714D01*
X47812380Y-80890476D01*
X47812380Y-80652380D01*
X47860000Y-80557142D01*
X47907619Y-80509523D01*
X48002857Y-80461904D01*
X48098095Y-80461904D01*
X48240952Y-80509523D01*
X48812380Y-81080952D01*
X48812380Y-80461904D01*
X47812380Y-79557142D02*
X47812380Y-80033333D01*
X48288571Y-80080952D01*
X48240952Y-80033333D01*
X48193333Y-79938095D01*
X48193333Y-79700000D01*
X48240952Y-79604761D01*
X48288571Y-79557142D01*
X48383809Y-79509523D01*
X48621904Y-79509523D01*
X48717142Y-79557142D01*
X48764761Y-79604761D01*
X48812380Y-79700000D01*
X48812380Y-79938095D01*
X48764761Y-80033333D01*
X48717142Y-80080952D01*
X48812380Y-79033333D02*
X48812380Y-78842857D01*
X48764761Y-78747619D01*
X48717142Y-78700000D01*
X48574285Y-78604761D01*
X48383809Y-78557142D01*
X48002857Y-78557142D01*
X47907619Y-78604761D01*
X47860000Y-78652380D01*
X47812380Y-78747619D01*
X47812380Y-78938095D01*
X47860000Y-79033333D01*
X47907619Y-79080952D01*
X48002857Y-79128571D01*
X48240952Y-79128571D01*
X48336190Y-79080952D01*
X48383809Y-79033333D01*
X48431428Y-78938095D01*
X48431428Y-78747619D01*
X48383809Y-78652380D01*
X48336190Y-78604761D01*
X48240952Y-78557142D01*
X47812380Y-77700000D02*
X47812380Y-77890476D01*
X47860000Y-77985714D01*
X47907619Y-78033333D01*
X48050476Y-78128571D01*
X48240952Y-78176190D01*
X48621904Y-78176190D01*
X48717142Y-78128571D01*
X48764761Y-78080952D01*
X48812380Y-77985714D01*
X48812380Y-77795238D01*
X48764761Y-77700000D01*
X48717142Y-77652380D01*
X48621904Y-77604761D01*
X48383809Y-77604761D01*
X48288571Y-77652380D01*
X48240952Y-77700000D01*
X48193333Y-77795238D01*
X48193333Y-77985714D01*
X48240952Y-78080952D01*
X48288571Y-78128571D01*
X48383809Y-78176190D01*
X48288571Y-76080952D02*
X48336190Y-75938095D01*
X48383809Y-75890476D01*
X48479047Y-75842857D01*
X48621904Y-75842857D01*
X48717142Y-75890476D01*
X48764761Y-75938095D01*
X48812380Y-76033333D01*
X48812380Y-76414285D01*
X47812380Y-76414285D01*
X47812380Y-76080952D01*
X47860000Y-75985714D01*
X47907619Y-75938095D01*
X48002857Y-75890476D01*
X48098095Y-75890476D01*
X48193333Y-75938095D01*
X48240952Y-75985714D01*
X48288571Y-76080952D01*
X48288571Y-76414285D01*
X48145714Y-74985714D02*
X48812380Y-74985714D01*
X48145714Y-75414285D02*
X48669523Y-75414285D01*
X48764761Y-75366666D01*
X48812380Y-75271428D01*
X48812380Y-75128571D01*
X48764761Y-75033333D01*
X48717142Y-74985714D01*
X48764761Y-74080952D02*
X48812380Y-74176190D01*
X48812380Y-74366666D01*
X48764761Y-74461904D01*
X48717142Y-74509523D01*
X48621904Y-74557142D01*
X48336190Y-74557142D01*
X48240952Y-74509523D01*
X48193333Y-74461904D01*
X48145714Y-74366666D01*
X48145714Y-74176190D01*
X48193333Y-74080952D01*
X48812380Y-73652380D02*
X47812380Y-73652380D01*
X48431428Y-73557142D02*
X48812380Y-73271428D01*
X48145714Y-73271428D02*
X48526666Y-73652380D01*
X48717142Y-71509523D02*
X48764761Y-71557142D01*
X48812380Y-71700000D01*
X48812380Y-71795238D01*
X48764761Y-71938095D01*
X48669523Y-72033333D01*
X48574285Y-72080952D01*
X48383809Y-72128571D01*
X48240952Y-72128571D01*
X48050476Y-72080952D01*
X47955238Y-72033333D01*
X47860000Y-71938095D01*
X47812380Y-71795238D01*
X47812380Y-71700000D01*
X47860000Y-71557142D01*
X47907619Y-71509523D01*
X48812380Y-70938095D02*
X48764761Y-71033333D01*
X48717142Y-71080952D01*
X48621904Y-71128571D01*
X48336190Y-71128571D01*
X48240952Y-71080952D01*
X48193333Y-71033333D01*
X48145714Y-70938095D01*
X48145714Y-70795238D01*
X48193333Y-70700000D01*
X48240952Y-70652380D01*
X48336190Y-70604761D01*
X48621904Y-70604761D01*
X48717142Y-70652380D01*
X48764761Y-70700000D01*
X48812380Y-70795238D01*
X48812380Y-70938095D01*
X48145714Y-70176190D02*
X48812380Y-70176190D01*
X48240952Y-70176190D02*
X48193333Y-70128571D01*
X48145714Y-70033333D01*
X48145714Y-69890476D01*
X48193333Y-69795238D01*
X48288571Y-69747619D01*
X48812380Y-69747619D01*
X48145714Y-69366666D02*
X48812380Y-69128571D01*
X48145714Y-68890476D01*
X48764761Y-68128571D02*
X48812380Y-68223809D01*
X48812380Y-68414285D01*
X48764761Y-68509523D01*
X48669523Y-68557142D01*
X48288571Y-68557142D01*
X48193333Y-68509523D01*
X48145714Y-68414285D01*
X48145714Y-68223809D01*
X48193333Y-68128571D01*
X48288571Y-68080952D01*
X48383809Y-68080952D01*
X48479047Y-68557142D01*
X48812380Y-67652380D02*
X48145714Y-67652380D01*
X48336190Y-67652380D02*
X48240952Y-67604761D01*
X48193333Y-67557142D01*
X48145714Y-67461904D01*
X48145714Y-67366666D01*
X48145714Y-67176190D02*
X48145714Y-66795238D01*
X47812380Y-67033333D02*
X48669523Y-67033333D01*
X48764761Y-66985714D01*
X48812380Y-66890476D01*
X48812380Y-66795238D01*
X48764761Y-66080952D02*
X48812380Y-66176190D01*
X48812380Y-66366666D01*
X48764761Y-66461904D01*
X48669523Y-66509523D01*
X48288571Y-66509523D01*
X48193333Y-66461904D01*
X48145714Y-66366666D01*
X48145714Y-66176190D01*
X48193333Y-66080952D01*
X48288571Y-66033333D01*
X48383809Y-66033333D01*
X48479047Y-66509523D01*
X48812380Y-65604761D02*
X48145714Y-65604761D01*
X48336190Y-65604761D02*
X48240952Y-65557142D01*
X48193333Y-65509523D01*
X48145714Y-65414285D01*
X48145714Y-65319047D01*
X104013095Y-45172380D02*
X104013095Y-45981904D01*
X104060714Y-46077142D01*
X104108333Y-46124761D01*
X104203571Y-46172380D01*
X104394047Y-46172380D01*
X104489285Y-46124761D01*
X104536904Y-46077142D01*
X104584523Y-45981904D01*
X104584523Y-45172380D01*
X105489285Y-45505714D02*
X105489285Y-46172380D01*
X105251190Y-45124761D02*
X105013095Y-45839047D01*
X105632142Y-45839047D01*
X96869523Y-42407619D02*
X96917142Y-42360000D01*
X97012380Y-42312380D01*
X97250476Y-42312380D01*
X97345714Y-42360000D01*
X97393333Y-42407619D01*
X97440952Y-42502857D01*
X97440952Y-42598095D01*
X97393333Y-42740952D01*
X96821904Y-43312380D01*
X97440952Y-43312380D01*
X97869523Y-43217142D02*
X97917142Y-43264761D01*
X97869523Y-43312380D01*
X97821904Y-43264761D01*
X97869523Y-43217142D01*
X97869523Y-43312380D01*
X98298095Y-42407619D02*
X98345714Y-42360000D01*
X98440952Y-42312380D01*
X98679047Y-42312380D01*
X98774285Y-42360000D01*
X98821904Y-42407619D01*
X98869523Y-42502857D01*
X98869523Y-42598095D01*
X98821904Y-42740952D01*
X98250476Y-43312380D01*
X98869523Y-43312380D01*
X99250476Y-42312380D02*
X99250476Y-42502857D01*
X99631428Y-42312380D02*
X99631428Y-42502857D01*
X100679047Y-42312380D02*
X101250476Y-42312380D01*
X100964761Y-43312380D02*
X100964761Y-42312380D01*
X101917142Y-42788571D02*
X101583809Y-42788571D01*
X101583809Y-43312380D02*
X101583809Y-42312380D01*
X102060000Y-42312380D01*
X102298095Y-42312380D02*
X102869523Y-42312380D01*
X102583809Y-43312380D02*
X102583809Y-42312380D01*
X103917142Y-43264761D02*
X104060000Y-43312380D01*
X104298095Y-43312380D01*
X104393333Y-43264761D01*
X104440952Y-43217142D01*
X104488571Y-43121904D01*
X104488571Y-43026666D01*
X104440952Y-42931428D01*
X104393333Y-42883809D01*
X104298095Y-42836190D01*
X104107619Y-42788571D01*
X104012380Y-42740952D01*
X103964761Y-42693333D01*
X103917142Y-42598095D01*
X103917142Y-42502857D01*
X103964761Y-42407619D01*
X104012380Y-42360000D01*
X104107619Y-42312380D01*
X104345714Y-42312380D01*
X104488571Y-42360000D01*
X104917142Y-43312380D02*
X104917142Y-42312380D01*
X105298095Y-42312380D01*
X105393333Y-42360000D01*
X105440952Y-42407619D01*
X105488571Y-42502857D01*
X105488571Y-42645714D01*
X105440952Y-42740952D01*
X105393333Y-42788571D01*
X105298095Y-42836190D01*
X104917142Y-42836190D01*
X105917142Y-43312380D02*
X105917142Y-42312380D01*
X107107619Y-42407619D02*
X107155238Y-42360000D01*
X107250476Y-42312380D01*
X107488571Y-42312380D01*
X107583809Y-42360000D01*
X107631428Y-42407619D01*
X107679047Y-42502857D01*
X107679047Y-42598095D01*
X107631428Y-42740952D01*
X107060000Y-43312380D01*
X107679047Y-43312380D01*
X108536190Y-42645714D02*
X108536190Y-43312380D01*
X108298095Y-42264761D02*
X108059999Y-42979047D01*
X108679047Y-42979047D01*
X109250476Y-42312380D02*
X109345714Y-42312380D01*
X109440952Y-42360000D01*
X109488571Y-42407619D01*
X109536190Y-42502857D01*
X109583809Y-42693333D01*
X109583809Y-42931428D01*
X109536190Y-43121904D01*
X109488571Y-43217142D01*
X109440952Y-43264761D01*
X109345714Y-43312380D01*
X109250476Y-43312380D01*
X109155238Y-43264761D01*
X109107619Y-43217142D01*
X109059999Y-43121904D01*
X109012380Y-42931428D01*
X109012380Y-42693333D01*
X109059999Y-42502857D01*
X109107619Y-42407619D01*
X109155238Y-42360000D01*
X109250476Y-42312380D01*
X109917142Y-43312380D02*
X110440952Y-42645714D01*
X109917142Y-42645714D02*
X110440952Y-43312380D01*
X110726666Y-42312380D02*
X111345714Y-42312380D01*
X111012380Y-42693333D01*
X111155238Y-42693333D01*
X111250476Y-42740952D01*
X111298095Y-42788571D01*
X111345714Y-42883809D01*
X111345714Y-43121904D01*
X111298095Y-43217142D01*
X111250476Y-43264761D01*
X111155238Y-43312380D01*
X110869523Y-43312380D01*
X110774285Y-43264761D01*
X110726666Y-43217142D01*
X111726666Y-42407619D02*
X111774285Y-42360000D01*
X111869523Y-42312380D01*
X112107619Y-42312380D01*
X112202857Y-42360000D01*
X112250476Y-42407619D01*
X112298095Y-42502857D01*
X112298095Y-42598095D01*
X112250476Y-42740952D01*
X111679047Y-43312380D01*
X112298095Y-43312380D01*
X112917142Y-42312380D02*
X113012380Y-42312380D01*
X113107619Y-42360000D01*
X113155238Y-42407619D01*
X113202857Y-42502857D01*
X113250476Y-42693333D01*
X113250476Y-42931428D01*
X113202857Y-43121904D01*
X113155238Y-43217142D01*
X113107619Y-43264761D01*
X113012380Y-43312380D01*
X112917142Y-43312380D01*
X112821904Y-43264761D01*
X112774285Y-43217142D01*
X112726666Y-43121904D01*
X112679047Y-42931428D01*
X112679047Y-42693333D01*
X112726666Y-42502857D01*
X112774285Y-42407619D01*
X112821904Y-42360000D01*
X112917142Y-42312380D01*
X162364761Y-88717380D02*
X162031428Y-88241190D01*
X161793333Y-88717380D02*
X161793333Y-87717380D01*
X162174285Y-87717380D01*
X162269523Y-87765000D01*
X162317142Y-87812619D01*
X162364761Y-87907857D01*
X162364761Y-88050714D01*
X162317142Y-88145952D01*
X162269523Y-88193571D01*
X162174285Y-88241190D01*
X161793333Y-88241190D01*
X162650476Y-87717380D02*
X162983809Y-88717380D01*
X163317142Y-87717380D01*
X164174285Y-88717380D02*
X163602857Y-88717380D01*
X163888571Y-88717380D02*
X163888571Y-87717380D01*
X163793333Y-87860238D01*
X163698095Y-87955476D01*
X163602857Y-88003095D01*
M02*
