G04 #@! TF.GenerationSoftware,KiCad,Pcbnew,(5.1.4)-1*
G04 #@! TF.CreationDate,2019-11-03T17:56:11-05:00*
G04 #@! TF.ProjectId,MorseTutor4,4d6f7273-6554-4757-946f-72342e6b6963,rev?*
G04 #@! TF.SameCoordinates,Original*
G04 #@! TF.FileFunction,Copper,L1,Top*
G04 #@! TF.FilePolarity,Positive*
%FSLAX46Y46*%
G04 Gerber Fmt 4.6, Leading zero omitted, Abs format (unit mm)*
G04 Created by KiCad (PCBNEW (5.1.4)-1) date 2019-11-03 17:56:11*
%MOMM*%
%LPD*%
G04 APERTURE LIST*
%ADD10O,1.750000X1.200000*%
%ADD11C,0.100000*%
%ADD12C,1.200000*%
%ADD13C,1.524000*%
%ADD14C,1.560000*%
%ADD15R,1.560000X1.560000*%
%ADD16O,1.800000X2.000000*%
%ADD17C,2.000000*%
%ADD18C,1.600000*%
%ADD19O,1.600000X1.600000*%
%ADD20C,1.800000*%
%ADD21C,4.000000*%
%ADD22R,2.800000X3.600000*%
%ADD23R,2.600000X2.600000*%
%ADD24C,2.600000*%
%ADD25O,1.700000X1.700000*%
%ADD26R,1.700000X1.700000*%
%ADD27R,1.500000X2.500000*%
%ADD28O,1.500000X2.500000*%
%ADD29O,2.200000X3.500000*%
%ADD30O,3.500000X2.200000*%
%ADD31O,2.500000X1.500000*%
%ADD32R,2.500000X1.500000*%
%ADD33R,1.524000X1.524000*%
%ADD34C,0.685800*%
%ADD35C,0.203200*%
%ADD36C,0.508000*%
%ADD37C,0.254000*%
G04 APERTURE END LIST*
D10*
X36477000Y-80705000D03*
D11*
G36*
X37126505Y-82106204D02*
G01*
X37150773Y-82109804D01*
X37174572Y-82115765D01*
X37197671Y-82124030D01*
X37219850Y-82134520D01*
X37240893Y-82147132D01*
X37260599Y-82161747D01*
X37278777Y-82178223D01*
X37295253Y-82196401D01*
X37309868Y-82216107D01*
X37322480Y-82237150D01*
X37332970Y-82259329D01*
X37341235Y-82282428D01*
X37347196Y-82306227D01*
X37350796Y-82330495D01*
X37352000Y-82354999D01*
X37352000Y-83055001D01*
X37350796Y-83079505D01*
X37347196Y-83103773D01*
X37341235Y-83127572D01*
X37332970Y-83150671D01*
X37322480Y-83172850D01*
X37309868Y-83193893D01*
X37295253Y-83213599D01*
X37278777Y-83231777D01*
X37260599Y-83248253D01*
X37240893Y-83262868D01*
X37219850Y-83275480D01*
X37197671Y-83285970D01*
X37174572Y-83294235D01*
X37150773Y-83300196D01*
X37126505Y-83303796D01*
X37102001Y-83305000D01*
X35851999Y-83305000D01*
X35827495Y-83303796D01*
X35803227Y-83300196D01*
X35779428Y-83294235D01*
X35756329Y-83285970D01*
X35734150Y-83275480D01*
X35713107Y-83262868D01*
X35693401Y-83248253D01*
X35675223Y-83231777D01*
X35658747Y-83213599D01*
X35644132Y-83193893D01*
X35631520Y-83172850D01*
X35621030Y-83150671D01*
X35612765Y-83127572D01*
X35606804Y-83103773D01*
X35603204Y-83079505D01*
X35602000Y-83055001D01*
X35602000Y-82354999D01*
X35603204Y-82330495D01*
X35606804Y-82306227D01*
X35612765Y-82282428D01*
X35621030Y-82259329D01*
X35631520Y-82237150D01*
X35644132Y-82216107D01*
X35658747Y-82196401D01*
X35675223Y-82178223D01*
X35693401Y-82161747D01*
X35713107Y-82147132D01*
X35734150Y-82134520D01*
X35756329Y-82124030D01*
X35779428Y-82115765D01*
X35803227Y-82109804D01*
X35827495Y-82106204D01*
X35851999Y-82105000D01*
X37102001Y-82105000D01*
X37126505Y-82106204D01*
X37126505Y-82106204D01*
G37*
D12*
X36477000Y-82705000D03*
D13*
X118080000Y-58810000D03*
X118080000Y-56270000D03*
X118080000Y-53730000D03*
X118080000Y-61350000D03*
X37080000Y-58790000D03*
X121380000Y-58790000D03*
X37080000Y-61330000D03*
X37080000Y-63870000D03*
X121380000Y-56250000D03*
X37080000Y-56250000D03*
X37080000Y-68950000D03*
X121380000Y-61330000D03*
X37080000Y-66410000D03*
X37080000Y-43550000D03*
X37080000Y-74030000D03*
X37080000Y-46090000D03*
X121380000Y-53710000D03*
X37080000Y-41010000D03*
X37080000Y-71490000D03*
X37080000Y-51170000D03*
X37080000Y-53710000D03*
X37080000Y-48630000D03*
D14*
X34220000Y-112550000D03*
X72320000Y-112550000D03*
X52000000Y-112550000D03*
X49460000Y-112550000D03*
X39300000Y-112550000D03*
X64700000Y-112550000D03*
X74860000Y-112550000D03*
X57080000Y-112550000D03*
X36760000Y-112550000D03*
X54540000Y-112550000D03*
X31680000Y-112550000D03*
X41840000Y-112550000D03*
X62160000Y-112550000D03*
X69780000Y-112550000D03*
D15*
X77400000Y-112550000D03*
D14*
X67240000Y-112550000D03*
X59620000Y-112550000D03*
X46920000Y-112550000D03*
X44380000Y-112550000D03*
X77400000Y-89690000D03*
X74860000Y-89690000D03*
X72320000Y-89690000D03*
X69780000Y-89690000D03*
X67240000Y-89690000D03*
X64700000Y-89690000D03*
X62160000Y-89690000D03*
X59620000Y-89690000D03*
X57080000Y-89690000D03*
X54540000Y-89690000D03*
X52000000Y-89690000D03*
X49460000Y-89690000D03*
X46920000Y-89690000D03*
X44380000Y-89690000D03*
X41840000Y-89690000D03*
X39300000Y-89690000D03*
X36760000Y-89690000D03*
X34220000Y-89690000D03*
X31680000Y-89690000D03*
X34220000Y-115090000D03*
X36760000Y-115090000D03*
X39300000Y-115090000D03*
X41840000Y-115090000D03*
X44380000Y-115090000D03*
X46920000Y-115090000D03*
X49460000Y-115090000D03*
X52000000Y-115090000D03*
X54540000Y-115090000D03*
X57080000Y-115090000D03*
X59620000Y-115090000D03*
X62160000Y-115090000D03*
X64700000Y-115090000D03*
X67240000Y-115090000D03*
X69780000Y-115090000D03*
X72320000Y-115090000D03*
X31680000Y-115090000D03*
X74860000Y-115090000D03*
D15*
X77400000Y-115090000D03*
D16*
X90880000Y-39310000D03*
X88380000Y-39310000D03*
X80880000Y-39310000D03*
X83380000Y-39310000D03*
X85880000Y-33810000D03*
X110010000Y-33810000D03*
X107510000Y-39310000D03*
X105010000Y-39310000D03*
X112510000Y-39310000D03*
X115010000Y-39310000D03*
D17*
X100986000Y-76355000D03*
X115986000Y-76355000D03*
D18*
X32540000Y-40160000D03*
D19*
X32540000Y-50320000D03*
X67465000Y-120170000D03*
D18*
X77625000Y-120170000D03*
D20*
X91000000Y-114870000D03*
X93500000Y-114870000D03*
X96000000Y-114870000D03*
D21*
X89100000Y-107870000D03*
X97900000Y-107870000D03*
D22*
X122710000Y-108105000D03*
X111310000Y-108105000D03*
D17*
X119510000Y-115105000D03*
X114510000Y-115105000D03*
X119510000Y-100605000D03*
X117010000Y-100605000D03*
X114510000Y-100605000D03*
D13*
X93480000Y-64900000D03*
X90960000Y-64900000D03*
X88420000Y-64900000D03*
X80800000Y-64900000D03*
X78260000Y-64900000D03*
X93480000Y-45900000D03*
X90960000Y-45900000D03*
X80800000Y-45900000D03*
X78260000Y-45900000D03*
D23*
X60480000Y-40160000D03*
D24*
X60480000Y-34160000D03*
X65180000Y-37160000D03*
D25*
X41430000Y-83340000D03*
D26*
X41430000Y-85880000D03*
X71910000Y-31905000D03*
D25*
X69370000Y-31905000D03*
D27*
X43970000Y-32540000D03*
D28*
X45970000Y-32540000D03*
X47970000Y-32540000D03*
D29*
X41870000Y-32540000D03*
X50070000Y-32540000D03*
D30*
X33175000Y-63905000D03*
X33175000Y-72105000D03*
D31*
X33175000Y-66005000D03*
X33175000Y-68005000D03*
D32*
X33175000Y-70005000D03*
D33*
X41557000Y-37112000D03*
X50701000Y-37112000D03*
X41557000Y-52352000D03*
X50701000Y-52352000D03*
D26*
X32540000Y-54765000D03*
D25*
X32540000Y-57305000D03*
X32540000Y-59845000D03*
D34*
X78260006Y-87150000D03*
D35*
X60480000Y-115950000D02*
X59620000Y-115090000D01*
X60480000Y-120170000D02*
X60480000Y-115950000D01*
X63020000Y-122710000D02*
X60480000Y-120170000D01*
X117630000Y-122710000D02*
X63020000Y-122710000D01*
X105010000Y-39310000D02*
X105010000Y-40513200D01*
X105010000Y-40513200D02*
X107196800Y-42700000D01*
X107196800Y-42700000D02*
X121440000Y-42700000D01*
X121440000Y-42700000D02*
X126520000Y-47780000D01*
X126520000Y-47780000D02*
X126520000Y-113820000D01*
X126520000Y-113820000D02*
X117630000Y-122710000D01*
X90880000Y-45820000D02*
X90960000Y-45900000D01*
X90880000Y-39310000D02*
X90880000Y-45820000D01*
X85880000Y-33810000D02*
X89690000Y-33810000D01*
X89690000Y-33810000D02*
X93500000Y-37620000D01*
X93480000Y-37640000D02*
X93480000Y-45900000D01*
X93500000Y-37620000D02*
X93480000Y-37640000D01*
X115010000Y-40513200D02*
X115010000Y-39310000D01*
X121440000Y-41430000D02*
X115926800Y-41430000D01*
X127790000Y-47780000D02*
X121440000Y-41430000D01*
X127790000Y-113820000D02*
X127790000Y-47780000D01*
X117630000Y-123980000D02*
X127790000Y-113820000D01*
X61075199Y-111465199D02*
X59099295Y-111465199D01*
X62160000Y-112550000D02*
X61075199Y-111465199D01*
X59099295Y-111465199D02*
X58535199Y-112029295D01*
X58535199Y-112029295D02*
X58535199Y-122035199D01*
X115926800Y-41430000D02*
X115010000Y-40513200D01*
X58535199Y-122035199D02*
X60480000Y-123980000D01*
X60480000Y-123980000D02*
X117630000Y-123980000D01*
X96000000Y-114870000D02*
X96000000Y-118225000D01*
X94135000Y-120090000D02*
X94135000Y-120170000D01*
X96000000Y-118225000D02*
X94135000Y-120090000D01*
X77625000Y-120170000D02*
X94135000Y-120170000D01*
X43110000Y-93500000D02*
X39300000Y-89690000D01*
X111280000Y-93500000D02*
X43110000Y-93500000D01*
X112550000Y-94770000D02*
X111280000Y-93500000D01*
X112550000Y-102390000D02*
X112550000Y-94770000D01*
X114510000Y-115105000D02*
X114510000Y-104350000D01*
X114510000Y-104350000D02*
X112550000Y-102390000D01*
X49460000Y-89690000D02*
X52000000Y-92230000D01*
X52000000Y-92230000D02*
X95344750Y-92230000D01*
X95344750Y-92230000D02*
X116995000Y-92230000D01*
X119510000Y-94745000D02*
X119510000Y-100063590D01*
X116995000Y-92230000D02*
X119510000Y-94745000D01*
X49572500Y-92342500D02*
X46920000Y-89690000D01*
X50095000Y-92865000D02*
X49572500Y-92342500D01*
X112550000Y-92865000D02*
X50095000Y-92865000D01*
X114510000Y-100605000D02*
X114510000Y-94825000D01*
X114510000Y-94825000D02*
X112550000Y-92865000D01*
X35715000Y-47455000D02*
X37080000Y-46090000D01*
X35715000Y-53952182D02*
X35715000Y-47455000D01*
X35715000Y-75085000D02*
X35715000Y-54993591D01*
X46510000Y-85880000D02*
X35715000Y-75085000D01*
X54540000Y-89690000D02*
X50730000Y-85880000D01*
X50730000Y-85880000D02*
X46510000Y-85880000D01*
X35715000Y-53952182D02*
X35715000Y-54993591D01*
X74860000Y-89690000D02*
X75963086Y-88586914D01*
X107303086Y-88586914D02*
X123573589Y-72316411D01*
X75963086Y-88586914D02*
X107303086Y-88586914D01*
X118080000Y-56250000D02*
X115940000Y-54110000D01*
X115540000Y-53710000D02*
X115305000Y-53710000D01*
X118080000Y-56250000D02*
X115540000Y-53710000D01*
X37080000Y-53710000D02*
X115305000Y-53710000D01*
X123573589Y-58443589D02*
X121380000Y-56250000D01*
X123573589Y-65153589D02*
X123573589Y-58443589D01*
X123573589Y-72316411D02*
X123573589Y-65153589D01*
X123573589Y-65153589D02*
X123573589Y-64793589D01*
X113000000Y-56250000D02*
X112970000Y-56250000D01*
X118080000Y-61330000D02*
X113000000Y-56250000D01*
X37080000Y-56250000D02*
X112970000Y-56250000D01*
X40160000Y-64410000D02*
X37080000Y-61330000D01*
X40160000Y-76990000D02*
X40160000Y-64410000D01*
X46510000Y-83340000D02*
X40160000Y-76990000D01*
X54373086Y-83340000D02*
X46510000Y-83340000D01*
X59620000Y-89690000D02*
X59620000Y-88586914D01*
X59620000Y-88586914D02*
X54373086Y-83340000D01*
X119146801Y-61862065D02*
X119146801Y-59856801D01*
X119146801Y-59856801D02*
X118080000Y-58790000D01*
X118592065Y-62416801D02*
X119146801Y-61862065D01*
X38166801Y-62416801D02*
X118592065Y-62416801D01*
X37080000Y-61330000D02*
X38166801Y-62416801D01*
X124615000Y-56945000D02*
X121380000Y-53710000D01*
X124615000Y-75085000D02*
X124615000Y-56945000D01*
X108105000Y-91595000D02*
X124615000Y-75085000D01*
X52000000Y-89690000D02*
X53905000Y-91595000D01*
X53905000Y-91595000D02*
X108105000Y-91595000D01*
D36*
X71910000Y-35080000D02*
X66830000Y-40160000D01*
X71910000Y-31905000D02*
X71910000Y-35080000D01*
X43970000Y-35080000D02*
X43970000Y-32540000D01*
X44351000Y-35461000D02*
X43970000Y-35080000D01*
X66830000Y-40160000D02*
X60480000Y-40160000D01*
X53749000Y-35461000D02*
X44351000Y-35461000D01*
X58448000Y-40160000D02*
X53749000Y-35461000D01*
X60480000Y-40160000D02*
X58448000Y-40160000D01*
X69370000Y-35430000D02*
X67640000Y-37160000D01*
X69370000Y-31905000D02*
X69370000Y-35430000D01*
X65180000Y-37160000D02*
X67640000Y-37160000D01*
D37*
G36*
X40420421Y-30921423D02*
G01*
X40259314Y-31222833D01*
X40160105Y-31549882D01*
X40135000Y-31804776D01*
X40135000Y-33275225D01*
X40160105Y-33530119D01*
X40259315Y-33857168D01*
X40420422Y-34158578D01*
X40637235Y-34422766D01*
X40901423Y-34639579D01*
X41202833Y-34800686D01*
X41529882Y-34899895D01*
X41870000Y-34933394D01*
X42210119Y-34899895D01*
X42537168Y-34800686D01*
X42838578Y-34639579D01*
X43081000Y-34440629D01*
X43081000Y-35036340D01*
X43076700Y-35080000D01*
X43081000Y-35123660D01*
X43081000Y-35123666D01*
X43087778Y-35192481D01*
X43093864Y-35254274D01*
X43101783Y-35280378D01*
X43144697Y-35421850D01*
X43227247Y-35576290D01*
X43338341Y-35711659D01*
X43372265Y-35739500D01*
X43691497Y-36058731D01*
X43719341Y-36092659D01*
X43854709Y-36203753D01*
X44009149Y-36286303D01*
X44074531Y-36306136D01*
X44176724Y-36337136D01*
X44209924Y-36340406D01*
X44307333Y-36350000D01*
X44307339Y-36350000D01*
X44350999Y-36354300D01*
X44394659Y-36350000D01*
X49300928Y-36350000D01*
X49300928Y-37874000D01*
X49313188Y-37998482D01*
X49349498Y-38118180D01*
X49408463Y-38228494D01*
X49487815Y-38325185D01*
X49584506Y-38404537D01*
X49694820Y-38463502D01*
X49814518Y-38499812D01*
X49939000Y-38512072D01*
X51463000Y-38512072D01*
X51587482Y-38499812D01*
X51707180Y-38463502D01*
X51817494Y-38404537D01*
X51914185Y-38325185D01*
X51993537Y-38228494D01*
X52052502Y-38118180D01*
X52088812Y-37998482D01*
X52101072Y-37874000D01*
X52101072Y-36350000D01*
X53380765Y-36350000D01*
X57788506Y-40757742D01*
X57816341Y-40791659D01*
X57951709Y-40902753D01*
X58106149Y-40985303D01*
X58216533Y-41018787D01*
X58273725Y-41036136D01*
X58448000Y-41053301D01*
X58491668Y-41049000D01*
X58541928Y-41049000D01*
X58541928Y-41460000D01*
X58554188Y-41584482D01*
X58590498Y-41704180D01*
X58649463Y-41814494D01*
X58728815Y-41911185D01*
X58825506Y-41990537D01*
X58935820Y-42049502D01*
X59055518Y-42085812D01*
X59180000Y-42098072D01*
X61780000Y-42098072D01*
X61904482Y-42085812D01*
X62024180Y-42049502D01*
X62134494Y-41990537D01*
X62231185Y-41911185D01*
X62310537Y-41814494D01*
X62369502Y-41704180D01*
X62405812Y-41584482D01*
X62418072Y-41460000D01*
X62418072Y-41049000D01*
X66786340Y-41049000D01*
X66830000Y-41053300D01*
X66873660Y-41049000D01*
X66873667Y-41049000D01*
X67004274Y-41036136D01*
X67171851Y-40985303D01*
X67326291Y-40902753D01*
X67461659Y-40791659D01*
X67489499Y-40757736D01*
X69112643Y-39134592D01*
X79345000Y-39134592D01*
X79345000Y-39485407D01*
X79367210Y-39710912D01*
X79454983Y-40000260D01*
X79597519Y-40266926D01*
X79789339Y-40500661D01*
X80023073Y-40692481D01*
X80289739Y-40835017D01*
X80579087Y-40922790D01*
X80880000Y-40952427D01*
X81180912Y-40922790D01*
X81470260Y-40835017D01*
X81736926Y-40692481D01*
X81970661Y-40500661D01*
X82130000Y-40306505D01*
X82289339Y-40500661D01*
X82523073Y-40692481D01*
X82789739Y-40835017D01*
X83079087Y-40922790D01*
X83380000Y-40952427D01*
X83680912Y-40922790D01*
X83970260Y-40835017D01*
X84236926Y-40692481D01*
X84470661Y-40500661D01*
X84662481Y-40266927D01*
X84805017Y-40000261D01*
X84892790Y-39710913D01*
X84915000Y-39485408D01*
X84915000Y-39134593D01*
X84892790Y-38909088D01*
X84805017Y-38619740D01*
X84662481Y-38353073D01*
X84470661Y-38119339D01*
X84236927Y-37927519D01*
X83970261Y-37784983D01*
X83680913Y-37697210D01*
X83380000Y-37667573D01*
X83079088Y-37697210D01*
X82789740Y-37784983D01*
X82523074Y-37927519D01*
X82289339Y-38119339D01*
X82130000Y-38313495D01*
X81970661Y-38119339D01*
X81736927Y-37927519D01*
X81470261Y-37784983D01*
X81180913Y-37697210D01*
X80880000Y-37667573D01*
X80579088Y-37697210D01*
X80289740Y-37784983D01*
X80023074Y-37927519D01*
X79789339Y-38119339D01*
X79597519Y-38353073D01*
X79454983Y-38619739D01*
X79367210Y-38909087D01*
X79345000Y-39134592D01*
X69112643Y-39134592D01*
X72507742Y-35739494D01*
X72541659Y-35711659D01*
X72652753Y-35576291D01*
X72735303Y-35421851D01*
X72786136Y-35254274D01*
X72799000Y-35123667D01*
X72799000Y-35123660D01*
X72803300Y-35080000D01*
X72799000Y-35036340D01*
X72799000Y-33634592D01*
X84345000Y-33634592D01*
X84345000Y-33985407D01*
X84367210Y-34210912D01*
X84454983Y-34500260D01*
X84597519Y-34766926D01*
X84789339Y-35000661D01*
X85023073Y-35192481D01*
X85289739Y-35335017D01*
X85579087Y-35422790D01*
X85880000Y-35452427D01*
X86180912Y-35422790D01*
X86470260Y-35335017D01*
X86736926Y-35192481D01*
X86970661Y-35000661D01*
X87162481Y-34766927D01*
X87280248Y-34546600D01*
X89384891Y-34546600D01*
X92743400Y-37905110D01*
X92743401Y-44712023D01*
X92589465Y-44814880D01*
X92394880Y-45009465D01*
X92241995Y-45238273D01*
X92220000Y-45291373D01*
X92198005Y-45238273D01*
X92045120Y-45009465D01*
X91850535Y-44814880D01*
X91621727Y-44661995D01*
X91616600Y-44659871D01*
X91616600Y-40756797D01*
X91736926Y-40692481D01*
X91970661Y-40500661D01*
X92162481Y-40266927D01*
X92305017Y-40000261D01*
X92392790Y-39710913D01*
X92415000Y-39485408D01*
X92415000Y-39134593D01*
X92392790Y-38909088D01*
X92305017Y-38619740D01*
X92162481Y-38353073D01*
X91970661Y-38119339D01*
X91736927Y-37927519D01*
X91470261Y-37784983D01*
X91180913Y-37697210D01*
X90880000Y-37667573D01*
X90579088Y-37697210D01*
X90289740Y-37784983D01*
X90023074Y-37927519D01*
X89789339Y-38119339D01*
X89630000Y-38313495D01*
X89470661Y-38119339D01*
X89236927Y-37927519D01*
X88970261Y-37784983D01*
X88680913Y-37697210D01*
X88380000Y-37667573D01*
X88079088Y-37697210D01*
X87789740Y-37784983D01*
X87523074Y-37927519D01*
X87289339Y-38119339D01*
X87097519Y-38353073D01*
X86954983Y-38619739D01*
X86867210Y-38909087D01*
X86845000Y-39134592D01*
X86845000Y-39485407D01*
X86867210Y-39710912D01*
X86954983Y-40000260D01*
X87097519Y-40266926D01*
X87289339Y-40500661D01*
X87523073Y-40692481D01*
X87789739Y-40835017D01*
X88079087Y-40922790D01*
X88380000Y-40952427D01*
X88680912Y-40922790D01*
X88970260Y-40835017D01*
X89236926Y-40692481D01*
X89470661Y-40500661D01*
X89630000Y-40306505D01*
X89789339Y-40500661D01*
X90023073Y-40692481D01*
X90143400Y-40756797D01*
X90143401Y-44765478D01*
X90069465Y-44814880D01*
X89874880Y-45009465D01*
X89721995Y-45238273D01*
X89616686Y-45492510D01*
X89563000Y-45762408D01*
X89563000Y-46037592D01*
X89616686Y-46307490D01*
X89721995Y-46561727D01*
X89874880Y-46790535D01*
X90069465Y-46985120D01*
X90298273Y-47138005D01*
X90552510Y-47243314D01*
X90822408Y-47297000D01*
X91097592Y-47297000D01*
X91367490Y-47243314D01*
X91621727Y-47138005D01*
X91850535Y-46985120D01*
X92045120Y-46790535D01*
X92198005Y-46561727D01*
X92220000Y-46508627D01*
X92241995Y-46561727D01*
X92394880Y-46790535D01*
X92589465Y-46985120D01*
X92818273Y-47138005D01*
X93072510Y-47243314D01*
X93342408Y-47297000D01*
X93617592Y-47297000D01*
X93887490Y-47243314D01*
X94141727Y-47138005D01*
X94370535Y-46985120D01*
X94565120Y-46790535D01*
X94718005Y-46561727D01*
X94823314Y-46307490D01*
X94877000Y-46037592D01*
X94877000Y-45762408D01*
X94823314Y-45492510D01*
X94718005Y-45238273D01*
X94565120Y-45009465D01*
X94370535Y-44814880D01*
X94216600Y-44712024D01*
X94216600Y-37795195D01*
X94225942Y-37764399D01*
X94240164Y-37620000D01*
X94225942Y-37475601D01*
X94183822Y-37336752D01*
X94115424Y-37208787D01*
X94046442Y-37124732D01*
X94046431Y-37124721D01*
X94023374Y-37096626D01*
X93995279Y-37073569D01*
X91098330Y-34176620D01*
X108499224Y-34176620D01*
X108580268Y-34466235D01*
X108716256Y-34734474D01*
X108901962Y-34971029D01*
X109130249Y-35166809D01*
X109392344Y-35314291D01*
X109645260Y-35401036D01*
X109883000Y-35280378D01*
X109883000Y-33937000D01*
X110137000Y-33937000D01*
X110137000Y-35280378D01*
X110374740Y-35401036D01*
X110627656Y-35314291D01*
X110889751Y-35166809D01*
X111118038Y-34971029D01*
X111303744Y-34734474D01*
X111439732Y-34466235D01*
X111520776Y-34176620D01*
X111385134Y-33937000D01*
X110137000Y-33937000D01*
X109883000Y-33937000D01*
X108634866Y-33937000D01*
X108499224Y-34176620D01*
X91098330Y-34176620D01*
X90365090Y-33443380D01*
X108499224Y-33443380D01*
X108634866Y-33683000D01*
X109883000Y-33683000D01*
X109883000Y-32339622D01*
X110137000Y-32339622D01*
X110137000Y-33683000D01*
X111385134Y-33683000D01*
X111520776Y-33443380D01*
X111439732Y-33153765D01*
X111303744Y-32885526D01*
X111118038Y-32648971D01*
X110889751Y-32453191D01*
X110627656Y-32305709D01*
X110374740Y-32218964D01*
X110137000Y-32339622D01*
X109883000Y-32339622D01*
X109645260Y-32218964D01*
X109392344Y-32305709D01*
X109130249Y-32453191D01*
X108901962Y-32648971D01*
X108716256Y-32885526D01*
X108580268Y-33153765D01*
X108499224Y-33443380D01*
X90365090Y-33443380D01*
X90236446Y-33314737D01*
X90213375Y-33286625D01*
X90101213Y-33194576D01*
X89973249Y-33126178D01*
X89834399Y-33084058D01*
X89726186Y-33073400D01*
X89726183Y-33073400D01*
X89690000Y-33069836D01*
X89653817Y-33073400D01*
X87280248Y-33073400D01*
X87162481Y-32853073D01*
X86970661Y-32619339D01*
X86736927Y-32427519D01*
X86470261Y-32284983D01*
X86180913Y-32197210D01*
X85880000Y-32167573D01*
X85579088Y-32197210D01*
X85289740Y-32284983D01*
X85023074Y-32427519D01*
X84789339Y-32619339D01*
X84597519Y-32853073D01*
X84454983Y-33119739D01*
X84367210Y-33409087D01*
X84345000Y-33634592D01*
X72799000Y-33634592D01*
X72799000Y-33389231D01*
X72884482Y-33380812D01*
X73004180Y-33344502D01*
X73114494Y-33285537D01*
X73211185Y-33206185D01*
X73290537Y-33109494D01*
X73349502Y-32999180D01*
X73385812Y-32879482D01*
X73398072Y-32755000D01*
X73398072Y-31055000D01*
X73385812Y-30930518D01*
X73349502Y-30810820D01*
X73290537Y-30700506D01*
X73257295Y-30660000D01*
X124585664Y-30660000D01*
X124281971Y-30785794D01*
X123687922Y-31182725D01*
X123182725Y-31687922D01*
X122785794Y-32281971D01*
X122512383Y-32942043D01*
X122373000Y-33642772D01*
X122373000Y-34357228D01*
X122512383Y-35057957D01*
X122785794Y-35718029D01*
X123182725Y-36312078D01*
X123687922Y-36817275D01*
X124281971Y-37214206D01*
X124942043Y-37487617D01*
X125642772Y-37627000D01*
X126357228Y-37627000D01*
X127057957Y-37487617D01*
X127718029Y-37214206D01*
X128312078Y-36817275D01*
X128817275Y-36312078D01*
X129214206Y-35718029D01*
X129340000Y-35414336D01*
X129340001Y-122585667D01*
X129214206Y-122281971D01*
X128817275Y-121687922D01*
X128312078Y-121182725D01*
X127718029Y-120785794D01*
X127057957Y-120512383D01*
X126357228Y-120373000D01*
X125642772Y-120373000D01*
X124942043Y-120512383D01*
X124281971Y-120785794D01*
X123687922Y-121182725D01*
X123182725Y-121687922D01*
X122785794Y-122281971D01*
X122512383Y-122942043D01*
X122373000Y-123642772D01*
X122373000Y-124357228D01*
X122512383Y-125057957D01*
X122785794Y-125718029D01*
X123182725Y-126312078D01*
X123687922Y-126817275D01*
X124281971Y-127214206D01*
X124585664Y-127340000D01*
X35414336Y-127340000D01*
X35718029Y-127214206D01*
X36312078Y-126817275D01*
X36817275Y-126312078D01*
X37214206Y-125718029D01*
X37487617Y-125057957D01*
X37627000Y-124357228D01*
X37627000Y-123642772D01*
X37487617Y-122942043D01*
X37214206Y-122281971D01*
X36817275Y-121687922D01*
X36312078Y-121182725D01*
X35718029Y-120785794D01*
X35057957Y-120512383D01*
X34357228Y-120373000D01*
X33642772Y-120373000D01*
X32942043Y-120512383D01*
X32281971Y-120785794D01*
X31687922Y-121182725D01*
X31182725Y-121687922D01*
X30785794Y-122281971D01*
X30660000Y-122585664D01*
X30660000Y-116071113D01*
X30777990Y-116189103D01*
X31009746Y-116343957D01*
X31267260Y-116450623D01*
X31540635Y-116505000D01*
X31819365Y-116505000D01*
X32092740Y-116450623D01*
X32350254Y-116343957D01*
X32582010Y-116189103D01*
X32779103Y-115992010D01*
X32933957Y-115760254D01*
X32950000Y-115721523D01*
X32966043Y-115760254D01*
X33120897Y-115992010D01*
X33317990Y-116189103D01*
X33549746Y-116343957D01*
X33807260Y-116450623D01*
X34080635Y-116505000D01*
X34359365Y-116505000D01*
X34632740Y-116450623D01*
X34890254Y-116343957D01*
X35122010Y-116189103D01*
X35319103Y-115992010D01*
X35473957Y-115760254D01*
X35490000Y-115721523D01*
X35506043Y-115760254D01*
X35660897Y-115992010D01*
X35857990Y-116189103D01*
X36089746Y-116343957D01*
X36347260Y-116450623D01*
X36620635Y-116505000D01*
X36899365Y-116505000D01*
X37172740Y-116450623D01*
X37430254Y-116343957D01*
X37662010Y-116189103D01*
X37859103Y-115992010D01*
X38013957Y-115760254D01*
X38030000Y-115721523D01*
X38046043Y-115760254D01*
X38200897Y-115992010D01*
X38397990Y-116189103D01*
X38629746Y-116343957D01*
X38887260Y-116450623D01*
X39160635Y-116505000D01*
X39439365Y-116505000D01*
X39712740Y-116450623D01*
X39970254Y-116343957D01*
X40202010Y-116189103D01*
X40399103Y-115992010D01*
X40553957Y-115760254D01*
X40570000Y-115721523D01*
X40586043Y-115760254D01*
X40740897Y-115992010D01*
X40937990Y-116189103D01*
X41169746Y-116343957D01*
X41427260Y-116450623D01*
X41700635Y-116505000D01*
X41979365Y-116505000D01*
X42252740Y-116450623D01*
X42510254Y-116343957D01*
X42742010Y-116189103D01*
X42862692Y-116068421D01*
X43581184Y-116068421D01*
X43650345Y-116310349D01*
X43902443Y-116429248D01*
X44172894Y-116496681D01*
X44451303Y-116510057D01*
X44726972Y-116468860D01*
X44989308Y-116374675D01*
X45109655Y-116310349D01*
X45178816Y-116068421D01*
X44380000Y-115269605D01*
X43581184Y-116068421D01*
X42862692Y-116068421D01*
X42939103Y-115992010D01*
X43093957Y-115760254D01*
X43108777Y-115724475D01*
X43159651Y-115819655D01*
X43401579Y-115888816D01*
X44200395Y-115090000D01*
X43401579Y-114291184D01*
X43159651Y-114360345D01*
X43111575Y-114462279D01*
X43093957Y-114419746D01*
X42939103Y-114187990D01*
X42742010Y-113990897D01*
X42510254Y-113836043D01*
X42471523Y-113820000D01*
X42510254Y-113803957D01*
X42742010Y-113649103D01*
X42862692Y-113528421D01*
X43581184Y-113528421D01*
X43650345Y-113770349D01*
X43749041Y-113816898D01*
X43650345Y-113869651D01*
X43581184Y-114111579D01*
X44380000Y-114910395D01*
X45178816Y-114111579D01*
X45109655Y-113869651D01*
X45010959Y-113823102D01*
X45109655Y-113770349D01*
X45178816Y-113528421D01*
X44380000Y-112729605D01*
X43581184Y-113528421D01*
X42862692Y-113528421D01*
X42939103Y-113452010D01*
X43093957Y-113220254D01*
X43108777Y-113184475D01*
X43159651Y-113279655D01*
X43401579Y-113348816D01*
X44200395Y-112550000D01*
X44559605Y-112550000D01*
X45358421Y-113348816D01*
X45600349Y-113279655D01*
X45648425Y-113177721D01*
X45666043Y-113220254D01*
X45820897Y-113452010D01*
X46017990Y-113649103D01*
X46249746Y-113803957D01*
X46288477Y-113820000D01*
X46249746Y-113836043D01*
X46017990Y-113990897D01*
X45820897Y-114187990D01*
X45666043Y-114419746D01*
X45651223Y-114455525D01*
X45600349Y-114360345D01*
X45358421Y-114291184D01*
X44559605Y-115090000D01*
X45358421Y-115888816D01*
X45600349Y-115819655D01*
X45648425Y-115717721D01*
X45666043Y-115760254D01*
X45820897Y-115992010D01*
X46017990Y-116189103D01*
X46249746Y-116343957D01*
X46507260Y-116450623D01*
X46780635Y-116505000D01*
X47059365Y-116505000D01*
X47332740Y-116450623D01*
X47590254Y-116343957D01*
X47822010Y-116189103D01*
X48019103Y-115992010D01*
X48173957Y-115760254D01*
X48190000Y-115721523D01*
X48206043Y-115760254D01*
X48360897Y-115992010D01*
X48557990Y-116189103D01*
X48789746Y-116343957D01*
X49047260Y-116450623D01*
X49320635Y-116505000D01*
X49599365Y-116505000D01*
X49872740Y-116450623D01*
X50130254Y-116343957D01*
X50362010Y-116189103D01*
X50559103Y-115992010D01*
X50713957Y-115760254D01*
X50730000Y-115721523D01*
X50746043Y-115760254D01*
X50900897Y-115992010D01*
X51097990Y-116189103D01*
X51329746Y-116343957D01*
X51587260Y-116450623D01*
X51860635Y-116505000D01*
X52139365Y-116505000D01*
X52412740Y-116450623D01*
X52670254Y-116343957D01*
X52902010Y-116189103D01*
X53099103Y-115992010D01*
X53253957Y-115760254D01*
X53270000Y-115721523D01*
X53286043Y-115760254D01*
X53440897Y-115992010D01*
X53637990Y-116189103D01*
X53869746Y-116343957D01*
X54127260Y-116450623D01*
X54400635Y-116505000D01*
X54679365Y-116505000D01*
X54952740Y-116450623D01*
X55210254Y-116343957D01*
X55442010Y-116189103D01*
X55639103Y-115992010D01*
X55793957Y-115760254D01*
X55810000Y-115721523D01*
X55826043Y-115760254D01*
X55980897Y-115992010D01*
X56177990Y-116189103D01*
X56409746Y-116343957D01*
X56667260Y-116450623D01*
X56940635Y-116505000D01*
X57219365Y-116505000D01*
X57492740Y-116450623D01*
X57750254Y-116343957D01*
X57798599Y-116311654D01*
X57798600Y-121999006D01*
X57795035Y-122035199D01*
X57809258Y-122179597D01*
X57845414Y-122298786D01*
X57851378Y-122318448D01*
X57919776Y-122446412D01*
X58011825Y-122558574D01*
X58039931Y-122581640D01*
X59933559Y-124475269D01*
X59956625Y-124503375D01*
X59984731Y-124526441D01*
X59984732Y-124526442D01*
X60068787Y-124595424D01*
X60196751Y-124663822D01*
X60335598Y-124705941D01*
X60335601Y-124705942D01*
X60480000Y-124720164D01*
X60516186Y-124716600D01*
X117593817Y-124716600D01*
X117630000Y-124720164D01*
X117666183Y-124716600D01*
X117666186Y-124716600D01*
X117774399Y-124705942D01*
X117913249Y-124663822D01*
X118041213Y-124595424D01*
X118153375Y-124503375D01*
X118176446Y-124475263D01*
X128285274Y-114366436D01*
X128313374Y-114343375D01*
X128336437Y-114315273D01*
X128336442Y-114315268D01*
X128405424Y-114231213D01*
X128428527Y-114187990D01*
X128473822Y-114103249D01*
X128515942Y-113964399D01*
X128526600Y-113856186D01*
X128526600Y-113856185D01*
X128530164Y-113820000D01*
X128526600Y-113783814D01*
X128526600Y-47816175D01*
X128530163Y-47779999D01*
X128526600Y-47743823D01*
X128526600Y-47743814D01*
X128515942Y-47635601D01*
X128473822Y-47496751D01*
X128405424Y-47368787D01*
X128346510Y-47297000D01*
X128336442Y-47284732D01*
X128336441Y-47284731D01*
X128313375Y-47256625D01*
X128285269Y-47233559D01*
X121986446Y-40934737D01*
X121963375Y-40906625D01*
X121851213Y-40814576D01*
X121723249Y-40746178D01*
X121584399Y-40704058D01*
X121476186Y-40693400D01*
X121476183Y-40693400D01*
X121440000Y-40689836D01*
X121403817Y-40693400D01*
X116231910Y-40693400D01*
X116066888Y-40528378D01*
X116100661Y-40500661D01*
X116292481Y-40266927D01*
X116435017Y-40000261D01*
X116522790Y-39710913D01*
X116545000Y-39485408D01*
X116545000Y-39134593D01*
X116522790Y-38909088D01*
X116435017Y-38619740D01*
X116292481Y-38353073D01*
X116100661Y-38119339D01*
X115866927Y-37927519D01*
X115600261Y-37784983D01*
X115310913Y-37697210D01*
X115010000Y-37667573D01*
X114709088Y-37697210D01*
X114419740Y-37784983D01*
X114153074Y-37927519D01*
X113919339Y-38119339D01*
X113760000Y-38313495D01*
X113600661Y-38119339D01*
X113366927Y-37927519D01*
X113100261Y-37784983D01*
X112810913Y-37697210D01*
X112510000Y-37667573D01*
X112209088Y-37697210D01*
X111919740Y-37784983D01*
X111653074Y-37927519D01*
X111419339Y-38119339D01*
X111227519Y-38353073D01*
X111084983Y-38619739D01*
X110997210Y-38909087D01*
X110975000Y-39134592D01*
X110975000Y-39485407D01*
X110997210Y-39710912D01*
X111084983Y-40000260D01*
X111227519Y-40266926D01*
X111419339Y-40500661D01*
X111653073Y-40692481D01*
X111919739Y-40835017D01*
X112209087Y-40922790D01*
X112510000Y-40952427D01*
X112810912Y-40922790D01*
X113100260Y-40835017D01*
X113366926Y-40692481D01*
X113600661Y-40500661D01*
X113760000Y-40306505D01*
X113919339Y-40500661D01*
X114153073Y-40692481D01*
X114322036Y-40782794D01*
X114326178Y-40796448D01*
X114394576Y-40924412D01*
X114486625Y-41036574D01*
X114514732Y-41059641D01*
X115380357Y-41925267D01*
X115403425Y-41953375D01*
X115415640Y-41963400D01*
X107501910Y-41963400D01*
X106066887Y-40528378D01*
X106100661Y-40500661D01*
X106260000Y-40306505D01*
X106419339Y-40500661D01*
X106653073Y-40692481D01*
X106919739Y-40835017D01*
X107209087Y-40922790D01*
X107510000Y-40952427D01*
X107810912Y-40922790D01*
X108100260Y-40835017D01*
X108366926Y-40692481D01*
X108600661Y-40500661D01*
X108792481Y-40266927D01*
X108935017Y-40000261D01*
X109022790Y-39710913D01*
X109045000Y-39485408D01*
X109045000Y-39134593D01*
X109022790Y-38909088D01*
X108935017Y-38619740D01*
X108792481Y-38353073D01*
X108600661Y-38119339D01*
X108366927Y-37927519D01*
X108100261Y-37784983D01*
X107810913Y-37697210D01*
X107510000Y-37667573D01*
X107209088Y-37697210D01*
X106919740Y-37784983D01*
X106653074Y-37927519D01*
X106419339Y-38119339D01*
X106260000Y-38313495D01*
X106100661Y-38119339D01*
X105866927Y-37927519D01*
X105600261Y-37784983D01*
X105310913Y-37697210D01*
X105010000Y-37667573D01*
X104709088Y-37697210D01*
X104419740Y-37784983D01*
X104153074Y-37927519D01*
X103919339Y-38119339D01*
X103727519Y-38353073D01*
X103584983Y-38619739D01*
X103497210Y-38909087D01*
X103475000Y-39134592D01*
X103475000Y-39485407D01*
X103497210Y-39710912D01*
X103584983Y-40000260D01*
X103727519Y-40266926D01*
X103919339Y-40500661D01*
X104153073Y-40692481D01*
X104322036Y-40782794D01*
X104326178Y-40796447D01*
X104394576Y-40924412D01*
X104417568Y-40952427D01*
X104486626Y-41036575D01*
X104514732Y-41059641D01*
X106650357Y-43195267D01*
X106673425Y-43223375D01*
X106785587Y-43315424D01*
X106913551Y-43383822D01*
X107052401Y-43425942D01*
X107160614Y-43436600D01*
X107160623Y-43436600D01*
X107196799Y-43440163D01*
X107232975Y-43436600D01*
X121134891Y-43436600D01*
X125783400Y-48085110D01*
X125783401Y-113514889D01*
X117324891Y-121973400D01*
X63325109Y-121973400D01*
X61521709Y-120170000D01*
X66023057Y-120170000D01*
X66050764Y-120451309D01*
X66132818Y-120721808D01*
X66266068Y-120971101D01*
X66445392Y-121189608D01*
X66663899Y-121368932D01*
X66913192Y-121502182D01*
X67183691Y-121584236D01*
X67394508Y-121605000D01*
X67535492Y-121605000D01*
X67746309Y-121584236D01*
X68016808Y-121502182D01*
X68266101Y-121368932D01*
X68484608Y-121189608D01*
X68663932Y-120971101D01*
X68797182Y-120721808D01*
X68879236Y-120451309D01*
X68906943Y-120170000D01*
X68893023Y-120028665D01*
X76190000Y-120028665D01*
X76190000Y-120311335D01*
X76245147Y-120588574D01*
X76353320Y-120849727D01*
X76510363Y-121084759D01*
X76710241Y-121284637D01*
X76945273Y-121441680D01*
X77206426Y-121549853D01*
X77483665Y-121605000D01*
X77766335Y-121605000D01*
X78043574Y-121549853D01*
X78304727Y-121441680D01*
X78539759Y-121284637D01*
X78739637Y-121084759D01*
X78858679Y-120906600D01*
X94098814Y-120906600D01*
X94135000Y-120910164D01*
X94171186Y-120906600D01*
X94279399Y-120895942D01*
X94418249Y-120853822D01*
X94546213Y-120785424D01*
X94658375Y-120693375D01*
X94750424Y-120581213D01*
X94818822Y-120453249D01*
X94821157Y-120445552D01*
X96495269Y-118771441D01*
X96523375Y-118748375D01*
X96615424Y-118636213D01*
X96683822Y-118508249D01*
X96725942Y-118369399D01*
X96736600Y-118261186D01*
X96736600Y-118261177D01*
X96740163Y-118225001D01*
X96736600Y-118188825D01*
X96736600Y-116223948D01*
X96978505Y-116062312D01*
X97192312Y-115848505D01*
X97360299Y-115597095D01*
X97476011Y-115317743D01*
X97535000Y-115021184D01*
X97535000Y-114718816D01*
X97476011Y-114422257D01*
X97360299Y-114142905D01*
X97192312Y-113891495D01*
X96978505Y-113677688D01*
X96727095Y-113509701D01*
X96447743Y-113393989D01*
X96151184Y-113335000D01*
X95848816Y-113335000D01*
X95552257Y-113393989D01*
X95272905Y-113509701D01*
X95021495Y-113677688D01*
X94807688Y-113891495D01*
X94750000Y-113977831D01*
X94692312Y-113891495D01*
X94478505Y-113677688D01*
X94227095Y-113509701D01*
X93947743Y-113393989D01*
X93651184Y-113335000D01*
X93348816Y-113335000D01*
X93052257Y-113393989D01*
X92772905Y-113509701D01*
X92521495Y-113677688D01*
X92307688Y-113891495D01*
X92212262Y-114034310D01*
X92064080Y-113985525D01*
X91179605Y-114870000D01*
X92064080Y-115754475D01*
X92212262Y-115705690D01*
X92307688Y-115848505D01*
X92521495Y-116062312D01*
X92772905Y-116230299D01*
X93052257Y-116346011D01*
X93348816Y-116405000D01*
X93651184Y-116405000D01*
X93947743Y-116346011D01*
X94227095Y-116230299D01*
X94478505Y-116062312D01*
X94692312Y-115848505D01*
X94750000Y-115762169D01*
X94807688Y-115848505D01*
X95021495Y-116062312D01*
X95263400Y-116223948D01*
X95263401Y-117919889D01*
X93749891Y-119433400D01*
X78858679Y-119433400D01*
X78739637Y-119255241D01*
X78539759Y-119055363D01*
X78304727Y-118898320D01*
X78043574Y-118790147D01*
X77766335Y-118735000D01*
X77483665Y-118735000D01*
X77206426Y-118790147D01*
X76945273Y-118898320D01*
X76710241Y-119055363D01*
X76510363Y-119255241D01*
X76353320Y-119490273D01*
X76245147Y-119751426D01*
X76190000Y-120028665D01*
X68893023Y-120028665D01*
X68879236Y-119888691D01*
X68797182Y-119618192D01*
X68663932Y-119368899D01*
X68484608Y-119150392D01*
X68266101Y-118971068D01*
X68016808Y-118837818D01*
X67746309Y-118755764D01*
X67535492Y-118735000D01*
X67394508Y-118735000D01*
X67183691Y-118755764D01*
X66913192Y-118837818D01*
X66663899Y-118971068D01*
X66445392Y-119150392D01*
X66266068Y-119368899D01*
X66132818Y-119618192D01*
X66050764Y-119888691D01*
X66023057Y-120170000D01*
X61521709Y-120170000D01*
X61216600Y-119864891D01*
X61216600Y-116147713D01*
X61257990Y-116189103D01*
X61489746Y-116343957D01*
X61747260Y-116450623D01*
X62020635Y-116505000D01*
X62299365Y-116505000D01*
X62572740Y-116450623D01*
X62830254Y-116343957D01*
X63062010Y-116189103D01*
X63259103Y-115992010D01*
X63413957Y-115760254D01*
X63430000Y-115721523D01*
X63446043Y-115760254D01*
X63600897Y-115992010D01*
X63797990Y-116189103D01*
X64029746Y-116343957D01*
X64287260Y-116450623D01*
X64560635Y-116505000D01*
X64839365Y-116505000D01*
X65112740Y-116450623D01*
X65370254Y-116343957D01*
X65602010Y-116189103D01*
X65799103Y-115992010D01*
X65953957Y-115760254D01*
X65970000Y-115721523D01*
X65986043Y-115760254D01*
X66140897Y-115992010D01*
X66337990Y-116189103D01*
X66569746Y-116343957D01*
X66827260Y-116450623D01*
X67100635Y-116505000D01*
X67379365Y-116505000D01*
X67652740Y-116450623D01*
X67910254Y-116343957D01*
X68142010Y-116189103D01*
X68339103Y-115992010D01*
X68493957Y-115760254D01*
X68510000Y-115721523D01*
X68526043Y-115760254D01*
X68680897Y-115992010D01*
X68877990Y-116189103D01*
X69109746Y-116343957D01*
X69367260Y-116450623D01*
X69640635Y-116505000D01*
X69919365Y-116505000D01*
X70192740Y-116450623D01*
X70450254Y-116343957D01*
X70682010Y-116189103D01*
X70879103Y-115992010D01*
X71033957Y-115760254D01*
X71050000Y-115721523D01*
X71066043Y-115760254D01*
X71220897Y-115992010D01*
X71417990Y-116189103D01*
X71649746Y-116343957D01*
X71907260Y-116450623D01*
X72180635Y-116505000D01*
X72459365Y-116505000D01*
X72732740Y-116450623D01*
X72990254Y-116343957D01*
X73222010Y-116189103D01*
X73419103Y-115992010D01*
X73573957Y-115760254D01*
X73590000Y-115721523D01*
X73606043Y-115760254D01*
X73760897Y-115992010D01*
X73957990Y-116189103D01*
X74189746Y-116343957D01*
X74447260Y-116450623D01*
X74720635Y-116505000D01*
X74999365Y-116505000D01*
X75272740Y-116450623D01*
X75530254Y-116343957D01*
X75762010Y-116189103D01*
X75959103Y-115992010D01*
X75989469Y-115946564D01*
X75994188Y-115994482D01*
X76030498Y-116114180D01*
X76089463Y-116224494D01*
X76168815Y-116321185D01*
X76265506Y-116400537D01*
X76375820Y-116459502D01*
X76495518Y-116495812D01*
X76620000Y-116508072D01*
X78180000Y-116508072D01*
X78304482Y-116495812D01*
X78424180Y-116459502D01*
X78534494Y-116400537D01*
X78631185Y-116321185D01*
X78710537Y-116224494D01*
X78769502Y-116114180D01*
X78805812Y-115994482D01*
X78811760Y-115934080D01*
X90115525Y-115934080D01*
X90199208Y-116188261D01*
X90471775Y-116319158D01*
X90764642Y-116394365D01*
X91066553Y-116410991D01*
X91365907Y-116368397D01*
X91651199Y-116268222D01*
X91800792Y-116188261D01*
X91884475Y-115934080D01*
X91000000Y-115049605D01*
X90115525Y-115934080D01*
X78811760Y-115934080D01*
X78818072Y-115870000D01*
X78818072Y-114936553D01*
X89459009Y-114936553D01*
X89501603Y-115235907D01*
X89601778Y-115521199D01*
X89681739Y-115670792D01*
X89935920Y-115754475D01*
X90820395Y-114870000D01*
X89935920Y-113985525D01*
X89681739Y-114069208D01*
X89550842Y-114341775D01*
X89475635Y-114634642D01*
X89459009Y-114936553D01*
X78818072Y-114936553D01*
X78818072Y-114310000D01*
X78805812Y-114185518D01*
X78769502Y-114065820D01*
X78710537Y-113955506D01*
X78631185Y-113858815D01*
X78583889Y-113820000D01*
X78601045Y-113805920D01*
X90115525Y-113805920D01*
X91000000Y-114690395D01*
X91884475Y-113805920D01*
X91800792Y-113551739D01*
X91528225Y-113420842D01*
X91235358Y-113345635D01*
X90933447Y-113329009D01*
X90634093Y-113371603D01*
X90348801Y-113471778D01*
X90199208Y-113551739D01*
X90115525Y-113805920D01*
X78601045Y-113805920D01*
X78631185Y-113781185D01*
X78710537Y-113684494D01*
X78769502Y-113574180D01*
X78805812Y-113454482D01*
X78818072Y-113330000D01*
X78818072Y-111770000D01*
X78805812Y-111645518D01*
X78769502Y-111525820D01*
X78710537Y-111415506D01*
X78631185Y-111318815D01*
X78534494Y-111239463D01*
X78424180Y-111180498D01*
X78304482Y-111144188D01*
X78180000Y-111131928D01*
X76620000Y-111131928D01*
X76495518Y-111144188D01*
X76375820Y-111180498D01*
X76265506Y-111239463D01*
X76168815Y-111318815D01*
X76089463Y-111415506D01*
X76030498Y-111525820D01*
X75994188Y-111645518D01*
X75989469Y-111693436D01*
X75959103Y-111647990D01*
X75762010Y-111450897D01*
X75530254Y-111296043D01*
X75272740Y-111189377D01*
X74999365Y-111135000D01*
X74720635Y-111135000D01*
X74447260Y-111189377D01*
X74189746Y-111296043D01*
X73957990Y-111450897D01*
X73760897Y-111647990D01*
X73606043Y-111879746D01*
X73590000Y-111918477D01*
X73573957Y-111879746D01*
X73419103Y-111647990D01*
X73222010Y-111450897D01*
X72990254Y-111296043D01*
X72732740Y-111189377D01*
X72459365Y-111135000D01*
X72180635Y-111135000D01*
X71907260Y-111189377D01*
X71649746Y-111296043D01*
X71417990Y-111450897D01*
X71220897Y-111647990D01*
X71066043Y-111879746D01*
X71050000Y-111918477D01*
X71033957Y-111879746D01*
X70879103Y-111647990D01*
X70682010Y-111450897D01*
X70450254Y-111296043D01*
X70192740Y-111189377D01*
X69919365Y-111135000D01*
X69640635Y-111135000D01*
X69367260Y-111189377D01*
X69109746Y-111296043D01*
X68877990Y-111450897D01*
X68680897Y-111647990D01*
X68526043Y-111879746D01*
X68510000Y-111918477D01*
X68493957Y-111879746D01*
X68339103Y-111647990D01*
X68142010Y-111450897D01*
X67910254Y-111296043D01*
X67652740Y-111189377D01*
X67379365Y-111135000D01*
X67100635Y-111135000D01*
X66827260Y-111189377D01*
X66569746Y-111296043D01*
X66337990Y-111450897D01*
X66140897Y-111647990D01*
X65986043Y-111879746D01*
X65970000Y-111918477D01*
X65953957Y-111879746D01*
X65799103Y-111647990D01*
X65602010Y-111450897D01*
X65370254Y-111296043D01*
X65112740Y-111189377D01*
X64839365Y-111135000D01*
X64560635Y-111135000D01*
X64287260Y-111189377D01*
X64029746Y-111296043D01*
X63797990Y-111450897D01*
X63600897Y-111647990D01*
X63446043Y-111879746D01*
X63430000Y-111918477D01*
X63413957Y-111879746D01*
X63259103Y-111647990D01*
X63062010Y-111450897D01*
X62830254Y-111296043D01*
X62572740Y-111189377D01*
X62299365Y-111135000D01*
X62020635Y-111135000D01*
X61825520Y-111173810D01*
X61621644Y-110969935D01*
X61598574Y-110941824D01*
X61486412Y-110849775D01*
X61358448Y-110781377D01*
X61219598Y-110739257D01*
X61111385Y-110728599D01*
X61111382Y-110728599D01*
X61075199Y-110725035D01*
X61039016Y-110728599D01*
X59135470Y-110728599D01*
X59099294Y-110725036D01*
X59063118Y-110728599D01*
X59063109Y-110728599D01*
X58954896Y-110739257D01*
X58816046Y-110781377D01*
X58688082Y-110849775D01*
X58575920Y-110941824D01*
X58552854Y-110969930D01*
X58039931Y-111482854D01*
X58025670Y-111494557D01*
X57982010Y-111450897D01*
X57750254Y-111296043D01*
X57492740Y-111189377D01*
X57219365Y-111135000D01*
X56940635Y-111135000D01*
X56667260Y-111189377D01*
X56409746Y-111296043D01*
X56177990Y-111450897D01*
X55980897Y-111647990D01*
X55826043Y-111879746D01*
X55810000Y-111918477D01*
X55793957Y-111879746D01*
X55639103Y-111647990D01*
X55442010Y-111450897D01*
X55210254Y-111296043D01*
X54952740Y-111189377D01*
X54679365Y-111135000D01*
X54400635Y-111135000D01*
X54127260Y-111189377D01*
X53869746Y-111296043D01*
X53637990Y-111450897D01*
X53440897Y-111647990D01*
X53286043Y-111879746D01*
X53270000Y-111918477D01*
X53253957Y-111879746D01*
X53099103Y-111647990D01*
X52902010Y-111450897D01*
X52670254Y-111296043D01*
X52412740Y-111189377D01*
X52139365Y-111135000D01*
X51860635Y-111135000D01*
X51587260Y-111189377D01*
X51329746Y-111296043D01*
X51097990Y-111450897D01*
X50900897Y-111647990D01*
X50746043Y-111879746D01*
X50730000Y-111918477D01*
X50713957Y-111879746D01*
X50559103Y-111647990D01*
X50362010Y-111450897D01*
X50130254Y-111296043D01*
X49872740Y-111189377D01*
X49599365Y-111135000D01*
X49320635Y-111135000D01*
X49047260Y-111189377D01*
X48789746Y-111296043D01*
X48557990Y-111450897D01*
X48360897Y-111647990D01*
X48206043Y-111879746D01*
X48190000Y-111918477D01*
X48173957Y-111879746D01*
X48019103Y-111647990D01*
X47822010Y-111450897D01*
X47590254Y-111296043D01*
X47332740Y-111189377D01*
X47059365Y-111135000D01*
X46780635Y-111135000D01*
X46507260Y-111189377D01*
X46249746Y-111296043D01*
X46017990Y-111450897D01*
X45820897Y-111647990D01*
X45666043Y-111879746D01*
X45651223Y-111915525D01*
X45600349Y-111820345D01*
X45358421Y-111751184D01*
X44559605Y-112550000D01*
X44200395Y-112550000D01*
X43401579Y-111751184D01*
X43159651Y-111820345D01*
X43111575Y-111922279D01*
X43093957Y-111879746D01*
X42939103Y-111647990D01*
X42862692Y-111571579D01*
X43581184Y-111571579D01*
X44380000Y-112370395D01*
X45178816Y-111571579D01*
X45109655Y-111329651D01*
X44857557Y-111210752D01*
X44587106Y-111143319D01*
X44308697Y-111129943D01*
X44033028Y-111171140D01*
X43770692Y-111265325D01*
X43650345Y-111329651D01*
X43581184Y-111571579D01*
X42862692Y-111571579D01*
X42742010Y-111450897D01*
X42510254Y-111296043D01*
X42252740Y-111189377D01*
X41979365Y-111135000D01*
X41700635Y-111135000D01*
X41427260Y-111189377D01*
X41169746Y-111296043D01*
X40937990Y-111450897D01*
X40740897Y-111647990D01*
X40586043Y-111879746D01*
X40570000Y-111918477D01*
X40553957Y-111879746D01*
X40399103Y-111647990D01*
X40202010Y-111450897D01*
X39970254Y-111296043D01*
X39712740Y-111189377D01*
X39439365Y-111135000D01*
X39160635Y-111135000D01*
X38887260Y-111189377D01*
X38629746Y-111296043D01*
X38397990Y-111450897D01*
X38200897Y-111647990D01*
X38046043Y-111879746D01*
X38030000Y-111918477D01*
X38013957Y-111879746D01*
X37859103Y-111647990D01*
X37662010Y-111450897D01*
X37430254Y-111296043D01*
X37172740Y-111189377D01*
X36899365Y-111135000D01*
X36620635Y-111135000D01*
X36347260Y-111189377D01*
X36089746Y-111296043D01*
X35857990Y-111450897D01*
X35660897Y-111647990D01*
X35506043Y-111879746D01*
X35490000Y-111918477D01*
X35473957Y-111879746D01*
X35319103Y-111647990D01*
X35122010Y-111450897D01*
X34890254Y-111296043D01*
X34632740Y-111189377D01*
X34359365Y-111135000D01*
X34080635Y-111135000D01*
X33807260Y-111189377D01*
X33549746Y-111296043D01*
X33317990Y-111450897D01*
X33120897Y-111647990D01*
X32966043Y-111879746D01*
X32950000Y-111918477D01*
X32933957Y-111879746D01*
X32779103Y-111647990D01*
X32582010Y-111450897D01*
X32350254Y-111296043D01*
X32092740Y-111189377D01*
X31819365Y-111135000D01*
X31540635Y-111135000D01*
X31267260Y-111189377D01*
X31009746Y-111296043D01*
X30777990Y-111450897D01*
X30660000Y-111568887D01*
X30660000Y-90671113D01*
X30777990Y-90789103D01*
X31009746Y-90943957D01*
X31267260Y-91050623D01*
X31540635Y-91105000D01*
X31819365Y-91105000D01*
X32092740Y-91050623D01*
X32350254Y-90943957D01*
X32582010Y-90789103D01*
X32779103Y-90592010D01*
X32933957Y-90360254D01*
X32950000Y-90321523D01*
X32966043Y-90360254D01*
X33120897Y-90592010D01*
X33317990Y-90789103D01*
X33549746Y-90943957D01*
X33807260Y-91050623D01*
X34080635Y-91105000D01*
X34359365Y-91105000D01*
X34632740Y-91050623D01*
X34890254Y-90943957D01*
X35122010Y-90789103D01*
X35319103Y-90592010D01*
X35473957Y-90360254D01*
X35490000Y-90321523D01*
X35506043Y-90360254D01*
X35660897Y-90592010D01*
X35857990Y-90789103D01*
X36089746Y-90943957D01*
X36347260Y-91050623D01*
X36620635Y-91105000D01*
X36899365Y-91105000D01*
X37172740Y-91050623D01*
X37430254Y-90943957D01*
X37662010Y-90789103D01*
X37859103Y-90592010D01*
X38013957Y-90360254D01*
X38030000Y-90321523D01*
X38046043Y-90360254D01*
X38200897Y-90592010D01*
X38397990Y-90789103D01*
X38629746Y-90943957D01*
X38887260Y-91050623D01*
X39160635Y-91105000D01*
X39439365Y-91105000D01*
X39634480Y-91066190D01*
X42563557Y-93995267D01*
X42586625Y-94023375D01*
X42698787Y-94115424D01*
X42826751Y-94183822D01*
X42911650Y-94209576D01*
X42965601Y-94225942D01*
X43110000Y-94240164D01*
X43146186Y-94236600D01*
X71148000Y-94236600D01*
X71148000Y-110010000D01*
X71150440Y-110034776D01*
X71157667Y-110058601D01*
X71169403Y-110080557D01*
X71185197Y-110099803D01*
X71204443Y-110115597D01*
X71226399Y-110127333D01*
X71250224Y-110134560D01*
X71275000Y-110137000D01*
X87150000Y-110137000D01*
X87174776Y-110134560D01*
X87198601Y-110127333D01*
X87220557Y-110115597D01*
X87239803Y-110099803D01*
X87255597Y-110080557D01*
X87267333Y-110058601D01*
X87274560Y-110034776D01*
X87277000Y-110010000D01*
X87277000Y-109773453D01*
X87420285Y-109916738D01*
X87851859Y-110205107D01*
X88331399Y-110403739D01*
X88840475Y-110505000D01*
X89359525Y-110505000D01*
X89868601Y-110403739D01*
X90348141Y-110205107D01*
X90779715Y-109916738D01*
X91146738Y-109549715D01*
X91435107Y-109118141D01*
X91633739Y-108638601D01*
X91735000Y-108129525D01*
X91735000Y-107610475D01*
X95265000Y-107610475D01*
X95265000Y-108129525D01*
X95366261Y-108638601D01*
X95564893Y-109118141D01*
X95853262Y-109549715D01*
X96220285Y-109916738D01*
X96651859Y-110205107D01*
X97131399Y-110403739D01*
X97640475Y-110505000D01*
X98159525Y-110505000D01*
X98668601Y-110403739D01*
X99148141Y-110205107D01*
X99579715Y-109916738D01*
X99946738Y-109549715D01*
X100235107Y-109118141D01*
X100433739Y-108638601D01*
X100535000Y-108129525D01*
X100535000Y-107610475D01*
X100433739Y-107101399D01*
X100235107Y-106621859D01*
X100023389Y-106305000D01*
X109271928Y-106305000D01*
X109271928Y-109905000D01*
X109284188Y-110029482D01*
X109320498Y-110149180D01*
X109379463Y-110259494D01*
X109458815Y-110356185D01*
X109555506Y-110435537D01*
X109665820Y-110494502D01*
X109785518Y-110530812D01*
X109910000Y-110543072D01*
X112710000Y-110543072D01*
X112834482Y-110530812D01*
X112954180Y-110494502D01*
X113064494Y-110435537D01*
X113161185Y-110356185D01*
X113240537Y-110259494D01*
X113299502Y-110149180D01*
X113335812Y-110029482D01*
X113348072Y-109905000D01*
X113348072Y-106305000D01*
X113335812Y-106180518D01*
X113299502Y-106060820D01*
X113240537Y-105950506D01*
X113161185Y-105853815D01*
X113064494Y-105774463D01*
X112954180Y-105715498D01*
X112834482Y-105679188D01*
X112710000Y-105666928D01*
X109910000Y-105666928D01*
X109785518Y-105679188D01*
X109665820Y-105715498D01*
X109555506Y-105774463D01*
X109458815Y-105853815D01*
X109379463Y-105950506D01*
X109320498Y-106060820D01*
X109284188Y-106180518D01*
X109271928Y-106305000D01*
X100023389Y-106305000D01*
X99946738Y-106190285D01*
X99579715Y-105823262D01*
X99148141Y-105534893D01*
X98668601Y-105336261D01*
X98159525Y-105235000D01*
X97640475Y-105235000D01*
X97131399Y-105336261D01*
X96651859Y-105534893D01*
X96220285Y-105823262D01*
X95853262Y-106190285D01*
X95564893Y-106621859D01*
X95366261Y-107101399D01*
X95265000Y-107610475D01*
X91735000Y-107610475D01*
X91633739Y-107101399D01*
X91435107Y-106621859D01*
X91146738Y-106190285D01*
X90779715Y-105823262D01*
X90348141Y-105534893D01*
X89868601Y-105336261D01*
X89359525Y-105235000D01*
X88840475Y-105235000D01*
X88331399Y-105336261D01*
X87851859Y-105534893D01*
X87420285Y-105823262D01*
X87277000Y-105966547D01*
X87277000Y-94236600D01*
X110974891Y-94236600D01*
X111813401Y-95075111D01*
X111813400Y-102353817D01*
X111809836Y-102390000D01*
X111813400Y-102426183D01*
X111813400Y-102426185D01*
X111824058Y-102534398D01*
X111866178Y-102673248D01*
X111934576Y-102801212D01*
X112026625Y-102913374D01*
X112054732Y-102936441D01*
X113773401Y-104655111D01*
X113773400Y-113640399D01*
X113735537Y-113656082D01*
X113467748Y-113835013D01*
X113240013Y-114062748D01*
X113061082Y-114330537D01*
X112937832Y-114628088D01*
X112875000Y-114943967D01*
X112875000Y-115266033D01*
X112937832Y-115581912D01*
X113061082Y-115879463D01*
X113240013Y-116147252D01*
X113467748Y-116374987D01*
X113735537Y-116553918D01*
X114033088Y-116677168D01*
X114348967Y-116740000D01*
X114671033Y-116740000D01*
X114986912Y-116677168D01*
X115284463Y-116553918D01*
X115552252Y-116374987D01*
X115686826Y-116240413D01*
X118554192Y-116240413D01*
X118649956Y-116504814D01*
X118939571Y-116645704D01*
X119251108Y-116727384D01*
X119572595Y-116746718D01*
X119891675Y-116702961D01*
X120196088Y-116597795D01*
X120370044Y-116504814D01*
X120465808Y-116240413D01*
X119510000Y-115284605D01*
X118554192Y-116240413D01*
X115686826Y-116240413D01*
X115779987Y-116147252D01*
X115958918Y-115879463D01*
X116082168Y-115581912D01*
X116145000Y-115266033D01*
X116145000Y-115167595D01*
X117868282Y-115167595D01*
X117912039Y-115486675D01*
X118017205Y-115791088D01*
X118110186Y-115965044D01*
X118374587Y-116060808D01*
X119330395Y-115105000D01*
X119689605Y-115105000D01*
X120645413Y-116060808D01*
X120909814Y-115965044D01*
X121050704Y-115675429D01*
X121132384Y-115363892D01*
X121151718Y-115042405D01*
X121107961Y-114723325D01*
X121002795Y-114418912D01*
X120909814Y-114244956D01*
X120645413Y-114149192D01*
X119689605Y-115105000D01*
X119330395Y-115105000D01*
X118374587Y-114149192D01*
X118110186Y-114244956D01*
X117969296Y-114534571D01*
X117887616Y-114846108D01*
X117868282Y-115167595D01*
X116145000Y-115167595D01*
X116145000Y-114943967D01*
X116082168Y-114628088D01*
X115958918Y-114330537D01*
X115779987Y-114062748D01*
X115686826Y-113969587D01*
X118554192Y-113969587D01*
X119510000Y-114925395D01*
X120465808Y-113969587D01*
X120370044Y-113705186D01*
X120080429Y-113564296D01*
X119768892Y-113482616D01*
X119447405Y-113463282D01*
X119128325Y-113507039D01*
X118823912Y-113612205D01*
X118649956Y-113705186D01*
X118554192Y-113969587D01*
X115686826Y-113969587D01*
X115552252Y-113835013D01*
X115284463Y-113656082D01*
X115246600Y-113640399D01*
X115246600Y-106305000D01*
X120671928Y-106305000D01*
X120671928Y-109905000D01*
X120684188Y-110029482D01*
X120720498Y-110149180D01*
X120779463Y-110259494D01*
X120858815Y-110356185D01*
X120955506Y-110435537D01*
X121065820Y-110494502D01*
X121185518Y-110530812D01*
X121310000Y-110543072D01*
X124110000Y-110543072D01*
X124234482Y-110530812D01*
X124354180Y-110494502D01*
X124464494Y-110435537D01*
X124561185Y-110356185D01*
X124640537Y-110259494D01*
X124699502Y-110149180D01*
X124735812Y-110029482D01*
X124748072Y-109905000D01*
X124748072Y-106305000D01*
X124735812Y-106180518D01*
X124699502Y-106060820D01*
X124640537Y-105950506D01*
X124561185Y-105853815D01*
X124464494Y-105774463D01*
X124354180Y-105715498D01*
X124234482Y-105679188D01*
X124110000Y-105666928D01*
X121310000Y-105666928D01*
X121185518Y-105679188D01*
X121065820Y-105715498D01*
X120955506Y-105774463D01*
X120858815Y-105853815D01*
X120779463Y-105950506D01*
X120720498Y-106060820D01*
X120684188Y-106180518D01*
X120671928Y-106305000D01*
X115246600Y-106305000D01*
X115246600Y-104386186D01*
X115250164Y-104350000D01*
X115235942Y-104205601D01*
X115193822Y-104066752D01*
X115193822Y-104066751D01*
X115125424Y-103938787D01*
X115033375Y-103826625D01*
X115005269Y-103803559D01*
X113286600Y-102084891D01*
X113286600Y-101693839D01*
X113467748Y-101874987D01*
X113735537Y-102053918D01*
X114033088Y-102177168D01*
X114348967Y-102240000D01*
X114671033Y-102240000D01*
X114986912Y-102177168D01*
X115284463Y-102053918D01*
X115552252Y-101874987D01*
X115686826Y-101740413D01*
X116054192Y-101740413D01*
X116149956Y-102004814D01*
X116439571Y-102145704D01*
X116751108Y-102227384D01*
X117072595Y-102246718D01*
X117391675Y-102202961D01*
X117696088Y-102097795D01*
X117870044Y-102004814D01*
X117965808Y-101740413D01*
X117010000Y-100784605D01*
X116054192Y-101740413D01*
X115686826Y-101740413D01*
X115779987Y-101647252D01*
X115844925Y-101550065D01*
X115874587Y-101560808D01*
X116830395Y-100605000D01*
X115874587Y-99649192D01*
X115844925Y-99659935D01*
X115779987Y-99562748D01*
X115686826Y-99469587D01*
X116054192Y-99469587D01*
X117010000Y-100425395D01*
X117965808Y-99469587D01*
X117870044Y-99205186D01*
X117580429Y-99064296D01*
X117268892Y-98982616D01*
X116947405Y-98963282D01*
X116628325Y-99007039D01*
X116323912Y-99112205D01*
X116149956Y-99205186D01*
X116054192Y-99469587D01*
X115686826Y-99469587D01*
X115552252Y-99335013D01*
X115284463Y-99156082D01*
X115246600Y-99140399D01*
X115246600Y-94861186D01*
X115250164Y-94825000D01*
X115235942Y-94680601D01*
X115219258Y-94625601D01*
X115193822Y-94541751D01*
X115125424Y-94413787D01*
X115080286Y-94358786D01*
X115056442Y-94329732D01*
X115056441Y-94329731D01*
X115033375Y-94301625D01*
X115005269Y-94278559D01*
X113693309Y-92966600D01*
X116689891Y-92966600D01*
X118773400Y-95050110D01*
X118773401Y-99140398D01*
X118735537Y-99156082D01*
X118467748Y-99335013D01*
X118240013Y-99562748D01*
X118175075Y-99659935D01*
X118145413Y-99649192D01*
X117189605Y-100605000D01*
X118145413Y-101560808D01*
X118175075Y-101550065D01*
X118240013Y-101647252D01*
X118467748Y-101874987D01*
X118735537Y-102053918D01*
X119033088Y-102177168D01*
X119348967Y-102240000D01*
X119671033Y-102240000D01*
X119986912Y-102177168D01*
X120284463Y-102053918D01*
X120552252Y-101874987D01*
X120779987Y-101647252D01*
X120958918Y-101379463D01*
X121082168Y-101081912D01*
X121145000Y-100766033D01*
X121145000Y-100443967D01*
X121082168Y-100128088D01*
X120958918Y-99830537D01*
X120779987Y-99562748D01*
X120552252Y-99335013D01*
X120284463Y-99156082D01*
X120246600Y-99140399D01*
X120246600Y-94781175D01*
X120250163Y-94744999D01*
X120246600Y-94708823D01*
X120246600Y-94708814D01*
X120235942Y-94600601D01*
X120193822Y-94461751D01*
X120125424Y-94333787D01*
X120099029Y-94301625D01*
X120056442Y-94249732D01*
X120056437Y-94249727D01*
X120033374Y-94221625D01*
X120005273Y-94198563D01*
X117541446Y-91734736D01*
X117518375Y-91706625D01*
X117406213Y-91614576D01*
X117278249Y-91546178D01*
X117139399Y-91504058D01*
X117031186Y-91493400D01*
X117031183Y-91493400D01*
X116995000Y-91489836D01*
X116958817Y-91493400D01*
X109248309Y-91493400D01*
X125110274Y-75631436D01*
X125138374Y-75608375D01*
X125161437Y-75580273D01*
X125161442Y-75580268D01*
X125230424Y-75496213D01*
X125267419Y-75427000D01*
X125298822Y-75368249D01*
X125340942Y-75229399D01*
X125351600Y-75121186D01*
X125351600Y-75121185D01*
X125355164Y-75085000D01*
X125351600Y-75048814D01*
X125351600Y-56981186D01*
X125355164Y-56945000D01*
X125340942Y-56800601D01*
X125298822Y-56661752D01*
X125298822Y-56661751D01*
X125230424Y-56533787D01*
X125138375Y-56421625D01*
X125110269Y-56398559D01*
X122740881Y-54029172D01*
X122777000Y-53847592D01*
X122777000Y-53572408D01*
X122723314Y-53302510D01*
X122618005Y-53048273D01*
X122465120Y-52819465D01*
X122270535Y-52624880D01*
X122041727Y-52471995D01*
X121787490Y-52366686D01*
X121517592Y-52313000D01*
X121242408Y-52313000D01*
X120972510Y-52366686D01*
X120718273Y-52471995D01*
X120489465Y-52624880D01*
X120294880Y-52819465D01*
X120141995Y-53048273D01*
X120036686Y-53302510D01*
X119983000Y-53572408D01*
X119983000Y-53847592D01*
X120036686Y-54117490D01*
X120141995Y-54371727D01*
X120294880Y-54600535D01*
X120489465Y-54795120D01*
X120718273Y-54948005D01*
X120795515Y-54980000D01*
X120718273Y-55011995D01*
X120489465Y-55164880D01*
X120294880Y-55359465D01*
X120141995Y-55588273D01*
X120036686Y-55842510D01*
X119983000Y-56112408D01*
X119983000Y-56387592D01*
X120036686Y-56657490D01*
X120141995Y-56911727D01*
X120294880Y-57140535D01*
X120489465Y-57335120D01*
X120718273Y-57488005D01*
X120795515Y-57520000D01*
X120718273Y-57551995D01*
X120489465Y-57704880D01*
X120294880Y-57899465D01*
X120141995Y-58128273D01*
X120036686Y-58382510D01*
X119983000Y-58652408D01*
X119983000Y-58927592D01*
X120036686Y-59197490D01*
X120141995Y-59451727D01*
X120294880Y-59680535D01*
X120489465Y-59875120D01*
X120718273Y-60028005D01*
X120795515Y-60060000D01*
X120718273Y-60091995D01*
X120489465Y-60244880D01*
X120294880Y-60439465D01*
X120141995Y-60668273D01*
X120036686Y-60922510D01*
X119983000Y-61192408D01*
X119983000Y-61467592D01*
X120036686Y-61737490D01*
X120141995Y-61991727D01*
X120294880Y-62220535D01*
X120489465Y-62415120D01*
X120718273Y-62568005D01*
X120972510Y-62673314D01*
X121242408Y-62727000D01*
X121517592Y-62727000D01*
X121787490Y-62673314D01*
X122041727Y-62568005D01*
X122270535Y-62415120D01*
X122465120Y-62220535D01*
X122618005Y-61991727D01*
X122723314Y-61737490D01*
X122777000Y-61467592D01*
X122777000Y-61192408D01*
X122723314Y-60922510D01*
X122618005Y-60668273D01*
X122465120Y-60439465D01*
X122270535Y-60244880D01*
X122041727Y-60091995D01*
X121964485Y-60060000D01*
X122041727Y-60028005D01*
X122270535Y-59875120D01*
X122465120Y-59680535D01*
X122618005Y-59451727D01*
X122723314Y-59197490D01*
X122777000Y-58927592D01*
X122777000Y-58688709D01*
X122836990Y-58748699D01*
X122836989Y-65189774D01*
X122836990Y-65189784D01*
X122836989Y-72011301D01*
X106997977Y-87850314D01*
X75999261Y-87850314D01*
X75963085Y-87846751D01*
X75926909Y-87850314D01*
X75926900Y-87850314D01*
X75818687Y-87860972D01*
X75679837Y-87903092D01*
X75551873Y-87971490D01*
X75439711Y-88063539D01*
X75416645Y-88091645D01*
X75194480Y-88313810D01*
X74999365Y-88275000D01*
X74720635Y-88275000D01*
X74447260Y-88329377D01*
X74189746Y-88436043D01*
X73957990Y-88590897D01*
X73760897Y-88787990D01*
X73606043Y-89019746D01*
X73590000Y-89058477D01*
X73573957Y-89019746D01*
X73419103Y-88787990D01*
X73222010Y-88590897D01*
X72990254Y-88436043D01*
X72732740Y-88329377D01*
X72459365Y-88275000D01*
X72180635Y-88275000D01*
X71907260Y-88329377D01*
X71649746Y-88436043D01*
X71417990Y-88590897D01*
X71220897Y-88787990D01*
X71066043Y-89019746D01*
X71050000Y-89058477D01*
X71033957Y-89019746D01*
X70879103Y-88787990D01*
X70682010Y-88590897D01*
X70450254Y-88436043D01*
X70192740Y-88329377D01*
X69919365Y-88275000D01*
X69640635Y-88275000D01*
X69367260Y-88329377D01*
X69109746Y-88436043D01*
X68877990Y-88590897D01*
X68680897Y-88787990D01*
X68526043Y-89019746D01*
X68510000Y-89058477D01*
X68493957Y-89019746D01*
X68339103Y-88787990D01*
X68142010Y-88590897D01*
X67910254Y-88436043D01*
X67652740Y-88329377D01*
X67379365Y-88275000D01*
X67100635Y-88275000D01*
X66827260Y-88329377D01*
X66569746Y-88436043D01*
X66337990Y-88590897D01*
X66140897Y-88787990D01*
X65986043Y-89019746D01*
X65970000Y-89058477D01*
X65953957Y-89019746D01*
X65799103Y-88787990D01*
X65602010Y-88590897D01*
X65370254Y-88436043D01*
X65112740Y-88329377D01*
X64839365Y-88275000D01*
X64560635Y-88275000D01*
X64287260Y-88329377D01*
X64029746Y-88436043D01*
X63797990Y-88590897D01*
X63600897Y-88787990D01*
X63446043Y-89019746D01*
X63431223Y-89055525D01*
X63380349Y-88960345D01*
X63138421Y-88891184D01*
X62339605Y-89690000D01*
X63138421Y-90488816D01*
X63380349Y-90419655D01*
X63428425Y-90317721D01*
X63446043Y-90360254D01*
X63600897Y-90592010D01*
X63797990Y-90789103D01*
X63901701Y-90858400D01*
X62904506Y-90858400D01*
X62958816Y-90668421D01*
X62160000Y-89869605D01*
X61361184Y-90668421D01*
X61415494Y-90858400D01*
X60418299Y-90858400D01*
X60522010Y-90789103D01*
X60719103Y-90592010D01*
X60873957Y-90360254D01*
X60888777Y-90324475D01*
X60939651Y-90419655D01*
X61181579Y-90488816D01*
X61980395Y-89690000D01*
X61181579Y-88891184D01*
X60939651Y-88960345D01*
X60891575Y-89062279D01*
X60873957Y-89019746D01*
X60719103Y-88787990D01*
X60642692Y-88711579D01*
X61361184Y-88711579D01*
X62160000Y-89510395D01*
X62958816Y-88711579D01*
X62889655Y-88469651D01*
X62637557Y-88350752D01*
X62367106Y-88283319D01*
X62088697Y-88269943D01*
X61813028Y-88311140D01*
X61550692Y-88405325D01*
X61430345Y-88469651D01*
X61361184Y-88711579D01*
X60642692Y-88711579D01*
X60522010Y-88590897D01*
X60349183Y-88475418D01*
X60345942Y-88442515D01*
X60318106Y-88350752D01*
X60303822Y-88303665D01*
X60235424Y-88175701D01*
X60143375Y-88063539D01*
X60115268Y-88040472D01*
X54919532Y-82844737D01*
X54896461Y-82816625D01*
X54784299Y-82724576D01*
X54656335Y-82656178D01*
X54517485Y-82614058D01*
X54409272Y-82603400D01*
X54409269Y-82603400D01*
X54373086Y-82599836D01*
X54336903Y-82603400D01*
X46815110Y-82603400D01*
X40896600Y-76684891D01*
X40896600Y-76193967D01*
X99351000Y-76193967D01*
X99351000Y-76516033D01*
X99413832Y-76831912D01*
X99537082Y-77129463D01*
X99716013Y-77397252D01*
X99943748Y-77624987D01*
X100211537Y-77803918D01*
X100509088Y-77927168D01*
X100824967Y-77990000D01*
X101147033Y-77990000D01*
X101462912Y-77927168D01*
X101760463Y-77803918D01*
X102028252Y-77624987D01*
X102255987Y-77397252D01*
X102434918Y-77129463D01*
X102558168Y-76831912D01*
X102621000Y-76516033D01*
X102621000Y-76193967D01*
X114351000Y-76193967D01*
X114351000Y-76516033D01*
X114413832Y-76831912D01*
X114537082Y-77129463D01*
X114716013Y-77397252D01*
X114943748Y-77624987D01*
X115211537Y-77803918D01*
X115509088Y-77927168D01*
X115824967Y-77990000D01*
X116147033Y-77990000D01*
X116462912Y-77927168D01*
X116760463Y-77803918D01*
X117028252Y-77624987D01*
X117255987Y-77397252D01*
X117434918Y-77129463D01*
X117558168Y-76831912D01*
X117621000Y-76516033D01*
X117621000Y-76193967D01*
X117558168Y-75878088D01*
X117434918Y-75580537D01*
X117255987Y-75312748D01*
X117028252Y-75085013D01*
X116760463Y-74906082D01*
X116462912Y-74782832D01*
X116147033Y-74720000D01*
X115824967Y-74720000D01*
X115509088Y-74782832D01*
X115211537Y-74906082D01*
X114943748Y-75085013D01*
X114716013Y-75312748D01*
X114537082Y-75580537D01*
X114413832Y-75878088D01*
X114351000Y-76193967D01*
X102621000Y-76193967D01*
X102558168Y-75878088D01*
X102434918Y-75580537D01*
X102255987Y-75312748D01*
X102028252Y-75085013D01*
X101760463Y-74906082D01*
X101462912Y-74782832D01*
X101147033Y-74720000D01*
X100824967Y-74720000D01*
X100509088Y-74782832D01*
X100211537Y-74906082D01*
X99943748Y-75085013D01*
X99716013Y-75312748D01*
X99537082Y-75580537D01*
X99413832Y-75878088D01*
X99351000Y-76193967D01*
X40896600Y-76193967D01*
X40896600Y-65865565D01*
X77474040Y-65865565D01*
X77541020Y-66105656D01*
X77790048Y-66222756D01*
X78057135Y-66289023D01*
X78332017Y-66301910D01*
X78604133Y-66260922D01*
X78863023Y-66167636D01*
X78978980Y-66105656D01*
X79045960Y-65865565D01*
X78260000Y-65079605D01*
X77474040Y-65865565D01*
X40896600Y-65865565D01*
X40896600Y-64972017D01*
X76858090Y-64972017D01*
X76899078Y-65244133D01*
X76992364Y-65503023D01*
X77054344Y-65618980D01*
X77294435Y-65685960D01*
X78080395Y-64900000D01*
X78439605Y-64900000D01*
X79225565Y-65685960D01*
X79465656Y-65618980D01*
X79529485Y-65483240D01*
X79561995Y-65561727D01*
X79714880Y-65790535D01*
X79909465Y-65985120D01*
X80138273Y-66138005D01*
X80392510Y-66243314D01*
X80662408Y-66297000D01*
X80937592Y-66297000D01*
X81207490Y-66243314D01*
X81461727Y-66138005D01*
X81690535Y-65985120D01*
X81885120Y-65790535D01*
X82038005Y-65561727D01*
X82143314Y-65307490D01*
X82197000Y-65037592D01*
X82197000Y-64762408D01*
X87023000Y-64762408D01*
X87023000Y-65037592D01*
X87076686Y-65307490D01*
X87181995Y-65561727D01*
X87334880Y-65790535D01*
X87529465Y-65985120D01*
X87758273Y-66138005D01*
X88012510Y-66243314D01*
X88282408Y-66297000D01*
X88557592Y-66297000D01*
X88827490Y-66243314D01*
X89081727Y-66138005D01*
X89310535Y-65985120D01*
X89430090Y-65865565D01*
X90174040Y-65865565D01*
X90241020Y-66105656D01*
X90490048Y-66222756D01*
X90757135Y-66289023D01*
X91032017Y-66301910D01*
X91304133Y-66260922D01*
X91563023Y-66167636D01*
X91678980Y-66105656D01*
X91745960Y-65865565D01*
X90960000Y-65079605D01*
X90174040Y-65865565D01*
X89430090Y-65865565D01*
X89505120Y-65790535D01*
X89658005Y-65561727D01*
X89687692Y-65490057D01*
X89692364Y-65503023D01*
X89754344Y-65618980D01*
X89994435Y-65685960D01*
X90780395Y-64900000D01*
X91139605Y-64900000D01*
X91925565Y-65685960D01*
X92165656Y-65618980D01*
X92218851Y-65505853D01*
X92241995Y-65561727D01*
X92394880Y-65790535D01*
X92589465Y-65985120D01*
X92818273Y-66138005D01*
X93072510Y-66243314D01*
X93342408Y-66297000D01*
X93617592Y-66297000D01*
X93887490Y-66243314D01*
X94141727Y-66138005D01*
X94370535Y-65985120D01*
X94565120Y-65790535D01*
X94718005Y-65561727D01*
X94823314Y-65307490D01*
X94877000Y-65037592D01*
X94877000Y-64762408D01*
X94823314Y-64492510D01*
X94718005Y-64238273D01*
X94565120Y-64009465D01*
X94370535Y-63814880D01*
X94141727Y-63661995D01*
X93887490Y-63556686D01*
X93617592Y-63503000D01*
X93342408Y-63503000D01*
X93072510Y-63556686D01*
X92818273Y-63661995D01*
X92589465Y-63814880D01*
X92394880Y-64009465D01*
X92241995Y-64238273D01*
X92222026Y-64286482D01*
X92165656Y-64181020D01*
X91925565Y-64114040D01*
X91139605Y-64900000D01*
X90780395Y-64900000D01*
X89994435Y-64114040D01*
X89754344Y-64181020D01*
X89690515Y-64316760D01*
X89658005Y-64238273D01*
X89505120Y-64009465D01*
X89430090Y-63934435D01*
X90174040Y-63934435D01*
X90960000Y-64720395D01*
X91745960Y-63934435D01*
X91678980Y-63694344D01*
X91429952Y-63577244D01*
X91162865Y-63510977D01*
X90887983Y-63498090D01*
X90615867Y-63539078D01*
X90356977Y-63632364D01*
X90241020Y-63694344D01*
X90174040Y-63934435D01*
X89430090Y-63934435D01*
X89310535Y-63814880D01*
X89081727Y-63661995D01*
X88827490Y-63556686D01*
X88557592Y-63503000D01*
X88282408Y-63503000D01*
X88012510Y-63556686D01*
X87758273Y-63661995D01*
X87529465Y-63814880D01*
X87334880Y-64009465D01*
X87181995Y-64238273D01*
X87076686Y-64492510D01*
X87023000Y-64762408D01*
X82197000Y-64762408D01*
X82143314Y-64492510D01*
X82038005Y-64238273D01*
X81885120Y-64009465D01*
X81690535Y-63814880D01*
X81461727Y-63661995D01*
X81207490Y-63556686D01*
X80937592Y-63503000D01*
X80662408Y-63503000D01*
X80392510Y-63556686D01*
X80138273Y-63661995D01*
X79909465Y-63814880D01*
X79714880Y-64009465D01*
X79561995Y-64238273D01*
X79532308Y-64309943D01*
X79527636Y-64296977D01*
X79465656Y-64181020D01*
X79225565Y-64114040D01*
X78439605Y-64900000D01*
X78080395Y-64900000D01*
X77294435Y-64114040D01*
X77054344Y-64181020D01*
X76937244Y-64430048D01*
X76870977Y-64697135D01*
X76858090Y-64972017D01*
X40896600Y-64972017D01*
X40896600Y-64446186D01*
X40900164Y-64410000D01*
X40885942Y-64265601D01*
X40843822Y-64126752D01*
X40843822Y-64126751D01*
X40775424Y-63998787D01*
X40722612Y-63934435D01*
X77474040Y-63934435D01*
X78260000Y-64720395D01*
X79045960Y-63934435D01*
X78978980Y-63694344D01*
X78729952Y-63577244D01*
X78462865Y-63510977D01*
X78187983Y-63498090D01*
X77915867Y-63539078D01*
X77656977Y-63632364D01*
X77541020Y-63694344D01*
X77474040Y-63934435D01*
X40722612Y-63934435D01*
X40683375Y-63886625D01*
X40655269Y-63863559D01*
X39945111Y-63153401D01*
X118555882Y-63153401D01*
X118592065Y-63156965D01*
X118628248Y-63153401D01*
X118628251Y-63153401D01*
X118736464Y-63142743D01*
X118875314Y-63100623D01*
X119003278Y-63032225D01*
X119115440Y-62940176D01*
X119138510Y-62912065D01*
X119642074Y-62408502D01*
X119670175Y-62385440D01*
X119693238Y-62357338D01*
X119693243Y-62357333D01*
X119762224Y-62273279D01*
X119762226Y-62273277D01*
X119830623Y-62145314D01*
X119872743Y-62006464D01*
X119883401Y-61898251D01*
X119883401Y-61898242D01*
X119886964Y-61862066D01*
X119883401Y-61825890D01*
X119883401Y-59892976D01*
X119886964Y-59856800D01*
X119883401Y-59820624D01*
X119883401Y-59820615D01*
X119872743Y-59712402D01*
X119830623Y-59573552D01*
X119762225Y-59445588D01*
X119670176Y-59333426D01*
X119642064Y-59310355D01*
X119444200Y-59112491D01*
X119477000Y-58947592D01*
X119477000Y-58672408D01*
X119423314Y-58402510D01*
X119318005Y-58148273D01*
X119165120Y-57919465D01*
X118970535Y-57724880D01*
X118741727Y-57571995D01*
X118664485Y-57540000D01*
X118741727Y-57508005D01*
X118970535Y-57355120D01*
X119165120Y-57160535D01*
X119318005Y-56931727D01*
X119423314Y-56677490D01*
X119477000Y-56407592D01*
X119477000Y-56132408D01*
X119423314Y-55862510D01*
X119318005Y-55608273D01*
X119165120Y-55379465D01*
X118970535Y-55184880D01*
X118741727Y-55031995D01*
X118664485Y-55000000D01*
X118741727Y-54968005D01*
X118970535Y-54815120D01*
X119165120Y-54620535D01*
X119318005Y-54391727D01*
X119423314Y-54137490D01*
X119477000Y-53867592D01*
X119477000Y-53592408D01*
X119423314Y-53322510D01*
X119318005Y-53068273D01*
X119165120Y-52839465D01*
X118970535Y-52644880D01*
X118741727Y-52491995D01*
X118487490Y-52386686D01*
X118217592Y-52333000D01*
X117942408Y-52333000D01*
X117672510Y-52386686D01*
X117418273Y-52491995D01*
X117189465Y-52644880D01*
X116994880Y-52839465D01*
X116841995Y-53068273D01*
X116736686Y-53322510D01*
X116683000Y-53592408D01*
X116683000Y-53811291D01*
X116086446Y-53214737D01*
X116063375Y-53186625D01*
X115951213Y-53094576D01*
X115823249Y-53026178D01*
X115684399Y-52984058D01*
X115576186Y-52973400D01*
X115576183Y-52973400D01*
X115540000Y-52969836D01*
X115503817Y-52973400D01*
X52101072Y-52973400D01*
X52101072Y-51590000D01*
X52088812Y-51465518D01*
X52052502Y-51345820D01*
X51993537Y-51235506D01*
X51914185Y-51138815D01*
X51817494Y-51059463D01*
X51707180Y-51000498D01*
X51587482Y-50964188D01*
X51463000Y-50951928D01*
X49939000Y-50951928D01*
X49814518Y-50964188D01*
X49694820Y-51000498D01*
X49584506Y-51059463D01*
X49487815Y-51138815D01*
X49408463Y-51235506D01*
X49349498Y-51345820D01*
X49313188Y-51465518D01*
X49300928Y-51590000D01*
X49300928Y-52973400D01*
X42956165Y-52973400D01*
X42954000Y-52637750D01*
X42795250Y-52479000D01*
X41684000Y-52479000D01*
X41684000Y-52499000D01*
X41430000Y-52499000D01*
X41430000Y-52479000D01*
X40318750Y-52479000D01*
X40160000Y-52637750D01*
X40157835Y-52973400D01*
X38267976Y-52973400D01*
X38165120Y-52819465D01*
X37970535Y-52624880D01*
X37741727Y-52471995D01*
X37664485Y-52440000D01*
X37741727Y-52408005D01*
X37970535Y-52255120D01*
X38165120Y-52060535D01*
X38318005Y-51831727D01*
X38418132Y-51590000D01*
X40156928Y-51590000D01*
X40160000Y-52066250D01*
X40318750Y-52225000D01*
X41430000Y-52225000D01*
X41430000Y-51113750D01*
X41684000Y-51113750D01*
X41684000Y-52225000D01*
X42795250Y-52225000D01*
X42954000Y-52066250D01*
X42957072Y-51590000D01*
X42944812Y-51465518D01*
X42908502Y-51345820D01*
X42849537Y-51235506D01*
X42770185Y-51138815D01*
X42673494Y-51059463D01*
X42563180Y-51000498D01*
X42443482Y-50964188D01*
X42319000Y-50951928D01*
X41842750Y-50955000D01*
X41684000Y-51113750D01*
X41430000Y-51113750D01*
X41271250Y-50955000D01*
X40795000Y-50951928D01*
X40670518Y-50964188D01*
X40550820Y-51000498D01*
X40440506Y-51059463D01*
X40343815Y-51138815D01*
X40264463Y-51235506D01*
X40205498Y-51345820D01*
X40169188Y-51465518D01*
X40156928Y-51590000D01*
X38418132Y-51590000D01*
X38423314Y-51577490D01*
X38477000Y-51307592D01*
X38477000Y-51032408D01*
X38423314Y-50762510D01*
X38318005Y-50508273D01*
X38165120Y-50279465D01*
X37970535Y-50084880D01*
X37741727Y-49931995D01*
X37664485Y-49900000D01*
X37741727Y-49868005D01*
X37970535Y-49715120D01*
X38165120Y-49520535D01*
X38318005Y-49291727D01*
X38423314Y-49037490D01*
X38477000Y-48767592D01*
X38477000Y-48492408D01*
X38423314Y-48222510D01*
X38318005Y-47968273D01*
X38165120Y-47739465D01*
X37970535Y-47544880D01*
X37741727Y-47391995D01*
X37664485Y-47360000D01*
X37741727Y-47328005D01*
X37970535Y-47175120D01*
X38165120Y-46980535D01*
X38318005Y-46751727D01*
X38423314Y-46497490D01*
X38477000Y-46227592D01*
X38477000Y-45952408D01*
X38439207Y-45762408D01*
X76863000Y-45762408D01*
X76863000Y-46037592D01*
X76916686Y-46307490D01*
X77021995Y-46561727D01*
X77174880Y-46790535D01*
X77369465Y-46985120D01*
X77598273Y-47138005D01*
X77852510Y-47243314D01*
X78122408Y-47297000D01*
X78397592Y-47297000D01*
X78667490Y-47243314D01*
X78921727Y-47138005D01*
X79150535Y-46985120D01*
X79345120Y-46790535D01*
X79498005Y-46561727D01*
X79530000Y-46484485D01*
X79561995Y-46561727D01*
X79714880Y-46790535D01*
X79909465Y-46985120D01*
X80138273Y-47138005D01*
X80392510Y-47243314D01*
X80662408Y-47297000D01*
X80937592Y-47297000D01*
X81207490Y-47243314D01*
X81461727Y-47138005D01*
X81690535Y-46985120D01*
X81885120Y-46790535D01*
X82038005Y-46561727D01*
X82143314Y-46307490D01*
X82197000Y-46037592D01*
X82197000Y-45762408D01*
X82143314Y-45492510D01*
X82038005Y-45238273D01*
X81885120Y-45009465D01*
X81690535Y-44814880D01*
X81461727Y-44661995D01*
X81207490Y-44556686D01*
X80937592Y-44503000D01*
X80662408Y-44503000D01*
X80392510Y-44556686D01*
X80138273Y-44661995D01*
X79909465Y-44814880D01*
X79714880Y-45009465D01*
X79561995Y-45238273D01*
X79530000Y-45315515D01*
X79498005Y-45238273D01*
X79345120Y-45009465D01*
X79150535Y-44814880D01*
X78921727Y-44661995D01*
X78667490Y-44556686D01*
X78397592Y-44503000D01*
X78122408Y-44503000D01*
X77852510Y-44556686D01*
X77598273Y-44661995D01*
X77369465Y-44814880D01*
X77174880Y-45009465D01*
X77021995Y-45238273D01*
X76916686Y-45492510D01*
X76863000Y-45762408D01*
X38439207Y-45762408D01*
X38423314Y-45682510D01*
X38318005Y-45428273D01*
X38165120Y-45199465D01*
X37970535Y-45004880D01*
X37741727Y-44851995D01*
X37670057Y-44822308D01*
X37683023Y-44817636D01*
X37798980Y-44755656D01*
X37865960Y-44515565D01*
X37080000Y-43729605D01*
X36294040Y-44515565D01*
X36361020Y-44755656D01*
X36496760Y-44819485D01*
X36418273Y-44851995D01*
X36189465Y-45004880D01*
X35994880Y-45199465D01*
X35841995Y-45428273D01*
X35736686Y-45682510D01*
X35683000Y-45952408D01*
X35683000Y-46227592D01*
X35719118Y-46409172D01*
X35219732Y-46908559D01*
X35191626Y-46931625D01*
X35168560Y-46959731D01*
X35168558Y-46959733D01*
X35099576Y-47043788D01*
X35040010Y-47155229D01*
X35031179Y-47171751D01*
X34996907Y-47284732D01*
X34989059Y-47310602D01*
X34974836Y-47455000D01*
X34978401Y-47491193D01*
X34978400Y-53915996D01*
X34978400Y-53915997D01*
X34978401Y-54957405D01*
X34978401Y-62607101D01*
X34793578Y-62455421D01*
X34492168Y-62294314D01*
X34165119Y-62195105D01*
X33910225Y-62170000D01*
X32439775Y-62170000D01*
X32184881Y-62195105D01*
X31857832Y-62294314D01*
X31556422Y-62455421D01*
X31292234Y-62672234D01*
X31075421Y-62936422D01*
X30914314Y-63237832D01*
X30815105Y-63564881D01*
X30781606Y-63905000D01*
X30815105Y-64245119D01*
X30914314Y-64572168D01*
X31075421Y-64873578D01*
X31292234Y-65137766D01*
X31483994Y-65295139D01*
X31389236Y-65472419D01*
X31310040Y-65733493D01*
X31283299Y-66005000D01*
X31310040Y-66276507D01*
X31389236Y-66537581D01*
X31517843Y-66778188D01*
X31690919Y-66989081D01*
X31710316Y-67005000D01*
X31690919Y-67020919D01*
X31517843Y-67231812D01*
X31389236Y-67472419D01*
X31310040Y-67733493D01*
X31283299Y-68005000D01*
X31310040Y-68276507D01*
X31389236Y-68537581D01*
X31513940Y-68770886D01*
X31473815Y-68803815D01*
X31394463Y-68900506D01*
X31335498Y-69010820D01*
X31299188Y-69130518D01*
X31286928Y-69255000D01*
X31286928Y-70755000D01*
X31298008Y-70867496D01*
X31292234Y-70872234D01*
X31075421Y-71136422D01*
X30914314Y-71437832D01*
X30815105Y-71764881D01*
X30781606Y-72105000D01*
X30815105Y-72445119D01*
X30914314Y-72772168D01*
X31075421Y-73073578D01*
X31292234Y-73337766D01*
X31556422Y-73554579D01*
X31857832Y-73715686D01*
X32184881Y-73814895D01*
X32439775Y-73840000D01*
X33910225Y-73840000D01*
X34165119Y-73814895D01*
X34492168Y-73715686D01*
X34793578Y-73554579D01*
X34978400Y-73402900D01*
X34978400Y-75048817D01*
X34974836Y-75085000D01*
X34978400Y-75121183D01*
X34978400Y-75121185D01*
X34989058Y-75229398D01*
X35031178Y-75368248D01*
X35099576Y-75496212D01*
X35191625Y-75608374D01*
X35219732Y-75631441D01*
X41590102Y-82001811D01*
X41557000Y-82019186D01*
X41557000Y-83213000D01*
X42750155Y-83213000D01*
X42767819Y-83179528D01*
X45963554Y-86375263D01*
X45986625Y-86403375D01*
X46098787Y-86495424D01*
X46226751Y-86563822D01*
X46365601Y-86605942D01*
X46473814Y-86616600D01*
X46473823Y-86616600D01*
X46509999Y-86620163D01*
X46546175Y-86616600D01*
X50424891Y-86616600D01*
X52083291Y-88275000D01*
X51860635Y-88275000D01*
X51587260Y-88329377D01*
X51329746Y-88436043D01*
X51097990Y-88590897D01*
X50900897Y-88787990D01*
X50746043Y-89019746D01*
X50730000Y-89058477D01*
X50713957Y-89019746D01*
X50559103Y-88787990D01*
X50362010Y-88590897D01*
X50130254Y-88436043D01*
X49872740Y-88329377D01*
X49599365Y-88275000D01*
X49320635Y-88275000D01*
X49047260Y-88329377D01*
X48789746Y-88436043D01*
X48557990Y-88590897D01*
X48360897Y-88787990D01*
X48206043Y-89019746D01*
X48190000Y-89058477D01*
X48173957Y-89019746D01*
X48019103Y-88787990D01*
X47822010Y-88590897D01*
X47590254Y-88436043D01*
X47332740Y-88329377D01*
X47059365Y-88275000D01*
X46780635Y-88275000D01*
X46507260Y-88329377D01*
X46249746Y-88436043D01*
X46017990Y-88590897D01*
X45820897Y-88787990D01*
X45666043Y-89019746D01*
X45650000Y-89058477D01*
X45633957Y-89019746D01*
X45479103Y-88787990D01*
X45282010Y-88590897D01*
X45050254Y-88436043D01*
X44792740Y-88329377D01*
X44519365Y-88275000D01*
X44240635Y-88275000D01*
X43967260Y-88329377D01*
X43709746Y-88436043D01*
X43477990Y-88590897D01*
X43280897Y-88787990D01*
X43126043Y-89019746D01*
X43110000Y-89058477D01*
X43093957Y-89019746D01*
X42939103Y-88787990D01*
X42742010Y-88590897D01*
X42510254Y-88436043D01*
X42252740Y-88329377D01*
X41979365Y-88275000D01*
X41700635Y-88275000D01*
X41427260Y-88329377D01*
X41169746Y-88436043D01*
X40937990Y-88590897D01*
X40740897Y-88787990D01*
X40586043Y-89019746D01*
X40570000Y-89058477D01*
X40553957Y-89019746D01*
X40399103Y-88787990D01*
X40202010Y-88590897D01*
X39970254Y-88436043D01*
X39712740Y-88329377D01*
X39439365Y-88275000D01*
X39160635Y-88275000D01*
X38887260Y-88329377D01*
X38629746Y-88436043D01*
X38397990Y-88590897D01*
X38200897Y-88787990D01*
X38046043Y-89019746D01*
X38030000Y-89058477D01*
X38013957Y-89019746D01*
X37859103Y-88787990D01*
X37662010Y-88590897D01*
X37430254Y-88436043D01*
X37172740Y-88329377D01*
X36899365Y-88275000D01*
X36620635Y-88275000D01*
X36347260Y-88329377D01*
X36089746Y-88436043D01*
X35857990Y-88590897D01*
X35660897Y-88787990D01*
X35506043Y-89019746D01*
X35490000Y-89058477D01*
X35473957Y-89019746D01*
X35319103Y-88787990D01*
X35122010Y-88590897D01*
X34890254Y-88436043D01*
X34632740Y-88329377D01*
X34359365Y-88275000D01*
X34080635Y-88275000D01*
X33807260Y-88329377D01*
X33549746Y-88436043D01*
X33317990Y-88590897D01*
X33120897Y-88787990D01*
X32966043Y-89019746D01*
X32950000Y-89058477D01*
X32933957Y-89019746D01*
X32779103Y-88787990D01*
X32582010Y-88590897D01*
X32350254Y-88436043D01*
X32092740Y-88329377D01*
X31819365Y-88275000D01*
X31540635Y-88275000D01*
X31267260Y-88329377D01*
X31009746Y-88436043D01*
X30777990Y-88590897D01*
X30660000Y-88708887D01*
X30660000Y-85030000D01*
X39941928Y-85030000D01*
X39941928Y-86730000D01*
X39954188Y-86854482D01*
X39990498Y-86974180D01*
X40049463Y-87084494D01*
X40128815Y-87181185D01*
X40225506Y-87260537D01*
X40335820Y-87319502D01*
X40455518Y-87355812D01*
X40580000Y-87368072D01*
X42280000Y-87368072D01*
X42404482Y-87355812D01*
X42524180Y-87319502D01*
X42634494Y-87260537D01*
X42731185Y-87181185D01*
X42810537Y-87084494D01*
X42869502Y-86974180D01*
X42905812Y-86854482D01*
X42918072Y-86730000D01*
X42918072Y-85030000D01*
X42905812Y-84905518D01*
X42869502Y-84785820D01*
X42810537Y-84675506D01*
X42731185Y-84578815D01*
X42634494Y-84499463D01*
X42524180Y-84440498D01*
X42443534Y-84416034D01*
X42527588Y-84340269D01*
X42701641Y-84106920D01*
X42826825Y-83844099D01*
X42871476Y-83696890D01*
X42750155Y-83467000D01*
X41557000Y-83467000D01*
X41557000Y-83487000D01*
X41303000Y-83487000D01*
X41303000Y-83467000D01*
X40109845Y-83467000D01*
X39988524Y-83696890D01*
X40033175Y-83844099D01*
X40158359Y-84106920D01*
X40332412Y-84340269D01*
X40416466Y-84416034D01*
X40335820Y-84440498D01*
X40225506Y-84499463D01*
X40128815Y-84578815D01*
X40049463Y-84675506D01*
X39990498Y-84785820D01*
X39954188Y-84905518D01*
X39941928Y-85030000D01*
X30660000Y-85030000D01*
X30660000Y-82354999D01*
X34963928Y-82354999D01*
X34963928Y-83055001D01*
X34980992Y-83228255D01*
X35031528Y-83394851D01*
X35113595Y-83548387D01*
X35224038Y-83682962D01*
X35358613Y-83793405D01*
X35512149Y-83875472D01*
X35678745Y-83926008D01*
X35851999Y-83943072D01*
X37102001Y-83943072D01*
X37275255Y-83926008D01*
X37441851Y-83875472D01*
X37595387Y-83793405D01*
X37729962Y-83682962D01*
X37840405Y-83548387D01*
X37922472Y-83394851D01*
X37973008Y-83228255D01*
X37990072Y-83055001D01*
X37990072Y-82983110D01*
X39988524Y-82983110D01*
X40109845Y-83213000D01*
X41303000Y-83213000D01*
X41303000Y-82019186D01*
X41073109Y-81898519D01*
X40798748Y-81995843D01*
X40548645Y-82144822D01*
X40332412Y-82339731D01*
X40158359Y-82573080D01*
X40033175Y-82835901D01*
X39988524Y-82983110D01*
X37990072Y-82983110D01*
X37990072Y-82354999D01*
X37973008Y-82181745D01*
X37922472Y-82015149D01*
X37840405Y-81861613D01*
X37729962Y-81727038D01*
X37595387Y-81616595D01*
X37590594Y-81614033D01*
X37715078Y-81488474D01*
X37849421Y-81285533D01*
X37941591Y-81060282D01*
X37945462Y-81022609D01*
X37820731Y-80832000D01*
X36604000Y-80832000D01*
X36604000Y-80852000D01*
X36350000Y-80852000D01*
X36350000Y-80832000D01*
X35133269Y-80832000D01*
X35008538Y-81022609D01*
X35012409Y-81060282D01*
X35104579Y-81285533D01*
X35238922Y-81488474D01*
X35363406Y-81614033D01*
X35358613Y-81616595D01*
X35224038Y-81727038D01*
X35113595Y-81861613D01*
X35031528Y-82015149D01*
X34980992Y-82181745D01*
X34963928Y-82354999D01*
X30660000Y-82354999D01*
X30660000Y-80387391D01*
X35008538Y-80387391D01*
X35133269Y-80578000D01*
X36350000Y-80578000D01*
X36350000Y-79470000D01*
X36604000Y-79470000D01*
X36604000Y-80578000D01*
X37820731Y-80578000D01*
X37945462Y-80387391D01*
X37941591Y-80349718D01*
X37849421Y-80124467D01*
X37715078Y-79921526D01*
X37543725Y-79748693D01*
X37341946Y-79612610D01*
X37117496Y-79518507D01*
X36879000Y-79470000D01*
X36604000Y-79470000D01*
X36350000Y-79470000D01*
X36075000Y-79470000D01*
X35836504Y-79518507D01*
X35612054Y-79612610D01*
X35410275Y-79748693D01*
X35238922Y-79921526D01*
X35104579Y-80124467D01*
X35012409Y-80349718D01*
X35008538Y-80387391D01*
X30660000Y-80387391D01*
X30660000Y-57305000D01*
X31047815Y-57305000D01*
X31076487Y-57596111D01*
X31161401Y-57876034D01*
X31299294Y-58134014D01*
X31484866Y-58360134D01*
X31710986Y-58545706D01*
X31765791Y-58575000D01*
X31710986Y-58604294D01*
X31484866Y-58789866D01*
X31299294Y-59015986D01*
X31161401Y-59273966D01*
X31076487Y-59553889D01*
X31047815Y-59845000D01*
X31076487Y-60136111D01*
X31161401Y-60416034D01*
X31299294Y-60674014D01*
X31484866Y-60900134D01*
X31710986Y-61085706D01*
X31968966Y-61223599D01*
X32248889Y-61308513D01*
X32467050Y-61330000D01*
X32612950Y-61330000D01*
X32831111Y-61308513D01*
X33111034Y-61223599D01*
X33369014Y-61085706D01*
X33595134Y-60900134D01*
X33780706Y-60674014D01*
X33918599Y-60416034D01*
X34003513Y-60136111D01*
X34032185Y-59845000D01*
X34003513Y-59553889D01*
X33918599Y-59273966D01*
X33780706Y-59015986D01*
X33595134Y-58789866D01*
X33369014Y-58604294D01*
X33314209Y-58575000D01*
X33369014Y-58545706D01*
X33595134Y-58360134D01*
X33780706Y-58134014D01*
X33918599Y-57876034D01*
X34003513Y-57596111D01*
X34032185Y-57305000D01*
X34003513Y-57013889D01*
X33918599Y-56733966D01*
X33780706Y-56475986D01*
X33595134Y-56249866D01*
X33565313Y-56225393D01*
X33634180Y-56204502D01*
X33744494Y-56145537D01*
X33841185Y-56066185D01*
X33920537Y-55969494D01*
X33979502Y-55859180D01*
X34015812Y-55739482D01*
X34028072Y-55615000D01*
X34028072Y-53915000D01*
X34015812Y-53790518D01*
X33979502Y-53670820D01*
X33920537Y-53560506D01*
X33841185Y-53463815D01*
X33744494Y-53384463D01*
X33634180Y-53325498D01*
X33514482Y-53289188D01*
X33390000Y-53276928D01*
X31690000Y-53276928D01*
X31565518Y-53289188D01*
X31445820Y-53325498D01*
X31335506Y-53384463D01*
X31238815Y-53463815D01*
X31159463Y-53560506D01*
X31100498Y-53670820D01*
X31064188Y-53790518D01*
X31051928Y-53915000D01*
X31051928Y-55615000D01*
X31064188Y-55739482D01*
X31100498Y-55859180D01*
X31159463Y-55969494D01*
X31238815Y-56066185D01*
X31335506Y-56145537D01*
X31445820Y-56204502D01*
X31514687Y-56225393D01*
X31484866Y-56249866D01*
X31299294Y-56475986D01*
X31161401Y-56733966D01*
X31076487Y-57013889D01*
X31047815Y-57305000D01*
X30660000Y-57305000D01*
X30660000Y-50320000D01*
X31098057Y-50320000D01*
X31125764Y-50601309D01*
X31207818Y-50871808D01*
X31341068Y-51121101D01*
X31520392Y-51339608D01*
X31738899Y-51518932D01*
X31988192Y-51652182D01*
X32258691Y-51734236D01*
X32469508Y-51755000D01*
X32610492Y-51755000D01*
X32821309Y-51734236D01*
X33091808Y-51652182D01*
X33341101Y-51518932D01*
X33559608Y-51339608D01*
X33738932Y-51121101D01*
X33872182Y-50871808D01*
X33954236Y-50601309D01*
X33981943Y-50320000D01*
X33954236Y-50038691D01*
X33872182Y-49768192D01*
X33738932Y-49518899D01*
X33559608Y-49300392D01*
X33341101Y-49121068D01*
X33091808Y-48987818D01*
X32821309Y-48905764D01*
X32610492Y-48885000D01*
X32469508Y-48885000D01*
X32258691Y-48905764D01*
X31988192Y-48987818D01*
X31738899Y-49121068D01*
X31520392Y-49300392D01*
X31341068Y-49518899D01*
X31207818Y-49768192D01*
X31125764Y-50038691D01*
X31098057Y-50320000D01*
X30660000Y-50320000D01*
X30660000Y-43622017D01*
X35678090Y-43622017D01*
X35719078Y-43894133D01*
X35812364Y-44153023D01*
X35874344Y-44268980D01*
X36114435Y-44335960D01*
X36900395Y-43550000D01*
X37259605Y-43550000D01*
X38045565Y-44335960D01*
X38285656Y-44268980D01*
X38402756Y-44019952D01*
X38469023Y-43752865D01*
X38481910Y-43477983D01*
X38440922Y-43205867D01*
X38347636Y-42946977D01*
X38285656Y-42831020D01*
X38045565Y-42764040D01*
X37259605Y-43550000D01*
X36900395Y-43550000D01*
X36114435Y-42764040D01*
X35874344Y-42831020D01*
X35757244Y-43080048D01*
X35690977Y-43347135D01*
X35678090Y-43622017D01*
X30660000Y-43622017D01*
X30660000Y-40018665D01*
X31105000Y-40018665D01*
X31105000Y-40301335D01*
X31160147Y-40578574D01*
X31268320Y-40839727D01*
X31425363Y-41074759D01*
X31625241Y-41274637D01*
X31860273Y-41431680D01*
X32121426Y-41539853D01*
X32398665Y-41595000D01*
X32681335Y-41595000D01*
X32958574Y-41539853D01*
X33219727Y-41431680D01*
X33454759Y-41274637D01*
X33654637Y-41074759D01*
X33789843Y-40872408D01*
X35683000Y-40872408D01*
X35683000Y-41147592D01*
X35736686Y-41417490D01*
X35841995Y-41671727D01*
X35994880Y-41900535D01*
X36189465Y-42095120D01*
X36418273Y-42248005D01*
X36489943Y-42277692D01*
X36476977Y-42282364D01*
X36361020Y-42344344D01*
X36294040Y-42584435D01*
X37080000Y-43370395D01*
X37865960Y-42584435D01*
X37798980Y-42344344D01*
X37663240Y-42280515D01*
X37741727Y-42248005D01*
X37970535Y-42095120D01*
X38165120Y-41900535D01*
X38318005Y-41671727D01*
X38423314Y-41417490D01*
X38477000Y-41147592D01*
X38477000Y-40872408D01*
X38423314Y-40602510D01*
X38318005Y-40348273D01*
X38165120Y-40119465D01*
X37970535Y-39924880D01*
X37741727Y-39771995D01*
X37487490Y-39666686D01*
X37217592Y-39613000D01*
X36942408Y-39613000D01*
X36672510Y-39666686D01*
X36418273Y-39771995D01*
X36189465Y-39924880D01*
X35994880Y-40119465D01*
X35841995Y-40348273D01*
X35736686Y-40602510D01*
X35683000Y-40872408D01*
X33789843Y-40872408D01*
X33811680Y-40839727D01*
X33919853Y-40578574D01*
X33975000Y-40301335D01*
X33975000Y-40018665D01*
X33919853Y-39741426D01*
X33811680Y-39480273D01*
X33654637Y-39245241D01*
X33454759Y-39045363D01*
X33219727Y-38888320D01*
X32958574Y-38780147D01*
X32681335Y-38725000D01*
X32398665Y-38725000D01*
X32121426Y-38780147D01*
X31860273Y-38888320D01*
X31625241Y-39045363D01*
X31425363Y-39245241D01*
X31268320Y-39480273D01*
X31160147Y-39741426D01*
X31105000Y-40018665D01*
X30660000Y-40018665D01*
X30660000Y-35414336D01*
X30785794Y-35718029D01*
X31182725Y-36312078D01*
X31687922Y-36817275D01*
X32281971Y-37214206D01*
X32942043Y-37487617D01*
X33642772Y-37627000D01*
X34357228Y-37627000D01*
X35057957Y-37487617D01*
X35718029Y-37214206D01*
X36312078Y-36817275D01*
X36779353Y-36350000D01*
X40156928Y-36350000D01*
X40156928Y-37874000D01*
X40169188Y-37998482D01*
X40205498Y-38118180D01*
X40264463Y-38228494D01*
X40343815Y-38325185D01*
X40440506Y-38404537D01*
X40550820Y-38463502D01*
X40670518Y-38499812D01*
X40795000Y-38512072D01*
X42319000Y-38512072D01*
X42443482Y-38499812D01*
X42563180Y-38463502D01*
X42673494Y-38404537D01*
X42770185Y-38325185D01*
X42849537Y-38228494D01*
X42908502Y-38118180D01*
X42944812Y-37998482D01*
X42957072Y-37874000D01*
X42957072Y-36350000D01*
X42944812Y-36225518D01*
X42908502Y-36105820D01*
X42849537Y-35995506D01*
X42770185Y-35898815D01*
X42673494Y-35819463D01*
X42563180Y-35760498D01*
X42443482Y-35724188D01*
X42319000Y-35711928D01*
X40795000Y-35711928D01*
X40670518Y-35724188D01*
X40550820Y-35760498D01*
X40440506Y-35819463D01*
X40343815Y-35898815D01*
X40264463Y-35995506D01*
X40205498Y-36105820D01*
X40169188Y-36225518D01*
X40156928Y-36350000D01*
X36779353Y-36350000D01*
X36817275Y-36312078D01*
X37214206Y-35718029D01*
X37487617Y-35057957D01*
X37627000Y-34357228D01*
X37627000Y-33642772D01*
X37487617Y-32942043D01*
X37214206Y-32281971D01*
X36817275Y-31687922D01*
X36312078Y-31182725D01*
X35718029Y-30785794D01*
X35414336Y-30660000D01*
X40634964Y-30660000D01*
X40420421Y-30921423D01*
X40420421Y-30921423D01*
G37*
X40420421Y-30921423D02*
X40259314Y-31222833D01*
X40160105Y-31549882D01*
X40135000Y-31804776D01*
X40135000Y-33275225D01*
X40160105Y-33530119D01*
X40259315Y-33857168D01*
X40420422Y-34158578D01*
X40637235Y-34422766D01*
X40901423Y-34639579D01*
X41202833Y-34800686D01*
X41529882Y-34899895D01*
X41870000Y-34933394D01*
X42210119Y-34899895D01*
X42537168Y-34800686D01*
X42838578Y-34639579D01*
X43081000Y-34440629D01*
X43081000Y-35036340D01*
X43076700Y-35080000D01*
X43081000Y-35123660D01*
X43081000Y-35123666D01*
X43087778Y-35192481D01*
X43093864Y-35254274D01*
X43101783Y-35280378D01*
X43144697Y-35421850D01*
X43227247Y-35576290D01*
X43338341Y-35711659D01*
X43372265Y-35739500D01*
X43691497Y-36058731D01*
X43719341Y-36092659D01*
X43854709Y-36203753D01*
X44009149Y-36286303D01*
X44074531Y-36306136D01*
X44176724Y-36337136D01*
X44209924Y-36340406D01*
X44307333Y-36350000D01*
X44307339Y-36350000D01*
X44350999Y-36354300D01*
X44394659Y-36350000D01*
X49300928Y-36350000D01*
X49300928Y-37874000D01*
X49313188Y-37998482D01*
X49349498Y-38118180D01*
X49408463Y-38228494D01*
X49487815Y-38325185D01*
X49584506Y-38404537D01*
X49694820Y-38463502D01*
X49814518Y-38499812D01*
X49939000Y-38512072D01*
X51463000Y-38512072D01*
X51587482Y-38499812D01*
X51707180Y-38463502D01*
X51817494Y-38404537D01*
X51914185Y-38325185D01*
X51993537Y-38228494D01*
X52052502Y-38118180D01*
X52088812Y-37998482D01*
X52101072Y-37874000D01*
X52101072Y-36350000D01*
X53380765Y-36350000D01*
X57788506Y-40757742D01*
X57816341Y-40791659D01*
X57951709Y-40902753D01*
X58106149Y-40985303D01*
X58216533Y-41018787D01*
X58273725Y-41036136D01*
X58448000Y-41053301D01*
X58491668Y-41049000D01*
X58541928Y-41049000D01*
X58541928Y-41460000D01*
X58554188Y-41584482D01*
X58590498Y-41704180D01*
X58649463Y-41814494D01*
X58728815Y-41911185D01*
X58825506Y-41990537D01*
X58935820Y-42049502D01*
X59055518Y-42085812D01*
X59180000Y-42098072D01*
X61780000Y-42098072D01*
X61904482Y-42085812D01*
X62024180Y-42049502D01*
X62134494Y-41990537D01*
X62231185Y-41911185D01*
X62310537Y-41814494D01*
X62369502Y-41704180D01*
X62405812Y-41584482D01*
X62418072Y-41460000D01*
X62418072Y-41049000D01*
X66786340Y-41049000D01*
X66830000Y-41053300D01*
X66873660Y-41049000D01*
X66873667Y-41049000D01*
X67004274Y-41036136D01*
X67171851Y-40985303D01*
X67326291Y-40902753D01*
X67461659Y-40791659D01*
X67489499Y-40757736D01*
X69112643Y-39134592D01*
X79345000Y-39134592D01*
X79345000Y-39485407D01*
X79367210Y-39710912D01*
X79454983Y-40000260D01*
X79597519Y-40266926D01*
X79789339Y-40500661D01*
X80023073Y-40692481D01*
X80289739Y-40835017D01*
X80579087Y-40922790D01*
X80880000Y-40952427D01*
X81180912Y-40922790D01*
X81470260Y-40835017D01*
X81736926Y-40692481D01*
X81970661Y-40500661D01*
X82130000Y-40306505D01*
X82289339Y-40500661D01*
X82523073Y-40692481D01*
X82789739Y-40835017D01*
X83079087Y-40922790D01*
X83380000Y-40952427D01*
X83680912Y-40922790D01*
X83970260Y-40835017D01*
X84236926Y-40692481D01*
X84470661Y-40500661D01*
X84662481Y-40266927D01*
X84805017Y-40000261D01*
X84892790Y-39710913D01*
X84915000Y-39485408D01*
X84915000Y-39134593D01*
X84892790Y-38909088D01*
X84805017Y-38619740D01*
X84662481Y-38353073D01*
X84470661Y-38119339D01*
X84236927Y-37927519D01*
X83970261Y-37784983D01*
X83680913Y-37697210D01*
X83380000Y-37667573D01*
X83079088Y-37697210D01*
X82789740Y-37784983D01*
X82523074Y-37927519D01*
X82289339Y-38119339D01*
X82130000Y-38313495D01*
X81970661Y-38119339D01*
X81736927Y-37927519D01*
X81470261Y-37784983D01*
X81180913Y-37697210D01*
X80880000Y-37667573D01*
X80579088Y-37697210D01*
X80289740Y-37784983D01*
X80023074Y-37927519D01*
X79789339Y-38119339D01*
X79597519Y-38353073D01*
X79454983Y-38619739D01*
X79367210Y-38909087D01*
X79345000Y-39134592D01*
X69112643Y-39134592D01*
X72507742Y-35739494D01*
X72541659Y-35711659D01*
X72652753Y-35576291D01*
X72735303Y-35421851D01*
X72786136Y-35254274D01*
X72799000Y-35123667D01*
X72799000Y-35123660D01*
X72803300Y-35080000D01*
X72799000Y-35036340D01*
X72799000Y-33634592D01*
X84345000Y-33634592D01*
X84345000Y-33985407D01*
X84367210Y-34210912D01*
X84454983Y-34500260D01*
X84597519Y-34766926D01*
X84789339Y-35000661D01*
X85023073Y-35192481D01*
X85289739Y-35335017D01*
X85579087Y-35422790D01*
X85880000Y-35452427D01*
X86180912Y-35422790D01*
X86470260Y-35335017D01*
X86736926Y-35192481D01*
X86970661Y-35000661D01*
X87162481Y-34766927D01*
X87280248Y-34546600D01*
X89384891Y-34546600D01*
X92743400Y-37905110D01*
X92743401Y-44712023D01*
X92589465Y-44814880D01*
X92394880Y-45009465D01*
X92241995Y-45238273D01*
X92220000Y-45291373D01*
X92198005Y-45238273D01*
X92045120Y-45009465D01*
X91850535Y-44814880D01*
X91621727Y-44661995D01*
X91616600Y-44659871D01*
X91616600Y-40756797D01*
X91736926Y-40692481D01*
X91970661Y-40500661D01*
X92162481Y-40266927D01*
X92305017Y-40000261D01*
X92392790Y-39710913D01*
X92415000Y-39485408D01*
X92415000Y-39134593D01*
X92392790Y-38909088D01*
X92305017Y-38619740D01*
X92162481Y-38353073D01*
X91970661Y-38119339D01*
X91736927Y-37927519D01*
X91470261Y-37784983D01*
X91180913Y-37697210D01*
X90880000Y-37667573D01*
X90579088Y-37697210D01*
X90289740Y-37784983D01*
X90023074Y-37927519D01*
X89789339Y-38119339D01*
X89630000Y-38313495D01*
X89470661Y-38119339D01*
X89236927Y-37927519D01*
X88970261Y-37784983D01*
X88680913Y-37697210D01*
X88380000Y-37667573D01*
X88079088Y-37697210D01*
X87789740Y-37784983D01*
X87523074Y-37927519D01*
X87289339Y-38119339D01*
X87097519Y-38353073D01*
X86954983Y-38619739D01*
X86867210Y-38909087D01*
X86845000Y-39134592D01*
X86845000Y-39485407D01*
X86867210Y-39710912D01*
X86954983Y-40000260D01*
X87097519Y-40266926D01*
X87289339Y-40500661D01*
X87523073Y-40692481D01*
X87789739Y-40835017D01*
X88079087Y-40922790D01*
X88380000Y-40952427D01*
X88680912Y-40922790D01*
X88970260Y-40835017D01*
X89236926Y-40692481D01*
X89470661Y-40500661D01*
X89630000Y-40306505D01*
X89789339Y-40500661D01*
X90023073Y-40692481D01*
X90143400Y-40756797D01*
X90143401Y-44765478D01*
X90069465Y-44814880D01*
X89874880Y-45009465D01*
X89721995Y-45238273D01*
X89616686Y-45492510D01*
X89563000Y-45762408D01*
X89563000Y-46037592D01*
X89616686Y-46307490D01*
X89721995Y-46561727D01*
X89874880Y-46790535D01*
X90069465Y-46985120D01*
X90298273Y-47138005D01*
X90552510Y-47243314D01*
X90822408Y-47297000D01*
X91097592Y-47297000D01*
X91367490Y-47243314D01*
X91621727Y-47138005D01*
X91850535Y-46985120D01*
X92045120Y-46790535D01*
X92198005Y-46561727D01*
X92220000Y-46508627D01*
X92241995Y-46561727D01*
X92394880Y-46790535D01*
X92589465Y-46985120D01*
X92818273Y-47138005D01*
X93072510Y-47243314D01*
X93342408Y-47297000D01*
X93617592Y-47297000D01*
X93887490Y-47243314D01*
X94141727Y-47138005D01*
X94370535Y-46985120D01*
X94565120Y-46790535D01*
X94718005Y-46561727D01*
X94823314Y-46307490D01*
X94877000Y-46037592D01*
X94877000Y-45762408D01*
X94823314Y-45492510D01*
X94718005Y-45238273D01*
X94565120Y-45009465D01*
X94370535Y-44814880D01*
X94216600Y-44712024D01*
X94216600Y-37795195D01*
X94225942Y-37764399D01*
X94240164Y-37620000D01*
X94225942Y-37475601D01*
X94183822Y-37336752D01*
X94115424Y-37208787D01*
X94046442Y-37124732D01*
X94046431Y-37124721D01*
X94023374Y-37096626D01*
X93995279Y-37073569D01*
X91098330Y-34176620D01*
X108499224Y-34176620D01*
X108580268Y-34466235D01*
X108716256Y-34734474D01*
X108901962Y-34971029D01*
X109130249Y-35166809D01*
X109392344Y-35314291D01*
X109645260Y-35401036D01*
X109883000Y-35280378D01*
X109883000Y-33937000D01*
X110137000Y-33937000D01*
X110137000Y-35280378D01*
X110374740Y-35401036D01*
X110627656Y-35314291D01*
X110889751Y-35166809D01*
X111118038Y-34971029D01*
X111303744Y-34734474D01*
X111439732Y-34466235D01*
X111520776Y-34176620D01*
X111385134Y-33937000D01*
X110137000Y-33937000D01*
X109883000Y-33937000D01*
X108634866Y-33937000D01*
X108499224Y-34176620D01*
X91098330Y-34176620D01*
X90365090Y-33443380D01*
X108499224Y-33443380D01*
X108634866Y-33683000D01*
X109883000Y-33683000D01*
X109883000Y-32339622D01*
X110137000Y-32339622D01*
X110137000Y-33683000D01*
X111385134Y-33683000D01*
X111520776Y-33443380D01*
X111439732Y-33153765D01*
X111303744Y-32885526D01*
X111118038Y-32648971D01*
X110889751Y-32453191D01*
X110627656Y-32305709D01*
X110374740Y-32218964D01*
X110137000Y-32339622D01*
X109883000Y-32339622D01*
X109645260Y-32218964D01*
X109392344Y-32305709D01*
X109130249Y-32453191D01*
X108901962Y-32648971D01*
X108716256Y-32885526D01*
X108580268Y-33153765D01*
X108499224Y-33443380D01*
X90365090Y-33443380D01*
X90236446Y-33314737D01*
X90213375Y-33286625D01*
X90101213Y-33194576D01*
X89973249Y-33126178D01*
X89834399Y-33084058D01*
X89726186Y-33073400D01*
X89726183Y-33073400D01*
X89690000Y-33069836D01*
X89653817Y-33073400D01*
X87280248Y-33073400D01*
X87162481Y-32853073D01*
X86970661Y-32619339D01*
X86736927Y-32427519D01*
X86470261Y-32284983D01*
X86180913Y-32197210D01*
X85880000Y-32167573D01*
X85579088Y-32197210D01*
X85289740Y-32284983D01*
X85023074Y-32427519D01*
X84789339Y-32619339D01*
X84597519Y-32853073D01*
X84454983Y-33119739D01*
X84367210Y-33409087D01*
X84345000Y-33634592D01*
X72799000Y-33634592D01*
X72799000Y-33389231D01*
X72884482Y-33380812D01*
X73004180Y-33344502D01*
X73114494Y-33285537D01*
X73211185Y-33206185D01*
X73290537Y-33109494D01*
X73349502Y-32999180D01*
X73385812Y-32879482D01*
X73398072Y-32755000D01*
X73398072Y-31055000D01*
X73385812Y-30930518D01*
X73349502Y-30810820D01*
X73290537Y-30700506D01*
X73257295Y-30660000D01*
X124585664Y-30660000D01*
X124281971Y-30785794D01*
X123687922Y-31182725D01*
X123182725Y-31687922D01*
X122785794Y-32281971D01*
X122512383Y-32942043D01*
X122373000Y-33642772D01*
X122373000Y-34357228D01*
X122512383Y-35057957D01*
X122785794Y-35718029D01*
X123182725Y-36312078D01*
X123687922Y-36817275D01*
X124281971Y-37214206D01*
X124942043Y-37487617D01*
X125642772Y-37627000D01*
X126357228Y-37627000D01*
X127057957Y-37487617D01*
X127718029Y-37214206D01*
X128312078Y-36817275D01*
X128817275Y-36312078D01*
X129214206Y-35718029D01*
X129340000Y-35414336D01*
X129340001Y-122585667D01*
X129214206Y-122281971D01*
X128817275Y-121687922D01*
X128312078Y-121182725D01*
X127718029Y-120785794D01*
X127057957Y-120512383D01*
X126357228Y-120373000D01*
X125642772Y-120373000D01*
X124942043Y-120512383D01*
X124281971Y-120785794D01*
X123687922Y-121182725D01*
X123182725Y-121687922D01*
X122785794Y-122281971D01*
X122512383Y-122942043D01*
X122373000Y-123642772D01*
X122373000Y-124357228D01*
X122512383Y-125057957D01*
X122785794Y-125718029D01*
X123182725Y-126312078D01*
X123687922Y-126817275D01*
X124281971Y-127214206D01*
X124585664Y-127340000D01*
X35414336Y-127340000D01*
X35718029Y-127214206D01*
X36312078Y-126817275D01*
X36817275Y-126312078D01*
X37214206Y-125718029D01*
X37487617Y-125057957D01*
X37627000Y-124357228D01*
X37627000Y-123642772D01*
X37487617Y-122942043D01*
X37214206Y-122281971D01*
X36817275Y-121687922D01*
X36312078Y-121182725D01*
X35718029Y-120785794D01*
X35057957Y-120512383D01*
X34357228Y-120373000D01*
X33642772Y-120373000D01*
X32942043Y-120512383D01*
X32281971Y-120785794D01*
X31687922Y-121182725D01*
X31182725Y-121687922D01*
X30785794Y-122281971D01*
X30660000Y-122585664D01*
X30660000Y-116071113D01*
X30777990Y-116189103D01*
X31009746Y-116343957D01*
X31267260Y-116450623D01*
X31540635Y-116505000D01*
X31819365Y-116505000D01*
X32092740Y-116450623D01*
X32350254Y-116343957D01*
X32582010Y-116189103D01*
X32779103Y-115992010D01*
X32933957Y-115760254D01*
X32950000Y-115721523D01*
X32966043Y-115760254D01*
X33120897Y-115992010D01*
X33317990Y-116189103D01*
X33549746Y-116343957D01*
X33807260Y-116450623D01*
X34080635Y-116505000D01*
X34359365Y-116505000D01*
X34632740Y-116450623D01*
X34890254Y-116343957D01*
X35122010Y-116189103D01*
X35319103Y-115992010D01*
X35473957Y-115760254D01*
X35490000Y-115721523D01*
X35506043Y-115760254D01*
X35660897Y-115992010D01*
X35857990Y-116189103D01*
X36089746Y-116343957D01*
X36347260Y-116450623D01*
X36620635Y-116505000D01*
X36899365Y-116505000D01*
X37172740Y-116450623D01*
X37430254Y-116343957D01*
X37662010Y-116189103D01*
X37859103Y-115992010D01*
X38013957Y-115760254D01*
X38030000Y-115721523D01*
X38046043Y-115760254D01*
X38200897Y-115992010D01*
X38397990Y-116189103D01*
X38629746Y-116343957D01*
X38887260Y-116450623D01*
X39160635Y-116505000D01*
X39439365Y-116505000D01*
X39712740Y-116450623D01*
X39970254Y-116343957D01*
X40202010Y-116189103D01*
X40399103Y-115992010D01*
X40553957Y-115760254D01*
X40570000Y-115721523D01*
X40586043Y-115760254D01*
X40740897Y-115992010D01*
X40937990Y-116189103D01*
X41169746Y-116343957D01*
X41427260Y-116450623D01*
X41700635Y-116505000D01*
X41979365Y-116505000D01*
X42252740Y-116450623D01*
X42510254Y-116343957D01*
X42742010Y-116189103D01*
X42862692Y-116068421D01*
X43581184Y-116068421D01*
X43650345Y-116310349D01*
X43902443Y-116429248D01*
X44172894Y-116496681D01*
X44451303Y-116510057D01*
X44726972Y-116468860D01*
X44989308Y-116374675D01*
X45109655Y-116310349D01*
X45178816Y-116068421D01*
X44380000Y-115269605D01*
X43581184Y-116068421D01*
X42862692Y-116068421D01*
X42939103Y-115992010D01*
X43093957Y-115760254D01*
X43108777Y-115724475D01*
X43159651Y-115819655D01*
X43401579Y-115888816D01*
X44200395Y-115090000D01*
X43401579Y-114291184D01*
X43159651Y-114360345D01*
X43111575Y-114462279D01*
X43093957Y-114419746D01*
X42939103Y-114187990D01*
X42742010Y-113990897D01*
X42510254Y-113836043D01*
X42471523Y-113820000D01*
X42510254Y-113803957D01*
X42742010Y-113649103D01*
X42862692Y-113528421D01*
X43581184Y-113528421D01*
X43650345Y-113770349D01*
X43749041Y-113816898D01*
X43650345Y-113869651D01*
X43581184Y-114111579D01*
X44380000Y-114910395D01*
X45178816Y-114111579D01*
X45109655Y-113869651D01*
X45010959Y-113823102D01*
X45109655Y-113770349D01*
X45178816Y-113528421D01*
X44380000Y-112729605D01*
X43581184Y-113528421D01*
X42862692Y-113528421D01*
X42939103Y-113452010D01*
X43093957Y-113220254D01*
X43108777Y-113184475D01*
X43159651Y-113279655D01*
X43401579Y-113348816D01*
X44200395Y-112550000D01*
X44559605Y-112550000D01*
X45358421Y-113348816D01*
X45600349Y-113279655D01*
X45648425Y-113177721D01*
X45666043Y-113220254D01*
X45820897Y-113452010D01*
X46017990Y-113649103D01*
X46249746Y-113803957D01*
X46288477Y-113820000D01*
X46249746Y-113836043D01*
X46017990Y-113990897D01*
X45820897Y-114187990D01*
X45666043Y-114419746D01*
X45651223Y-114455525D01*
X45600349Y-114360345D01*
X45358421Y-114291184D01*
X44559605Y-115090000D01*
X45358421Y-115888816D01*
X45600349Y-115819655D01*
X45648425Y-115717721D01*
X45666043Y-115760254D01*
X45820897Y-115992010D01*
X46017990Y-116189103D01*
X46249746Y-116343957D01*
X46507260Y-116450623D01*
X46780635Y-116505000D01*
X47059365Y-116505000D01*
X47332740Y-116450623D01*
X47590254Y-116343957D01*
X47822010Y-116189103D01*
X48019103Y-115992010D01*
X48173957Y-115760254D01*
X48190000Y-115721523D01*
X48206043Y-115760254D01*
X48360897Y-115992010D01*
X48557990Y-116189103D01*
X48789746Y-116343957D01*
X49047260Y-116450623D01*
X49320635Y-116505000D01*
X49599365Y-116505000D01*
X49872740Y-116450623D01*
X50130254Y-116343957D01*
X50362010Y-116189103D01*
X50559103Y-115992010D01*
X50713957Y-115760254D01*
X50730000Y-115721523D01*
X50746043Y-115760254D01*
X50900897Y-115992010D01*
X51097990Y-116189103D01*
X51329746Y-116343957D01*
X51587260Y-116450623D01*
X51860635Y-116505000D01*
X52139365Y-116505000D01*
X52412740Y-116450623D01*
X52670254Y-116343957D01*
X52902010Y-116189103D01*
X53099103Y-115992010D01*
X53253957Y-115760254D01*
X53270000Y-115721523D01*
X53286043Y-115760254D01*
X53440897Y-115992010D01*
X53637990Y-116189103D01*
X53869746Y-116343957D01*
X54127260Y-116450623D01*
X54400635Y-116505000D01*
X54679365Y-116505000D01*
X54952740Y-116450623D01*
X55210254Y-116343957D01*
X55442010Y-116189103D01*
X55639103Y-115992010D01*
X55793957Y-115760254D01*
X55810000Y-115721523D01*
X55826043Y-115760254D01*
X55980897Y-115992010D01*
X56177990Y-116189103D01*
X56409746Y-116343957D01*
X56667260Y-116450623D01*
X56940635Y-116505000D01*
X57219365Y-116505000D01*
X57492740Y-116450623D01*
X57750254Y-116343957D01*
X57798599Y-116311654D01*
X57798600Y-121999006D01*
X57795035Y-122035199D01*
X57809258Y-122179597D01*
X57845414Y-122298786D01*
X57851378Y-122318448D01*
X57919776Y-122446412D01*
X58011825Y-122558574D01*
X58039931Y-122581640D01*
X59933559Y-124475269D01*
X59956625Y-124503375D01*
X59984731Y-124526441D01*
X59984732Y-124526442D01*
X60068787Y-124595424D01*
X60196751Y-124663822D01*
X60335598Y-124705941D01*
X60335601Y-124705942D01*
X60480000Y-124720164D01*
X60516186Y-124716600D01*
X117593817Y-124716600D01*
X117630000Y-124720164D01*
X117666183Y-124716600D01*
X117666186Y-124716600D01*
X117774399Y-124705942D01*
X117913249Y-124663822D01*
X118041213Y-124595424D01*
X118153375Y-124503375D01*
X118176446Y-124475263D01*
X128285274Y-114366436D01*
X128313374Y-114343375D01*
X128336437Y-114315273D01*
X128336442Y-114315268D01*
X128405424Y-114231213D01*
X128428527Y-114187990D01*
X128473822Y-114103249D01*
X128515942Y-113964399D01*
X128526600Y-113856186D01*
X128526600Y-113856185D01*
X128530164Y-113820000D01*
X128526600Y-113783814D01*
X128526600Y-47816175D01*
X128530163Y-47779999D01*
X128526600Y-47743823D01*
X128526600Y-47743814D01*
X128515942Y-47635601D01*
X128473822Y-47496751D01*
X128405424Y-47368787D01*
X128346510Y-47297000D01*
X128336442Y-47284732D01*
X128336441Y-47284731D01*
X128313375Y-47256625D01*
X128285269Y-47233559D01*
X121986446Y-40934737D01*
X121963375Y-40906625D01*
X121851213Y-40814576D01*
X121723249Y-40746178D01*
X121584399Y-40704058D01*
X121476186Y-40693400D01*
X121476183Y-40693400D01*
X121440000Y-40689836D01*
X121403817Y-40693400D01*
X116231910Y-40693400D01*
X116066888Y-40528378D01*
X116100661Y-40500661D01*
X116292481Y-40266927D01*
X116435017Y-40000261D01*
X116522790Y-39710913D01*
X116545000Y-39485408D01*
X116545000Y-39134593D01*
X116522790Y-38909088D01*
X116435017Y-38619740D01*
X116292481Y-38353073D01*
X116100661Y-38119339D01*
X115866927Y-37927519D01*
X115600261Y-37784983D01*
X115310913Y-37697210D01*
X115010000Y-37667573D01*
X114709088Y-37697210D01*
X114419740Y-37784983D01*
X114153074Y-37927519D01*
X113919339Y-38119339D01*
X113760000Y-38313495D01*
X113600661Y-38119339D01*
X113366927Y-37927519D01*
X113100261Y-37784983D01*
X112810913Y-37697210D01*
X112510000Y-37667573D01*
X112209088Y-37697210D01*
X111919740Y-37784983D01*
X111653074Y-37927519D01*
X111419339Y-38119339D01*
X111227519Y-38353073D01*
X111084983Y-38619739D01*
X110997210Y-38909087D01*
X110975000Y-39134592D01*
X110975000Y-39485407D01*
X110997210Y-39710912D01*
X111084983Y-40000260D01*
X111227519Y-40266926D01*
X111419339Y-40500661D01*
X111653073Y-40692481D01*
X111919739Y-40835017D01*
X112209087Y-40922790D01*
X112510000Y-40952427D01*
X112810912Y-40922790D01*
X113100260Y-40835017D01*
X113366926Y-40692481D01*
X113600661Y-40500661D01*
X113760000Y-40306505D01*
X113919339Y-40500661D01*
X114153073Y-40692481D01*
X114322036Y-40782794D01*
X114326178Y-40796448D01*
X114394576Y-40924412D01*
X114486625Y-41036574D01*
X114514732Y-41059641D01*
X115380357Y-41925267D01*
X115403425Y-41953375D01*
X115415640Y-41963400D01*
X107501910Y-41963400D01*
X106066887Y-40528378D01*
X106100661Y-40500661D01*
X106260000Y-40306505D01*
X106419339Y-40500661D01*
X106653073Y-40692481D01*
X106919739Y-40835017D01*
X107209087Y-40922790D01*
X107510000Y-40952427D01*
X107810912Y-40922790D01*
X108100260Y-40835017D01*
X108366926Y-40692481D01*
X108600661Y-40500661D01*
X108792481Y-40266927D01*
X108935017Y-40000261D01*
X109022790Y-39710913D01*
X109045000Y-39485408D01*
X109045000Y-39134593D01*
X109022790Y-38909088D01*
X108935017Y-38619740D01*
X108792481Y-38353073D01*
X108600661Y-38119339D01*
X108366927Y-37927519D01*
X108100261Y-37784983D01*
X107810913Y-37697210D01*
X107510000Y-37667573D01*
X107209088Y-37697210D01*
X106919740Y-37784983D01*
X106653074Y-37927519D01*
X106419339Y-38119339D01*
X106260000Y-38313495D01*
X106100661Y-38119339D01*
X105866927Y-37927519D01*
X105600261Y-37784983D01*
X105310913Y-37697210D01*
X105010000Y-37667573D01*
X104709088Y-37697210D01*
X104419740Y-37784983D01*
X104153074Y-37927519D01*
X103919339Y-38119339D01*
X103727519Y-38353073D01*
X103584983Y-38619739D01*
X103497210Y-38909087D01*
X103475000Y-39134592D01*
X103475000Y-39485407D01*
X103497210Y-39710912D01*
X103584983Y-40000260D01*
X103727519Y-40266926D01*
X103919339Y-40500661D01*
X104153073Y-40692481D01*
X104322036Y-40782794D01*
X104326178Y-40796447D01*
X104394576Y-40924412D01*
X104417568Y-40952427D01*
X104486626Y-41036575D01*
X104514732Y-41059641D01*
X106650357Y-43195267D01*
X106673425Y-43223375D01*
X106785587Y-43315424D01*
X106913551Y-43383822D01*
X107052401Y-43425942D01*
X107160614Y-43436600D01*
X107160623Y-43436600D01*
X107196799Y-43440163D01*
X107232975Y-43436600D01*
X121134891Y-43436600D01*
X125783400Y-48085110D01*
X125783401Y-113514889D01*
X117324891Y-121973400D01*
X63325109Y-121973400D01*
X61521709Y-120170000D01*
X66023057Y-120170000D01*
X66050764Y-120451309D01*
X66132818Y-120721808D01*
X66266068Y-120971101D01*
X66445392Y-121189608D01*
X66663899Y-121368932D01*
X66913192Y-121502182D01*
X67183691Y-121584236D01*
X67394508Y-121605000D01*
X67535492Y-121605000D01*
X67746309Y-121584236D01*
X68016808Y-121502182D01*
X68266101Y-121368932D01*
X68484608Y-121189608D01*
X68663932Y-120971101D01*
X68797182Y-120721808D01*
X68879236Y-120451309D01*
X68906943Y-120170000D01*
X68893023Y-120028665D01*
X76190000Y-120028665D01*
X76190000Y-120311335D01*
X76245147Y-120588574D01*
X76353320Y-120849727D01*
X76510363Y-121084759D01*
X76710241Y-121284637D01*
X76945273Y-121441680D01*
X77206426Y-121549853D01*
X77483665Y-121605000D01*
X77766335Y-121605000D01*
X78043574Y-121549853D01*
X78304727Y-121441680D01*
X78539759Y-121284637D01*
X78739637Y-121084759D01*
X78858679Y-120906600D01*
X94098814Y-120906600D01*
X94135000Y-120910164D01*
X94171186Y-120906600D01*
X94279399Y-120895942D01*
X94418249Y-120853822D01*
X94546213Y-120785424D01*
X94658375Y-120693375D01*
X94750424Y-120581213D01*
X94818822Y-120453249D01*
X94821157Y-120445552D01*
X96495269Y-118771441D01*
X96523375Y-118748375D01*
X96615424Y-118636213D01*
X96683822Y-118508249D01*
X96725942Y-118369399D01*
X96736600Y-118261186D01*
X96736600Y-118261177D01*
X96740163Y-118225001D01*
X96736600Y-118188825D01*
X96736600Y-116223948D01*
X96978505Y-116062312D01*
X97192312Y-115848505D01*
X97360299Y-115597095D01*
X97476011Y-115317743D01*
X97535000Y-115021184D01*
X97535000Y-114718816D01*
X97476011Y-114422257D01*
X97360299Y-114142905D01*
X97192312Y-113891495D01*
X96978505Y-113677688D01*
X96727095Y-113509701D01*
X96447743Y-113393989D01*
X96151184Y-113335000D01*
X95848816Y-113335000D01*
X95552257Y-113393989D01*
X95272905Y-113509701D01*
X95021495Y-113677688D01*
X94807688Y-113891495D01*
X94750000Y-113977831D01*
X94692312Y-113891495D01*
X94478505Y-113677688D01*
X94227095Y-113509701D01*
X93947743Y-113393989D01*
X93651184Y-113335000D01*
X93348816Y-113335000D01*
X93052257Y-113393989D01*
X92772905Y-113509701D01*
X92521495Y-113677688D01*
X92307688Y-113891495D01*
X92212262Y-114034310D01*
X92064080Y-113985525D01*
X91179605Y-114870000D01*
X92064080Y-115754475D01*
X92212262Y-115705690D01*
X92307688Y-115848505D01*
X92521495Y-116062312D01*
X92772905Y-116230299D01*
X93052257Y-116346011D01*
X93348816Y-116405000D01*
X93651184Y-116405000D01*
X93947743Y-116346011D01*
X94227095Y-116230299D01*
X94478505Y-116062312D01*
X94692312Y-115848505D01*
X94750000Y-115762169D01*
X94807688Y-115848505D01*
X95021495Y-116062312D01*
X95263400Y-116223948D01*
X95263401Y-117919889D01*
X93749891Y-119433400D01*
X78858679Y-119433400D01*
X78739637Y-119255241D01*
X78539759Y-119055363D01*
X78304727Y-118898320D01*
X78043574Y-118790147D01*
X77766335Y-118735000D01*
X77483665Y-118735000D01*
X77206426Y-118790147D01*
X76945273Y-118898320D01*
X76710241Y-119055363D01*
X76510363Y-119255241D01*
X76353320Y-119490273D01*
X76245147Y-119751426D01*
X76190000Y-120028665D01*
X68893023Y-120028665D01*
X68879236Y-119888691D01*
X68797182Y-119618192D01*
X68663932Y-119368899D01*
X68484608Y-119150392D01*
X68266101Y-118971068D01*
X68016808Y-118837818D01*
X67746309Y-118755764D01*
X67535492Y-118735000D01*
X67394508Y-118735000D01*
X67183691Y-118755764D01*
X66913192Y-118837818D01*
X66663899Y-118971068D01*
X66445392Y-119150392D01*
X66266068Y-119368899D01*
X66132818Y-119618192D01*
X66050764Y-119888691D01*
X66023057Y-120170000D01*
X61521709Y-120170000D01*
X61216600Y-119864891D01*
X61216600Y-116147713D01*
X61257990Y-116189103D01*
X61489746Y-116343957D01*
X61747260Y-116450623D01*
X62020635Y-116505000D01*
X62299365Y-116505000D01*
X62572740Y-116450623D01*
X62830254Y-116343957D01*
X63062010Y-116189103D01*
X63259103Y-115992010D01*
X63413957Y-115760254D01*
X63430000Y-115721523D01*
X63446043Y-115760254D01*
X63600897Y-115992010D01*
X63797990Y-116189103D01*
X64029746Y-116343957D01*
X64287260Y-116450623D01*
X64560635Y-116505000D01*
X64839365Y-116505000D01*
X65112740Y-116450623D01*
X65370254Y-116343957D01*
X65602010Y-116189103D01*
X65799103Y-115992010D01*
X65953957Y-115760254D01*
X65970000Y-115721523D01*
X65986043Y-115760254D01*
X66140897Y-115992010D01*
X66337990Y-116189103D01*
X66569746Y-116343957D01*
X66827260Y-116450623D01*
X67100635Y-116505000D01*
X67379365Y-116505000D01*
X67652740Y-116450623D01*
X67910254Y-116343957D01*
X68142010Y-116189103D01*
X68339103Y-115992010D01*
X68493957Y-115760254D01*
X68510000Y-115721523D01*
X68526043Y-115760254D01*
X68680897Y-115992010D01*
X68877990Y-116189103D01*
X69109746Y-116343957D01*
X69367260Y-116450623D01*
X69640635Y-116505000D01*
X69919365Y-116505000D01*
X70192740Y-116450623D01*
X70450254Y-116343957D01*
X70682010Y-116189103D01*
X70879103Y-115992010D01*
X71033957Y-115760254D01*
X71050000Y-115721523D01*
X71066043Y-115760254D01*
X71220897Y-115992010D01*
X71417990Y-116189103D01*
X71649746Y-116343957D01*
X71907260Y-116450623D01*
X72180635Y-116505000D01*
X72459365Y-116505000D01*
X72732740Y-116450623D01*
X72990254Y-116343957D01*
X73222010Y-116189103D01*
X73419103Y-115992010D01*
X73573957Y-115760254D01*
X73590000Y-115721523D01*
X73606043Y-115760254D01*
X73760897Y-115992010D01*
X73957990Y-116189103D01*
X74189746Y-116343957D01*
X74447260Y-116450623D01*
X74720635Y-116505000D01*
X74999365Y-116505000D01*
X75272740Y-116450623D01*
X75530254Y-116343957D01*
X75762010Y-116189103D01*
X75959103Y-115992010D01*
X75989469Y-115946564D01*
X75994188Y-115994482D01*
X76030498Y-116114180D01*
X76089463Y-116224494D01*
X76168815Y-116321185D01*
X76265506Y-116400537D01*
X76375820Y-116459502D01*
X76495518Y-116495812D01*
X76620000Y-116508072D01*
X78180000Y-116508072D01*
X78304482Y-116495812D01*
X78424180Y-116459502D01*
X78534494Y-116400537D01*
X78631185Y-116321185D01*
X78710537Y-116224494D01*
X78769502Y-116114180D01*
X78805812Y-115994482D01*
X78811760Y-115934080D01*
X90115525Y-115934080D01*
X90199208Y-116188261D01*
X90471775Y-116319158D01*
X90764642Y-116394365D01*
X91066553Y-116410991D01*
X91365907Y-116368397D01*
X91651199Y-116268222D01*
X91800792Y-116188261D01*
X91884475Y-115934080D01*
X91000000Y-115049605D01*
X90115525Y-115934080D01*
X78811760Y-115934080D01*
X78818072Y-115870000D01*
X78818072Y-114936553D01*
X89459009Y-114936553D01*
X89501603Y-115235907D01*
X89601778Y-115521199D01*
X89681739Y-115670792D01*
X89935920Y-115754475D01*
X90820395Y-114870000D01*
X89935920Y-113985525D01*
X89681739Y-114069208D01*
X89550842Y-114341775D01*
X89475635Y-114634642D01*
X89459009Y-114936553D01*
X78818072Y-114936553D01*
X78818072Y-114310000D01*
X78805812Y-114185518D01*
X78769502Y-114065820D01*
X78710537Y-113955506D01*
X78631185Y-113858815D01*
X78583889Y-113820000D01*
X78601045Y-113805920D01*
X90115525Y-113805920D01*
X91000000Y-114690395D01*
X91884475Y-113805920D01*
X91800792Y-113551739D01*
X91528225Y-113420842D01*
X91235358Y-113345635D01*
X90933447Y-113329009D01*
X90634093Y-113371603D01*
X90348801Y-113471778D01*
X90199208Y-113551739D01*
X90115525Y-113805920D01*
X78601045Y-113805920D01*
X78631185Y-113781185D01*
X78710537Y-113684494D01*
X78769502Y-113574180D01*
X78805812Y-113454482D01*
X78818072Y-113330000D01*
X78818072Y-111770000D01*
X78805812Y-111645518D01*
X78769502Y-111525820D01*
X78710537Y-111415506D01*
X78631185Y-111318815D01*
X78534494Y-111239463D01*
X78424180Y-111180498D01*
X78304482Y-111144188D01*
X78180000Y-111131928D01*
X76620000Y-111131928D01*
X76495518Y-111144188D01*
X76375820Y-111180498D01*
X76265506Y-111239463D01*
X76168815Y-111318815D01*
X76089463Y-111415506D01*
X76030498Y-111525820D01*
X75994188Y-111645518D01*
X75989469Y-111693436D01*
X75959103Y-111647990D01*
X75762010Y-111450897D01*
X75530254Y-111296043D01*
X75272740Y-111189377D01*
X74999365Y-111135000D01*
X74720635Y-111135000D01*
X74447260Y-111189377D01*
X74189746Y-111296043D01*
X73957990Y-111450897D01*
X73760897Y-111647990D01*
X73606043Y-111879746D01*
X73590000Y-111918477D01*
X73573957Y-111879746D01*
X73419103Y-111647990D01*
X73222010Y-111450897D01*
X72990254Y-111296043D01*
X72732740Y-111189377D01*
X72459365Y-111135000D01*
X72180635Y-111135000D01*
X71907260Y-111189377D01*
X71649746Y-111296043D01*
X71417990Y-111450897D01*
X71220897Y-111647990D01*
X71066043Y-111879746D01*
X71050000Y-111918477D01*
X71033957Y-111879746D01*
X70879103Y-111647990D01*
X70682010Y-111450897D01*
X70450254Y-111296043D01*
X70192740Y-111189377D01*
X69919365Y-111135000D01*
X69640635Y-111135000D01*
X69367260Y-111189377D01*
X69109746Y-111296043D01*
X68877990Y-111450897D01*
X68680897Y-111647990D01*
X68526043Y-111879746D01*
X68510000Y-111918477D01*
X68493957Y-111879746D01*
X68339103Y-111647990D01*
X68142010Y-111450897D01*
X67910254Y-111296043D01*
X67652740Y-111189377D01*
X67379365Y-111135000D01*
X67100635Y-111135000D01*
X66827260Y-111189377D01*
X66569746Y-111296043D01*
X66337990Y-111450897D01*
X66140897Y-111647990D01*
X65986043Y-111879746D01*
X65970000Y-111918477D01*
X65953957Y-111879746D01*
X65799103Y-111647990D01*
X65602010Y-111450897D01*
X65370254Y-111296043D01*
X65112740Y-111189377D01*
X64839365Y-111135000D01*
X64560635Y-111135000D01*
X64287260Y-111189377D01*
X64029746Y-111296043D01*
X63797990Y-111450897D01*
X63600897Y-111647990D01*
X63446043Y-111879746D01*
X63430000Y-111918477D01*
X63413957Y-111879746D01*
X63259103Y-111647990D01*
X63062010Y-111450897D01*
X62830254Y-111296043D01*
X62572740Y-111189377D01*
X62299365Y-111135000D01*
X62020635Y-111135000D01*
X61825520Y-111173810D01*
X61621644Y-110969935D01*
X61598574Y-110941824D01*
X61486412Y-110849775D01*
X61358448Y-110781377D01*
X61219598Y-110739257D01*
X61111385Y-110728599D01*
X61111382Y-110728599D01*
X61075199Y-110725035D01*
X61039016Y-110728599D01*
X59135470Y-110728599D01*
X59099294Y-110725036D01*
X59063118Y-110728599D01*
X59063109Y-110728599D01*
X58954896Y-110739257D01*
X58816046Y-110781377D01*
X58688082Y-110849775D01*
X58575920Y-110941824D01*
X58552854Y-110969930D01*
X58039931Y-111482854D01*
X58025670Y-111494557D01*
X57982010Y-111450897D01*
X57750254Y-111296043D01*
X57492740Y-111189377D01*
X57219365Y-111135000D01*
X56940635Y-111135000D01*
X56667260Y-111189377D01*
X56409746Y-111296043D01*
X56177990Y-111450897D01*
X55980897Y-111647990D01*
X55826043Y-111879746D01*
X55810000Y-111918477D01*
X55793957Y-111879746D01*
X55639103Y-111647990D01*
X55442010Y-111450897D01*
X55210254Y-111296043D01*
X54952740Y-111189377D01*
X54679365Y-111135000D01*
X54400635Y-111135000D01*
X54127260Y-111189377D01*
X53869746Y-111296043D01*
X53637990Y-111450897D01*
X53440897Y-111647990D01*
X53286043Y-111879746D01*
X53270000Y-111918477D01*
X53253957Y-111879746D01*
X53099103Y-111647990D01*
X52902010Y-111450897D01*
X52670254Y-111296043D01*
X52412740Y-111189377D01*
X52139365Y-111135000D01*
X51860635Y-111135000D01*
X51587260Y-111189377D01*
X51329746Y-111296043D01*
X51097990Y-111450897D01*
X50900897Y-111647990D01*
X50746043Y-111879746D01*
X50730000Y-111918477D01*
X50713957Y-111879746D01*
X50559103Y-111647990D01*
X50362010Y-111450897D01*
X50130254Y-111296043D01*
X49872740Y-111189377D01*
X49599365Y-111135000D01*
X49320635Y-111135000D01*
X49047260Y-111189377D01*
X48789746Y-111296043D01*
X48557990Y-111450897D01*
X48360897Y-111647990D01*
X48206043Y-111879746D01*
X48190000Y-111918477D01*
X48173957Y-111879746D01*
X48019103Y-111647990D01*
X47822010Y-111450897D01*
X47590254Y-111296043D01*
X47332740Y-111189377D01*
X47059365Y-111135000D01*
X46780635Y-111135000D01*
X46507260Y-111189377D01*
X46249746Y-111296043D01*
X46017990Y-111450897D01*
X45820897Y-111647990D01*
X45666043Y-111879746D01*
X45651223Y-111915525D01*
X45600349Y-111820345D01*
X45358421Y-111751184D01*
X44559605Y-112550000D01*
X44200395Y-112550000D01*
X43401579Y-111751184D01*
X43159651Y-111820345D01*
X43111575Y-111922279D01*
X43093957Y-111879746D01*
X42939103Y-111647990D01*
X42862692Y-111571579D01*
X43581184Y-111571579D01*
X44380000Y-112370395D01*
X45178816Y-111571579D01*
X45109655Y-111329651D01*
X44857557Y-111210752D01*
X44587106Y-111143319D01*
X44308697Y-111129943D01*
X44033028Y-111171140D01*
X43770692Y-111265325D01*
X43650345Y-111329651D01*
X43581184Y-111571579D01*
X42862692Y-111571579D01*
X42742010Y-111450897D01*
X42510254Y-111296043D01*
X42252740Y-111189377D01*
X41979365Y-111135000D01*
X41700635Y-111135000D01*
X41427260Y-111189377D01*
X41169746Y-111296043D01*
X40937990Y-111450897D01*
X40740897Y-111647990D01*
X40586043Y-111879746D01*
X40570000Y-111918477D01*
X40553957Y-111879746D01*
X40399103Y-111647990D01*
X40202010Y-111450897D01*
X39970254Y-111296043D01*
X39712740Y-111189377D01*
X39439365Y-111135000D01*
X39160635Y-111135000D01*
X38887260Y-111189377D01*
X38629746Y-111296043D01*
X38397990Y-111450897D01*
X38200897Y-111647990D01*
X38046043Y-111879746D01*
X38030000Y-111918477D01*
X38013957Y-111879746D01*
X37859103Y-111647990D01*
X37662010Y-111450897D01*
X37430254Y-111296043D01*
X37172740Y-111189377D01*
X36899365Y-111135000D01*
X36620635Y-111135000D01*
X36347260Y-111189377D01*
X36089746Y-111296043D01*
X35857990Y-111450897D01*
X35660897Y-111647990D01*
X35506043Y-111879746D01*
X35490000Y-111918477D01*
X35473957Y-111879746D01*
X35319103Y-111647990D01*
X35122010Y-111450897D01*
X34890254Y-111296043D01*
X34632740Y-111189377D01*
X34359365Y-111135000D01*
X34080635Y-111135000D01*
X33807260Y-111189377D01*
X33549746Y-111296043D01*
X33317990Y-111450897D01*
X33120897Y-111647990D01*
X32966043Y-111879746D01*
X32950000Y-111918477D01*
X32933957Y-111879746D01*
X32779103Y-111647990D01*
X32582010Y-111450897D01*
X32350254Y-111296043D01*
X32092740Y-111189377D01*
X31819365Y-111135000D01*
X31540635Y-111135000D01*
X31267260Y-111189377D01*
X31009746Y-111296043D01*
X30777990Y-111450897D01*
X30660000Y-111568887D01*
X30660000Y-90671113D01*
X30777990Y-90789103D01*
X31009746Y-90943957D01*
X31267260Y-91050623D01*
X31540635Y-91105000D01*
X31819365Y-91105000D01*
X32092740Y-91050623D01*
X32350254Y-90943957D01*
X32582010Y-90789103D01*
X32779103Y-90592010D01*
X32933957Y-90360254D01*
X32950000Y-90321523D01*
X32966043Y-90360254D01*
X33120897Y-90592010D01*
X33317990Y-90789103D01*
X33549746Y-90943957D01*
X33807260Y-91050623D01*
X34080635Y-91105000D01*
X34359365Y-91105000D01*
X34632740Y-91050623D01*
X34890254Y-90943957D01*
X35122010Y-90789103D01*
X35319103Y-90592010D01*
X35473957Y-90360254D01*
X35490000Y-90321523D01*
X35506043Y-90360254D01*
X35660897Y-90592010D01*
X35857990Y-90789103D01*
X36089746Y-90943957D01*
X36347260Y-91050623D01*
X36620635Y-91105000D01*
X36899365Y-91105000D01*
X37172740Y-91050623D01*
X37430254Y-90943957D01*
X37662010Y-90789103D01*
X37859103Y-90592010D01*
X38013957Y-90360254D01*
X38030000Y-90321523D01*
X38046043Y-90360254D01*
X38200897Y-90592010D01*
X38397990Y-90789103D01*
X38629746Y-90943957D01*
X38887260Y-91050623D01*
X39160635Y-91105000D01*
X39439365Y-91105000D01*
X39634480Y-91066190D01*
X42563557Y-93995267D01*
X42586625Y-94023375D01*
X42698787Y-94115424D01*
X42826751Y-94183822D01*
X42911650Y-94209576D01*
X42965601Y-94225942D01*
X43110000Y-94240164D01*
X43146186Y-94236600D01*
X71148000Y-94236600D01*
X71148000Y-110010000D01*
X71150440Y-110034776D01*
X71157667Y-110058601D01*
X71169403Y-110080557D01*
X71185197Y-110099803D01*
X71204443Y-110115597D01*
X71226399Y-110127333D01*
X71250224Y-110134560D01*
X71275000Y-110137000D01*
X87150000Y-110137000D01*
X87174776Y-110134560D01*
X87198601Y-110127333D01*
X87220557Y-110115597D01*
X87239803Y-110099803D01*
X87255597Y-110080557D01*
X87267333Y-110058601D01*
X87274560Y-110034776D01*
X87277000Y-110010000D01*
X87277000Y-109773453D01*
X87420285Y-109916738D01*
X87851859Y-110205107D01*
X88331399Y-110403739D01*
X88840475Y-110505000D01*
X89359525Y-110505000D01*
X89868601Y-110403739D01*
X90348141Y-110205107D01*
X90779715Y-109916738D01*
X91146738Y-109549715D01*
X91435107Y-109118141D01*
X91633739Y-108638601D01*
X91735000Y-108129525D01*
X91735000Y-107610475D01*
X95265000Y-107610475D01*
X95265000Y-108129525D01*
X95366261Y-108638601D01*
X95564893Y-109118141D01*
X95853262Y-109549715D01*
X96220285Y-109916738D01*
X96651859Y-110205107D01*
X97131399Y-110403739D01*
X97640475Y-110505000D01*
X98159525Y-110505000D01*
X98668601Y-110403739D01*
X99148141Y-110205107D01*
X99579715Y-109916738D01*
X99946738Y-109549715D01*
X100235107Y-109118141D01*
X100433739Y-108638601D01*
X100535000Y-108129525D01*
X100535000Y-107610475D01*
X100433739Y-107101399D01*
X100235107Y-106621859D01*
X100023389Y-106305000D01*
X109271928Y-106305000D01*
X109271928Y-109905000D01*
X109284188Y-110029482D01*
X109320498Y-110149180D01*
X109379463Y-110259494D01*
X109458815Y-110356185D01*
X109555506Y-110435537D01*
X109665820Y-110494502D01*
X109785518Y-110530812D01*
X109910000Y-110543072D01*
X112710000Y-110543072D01*
X112834482Y-110530812D01*
X112954180Y-110494502D01*
X113064494Y-110435537D01*
X113161185Y-110356185D01*
X113240537Y-110259494D01*
X113299502Y-110149180D01*
X113335812Y-110029482D01*
X113348072Y-109905000D01*
X113348072Y-106305000D01*
X113335812Y-106180518D01*
X113299502Y-106060820D01*
X113240537Y-105950506D01*
X113161185Y-105853815D01*
X113064494Y-105774463D01*
X112954180Y-105715498D01*
X112834482Y-105679188D01*
X112710000Y-105666928D01*
X109910000Y-105666928D01*
X109785518Y-105679188D01*
X109665820Y-105715498D01*
X109555506Y-105774463D01*
X109458815Y-105853815D01*
X109379463Y-105950506D01*
X109320498Y-106060820D01*
X109284188Y-106180518D01*
X109271928Y-106305000D01*
X100023389Y-106305000D01*
X99946738Y-106190285D01*
X99579715Y-105823262D01*
X99148141Y-105534893D01*
X98668601Y-105336261D01*
X98159525Y-105235000D01*
X97640475Y-105235000D01*
X97131399Y-105336261D01*
X96651859Y-105534893D01*
X96220285Y-105823262D01*
X95853262Y-106190285D01*
X95564893Y-106621859D01*
X95366261Y-107101399D01*
X95265000Y-107610475D01*
X91735000Y-107610475D01*
X91633739Y-107101399D01*
X91435107Y-106621859D01*
X91146738Y-106190285D01*
X90779715Y-105823262D01*
X90348141Y-105534893D01*
X89868601Y-105336261D01*
X89359525Y-105235000D01*
X88840475Y-105235000D01*
X88331399Y-105336261D01*
X87851859Y-105534893D01*
X87420285Y-105823262D01*
X87277000Y-105966547D01*
X87277000Y-94236600D01*
X110974891Y-94236600D01*
X111813401Y-95075111D01*
X111813400Y-102353817D01*
X111809836Y-102390000D01*
X111813400Y-102426183D01*
X111813400Y-102426185D01*
X111824058Y-102534398D01*
X111866178Y-102673248D01*
X111934576Y-102801212D01*
X112026625Y-102913374D01*
X112054732Y-102936441D01*
X113773401Y-104655111D01*
X113773400Y-113640399D01*
X113735537Y-113656082D01*
X113467748Y-113835013D01*
X113240013Y-114062748D01*
X113061082Y-114330537D01*
X112937832Y-114628088D01*
X112875000Y-114943967D01*
X112875000Y-115266033D01*
X112937832Y-115581912D01*
X113061082Y-115879463D01*
X113240013Y-116147252D01*
X113467748Y-116374987D01*
X113735537Y-116553918D01*
X114033088Y-116677168D01*
X114348967Y-116740000D01*
X114671033Y-116740000D01*
X114986912Y-116677168D01*
X115284463Y-116553918D01*
X115552252Y-116374987D01*
X115686826Y-116240413D01*
X118554192Y-116240413D01*
X118649956Y-116504814D01*
X118939571Y-116645704D01*
X119251108Y-116727384D01*
X119572595Y-116746718D01*
X119891675Y-116702961D01*
X120196088Y-116597795D01*
X120370044Y-116504814D01*
X120465808Y-116240413D01*
X119510000Y-115284605D01*
X118554192Y-116240413D01*
X115686826Y-116240413D01*
X115779987Y-116147252D01*
X115958918Y-115879463D01*
X116082168Y-115581912D01*
X116145000Y-115266033D01*
X116145000Y-115167595D01*
X117868282Y-115167595D01*
X117912039Y-115486675D01*
X118017205Y-115791088D01*
X118110186Y-115965044D01*
X118374587Y-116060808D01*
X119330395Y-115105000D01*
X119689605Y-115105000D01*
X120645413Y-116060808D01*
X120909814Y-115965044D01*
X121050704Y-115675429D01*
X121132384Y-115363892D01*
X121151718Y-115042405D01*
X121107961Y-114723325D01*
X121002795Y-114418912D01*
X120909814Y-114244956D01*
X120645413Y-114149192D01*
X119689605Y-115105000D01*
X119330395Y-115105000D01*
X118374587Y-114149192D01*
X118110186Y-114244956D01*
X117969296Y-114534571D01*
X117887616Y-114846108D01*
X117868282Y-115167595D01*
X116145000Y-115167595D01*
X116145000Y-114943967D01*
X116082168Y-114628088D01*
X115958918Y-114330537D01*
X115779987Y-114062748D01*
X115686826Y-113969587D01*
X118554192Y-113969587D01*
X119510000Y-114925395D01*
X120465808Y-113969587D01*
X120370044Y-113705186D01*
X120080429Y-113564296D01*
X119768892Y-113482616D01*
X119447405Y-113463282D01*
X119128325Y-113507039D01*
X118823912Y-113612205D01*
X118649956Y-113705186D01*
X118554192Y-113969587D01*
X115686826Y-113969587D01*
X115552252Y-113835013D01*
X115284463Y-113656082D01*
X115246600Y-113640399D01*
X115246600Y-106305000D01*
X120671928Y-106305000D01*
X120671928Y-109905000D01*
X120684188Y-110029482D01*
X120720498Y-110149180D01*
X120779463Y-110259494D01*
X120858815Y-110356185D01*
X120955506Y-110435537D01*
X121065820Y-110494502D01*
X121185518Y-110530812D01*
X121310000Y-110543072D01*
X124110000Y-110543072D01*
X124234482Y-110530812D01*
X124354180Y-110494502D01*
X124464494Y-110435537D01*
X124561185Y-110356185D01*
X124640537Y-110259494D01*
X124699502Y-110149180D01*
X124735812Y-110029482D01*
X124748072Y-109905000D01*
X124748072Y-106305000D01*
X124735812Y-106180518D01*
X124699502Y-106060820D01*
X124640537Y-105950506D01*
X124561185Y-105853815D01*
X124464494Y-105774463D01*
X124354180Y-105715498D01*
X124234482Y-105679188D01*
X124110000Y-105666928D01*
X121310000Y-105666928D01*
X121185518Y-105679188D01*
X121065820Y-105715498D01*
X120955506Y-105774463D01*
X120858815Y-105853815D01*
X120779463Y-105950506D01*
X120720498Y-106060820D01*
X120684188Y-106180518D01*
X120671928Y-106305000D01*
X115246600Y-106305000D01*
X115246600Y-104386186D01*
X115250164Y-104350000D01*
X115235942Y-104205601D01*
X115193822Y-104066752D01*
X115193822Y-104066751D01*
X115125424Y-103938787D01*
X115033375Y-103826625D01*
X115005269Y-103803559D01*
X113286600Y-102084891D01*
X113286600Y-101693839D01*
X113467748Y-101874987D01*
X113735537Y-102053918D01*
X114033088Y-102177168D01*
X114348967Y-102240000D01*
X114671033Y-102240000D01*
X114986912Y-102177168D01*
X115284463Y-102053918D01*
X115552252Y-101874987D01*
X115686826Y-101740413D01*
X116054192Y-101740413D01*
X116149956Y-102004814D01*
X116439571Y-102145704D01*
X116751108Y-102227384D01*
X117072595Y-102246718D01*
X117391675Y-102202961D01*
X117696088Y-102097795D01*
X117870044Y-102004814D01*
X117965808Y-101740413D01*
X117010000Y-100784605D01*
X116054192Y-101740413D01*
X115686826Y-101740413D01*
X115779987Y-101647252D01*
X115844925Y-101550065D01*
X115874587Y-101560808D01*
X116830395Y-100605000D01*
X115874587Y-99649192D01*
X115844925Y-99659935D01*
X115779987Y-99562748D01*
X115686826Y-99469587D01*
X116054192Y-99469587D01*
X117010000Y-100425395D01*
X117965808Y-99469587D01*
X117870044Y-99205186D01*
X117580429Y-99064296D01*
X117268892Y-98982616D01*
X116947405Y-98963282D01*
X116628325Y-99007039D01*
X116323912Y-99112205D01*
X116149956Y-99205186D01*
X116054192Y-99469587D01*
X115686826Y-99469587D01*
X115552252Y-99335013D01*
X115284463Y-99156082D01*
X115246600Y-99140399D01*
X115246600Y-94861186D01*
X115250164Y-94825000D01*
X115235942Y-94680601D01*
X115219258Y-94625601D01*
X115193822Y-94541751D01*
X115125424Y-94413787D01*
X115080286Y-94358786D01*
X115056442Y-94329732D01*
X115056441Y-94329731D01*
X115033375Y-94301625D01*
X115005269Y-94278559D01*
X113693309Y-92966600D01*
X116689891Y-92966600D01*
X118773400Y-95050110D01*
X118773401Y-99140398D01*
X118735537Y-99156082D01*
X118467748Y-99335013D01*
X118240013Y-99562748D01*
X118175075Y-99659935D01*
X118145413Y-99649192D01*
X117189605Y-100605000D01*
X118145413Y-101560808D01*
X118175075Y-101550065D01*
X118240013Y-101647252D01*
X118467748Y-101874987D01*
X118735537Y-102053918D01*
X119033088Y-102177168D01*
X119348967Y-102240000D01*
X119671033Y-102240000D01*
X119986912Y-102177168D01*
X120284463Y-102053918D01*
X120552252Y-101874987D01*
X120779987Y-101647252D01*
X120958918Y-101379463D01*
X121082168Y-101081912D01*
X121145000Y-100766033D01*
X121145000Y-100443967D01*
X121082168Y-100128088D01*
X120958918Y-99830537D01*
X120779987Y-99562748D01*
X120552252Y-99335013D01*
X120284463Y-99156082D01*
X120246600Y-99140399D01*
X120246600Y-94781175D01*
X120250163Y-94744999D01*
X120246600Y-94708823D01*
X120246600Y-94708814D01*
X120235942Y-94600601D01*
X120193822Y-94461751D01*
X120125424Y-94333787D01*
X120099029Y-94301625D01*
X120056442Y-94249732D01*
X120056437Y-94249727D01*
X120033374Y-94221625D01*
X120005273Y-94198563D01*
X117541446Y-91734736D01*
X117518375Y-91706625D01*
X117406213Y-91614576D01*
X117278249Y-91546178D01*
X117139399Y-91504058D01*
X117031186Y-91493400D01*
X117031183Y-91493400D01*
X116995000Y-91489836D01*
X116958817Y-91493400D01*
X109248309Y-91493400D01*
X125110274Y-75631436D01*
X125138374Y-75608375D01*
X125161437Y-75580273D01*
X125161442Y-75580268D01*
X125230424Y-75496213D01*
X125267419Y-75427000D01*
X125298822Y-75368249D01*
X125340942Y-75229399D01*
X125351600Y-75121186D01*
X125351600Y-75121185D01*
X125355164Y-75085000D01*
X125351600Y-75048814D01*
X125351600Y-56981186D01*
X125355164Y-56945000D01*
X125340942Y-56800601D01*
X125298822Y-56661752D01*
X125298822Y-56661751D01*
X125230424Y-56533787D01*
X125138375Y-56421625D01*
X125110269Y-56398559D01*
X122740881Y-54029172D01*
X122777000Y-53847592D01*
X122777000Y-53572408D01*
X122723314Y-53302510D01*
X122618005Y-53048273D01*
X122465120Y-52819465D01*
X122270535Y-52624880D01*
X122041727Y-52471995D01*
X121787490Y-52366686D01*
X121517592Y-52313000D01*
X121242408Y-52313000D01*
X120972510Y-52366686D01*
X120718273Y-52471995D01*
X120489465Y-52624880D01*
X120294880Y-52819465D01*
X120141995Y-53048273D01*
X120036686Y-53302510D01*
X119983000Y-53572408D01*
X119983000Y-53847592D01*
X120036686Y-54117490D01*
X120141995Y-54371727D01*
X120294880Y-54600535D01*
X120489465Y-54795120D01*
X120718273Y-54948005D01*
X120795515Y-54980000D01*
X120718273Y-55011995D01*
X120489465Y-55164880D01*
X120294880Y-55359465D01*
X120141995Y-55588273D01*
X120036686Y-55842510D01*
X119983000Y-56112408D01*
X119983000Y-56387592D01*
X120036686Y-56657490D01*
X120141995Y-56911727D01*
X120294880Y-57140535D01*
X120489465Y-57335120D01*
X120718273Y-57488005D01*
X120795515Y-57520000D01*
X120718273Y-57551995D01*
X120489465Y-57704880D01*
X120294880Y-57899465D01*
X120141995Y-58128273D01*
X120036686Y-58382510D01*
X119983000Y-58652408D01*
X119983000Y-58927592D01*
X120036686Y-59197490D01*
X120141995Y-59451727D01*
X120294880Y-59680535D01*
X120489465Y-59875120D01*
X120718273Y-60028005D01*
X120795515Y-60060000D01*
X120718273Y-60091995D01*
X120489465Y-60244880D01*
X120294880Y-60439465D01*
X120141995Y-60668273D01*
X120036686Y-60922510D01*
X119983000Y-61192408D01*
X119983000Y-61467592D01*
X120036686Y-61737490D01*
X120141995Y-61991727D01*
X120294880Y-62220535D01*
X120489465Y-62415120D01*
X120718273Y-62568005D01*
X120972510Y-62673314D01*
X121242408Y-62727000D01*
X121517592Y-62727000D01*
X121787490Y-62673314D01*
X122041727Y-62568005D01*
X122270535Y-62415120D01*
X122465120Y-62220535D01*
X122618005Y-61991727D01*
X122723314Y-61737490D01*
X122777000Y-61467592D01*
X122777000Y-61192408D01*
X122723314Y-60922510D01*
X122618005Y-60668273D01*
X122465120Y-60439465D01*
X122270535Y-60244880D01*
X122041727Y-60091995D01*
X121964485Y-60060000D01*
X122041727Y-60028005D01*
X122270535Y-59875120D01*
X122465120Y-59680535D01*
X122618005Y-59451727D01*
X122723314Y-59197490D01*
X122777000Y-58927592D01*
X122777000Y-58688709D01*
X122836990Y-58748699D01*
X122836989Y-65189774D01*
X122836990Y-65189784D01*
X122836989Y-72011301D01*
X106997977Y-87850314D01*
X75999261Y-87850314D01*
X75963085Y-87846751D01*
X75926909Y-87850314D01*
X75926900Y-87850314D01*
X75818687Y-87860972D01*
X75679837Y-87903092D01*
X75551873Y-87971490D01*
X75439711Y-88063539D01*
X75416645Y-88091645D01*
X75194480Y-88313810D01*
X74999365Y-88275000D01*
X74720635Y-88275000D01*
X74447260Y-88329377D01*
X74189746Y-88436043D01*
X73957990Y-88590897D01*
X73760897Y-88787990D01*
X73606043Y-89019746D01*
X73590000Y-89058477D01*
X73573957Y-89019746D01*
X73419103Y-88787990D01*
X73222010Y-88590897D01*
X72990254Y-88436043D01*
X72732740Y-88329377D01*
X72459365Y-88275000D01*
X72180635Y-88275000D01*
X71907260Y-88329377D01*
X71649746Y-88436043D01*
X71417990Y-88590897D01*
X71220897Y-88787990D01*
X71066043Y-89019746D01*
X71050000Y-89058477D01*
X71033957Y-89019746D01*
X70879103Y-88787990D01*
X70682010Y-88590897D01*
X70450254Y-88436043D01*
X70192740Y-88329377D01*
X69919365Y-88275000D01*
X69640635Y-88275000D01*
X69367260Y-88329377D01*
X69109746Y-88436043D01*
X68877990Y-88590897D01*
X68680897Y-88787990D01*
X68526043Y-89019746D01*
X68510000Y-89058477D01*
X68493957Y-89019746D01*
X68339103Y-88787990D01*
X68142010Y-88590897D01*
X67910254Y-88436043D01*
X67652740Y-88329377D01*
X67379365Y-88275000D01*
X67100635Y-88275000D01*
X66827260Y-88329377D01*
X66569746Y-88436043D01*
X66337990Y-88590897D01*
X66140897Y-88787990D01*
X65986043Y-89019746D01*
X65970000Y-89058477D01*
X65953957Y-89019746D01*
X65799103Y-88787990D01*
X65602010Y-88590897D01*
X65370254Y-88436043D01*
X65112740Y-88329377D01*
X64839365Y-88275000D01*
X64560635Y-88275000D01*
X64287260Y-88329377D01*
X64029746Y-88436043D01*
X63797990Y-88590897D01*
X63600897Y-88787990D01*
X63446043Y-89019746D01*
X63431223Y-89055525D01*
X63380349Y-88960345D01*
X63138421Y-88891184D01*
X62339605Y-89690000D01*
X63138421Y-90488816D01*
X63380349Y-90419655D01*
X63428425Y-90317721D01*
X63446043Y-90360254D01*
X63600897Y-90592010D01*
X63797990Y-90789103D01*
X63901701Y-90858400D01*
X62904506Y-90858400D01*
X62958816Y-90668421D01*
X62160000Y-89869605D01*
X61361184Y-90668421D01*
X61415494Y-90858400D01*
X60418299Y-90858400D01*
X60522010Y-90789103D01*
X60719103Y-90592010D01*
X60873957Y-90360254D01*
X60888777Y-90324475D01*
X60939651Y-90419655D01*
X61181579Y-90488816D01*
X61980395Y-89690000D01*
X61181579Y-88891184D01*
X60939651Y-88960345D01*
X60891575Y-89062279D01*
X60873957Y-89019746D01*
X60719103Y-88787990D01*
X60642692Y-88711579D01*
X61361184Y-88711579D01*
X62160000Y-89510395D01*
X62958816Y-88711579D01*
X62889655Y-88469651D01*
X62637557Y-88350752D01*
X62367106Y-88283319D01*
X62088697Y-88269943D01*
X61813028Y-88311140D01*
X61550692Y-88405325D01*
X61430345Y-88469651D01*
X61361184Y-88711579D01*
X60642692Y-88711579D01*
X60522010Y-88590897D01*
X60349183Y-88475418D01*
X60345942Y-88442515D01*
X60318106Y-88350752D01*
X60303822Y-88303665D01*
X60235424Y-88175701D01*
X60143375Y-88063539D01*
X60115268Y-88040472D01*
X54919532Y-82844737D01*
X54896461Y-82816625D01*
X54784299Y-82724576D01*
X54656335Y-82656178D01*
X54517485Y-82614058D01*
X54409272Y-82603400D01*
X54409269Y-82603400D01*
X54373086Y-82599836D01*
X54336903Y-82603400D01*
X46815110Y-82603400D01*
X40896600Y-76684891D01*
X40896600Y-76193967D01*
X99351000Y-76193967D01*
X99351000Y-76516033D01*
X99413832Y-76831912D01*
X99537082Y-77129463D01*
X99716013Y-77397252D01*
X99943748Y-77624987D01*
X100211537Y-77803918D01*
X100509088Y-77927168D01*
X100824967Y-77990000D01*
X101147033Y-77990000D01*
X101462912Y-77927168D01*
X101760463Y-77803918D01*
X102028252Y-77624987D01*
X102255987Y-77397252D01*
X102434918Y-77129463D01*
X102558168Y-76831912D01*
X102621000Y-76516033D01*
X102621000Y-76193967D01*
X114351000Y-76193967D01*
X114351000Y-76516033D01*
X114413832Y-76831912D01*
X114537082Y-77129463D01*
X114716013Y-77397252D01*
X114943748Y-77624987D01*
X115211537Y-77803918D01*
X115509088Y-77927168D01*
X115824967Y-77990000D01*
X116147033Y-77990000D01*
X116462912Y-77927168D01*
X116760463Y-77803918D01*
X117028252Y-77624987D01*
X117255987Y-77397252D01*
X117434918Y-77129463D01*
X117558168Y-76831912D01*
X117621000Y-76516033D01*
X117621000Y-76193967D01*
X117558168Y-75878088D01*
X117434918Y-75580537D01*
X117255987Y-75312748D01*
X117028252Y-75085013D01*
X116760463Y-74906082D01*
X116462912Y-74782832D01*
X116147033Y-74720000D01*
X115824967Y-74720000D01*
X115509088Y-74782832D01*
X115211537Y-74906082D01*
X114943748Y-75085013D01*
X114716013Y-75312748D01*
X114537082Y-75580537D01*
X114413832Y-75878088D01*
X114351000Y-76193967D01*
X102621000Y-76193967D01*
X102558168Y-75878088D01*
X102434918Y-75580537D01*
X102255987Y-75312748D01*
X102028252Y-75085013D01*
X101760463Y-74906082D01*
X101462912Y-74782832D01*
X101147033Y-74720000D01*
X100824967Y-74720000D01*
X100509088Y-74782832D01*
X100211537Y-74906082D01*
X99943748Y-75085013D01*
X99716013Y-75312748D01*
X99537082Y-75580537D01*
X99413832Y-75878088D01*
X99351000Y-76193967D01*
X40896600Y-76193967D01*
X40896600Y-65865565D01*
X77474040Y-65865565D01*
X77541020Y-66105656D01*
X77790048Y-66222756D01*
X78057135Y-66289023D01*
X78332017Y-66301910D01*
X78604133Y-66260922D01*
X78863023Y-66167636D01*
X78978980Y-66105656D01*
X79045960Y-65865565D01*
X78260000Y-65079605D01*
X77474040Y-65865565D01*
X40896600Y-65865565D01*
X40896600Y-64972017D01*
X76858090Y-64972017D01*
X76899078Y-65244133D01*
X76992364Y-65503023D01*
X77054344Y-65618980D01*
X77294435Y-65685960D01*
X78080395Y-64900000D01*
X78439605Y-64900000D01*
X79225565Y-65685960D01*
X79465656Y-65618980D01*
X79529485Y-65483240D01*
X79561995Y-65561727D01*
X79714880Y-65790535D01*
X79909465Y-65985120D01*
X80138273Y-66138005D01*
X80392510Y-66243314D01*
X80662408Y-66297000D01*
X80937592Y-66297000D01*
X81207490Y-66243314D01*
X81461727Y-66138005D01*
X81690535Y-65985120D01*
X81885120Y-65790535D01*
X82038005Y-65561727D01*
X82143314Y-65307490D01*
X82197000Y-65037592D01*
X82197000Y-64762408D01*
X87023000Y-64762408D01*
X87023000Y-65037592D01*
X87076686Y-65307490D01*
X87181995Y-65561727D01*
X87334880Y-65790535D01*
X87529465Y-65985120D01*
X87758273Y-66138005D01*
X88012510Y-66243314D01*
X88282408Y-66297000D01*
X88557592Y-66297000D01*
X88827490Y-66243314D01*
X89081727Y-66138005D01*
X89310535Y-65985120D01*
X89430090Y-65865565D01*
X90174040Y-65865565D01*
X90241020Y-66105656D01*
X90490048Y-66222756D01*
X90757135Y-66289023D01*
X91032017Y-66301910D01*
X91304133Y-66260922D01*
X91563023Y-66167636D01*
X91678980Y-66105656D01*
X91745960Y-65865565D01*
X90960000Y-65079605D01*
X90174040Y-65865565D01*
X89430090Y-65865565D01*
X89505120Y-65790535D01*
X89658005Y-65561727D01*
X89687692Y-65490057D01*
X89692364Y-65503023D01*
X89754344Y-65618980D01*
X89994435Y-65685960D01*
X90780395Y-64900000D01*
X91139605Y-64900000D01*
X91925565Y-65685960D01*
X92165656Y-65618980D01*
X92218851Y-65505853D01*
X92241995Y-65561727D01*
X92394880Y-65790535D01*
X92589465Y-65985120D01*
X92818273Y-66138005D01*
X93072510Y-66243314D01*
X93342408Y-66297000D01*
X93617592Y-66297000D01*
X93887490Y-66243314D01*
X94141727Y-66138005D01*
X94370535Y-65985120D01*
X94565120Y-65790535D01*
X94718005Y-65561727D01*
X94823314Y-65307490D01*
X94877000Y-65037592D01*
X94877000Y-64762408D01*
X94823314Y-64492510D01*
X94718005Y-64238273D01*
X94565120Y-64009465D01*
X94370535Y-63814880D01*
X94141727Y-63661995D01*
X93887490Y-63556686D01*
X93617592Y-63503000D01*
X93342408Y-63503000D01*
X93072510Y-63556686D01*
X92818273Y-63661995D01*
X92589465Y-63814880D01*
X92394880Y-64009465D01*
X92241995Y-64238273D01*
X92222026Y-64286482D01*
X92165656Y-64181020D01*
X91925565Y-64114040D01*
X91139605Y-64900000D01*
X90780395Y-64900000D01*
X89994435Y-64114040D01*
X89754344Y-64181020D01*
X89690515Y-64316760D01*
X89658005Y-64238273D01*
X89505120Y-64009465D01*
X89430090Y-63934435D01*
X90174040Y-63934435D01*
X90960000Y-64720395D01*
X91745960Y-63934435D01*
X91678980Y-63694344D01*
X91429952Y-63577244D01*
X91162865Y-63510977D01*
X90887983Y-63498090D01*
X90615867Y-63539078D01*
X90356977Y-63632364D01*
X90241020Y-63694344D01*
X90174040Y-63934435D01*
X89430090Y-63934435D01*
X89310535Y-63814880D01*
X89081727Y-63661995D01*
X88827490Y-63556686D01*
X88557592Y-63503000D01*
X88282408Y-63503000D01*
X88012510Y-63556686D01*
X87758273Y-63661995D01*
X87529465Y-63814880D01*
X87334880Y-64009465D01*
X87181995Y-64238273D01*
X87076686Y-64492510D01*
X87023000Y-64762408D01*
X82197000Y-64762408D01*
X82143314Y-64492510D01*
X82038005Y-64238273D01*
X81885120Y-64009465D01*
X81690535Y-63814880D01*
X81461727Y-63661995D01*
X81207490Y-63556686D01*
X80937592Y-63503000D01*
X80662408Y-63503000D01*
X80392510Y-63556686D01*
X80138273Y-63661995D01*
X79909465Y-63814880D01*
X79714880Y-64009465D01*
X79561995Y-64238273D01*
X79532308Y-64309943D01*
X79527636Y-64296977D01*
X79465656Y-64181020D01*
X79225565Y-64114040D01*
X78439605Y-64900000D01*
X78080395Y-64900000D01*
X77294435Y-64114040D01*
X77054344Y-64181020D01*
X76937244Y-64430048D01*
X76870977Y-64697135D01*
X76858090Y-64972017D01*
X40896600Y-64972017D01*
X40896600Y-64446186D01*
X40900164Y-64410000D01*
X40885942Y-64265601D01*
X40843822Y-64126752D01*
X40843822Y-64126751D01*
X40775424Y-63998787D01*
X40722612Y-63934435D01*
X77474040Y-63934435D01*
X78260000Y-64720395D01*
X79045960Y-63934435D01*
X78978980Y-63694344D01*
X78729952Y-63577244D01*
X78462865Y-63510977D01*
X78187983Y-63498090D01*
X77915867Y-63539078D01*
X77656977Y-63632364D01*
X77541020Y-63694344D01*
X77474040Y-63934435D01*
X40722612Y-63934435D01*
X40683375Y-63886625D01*
X40655269Y-63863559D01*
X39945111Y-63153401D01*
X118555882Y-63153401D01*
X118592065Y-63156965D01*
X118628248Y-63153401D01*
X118628251Y-63153401D01*
X118736464Y-63142743D01*
X118875314Y-63100623D01*
X119003278Y-63032225D01*
X119115440Y-62940176D01*
X119138510Y-62912065D01*
X119642074Y-62408502D01*
X119670175Y-62385440D01*
X119693238Y-62357338D01*
X119693243Y-62357333D01*
X119762224Y-62273279D01*
X119762226Y-62273277D01*
X119830623Y-62145314D01*
X119872743Y-62006464D01*
X119883401Y-61898251D01*
X119883401Y-61898242D01*
X119886964Y-61862066D01*
X119883401Y-61825890D01*
X119883401Y-59892976D01*
X119886964Y-59856800D01*
X119883401Y-59820624D01*
X119883401Y-59820615D01*
X119872743Y-59712402D01*
X119830623Y-59573552D01*
X119762225Y-59445588D01*
X119670176Y-59333426D01*
X119642064Y-59310355D01*
X119444200Y-59112491D01*
X119477000Y-58947592D01*
X119477000Y-58672408D01*
X119423314Y-58402510D01*
X119318005Y-58148273D01*
X119165120Y-57919465D01*
X118970535Y-57724880D01*
X118741727Y-57571995D01*
X118664485Y-57540000D01*
X118741727Y-57508005D01*
X118970535Y-57355120D01*
X119165120Y-57160535D01*
X119318005Y-56931727D01*
X119423314Y-56677490D01*
X119477000Y-56407592D01*
X119477000Y-56132408D01*
X119423314Y-55862510D01*
X119318005Y-55608273D01*
X119165120Y-55379465D01*
X118970535Y-55184880D01*
X118741727Y-55031995D01*
X118664485Y-55000000D01*
X118741727Y-54968005D01*
X118970535Y-54815120D01*
X119165120Y-54620535D01*
X119318005Y-54391727D01*
X119423314Y-54137490D01*
X119477000Y-53867592D01*
X119477000Y-53592408D01*
X119423314Y-53322510D01*
X119318005Y-53068273D01*
X119165120Y-52839465D01*
X118970535Y-52644880D01*
X118741727Y-52491995D01*
X118487490Y-52386686D01*
X118217592Y-52333000D01*
X117942408Y-52333000D01*
X117672510Y-52386686D01*
X117418273Y-52491995D01*
X117189465Y-52644880D01*
X116994880Y-52839465D01*
X116841995Y-53068273D01*
X116736686Y-53322510D01*
X116683000Y-53592408D01*
X116683000Y-53811291D01*
X116086446Y-53214737D01*
X116063375Y-53186625D01*
X115951213Y-53094576D01*
X115823249Y-53026178D01*
X115684399Y-52984058D01*
X115576186Y-52973400D01*
X115576183Y-52973400D01*
X115540000Y-52969836D01*
X115503817Y-52973400D01*
X52101072Y-52973400D01*
X52101072Y-51590000D01*
X52088812Y-51465518D01*
X52052502Y-51345820D01*
X51993537Y-51235506D01*
X51914185Y-51138815D01*
X51817494Y-51059463D01*
X51707180Y-51000498D01*
X51587482Y-50964188D01*
X51463000Y-50951928D01*
X49939000Y-50951928D01*
X49814518Y-50964188D01*
X49694820Y-51000498D01*
X49584506Y-51059463D01*
X49487815Y-51138815D01*
X49408463Y-51235506D01*
X49349498Y-51345820D01*
X49313188Y-51465518D01*
X49300928Y-51590000D01*
X49300928Y-52973400D01*
X42956165Y-52973400D01*
X42954000Y-52637750D01*
X42795250Y-52479000D01*
X41684000Y-52479000D01*
X41684000Y-52499000D01*
X41430000Y-52499000D01*
X41430000Y-52479000D01*
X40318750Y-52479000D01*
X40160000Y-52637750D01*
X40157835Y-52973400D01*
X38267976Y-52973400D01*
X38165120Y-52819465D01*
X37970535Y-52624880D01*
X37741727Y-52471995D01*
X37664485Y-52440000D01*
X37741727Y-52408005D01*
X37970535Y-52255120D01*
X38165120Y-52060535D01*
X38318005Y-51831727D01*
X38418132Y-51590000D01*
X40156928Y-51590000D01*
X40160000Y-52066250D01*
X40318750Y-52225000D01*
X41430000Y-52225000D01*
X41430000Y-51113750D01*
X41684000Y-51113750D01*
X41684000Y-52225000D01*
X42795250Y-52225000D01*
X42954000Y-52066250D01*
X42957072Y-51590000D01*
X42944812Y-51465518D01*
X42908502Y-51345820D01*
X42849537Y-51235506D01*
X42770185Y-51138815D01*
X42673494Y-51059463D01*
X42563180Y-51000498D01*
X42443482Y-50964188D01*
X42319000Y-50951928D01*
X41842750Y-50955000D01*
X41684000Y-51113750D01*
X41430000Y-51113750D01*
X41271250Y-50955000D01*
X40795000Y-50951928D01*
X40670518Y-50964188D01*
X40550820Y-51000498D01*
X40440506Y-51059463D01*
X40343815Y-51138815D01*
X40264463Y-51235506D01*
X40205498Y-51345820D01*
X40169188Y-51465518D01*
X40156928Y-51590000D01*
X38418132Y-51590000D01*
X38423314Y-51577490D01*
X38477000Y-51307592D01*
X38477000Y-51032408D01*
X38423314Y-50762510D01*
X38318005Y-50508273D01*
X38165120Y-50279465D01*
X37970535Y-50084880D01*
X37741727Y-49931995D01*
X37664485Y-49900000D01*
X37741727Y-49868005D01*
X37970535Y-49715120D01*
X38165120Y-49520535D01*
X38318005Y-49291727D01*
X38423314Y-49037490D01*
X38477000Y-48767592D01*
X38477000Y-48492408D01*
X38423314Y-48222510D01*
X38318005Y-47968273D01*
X38165120Y-47739465D01*
X37970535Y-47544880D01*
X37741727Y-47391995D01*
X37664485Y-47360000D01*
X37741727Y-47328005D01*
X37970535Y-47175120D01*
X38165120Y-46980535D01*
X38318005Y-46751727D01*
X38423314Y-46497490D01*
X38477000Y-46227592D01*
X38477000Y-45952408D01*
X38439207Y-45762408D01*
X76863000Y-45762408D01*
X76863000Y-46037592D01*
X76916686Y-46307490D01*
X77021995Y-46561727D01*
X77174880Y-46790535D01*
X77369465Y-46985120D01*
X77598273Y-47138005D01*
X77852510Y-47243314D01*
X78122408Y-47297000D01*
X78397592Y-47297000D01*
X78667490Y-47243314D01*
X78921727Y-47138005D01*
X79150535Y-46985120D01*
X79345120Y-46790535D01*
X79498005Y-46561727D01*
X79530000Y-46484485D01*
X79561995Y-46561727D01*
X79714880Y-46790535D01*
X79909465Y-46985120D01*
X80138273Y-47138005D01*
X80392510Y-47243314D01*
X80662408Y-47297000D01*
X80937592Y-47297000D01*
X81207490Y-47243314D01*
X81461727Y-47138005D01*
X81690535Y-46985120D01*
X81885120Y-46790535D01*
X82038005Y-46561727D01*
X82143314Y-46307490D01*
X82197000Y-46037592D01*
X82197000Y-45762408D01*
X82143314Y-45492510D01*
X82038005Y-45238273D01*
X81885120Y-45009465D01*
X81690535Y-44814880D01*
X81461727Y-44661995D01*
X81207490Y-44556686D01*
X80937592Y-44503000D01*
X80662408Y-44503000D01*
X80392510Y-44556686D01*
X80138273Y-44661995D01*
X79909465Y-44814880D01*
X79714880Y-45009465D01*
X79561995Y-45238273D01*
X79530000Y-45315515D01*
X79498005Y-45238273D01*
X79345120Y-45009465D01*
X79150535Y-44814880D01*
X78921727Y-44661995D01*
X78667490Y-44556686D01*
X78397592Y-44503000D01*
X78122408Y-44503000D01*
X77852510Y-44556686D01*
X77598273Y-44661995D01*
X77369465Y-44814880D01*
X77174880Y-45009465D01*
X77021995Y-45238273D01*
X76916686Y-45492510D01*
X76863000Y-45762408D01*
X38439207Y-45762408D01*
X38423314Y-45682510D01*
X38318005Y-45428273D01*
X38165120Y-45199465D01*
X37970535Y-45004880D01*
X37741727Y-44851995D01*
X37670057Y-44822308D01*
X37683023Y-44817636D01*
X37798980Y-44755656D01*
X37865960Y-44515565D01*
X37080000Y-43729605D01*
X36294040Y-44515565D01*
X36361020Y-44755656D01*
X36496760Y-44819485D01*
X36418273Y-44851995D01*
X36189465Y-45004880D01*
X35994880Y-45199465D01*
X35841995Y-45428273D01*
X35736686Y-45682510D01*
X35683000Y-45952408D01*
X35683000Y-46227592D01*
X35719118Y-46409172D01*
X35219732Y-46908559D01*
X35191626Y-46931625D01*
X35168560Y-46959731D01*
X35168558Y-46959733D01*
X35099576Y-47043788D01*
X35040010Y-47155229D01*
X35031179Y-47171751D01*
X34996907Y-47284732D01*
X34989059Y-47310602D01*
X34974836Y-47455000D01*
X34978401Y-47491193D01*
X34978400Y-53915996D01*
X34978400Y-53915997D01*
X34978401Y-54957405D01*
X34978401Y-62607101D01*
X34793578Y-62455421D01*
X34492168Y-62294314D01*
X34165119Y-62195105D01*
X33910225Y-62170000D01*
X32439775Y-62170000D01*
X32184881Y-62195105D01*
X31857832Y-62294314D01*
X31556422Y-62455421D01*
X31292234Y-62672234D01*
X31075421Y-62936422D01*
X30914314Y-63237832D01*
X30815105Y-63564881D01*
X30781606Y-63905000D01*
X30815105Y-64245119D01*
X30914314Y-64572168D01*
X31075421Y-64873578D01*
X31292234Y-65137766D01*
X31483994Y-65295139D01*
X31389236Y-65472419D01*
X31310040Y-65733493D01*
X31283299Y-66005000D01*
X31310040Y-66276507D01*
X31389236Y-66537581D01*
X31517843Y-66778188D01*
X31690919Y-66989081D01*
X31710316Y-67005000D01*
X31690919Y-67020919D01*
X31517843Y-67231812D01*
X31389236Y-67472419D01*
X31310040Y-67733493D01*
X31283299Y-68005000D01*
X31310040Y-68276507D01*
X31389236Y-68537581D01*
X31513940Y-68770886D01*
X31473815Y-68803815D01*
X31394463Y-68900506D01*
X31335498Y-69010820D01*
X31299188Y-69130518D01*
X31286928Y-69255000D01*
X31286928Y-70755000D01*
X31298008Y-70867496D01*
X31292234Y-70872234D01*
X31075421Y-71136422D01*
X30914314Y-71437832D01*
X30815105Y-71764881D01*
X30781606Y-72105000D01*
X30815105Y-72445119D01*
X30914314Y-72772168D01*
X31075421Y-73073578D01*
X31292234Y-73337766D01*
X31556422Y-73554579D01*
X31857832Y-73715686D01*
X32184881Y-73814895D01*
X32439775Y-73840000D01*
X33910225Y-73840000D01*
X34165119Y-73814895D01*
X34492168Y-73715686D01*
X34793578Y-73554579D01*
X34978400Y-73402900D01*
X34978400Y-75048817D01*
X34974836Y-75085000D01*
X34978400Y-75121183D01*
X34978400Y-75121185D01*
X34989058Y-75229398D01*
X35031178Y-75368248D01*
X35099576Y-75496212D01*
X35191625Y-75608374D01*
X35219732Y-75631441D01*
X41590102Y-82001811D01*
X41557000Y-82019186D01*
X41557000Y-83213000D01*
X42750155Y-83213000D01*
X42767819Y-83179528D01*
X45963554Y-86375263D01*
X45986625Y-86403375D01*
X46098787Y-86495424D01*
X46226751Y-86563822D01*
X46365601Y-86605942D01*
X46473814Y-86616600D01*
X46473823Y-86616600D01*
X46509999Y-86620163D01*
X46546175Y-86616600D01*
X50424891Y-86616600D01*
X52083291Y-88275000D01*
X51860635Y-88275000D01*
X51587260Y-88329377D01*
X51329746Y-88436043D01*
X51097990Y-88590897D01*
X50900897Y-88787990D01*
X50746043Y-89019746D01*
X50730000Y-89058477D01*
X50713957Y-89019746D01*
X50559103Y-88787990D01*
X50362010Y-88590897D01*
X50130254Y-88436043D01*
X49872740Y-88329377D01*
X49599365Y-88275000D01*
X49320635Y-88275000D01*
X49047260Y-88329377D01*
X48789746Y-88436043D01*
X48557990Y-88590897D01*
X48360897Y-88787990D01*
X48206043Y-89019746D01*
X48190000Y-89058477D01*
X48173957Y-89019746D01*
X48019103Y-88787990D01*
X47822010Y-88590897D01*
X47590254Y-88436043D01*
X47332740Y-88329377D01*
X47059365Y-88275000D01*
X46780635Y-88275000D01*
X46507260Y-88329377D01*
X46249746Y-88436043D01*
X46017990Y-88590897D01*
X45820897Y-88787990D01*
X45666043Y-89019746D01*
X45650000Y-89058477D01*
X45633957Y-89019746D01*
X45479103Y-88787990D01*
X45282010Y-88590897D01*
X45050254Y-88436043D01*
X44792740Y-88329377D01*
X44519365Y-88275000D01*
X44240635Y-88275000D01*
X43967260Y-88329377D01*
X43709746Y-88436043D01*
X43477990Y-88590897D01*
X43280897Y-88787990D01*
X43126043Y-89019746D01*
X43110000Y-89058477D01*
X43093957Y-89019746D01*
X42939103Y-88787990D01*
X42742010Y-88590897D01*
X42510254Y-88436043D01*
X42252740Y-88329377D01*
X41979365Y-88275000D01*
X41700635Y-88275000D01*
X41427260Y-88329377D01*
X41169746Y-88436043D01*
X40937990Y-88590897D01*
X40740897Y-88787990D01*
X40586043Y-89019746D01*
X40570000Y-89058477D01*
X40553957Y-89019746D01*
X40399103Y-88787990D01*
X40202010Y-88590897D01*
X39970254Y-88436043D01*
X39712740Y-88329377D01*
X39439365Y-88275000D01*
X39160635Y-88275000D01*
X38887260Y-88329377D01*
X38629746Y-88436043D01*
X38397990Y-88590897D01*
X38200897Y-88787990D01*
X38046043Y-89019746D01*
X38030000Y-89058477D01*
X38013957Y-89019746D01*
X37859103Y-88787990D01*
X37662010Y-88590897D01*
X37430254Y-88436043D01*
X37172740Y-88329377D01*
X36899365Y-88275000D01*
X36620635Y-88275000D01*
X36347260Y-88329377D01*
X36089746Y-88436043D01*
X35857990Y-88590897D01*
X35660897Y-88787990D01*
X35506043Y-89019746D01*
X35490000Y-89058477D01*
X35473957Y-89019746D01*
X35319103Y-88787990D01*
X35122010Y-88590897D01*
X34890254Y-88436043D01*
X34632740Y-88329377D01*
X34359365Y-88275000D01*
X34080635Y-88275000D01*
X33807260Y-88329377D01*
X33549746Y-88436043D01*
X33317990Y-88590897D01*
X33120897Y-88787990D01*
X32966043Y-89019746D01*
X32950000Y-89058477D01*
X32933957Y-89019746D01*
X32779103Y-88787990D01*
X32582010Y-88590897D01*
X32350254Y-88436043D01*
X32092740Y-88329377D01*
X31819365Y-88275000D01*
X31540635Y-88275000D01*
X31267260Y-88329377D01*
X31009746Y-88436043D01*
X30777990Y-88590897D01*
X30660000Y-88708887D01*
X30660000Y-85030000D01*
X39941928Y-85030000D01*
X39941928Y-86730000D01*
X39954188Y-86854482D01*
X39990498Y-86974180D01*
X40049463Y-87084494D01*
X40128815Y-87181185D01*
X40225506Y-87260537D01*
X40335820Y-87319502D01*
X40455518Y-87355812D01*
X40580000Y-87368072D01*
X42280000Y-87368072D01*
X42404482Y-87355812D01*
X42524180Y-87319502D01*
X42634494Y-87260537D01*
X42731185Y-87181185D01*
X42810537Y-87084494D01*
X42869502Y-86974180D01*
X42905812Y-86854482D01*
X42918072Y-86730000D01*
X42918072Y-85030000D01*
X42905812Y-84905518D01*
X42869502Y-84785820D01*
X42810537Y-84675506D01*
X42731185Y-84578815D01*
X42634494Y-84499463D01*
X42524180Y-84440498D01*
X42443534Y-84416034D01*
X42527588Y-84340269D01*
X42701641Y-84106920D01*
X42826825Y-83844099D01*
X42871476Y-83696890D01*
X42750155Y-83467000D01*
X41557000Y-83467000D01*
X41557000Y-83487000D01*
X41303000Y-83487000D01*
X41303000Y-83467000D01*
X40109845Y-83467000D01*
X39988524Y-83696890D01*
X40033175Y-83844099D01*
X40158359Y-84106920D01*
X40332412Y-84340269D01*
X40416466Y-84416034D01*
X40335820Y-84440498D01*
X40225506Y-84499463D01*
X40128815Y-84578815D01*
X40049463Y-84675506D01*
X39990498Y-84785820D01*
X39954188Y-84905518D01*
X39941928Y-85030000D01*
X30660000Y-85030000D01*
X30660000Y-82354999D01*
X34963928Y-82354999D01*
X34963928Y-83055001D01*
X34980992Y-83228255D01*
X35031528Y-83394851D01*
X35113595Y-83548387D01*
X35224038Y-83682962D01*
X35358613Y-83793405D01*
X35512149Y-83875472D01*
X35678745Y-83926008D01*
X35851999Y-83943072D01*
X37102001Y-83943072D01*
X37275255Y-83926008D01*
X37441851Y-83875472D01*
X37595387Y-83793405D01*
X37729962Y-83682962D01*
X37840405Y-83548387D01*
X37922472Y-83394851D01*
X37973008Y-83228255D01*
X37990072Y-83055001D01*
X37990072Y-82983110D01*
X39988524Y-82983110D01*
X40109845Y-83213000D01*
X41303000Y-83213000D01*
X41303000Y-82019186D01*
X41073109Y-81898519D01*
X40798748Y-81995843D01*
X40548645Y-82144822D01*
X40332412Y-82339731D01*
X40158359Y-82573080D01*
X40033175Y-82835901D01*
X39988524Y-82983110D01*
X37990072Y-82983110D01*
X37990072Y-82354999D01*
X37973008Y-82181745D01*
X37922472Y-82015149D01*
X37840405Y-81861613D01*
X37729962Y-81727038D01*
X37595387Y-81616595D01*
X37590594Y-81614033D01*
X37715078Y-81488474D01*
X37849421Y-81285533D01*
X37941591Y-81060282D01*
X37945462Y-81022609D01*
X37820731Y-80832000D01*
X36604000Y-80832000D01*
X36604000Y-80852000D01*
X36350000Y-80852000D01*
X36350000Y-80832000D01*
X35133269Y-80832000D01*
X35008538Y-81022609D01*
X35012409Y-81060282D01*
X35104579Y-81285533D01*
X35238922Y-81488474D01*
X35363406Y-81614033D01*
X35358613Y-81616595D01*
X35224038Y-81727038D01*
X35113595Y-81861613D01*
X35031528Y-82015149D01*
X34980992Y-82181745D01*
X34963928Y-82354999D01*
X30660000Y-82354999D01*
X30660000Y-80387391D01*
X35008538Y-80387391D01*
X35133269Y-80578000D01*
X36350000Y-80578000D01*
X36350000Y-79470000D01*
X36604000Y-79470000D01*
X36604000Y-80578000D01*
X37820731Y-80578000D01*
X37945462Y-80387391D01*
X37941591Y-80349718D01*
X37849421Y-80124467D01*
X37715078Y-79921526D01*
X37543725Y-79748693D01*
X37341946Y-79612610D01*
X37117496Y-79518507D01*
X36879000Y-79470000D01*
X36604000Y-79470000D01*
X36350000Y-79470000D01*
X36075000Y-79470000D01*
X35836504Y-79518507D01*
X35612054Y-79612610D01*
X35410275Y-79748693D01*
X35238922Y-79921526D01*
X35104579Y-80124467D01*
X35012409Y-80349718D01*
X35008538Y-80387391D01*
X30660000Y-80387391D01*
X30660000Y-57305000D01*
X31047815Y-57305000D01*
X31076487Y-57596111D01*
X31161401Y-57876034D01*
X31299294Y-58134014D01*
X31484866Y-58360134D01*
X31710986Y-58545706D01*
X31765791Y-58575000D01*
X31710986Y-58604294D01*
X31484866Y-58789866D01*
X31299294Y-59015986D01*
X31161401Y-59273966D01*
X31076487Y-59553889D01*
X31047815Y-59845000D01*
X31076487Y-60136111D01*
X31161401Y-60416034D01*
X31299294Y-60674014D01*
X31484866Y-60900134D01*
X31710986Y-61085706D01*
X31968966Y-61223599D01*
X32248889Y-61308513D01*
X32467050Y-61330000D01*
X32612950Y-61330000D01*
X32831111Y-61308513D01*
X33111034Y-61223599D01*
X33369014Y-61085706D01*
X33595134Y-60900134D01*
X33780706Y-60674014D01*
X33918599Y-60416034D01*
X34003513Y-60136111D01*
X34032185Y-59845000D01*
X34003513Y-59553889D01*
X33918599Y-59273966D01*
X33780706Y-59015986D01*
X33595134Y-58789866D01*
X33369014Y-58604294D01*
X33314209Y-58575000D01*
X33369014Y-58545706D01*
X33595134Y-58360134D01*
X33780706Y-58134014D01*
X33918599Y-57876034D01*
X34003513Y-57596111D01*
X34032185Y-57305000D01*
X34003513Y-57013889D01*
X33918599Y-56733966D01*
X33780706Y-56475986D01*
X33595134Y-56249866D01*
X33565313Y-56225393D01*
X33634180Y-56204502D01*
X33744494Y-56145537D01*
X33841185Y-56066185D01*
X33920537Y-55969494D01*
X33979502Y-55859180D01*
X34015812Y-55739482D01*
X34028072Y-55615000D01*
X34028072Y-53915000D01*
X34015812Y-53790518D01*
X33979502Y-53670820D01*
X33920537Y-53560506D01*
X33841185Y-53463815D01*
X33744494Y-53384463D01*
X33634180Y-53325498D01*
X33514482Y-53289188D01*
X33390000Y-53276928D01*
X31690000Y-53276928D01*
X31565518Y-53289188D01*
X31445820Y-53325498D01*
X31335506Y-53384463D01*
X31238815Y-53463815D01*
X31159463Y-53560506D01*
X31100498Y-53670820D01*
X31064188Y-53790518D01*
X31051928Y-53915000D01*
X31051928Y-55615000D01*
X31064188Y-55739482D01*
X31100498Y-55859180D01*
X31159463Y-55969494D01*
X31238815Y-56066185D01*
X31335506Y-56145537D01*
X31445820Y-56204502D01*
X31514687Y-56225393D01*
X31484866Y-56249866D01*
X31299294Y-56475986D01*
X31161401Y-56733966D01*
X31076487Y-57013889D01*
X31047815Y-57305000D01*
X30660000Y-57305000D01*
X30660000Y-50320000D01*
X31098057Y-50320000D01*
X31125764Y-50601309D01*
X31207818Y-50871808D01*
X31341068Y-51121101D01*
X31520392Y-51339608D01*
X31738899Y-51518932D01*
X31988192Y-51652182D01*
X32258691Y-51734236D01*
X32469508Y-51755000D01*
X32610492Y-51755000D01*
X32821309Y-51734236D01*
X33091808Y-51652182D01*
X33341101Y-51518932D01*
X33559608Y-51339608D01*
X33738932Y-51121101D01*
X33872182Y-50871808D01*
X33954236Y-50601309D01*
X33981943Y-50320000D01*
X33954236Y-50038691D01*
X33872182Y-49768192D01*
X33738932Y-49518899D01*
X33559608Y-49300392D01*
X33341101Y-49121068D01*
X33091808Y-48987818D01*
X32821309Y-48905764D01*
X32610492Y-48885000D01*
X32469508Y-48885000D01*
X32258691Y-48905764D01*
X31988192Y-48987818D01*
X31738899Y-49121068D01*
X31520392Y-49300392D01*
X31341068Y-49518899D01*
X31207818Y-49768192D01*
X31125764Y-50038691D01*
X31098057Y-50320000D01*
X30660000Y-50320000D01*
X30660000Y-43622017D01*
X35678090Y-43622017D01*
X35719078Y-43894133D01*
X35812364Y-44153023D01*
X35874344Y-44268980D01*
X36114435Y-44335960D01*
X36900395Y-43550000D01*
X37259605Y-43550000D01*
X38045565Y-44335960D01*
X38285656Y-44268980D01*
X38402756Y-44019952D01*
X38469023Y-43752865D01*
X38481910Y-43477983D01*
X38440922Y-43205867D01*
X38347636Y-42946977D01*
X38285656Y-42831020D01*
X38045565Y-42764040D01*
X37259605Y-43550000D01*
X36900395Y-43550000D01*
X36114435Y-42764040D01*
X35874344Y-42831020D01*
X35757244Y-43080048D01*
X35690977Y-43347135D01*
X35678090Y-43622017D01*
X30660000Y-43622017D01*
X30660000Y-40018665D01*
X31105000Y-40018665D01*
X31105000Y-40301335D01*
X31160147Y-40578574D01*
X31268320Y-40839727D01*
X31425363Y-41074759D01*
X31625241Y-41274637D01*
X31860273Y-41431680D01*
X32121426Y-41539853D01*
X32398665Y-41595000D01*
X32681335Y-41595000D01*
X32958574Y-41539853D01*
X33219727Y-41431680D01*
X33454759Y-41274637D01*
X33654637Y-41074759D01*
X33789843Y-40872408D01*
X35683000Y-40872408D01*
X35683000Y-41147592D01*
X35736686Y-41417490D01*
X35841995Y-41671727D01*
X35994880Y-41900535D01*
X36189465Y-42095120D01*
X36418273Y-42248005D01*
X36489943Y-42277692D01*
X36476977Y-42282364D01*
X36361020Y-42344344D01*
X36294040Y-42584435D01*
X37080000Y-43370395D01*
X37865960Y-42584435D01*
X37798980Y-42344344D01*
X37663240Y-42280515D01*
X37741727Y-42248005D01*
X37970535Y-42095120D01*
X38165120Y-41900535D01*
X38318005Y-41671727D01*
X38423314Y-41417490D01*
X38477000Y-41147592D01*
X38477000Y-40872408D01*
X38423314Y-40602510D01*
X38318005Y-40348273D01*
X38165120Y-40119465D01*
X37970535Y-39924880D01*
X37741727Y-39771995D01*
X37487490Y-39666686D01*
X37217592Y-39613000D01*
X36942408Y-39613000D01*
X36672510Y-39666686D01*
X36418273Y-39771995D01*
X36189465Y-39924880D01*
X35994880Y-40119465D01*
X35841995Y-40348273D01*
X35736686Y-40602510D01*
X35683000Y-40872408D01*
X33789843Y-40872408D01*
X33811680Y-40839727D01*
X33919853Y-40578574D01*
X33975000Y-40301335D01*
X33975000Y-40018665D01*
X33919853Y-39741426D01*
X33811680Y-39480273D01*
X33654637Y-39245241D01*
X33454759Y-39045363D01*
X33219727Y-38888320D01*
X32958574Y-38780147D01*
X32681335Y-38725000D01*
X32398665Y-38725000D01*
X32121426Y-38780147D01*
X31860273Y-38888320D01*
X31625241Y-39045363D01*
X31425363Y-39245241D01*
X31268320Y-39480273D01*
X31160147Y-39741426D01*
X31105000Y-40018665D01*
X30660000Y-40018665D01*
X30660000Y-35414336D01*
X30785794Y-35718029D01*
X31182725Y-36312078D01*
X31687922Y-36817275D01*
X32281971Y-37214206D01*
X32942043Y-37487617D01*
X33642772Y-37627000D01*
X34357228Y-37627000D01*
X35057957Y-37487617D01*
X35718029Y-37214206D01*
X36312078Y-36817275D01*
X36779353Y-36350000D01*
X40156928Y-36350000D01*
X40156928Y-37874000D01*
X40169188Y-37998482D01*
X40205498Y-38118180D01*
X40264463Y-38228494D01*
X40343815Y-38325185D01*
X40440506Y-38404537D01*
X40550820Y-38463502D01*
X40670518Y-38499812D01*
X40795000Y-38512072D01*
X42319000Y-38512072D01*
X42443482Y-38499812D01*
X42563180Y-38463502D01*
X42673494Y-38404537D01*
X42770185Y-38325185D01*
X42849537Y-38228494D01*
X42908502Y-38118180D01*
X42944812Y-37998482D01*
X42957072Y-37874000D01*
X42957072Y-36350000D01*
X42944812Y-36225518D01*
X42908502Y-36105820D01*
X42849537Y-35995506D01*
X42770185Y-35898815D01*
X42673494Y-35819463D01*
X42563180Y-35760498D01*
X42443482Y-35724188D01*
X42319000Y-35711928D01*
X40795000Y-35711928D01*
X40670518Y-35724188D01*
X40550820Y-35760498D01*
X40440506Y-35819463D01*
X40343815Y-35898815D01*
X40264463Y-35995506D01*
X40205498Y-36105820D01*
X40169188Y-36225518D01*
X40156928Y-36350000D01*
X36779353Y-36350000D01*
X36817275Y-36312078D01*
X37214206Y-35718029D01*
X37487617Y-35057957D01*
X37627000Y-34357228D01*
X37627000Y-33642772D01*
X37487617Y-32942043D01*
X37214206Y-32281971D01*
X36817275Y-31687922D01*
X36312078Y-31182725D01*
X35718029Y-30785794D01*
X35414336Y-30660000D01*
X40634964Y-30660000D01*
X40420421Y-30921423D01*
G36*
X123878400Y-74779890D02*
G01*
X107799891Y-90858400D01*
X78144506Y-90858400D01*
X78198816Y-90668421D01*
X77400000Y-89869605D01*
X76601184Y-90668421D01*
X76655494Y-90858400D01*
X75658299Y-90858400D01*
X75762010Y-90789103D01*
X75959103Y-90592010D01*
X76113957Y-90360254D01*
X76128777Y-90324475D01*
X76179651Y-90419655D01*
X76421579Y-90488816D01*
X77220395Y-89690000D01*
X77206253Y-89675858D01*
X77385858Y-89496253D01*
X77400000Y-89510395D01*
X77414143Y-89496253D01*
X77593748Y-89675858D01*
X77579605Y-89690000D01*
X78378421Y-90488816D01*
X78620349Y-90419655D01*
X78739248Y-90167557D01*
X78806681Y-89897106D01*
X78820057Y-89618697D01*
X78778860Y-89343028D01*
X78771854Y-89323514D01*
X107266903Y-89323514D01*
X107303086Y-89327078D01*
X107339269Y-89323514D01*
X107339272Y-89323514D01*
X107447485Y-89312856D01*
X107586335Y-89270736D01*
X107714299Y-89202338D01*
X107826461Y-89110289D01*
X107849532Y-89082177D01*
X123878400Y-73053310D01*
X123878400Y-74779890D01*
X123878400Y-74779890D01*
G37*
X123878400Y-74779890D02*
X107799891Y-90858400D01*
X78144506Y-90858400D01*
X78198816Y-90668421D01*
X77400000Y-89869605D01*
X76601184Y-90668421D01*
X76655494Y-90858400D01*
X75658299Y-90858400D01*
X75762010Y-90789103D01*
X75959103Y-90592010D01*
X76113957Y-90360254D01*
X76128777Y-90324475D01*
X76179651Y-90419655D01*
X76421579Y-90488816D01*
X77220395Y-89690000D01*
X77206253Y-89675858D01*
X77385858Y-89496253D01*
X77400000Y-89510395D01*
X77414143Y-89496253D01*
X77593748Y-89675858D01*
X77579605Y-89690000D01*
X78378421Y-90488816D01*
X78620349Y-90419655D01*
X78739248Y-90167557D01*
X78806681Y-89897106D01*
X78820057Y-89618697D01*
X78778860Y-89343028D01*
X78771854Y-89323514D01*
X107266903Y-89323514D01*
X107303086Y-89327078D01*
X107339269Y-89323514D01*
X107339272Y-89323514D01*
X107447485Y-89312856D01*
X107586335Y-89270736D01*
X107714299Y-89202338D01*
X107826461Y-89110289D01*
X107849532Y-89082177D01*
X123878400Y-73053310D01*
X123878400Y-74779890D01*
M02*
