G04 #@! TF.GenerationSoftware,KiCad,Pcbnew,(5.1.4)-1*
G04 #@! TF.CreationDate,2019-11-03T17:56:11-05:00*
G04 #@! TF.ProjectId,MorseTutor4,4d6f7273-6554-4757-946f-72342e6b6963,rev?*
G04 #@! TF.SameCoordinates,Original*
G04 #@! TF.FileFunction,Soldermask,Bot*
G04 #@! TF.FilePolarity,Negative*
%FSLAX46Y46*%
G04 Gerber Fmt 4.6, Leading zero omitted, Abs format (unit mm)*
G04 Created by KiCad (PCBNEW (5.1.4)-1) date 2019-11-03 17:56:11*
%MOMM*%
%LPD*%
G04 APERTURE LIST*
%ADD10C,0.100000*%
G04 APERTURE END LIST*
D10*
G36*
X126452352Y-122508796D02*
G01*
X126734579Y-122625699D01*
X126988578Y-122795415D01*
X127204585Y-123011422D01*
X127374301Y-123265421D01*
X127491204Y-123547648D01*
X127550800Y-123847259D01*
X127550800Y-124152741D01*
X127491204Y-124452352D01*
X127374301Y-124734579D01*
X127204585Y-124988578D01*
X126988578Y-125204585D01*
X126734579Y-125374301D01*
X126452352Y-125491204D01*
X126152741Y-125550800D01*
X125847259Y-125550800D01*
X125547648Y-125491204D01*
X125265421Y-125374301D01*
X125011422Y-125204585D01*
X124795415Y-124988578D01*
X124625699Y-124734579D01*
X124508796Y-124452352D01*
X124449200Y-124152741D01*
X124449200Y-123847259D01*
X124508796Y-123547648D01*
X124625699Y-123265421D01*
X124795415Y-123011422D01*
X125011422Y-122795415D01*
X125265421Y-122625699D01*
X125547648Y-122508796D01*
X125847259Y-122449200D01*
X126152741Y-122449200D01*
X126452352Y-122508796D01*
X126452352Y-122508796D01*
G37*
G36*
X34452352Y-122508796D02*
G01*
X34734579Y-122625699D01*
X34988578Y-122795415D01*
X35204585Y-123011422D01*
X35374301Y-123265421D01*
X35491204Y-123547648D01*
X35550800Y-123847259D01*
X35550800Y-124152741D01*
X35491204Y-124452352D01*
X35374301Y-124734579D01*
X35204585Y-124988578D01*
X34988578Y-125204585D01*
X34734579Y-125374301D01*
X34452352Y-125491204D01*
X34152741Y-125550800D01*
X33847259Y-125550800D01*
X33547648Y-125491204D01*
X33265421Y-125374301D01*
X33011422Y-125204585D01*
X32795415Y-124988578D01*
X32625699Y-124734579D01*
X32508796Y-124452352D01*
X32449200Y-124152741D01*
X32449200Y-123847259D01*
X32508796Y-123547648D01*
X32625699Y-123265421D01*
X32795415Y-123011422D01*
X33011422Y-122795415D01*
X33265421Y-122625699D01*
X33547648Y-122508796D01*
X33847259Y-122449200D01*
X34152741Y-122449200D01*
X34452352Y-122508796D01*
X34452352Y-122508796D01*
G37*
G36*
X67631782Y-119331510D02*
G01*
X67631785Y-119331511D01*
X67631786Y-119331511D01*
X67698014Y-119351601D01*
X67792163Y-119380161D01*
X67859271Y-119416031D01*
X67939966Y-119459163D01*
X68069517Y-119565483D01*
X68175837Y-119695034D01*
X68214301Y-119766995D01*
X68254839Y-119842837D01*
X68303490Y-120003218D01*
X68319917Y-120170000D01*
X68303490Y-120336782D01*
X68254839Y-120497163D01*
X68215338Y-120571064D01*
X68175837Y-120644966D01*
X68069517Y-120774517D01*
X67939966Y-120880837D01*
X67866064Y-120920338D01*
X67792163Y-120959839D01*
X67698986Y-120988104D01*
X67631786Y-121008489D01*
X67631785Y-121008489D01*
X67631782Y-121008490D01*
X67506796Y-121020800D01*
X67423204Y-121020800D01*
X67298218Y-121008490D01*
X67298215Y-121008489D01*
X67298214Y-121008489D01*
X67231014Y-120988104D01*
X67137837Y-120959839D01*
X67063936Y-120920338D01*
X66990034Y-120880837D01*
X66860483Y-120774517D01*
X66754163Y-120644966D01*
X66714662Y-120571064D01*
X66675161Y-120497163D01*
X66626510Y-120336782D01*
X66610083Y-120170000D01*
X66626510Y-120003218D01*
X66675161Y-119842837D01*
X66715699Y-119766995D01*
X66754163Y-119695034D01*
X66860483Y-119565483D01*
X66990034Y-119459163D01*
X67070729Y-119416031D01*
X67137837Y-119380161D01*
X67231986Y-119351601D01*
X67298214Y-119331511D01*
X67298215Y-119331511D01*
X67298218Y-119331510D01*
X67423204Y-119319200D01*
X67506796Y-119319200D01*
X67631782Y-119331510D01*
X67631782Y-119331510D01*
G37*
G36*
X77873169Y-119351895D02*
G01*
X78028005Y-119416031D01*
X78167354Y-119509140D01*
X78285860Y-119627646D01*
X78378969Y-119766995D01*
X78443105Y-119921831D01*
X78475800Y-120086203D01*
X78475800Y-120253797D01*
X78443105Y-120418169D01*
X78378969Y-120573005D01*
X78285860Y-120712354D01*
X78167354Y-120830860D01*
X78028005Y-120923969D01*
X77873169Y-120988105D01*
X77708797Y-121020800D01*
X77541203Y-121020800D01*
X77376831Y-120988105D01*
X77221995Y-120923969D01*
X77082646Y-120830860D01*
X76964140Y-120712354D01*
X76871031Y-120573005D01*
X76806895Y-120418169D01*
X76774200Y-120253797D01*
X76774200Y-120086203D01*
X76806895Y-119921831D01*
X76871031Y-119766995D01*
X76964140Y-119627646D01*
X77082646Y-119509140D01*
X77221995Y-119416031D01*
X77376831Y-119351895D01*
X77541203Y-119319200D01*
X77708797Y-119319200D01*
X77873169Y-119351895D01*
X77873169Y-119351895D01*
G37*
G36*
X119816508Y-114094582D02*
G01*
X120007741Y-114173793D01*
X120179847Y-114288791D01*
X120326209Y-114435153D01*
X120441207Y-114607259D01*
X120520418Y-114798492D01*
X120560800Y-115001505D01*
X120560800Y-115208495D01*
X120520418Y-115411508D01*
X120441207Y-115602741D01*
X120326209Y-115774847D01*
X120179847Y-115921209D01*
X120007741Y-116036207D01*
X119816508Y-116115418D01*
X119613495Y-116155800D01*
X119406505Y-116155800D01*
X119203492Y-116115418D01*
X119012259Y-116036207D01*
X118840153Y-115921209D01*
X118693791Y-115774847D01*
X118578793Y-115602741D01*
X118499582Y-115411508D01*
X118459200Y-115208495D01*
X118459200Y-115001505D01*
X118499582Y-114798492D01*
X118578793Y-114607259D01*
X118693791Y-114435153D01*
X118840153Y-114288791D01*
X119012259Y-114173793D01*
X119203492Y-114094582D01*
X119406505Y-114054200D01*
X119613495Y-114054200D01*
X119816508Y-114094582D01*
X119816508Y-114094582D01*
G37*
G36*
X114816508Y-114094582D02*
G01*
X115007741Y-114173793D01*
X115179847Y-114288791D01*
X115326209Y-114435153D01*
X115441207Y-114607259D01*
X115520418Y-114798492D01*
X115560800Y-115001505D01*
X115560800Y-115208495D01*
X115520418Y-115411508D01*
X115441207Y-115602741D01*
X115326209Y-115774847D01*
X115179847Y-115921209D01*
X115007741Y-116036207D01*
X114816508Y-116115418D01*
X114613495Y-116155800D01*
X114406505Y-116155800D01*
X114203492Y-116115418D01*
X114012259Y-116036207D01*
X113840153Y-115921209D01*
X113693791Y-115774847D01*
X113578793Y-115602741D01*
X113499582Y-115411508D01*
X113459200Y-115208495D01*
X113459200Y-115001505D01*
X113499582Y-114798492D01*
X113578793Y-114607259D01*
X113693791Y-114435153D01*
X113840153Y-114288791D01*
X114012259Y-114173793D01*
X114203492Y-114094582D01*
X114406505Y-114054200D01*
X114613495Y-114054200D01*
X114816508Y-114094582D01*
X114816508Y-114094582D01*
G37*
G36*
X47162336Y-114291127D02*
G01*
X47313532Y-114353754D01*
X47449606Y-114444676D01*
X47565324Y-114560394D01*
X47656246Y-114696468D01*
X47718873Y-114847664D01*
X47750800Y-115008173D01*
X47750800Y-115171827D01*
X47718873Y-115332336D01*
X47656246Y-115483532D01*
X47565324Y-115619606D01*
X47449606Y-115735324D01*
X47313532Y-115826246D01*
X47162336Y-115888873D01*
X47001827Y-115920800D01*
X46838173Y-115920800D01*
X46677664Y-115888873D01*
X46526468Y-115826246D01*
X46390394Y-115735324D01*
X46274676Y-115619606D01*
X46183754Y-115483532D01*
X46121127Y-115332336D01*
X46089200Y-115171827D01*
X46089200Y-115008173D01*
X46121127Y-114847664D01*
X46183754Y-114696468D01*
X46274676Y-114560394D01*
X46390394Y-114444676D01*
X46526468Y-114353754D01*
X46677664Y-114291127D01*
X46838173Y-114259200D01*
X47001827Y-114259200D01*
X47162336Y-114291127D01*
X47162336Y-114291127D01*
G37*
G36*
X57322336Y-114291127D02*
G01*
X57473532Y-114353754D01*
X57609606Y-114444676D01*
X57725324Y-114560394D01*
X57816246Y-114696468D01*
X57878873Y-114847664D01*
X57910800Y-115008173D01*
X57910800Y-115171827D01*
X57878873Y-115332336D01*
X57816246Y-115483532D01*
X57725324Y-115619606D01*
X57609606Y-115735324D01*
X57473532Y-115826246D01*
X57322336Y-115888873D01*
X57161827Y-115920800D01*
X56998173Y-115920800D01*
X56837664Y-115888873D01*
X56686468Y-115826246D01*
X56550394Y-115735324D01*
X56434676Y-115619606D01*
X56343754Y-115483532D01*
X56281127Y-115332336D01*
X56249200Y-115171827D01*
X56249200Y-115008173D01*
X56281127Y-114847664D01*
X56343754Y-114696468D01*
X56434676Y-114560394D01*
X56550394Y-114444676D01*
X56686468Y-114353754D01*
X56837664Y-114291127D01*
X56998173Y-114259200D01*
X57161827Y-114259200D01*
X57322336Y-114291127D01*
X57322336Y-114291127D01*
G37*
G36*
X54782336Y-114291127D02*
G01*
X54933532Y-114353754D01*
X55069606Y-114444676D01*
X55185324Y-114560394D01*
X55276246Y-114696468D01*
X55338873Y-114847664D01*
X55370800Y-115008173D01*
X55370800Y-115171827D01*
X55338873Y-115332336D01*
X55276246Y-115483532D01*
X55185324Y-115619606D01*
X55069606Y-115735324D01*
X54933532Y-115826246D01*
X54782336Y-115888873D01*
X54621827Y-115920800D01*
X54458173Y-115920800D01*
X54297664Y-115888873D01*
X54146468Y-115826246D01*
X54010394Y-115735324D01*
X53894676Y-115619606D01*
X53803754Y-115483532D01*
X53741127Y-115332336D01*
X53709200Y-115171827D01*
X53709200Y-115008173D01*
X53741127Y-114847664D01*
X53803754Y-114696468D01*
X53894676Y-114560394D01*
X54010394Y-114444676D01*
X54146468Y-114353754D01*
X54297664Y-114291127D01*
X54458173Y-114259200D01*
X54621827Y-114259200D01*
X54782336Y-114291127D01*
X54782336Y-114291127D01*
G37*
G36*
X52242336Y-114291127D02*
G01*
X52393532Y-114353754D01*
X52529606Y-114444676D01*
X52645324Y-114560394D01*
X52736246Y-114696468D01*
X52798873Y-114847664D01*
X52830800Y-115008173D01*
X52830800Y-115171827D01*
X52798873Y-115332336D01*
X52736246Y-115483532D01*
X52645324Y-115619606D01*
X52529606Y-115735324D01*
X52393532Y-115826246D01*
X52242336Y-115888873D01*
X52081827Y-115920800D01*
X51918173Y-115920800D01*
X51757664Y-115888873D01*
X51606468Y-115826246D01*
X51470394Y-115735324D01*
X51354676Y-115619606D01*
X51263754Y-115483532D01*
X51201127Y-115332336D01*
X51169200Y-115171827D01*
X51169200Y-115008173D01*
X51201127Y-114847664D01*
X51263754Y-114696468D01*
X51354676Y-114560394D01*
X51470394Y-114444676D01*
X51606468Y-114353754D01*
X51757664Y-114291127D01*
X51918173Y-114259200D01*
X52081827Y-114259200D01*
X52242336Y-114291127D01*
X52242336Y-114291127D01*
G37*
G36*
X49702336Y-114291127D02*
G01*
X49853532Y-114353754D01*
X49989606Y-114444676D01*
X50105324Y-114560394D01*
X50196246Y-114696468D01*
X50258873Y-114847664D01*
X50290800Y-115008173D01*
X50290800Y-115171827D01*
X50258873Y-115332336D01*
X50196246Y-115483532D01*
X50105324Y-115619606D01*
X49989606Y-115735324D01*
X49853532Y-115826246D01*
X49702336Y-115888873D01*
X49541827Y-115920800D01*
X49378173Y-115920800D01*
X49217664Y-115888873D01*
X49066468Y-115826246D01*
X48930394Y-115735324D01*
X48814676Y-115619606D01*
X48723754Y-115483532D01*
X48661127Y-115332336D01*
X48629200Y-115171827D01*
X48629200Y-115008173D01*
X48661127Y-114847664D01*
X48723754Y-114696468D01*
X48814676Y-114560394D01*
X48930394Y-114444676D01*
X49066468Y-114353754D01*
X49217664Y-114291127D01*
X49378173Y-114259200D01*
X49541827Y-114259200D01*
X49702336Y-114291127D01*
X49702336Y-114291127D01*
G37*
G36*
X44622336Y-114291127D02*
G01*
X44773532Y-114353754D01*
X44909606Y-114444676D01*
X45025324Y-114560394D01*
X45116246Y-114696468D01*
X45178873Y-114847664D01*
X45210800Y-115008173D01*
X45210800Y-115171827D01*
X45178873Y-115332336D01*
X45116246Y-115483532D01*
X45025324Y-115619606D01*
X44909606Y-115735324D01*
X44773532Y-115826246D01*
X44622336Y-115888873D01*
X44461827Y-115920800D01*
X44298173Y-115920800D01*
X44137664Y-115888873D01*
X43986468Y-115826246D01*
X43850394Y-115735324D01*
X43734676Y-115619606D01*
X43643754Y-115483532D01*
X43581127Y-115332336D01*
X43549200Y-115171827D01*
X43549200Y-115008173D01*
X43581127Y-114847664D01*
X43643754Y-114696468D01*
X43734676Y-114560394D01*
X43850394Y-114444676D01*
X43986468Y-114353754D01*
X44137664Y-114291127D01*
X44298173Y-114259200D01*
X44461827Y-114259200D01*
X44622336Y-114291127D01*
X44622336Y-114291127D01*
G37*
G36*
X42082336Y-114291127D02*
G01*
X42233532Y-114353754D01*
X42369606Y-114444676D01*
X42485324Y-114560394D01*
X42576246Y-114696468D01*
X42638873Y-114847664D01*
X42670800Y-115008173D01*
X42670800Y-115171827D01*
X42638873Y-115332336D01*
X42576246Y-115483532D01*
X42485324Y-115619606D01*
X42369606Y-115735324D01*
X42233532Y-115826246D01*
X42082336Y-115888873D01*
X41921827Y-115920800D01*
X41758173Y-115920800D01*
X41597664Y-115888873D01*
X41446468Y-115826246D01*
X41310394Y-115735324D01*
X41194676Y-115619606D01*
X41103754Y-115483532D01*
X41041127Y-115332336D01*
X41009200Y-115171827D01*
X41009200Y-115008173D01*
X41041127Y-114847664D01*
X41103754Y-114696468D01*
X41194676Y-114560394D01*
X41310394Y-114444676D01*
X41446468Y-114353754D01*
X41597664Y-114291127D01*
X41758173Y-114259200D01*
X41921827Y-114259200D01*
X42082336Y-114291127D01*
X42082336Y-114291127D01*
G37*
G36*
X39542336Y-114291127D02*
G01*
X39693532Y-114353754D01*
X39829606Y-114444676D01*
X39945324Y-114560394D01*
X40036246Y-114696468D01*
X40098873Y-114847664D01*
X40130800Y-115008173D01*
X40130800Y-115171827D01*
X40098873Y-115332336D01*
X40036246Y-115483532D01*
X39945324Y-115619606D01*
X39829606Y-115735324D01*
X39693532Y-115826246D01*
X39542336Y-115888873D01*
X39381827Y-115920800D01*
X39218173Y-115920800D01*
X39057664Y-115888873D01*
X38906468Y-115826246D01*
X38770394Y-115735324D01*
X38654676Y-115619606D01*
X38563754Y-115483532D01*
X38501127Y-115332336D01*
X38469200Y-115171827D01*
X38469200Y-115008173D01*
X38501127Y-114847664D01*
X38563754Y-114696468D01*
X38654676Y-114560394D01*
X38770394Y-114444676D01*
X38906468Y-114353754D01*
X39057664Y-114291127D01*
X39218173Y-114259200D01*
X39381827Y-114259200D01*
X39542336Y-114291127D01*
X39542336Y-114291127D01*
G37*
G36*
X37002336Y-114291127D02*
G01*
X37153532Y-114353754D01*
X37289606Y-114444676D01*
X37405324Y-114560394D01*
X37496246Y-114696468D01*
X37558873Y-114847664D01*
X37590800Y-115008173D01*
X37590800Y-115171827D01*
X37558873Y-115332336D01*
X37496246Y-115483532D01*
X37405324Y-115619606D01*
X37289606Y-115735324D01*
X37153532Y-115826246D01*
X37002336Y-115888873D01*
X36841827Y-115920800D01*
X36678173Y-115920800D01*
X36517664Y-115888873D01*
X36366468Y-115826246D01*
X36230394Y-115735324D01*
X36114676Y-115619606D01*
X36023754Y-115483532D01*
X35961127Y-115332336D01*
X35929200Y-115171827D01*
X35929200Y-115008173D01*
X35961127Y-114847664D01*
X36023754Y-114696468D01*
X36114676Y-114560394D01*
X36230394Y-114444676D01*
X36366468Y-114353754D01*
X36517664Y-114291127D01*
X36678173Y-114259200D01*
X36841827Y-114259200D01*
X37002336Y-114291127D01*
X37002336Y-114291127D01*
G37*
G36*
X59862336Y-114291127D02*
G01*
X60013532Y-114353754D01*
X60149606Y-114444676D01*
X60265324Y-114560394D01*
X60356246Y-114696468D01*
X60418873Y-114847664D01*
X60450800Y-115008173D01*
X60450800Y-115171827D01*
X60418873Y-115332336D01*
X60356246Y-115483532D01*
X60265324Y-115619606D01*
X60149606Y-115735324D01*
X60013532Y-115826246D01*
X59862336Y-115888873D01*
X59701827Y-115920800D01*
X59538173Y-115920800D01*
X59377664Y-115888873D01*
X59226468Y-115826246D01*
X59090394Y-115735324D01*
X58974676Y-115619606D01*
X58883754Y-115483532D01*
X58821127Y-115332336D01*
X58789200Y-115171827D01*
X58789200Y-115008173D01*
X58821127Y-114847664D01*
X58883754Y-114696468D01*
X58974676Y-114560394D01*
X59090394Y-114444676D01*
X59226468Y-114353754D01*
X59377664Y-114291127D01*
X59538173Y-114259200D01*
X59701827Y-114259200D01*
X59862336Y-114291127D01*
X59862336Y-114291127D01*
G37*
G36*
X64942336Y-114291127D02*
G01*
X65093532Y-114353754D01*
X65229606Y-114444676D01*
X65345324Y-114560394D01*
X65436246Y-114696468D01*
X65498873Y-114847664D01*
X65530800Y-115008173D01*
X65530800Y-115171827D01*
X65498873Y-115332336D01*
X65436246Y-115483532D01*
X65345324Y-115619606D01*
X65229606Y-115735324D01*
X65093532Y-115826246D01*
X64942336Y-115888873D01*
X64781827Y-115920800D01*
X64618173Y-115920800D01*
X64457664Y-115888873D01*
X64306468Y-115826246D01*
X64170394Y-115735324D01*
X64054676Y-115619606D01*
X63963754Y-115483532D01*
X63901127Y-115332336D01*
X63869200Y-115171827D01*
X63869200Y-115008173D01*
X63901127Y-114847664D01*
X63963754Y-114696468D01*
X64054676Y-114560394D01*
X64170394Y-114444676D01*
X64306468Y-114353754D01*
X64457664Y-114291127D01*
X64618173Y-114259200D01*
X64781827Y-114259200D01*
X64942336Y-114291127D01*
X64942336Y-114291127D01*
G37*
G36*
X67482336Y-114291127D02*
G01*
X67633532Y-114353754D01*
X67769606Y-114444676D01*
X67885324Y-114560394D01*
X67976246Y-114696468D01*
X68038873Y-114847664D01*
X68070800Y-115008173D01*
X68070800Y-115171827D01*
X68038873Y-115332336D01*
X67976246Y-115483532D01*
X67885324Y-115619606D01*
X67769606Y-115735324D01*
X67633532Y-115826246D01*
X67482336Y-115888873D01*
X67321827Y-115920800D01*
X67158173Y-115920800D01*
X66997664Y-115888873D01*
X66846468Y-115826246D01*
X66710394Y-115735324D01*
X66594676Y-115619606D01*
X66503754Y-115483532D01*
X66441127Y-115332336D01*
X66409200Y-115171827D01*
X66409200Y-115008173D01*
X66441127Y-114847664D01*
X66503754Y-114696468D01*
X66594676Y-114560394D01*
X66710394Y-114444676D01*
X66846468Y-114353754D01*
X66997664Y-114291127D01*
X67158173Y-114259200D01*
X67321827Y-114259200D01*
X67482336Y-114291127D01*
X67482336Y-114291127D01*
G37*
G36*
X70022336Y-114291127D02*
G01*
X70173532Y-114353754D01*
X70309606Y-114444676D01*
X70425324Y-114560394D01*
X70516246Y-114696468D01*
X70578873Y-114847664D01*
X70610800Y-115008173D01*
X70610800Y-115171827D01*
X70578873Y-115332336D01*
X70516246Y-115483532D01*
X70425324Y-115619606D01*
X70309606Y-115735324D01*
X70173532Y-115826246D01*
X70022336Y-115888873D01*
X69861827Y-115920800D01*
X69698173Y-115920800D01*
X69537664Y-115888873D01*
X69386468Y-115826246D01*
X69250394Y-115735324D01*
X69134676Y-115619606D01*
X69043754Y-115483532D01*
X68981127Y-115332336D01*
X68949200Y-115171827D01*
X68949200Y-115008173D01*
X68981127Y-114847664D01*
X69043754Y-114696468D01*
X69134676Y-114560394D01*
X69250394Y-114444676D01*
X69386468Y-114353754D01*
X69537664Y-114291127D01*
X69698173Y-114259200D01*
X69861827Y-114259200D01*
X70022336Y-114291127D01*
X70022336Y-114291127D01*
G37*
G36*
X31922336Y-114291127D02*
G01*
X32073532Y-114353754D01*
X32209606Y-114444676D01*
X32325324Y-114560394D01*
X32416246Y-114696468D01*
X32478873Y-114847664D01*
X32510800Y-115008173D01*
X32510800Y-115171827D01*
X32478873Y-115332336D01*
X32416246Y-115483532D01*
X32325324Y-115619606D01*
X32209606Y-115735324D01*
X32073532Y-115826246D01*
X31922336Y-115888873D01*
X31761827Y-115920800D01*
X31598173Y-115920800D01*
X31437664Y-115888873D01*
X31286468Y-115826246D01*
X31150394Y-115735324D01*
X31034676Y-115619606D01*
X30943754Y-115483532D01*
X30881127Y-115332336D01*
X30849200Y-115171827D01*
X30849200Y-115008173D01*
X30881127Y-114847664D01*
X30943754Y-114696468D01*
X31034676Y-114560394D01*
X31150394Y-114444676D01*
X31286468Y-114353754D01*
X31437664Y-114291127D01*
X31598173Y-114259200D01*
X31761827Y-114259200D01*
X31922336Y-114291127D01*
X31922336Y-114291127D01*
G37*
G36*
X72562336Y-114291127D02*
G01*
X72713532Y-114353754D01*
X72849606Y-114444676D01*
X72965324Y-114560394D01*
X73056246Y-114696468D01*
X73118873Y-114847664D01*
X73150800Y-115008173D01*
X73150800Y-115171827D01*
X73118873Y-115332336D01*
X73056246Y-115483532D01*
X72965324Y-115619606D01*
X72849606Y-115735324D01*
X72713532Y-115826246D01*
X72562336Y-115888873D01*
X72401827Y-115920800D01*
X72238173Y-115920800D01*
X72077664Y-115888873D01*
X71926468Y-115826246D01*
X71790394Y-115735324D01*
X71674676Y-115619606D01*
X71583754Y-115483532D01*
X71521127Y-115332336D01*
X71489200Y-115171827D01*
X71489200Y-115008173D01*
X71521127Y-114847664D01*
X71583754Y-114696468D01*
X71674676Y-114560394D01*
X71790394Y-114444676D01*
X71926468Y-114353754D01*
X72077664Y-114291127D01*
X72238173Y-114259200D01*
X72401827Y-114259200D01*
X72562336Y-114291127D01*
X72562336Y-114291127D01*
G37*
G36*
X75102336Y-114291127D02*
G01*
X75253532Y-114353754D01*
X75389606Y-114444676D01*
X75505324Y-114560394D01*
X75596246Y-114696468D01*
X75658873Y-114847664D01*
X75690800Y-115008173D01*
X75690800Y-115171827D01*
X75658873Y-115332336D01*
X75596246Y-115483532D01*
X75505324Y-115619606D01*
X75389606Y-115735324D01*
X75253532Y-115826246D01*
X75102336Y-115888873D01*
X74941827Y-115920800D01*
X74778173Y-115920800D01*
X74617664Y-115888873D01*
X74466468Y-115826246D01*
X74330394Y-115735324D01*
X74214676Y-115619606D01*
X74123754Y-115483532D01*
X74061127Y-115332336D01*
X74029200Y-115171827D01*
X74029200Y-115008173D01*
X74061127Y-114847664D01*
X74123754Y-114696468D01*
X74214676Y-114560394D01*
X74330394Y-114444676D01*
X74466468Y-114353754D01*
X74617664Y-114291127D01*
X74778173Y-114259200D01*
X74941827Y-114259200D01*
X75102336Y-114291127D01*
X75102336Y-114291127D01*
G37*
G36*
X78230800Y-115920800D02*
G01*
X76569200Y-115920800D01*
X76569200Y-114259200D01*
X78230800Y-114259200D01*
X78230800Y-115920800D01*
X78230800Y-115920800D01*
G37*
G36*
X62402336Y-114291127D02*
G01*
X62553532Y-114353754D01*
X62689606Y-114444676D01*
X62805324Y-114560394D01*
X62896246Y-114696468D01*
X62958873Y-114847664D01*
X62990800Y-115008173D01*
X62990800Y-115171827D01*
X62958873Y-115332336D01*
X62896246Y-115483532D01*
X62805324Y-115619606D01*
X62689606Y-115735324D01*
X62553532Y-115826246D01*
X62402336Y-115888873D01*
X62241827Y-115920800D01*
X62078173Y-115920800D01*
X61917664Y-115888873D01*
X61766468Y-115826246D01*
X61630394Y-115735324D01*
X61514676Y-115619606D01*
X61423754Y-115483532D01*
X61361127Y-115332336D01*
X61329200Y-115171827D01*
X61329200Y-115008173D01*
X61361127Y-114847664D01*
X61423754Y-114696468D01*
X61514676Y-114560394D01*
X61630394Y-114444676D01*
X61766468Y-114353754D01*
X61917664Y-114291127D01*
X62078173Y-114259200D01*
X62241827Y-114259200D01*
X62402336Y-114291127D01*
X62402336Y-114291127D01*
G37*
G36*
X34462336Y-114291127D02*
G01*
X34613532Y-114353754D01*
X34749606Y-114444676D01*
X34865324Y-114560394D01*
X34956246Y-114696468D01*
X35018873Y-114847664D01*
X35050800Y-115008173D01*
X35050800Y-115171827D01*
X35018873Y-115332336D01*
X34956246Y-115483532D01*
X34865324Y-115619606D01*
X34749606Y-115735324D01*
X34613532Y-115826246D01*
X34462336Y-115888873D01*
X34301827Y-115920800D01*
X34138173Y-115920800D01*
X33977664Y-115888873D01*
X33826468Y-115826246D01*
X33690394Y-115735324D01*
X33574676Y-115619606D01*
X33483754Y-115483532D01*
X33421127Y-115332336D01*
X33389200Y-115171827D01*
X33389200Y-115008173D01*
X33421127Y-114847664D01*
X33483754Y-114696468D01*
X33574676Y-114560394D01*
X33690394Y-114444676D01*
X33826468Y-114353754D01*
X33977664Y-114291127D01*
X34138173Y-114259200D01*
X34301827Y-114259200D01*
X34462336Y-114291127D01*
X34462336Y-114291127D01*
G37*
G36*
X93777338Y-113955738D02*
G01*
X93950373Y-114027412D01*
X94106100Y-114131465D01*
X94238535Y-114263900D01*
X94342588Y-114419627D01*
X94414262Y-114592662D01*
X94450800Y-114776354D01*
X94450800Y-114963646D01*
X94414262Y-115147338D01*
X94342588Y-115320373D01*
X94238535Y-115476100D01*
X94106100Y-115608535D01*
X93950373Y-115712588D01*
X93777338Y-115784262D01*
X93593646Y-115820800D01*
X93406354Y-115820800D01*
X93222662Y-115784262D01*
X93049627Y-115712588D01*
X92893900Y-115608535D01*
X92761465Y-115476100D01*
X92657412Y-115320373D01*
X92585738Y-115147338D01*
X92549200Y-114963646D01*
X92549200Y-114776354D01*
X92585738Y-114592662D01*
X92657412Y-114419627D01*
X92761465Y-114263900D01*
X92893900Y-114131465D01*
X93049627Y-114027412D01*
X93222662Y-113955738D01*
X93406354Y-113919200D01*
X93593646Y-113919200D01*
X93777338Y-113955738D01*
X93777338Y-113955738D01*
G37*
G36*
X91277338Y-113955738D02*
G01*
X91450373Y-114027412D01*
X91606100Y-114131465D01*
X91738535Y-114263900D01*
X91842588Y-114419627D01*
X91914262Y-114592662D01*
X91950800Y-114776354D01*
X91950800Y-114963646D01*
X91914262Y-115147338D01*
X91842588Y-115320373D01*
X91738535Y-115476100D01*
X91606100Y-115608535D01*
X91450373Y-115712588D01*
X91277338Y-115784262D01*
X91093646Y-115820800D01*
X90906354Y-115820800D01*
X90722662Y-115784262D01*
X90549627Y-115712588D01*
X90393900Y-115608535D01*
X90261465Y-115476100D01*
X90157412Y-115320373D01*
X90085738Y-115147338D01*
X90049200Y-114963646D01*
X90049200Y-114776354D01*
X90085738Y-114592662D01*
X90157412Y-114419627D01*
X90261465Y-114263900D01*
X90393900Y-114131465D01*
X90549627Y-114027412D01*
X90722662Y-113955738D01*
X90906354Y-113919200D01*
X91093646Y-113919200D01*
X91277338Y-113955738D01*
X91277338Y-113955738D01*
G37*
G36*
X96277338Y-113955738D02*
G01*
X96450373Y-114027412D01*
X96606100Y-114131465D01*
X96738535Y-114263900D01*
X96842588Y-114419627D01*
X96914262Y-114592662D01*
X96950800Y-114776354D01*
X96950800Y-114963646D01*
X96914262Y-115147338D01*
X96842588Y-115320373D01*
X96738535Y-115476100D01*
X96606100Y-115608535D01*
X96450373Y-115712588D01*
X96277338Y-115784262D01*
X96093646Y-115820800D01*
X95906354Y-115820800D01*
X95722662Y-115784262D01*
X95549627Y-115712588D01*
X95393900Y-115608535D01*
X95261465Y-115476100D01*
X95157412Y-115320373D01*
X95085738Y-115147338D01*
X95049200Y-114963646D01*
X95049200Y-114776354D01*
X95085738Y-114592662D01*
X95157412Y-114419627D01*
X95261465Y-114263900D01*
X95393900Y-114131465D01*
X95549627Y-114027412D01*
X95722662Y-113955738D01*
X95906354Y-113919200D01*
X96093646Y-113919200D01*
X96277338Y-113955738D01*
X96277338Y-113955738D01*
G37*
G36*
X47162336Y-111751127D02*
G01*
X47313532Y-111813754D01*
X47449606Y-111904676D01*
X47565324Y-112020394D01*
X47656246Y-112156468D01*
X47718873Y-112307664D01*
X47750800Y-112468173D01*
X47750800Y-112631827D01*
X47718873Y-112792336D01*
X47656246Y-112943532D01*
X47565324Y-113079606D01*
X47449606Y-113195324D01*
X47313532Y-113286246D01*
X47162336Y-113348873D01*
X47001827Y-113380800D01*
X46838173Y-113380800D01*
X46677664Y-113348873D01*
X46526468Y-113286246D01*
X46390394Y-113195324D01*
X46274676Y-113079606D01*
X46183754Y-112943532D01*
X46121127Y-112792336D01*
X46089200Y-112631827D01*
X46089200Y-112468173D01*
X46121127Y-112307664D01*
X46183754Y-112156468D01*
X46274676Y-112020394D01*
X46390394Y-111904676D01*
X46526468Y-111813754D01*
X46677664Y-111751127D01*
X46838173Y-111719200D01*
X47001827Y-111719200D01*
X47162336Y-111751127D01*
X47162336Y-111751127D01*
G37*
G36*
X59862336Y-111751127D02*
G01*
X60013532Y-111813754D01*
X60149606Y-111904676D01*
X60265324Y-112020394D01*
X60356246Y-112156468D01*
X60418873Y-112307664D01*
X60450800Y-112468173D01*
X60450800Y-112631827D01*
X60418873Y-112792336D01*
X60356246Y-112943532D01*
X60265324Y-113079606D01*
X60149606Y-113195324D01*
X60013532Y-113286246D01*
X59862336Y-113348873D01*
X59701827Y-113380800D01*
X59538173Y-113380800D01*
X59377664Y-113348873D01*
X59226468Y-113286246D01*
X59090394Y-113195324D01*
X58974676Y-113079606D01*
X58883754Y-112943532D01*
X58821127Y-112792336D01*
X58789200Y-112631827D01*
X58789200Y-112468173D01*
X58821127Y-112307664D01*
X58883754Y-112156468D01*
X58974676Y-112020394D01*
X59090394Y-111904676D01*
X59226468Y-111813754D01*
X59377664Y-111751127D01*
X59538173Y-111719200D01*
X59701827Y-111719200D01*
X59862336Y-111751127D01*
X59862336Y-111751127D01*
G37*
G36*
X67482336Y-111751127D02*
G01*
X67633532Y-111813754D01*
X67769606Y-111904676D01*
X67885324Y-112020394D01*
X67976246Y-112156468D01*
X68038873Y-112307664D01*
X68070800Y-112468173D01*
X68070800Y-112631827D01*
X68038873Y-112792336D01*
X67976246Y-112943532D01*
X67885324Y-113079606D01*
X67769606Y-113195324D01*
X67633532Y-113286246D01*
X67482336Y-113348873D01*
X67321827Y-113380800D01*
X67158173Y-113380800D01*
X66997664Y-113348873D01*
X66846468Y-113286246D01*
X66710394Y-113195324D01*
X66594676Y-113079606D01*
X66503754Y-112943532D01*
X66441127Y-112792336D01*
X66409200Y-112631827D01*
X66409200Y-112468173D01*
X66441127Y-112307664D01*
X66503754Y-112156468D01*
X66594676Y-112020394D01*
X66710394Y-111904676D01*
X66846468Y-111813754D01*
X66997664Y-111751127D01*
X67158173Y-111719200D01*
X67321827Y-111719200D01*
X67482336Y-111751127D01*
X67482336Y-111751127D01*
G37*
G36*
X78230800Y-113380800D02*
G01*
X76569200Y-113380800D01*
X76569200Y-111719200D01*
X78230800Y-111719200D01*
X78230800Y-113380800D01*
X78230800Y-113380800D01*
G37*
G36*
X70022336Y-111751127D02*
G01*
X70173532Y-111813754D01*
X70309606Y-111904676D01*
X70425324Y-112020394D01*
X70516246Y-112156468D01*
X70578873Y-112307664D01*
X70610800Y-112468173D01*
X70610800Y-112631827D01*
X70578873Y-112792336D01*
X70516246Y-112943532D01*
X70425324Y-113079606D01*
X70309606Y-113195324D01*
X70173532Y-113286246D01*
X70022336Y-113348873D01*
X69861827Y-113380800D01*
X69698173Y-113380800D01*
X69537664Y-113348873D01*
X69386468Y-113286246D01*
X69250394Y-113195324D01*
X69134676Y-113079606D01*
X69043754Y-112943532D01*
X68981127Y-112792336D01*
X68949200Y-112631827D01*
X68949200Y-112468173D01*
X68981127Y-112307664D01*
X69043754Y-112156468D01*
X69134676Y-112020394D01*
X69250394Y-111904676D01*
X69386468Y-111813754D01*
X69537664Y-111751127D01*
X69698173Y-111719200D01*
X69861827Y-111719200D01*
X70022336Y-111751127D01*
X70022336Y-111751127D01*
G37*
G36*
X62402336Y-111751127D02*
G01*
X62553532Y-111813754D01*
X62689606Y-111904676D01*
X62805324Y-112020394D01*
X62896246Y-112156468D01*
X62958873Y-112307664D01*
X62990800Y-112468173D01*
X62990800Y-112631827D01*
X62958873Y-112792336D01*
X62896246Y-112943532D01*
X62805324Y-113079606D01*
X62689606Y-113195324D01*
X62553532Y-113286246D01*
X62402336Y-113348873D01*
X62241827Y-113380800D01*
X62078173Y-113380800D01*
X61917664Y-113348873D01*
X61766468Y-113286246D01*
X61630394Y-113195324D01*
X61514676Y-113079606D01*
X61423754Y-112943532D01*
X61361127Y-112792336D01*
X61329200Y-112631827D01*
X61329200Y-112468173D01*
X61361127Y-112307664D01*
X61423754Y-112156468D01*
X61514676Y-112020394D01*
X61630394Y-111904676D01*
X61766468Y-111813754D01*
X61917664Y-111751127D01*
X62078173Y-111719200D01*
X62241827Y-111719200D01*
X62402336Y-111751127D01*
X62402336Y-111751127D01*
G37*
G36*
X42082336Y-111751127D02*
G01*
X42233532Y-111813754D01*
X42369606Y-111904676D01*
X42485324Y-112020394D01*
X42576246Y-112156468D01*
X42638873Y-112307664D01*
X42670800Y-112468173D01*
X42670800Y-112631827D01*
X42638873Y-112792336D01*
X42576246Y-112943532D01*
X42485324Y-113079606D01*
X42369606Y-113195324D01*
X42233532Y-113286246D01*
X42082336Y-113348873D01*
X41921827Y-113380800D01*
X41758173Y-113380800D01*
X41597664Y-113348873D01*
X41446468Y-113286246D01*
X41310394Y-113195324D01*
X41194676Y-113079606D01*
X41103754Y-112943532D01*
X41041127Y-112792336D01*
X41009200Y-112631827D01*
X41009200Y-112468173D01*
X41041127Y-112307664D01*
X41103754Y-112156468D01*
X41194676Y-112020394D01*
X41310394Y-111904676D01*
X41446468Y-111813754D01*
X41597664Y-111751127D01*
X41758173Y-111719200D01*
X41921827Y-111719200D01*
X42082336Y-111751127D01*
X42082336Y-111751127D01*
G37*
G36*
X31922336Y-111751127D02*
G01*
X32073532Y-111813754D01*
X32209606Y-111904676D01*
X32325324Y-112020394D01*
X32416246Y-112156468D01*
X32478873Y-112307664D01*
X32510800Y-112468173D01*
X32510800Y-112631827D01*
X32478873Y-112792336D01*
X32416246Y-112943532D01*
X32325324Y-113079606D01*
X32209606Y-113195324D01*
X32073532Y-113286246D01*
X31922336Y-113348873D01*
X31761827Y-113380800D01*
X31598173Y-113380800D01*
X31437664Y-113348873D01*
X31286468Y-113286246D01*
X31150394Y-113195324D01*
X31034676Y-113079606D01*
X30943754Y-112943532D01*
X30881127Y-112792336D01*
X30849200Y-112631827D01*
X30849200Y-112468173D01*
X30881127Y-112307664D01*
X30943754Y-112156468D01*
X31034676Y-112020394D01*
X31150394Y-111904676D01*
X31286468Y-111813754D01*
X31437664Y-111751127D01*
X31598173Y-111719200D01*
X31761827Y-111719200D01*
X31922336Y-111751127D01*
X31922336Y-111751127D01*
G37*
G36*
X44622336Y-111751127D02*
G01*
X44773532Y-111813754D01*
X44909606Y-111904676D01*
X45025324Y-112020394D01*
X45116246Y-112156468D01*
X45178873Y-112307664D01*
X45210800Y-112468173D01*
X45210800Y-112631827D01*
X45178873Y-112792336D01*
X45116246Y-112943532D01*
X45025324Y-113079606D01*
X44909606Y-113195324D01*
X44773532Y-113286246D01*
X44622336Y-113348873D01*
X44461827Y-113380800D01*
X44298173Y-113380800D01*
X44137664Y-113348873D01*
X43986468Y-113286246D01*
X43850394Y-113195324D01*
X43734676Y-113079606D01*
X43643754Y-112943532D01*
X43581127Y-112792336D01*
X43549200Y-112631827D01*
X43549200Y-112468173D01*
X43581127Y-112307664D01*
X43643754Y-112156468D01*
X43734676Y-112020394D01*
X43850394Y-111904676D01*
X43986468Y-111813754D01*
X44137664Y-111751127D01*
X44298173Y-111719200D01*
X44461827Y-111719200D01*
X44622336Y-111751127D01*
X44622336Y-111751127D01*
G37*
G36*
X57322336Y-111751127D02*
G01*
X57473532Y-111813754D01*
X57609606Y-111904676D01*
X57725324Y-112020394D01*
X57816246Y-112156468D01*
X57878873Y-112307664D01*
X57910800Y-112468173D01*
X57910800Y-112631827D01*
X57878873Y-112792336D01*
X57816246Y-112943532D01*
X57725324Y-113079606D01*
X57609606Y-113195324D01*
X57473532Y-113286246D01*
X57322336Y-113348873D01*
X57161827Y-113380800D01*
X56998173Y-113380800D01*
X56837664Y-113348873D01*
X56686468Y-113286246D01*
X56550394Y-113195324D01*
X56434676Y-113079606D01*
X56343754Y-112943532D01*
X56281127Y-112792336D01*
X56249200Y-112631827D01*
X56249200Y-112468173D01*
X56281127Y-112307664D01*
X56343754Y-112156468D01*
X56434676Y-112020394D01*
X56550394Y-111904676D01*
X56686468Y-111813754D01*
X56837664Y-111751127D01*
X56998173Y-111719200D01*
X57161827Y-111719200D01*
X57322336Y-111751127D01*
X57322336Y-111751127D01*
G37*
G36*
X75102336Y-111751127D02*
G01*
X75253532Y-111813754D01*
X75389606Y-111904676D01*
X75505324Y-112020394D01*
X75596246Y-112156468D01*
X75658873Y-112307664D01*
X75690800Y-112468173D01*
X75690800Y-112631827D01*
X75658873Y-112792336D01*
X75596246Y-112943532D01*
X75505324Y-113079606D01*
X75389606Y-113195324D01*
X75253532Y-113286246D01*
X75102336Y-113348873D01*
X74941827Y-113380800D01*
X74778173Y-113380800D01*
X74617664Y-113348873D01*
X74466468Y-113286246D01*
X74330394Y-113195324D01*
X74214676Y-113079606D01*
X74123754Y-112943532D01*
X74061127Y-112792336D01*
X74029200Y-112631827D01*
X74029200Y-112468173D01*
X74061127Y-112307664D01*
X74123754Y-112156468D01*
X74214676Y-112020394D01*
X74330394Y-111904676D01*
X74466468Y-111813754D01*
X74617664Y-111751127D01*
X74778173Y-111719200D01*
X74941827Y-111719200D01*
X75102336Y-111751127D01*
X75102336Y-111751127D01*
G37*
G36*
X64942336Y-111751127D02*
G01*
X65093532Y-111813754D01*
X65229606Y-111904676D01*
X65345324Y-112020394D01*
X65436246Y-112156468D01*
X65498873Y-112307664D01*
X65530800Y-112468173D01*
X65530800Y-112631827D01*
X65498873Y-112792336D01*
X65436246Y-112943532D01*
X65345324Y-113079606D01*
X65229606Y-113195324D01*
X65093532Y-113286246D01*
X64942336Y-113348873D01*
X64781827Y-113380800D01*
X64618173Y-113380800D01*
X64457664Y-113348873D01*
X64306468Y-113286246D01*
X64170394Y-113195324D01*
X64054676Y-113079606D01*
X63963754Y-112943532D01*
X63901127Y-112792336D01*
X63869200Y-112631827D01*
X63869200Y-112468173D01*
X63901127Y-112307664D01*
X63963754Y-112156468D01*
X64054676Y-112020394D01*
X64170394Y-111904676D01*
X64306468Y-111813754D01*
X64457664Y-111751127D01*
X64618173Y-111719200D01*
X64781827Y-111719200D01*
X64942336Y-111751127D01*
X64942336Y-111751127D01*
G37*
G36*
X39542336Y-111751127D02*
G01*
X39693532Y-111813754D01*
X39829606Y-111904676D01*
X39945324Y-112020394D01*
X40036246Y-112156468D01*
X40098873Y-112307664D01*
X40130800Y-112468173D01*
X40130800Y-112631827D01*
X40098873Y-112792336D01*
X40036246Y-112943532D01*
X39945324Y-113079606D01*
X39829606Y-113195324D01*
X39693532Y-113286246D01*
X39542336Y-113348873D01*
X39381827Y-113380800D01*
X39218173Y-113380800D01*
X39057664Y-113348873D01*
X38906468Y-113286246D01*
X38770394Y-113195324D01*
X38654676Y-113079606D01*
X38563754Y-112943532D01*
X38501127Y-112792336D01*
X38469200Y-112631827D01*
X38469200Y-112468173D01*
X38501127Y-112307664D01*
X38563754Y-112156468D01*
X38654676Y-112020394D01*
X38770394Y-111904676D01*
X38906468Y-111813754D01*
X39057664Y-111751127D01*
X39218173Y-111719200D01*
X39381827Y-111719200D01*
X39542336Y-111751127D01*
X39542336Y-111751127D01*
G37*
G36*
X49702336Y-111751127D02*
G01*
X49853532Y-111813754D01*
X49989606Y-111904676D01*
X50105324Y-112020394D01*
X50196246Y-112156468D01*
X50258873Y-112307664D01*
X50290800Y-112468173D01*
X50290800Y-112631827D01*
X50258873Y-112792336D01*
X50196246Y-112943532D01*
X50105324Y-113079606D01*
X49989606Y-113195324D01*
X49853532Y-113286246D01*
X49702336Y-113348873D01*
X49541827Y-113380800D01*
X49378173Y-113380800D01*
X49217664Y-113348873D01*
X49066468Y-113286246D01*
X48930394Y-113195324D01*
X48814676Y-113079606D01*
X48723754Y-112943532D01*
X48661127Y-112792336D01*
X48629200Y-112631827D01*
X48629200Y-112468173D01*
X48661127Y-112307664D01*
X48723754Y-112156468D01*
X48814676Y-112020394D01*
X48930394Y-111904676D01*
X49066468Y-111813754D01*
X49217664Y-111751127D01*
X49378173Y-111719200D01*
X49541827Y-111719200D01*
X49702336Y-111751127D01*
X49702336Y-111751127D01*
G37*
G36*
X52242336Y-111751127D02*
G01*
X52393532Y-111813754D01*
X52529606Y-111904676D01*
X52645324Y-112020394D01*
X52736246Y-112156468D01*
X52798873Y-112307664D01*
X52830800Y-112468173D01*
X52830800Y-112631827D01*
X52798873Y-112792336D01*
X52736246Y-112943532D01*
X52645324Y-113079606D01*
X52529606Y-113195324D01*
X52393532Y-113286246D01*
X52242336Y-113348873D01*
X52081827Y-113380800D01*
X51918173Y-113380800D01*
X51757664Y-113348873D01*
X51606468Y-113286246D01*
X51470394Y-113195324D01*
X51354676Y-113079606D01*
X51263754Y-112943532D01*
X51201127Y-112792336D01*
X51169200Y-112631827D01*
X51169200Y-112468173D01*
X51201127Y-112307664D01*
X51263754Y-112156468D01*
X51354676Y-112020394D01*
X51470394Y-111904676D01*
X51606468Y-111813754D01*
X51757664Y-111751127D01*
X51918173Y-111719200D01*
X52081827Y-111719200D01*
X52242336Y-111751127D01*
X52242336Y-111751127D01*
G37*
G36*
X72562336Y-111751127D02*
G01*
X72713532Y-111813754D01*
X72849606Y-111904676D01*
X72965324Y-112020394D01*
X73056246Y-112156468D01*
X73118873Y-112307664D01*
X73150800Y-112468173D01*
X73150800Y-112631827D01*
X73118873Y-112792336D01*
X73056246Y-112943532D01*
X72965324Y-113079606D01*
X72849606Y-113195324D01*
X72713532Y-113286246D01*
X72562336Y-113348873D01*
X72401827Y-113380800D01*
X72238173Y-113380800D01*
X72077664Y-113348873D01*
X71926468Y-113286246D01*
X71790394Y-113195324D01*
X71674676Y-113079606D01*
X71583754Y-112943532D01*
X71521127Y-112792336D01*
X71489200Y-112631827D01*
X71489200Y-112468173D01*
X71521127Y-112307664D01*
X71583754Y-112156468D01*
X71674676Y-112020394D01*
X71790394Y-111904676D01*
X71926468Y-111813754D01*
X72077664Y-111751127D01*
X72238173Y-111719200D01*
X72401827Y-111719200D01*
X72562336Y-111751127D01*
X72562336Y-111751127D01*
G37*
G36*
X54782336Y-111751127D02*
G01*
X54933532Y-111813754D01*
X55069606Y-111904676D01*
X55185324Y-112020394D01*
X55276246Y-112156468D01*
X55338873Y-112307664D01*
X55370800Y-112468173D01*
X55370800Y-112631827D01*
X55338873Y-112792336D01*
X55276246Y-112943532D01*
X55185324Y-113079606D01*
X55069606Y-113195324D01*
X54933532Y-113286246D01*
X54782336Y-113348873D01*
X54621827Y-113380800D01*
X54458173Y-113380800D01*
X54297664Y-113348873D01*
X54146468Y-113286246D01*
X54010394Y-113195324D01*
X53894676Y-113079606D01*
X53803754Y-112943532D01*
X53741127Y-112792336D01*
X53709200Y-112631827D01*
X53709200Y-112468173D01*
X53741127Y-112307664D01*
X53803754Y-112156468D01*
X53894676Y-112020394D01*
X54010394Y-111904676D01*
X54146468Y-111813754D01*
X54297664Y-111751127D01*
X54458173Y-111719200D01*
X54621827Y-111719200D01*
X54782336Y-111751127D01*
X54782336Y-111751127D01*
G37*
G36*
X34462336Y-111751127D02*
G01*
X34613532Y-111813754D01*
X34749606Y-111904676D01*
X34865324Y-112020394D01*
X34956246Y-112156468D01*
X35018873Y-112307664D01*
X35050800Y-112468173D01*
X35050800Y-112631827D01*
X35018873Y-112792336D01*
X34956246Y-112943532D01*
X34865324Y-113079606D01*
X34749606Y-113195324D01*
X34613532Y-113286246D01*
X34462336Y-113348873D01*
X34301827Y-113380800D01*
X34138173Y-113380800D01*
X33977664Y-113348873D01*
X33826468Y-113286246D01*
X33690394Y-113195324D01*
X33574676Y-113079606D01*
X33483754Y-112943532D01*
X33421127Y-112792336D01*
X33389200Y-112631827D01*
X33389200Y-112468173D01*
X33421127Y-112307664D01*
X33483754Y-112156468D01*
X33574676Y-112020394D01*
X33690394Y-111904676D01*
X33826468Y-111813754D01*
X33977664Y-111751127D01*
X34138173Y-111719200D01*
X34301827Y-111719200D01*
X34462336Y-111751127D01*
X34462336Y-111751127D01*
G37*
G36*
X37002336Y-111751127D02*
G01*
X37153532Y-111813754D01*
X37289606Y-111904676D01*
X37405324Y-112020394D01*
X37496246Y-112156468D01*
X37558873Y-112307664D01*
X37590800Y-112468173D01*
X37590800Y-112631827D01*
X37558873Y-112792336D01*
X37496246Y-112943532D01*
X37405324Y-113079606D01*
X37289606Y-113195324D01*
X37153532Y-113286246D01*
X37002336Y-113348873D01*
X36841827Y-113380800D01*
X36678173Y-113380800D01*
X36517664Y-113348873D01*
X36366468Y-113286246D01*
X36230394Y-113195324D01*
X36114676Y-113079606D01*
X36023754Y-112943532D01*
X35961127Y-112792336D01*
X35929200Y-112631827D01*
X35929200Y-112468173D01*
X35961127Y-112307664D01*
X36023754Y-112156468D01*
X36114676Y-112020394D01*
X36230394Y-111904676D01*
X36366468Y-111813754D01*
X36517664Y-111751127D01*
X36678173Y-111719200D01*
X36841827Y-111719200D01*
X37002336Y-111751127D01*
X37002336Y-111751127D01*
G37*
G36*
X124160800Y-109955800D02*
G01*
X121259200Y-109955800D01*
X121259200Y-106254200D01*
X124160800Y-106254200D01*
X124160800Y-109955800D01*
X124160800Y-109955800D01*
G37*
G36*
X112760800Y-109955800D02*
G01*
X109859200Y-109955800D01*
X109859200Y-106254200D01*
X112760800Y-106254200D01*
X112760800Y-109955800D01*
X112760800Y-109955800D01*
G37*
G36*
X89698197Y-105898011D02*
G01*
X90071419Y-106052604D01*
X90407310Y-106277040D01*
X90692960Y-106562690D01*
X90917396Y-106898581D01*
X91071989Y-107271803D01*
X91150800Y-107668014D01*
X91150800Y-108071986D01*
X91071989Y-108468197D01*
X90917396Y-108841419D01*
X90692960Y-109177310D01*
X90407310Y-109462960D01*
X90071419Y-109687396D01*
X89698197Y-109841989D01*
X89301986Y-109920800D01*
X88898014Y-109920800D01*
X88501803Y-109841989D01*
X88128581Y-109687396D01*
X87792690Y-109462960D01*
X87507040Y-109177310D01*
X87282604Y-108841419D01*
X87128011Y-108468197D01*
X87049200Y-108071986D01*
X87049200Y-107668014D01*
X87128011Y-107271803D01*
X87282604Y-106898581D01*
X87507040Y-106562690D01*
X87792690Y-106277040D01*
X88128581Y-106052604D01*
X88501803Y-105898011D01*
X88898014Y-105819200D01*
X89301986Y-105819200D01*
X89698197Y-105898011D01*
X89698197Y-105898011D01*
G37*
G36*
X98498197Y-105898011D02*
G01*
X98871419Y-106052604D01*
X99207310Y-106277040D01*
X99492960Y-106562690D01*
X99717396Y-106898581D01*
X99871989Y-107271803D01*
X99950800Y-107668014D01*
X99950800Y-108071986D01*
X99871989Y-108468197D01*
X99717396Y-108841419D01*
X99492960Y-109177310D01*
X99207310Y-109462960D01*
X98871419Y-109687396D01*
X98498197Y-109841989D01*
X98101986Y-109920800D01*
X97698014Y-109920800D01*
X97301803Y-109841989D01*
X96928581Y-109687396D01*
X96592690Y-109462960D01*
X96307040Y-109177310D01*
X96082604Y-108841419D01*
X95928011Y-108468197D01*
X95849200Y-108071986D01*
X95849200Y-107668014D01*
X95928011Y-107271803D01*
X96082604Y-106898581D01*
X96307040Y-106562690D01*
X96592690Y-106277040D01*
X96928581Y-106052604D01*
X97301803Y-105898011D01*
X97698014Y-105819200D01*
X98101986Y-105819200D01*
X98498197Y-105898011D01*
X98498197Y-105898011D01*
G37*
G36*
X114816508Y-99594582D02*
G01*
X115007741Y-99673793D01*
X115179847Y-99788791D01*
X115326209Y-99935153D01*
X115441207Y-100107259D01*
X115520418Y-100298492D01*
X115560800Y-100501505D01*
X115560800Y-100708495D01*
X115520418Y-100911508D01*
X115441207Y-101102741D01*
X115326209Y-101274847D01*
X115179847Y-101421209D01*
X115007741Y-101536207D01*
X114816508Y-101615418D01*
X114613495Y-101655800D01*
X114406505Y-101655800D01*
X114203492Y-101615418D01*
X114012259Y-101536207D01*
X113840153Y-101421209D01*
X113693791Y-101274847D01*
X113578793Y-101102741D01*
X113499582Y-100911508D01*
X113459200Y-100708495D01*
X113459200Y-100501505D01*
X113499582Y-100298492D01*
X113578793Y-100107259D01*
X113693791Y-99935153D01*
X113840153Y-99788791D01*
X114012259Y-99673793D01*
X114203492Y-99594582D01*
X114406505Y-99554200D01*
X114613495Y-99554200D01*
X114816508Y-99594582D01*
X114816508Y-99594582D01*
G37*
G36*
X119816508Y-99594582D02*
G01*
X120007741Y-99673793D01*
X120179847Y-99788791D01*
X120326209Y-99935153D01*
X120441207Y-100107259D01*
X120520418Y-100298492D01*
X120560800Y-100501505D01*
X120560800Y-100708495D01*
X120520418Y-100911508D01*
X120441207Y-101102741D01*
X120326209Y-101274847D01*
X120179847Y-101421209D01*
X120007741Y-101536207D01*
X119816508Y-101615418D01*
X119613495Y-101655800D01*
X119406505Y-101655800D01*
X119203492Y-101615418D01*
X119012259Y-101536207D01*
X118840153Y-101421209D01*
X118693791Y-101274847D01*
X118578793Y-101102741D01*
X118499582Y-100911508D01*
X118459200Y-100708495D01*
X118459200Y-100501505D01*
X118499582Y-100298492D01*
X118578793Y-100107259D01*
X118693791Y-99935153D01*
X118840153Y-99788791D01*
X119012259Y-99673793D01*
X119203492Y-99594582D01*
X119406505Y-99554200D01*
X119613495Y-99554200D01*
X119816508Y-99594582D01*
X119816508Y-99594582D01*
G37*
G36*
X117316508Y-99594582D02*
G01*
X117507741Y-99673793D01*
X117679847Y-99788791D01*
X117826209Y-99935153D01*
X117941207Y-100107259D01*
X118020418Y-100298492D01*
X118060800Y-100501505D01*
X118060800Y-100708495D01*
X118020418Y-100911508D01*
X117941207Y-101102741D01*
X117826209Y-101274847D01*
X117679847Y-101421209D01*
X117507741Y-101536207D01*
X117316508Y-101615418D01*
X117113495Y-101655800D01*
X116906505Y-101655800D01*
X116703492Y-101615418D01*
X116512259Y-101536207D01*
X116340153Y-101421209D01*
X116193791Y-101274847D01*
X116078793Y-101102741D01*
X115999582Y-100911508D01*
X115959200Y-100708495D01*
X115959200Y-100501505D01*
X115999582Y-100298492D01*
X116078793Y-100107259D01*
X116193791Y-99935153D01*
X116340153Y-99788791D01*
X116512259Y-99673793D01*
X116703492Y-99594582D01*
X116906505Y-99554200D01*
X117113495Y-99554200D01*
X117316508Y-99594582D01*
X117316508Y-99594582D01*
G37*
G36*
X57322336Y-88891127D02*
G01*
X57473532Y-88953754D01*
X57609606Y-89044676D01*
X57725324Y-89160394D01*
X57816246Y-89296468D01*
X57878873Y-89447664D01*
X57910800Y-89608173D01*
X57910800Y-89771827D01*
X57878873Y-89932336D01*
X57816246Y-90083532D01*
X57725324Y-90219606D01*
X57609606Y-90335324D01*
X57473532Y-90426246D01*
X57322336Y-90488873D01*
X57161827Y-90520800D01*
X56998173Y-90520800D01*
X56837664Y-90488873D01*
X56686468Y-90426246D01*
X56550394Y-90335324D01*
X56434676Y-90219606D01*
X56343754Y-90083532D01*
X56281127Y-89932336D01*
X56249200Y-89771827D01*
X56249200Y-89608173D01*
X56281127Y-89447664D01*
X56343754Y-89296468D01*
X56434676Y-89160394D01*
X56550394Y-89044676D01*
X56686468Y-88953754D01*
X56837664Y-88891127D01*
X56998173Y-88859200D01*
X57161827Y-88859200D01*
X57322336Y-88891127D01*
X57322336Y-88891127D01*
G37*
G36*
X54782336Y-88891127D02*
G01*
X54933532Y-88953754D01*
X55069606Y-89044676D01*
X55185324Y-89160394D01*
X55276246Y-89296468D01*
X55338873Y-89447664D01*
X55370800Y-89608173D01*
X55370800Y-89771827D01*
X55338873Y-89932336D01*
X55276246Y-90083532D01*
X55185324Y-90219606D01*
X55069606Y-90335324D01*
X54933532Y-90426246D01*
X54782336Y-90488873D01*
X54621827Y-90520800D01*
X54458173Y-90520800D01*
X54297664Y-90488873D01*
X54146468Y-90426246D01*
X54010394Y-90335324D01*
X53894676Y-90219606D01*
X53803754Y-90083532D01*
X53741127Y-89932336D01*
X53709200Y-89771827D01*
X53709200Y-89608173D01*
X53741127Y-89447664D01*
X53803754Y-89296468D01*
X53894676Y-89160394D01*
X54010394Y-89044676D01*
X54146468Y-88953754D01*
X54297664Y-88891127D01*
X54458173Y-88859200D01*
X54621827Y-88859200D01*
X54782336Y-88891127D01*
X54782336Y-88891127D01*
G37*
G36*
X49702336Y-88891127D02*
G01*
X49853532Y-88953754D01*
X49989606Y-89044676D01*
X50105324Y-89160394D01*
X50196246Y-89296468D01*
X50258873Y-89447664D01*
X50290800Y-89608173D01*
X50290800Y-89771827D01*
X50258873Y-89932336D01*
X50196246Y-90083532D01*
X50105324Y-90219606D01*
X49989606Y-90335324D01*
X49853532Y-90426246D01*
X49702336Y-90488873D01*
X49541827Y-90520800D01*
X49378173Y-90520800D01*
X49217664Y-90488873D01*
X49066468Y-90426246D01*
X48930394Y-90335324D01*
X48814676Y-90219606D01*
X48723754Y-90083532D01*
X48661127Y-89932336D01*
X48629200Y-89771827D01*
X48629200Y-89608173D01*
X48661127Y-89447664D01*
X48723754Y-89296468D01*
X48814676Y-89160394D01*
X48930394Y-89044676D01*
X49066468Y-88953754D01*
X49217664Y-88891127D01*
X49378173Y-88859200D01*
X49541827Y-88859200D01*
X49702336Y-88891127D01*
X49702336Y-88891127D01*
G37*
G36*
X47162336Y-88891127D02*
G01*
X47313532Y-88953754D01*
X47449606Y-89044676D01*
X47565324Y-89160394D01*
X47656246Y-89296468D01*
X47718873Y-89447664D01*
X47750800Y-89608173D01*
X47750800Y-89771827D01*
X47718873Y-89932336D01*
X47656246Y-90083532D01*
X47565324Y-90219606D01*
X47449606Y-90335324D01*
X47313532Y-90426246D01*
X47162336Y-90488873D01*
X47001827Y-90520800D01*
X46838173Y-90520800D01*
X46677664Y-90488873D01*
X46526468Y-90426246D01*
X46390394Y-90335324D01*
X46274676Y-90219606D01*
X46183754Y-90083532D01*
X46121127Y-89932336D01*
X46089200Y-89771827D01*
X46089200Y-89608173D01*
X46121127Y-89447664D01*
X46183754Y-89296468D01*
X46274676Y-89160394D01*
X46390394Y-89044676D01*
X46526468Y-88953754D01*
X46677664Y-88891127D01*
X46838173Y-88859200D01*
X47001827Y-88859200D01*
X47162336Y-88891127D01*
X47162336Y-88891127D01*
G37*
G36*
X42082336Y-88891127D02*
G01*
X42233532Y-88953754D01*
X42369606Y-89044676D01*
X42485324Y-89160394D01*
X42576246Y-89296468D01*
X42638873Y-89447664D01*
X42670800Y-89608173D01*
X42670800Y-89771827D01*
X42638873Y-89932336D01*
X42576246Y-90083532D01*
X42485324Y-90219606D01*
X42369606Y-90335324D01*
X42233532Y-90426246D01*
X42082336Y-90488873D01*
X41921827Y-90520800D01*
X41758173Y-90520800D01*
X41597664Y-90488873D01*
X41446468Y-90426246D01*
X41310394Y-90335324D01*
X41194676Y-90219606D01*
X41103754Y-90083532D01*
X41041127Y-89932336D01*
X41009200Y-89771827D01*
X41009200Y-89608173D01*
X41041127Y-89447664D01*
X41103754Y-89296468D01*
X41194676Y-89160394D01*
X41310394Y-89044676D01*
X41446468Y-88953754D01*
X41597664Y-88891127D01*
X41758173Y-88859200D01*
X41921827Y-88859200D01*
X42082336Y-88891127D01*
X42082336Y-88891127D01*
G37*
G36*
X52242336Y-88891127D02*
G01*
X52393532Y-88953754D01*
X52529606Y-89044676D01*
X52645324Y-89160394D01*
X52736246Y-89296468D01*
X52798873Y-89447664D01*
X52830800Y-89608173D01*
X52830800Y-89771827D01*
X52798873Y-89932336D01*
X52736246Y-90083532D01*
X52645324Y-90219606D01*
X52529606Y-90335324D01*
X52393532Y-90426246D01*
X52242336Y-90488873D01*
X52081827Y-90520800D01*
X51918173Y-90520800D01*
X51757664Y-90488873D01*
X51606468Y-90426246D01*
X51470394Y-90335324D01*
X51354676Y-90219606D01*
X51263754Y-90083532D01*
X51201127Y-89932336D01*
X51169200Y-89771827D01*
X51169200Y-89608173D01*
X51201127Y-89447664D01*
X51263754Y-89296468D01*
X51354676Y-89160394D01*
X51470394Y-89044676D01*
X51606468Y-88953754D01*
X51757664Y-88891127D01*
X51918173Y-88859200D01*
X52081827Y-88859200D01*
X52242336Y-88891127D01*
X52242336Y-88891127D01*
G37*
G36*
X44622336Y-88891127D02*
G01*
X44773532Y-88953754D01*
X44909606Y-89044676D01*
X45025324Y-89160394D01*
X45116246Y-89296468D01*
X45178873Y-89447664D01*
X45210800Y-89608173D01*
X45210800Y-89771827D01*
X45178873Y-89932336D01*
X45116246Y-90083532D01*
X45025324Y-90219606D01*
X44909606Y-90335324D01*
X44773532Y-90426246D01*
X44622336Y-90488873D01*
X44461827Y-90520800D01*
X44298173Y-90520800D01*
X44137664Y-90488873D01*
X43986468Y-90426246D01*
X43850394Y-90335324D01*
X43734676Y-90219606D01*
X43643754Y-90083532D01*
X43581127Y-89932336D01*
X43549200Y-89771827D01*
X43549200Y-89608173D01*
X43581127Y-89447664D01*
X43643754Y-89296468D01*
X43734676Y-89160394D01*
X43850394Y-89044676D01*
X43986468Y-88953754D01*
X44137664Y-88891127D01*
X44298173Y-88859200D01*
X44461827Y-88859200D01*
X44622336Y-88891127D01*
X44622336Y-88891127D01*
G37*
G36*
X37002336Y-88891127D02*
G01*
X37153532Y-88953754D01*
X37289606Y-89044676D01*
X37405324Y-89160394D01*
X37496246Y-89296468D01*
X37558873Y-89447664D01*
X37590800Y-89608173D01*
X37590800Y-89771827D01*
X37558873Y-89932336D01*
X37496246Y-90083532D01*
X37405324Y-90219606D01*
X37289606Y-90335324D01*
X37153532Y-90426246D01*
X37002336Y-90488873D01*
X36841827Y-90520800D01*
X36678173Y-90520800D01*
X36517664Y-90488873D01*
X36366468Y-90426246D01*
X36230394Y-90335324D01*
X36114676Y-90219606D01*
X36023754Y-90083532D01*
X35961127Y-89932336D01*
X35929200Y-89771827D01*
X35929200Y-89608173D01*
X35961127Y-89447664D01*
X36023754Y-89296468D01*
X36114676Y-89160394D01*
X36230394Y-89044676D01*
X36366468Y-88953754D01*
X36517664Y-88891127D01*
X36678173Y-88859200D01*
X36841827Y-88859200D01*
X37002336Y-88891127D01*
X37002336Y-88891127D01*
G37*
G36*
X34462336Y-88891127D02*
G01*
X34613532Y-88953754D01*
X34749606Y-89044676D01*
X34865324Y-89160394D01*
X34956246Y-89296468D01*
X35018873Y-89447664D01*
X35050800Y-89608173D01*
X35050800Y-89771827D01*
X35018873Y-89932336D01*
X34956246Y-90083532D01*
X34865324Y-90219606D01*
X34749606Y-90335324D01*
X34613532Y-90426246D01*
X34462336Y-90488873D01*
X34301827Y-90520800D01*
X34138173Y-90520800D01*
X33977664Y-90488873D01*
X33826468Y-90426246D01*
X33690394Y-90335324D01*
X33574676Y-90219606D01*
X33483754Y-90083532D01*
X33421127Y-89932336D01*
X33389200Y-89771827D01*
X33389200Y-89608173D01*
X33421127Y-89447664D01*
X33483754Y-89296468D01*
X33574676Y-89160394D01*
X33690394Y-89044676D01*
X33826468Y-88953754D01*
X33977664Y-88891127D01*
X34138173Y-88859200D01*
X34301827Y-88859200D01*
X34462336Y-88891127D01*
X34462336Y-88891127D01*
G37*
G36*
X31922336Y-88891127D02*
G01*
X32073532Y-88953754D01*
X32209606Y-89044676D01*
X32325324Y-89160394D01*
X32416246Y-89296468D01*
X32478873Y-89447664D01*
X32510800Y-89608173D01*
X32510800Y-89771827D01*
X32478873Y-89932336D01*
X32416246Y-90083532D01*
X32325324Y-90219606D01*
X32209606Y-90335324D01*
X32073532Y-90426246D01*
X31922336Y-90488873D01*
X31761827Y-90520800D01*
X31598173Y-90520800D01*
X31437664Y-90488873D01*
X31286468Y-90426246D01*
X31150394Y-90335324D01*
X31034676Y-90219606D01*
X30943754Y-90083532D01*
X30881127Y-89932336D01*
X30849200Y-89771827D01*
X30849200Y-89608173D01*
X30881127Y-89447664D01*
X30943754Y-89296468D01*
X31034676Y-89160394D01*
X31150394Y-89044676D01*
X31286468Y-88953754D01*
X31437664Y-88891127D01*
X31598173Y-88859200D01*
X31761827Y-88859200D01*
X31922336Y-88891127D01*
X31922336Y-88891127D01*
G37*
G36*
X39542336Y-88891127D02*
G01*
X39693532Y-88953754D01*
X39829606Y-89044676D01*
X39945324Y-89160394D01*
X40036246Y-89296468D01*
X40098873Y-89447664D01*
X40130800Y-89608173D01*
X40130800Y-89771827D01*
X40098873Y-89932336D01*
X40036246Y-90083532D01*
X39945324Y-90219606D01*
X39829606Y-90335324D01*
X39693532Y-90426246D01*
X39542336Y-90488873D01*
X39381827Y-90520800D01*
X39218173Y-90520800D01*
X39057664Y-90488873D01*
X38906468Y-90426246D01*
X38770394Y-90335324D01*
X38654676Y-90219606D01*
X38563754Y-90083532D01*
X38501127Y-89932336D01*
X38469200Y-89771827D01*
X38469200Y-89608173D01*
X38501127Y-89447664D01*
X38563754Y-89296468D01*
X38654676Y-89160394D01*
X38770394Y-89044676D01*
X38906468Y-88953754D01*
X39057664Y-88891127D01*
X39218173Y-88859200D01*
X39381827Y-88859200D01*
X39542336Y-88891127D01*
X39542336Y-88891127D01*
G37*
G36*
X75102336Y-88891127D02*
G01*
X75253532Y-88953754D01*
X75389606Y-89044676D01*
X75505324Y-89160394D01*
X75596246Y-89296468D01*
X75658873Y-89447664D01*
X75690800Y-89608173D01*
X75690800Y-89771827D01*
X75658873Y-89932336D01*
X75596246Y-90083532D01*
X75505324Y-90219606D01*
X75389606Y-90335324D01*
X75253532Y-90426246D01*
X75102336Y-90488873D01*
X74941827Y-90520800D01*
X74778173Y-90520800D01*
X74617664Y-90488873D01*
X74466468Y-90426246D01*
X74330394Y-90335324D01*
X74214676Y-90219606D01*
X74123754Y-90083532D01*
X74061127Y-89932336D01*
X74029200Y-89771827D01*
X74029200Y-89608173D01*
X74061127Y-89447664D01*
X74123754Y-89296468D01*
X74214676Y-89160394D01*
X74330394Y-89044676D01*
X74466468Y-88953754D01*
X74617664Y-88891127D01*
X74778173Y-88859200D01*
X74941827Y-88859200D01*
X75102336Y-88891127D01*
X75102336Y-88891127D01*
G37*
G36*
X72562336Y-88891127D02*
G01*
X72713532Y-88953754D01*
X72849606Y-89044676D01*
X72965324Y-89160394D01*
X73056246Y-89296468D01*
X73118873Y-89447664D01*
X73150800Y-89608173D01*
X73150800Y-89771827D01*
X73118873Y-89932336D01*
X73056246Y-90083532D01*
X72965324Y-90219606D01*
X72849606Y-90335324D01*
X72713532Y-90426246D01*
X72562336Y-90488873D01*
X72401827Y-90520800D01*
X72238173Y-90520800D01*
X72077664Y-90488873D01*
X71926468Y-90426246D01*
X71790394Y-90335324D01*
X71674676Y-90219606D01*
X71583754Y-90083532D01*
X71521127Y-89932336D01*
X71489200Y-89771827D01*
X71489200Y-89608173D01*
X71521127Y-89447664D01*
X71583754Y-89296468D01*
X71674676Y-89160394D01*
X71790394Y-89044676D01*
X71926468Y-88953754D01*
X72077664Y-88891127D01*
X72238173Y-88859200D01*
X72401827Y-88859200D01*
X72562336Y-88891127D01*
X72562336Y-88891127D01*
G37*
G36*
X70022336Y-88891127D02*
G01*
X70173532Y-88953754D01*
X70309606Y-89044676D01*
X70425324Y-89160394D01*
X70516246Y-89296468D01*
X70578873Y-89447664D01*
X70610800Y-89608173D01*
X70610800Y-89771827D01*
X70578873Y-89932336D01*
X70516246Y-90083532D01*
X70425324Y-90219606D01*
X70309606Y-90335324D01*
X70173532Y-90426246D01*
X70022336Y-90488873D01*
X69861827Y-90520800D01*
X69698173Y-90520800D01*
X69537664Y-90488873D01*
X69386468Y-90426246D01*
X69250394Y-90335324D01*
X69134676Y-90219606D01*
X69043754Y-90083532D01*
X68981127Y-89932336D01*
X68949200Y-89771827D01*
X68949200Y-89608173D01*
X68981127Y-89447664D01*
X69043754Y-89296468D01*
X69134676Y-89160394D01*
X69250394Y-89044676D01*
X69386468Y-88953754D01*
X69537664Y-88891127D01*
X69698173Y-88859200D01*
X69861827Y-88859200D01*
X70022336Y-88891127D01*
X70022336Y-88891127D01*
G37*
G36*
X67482336Y-88891127D02*
G01*
X67633532Y-88953754D01*
X67769606Y-89044676D01*
X67885324Y-89160394D01*
X67976246Y-89296468D01*
X68038873Y-89447664D01*
X68070800Y-89608173D01*
X68070800Y-89771827D01*
X68038873Y-89932336D01*
X67976246Y-90083532D01*
X67885324Y-90219606D01*
X67769606Y-90335324D01*
X67633532Y-90426246D01*
X67482336Y-90488873D01*
X67321827Y-90520800D01*
X67158173Y-90520800D01*
X66997664Y-90488873D01*
X66846468Y-90426246D01*
X66710394Y-90335324D01*
X66594676Y-90219606D01*
X66503754Y-90083532D01*
X66441127Y-89932336D01*
X66409200Y-89771827D01*
X66409200Y-89608173D01*
X66441127Y-89447664D01*
X66503754Y-89296468D01*
X66594676Y-89160394D01*
X66710394Y-89044676D01*
X66846468Y-88953754D01*
X66997664Y-88891127D01*
X67158173Y-88859200D01*
X67321827Y-88859200D01*
X67482336Y-88891127D01*
X67482336Y-88891127D01*
G37*
G36*
X64942336Y-88891127D02*
G01*
X65093532Y-88953754D01*
X65229606Y-89044676D01*
X65345324Y-89160394D01*
X65436246Y-89296468D01*
X65498873Y-89447664D01*
X65530800Y-89608173D01*
X65530800Y-89771827D01*
X65498873Y-89932336D01*
X65436246Y-90083532D01*
X65345324Y-90219606D01*
X65229606Y-90335324D01*
X65093532Y-90426246D01*
X64942336Y-90488873D01*
X64781827Y-90520800D01*
X64618173Y-90520800D01*
X64457664Y-90488873D01*
X64306468Y-90426246D01*
X64170394Y-90335324D01*
X64054676Y-90219606D01*
X63963754Y-90083532D01*
X63901127Y-89932336D01*
X63869200Y-89771827D01*
X63869200Y-89608173D01*
X63901127Y-89447664D01*
X63963754Y-89296468D01*
X64054676Y-89160394D01*
X64170394Y-89044676D01*
X64306468Y-88953754D01*
X64457664Y-88891127D01*
X64618173Y-88859200D01*
X64781827Y-88859200D01*
X64942336Y-88891127D01*
X64942336Y-88891127D01*
G37*
G36*
X62402336Y-88891127D02*
G01*
X62553532Y-88953754D01*
X62689606Y-89044676D01*
X62805324Y-89160394D01*
X62896246Y-89296468D01*
X62958873Y-89447664D01*
X62990800Y-89608173D01*
X62990800Y-89771827D01*
X62958873Y-89932336D01*
X62896246Y-90083532D01*
X62805324Y-90219606D01*
X62689606Y-90335324D01*
X62553532Y-90426246D01*
X62402336Y-90488873D01*
X62241827Y-90520800D01*
X62078173Y-90520800D01*
X61917664Y-90488873D01*
X61766468Y-90426246D01*
X61630394Y-90335324D01*
X61514676Y-90219606D01*
X61423754Y-90083532D01*
X61361127Y-89932336D01*
X61329200Y-89771827D01*
X61329200Y-89608173D01*
X61361127Y-89447664D01*
X61423754Y-89296468D01*
X61514676Y-89160394D01*
X61630394Y-89044676D01*
X61766468Y-88953754D01*
X61917664Y-88891127D01*
X62078173Y-88859200D01*
X62241827Y-88859200D01*
X62402336Y-88891127D01*
X62402336Y-88891127D01*
G37*
G36*
X59862336Y-88891127D02*
G01*
X60013532Y-88953754D01*
X60149606Y-89044676D01*
X60265324Y-89160394D01*
X60356246Y-89296468D01*
X60418873Y-89447664D01*
X60450800Y-89608173D01*
X60450800Y-89771827D01*
X60418873Y-89932336D01*
X60356246Y-90083532D01*
X60265324Y-90219606D01*
X60149606Y-90335324D01*
X60013532Y-90426246D01*
X59862336Y-90488873D01*
X59701827Y-90520800D01*
X59538173Y-90520800D01*
X59377664Y-90488873D01*
X59226468Y-90426246D01*
X59090394Y-90335324D01*
X58974676Y-90219606D01*
X58883754Y-90083532D01*
X58821127Y-89932336D01*
X58789200Y-89771827D01*
X58789200Y-89608173D01*
X58821127Y-89447664D01*
X58883754Y-89296468D01*
X58974676Y-89160394D01*
X59090394Y-89044676D01*
X59226468Y-88953754D01*
X59377664Y-88891127D01*
X59538173Y-88859200D01*
X59701827Y-88859200D01*
X59862336Y-88891127D01*
X59862336Y-88891127D01*
G37*
G36*
X77642336Y-88891127D02*
G01*
X77793532Y-88953754D01*
X77929606Y-89044676D01*
X78045324Y-89160394D01*
X78136246Y-89296468D01*
X78198873Y-89447664D01*
X78230800Y-89608173D01*
X78230800Y-89771827D01*
X78198873Y-89932336D01*
X78136246Y-90083532D01*
X78045324Y-90219606D01*
X77929606Y-90335324D01*
X77793532Y-90426246D01*
X77642336Y-90488873D01*
X77481827Y-90520800D01*
X77318173Y-90520800D01*
X77157664Y-90488873D01*
X77006468Y-90426246D01*
X76870394Y-90335324D01*
X76754676Y-90219606D01*
X76663754Y-90083532D01*
X76601127Y-89932336D01*
X76569200Y-89771827D01*
X76569200Y-89608173D01*
X76601127Y-89447664D01*
X76663754Y-89296468D01*
X76754676Y-89160394D01*
X76870394Y-89044676D01*
X77006468Y-88953754D01*
X77157664Y-88891127D01*
X77318173Y-88859200D01*
X77481827Y-88859200D01*
X77642336Y-88891127D01*
X77642336Y-88891127D01*
G37*
G36*
X42330800Y-86780800D02*
G01*
X40529200Y-86780800D01*
X40529200Y-84979200D01*
X42330800Y-84979200D01*
X42330800Y-86780800D01*
X42330800Y-86780800D01*
G37*
G36*
X41606584Y-82452233D02*
G01*
X41606587Y-82452234D01*
X41606588Y-82452234D01*
X41776389Y-82503743D01*
X41823861Y-82529117D01*
X41932881Y-82587389D01*
X42070044Y-82699956D01*
X42182611Y-82837119D01*
X42240883Y-82946139D01*
X42266257Y-82993611D01*
X42317136Y-83161336D01*
X42317767Y-83163416D01*
X42335159Y-83340000D01*
X42317767Y-83516584D01*
X42317766Y-83516587D01*
X42317766Y-83516588D01*
X42266257Y-83686389D01*
X42266256Y-83686390D01*
X42182611Y-83842881D01*
X42070044Y-83980044D01*
X41932881Y-84092611D01*
X41823861Y-84150883D01*
X41776389Y-84176257D01*
X41606588Y-84227766D01*
X41606587Y-84227766D01*
X41606584Y-84227767D01*
X41474255Y-84240800D01*
X41385745Y-84240800D01*
X41253416Y-84227767D01*
X41253413Y-84227766D01*
X41253412Y-84227766D01*
X41083611Y-84176257D01*
X41036139Y-84150883D01*
X40927119Y-84092611D01*
X40789956Y-83980044D01*
X40677389Y-83842881D01*
X40593744Y-83686390D01*
X40593743Y-83686389D01*
X40542234Y-83516588D01*
X40542234Y-83516587D01*
X40542233Y-83516584D01*
X40524841Y-83340000D01*
X40542233Y-83163416D01*
X40542864Y-83161336D01*
X40593743Y-82993611D01*
X40619117Y-82946139D01*
X40677389Y-82837119D01*
X40789956Y-82699956D01*
X40927119Y-82587389D01*
X41036139Y-82529117D01*
X41083611Y-82503743D01*
X41253412Y-82452234D01*
X41253413Y-82452234D01*
X41253416Y-82452233D01*
X41385745Y-82439200D01*
X41474255Y-82439200D01*
X41606584Y-82452233D01*
X41606584Y-82452233D01*
G37*
G36*
X37208336Y-82059081D02*
G01*
X37253607Y-82072814D01*
X37295319Y-82095110D01*
X37331883Y-82125117D01*
X37361890Y-82161681D01*
X37384186Y-82203393D01*
X37397919Y-82248664D01*
X37402800Y-82298224D01*
X37402800Y-83111776D01*
X37397919Y-83161336D01*
X37384186Y-83206607D01*
X37361890Y-83248319D01*
X37331883Y-83284883D01*
X37295319Y-83314890D01*
X37253607Y-83337186D01*
X37208336Y-83350919D01*
X37158776Y-83355800D01*
X35795224Y-83355800D01*
X35745664Y-83350919D01*
X35700393Y-83337186D01*
X35658681Y-83314890D01*
X35622117Y-83284883D01*
X35592110Y-83248319D01*
X35569814Y-83206607D01*
X35556081Y-83161336D01*
X35551200Y-83111776D01*
X35551200Y-82298224D01*
X35556081Y-82248664D01*
X35569814Y-82203393D01*
X35592110Y-82161681D01*
X35622117Y-82125117D01*
X35658681Y-82095110D01*
X35700393Y-82072814D01*
X35745664Y-82059081D01*
X35795224Y-82054200D01*
X37158776Y-82054200D01*
X37208336Y-82059081D01*
X37208336Y-82059081D01*
G37*
G36*
X36879575Y-80063616D02*
G01*
X36879578Y-80063617D01*
X36879579Y-80063617D01*
X36908343Y-80072343D01*
X37002254Y-80100830D01*
X37115314Y-80161262D01*
X37115316Y-80161263D01*
X37115315Y-80161263D01*
X37214411Y-80242589D01*
X37295737Y-80341685D01*
X37356170Y-80454746D01*
X37393384Y-80577425D01*
X37405949Y-80705000D01*
X37393384Y-80832575D01*
X37356170Y-80955254D01*
X37356169Y-80955255D01*
X37295738Y-81068314D01*
X37214411Y-81167411D01*
X37115314Y-81248738D01*
X37002254Y-81309170D01*
X36908343Y-81337657D01*
X36879579Y-81346383D01*
X36879578Y-81346383D01*
X36879575Y-81346384D01*
X36783969Y-81355800D01*
X36170031Y-81355800D01*
X36074425Y-81346384D01*
X36074422Y-81346383D01*
X36074421Y-81346383D01*
X36045657Y-81337657D01*
X35951746Y-81309170D01*
X35838686Y-81248738D01*
X35739589Y-81167411D01*
X35658262Y-81068314D01*
X35597831Y-80955255D01*
X35597830Y-80955254D01*
X35560616Y-80832575D01*
X35548051Y-80705000D01*
X35560616Y-80577425D01*
X35597830Y-80454746D01*
X35658263Y-80341685D01*
X35739589Y-80242589D01*
X35838685Y-80161263D01*
X35838684Y-80161263D01*
X35838686Y-80161262D01*
X35951746Y-80100830D01*
X36045657Y-80072343D01*
X36074421Y-80063617D01*
X36074422Y-80063617D01*
X36074425Y-80063616D01*
X36170031Y-80054200D01*
X36783969Y-80054200D01*
X36879575Y-80063616D01*
X36879575Y-80063616D01*
G37*
G36*
X101292508Y-75344582D02*
G01*
X101483741Y-75423793D01*
X101655847Y-75538791D01*
X101802209Y-75685153D01*
X101917207Y-75857259D01*
X101996418Y-76048492D01*
X102036800Y-76251505D01*
X102036800Y-76458495D01*
X101996418Y-76661508D01*
X101917207Y-76852741D01*
X101802209Y-77024847D01*
X101655847Y-77171209D01*
X101483741Y-77286207D01*
X101292508Y-77365418D01*
X101089495Y-77405800D01*
X100882505Y-77405800D01*
X100679492Y-77365418D01*
X100488259Y-77286207D01*
X100316153Y-77171209D01*
X100169791Y-77024847D01*
X100054793Y-76852741D01*
X99975582Y-76661508D01*
X99935200Y-76458495D01*
X99935200Y-76251505D01*
X99975582Y-76048492D01*
X100054793Y-75857259D01*
X100169791Y-75685153D01*
X100316153Y-75538791D01*
X100488259Y-75423793D01*
X100679492Y-75344582D01*
X100882505Y-75304200D01*
X101089495Y-75304200D01*
X101292508Y-75344582D01*
X101292508Y-75344582D01*
G37*
G36*
X116292508Y-75344582D02*
G01*
X116483741Y-75423793D01*
X116655847Y-75538791D01*
X116802209Y-75685153D01*
X116917207Y-75857259D01*
X116996418Y-76048492D01*
X117036800Y-76251505D01*
X117036800Y-76458495D01*
X116996418Y-76661508D01*
X116917207Y-76852741D01*
X116802209Y-77024847D01*
X116655847Y-77171209D01*
X116483741Y-77286207D01*
X116292508Y-77365418D01*
X116089495Y-77405800D01*
X115882505Y-77405800D01*
X115679492Y-77365418D01*
X115488259Y-77286207D01*
X115316153Y-77171209D01*
X115169791Y-77024847D01*
X115054793Y-76852741D01*
X114975582Y-76661508D01*
X114935200Y-76458495D01*
X114935200Y-76251505D01*
X114975582Y-76048492D01*
X115054793Y-75857259D01*
X115169791Y-75685153D01*
X115316153Y-75538791D01*
X115488259Y-75423793D01*
X115679492Y-75344582D01*
X115882505Y-75304200D01*
X116089495Y-75304200D01*
X116292508Y-75344582D01*
X116292508Y-75344582D01*
G37*
G36*
X37317086Y-73248435D02*
G01*
X37465003Y-73309704D01*
X37598134Y-73398660D01*
X37711340Y-73511866D01*
X37800296Y-73644997D01*
X37861565Y-73792914D01*
X37892800Y-73949946D01*
X37892800Y-74110054D01*
X37861565Y-74267086D01*
X37800296Y-74415003D01*
X37711340Y-74548134D01*
X37598134Y-74661340D01*
X37465003Y-74750296D01*
X37317086Y-74811565D01*
X37160054Y-74842800D01*
X36999946Y-74842800D01*
X36842914Y-74811565D01*
X36694997Y-74750296D01*
X36561866Y-74661340D01*
X36448660Y-74548134D01*
X36359704Y-74415003D01*
X36298435Y-74267086D01*
X36267200Y-74110054D01*
X36267200Y-73949946D01*
X36298435Y-73792914D01*
X36359704Y-73644997D01*
X36448660Y-73511866D01*
X36561866Y-73398660D01*
X36694997Y-73309704D01*
X36842914Y-73248435D01*
X36999946Y-73217200D01*
X37160054Y-73217200D01*
X37317086Y-73248435D01*
X37317086Y-73248435D01*
G37*
G36*
X34050593Y-70970850D02*
G01*
X34050596Y-70970851D01*
X34267523Y-71036655D01*
X34467444Y-71143515D01*
X34642676Y-71287324D01*
X34786485Y-71462556D01*
X34893345Y-71662477D01*
X34951624Y-71854598D01*
X34959150Y-71879407D01*
X34981369Y-72105000D01*
X34959150Y-72330593D01*
X34959149Y-72330596D01*
X34893345Y-72547523D01*
X34786485Y-72747444D01*
X34642676Y-72922676D01*
X34467444Y-73066485D01*
X34267523Y-73173345D01*
X34122952Y-73217200D01*
X34050593Y-73239150D01*
X33881540Y-73255800D01*
X32468460Y-73255800D01*
X32299407Y-73239150D01*
X32227048Y-73217200D01*
X32082477Y-73173345D01*
X31882556Y-73066485D01*
X31707324Y-72922676D01*
X31563515Y-72747444D01*
X31456655Y-72547523D01*
X31390851Y-72330596D01*
X31390850Y-72330593D01*
X31368631Y-72105000D01*
X31390850Y-71879407D01*
X31398376Y-71854598D01*
X31456655Y-71662477D01*
X31563515Y-71462556D01*
X31707324Y-71287324D01*
X31882556Y-71143515D01*
X32082477Y-71036655D01*
X32299404Y-70970851D01*
X32299407Y-70970850D01*
X32468460Y-70954200D01*
X33881540Y-70954200D01*
X34050593Y-70970850D01*
X34050593Y-70970850D01*
G37*
G36*
X37317086Y-70708435D02*
G01*
X37465003Y-70769704D01*
X37598134Y-70858660D01*
X37711340Y-70971866D01*
X37800296Y-71104997D01*
X37861565Y-71252914D01*
X37892800Y-71409946D01*
X37892800Y-71570054D01*
X37861565Y-71727086D01*
X37800296Y-71875003D01*
X37711340Y-72008134D01*
X37598134Y-72121340D01*
X37465003Y-72210296D01*
X37317086Y-72271565D01*
X37160054Y-72302800D01*
X36999946Y-72302800D01*
X36842914Y-72271565D01*
X36694997Y-72210296D01*
X36561866Y-72121340D01*
X36448660Y-72008134D01*
X36359704Y-71875003D01*
X36298435Y-71727086D01*
X36267200Y-71570054D01*
X36267200Y-71409946D01*
X36298435Y-71252914D01*
X36359704Y-71104997D01*
X36448660Y-70971866D01*
X36561866Y-70858660D01*
X36694997Y-70769704D01*
X36842914Y-70708435D01*
X36999946Y-70677200D01*
X37160054Y-70677200D01*
X37317086Y-70708435D01*
X37317086Y-70708435D01*
G37*
G36*
X34475800Y-70805800D02*
G01*
X31874200Y-70805800D01*
X31874200Y-69204200D01*
X34475800Y-69204200D01*
X34475800Y-70805800D01*
X34475800Y-70805800D01*
G37*
G36*
X37317086Y-68168435D02*
G01*
X37465003Y-68229704D01*
X37554163Y-68289279D01*
X37589568Y-68312936D01*
X37598134Y-68318660D01*
X37711340Y-68431866D01*
X37800296Y-68564997D01*
X37861565Y-68712914D01*
X37892800Y-68869946D01*
X37892800Y-69030054D01*
X37861565Y-69187086D01*
X37800296Y-69335003D01*
X37711340Y-69468134D01*
X37598134Y-69581340D01*
X37465003Y-69670296D01*
X37317086Y-69731565D01*
X37160054Y-69762800D01*
X36999946Y-69762800D01*
X36842914Y-69731565D01*
X36694997Y-69670296D01*
X36561866Y-69581340D01*
X36448660Y-69468134D01*
X36359704Y-69335003D01*
X36298435Y-69187086D01*
X36267200Y-69030054D01*
X36267200Y-68869946D01*
X36298435Y-68712914D01*
X36359704Y-68564997D01*
X36448660Y-68431866D01*
X36561866Y-68318660D01*
X36570433Y-68312936D01*
X36605837Y-68289279D01*
X36694997Y-68229704D01*
X36842914Y-68168435D01*
X36999946Y-68137200D01*
X37160054Y-68137200D01*
X37317086Y-68168435D01*
X37317086Y-68168435D01*
G37*
G36*
X33831980Y-67215786D02*
G01*
X33912036Y-67240071D01*
X33982935Y-67261578D01*
X34104091Y-67326337D01*
X34122055Y-67335939D01*
X34243991Y-67436009D01*
X34344061Y-67557945D01*
X34344062Y-67557947D01*
X34418422Y-67697065D01*
X34439929Y-67767964D01*
X34464214Y-67848020D01*
X34479675Y-68005000D01*
X34464214Y-68161980D01*
X34443670Y-68229704D01*
X34418422Y-68312935D01*
X34354852Y-68431866D01*
X34344061Y-68452055D01*
X34243991Y-68573991D01*
X34122055Y-68674061D01*
X34122053Y-68674062D01*
X33982935Y-68748422D01*
X33912036Y-68769929D01*
X33831980Y-68794214D01*
X33714341Y-68805800D01*
X32635659Y-68805800D01*
X32518020Y-68794214D01*
X32437964Y-68769929D01*
X32367065Y-68748422D01*
X32227947Y-68674062D01*
X32227945Y-68674061D01*
X32106009Y-68573991D01*
X32005939Y-68452055D01*
X31995148Y-68431866D01*
X31931578Y-68312935D01*
X31906330Y-68229704D01*
X31885786Y-68161980D01*
X31870325Y-68005000D01*
X31885786Y-67848020D01*
X31910071Y-67767964D01*
X31931578Y-67697065D01*
X32005938Y-67557947D01*
X32005939Y-67557945D01*
X32106009Y-67436009D01*
X32227945Y-67335939D01*
X32245909Y-67326337D01*
X32367065Y-67261578D01*
X32437964Y-67240071D01*
X32518020Y-67215786D01*
X32635659Y-67204200D01*
X33714341Y-67204200D01*
X33831980Y-67215786D01*
X33831980Y-67215786D01*
G37*
G36*
X37317086Y-65628435D02*
G01*
X37465003Y-65689704D01*
X37598134Y-65778660D01*
X37711340Y-65891866D01*
X37800296Y-66024997D01*
X37861565Y-66172914D01*
X37892800Y-66329946D01*
X37892800Y-66490054D01*
X37861565Y-66647086D01*
X37800296Y-66795003D01*
X37711340Y-66928134D01*
X37598134Y-67041340D01*
X37465003Y-67130296D01*
X37317086Y-67191565D01*
X37160054Y-67222800D01*
X36999946Y-67222800D01*
X36842914Y-67191565D01*
X36694997Y-67130296D01*
X36561866Y-67041340D01*
X36448660Y-66928134D01*
X36359704Y-66795003D01*
X36298435Y-66647086D01*
X36267200Y-66490054D01*
X36267200Y-66329946D01*
X36298435Y-66172914D01*
X36359704Y-66024997D01*
X36448660Y-65891866D01*
X36561866Y-65778660D01*
X36694997Y-65689704D01*
X36842914Y-65628435D01*
X36999946Y-65597200D01*
X37160054Y-65597200D01*
X37317086Y-65628435D01*
X37317086Y-65628435D01*
G37*
G36*
X33831980Y-65215786D02*
G01*
X33912036Y-65240071D01*
X33982935Y-65261578D01*
X34104091Y-65326337D01*
X34122055Y-65335939D01*
X34243991Y-65436009D01*
X34344061Y-65557945D01*
X34344062Y-65557947D01*
X34418422Y-65697065D01*
X34423195Y-65712800D01*
X34464214Y-65848020D01*
X34479675Y-66005000D01*
X34464214Y-66161980D01*
X34439929Y-66242036D01*
X34418422Y-66312935D01*
X34418421Y-66312936D01*
X34344061Y-66452055D01*
X34243991Y-66573991D01*
X34122055Y-66674061D01*
X34122053Y-66674062D01*
X33982935Y-66748422D01*
X33912036Y-66769929D01*
X33831980Y-66794214D01*
X33714341Y-66805800D01*
X32635659Y-66805800D01*
X32518020Y-66794214D01*
X32437964Y-66769929D01*
X32367065Y-66748422D01*
X32227947Y-66674062D01*
X32227945Y-66674061D01*
X32106009Y-66573991D01*
X32005939Y-66452055D01*
X31931579Y-66312936D01*
X31931578Y-66312935D01*
X31910071Y-66242036D01*
X31885786Y-66161980D01*
X31870325Y-66005000D01*
X31885786Y-65848020D01*
X31926805Y-65712800D01*
X31931578Y-65697065D01*
X32005938Y-65557947D01*
X32005939Y-65557945D01*
X32106009Y-65436009D01*
X32227945Y-65335939D01*
X32245909Y-65326337D01*
X32367065Y-65261578D01*
X32437964Y-65240071D01*
X32518020Y-65215786D01*
X32635659Y-65204200D01*
X33714341Y-65204200D01*
X33831980Y-65215786D01*
X33831980Y-65215786D01*
G37*
G36*
X91197086Y-64118435D02*
G01*
X91345003Y-64179704D01*
X91478134Y-64268660D01*
X91591340Y-64381866D01*
X91680296Y-64514997D01*
X91741565Y-64662914D01*
X91772800Y-64819946D01*
X91772800Y-64980054D01*
X91741565Y-65137086D01*
X91680296Y-65285003D01*
X91591340Y-65418134D01*
X91478134Y-65531340D01*
X91345003Y-65620296D01*
X91197086Y-65681565D01*
X91040054Y-65712800D01*
X90879946Y-65712800D01*
X90722914Y-65681565D01*
X90574997Y-65620296D01*
X90441866Y-65531340D01*
X90328660Y-65418134D01*
X90239704Y-65285003D01*
X90178435Y-65137086D01*
X90147200Y-64980054D01*
X90147200Y-64819946D01*
X90178435Y-64662914D01*
X90239704Y-64514997D01*
X90328660Y-64381866D01*
X90441866Y-64268660D01*
X90574997Y-64179704D01*
X90722914Y-64118435D01*
X90879946Y-64087200D01*
X91040054Y-64087200D01*
X91197086Y-64118435D01*
X91197086Y-64118435D01*
G37*
G36*
X93717086Y-64118435D02*
G01*
X93865003Y-64179704D01*
X93998134Y-64268660D01*
X94111340Y-64381866D01*
X94200296Y-64514997D01*
X94261565Y-64662914D01*
X94292800Y-64819946D01*
X94292800Y-64980054D01*
X94261565Y-65137086D01*
X94200296Y-65285003D01*
X94111340Y-65418134D01*
X93998134Y-65531340D01*
X93865003Y-65620296D01*
X93717086Y-65681565D01*
X93560054Y-65712800D01*
X93399946Y-65712800D01*
X93242914Y-65681565D01*
X93094997Y-65620296D01*
X92961866Y-65531340D01*
X92848660Y-65418134D01*
X92759704Y-65285003D01*
X92698435Y-65137086D01*
X92667200Y-64980054D01*
X92667200Y-64819946D01*
X92698435Y-64662914D01*
X92759704Y-64514997D01*
X92848660Y-64381866D01*
X92961866Y-64268660D01*
X93094997Y-64179704D01*
X93242914Y-64118435D01*
X93399946Y-64087200D01*
X93560054Y-64087200D01*
X93717086Y-64118435D01*
X93717086Y-64118435D01*
G37*
G36*
X88657086Y-64118435D02*
G01*
X88805003Y-64179704D01*
X88938134Y-64268660D01*
X89051340Y-64381866D01*
X89140296Y-64514997D01*
X89201565Y-64662914D01*
X89232800Y-64819946D01*
X89232800Y-64980054D01*
X89201565Y-65137086D01*
X89140296Y-65285003D01*
X89051340Y-65418134D01*
X88938134Y-65531340D01*
X88805003Y-65620296D01*
X88657086Y-65681565D01*
X88500054Y-65712800D01*
X88339946Y-65712800D01*
X88182914Y-65681565D01*
X88034997Y-65620296D01*
X87901866Y-65531340D01*
X87788660Y-65418134D01*
X87699704Y-65285003D01*
X87638435Y-65137086D01*
X87607200Y-64980054D01*
X87607200Y-64819946D01*
X87638435Y-64662914D01*
X87699704Y-64514997D01*
X87788660Y-64381866D01*
X87901866Y-64268660D01*
X88034997Y-64179704D01*
X88182914Y-64118435D01*
X88339946Y-64087200D01*
X88500054Y-64087200D01*
X88657086Y-64118435D01*
X88657086Y-64118435D01*
G37*
G36*
X81037086Y-64118435D02*
G01*
X81185003Y-64179704D01*
X81318134Y-64268660D01*
X81431340Y-64381866D01*
X81520296Y-64514997D01*
X81581565Y-64662914D01*
X81612800Y-64819946D01*
X81612800Y-64980054D01*
X81581565Y-65137086D01*
X81520296Y-65285003D01*
X81431340Y-65418134D01*
X81318134Y-65531340D01*
X81185003Y-65620296D01*
X81037086Y-65681565D01*
X80880054Y-65712800D01*
X80719946Y-65712800D01*
X80562914Y-65681565D01*
X80414997Y-65620296D01*
X80281866Y-65531340D01*
X80168660Y-65418134D01*
X80079704Y-65285003D01*
X80018435Y-65137086D01*
X79987200Y-64980054D01*
X79987200Y-64819946D01*
X80018435Y-64662914D01*
X80079704Y-64514997D01*
X80168660Y-64381866D01*
X80281866Y-64268660D01*
X80414997Y-64179704D01*
X80562914Y-64118435D01*
X80719946Y-64087200D01*
X80880054Y-64087200D01*
X81037086Y-64118435D01*
X81037086Y-64118435D01*
G37*
G36*
X78497086Y-64118435D02*
G01*
X78645003Y-64179704D01*
X78778134Y-64268660D01*
X78891340Y-64381866D01*
X78980296Y-64514997D01*
X79041565Y-64662914D01*
X79072800Y-64819946D01*
X79072800Y-64980054D01*
X79041565Y-65137086D01*
X78980296Y-65285003D01*
X78891340Y-65418134D01*
X78778134Y-65531340D01*
X78645003Y-65620296D01*
X78497086Y-65681565D01*
X78340054Y-65712800D01*
X78179946Y-65712800D01*
X78022914Y-65681565D01*
X77874997Y-65620296D01*
X77741866Y-65531340D01*
X77628660Y-65418134D01*
X77539704Y-65285003D01*
X77478435Y-65137086D01*
X77447200Y-64980054D01*
X77447200Y-64819946D01*
X77478435Y-64662914D01*
X77539704Y-64514997D01*
X77628660Y-64381866D01*
X77741866Y-64268660D01*
X77874997Y-64179704D01*
X78022914Y-64118435D01*
X78179946Y-64087200D01*
X78340054Y-64087200D01*
X78497086Y-64118435D01*
X78497086Y-64118435D01*
G37*
G36*
X34050593Y-62770850D02*
G01*
X34050596Y-62770851D01*
X34267523Y-62836655D01*
X34467444Y-62943515D01*
X34642676Y-63087324D01*
X34786485Y-63262556D01*
X34893345Y-63462477D01*
X34900176Y-63484997D01*
X34959150Y-63679407D01*
X34981369Y-63905000D01*
X34959150Y-64130593D01*
X34959149Y-64130596D01*
X34893345Y-64347523D01*
X34786485Y-64547444D01*
X34642676Y-64722676D01*
X34467444Y-64866485D01*
X34267523Y-64973345D01*
X34075402Y-65031624D01*
X34050593Y-65039150D01*
X33881540Y-65055800D01*
X32468460Y-65055800D01*
X32299407Y-65039150D01*
X32274598Y-65031624D01*
X32082477Y-64973345D01*
X31882556Y-64866485D01*
X31707324Y-64722676D01*
X31563515Y-64547444D01*
X31456655Y-64347523D01*
X31390851Y-64130596D01*
X31390850Y-64130593D01*
X31368631Y-63905000D01*
X31390850Y-63679407D01*
X31449824Y-63484997D01*
X31456655Y-63462477D01*
X31563515Y-63262556D01*
X31707324Y-63087324D01*
X31882556Y-62943515D01*
X32082477Y-62836655D01*
X32299404Y-62770851D01*
X32299407Y-62770850D01*
X32468460Y-62754200D01*
X33881540Y-62754200D01*
X34050593Y-62770850D01*
X34050593Y-62770850D01*
G37*
G36*
X37317086Y-63088435D02*
G01*
X37465003Y-63149704D01*
X37598134Y-63238660D01*
X37711340Y-63351866D01*
X37800296Y-63484997D01*
X37861565Y-63632914D01*
X37892800Y-63789946D01*
X37892800Y-63950054D01*
X37861565Y-64107086D01*
X37800296Y-64255003D01*
X37711340Y-64388134D01*
X37598134Y-64501340D01*
X37465003Y-64590296D01*
X37317086Y-64651565D01*
X37160054Y-64682800D01*
X36999946Y-64682800D01*
X36842914Y-64651565D01*
X36694997Y-64590296D01*
X36561866Y-64501340D01*
X36448660Y-64388134D01*
X36359704Y-64255003D01*
X36298435Y-64107086D01*
X36267200Y-63950054D01*
X36267200Y-63789946D01*
X36298435Y-63632914D01*
X36359704Y-63484997D01*
X36448660Y-63351866D01*
X36561866Y-63238660D01*
X36694997Y-63149704D01*
X36842914Y-63088435D01*
X36999946Y-63057200D01*
X37160054Y-63057200D01*
X37317086Y-63088435D01*
X37317086Y-63088435D01*
G37*
G36*
X118317086Y-60568435D02*
G01*
X118465003Y-60629704D01*
X118598134Y-60718660D01*
X118711340Y-60831866D01*
X118800296Y-60964997D01*
X118861565Y-61112914D01*
X118892800Y-61269946D01*
X118892800Y-61430054D01*
X118861565Y-61587086D01*
X118800296Y-61735003D01*
X118740721Y-61824163D01*
X118724707Y-61848130D01*
X118711340Y-61868134D01*
X118598134Y-61981340D01*
X118465003Y-62070296D01*
X118317086Y-62131565D01*
X118160054Y-62162800D01*
X117999946Y-62162800D01*
X117842914Y-62131565D01*
X117694997Y-62070296D01*
X117561866Y-61981340D01*
X117448660Y-61868134D01*
X117435294Y-61848130D01*
X117419279Y-61824163D01*
X117359704Y-61735003D01*
X117298435Y-61587086D01*
X117267200Y-61430054D01*
X117267200Y-61269946D01*
X117298435Y-61112914D01*
X117359704Y-60964997D01*
X117448660Y-60831866D01*
X117561866Y-60718660D01*
X117694997Y-60629704D01*
X117842914Y-60568435D01*
X117999946Y-60537200D01*
X118160054Y-60537200D01*
X118317086Y-60568435D01*
X118317086Y-60568435D01*
G37*
G36*
X121617086Y-60548435D02*
G01*
X121765003Y-60609704D01*
X121898134Y-60698660D01*
X122011340Y-60811866D01*
X122011342Y-60811869D01*
X122011343Y-60811870D01*
X122040721Y-60855837D01*
X122100296Y-60944997D01*
X122161565Y-61092914D01*
X122192800Y-61249946D01*
X122192800Y-61410054D01*
X122161565Y-61567086D01*
X122100296Y-61715003D01*
X122011340Y-61848134D01*
X121898134Y-61961340D01*
X121765003Y-62050296D01*
X121617086Y-62111565D01*
X121460054Y-62142800D01*
X121299946Y-62142800D01*
X121142914Y-62111565D01*
X120994997Y-62050296D01*
X120861866Y-61961340D01*
X120748660Y-61848134D01*
X120659704Y-61715003D01*
X120598435Y-61567086D01*
X120567200Y-61410054D01*
X120567200Y-61249946D01*
X120598435Y-61092914D01*
X120659704Y-60944997D01*
X120719279Y-60855837D01*
X120748657Y-60811870D01*
X120748658Y-60811869D01*
X120748660Y-60811866D01*
X120861866Y-60698660D01*
X120994997Y-60609704D01*
X121142914Y-60548435D01*
X121299946Y-60517200D01*
X121460054Y-60517200D01*
X121617086Y-60548435D01*
X121617086Y-60548435D01*
G37*
G36*
X37317086Y-60548435D02*
G01*
X37465003Y-60609704D01*
X37598134Y-60698660D01*
X37711340Y-60811866D01*
X37711342Y-60811869D01*
X37711343Y-60811870D01*
X37740721Y-60855837D01*
X37800296Y-60944997D01*
X37861565Y-61092914D01*
X37892800Y-61249946D01*
X37892800Y-61410054D01*
X37861565Y-61567086D01*
X37800296Y-61715003D01*
X37711340Y-61848134D01*
X37598134Y-61961340D01*
X37465003Y-62050296D01*
X37317086Y-62111565D01*
X37160054Y-62142800D01*
X36999946Y-62142800D01*
X36842914Y-62111565D01*
X36694997Y-62050296D01*
X36561866Y-61961340D01*
X36448660Y-61848134D01*
X36359704Y-61715003D01*
X36298435Y-61567086D01*
X36267200Y-61410054D01*
X36267200Y-61249946D01*
X36298435Y-61092914D01*
X36359704Y-60944997D01*
X36419279Y-60855837D01*
X36448657Y-60811870D01*
X36448658Y-60811869D01*
X36448660Y-60811866D01*
X36561866Y-60698660D01*
X36694997Y-60609704D01*
X36842914Y-60548435D01*
X36999946Y-60517200D01*
X37160054Y-60517200D01*
X37317086Y-60548435D01*
X37317086Y-60548435D01*
G37*
G36*
X32716584Y-58957233D02*
G01*
X32716587Y-58957234D01*
X32716588Y-58957234D01*
X32886389Y-59008743D01*
X32920704Y-59027085D01*
X33042881Y-59092389D01*
X33180044Y-59204956D01*
X33292611Y-59342119D01*
X33350883Y-59451139D01*
X33376257Y-59498611D01*
X33427766Y-59668412D01*
X33427767Y-59668416D01*
X33445159Y-59845000D01*
X33427767Y-60021584D01*
X33427766Y-60021587D01*
X33427766Y-60021588D01*
X33376257Y-60191389D01*
X33376256Y-60191390D01*
X33292611Y-60347881D01*
X33180044Y-60485044D01*
X33042881Y-60597611D01*
X32933861Y-60655883D01*
X32886389Y-60681257D01*
X32716588Y-60732766D01*
X32716587Y-60732766D01*
X32716584Y-60732767D01*
X32584255Y-60745800D01*
X32495745Y-60745800D01*
X32363416Y-60732767D01*
X32363413Y-60732766D01*
X32363412Y-60732766D01*
X32193611Y-60681257D01*
X32146139Y-60655883D01*
X32037119Y-60597611D01*
X31899956Y-60485044D01*
X31787389Y-60347881D01*
X31703744Y-60191390D01*
X31703743Y-60191389D01*
X31652234Y-60021588D01*
X31652234Y-60021587D01*
X31652233Y-60021584D01*
X31634841Y-59845000D01*
X31652233Y-59668416D01*
X31652234Y-59668412D01*
X31703743Y-59498611D01*
X31729117Y-59451139D01*
X31787389Y-59342119D01*
X31899956Y-59204956D01*
X32037119Y-59092389D01*
X32159296Y-59027085D01*
X32193611Y-59008743D01*
X32363412Y-58957234D01*
X32363413Y-58957234D01*
X32363416Y-58957233D01*
X32495745Y-58944200D01*
X32584255Y-58944200D01*
X32716584Y-58957233D01*
X32716584Y-58957233D01*
G37*
G36*
X118317086Y-58028435D02*
G01*
X118465003Y-58089704D01*
X118598134Y-58178660D01*
X118711340Y-58291866D01*
X118800296Y-58424997D01*
X118861565Y-58572914D01*
X118892800Y-58729946D01*
X118892800Y-58890054D01*
X118861565Y-59047086D01*
X118800296Y-59195003D01*
X118740721Y-59284163D01*
X118724707Y-59308130D01*
X118711340Y-59328134D01*
X118598134Y-59441340D01*
X118465003Y-59530296D01*
X118317086Y-59591565D01*
X118160054Y-59622800D01*
X117999946Y-59622800D01*
X117842914Y-59591565D01*
X117694997Y-59530296D01*
X117561866Y-59441340D01*
X117448660Y-59328134D01*
X117435294Y-59308130D01*
X117419279Y-59284163D01*
X117359704Y-59195003D01*
X117298435Y-59047086D01*
X117267200Y-58890054D01*
X117267200Y-58729946D01*
X117298435Y-58572914D01*
X117359704Y-58424997D01*
X117448660Y-58291866D01*
X117561866Y-58178660D01*
X117694997Y-58089704D01*
X117842914Y-58028435D01*
X117999946Y-57997200D01*
X118160054Y-57997200D01*
X118317086Y-58028435D01*
X118317086Y-58028435D01*
G37*
G36*
X121617086Y-58008435D02*
G01*
X121765003Y-58069704D01*
X121898134Y-58158660D01*
X122011340Y-58271866D01*
X122011342Y-58271869D01*
X122011343Y-58271870D01*
X122040721Y-58315837D01*
X122100296Y-58404997D01*
X122161565Y-58552914D01*
X122192800Y-58709946D01*
X122192800Y-58870054D01*
X122161565Y-59027086D01*
X122100296Y-59175003D01*
X122011340Y-59308134D01*
X121898134Y-59421340D01*
X121765003Y-59510296D01*
X121617086Y-59571565D01*
X121460054Y-59602800D01*
X121299946Y-59602800D01*
X121142914Y-59571565D01*
X120994997Y-59510296D01*
X120861866Y-59421340D01*
X120748660Y-59308134D01*
X120659704Y-59175003D01*
X120598435Y-59027086D01*
X120567200Y-58870054D01*
X120567200Y-58709946D01*
X120598435Y-58552914D01*
X120659704Y-58404997D01*
X120719279Y-58315837D01*
X120748657Y-58271870D01*
X120748658Y-58271869D01*
X120748660Y-58271866D01*
X120861866Y-58158660D01*
X120994997Y-58069704D01*
X121142914Y-58008435D01*
X121299946Y-57977200D01*
X121460054Y-57977200D01*
X121617086Y-58008435D01*
X121617086Y-58008435D01*
G37*
G36*
X37317086Y-58008435D02*
G01*
X37465003Y-58069704D01*
X37598134Y-58158660D01*
X37711340Y-58271866D01*
X37711342Y-58271869D01*
X37711343Y-58271870D01*
X37740721Y-58315837D01*
X37800296Y-58404997D01*
X37861565Y-58552914D01*
X37892800Y-58709946D01*
X37892800Y-58870054D01*
X37861565Y-59027086D01*
X37800296Y-59175003D01*
X37711340Y-59308134D01*
X37598134Y-59421340D01*
X37465003Y-59510296D01*
X37317086Y-59571565D01*
X37160054Y-59602800D01*
X36999946Y-59602800D01*
X36842914Y-59571565D01*
X36694997Y-59510296D01*
X36561866Y-59421340D01*
X36448660Y-59308134D01*
X36359704Y-59175003D01*
X36298435Y-59027086D01*
X36267200Y-58870054D01*
X36267200Y-58709946D01*
X36298435Y-58552914D01*
X36359704Y-58404997D01*
X36419279Y-58315837D01*
X36448657Y-58271870D01*
X36448658Y-58271869D01*
X36448660Y-58271866D01*
X36561866Y-58158660D01*
X36694997Y-58069704D01*
X36842914Y-58008435D01*
X36999946Y-57977200D01*
X37160054Y-57977200D01*
X37317086Y-58008435D01*
X37317086Y-58008435D01*
G37*
G36*
X32716584Y-56417233D02*
G01*
X32716587Y-56417234D01*
X32716588Y-56417234D01*
X32886389Y-56468743D01*
X32920704Y-56487085D01*
X33042881Y-56552389D01*
X33180044Y-56664956D01*
X33292611Y-56802119D01*
X33350883Y-56911139D01*
X33376257Y-56958611D01*
X33427766Y-57128412D01*
X33427767Y-57128416D01*
X33445159Y-57305000D01*
X33427767Y-57481584D01*
X33427766Y-57481587D01*
X33427766Y-57481588D01*
X33376257Y-57651389D01*
X33376256Y-57651390D01*
X33292611Y-57807881D01*
X33180044Y-57945044D01*
X33042881Y-58057611D01*
X32933861Y-58115883D01*
X32886389Y-58141257D01*
X32716588Y-58192766D01*
X32716587Y-58192766D01*
X32716584Y-58192767D01*
X32584255Y-58205800D01*
X32495745Y-58205800D01*
X32363416Y-58192767D01*
X32363413Y-58192766D01*
X32363412Y-58192766D01*
X32193611Y-58141257D01*
X32146139Y-58115883D01*
X32037119Y-58057611D01*
X31899956Y-57945044D01*
X31787389Y-57807881D01*
X31703744Y-57651390D01*
X31703743Y-57651389D01*
X31652234Y-57481588D01*
X31652234Y-57481587D01*
X31652233Y-57481584D01*
X31634841Y-57305000D01*
X31652233Y-57128416D01*
X31652234Y-57128412D01*
X31703743Y-56958611D01*
X31729117Y-56911139D01*
X31787389Y-56802119D01*
X31899956Y-56664956D01*
X32037119Y-56552389D01*
X32159296Y-56487085D01*
X32193611Y-56468743D01*
X32363412Y-56417234D01*
X32363413Y-56417234D01*
X32363416Y-56417233D01*
X32495745Y-56404200D01*
X32584255Y-56404200D01*
X32716584Y-56417233D01*
X32716584Y-56417233D01*
G37*
G36*
X118317086Y-55488435D02*
G01*
X118465003Y-55549704D01*
X118598134Y-55638660D01*
X118711340Y-55751866D01*
X118800296Y-55884997D01*
X118861565Y-56032914D01*
X118892800Y-56189946D01*
X118892800Y-56350054D01*
X118861565Y-56507086D01*
X118800296Y-56655003D01*
X118740721Y-56744163D01*
X118724707Y-56768130D01*
X118711340Y-56788134D01*
X118598134Y-56901340D01*
X118465003Y-56990296D01*
X118317086Y-57051565D01*
X118160054Y-57082800D01*
X117999946Y-57082800D01*
X117842914Y-57051565D01*
X117694997Y-56990296D01*
X117561866Y-56901340D01*
X117448660Y-56788134D01*
X117435294Y-56768130D01*
X117419279Y-56744163D01*
X117359704Y-56655003D01*
X117298435Y-56507086D01*
X117267200Y-56350054D01*
X117267200Y-56189946D01*
X117298435Y-56032914D01*
X117359704Y-55884997D01*
X117448660Y-55751866D01*
X117561866Y-55638660D01*
X117694997Y-55549704D01*
X117842914Y-55488435D01*
X117999946Y-55457200D01*
X118160054Y-55457200D01*
X118317086Y-55488435D01*
X118317086Y-55488435D01*
G37*
G36*
X37317086Y-55468435D02*
G01*
X37465003Y-55529704D01*
X37598134Y-55618660D01*
X37711340Y-55731866D01*
X37711342Y-55731869D01*
X37711343Y-55731870D01*
X37740721Y-55775837D01*
X37800296Y-55864997D01*
X37861565Y-56012914D01*
X37892800Y-56169946D01*
X37892800Y-56330054D01*
X37861565Y-56487086D01*
X37800296Y-56635003D01*
X37711340Y-56768134D01*
X37598134Y-56881340D01*
X37465003Y-56970296D01*
X37317086Y-57031565D01*
X37160054Y-57062800D01*
X36999946Y-57062800D01*
X36842914Y-57031565D01*
X36694997Y-56970296D01*
X36561866Y-56881340D01*
X36448660Y-56768134D01*
X36359704Y-56635003D01*
X36298435Y-56487086D01*
X36267200Y-56330054D01*
X36267200Y-56169946D01*
X36298435Y-56012914D01*
X36359704Y-55864997D01*
X36419279Y-55775837D01*
X36448657Y-55731870D01*
X36448658Y-55731869D01*
X36448660Y-55731866D01*
X36561866Y-55618660D01*
X36694997Y-55529704D01*
X36842914Y-55468435D01*
X36999946Y-55437200D01*
X37160054Y-55437200D01*
X37317086Y-55468435D01*
X37317086Y-55468435D01*
G37*
G36*
X121617086Y-55468435D02*
G01*
X121765003Y-55529704D01*
X121898134Y-55618660D01*
X122011340Y-55731866D01*
X122011342Y-55731869D01*
X122011343Y-55731870D01*
X122040721Y-55775837D01*
X122100296Y-55864997D01*
X122161565Y-56012914D01*
X122192800Y-56169946D01*
X122192800Y-56330054D01*
X122161565Y-56487086D01*
X122100296Y-56635003D01*
X122011340Y-56768134D01*
X121898134Y-56881340D01*
X121765003Y-56970296D01*
X121617086Y-57031565D01*
X121460054Y-57062800D01*
X121299946Y-57062800D01*
X121142914Y-57031565D01*
X120994997Y-56970296D01*
X120861866Y-56881340D01*
X120748660Y-56768134D01*
X120659704Y-56635003D01*
X120598435Y-56487086D01*
X120567200Y-56330054D01*
X120567200Y-56169946D01*
X120598435Y-56012914D01*
X120659704Y-55864997D01*
X120719279Y-55775837D01*
X120748657Y-55731870D01*
X120748658Y-55731869D01*
X120748660Y-55731866D01*
X120861866Y-55618660D01*
X120994997Y-55529704D01*
X121142914Y-55468435D01*
X121299946Y-55437200D01*
X121460054Y-55437200D01*
X121617086Y-55468435D01*
X121617086Y-55468435D01*
G37*
G36*
X33440800Y-55665800D02*
G01*
X31639200Y-55665800D01*
X31639200Y-53864200D01*
X33440800Y-53864200D01*
X33440800Y-55665800D01*
X33440800Y-55665800D01*
G37*
G36*
X118317086Y-52948435D02*
G01*
X118465003Y-53009704D01*
X118598134Y-53098660D01*
X118711340Y-53211866D01*
X118800296Y-53344997D01*
X118861565Y-53492914D01*
X118892800Y-53649946D01*
X118892800Y-53810054D01*
X118861565Y-53967086D01*
X118800296Y-54115003D01*
X118740721Y-54204163D01*
X118724707Y-54228130D01*
X118711340Y-54248134D01*
X118598134Y-54361340D01*
X118465003Y-54450296D01*
X118317086Y-54511565D01*
X118160054Y-54542800D01*
X117999946Y-54542800D01*
X117842914Y-54511565D01*
X117694997Y-54450296D01*
X117561866Y-54361340D01*
X117448660Y-54248134D01*
X117435294Y-54228130D01*
X117419279Y-54204163D01*
X117359704Y-54115003D01*
X117298435Y-53967086D01*
X117267200Y-53810054D01*
X117267200Y-53649946D01*
X117298435Y-53492914D01*
X117359704Y-53344997D01*
X117448660Y-53211866D01*
X117561866Y-53098660D01*
X117694997Y-53009704D01*
X117842914Y-52948435D01*
X117999946Y-52917200D01*
X118160054Y-52917200D01*
X118317086Y-52948435D01*
X118317086Y-52948435D01*
G37*
G36*
X121617086Y-52928435D02*
G01*
X121765003Y-52989704D01*
X121898134Y-53078660D01*
X122011340Y-53191866D01*
X122011342Y-53191869D01*
X122011343Y-53191870D01*
X122040721Y-53235837D01*
X122100296Y-53324997D01*
X122161565Y-53472914D01*
X122192800Y-53629946D01*
X122192800Y-53790054D01*
X122161565Y-53947086D01*
X122100296Y-54095003D01*
X122011340Y-54228134D01*
X121898134Y-54341340D01*
X121765003Y-54430296D01*
X121617086Y-54491565D01*
X121460054Y-54522800D01*
X121299946Y-54522800D01*
X121142914Y-54491565D01*
X120994997Y-54430296D01*
X120861866Y-54341340D01*
X120748660Y-54228134D01*
X120659704Y-54095003D01*
X120598435Y-53947086D01*
X120567200Y-53790054D01*
X120567200Y-53629946D01*
X120598435Y-53472914D01*
X120659704Y-53324997D01*
X120719279Y-53235837D01*
X120748657Y-53191870D01*
X120748658Y-53191869D01*
X120748660Y-53191866D01*
X120861866Y-53078660D01*
X120994997Y-52989704D01*
X121142914Y-52928435D01*
X121299946Y-52897200D01*
X121460054Y-52897200D01*
X121617086Y-52928435D01*
X121617086Y-52928435D01*
G37*
G36*
X37317086Y-52928435D02*
G01*
X37465003Y-52989704D01*
X37598134Y-53078660D01*
X37711340Y-53191866D01*
X37711342Y-53191869D01*
X37711343Y-53191870D01*
X37740721Y-53235837D01*
X37800296Y-53324997D01*
X37861565Y-53472914D01*
X37892800Y-53629946D01*
X37892800Y-53790054D01*
X37861565Y-53947086D01*
X37800296Y-54095003D01*
X37711340Y-54228134D01*
X37598134Y-54341340D01*
X37465003Y-54430296D01*
X37317086Y-54491565D01*
X37160054Y-54522800D01*
X36999946Y-54522800D01*
X36842914Y-54491565D01*
X36694997Y-54430296D01*
X36561866Y-54341340D01*
X36448660Y-54228134D01*
X36359704Y-54095003D01*
X36298435Y-53947086D01*
X36267200Y-53790054D01*
X36267200Y-53629946D01*
X36298435Y-53472914D01*
X36359704Y-53324997D01*
X36419279Y-53235837D01*
X36448657Y-53191870D01*
X36448658Y-53191869D01*
X36448660Y-53191866D01*
X36561866Y-53078660D01*
X36694997Y-52989704D01*
X36842914Y-52928435D01*
X36999946Y-52897200D01*
X37160054Y-52897200D01*
X37317086Y-52928435D01*
X37317086Y-52928435D01*
G37*
G36*
X42369800Y-53164800D02*
G01*
X40744200Y-53164800D01*
X40744200Y-51539200D01*
X42369800Y-51539200D01*
X42369800Y-53164800D01*
X42369800Y-53164800D01*
G37*
G36*
X51513800Y-53164800D02*
G01*
X49888200Y-53164800D01*
X49888200Y-51539200D01*
X51513800Y-51539200D01*
X51513800Y-53164800D01*
X51513800Y-53164800D01*
G37*
G36*
X37317086Y-50388435D02*
G01*
X37465003Y-50449704D01*
X37598134Y-50538660D01*
X37711340Y-50651866D01*
X37800296Y-50784997D01*
X37861565Y-50932914D01*
X37892800Y-51089946D01*
X37892800Y-51250054D01*
X37861565Y-51407086D01*
X37800296Y-51555003D01*
X37711340Y-51688134D01*
X37598134Y-51801340D01*
X37465003Y-51890296D01*
X37317086Y-51951565D01*
X37160054Y-51982800D01*
X36999946Y-51982800D01*
X36842914Y-51951565D01*
X36694997Y-51890296D01*
X36561866Y-51801340D01*
X36448660Y-51688134D01*
X36359704Y-51555003D01*
X36298435Y-51407086D01*
X36267200Y-51250054D01*
X36267200Y-51089946D01*
X36298435Y-50932914D01*
X36359704Y-50784997D01*
X36448660Y-50651866D01*
X36561866Y-50538660D01*
X36694997Y-50449704D01*
X36842914Y-50388435D01*
X36999946Y-50357200D01*
X37160054Y-50357200D01*
X37317086Y-50388435D01*
X37317086Y-50388435D01*
G37*
G36*
X32706782Y-49481510D02*
G01*
X32706785Y-49481511D01*
X32706786Y-49481511D01*
X32773014Y-49501601D01*
X32867163Y-49530161D01*
X32941064Y-49569662D01*
X33014966Y-49609163D01*
X33144517Y-49715483D01*
X33250837Y-49845034D01*
X33290338Y-49918936D01*
X33329839Y-49992837D01*
X33378490Y-50153218D01*
X33394917Y-50320000D01*
X33378490Y-50486782D01*
X33329839Y-50647163D01*
X33327325Y-50651866D01*
X33250837Y-50794966D01*
X33144517Y-50924517D01*
X33014966Y-51030837D01*
X32941064Y-51070338D01*
X32867163Y-51109839D01*
X32773014Y-51138399D01*
X32706786Y-51158489D01*
X32706785Y-51158489D01*
X32706782Y-51158490D01*
X32581796Y-51170800D01*
X32498204Y-51170800D01*
X32373218Y-51158490D01*
X32373215Y-51158489D01*
X32373214Y-51158489D01*
X32306986Y-51138399D01*
X32212837Y-51109839D01*
X32138936Y-51070338D01*
X32065034Y-51030837D01*
X31935483Y-50924517D01*
X31829163Y-50794966D01*
X31752675Y-50651866D01*
X31750161Y-50647163D01*
X31701510Y-50486782D01*
X31685083Y-50320000D01*
X31701510Y-50153218D01*
X31750161Y-49992837D01*
X31789662Y-49918936D01*
X31829163Y-49845034D01*
X31935483Y-49715483D01*
X32065034Y-49609163D01*
X32138936Y-49569662D01*
X32212837Y-49530161D01*
X32306986Y-49501601D01*
X32373214Y-49481511D01*
X32373215Y-49481511D01*
X32373218Y-49481510D01*
X32498204Y-49469200D01*
X32581796Y-49469200D01*
X32706782Y-49481510D01*
X32706782Y-49481510D01*
G37*
G36*
X37317086Y-47848435D02*
G01*
X37465003Y-47909704D01*
X37598134Y-47998660D01*
X37711340Y-48111866D01*
X37800296Y-48244997D01*
X37861565Y-48392914D01*
X37892800Y-48549946D01*
X37892800Y-48710054D01*
X37861565Y-48867086D01*
X37800296Y-49015003D01*
X37711340Y-49148134D01*
X37598134Y-49261340D01*
X37465003Y-49350296D01*
X37317086Y-49411565D01*
X37160054Y-49442800D01*
X36999946Y-49442800D01*
X36842914Y-49411565D01*
X36694997Y-49350296D01*
X36561866Y-49261340D01*
X36448660Y-49148134D01*
X36359704Y-49015003D01*
X36298435Y-48867086D01*
X36267200Y-48710054D01*
X36267200Y-48549946D01*
X36298435Y-48392914D01*
X36359704Y-48244997D01*
X36448660Y-48111866D01*
X36561866Y-47998660D01*
X36694997Y-47909704D01*
X36842914Y-47848435D01*
X36999946Y-47817200D01*
X37160054Y-47817200D01*
X37317086Y-47848435D01*
X37317086Y-47848435D01*
G37*
G36*
X37317086Y-45308435D02*
G01*
X37465003Y-45369704D01*
X37598134Y-45458660D01*
X37711340Y-45571866D01*
X37800296Y-45704997D01*
X37861565Y-45852914D01*
X37892800Y-46009946D01*
X37892800Y-46170054D01*
X37861565Y-46327086D01*
X37800296Y-46475003D01*
X37711340Y-46608134D01*
X37598134Y-46721340D01*
X37465003Y-46810296D01*
X37317086Y-46871565D01*
X37160054Y-46902800D01*
X36999946Y-46902800D01*
X36842914Y-46871565D01*
X36694997Y-46810296D01*
X36561866Y-46721340D01*
X36448660Y-46608134D01*
X36359704Y-46475003D01*
X36298435Y-46327086D01*
X36267200Y-46170054D01*
X36267200Y-46009946D01*
X36298435Y-45852914D01*
X36359704Y-45704997D01*
X36448660Y-45571866D01*
X36561866Y-45458660D01*
X36694997Y-45369704D01*
X36842914Y-45308435D01*
X36999946Y-45277200D01*
X37160054Y-45277200D01*
X37317086Y-45308435D01*
X37317086Y-45308435D01*
G37*
G36*
X93717086Y-45118435D02*
G01*
X93865003Y-45179704D01*
X93998134Y-45268660D01*
X94111340Y-45381866D01*
X94200296Y-45514997D01*
X94261565Y-45662914D01*
X94292800Y-45819946D01*
X94292800Y-45980054D01*
X94261565Y-46137086D01*
X94200296Y-46285003D01*
X94111340Y-46418134D01*
X93998134Y-46531340D01*
X93865003Y-46620296D01*
X93717086Y-46681565D01*
X93560054Y-46712800D01*
X93399946Y-46712800D01*
X93242914Y-46681565D01*
X93094997Y-46620296D01*
X92961866Y-46531340D01*
X92848660Y-46418134D01*
X92759704Y-46285003D01*
X92698435Y-46137086D01*
X92667200Y-45980054D01*
X92667200Y-45819946D01*
X92698435Y-45662914D01*
X92759704Y-45514997D01*
X92848660Y-45381866D01*
X92961866Y-45268660D01*
X93094997Y-45179704D01*
X93242914Y-45118435D01*
X93399946Y-45087200D01*
X93560054Y-45087200D01*
X93717086Y-45118435D01*
X93717086Y-45118435D01*
G37*
G36*
X91197086Y-45118435D02*
G01*
X91345003Y-45179704D01*
X91478134Y-45268660D01*
X91591340Y-45381866D01*
X91680296Y-45514997D01*
X91741565Y-45662914D01*
X91772800Y-45819946D01*
X91772800Y-45980054D01*
X91741565Y-46137086D01*
X91680296Y-46285003D01*
X91591340Y-46418134D01*
X91478134Y-46531340D01*
X91345003Y-46620296D01*
X91197086Y-46681565D01*
X91040054Y-46712800D01*
X90879946Y-46712800D01*
X90722914Y-46681565D01*
X90574997Y-46620296D01*
X90441866Y-46531340D01*
X90328660Y-46418134D01*
X90239704Y-46285003D01*
X90178435Y-46137086D01*
X90147200Y-45980054D01*
X90147200Y-45819946D01*
X90178435Y-45662914D01*
X90239704Y-45514997D01*
X90328660Y-45381866D01*
X90441866Y-45268660D01*
X90574997Y-45179704D01*
X90722914Y-45118435D01*
X90879946Y-45087200D01*
X91040054Y-45087200D01*
X91197086Y-45118435D01*
X91197086Y-45118435D01*
G37*
G36*
X81037086Y-45118435D02*
G01*
X81185003Y-45179704D01*
X81318134Y-45268660D01*
X81431340Y-45381866D01*
X81520296Y-45514997D01*
X81581565Y-45662914D01*
X81612800Y-45819946D01*
X81612800Y-45980054D01*
X81581565Y-46137086D01*
X81520296Y-46285003D01*
X81431340Y-46418134D01*
X81318134Y-46531340D01*
X81185003Y-46620296D01*
X81037086Y-46681565D01*
X80880054Y-46712800D01*
X80719946Y-46712800D01*
X80562914Y-46681565D01*
X80414997Y-46620296D01*
X80281866Y-46531340D01*
X80168660Y-46418134D01*
X80079704Y-46285003D01*
X80018435Y-46137086D01*
X79987200Y-45980054D01*
X79987200Y-45819946D01*
X80018435Y-45662914D01*
X80079704Y-45514997D01*
X80168660Y-45381866D01*
X80281866Y-45268660D01*
X80414997Y-45179704D01*
X80562914Y-45118435D01*
X80719946Y-45087200D01*
X80880054Y-45087200D01*
X81037086Y-45118435D01*
X81037086Y-45118435D01*
G37*
G36*
X78497086Y-45118435D02*
G01*
X78645003Y-45179704D01*
X78778134Y-45268660D01*
X78891340Y-45381866D01*
X78980296Y-45514997D01*
X79041565Y-45662914D01*
X79072800Y-45819946D01*
X79072800Y-45980054D01*
X79041565Y-46137086D01*
X78980296Y-46285003D01*
X78891340Y-46418134D01*
X78778134Y-46531340D01*
X78645003Y-46620296D01*
X78497086Y-46681565D01*
X78340054Y-46712800D01*
X78179946Y-46712800D01*
X78022914Y-46681565D01*
X77874997Y-46620296D01*
X77741866Y-46531340D01*
X77628660Y-46418134D01*
X77539704Y-46285003D01*
X77478435Y-46137086D01*
X77447200Y-45980054D01*
X77447200Y-45819946D01*
X77478435Y-45662914D01*
X77539704Y-45514997D01*
X77628660Y-45381866D01*
X77741866Y-45268660D01*
X77874997Y-45179704D01*
X78022914Y-45118435D01*
X78179946Y-45087200D01*
X78340054Y-45087200D01*
X78497086Y-45118435D01*
X78497086Y-45118435D01*
G37*
G36*
X37317086Y-42768435D02*
G01*
X37465003Y-42829704D01*
X37598134Y-42918660D01*
X37711340Y-43031866D01*
X37800296Y-43164997D01*
X37861565Y-43312914D01*
X37892800Y-43469946D01*
X37892800Y-43630054D01*
X37861565Y-43787086D01*
X37800296Y-43935003D01*
X37711340Y-44068134D01*
X37598134Y-44181340D01*
X37465003Y-44270296D01*
X37317086Y-44331565D01*
X37160054Y-44362800D01*
X36999946Y-44362800D01*
X36842914Y-44331565D01*
X36694997Y-44270296D01*
X36561866Y-44181340D01*
X36448660Y-44068134D01*
X36359704Y-43935003D01*
X36298435Y-43787086D01*
X36267200Y-43630054D01*
X36267200Y-43469946D01*
X36298435Y-43312914D01*
X36359704Y-43164997D01*
X36448660Y-43031866D01*
X36561866Y-42918660D01*
X36694997Y-42829704D01*
X36842914Y-42768435D01*
X36999946Y-42737200D01*
X37160054Y-42737200D01*
X37317086Y-42768435D01*
X37317086Y-42768435D01*
G37*
G36*
X37317086Y-40228435D02*
G01*
X37465003Y-40289704D01*
X37598134Y-40378660D01*
X37711340Y-40491866D01*
X37800296Y-40624997D01*
X37861565Y-40772914D01*
X37892800Y-40929946D01*
X37892800Y-41090054D01*
X37861565Y-41247086D01*
X37800296Y-41395003D01*
X37711340Y-41528134D01*
X37598134Y-41641340D01*
X37465003Y-41730296D01*
X37317086Y-41791565D01*
X37160054Y-41822800D01*
X36999946Y-41822800D01*
X36842914Y-41791565D01*
X36694997Y-41730296D01*
X36561866Y-41641340D01*
X36448660Y-41528134D01*
X36359704Y-41395003D01*
X36298435Y-41247086D01*
X36267200Y-41090054D01*
X36267200Y-40929946D01*
X36298435Y-40772914D01*
X36359704Y-40624997D01*
X36448660Y-40491866D01*
X36561866Y-40378660D01*
X36694997Y-40289704D01*
X36842914Y-40228435D01*
X36999946Y-40197200D01*
X37160054Y-40197200D01*
X37317086Y-40228435D01*
X37317086Y-40228435D01*
G37*
G36*
X61830800Y-41510800D02*
G01*
X59129200Y-41510800D01*
X59129200Y-38809200D01*
X61830800Y-38809200D01*
X61830800Y-41510800D01*
X61830800Y-41510800D01*
G37*
G36*
X32788169Y-39341895D02*
G01*
X32943005Y-39406031D01*
X33082354Y-39499140D01*
X33200860Y-39617646D01*
X33293969Y-39756995D01*
X33358105Y-39911831D01*
X33390800Y-40076203D01*
X33390800Y-40243797D01*
X33358105Y-40408169D01*
X33293969Y-40563005D01*
X33200860Y-40702354D01*
X33082354Y-40820860D01*
X32943005Y-40913969D01*
X32788169Y-40978105D01*
X32623797Y-41010800D01*
X32456203Y-41010800D01*
X32291831Y-40978105D01*
X32136995Y-40913969D01*
X31997646Y-40820860D01*
X31879140Y-40702354D01*
X31786031Y-40563005D01*
X31721895Y-40408169D01*
X31689200Y-40243797D01*
X31689200Y-40076203D01*
X31721895Y-39911831D01*
X31786031Y-39756995D01*
X31879140Y-39617646D01*
X31997646Y-39499140D01*
X32136995Y-39406031D01*
X32291831Y-39341895D01*
X32456203Y-39309200D01*
X32623797Y-39309200D01*
X32788169Y-39341895D01*
X32788169Y-39341895D01*
G37*
G36*
X112696386Y-38272957D02*
G01*
X112696389Y-38272958D01*
X112875616Y-38327325D01*
X113040792Y-38415614D01*
X113185570Y-38534430D01*
X113304386Y-38679208D01*
X113392675Y-38844384D01*
X113392675Y-38844385D01*
X113447043Y-39023615D01*
X113460800Y-39163292D01*
X113460800Y-39456709D01*
X113447043Y-39596386D01*
X113447042Y-39596388D01*
X113447042Y-39596389D01*
X113392675Y-39775616D01*
X113304386Y-39940792D01*
X113185570Y-40085570D01*
X113040792Y-40204386D01*
X112875615Y-40292675D01*
X112716885Y-40340824D01*
X112696385Y-40347043D01*
X112510000Y-40365401D01*
X112323614Y-40347043D01*
X112282614Y-40334606D01*
X112144384Y-40292675D01*
X111979208Y-40204386D01*
X111834430Y-40085570D01*
X111715614Y-39940792D01*
X111627325Y-39775615D01*
X111572958Y-39596388D01*
X111572957Y-39596385D01*
X111559200Y-39456708D01*
X111559200Y-39163291D01*
X111572957Y-39023614D01*
X111627325Y-38844385D01*
X111627325Y-38844384D01*
X111715614Y-38679208D01*
X111834430Y-38534430D01*
X111926477Y-38458890D01*
X111979205Y-38415617D01*
X111979206Y-38415616D01*
X111979209Y-38415614D01*
X112144385Y-38327325D01*
X112323612Y-38272958D01*
X112323615Y-38272957D01*
X112510000Y-38254599D01*
X112696386Y-38272957D01*
X112696386Y-38272957D01*
G37*
G36*
X83566386Y-38272957D02*
G01*
X83566389Y-38272958D01*
X83745616Y-38327325D01*
X83910792Y-38415614D01*
X84055570Y-38534430D01*
X84174386Y-38679208D01*
X84262675Y-38844384D01*
X84262675Y-38844385D01*
X84317043Y-39023615D01*
X84330800Y-39163292D01*
X84330800Y-39456709D01*
X84317043Y-39596386D01*
X84317042Y-39596388D01*
X84317042Y-39596389D01*
X84262675Y-39775616D01*
X84174386Y-39940792D01*
X84055570Y-40085570D01*
X83910792Y-40204386D01*
X83745615Y-40292675D01*
X83586885Y-40340824D01*
X83566385Y-40347043D01*
X83380000Y-40365401D01*
X83193614Y-40347043D01*
X83152614Y-40334606D01*
X83014384Y-40292675D01*
X82849208Y-40204386D01*
X82704430Y-40085570D01*
X82585614Y-39940792D01*
X82497325Y-39775615D01*
X82442958Y-39596388D01*
X82442957Y-39596385D01*
X82429200Y-39456708D01*
X82429200Y-39163291D01*
X82442957Y-39023614D01*
X82497325Y-38844385D01*
X82497325Y-38844384D01*
X82585614Y-38679208D01*
X82704430Y-38534430D01*
X82796477Y-38458890D01*
X82849205Y-38415617D01*
X82849206Y-38415616D01*
X82849209Y-38415614D01*
X83014385Y-38327325D01*
X83193612Y-38272958D01*
X83193615Y-38272957D01*
X83380000Y-38254599D01*
X83566386Y-38272957D01*
X83566386Y-38272957D01*
G37*
G36*
X115196386Y-38272957D02*
G01*
X115196389Y-38272958D01*
X115375616Y-38327325D01*
X115540792Y-38415614D01*
X115685570Y-38534430D01*
X115804386Y-38679208D01*
X115892675Y-38844384D01*
X115892675Y-38844385D01*
X115947043Y-39023615D01*
X115960800Y-39163292D01*
X115960800Y-39456709D01*
X115947043Y-39596386D01*
X115947042Y-39596388D01*
X115947042Y-39596389D01*
X115892675Y-39775616D01*
X115804386Y-39940792D01*
X115685570Y-40085570D01*
X115540792Y-40204386D01*
X115375615Y-40292675D01*
X115216885Y-40340824D01*
X115196385Y-40347043D01*
X115010000Y-40365401D01*
X114823614Y-40347043D01*
X114782614Y-40334606D01*
X114644384Y-40292675D01*
X114479208Y-40204386D01*
X114334430Y-40085570D01*
X114215614Y-39940792D01*
X114127325Y-39775615D01*
X114072958Y-39596388D01*
X114072957Y-39596385D01*
X114059200Y-39456708D01*
X114059200Y-39163291D01*
X114072957Y-39023614D01*
X114127325Y-38844385D01*
X114127325Y-38844384D01*
X114215614Y-38679208D01*
X114334430Y-38534430D01*
X114426477Y-38458890D01*
X114479205Y-38415617D01*
X114479206Y-38415616D01*
X114479209Y-38415614D01*
X114644385Y-38327325D01*
X114823612Y-38272958D01*
X114823615Y-38272957D01*
X115010000Y-38254599D01*
X115196386Y-38272957D01*
X115196386Y-38272957D01*
G37*
G36*
X107696386Y-38272957D02*
G01*
X107696389Y-38272958D01*
X107875616Y-38327325D01*
X108040792Y-38415614D01*
X108185570Y-38534430D01*
X108304386Y-38679208D01*
X108392675Y-38844384D01*
X108392675Y-38844385D01*
X108447043Y-39023615D01*
X108460800Y-39163292D01*
X108460800Y-39456709D01*
X108447043Y-39596386D01*
X108447042Y-39596388D01*
X108447042Y-39596389D01*
X108392675Y-39775616D01*
X108304386Y-39940792D01*
X108185570Y-40085570D01*
X108040792Y-40204386D01*
X107875615Y-40292675D01*
X107716885Y-40340824D01*
X107696385Y-40347043D01*
X107510000Y-40365401D01*
X107323614Y-40347043D01*
X107282614Y-40334606D01*
X107144384Y-40292675D01*
X106979208Y-40204386D01*
X106834430Y-40085570D01*
X106715614Y-39940792D01*
X106627325Y-39775615D01*
X106572958Y-39596388D01*
X106572957Y-39596385D01*
X106559200Y-39456708D01*
X106559200Y-39163291D01*
X106572957Y-39023614D01*
X106627325Y-38844385D01*
X106627325Y-38844384D01*
X106715614Y-38679208D01*
X106834430Y-38534430D01*
X106926477Y-38458890D01*
X106979205Y-38415617D01*
X106979206Y-38415616D01*
X106979209Y-38415614D01*
X107144385Y-38327325D01*
X107323612Y-38272958D01*
X107323615Y-38272957D01*
X107510000Y-38254599D01*
X107696386Y-38272957D01*
X107696386Y-38272957D01*
G37*
G36*
X88566386Y-38272957D02*
G01*
X88566389Y-38272958D01*
X88745616Y-38327325D01*
X88910792Y-38415614D01*
X89055570Y-38534430D01*
X89174386Y-38679208D01*
X89262675Y-38844384D01*
X89262675Y-38844385D01*
X89317043Y-39023615D01*
X89330800Y-39163292D01*
X89330800Y-39456709D01*
X89317043Y-39596386D01*
X89317042Y-39596388D01*
X89317042Y-39596389D01*
X89262675Y-39775616D01*
X89174386Y-39940792D01*
X89055570Y-40085570D01*
X88910792Y-40204386D01*
X88745615Y-40292675D01*
X88586885Y-40340824D01*
X88566385Y-40347043D01*
X88380000Y-40365401D01*
X88193614Y-40347043D01*
X88152614Y-40334606D01*
X88014384Y-40292675D01*
X87849208Y-40204386D01*
X87704430Y-40085570D01*
X87585614Y-39940792D01*
X87497325Y-39775615D01*
X87442958Y-39596388D01*
X87442957Y-39596385D01*
X87429200Y-39456708D01*
X87429200Y-39163291D01*
X87442957Y-39023614D01*
X87497325Y-38844385D01*
X87497325Y-38844384D01*
X87585614Y-38679208D01*
X87704430Y-38534430D01*
X87796477Y-38458890D01*
X87849205Y-38415617D01*
X87849206Y-38415616D01*
X87849209Y-38415614D01*
X88014385Y-38327325D01*
X88193612Y-38272958D01*
X88193615Y-38272957D01*
X88380000Y-38254599D01*
X88566386Y-38272957D01*
X88566386Y-38272957D01*
G37*
G36*
X91066386Y-38272957D02*
G01*
X91066389Y-38272958D01*
X91245616Y-38327325D01*
X91410792Y-38415614D01*
X91555570Y-38534430D01*
X91674386Y-38679208D01*
X91762675Y-38844384D01*
X91762675Y-38844385D01*
X91817043Y-39023615D01*
X91830800Y-39163292D01*
X91830800Y-39456709D01*
X91817043Y-39596386D01*
X91817042Y-39596388D01*
X91817042Y-39596389D01*
X91762675Y-39775616D01*
X91674386Y-39940792D01*
X91555570Y-40085570D01*
X91410792Y-40204386D01*
X91245615Y-40292675D01*
X91086885Y-40340824D01*
X91066385Y-40347043D01*
X90880000Y-40365401D01*
X90693614Y-40347043D01*
X90652614Y-40334606D01*
X90514384Y-40292675D01*
X90349208Y-40204386D01*
X90204430Y-40085570D01*
X90085614Y-39940792D01*
X89997325Y-39775615D01*
X89942958Y-39596388D01*
X89942957Y-39596385D01*
X89929200Y-39456708D01*
X89929200Y-39163291D01*
X89942957Y-39023614D01*
X89997325Y-38844385D01*
X89997325Y-38844384D01*
X90085614Y-38679208D01*
X90204430Y-38534430D01*
X90296477Y-38458890D01*
X90349205Y-38415617D01*
X90349206Y-38415616D01*
X90349209Y-38415614D01*
X90514385Y-38327325D01*
X90693612Y-38272958D01*
X90693615Y-38272957D01*
X90880000Y-38254599D01*
X91066386Y-38272957D01*
X91066386Y-38272957D01*
G37*
G36*
X105196386Y-38272957D02*
G01*
X105196389Y-38272958D01*
X105375616Y-38327325D01*
X105540792Y-38415614D01*
X105685570Y-38534430D01*
X105804386Y-38679208D01*
X105892675Y-38844384D01*
X105892675Y-38844385D01*
X105947043Y-39023615D01*
X105960800Y-39163292D01*
X105960800Y-39456709D01*
X105947043Y-39596386D01*
X105947042Y-39596388D01*
X105947042Y-39596389D01*
X105892675Y-39775616D01*
X105804386Y-39940792D01*
X105685570Y-40085570D01*
X105540792Y-40204386D01*
X105375615Y-40292675D01*
X105216885Y-40340824D01*
X105196385Y-40347043D01*
X105010000Y-40365401D01*
X104823614Y-40347043D01*
X104782614Y-40334606D01*
X104644384Y-40292675D01*
X104479208Y-40204386D01*
X104334430Y-40085570D01*
X104215614Y-39940792D01*
X104127325Y-39775615D01*
X104072958Y-39596388D01*
X104072957Y-39596385D01*
X104059200Y-39456708D01*
X104059200Y-39163291D01*
X104072957Y-39023614D01*
X104127325Y-38844385D01*
X104127325Y-38844384D01*
X104215614Y-38679208D01*
X104334430Y-38534430D01*
X104426477Y-38458890D01*
X104479205Y-38415617D01*
X104479206Y-38415616D01*
X104479209Y-38415614D01*
X104644385Y-38327325D01*
X104823612Y-38272958D01*
X104823615Y-38272957D01*
X105010000Y-38254599D01*
X105196386Y-38272957D01*
X105196386Y-38272957D01*
G37*
G36*
X81066386Y-38272957D02*
G01*
X81066389Y-38272958D01*
X81245616Y-38327325D01*
X81410792Y-38415614D01*
X81555570Y-38534430D01*
X81674386Y-38679208D01*
X81762675Y-38844384D01*
X81762675Y-38844385D01*
X81817043Y-39023615D01*
X81830800Y-39163292D01*
X81830800Y-39456709D01*
X81817043Y-39596386D01*
X81817042Y-39596388D01*
X81817042Y-39596389D01*
X81762675Y-39775616D01*
X81674386Y-39940792D01*
X81555570Y-40085570D01*
X81410792Y-40204386D01*
X81245615Y-40292675D01*
X81086885Y-40340824D01*
X81066385Y-40347043D01*
X80880000Y-40365401D01*
X80693614Y-40347043D01*
X80652614Y-40334606D01*
X80514384Y-40292675D01*
X80349208Y-40204386D01*
X80204430Y-40085570D01*
X80085614Y-39940792D01*
X79997325Y-39775615D01*
X79942958Y-39596388D01*
X79942957Y-39596385D01*
X79929200Y-39456708D01*
X79929200Y-39163291D01*
X79942957Y-39023614D01*
X79997325Y-38844385D01*
X79997325Y-38844384D01*
X80085614Y-38679208D01*
X80204430Y-38534430D01*
X80296477Y-38458890D01*
X80349205Y-38415617D01*
X80349206Y-38415616D01*
X80349209Y-38415614D01*
X80514385Y-38327325D01*
X80693612Y-38272958D01*
X80693615Y-38272957D01*
X80880000Y-38254599D01*
X81066386Y-38272957D01*
X81066386Y-38272957D01*
G37*
G36*
X65574014Y-35861110D02*
G01*
X65819843Y-35962936D01*
X66041086Y-36110766D01*
X66229234Y-36298914D01*
X66377064Y-36520157D01*
X66478890Y-36765986D01*
X66530800Y-37026958D01*
X66530800Y-37293042D01*
X66478890Y-37554014D01*
X66377064Y-37799843D01*
X66229234Y-38021086D01*
X66041086Y-38209234D01*
X65819843Y-38357064D01*
X65574014Y-38458890D01*
X65313042Y-38510800D01*
X65046958Y-38510800D01*
X64785986Y-38458890D01*
X64540157Y-38357064D01*
X64318914Y-38209234D01*
X64130766Y-38021086D01*
X63982936Y-37799843D01*
X63881110Y-37554014D01*
X63829200Y-37293042D01*
X63829200Y-37026958D01*
X63881110Y-36765986D01*
X63982936Y-36520157D01*
X64130766Y-36298914D01*
X64318914Y-36110766D01*
X64540157Y-35962936D01*
X64785986Y-35861110D01*
X65046958Y-35809200D01*
X65313042Y-35809200D01*
X65574014Y-35861110D01*
X65574014Y-35861110D01*
G37*
G36*
X51513800Y-37924800D02*
G01*
X49888200Y-37924800D01*
X49888200Y-36299200D01*
X51513800Y-36299200D01*
X51513800Y-37924800D01*
X51513800Y-37924800D01*
G37*
G36*
X42369800Y-37924800D02*
G01*
X40744200Y-37924800D01*
X40744200Y-36299200D01*
X42369800Y-36299200D01*
X42369800Y-37924800D01*
X42369800Y-37924800D01*
G37*
G36*
X126452352Y-32508796D02*
G01*
X126734579Y-32625699D01*
X126988578Y-32795415D01*
X127204585Y-33011422D01*
X127374301Y-33265421D01*
X127491204Y-33547648D01*
X127550800Y-33847259D01*
X127550800Y-34152741D01*
X127491204Y-34452352D01*
X127374301Y-34734579D01*
X127204585Y-34988578D01*
X126988578Y-35204585D01*
X126734579Y-35374301D01*
X126452352Y-35491204D01*
X126152741Y-35550800D01*
X125847259Y-35550800D01*
X125547648Y-35491204D01*
X125265421Y-35374301D01*
X125011422Y-35204585D01*
X124795415Y-34988578D01*
X124625699Y-34734579D01*
X124508796Y-34452352D01*
X124449200Y-34152741D01*
X124449200Y-33847259D01*
X124508796Y-33547648D01*
X124625699Y-33265421D01*
X124795415Y-33011422D01*
X125011422Y-32795415D01*
X125265421Y-32625699D01*
X125547648Y-32508796D01*
X125847259Y-32449200D01*
X126152741Y-32449200D01*
X126452352Y-32508796D01*
X126452352Y-32508796D01*
G37*
G36*
X34452352Y-32508796D02*
G01*
X34734579Y-32625699D01*
X34988578Y-32795415D01*
X35204585Y-33011422D01*
X35374301Y-33265421D01*
X35491204Y-33547648D01*
X35550800Y-33847259D01*
X35550800Y-34152741D01*
X35491204Y-34452352D01*
X35374301Y-34734579D01*
X35204585Y-34988578D01*
X34988578Y-35204585D01*
X34734579Y-35374301D01*
X34452352Y-35491204D01*
X34152741Y-35550800D01*
X33847259Y-35550800D01*
X33547648Y-35491204D01*
X33265421Y-35374301D01*
X33011422Y-35204585D01*
X32795415Y-34988578D01*
X32625699Y-34734579D01*
X32508796Y-34452352D01*
X32449200Y-34152741D01*
X32449200Y-33847259D01*
X32508796Y-33547648D01*
X32625699Y-33265421D01*
X32795415Y-33011422D01*
X33011422Y-32795415D01*
X33265421Y-32625699D01*
X33547648Y-32508796D01*
X33847259Y-32449200D01*
X34152741Y-32449200D01*
X34452352Y-32508796D01*
X34452352Y-32508796D01*
G37*
G36*
X60874014Y-32861110D02*
G01*
X61119843Y-32962936D01*
X61119844Y-32962937D01*
X61341085Y-33110765D01*
X61529235Y-33298915D01*
X61603149Y-33409535D01*
X61677064Y-33520157D01*
X61778890Y-33765986D01*
X61830800Y-34026958D01*
X61830800Y-34293042D01*
X61778890Y-34554014D01*
X61677064Y-34799843D01*
X61529234Y-35021086D01*
X61341086Y-35209234D01*
X61119843Y-35357064D01*
X60874014Y-35458890D01*
X60613042Y-35510800D01*
X60346958Y-35510800D01*
X60085986Y-35458890D01*
X59840157Y-35357064D01*
X59618914Y-35209234D01*
X59430766Y-35021086D01*
X59282936Y-34799843D01*
X59181110Y-34554014D01*
X59129200Y-34293042D01*
X59129200Y-34026958D01*
X59181110Y-33765986D01*
X59282936Y-33520157D01*
X59356851Y-33409535D01*
X59430765Y-33298915D01*
X59618915Y-33110765D01*
X59840156Y-32962937D01*
X59840157Y-32962936D01*
X60085986Y-32861110D01*
X60346958Y-32809200D01*
X60613042Y-32809200D01*
X60874014Y-32861110D01*
X60874014Y-32861110D01*
G37*
G36*
X110196386Y-32772957D02*
G01*
X110196389Y-32772958D01*
X110375616Y-32827325D01*
X110540792Y-32915614D01*
X110685570Y-33034430D01*
X110804386Y-33179208D01*
X110892675Y-33344384D01*
X110914276Y-33415596D01*
X110947043Y-33523615D01*
X110960800Y-33663292D01*
X110960800Y-33956709D01*
X110947043Y-34096386D01*
X110947042Y-34096388D01*
X110947042Y-34096389D01*
X110892675Y-34275616D01*
X110804386Y-34440792D01*
X110685570Y-34585570D01*
X110540792Y-34704386D01*
X110375615Y-34792675D01*
X110216885Y-34840824D01*
X110196385Y-34847043D01*
X110010000Y-34865401D01*
X109823614Y-34847043D01*
X109782614Y-34834606D01*
X109644384Y-34792675D01*
X109479208Y-34704386D01*
X109334430Y-34585570D01*
X109215614Y-34440792D01*
X109127325Y-34275615D01*
X109072958Y-34096388D01*
X109072957Y-34096385D01*
X109059200Y-33956708D01*
X109059200Y-33663291D01*
X109072957Y-33523614D01*
X109085394Y-33482614D01*
X109127325Y-33344384D01*
X109215614Y-33179208D01*
X109334430Y-33034430D01*
X109362466Y-33011422D01*
X109479205Y-32915617D01*
X109479206Y-32915616D01*
X109479209Y-32915614D01*
X109644385Y-32827325D01*
X109823612Y-32772958D01*
X109823615Y-32772957D01*
X110010000Y-32754599D01*
X110196386Y-32772957D01*
X110196386Y-32772957D01*
G37*
G36*
X86066386Y-32772957D02*
G01*
X86066389Y-32772958D01*
X86245616Y-32827325D01*
X86410792Y-32915614D01*
X86555570Y-33034430D01*
X86674386Y-33179208D01*
X86762675Y-33344384D01*
X86784276Y-33415596D01*
X86817043Y-33523615D01*
X86830800Y-33663292D01*
X86830800Y-33956709D01*
X86817043Y-34096386D01*
X86817042Y-34096388D01*
X86817042Y-34096389D01*
X86762675Y-34275616D01*
X86674386Y-34440792D01*
X86555570Y-34585570D01*
X86410792Y-34704386D01*
X86245615Y-34792675D01*
X86086885Y-34840824D01*
X86066385Y-34847043D01*
X85880000Y-34865401D01*
X85693614Y-34847043D01*
X85652614Y-34834606D01*
X85514384Y-34792675D01*
X85349208Y-34704386D01*
X85204430Y-34585570D01*
X85085614Y-34440792D01*
X84997325Y-34275615D01*
X84942958Y-34096388D01*
X84942957Y-34096385D01*
X84929200Y-33956708D01*
X84929200Y-33663291D01*
X84942957Y-33523614D01*
X84955394Y-33482614D01*
X84997325Y-33344384D01*
X85085614Y-33179208D01*
X85204430Y-33034430D01*
X85232466Y-33011422D01*
X85349205Y-32915617D01*
X85349206Y-32915616D01*
X85349209Y-32915614D01*
X85514385Y-32827325D01*
X85693612Y-32772958D01*
X85693615Y-32772957D01*
X85880000Y-32754599D01*
X86066386Y-32772957D01*
X86066386Y-32772957D01*
G37*
G36*
X50295592Y-30755850D02*
G01*
X50295595Y-30755851D01*
X50512522Y-30821655D01*
X50686629Y-30914717D01*
X50712445Y-30928516D01*
X50883313Y-31068743D01*
X50887676Y-31072324D01*
X51031485Y-31247556D01*
X51138345Y-31447477D01*
X51172057Y-31558611D01*
X51204150Y-31664407D01*
X51220800Y-31833460D01*
X51220800Y-33246540D01*
X51204150Y-33415593D01*
X51204149Y-33415596D01*
X51138345Y-33632523D01*
X51031485Y-33832444D01*
X50887676Y-34007676D01*
X50712444Y-34151485D01*
X50512523Y-34258345D01*
X50320402Y-34316624D01*
X50295593Y-34324150D01*
X50070000Y-34346369D01*
X49844408Y-34324150D01*
X49819599Y-34316624D01*
X49627478Y-34258345D01*
X49427557Y-34151485D01*
X49252325Y-34007676D01*
X49108516Y-33832444D01*
X49001655Y-33632523D01*
X48935851Y-33415596D01*
X48935850Y-33415593D01*
X48919200Y-33246540D01*
X48919200Y-31833461D01*
X48935850Y-31664408D01*
X48957528Y-31592945D01*
X49001655Y-31447478D01*
X49094717Y-31273371D01*
X49108516Y-31247555D01*
X49252322Y-31072326D01*
X49252324Y-31072324D01*
X49427556Y-30928515D01*
X49627477Y-30821655D01*
X49844404Y-30755851D01*
X49844407Y-30755850D01*
X50070000Y-30733631D01*
X50295592Y-30755850D01*
X50295592Y-30755850D01*
G37*
G36*
X42095592Y-30755850D02*
G01*
X42095595Y-30755851D01*
X42312522Y-30821655D01*
X42486629Y-30914717D01*
X42512445Y-30928516D01*
X42683313Y-31068743D01*
X42687676Y-31072324D01*
X42831485Y-31247556D01*
X42938345Y-31447477D01*
X42972057Y-31558611D01*
X43004150Y-31664407D01*
X43020800Y-31833460D01*
X43020800Y-33246540D01*
X43004150Y-33415593D01*
X43004149Y-33415596D01*
X42938345Y-33632523D01*
X42831485Y-33832444D01*
X42687676Y-34007676D01*
X42512444Y-34151485D01*
X42312523Y-34258345D01*
X42120402Y-34316624D01*
X42095593Y-34324150D01*
X41870000Y-34346369D01*
X41644408Y-34324150D01*
X41619599Y-34316624D01*
X41427478Y-34258345D01*
X41227557Y-34151485D01*
X41052325Y-34007676D01*
X40908516Y-33832444D01*
X40801655Y-33632523D01*
X40735851Y-33415596D01*
X40735850Y-33415593D01*
X40719200Y-33246540D01*
X40719200Y-31833461D01*
X40735850Y-31664408D01*
X40757528Y-31592945D01*
X40801655Y-31447478D01*
X40894717Y-31273371D01*
X40908516Y-31247555D01*
X41052322Y-31072326D01*
X41052324Y-31072324D01*
X41227556Y-30928515D01*
X41427477Y-30821655D01*
X41644404Y-30755851D01*
X41644407Y-30755850D01*
X41870000Y-30733631D01*
X42095592Y-30755850D01*
X42095592Y-30755850D01*
G37*
G36*
X48126979Y-31250786D02*
G01*
X48207035Y-31275071D01*
X48277934Y-31296578D01*
X48417052Y-31370938D01*
X48417054Y-31370940D01*
X48538991Y-31471009D01*
X48639061Y-31592945D01*
X48639062Y-31592947D01*
X48713422Y-31732065D01*
X48713422Y-31732066D01*
X48759214Y-31883020D01*
X48770800Y-32000659D01*
X48770800Y-33079341D01*
X48759214Y-33196980D01*
X48744180Y-33246540D01*
X48713422Y-33347935D01*
X48648663Y-33469091D01*
X48639061Y-33487055D01*
X48538991Y-33608991D01*
X48417055Y-33709061D01*
X48417053Y-33709062D01*
X48277935Y-33783422D01*
X48207036Y-33804929D01*
X48126980Y-33829214D01*
X47970000Y-33844675D01*
X47813021Y-33829214D01*
X47732965Y-33804929D01*
X47662066Y-33783422D01*
X47522948Y-33709062D01*
X47522946Y-33709061D01*
X47401010Y-33608991D01*
X47300940Y-33487055D01*
X47291338Y-33469091D01*
X47226579Y-33347935D01*
X47195821Y-33246540D01*
X47180787Y-33196980D01*
X47169201Y-33079341D01*
X47169200Y-32000660D01*
X47180786Y-31883021D01*
X47205071Y-31802965D01*
X47226578Y-31732066D01*
X47300938Y-31592948D01*
X47317408Y-31572879D01*
X47401009Y-31471009D01*
X47522945Y-31370939D01*
X47540909Y-31361337D01*
X47662065Y-31296578D01*
X47732964Y-31275071D01*
X47813020Y-31250786D01*
X47970000Y-31235325D01*
X48126979Y-31250786D01*
X48126979Y-31250786D01*
G37*
G36*
X46126979Y-31250786D02*
G01*
X46207035Y-31275071D01*
X46277934Y-31296578D01*
X46417052Y-31370938D01*
X46417054Y-31370940D01*
X46538991Y-31471009D01*
X46639061Y-31592945D01*
X46639062Y-31592947D01*
X46713422Y-31732065D01*
X46713422Y-31732066D01*
X46759214Y-31883020D01*
X46770800Y-32000659D01*
X46770800Y-33079341D01*
X46759214Y-33196980D01*
X46744180Y-33246540D01*
X46713422Y-33347935D01*
X46648663Y-33469091D01*
X46639061Y-33487055D01*
X46538991Y-33608991D01*
X46417055Y-33709061D01*
X46417053Y-33709062D01*
X46277935Y-33783422D01*
X46207036Y-33804929D01*
X46126980Y-33829214D01*
X45970000Y-33844675D01*
X45813021Y-33829214D01*
X45732965Y-33804929D01*
X45662066Y-33783422D01*
X45522948Y-33709062D01*
X45522946Y-33709061D01*
X45401010Y-33608991D01*
X45300940Y-33487055D01*
X45291338Y-33469091D01*
X45226579Y-33347935D01*
X45195821Y-33246540D01*
X45180787Y-33196980D01*
X45169201Y-33079341D01*
X45169200Y-32000660D01*
X45180786Y-31883021D01*
X45205071Y-31802965D01*
X45226578Y-31732066D01*
X45300938Y-31592948D01*
X45317408Y-31572879D01*
X45401009Y-31471009D01*
X45522945Y-31370939D01*
X45540909Y-31361337D01*
X45662065Y-31296578D01*
X45732964Y-31275071D01*
X45813020Y-31250786D01*
X45970000Y-31235325D01*
X46126979Y-31250786D01*
X46126979Y-31250786D01*
G37*
G36*
X44770800Y-33840800D02*
G01*
X43169200Y-33840800D01*
X43169200Y-31239200D01*
X44770800Y-31239200D01*
X44770800Y-33840800D01*
X44770800Y-33840800D01*
G37*
G36*
X69546584Y-31017233D02*
G01*
X69546587Y-31017234D01*
X69546588Y-31017234D01*
X69716389Y-31068743D01*
X69723092Y-31072326D01*
X69872881Y-31152389D01*
X70010044Y-31264956D01*
X70122611Y-31402119D01*
X70159433Y-31471009D01*
X70206257Y-31558611D01*
X70238350Y-31664407D01*
X70257767Y-31728416D01*
X70275159Y-31905000D01*
X70257767Y-32081584D01*
X70257766Y-32081587D01*
X70257766Y-32081588D01*
X70206257Y-32251389D01*
X70206256Y-32251390D01*
X70122611Y-32407881D01*
X70010044Y-32545044D01*
X69872881Y-32657611D01*
X69763861Y-32715883D01*
X69716389Y-32741257D01*
X69546588Y-32792766D01*
X69546587Y-32792766D01*
X69546584Y-32792767D01*
X69414255Y-32805800D01*
X69325745Y-32805800D01*
X69193416Y-32792767D01*
X69193413Y-32792766D01*
X69193412Y-32792766D01*
X69023611Y-32741257D01*
X68976139Y-32715883D01*
X68867119Y-32657611D01*
X68729956Y-32545044D01*
X68617389Y-32407881D01*
X68533744Y-32251390D01*
X68533743Y-32251389D01*
X68482234Y-32081588D01*
X68482234Y-32081587D01*
X68482233Y-32081584D01*
X68464841Y-31905000D01*
X68482233Y-31728416D01*
X68501650Y-31664407D01*
X68533743Y-31558611D01*
X68580567Y-31471009D01*
X68617389Y-31402119D01*
X68729956Y-31264956D01*
X68867119Y-31152389D01*
X69016908Y-31072326D01*
X69023611Y-31068743D01*
X69193412Y-31017234D01*
X69193413Y-31017234D01*
X69193416Y-31017233D01*
X69325745Y-31004200D01*
X69414255Y-31004200D01*
X69546584Y-31017233D01*
X69546584Y-31017233D01*
G37*
G36*
X72810800Y-32805800D02*
G01*
X71009200Y-32805800D01*
X71009200Y-31004200D01*
X72810800Y-31004200D01*
X72810800Y-32805800D01*
X72810800Y-32805800D01*
G37*
M02*
