G04 #@! TF.GenerationSoftware,KiCad,Pcbnew,(5.1.4)-1*
G04 #@! TF.CreationDate,2019-11-03T17:56:11-05:00*
G04 #@! TF.ProjectId,MorseTutor4,4d6f7273-6554-4757-946f-72342e6b6963,rev?*
G04 #@! TF.SameCoordinates,Original*
G04 #@! TF.FileFunction,Copper,L2,Bot*
G04 #@! TF.FilePolarity,Positive*
%FSLAX46Y46*%
G04 Gerber Fmt 4.6, Leading zero omitted, Abs format (unit mm)*
G04 Created by KiCad (PCBNEW (5.1.4)-1) date 2019-11-03 17:56:11*
%MOMM*%
%LPD*%
G04 APERTURE LIST*
%ADD10O,1.750000X1.200000*%
%ADD11C,0.100000*%
%ADD12C,1.200000*%
%ADD13C,1.524000*%
%ADD14C,1.560000*%
%ADD15R,1.560000X1.560000*%
%ADD16O,1.800000X2.000000*%
%ADD17C,2.000000*%
%ADD18C,1.600000*%
%ADD19O,1.600000X1.600000*%
%ADD20C,1.800000*%
%ADD21C,4.000000*%
%ADD22R,2.800000X3.600000*%
%ADD23R,2.600000X2.600000*%
%ADD24C,2.600000*%
%ADD25O,1.700000X1.700000*%
%ADD26R,1.700000X1.700000*%
%ADD27R,1.500000X2.500000*%
%ADD28O,1.500000X2.500000*%
%ADD29O,2.200000X3.500000*%
%ADD30O,3.500000X2.200000*%
%ADD31O,2.500000X1.500000*%
%ADD32R,2.500000X1.500000*%
%ADD33R,1.524000X1.524000*%
%ADD34C,0.685800*%
%ADD35C,0.203200*%
%ADD36C,0.508000*%
%ADD37C,0.381000*%
%ADD38C,0.254000*%
G04 APERTURE END LIST*
D10*
X36477000Y-80705000D03*
D11*
G36*
X37126505Y-82106204D02*
G01*
X37150773Y-82109804D01*
X37174572Y-82115765D01*
X37197671Y-82124030D01*
X37219850Y-82134520D01*
X37240893Y-82147132D01*
X37260599Y-82161747D01*
X37278777Y-82178223D01*
X37295253Y-82196401D01*
X37309868Y-82216107D01*
X37322480Y-82237150D01*
X37332970Y-82259329D01*
X37341235Y-82282428D01*
X37347196Y-82306227D01*
X37350796Y-82330495D01*
X37352000Y-82354999D01*
X37352000Y-83055001D01*
X37350796Y-83079505D01*
X37347196Y-83103773D01*
X37341235Y-83127572D01*
X37332970Y-83150671D01*
X37322480Y-83172850D01*
X37309868Y-83193893D01*
X37295253Y-83213599D01*
X37278777Y-83231777D01*
X37260599Y-83248253D01*
X37240893Y-83262868D01*
X37219850Y-83275480D01*
X37197671Y-83285970D01*
X37174572Y-83294235D01*
X37150773Y-83300196D01*
X37126505Y-83303796D01*
X37102001Y-83305000D01*
X35851999Y-83305000D01*
X35827495Y-83303796D01*
X35803227Y-83300196D01*
X35779428Y-83294235D01*
X35756329Y-83285970D01*
X35734150Y-83275480D01*
X35713107Y-83262868D01*
X35693401Y-83248253D01*
X35675223Y-83231777D01*
X35658747Y-83213599D01*
X35644132Y-83193893D01*
X35631520Y-83172850D01*
X35621030Y-83150671D01*
X35612765Y-83127572D01*
X35606804Y-83103773D01*
X35603204Y-83079505D01*
X35602000Y-83055001D01*
X35602000Y-82354999D01*
X35603204Y-82330495D01*
X35606804Y-82306227D01*
X35612765Y-82282428D01*
X35621030Y-82259329D01*
X35631520Y-82237150D01*
X35644132Y-82216107D01*
X35658747Y-82196401D01*
X35675223Y-82178223D01*
X35693401Y-82161747D01*
X35713107Y-82147132D01*
X35734150Y-82134520D01*
X35756329Y-82124030D01*
X35779428Y-82115765D01*
X35803227Y-82109804D01*
X35827495Y-82106204D01*
X35851999Y-82105000D01*
X37102001Y-82105000D01*
X37126505Y-82106204D01*
X37126505Y-82106204D01*
G37*
D12*
X36477000Y-82705000D03*
D13*
X118080000Y-58810000D03*
X118080000Y-56270000D03*
X118080000Y-53730000D03*
X118080000Y-61350000D03*
X37080000Y-58790000D03*
X121380000Y-58790000D03*
X37080000Y-61330000D03*
X37080000Y-63870000D03*
X121380000Y-56250000D03*
X37080000Y-56250000D03*
X37080000Y-68950000D03*
X121380000Y-61330000D03*
X37080000Y-66410000D03*
X37080000Y-43550000D03*
X37080000Y-74030000D03*
X37080000Y-46090000D03*
X121380000Y-53710000D03*
X37080000Y-41010000D03*
X37080000Y-71490000D03*
X37080000Y-51170000D03*
X37080000Y-53710000D03*
X37080000Y-48630000D03*
D14*
X34220000Y-112550000D03*
X72320000Y-112550000D03*
X52000000Y-112550000D03*
X49460000Y-112550000D03*
X39300000Y-112550000D03*
X64700000Y-112550000D03*
X74860000Y-112550000D03*
X57080000Y-112550000D03*
X36760000Y-112550000D03*
X54540000Y-112550000D03*
X31680000Y-112550000D03*
X41840000Y-112550000D03*
X62160000Y-112550000D03*
X69780000Y-112550000D03*
D15*
X77400000Y-112550000D03*
D14*
X67240000Y-112550000D03*
X59620000Y-112550000D03*
X46920000Y-112550000D03*
X44380000Y-112550000D03*
X77400000Y-89690000D03*
X74860000Y-89690000D03*
X72320000Y-89690000D03*
X69780000Y-89690000D03*
X67240000Y-89690000D03*
X64700000Y-89690000D03*
X62160000Y-89690000D03*
X59620000Y-89690000D03*
X57080000Y-89690000D03*
X54540000Y-89690000D03*
X52000000Y-89690000D03*
X49460000Y-89690000D03*
X46920000Y-89690000D03*
X44380000Y-89690000D03*
X41840000Y-89690000D03*
X39300000Y-89690000D03*
X36760000Y-89690000D03*
X34220000Y-89690000D03*
X31680000Y-89690000D03*
X34220000Y-115090000D03*
X36760000Y-115090000D03*
X39300000Y-115090000D03*
X41840000Y-115090000D03*
X44380000Y-115090000D03*
X46920000Y-115090000D03*
X49460000Y-115090000D03*
X52000000Y-115090000D03*
X54540000Y-115090000D03*
X57080000Y-115090000D03*
X59620000Y-115090000D03*
X62160000Y-115090000D03*
X64700000Y-115090000D03*
X67240000Y-115090000D03*
X69780000Y-115090000D03*
X72320000Y-115090000D03*
X31680000Y-115090000D03*
X74860000Y-115090000D03*
D15*
X77400000Y-115090000D03*
D16*
X90880000Y-39310000D03*
X88380000Y-39310000D03*
X80880000Y-39310000D03*
X83380000Y-39310000D03*
X85880000Y-33810000D03*
X110010000Y-33810000D03*
X107510000Y-39310000D03*
X105010000Y-39310000D03*
X112510000Y-39310000D03*
X115010000Y-39310000D03*
D17*
X100986000Y-76355000D03*
X115986000Y-76355000D03*
D18*
X32540000Y-40160000D03*
D19*
X32540000Y-50320000D03*
X67465000Y-120170000D03*
D18*
X77625000Y-120170000D03*
D20*
X91000000Y-114870000D03*
X93500000Y-114870000D03*
X96000000Y-114870000D03*
D21*
X89100000Y-107870000D03*
X97900000Y-107870000D03*
D22*
X122710000Y-108105000D03*
X111310000Y-108105000D03*
D17*
X119510000Y-115105000D03*
X114510000Y-115105000D03*
X119510000Y-100605000D03*
X117010000Y-100605000D03*
X114510000Y-100605000D03*
D13*
X93480000Y-64900000D03*
X90960000Y-64900000D03*
X88420000Y-64900000D03*
X80800000Y-64900000D03*
X78260000Y-64900000D03*
X93480000Y-45900000D03*
X90960000Y-45900000D03*
X80800000Y-45900000D03*
X78260000Y-45900000D03*
D23*
X60480000Y-40160000D03*
D24*
X60480000Y-34160000D03*
X65180000Y-37160000D03*
D25*
X41430000Y-83340000D03*
D26*
X41430000Y-85880000D03*
X71910000Y-31905000D03*
D25*
X69370000Y-31905000D03*
D27*
X43970000Y-32540000D03*
D28*
X45970000Y-32540000D03*
X47970000Y-32540000D03*
D29*
X41870000Y-32540000D03*
X50070000Y-32540000D03*
D30*
X33175000Y-63905000D03*
X33175000Y-72105000D03*
D31*
X33175000Y-66005000D03*
X33175000Y-68005000D03*
D32*
X33175000Y-70005000D03*
D33*
X41557000Y-37112000D03*
X50701000Y-37112000D03*
X41557000Y-52352000D03*
X50701000Y-52352000D03*
D26*
X32540000Y-54765000D03*
D25*
X32540000Y-57305000D03*
X32540000Y-59845000D03*
D34*
X78260006Y-87150000D03*
D35*
X59620000Y-112550000D02*
X59620000Y-115090000D01*
X100986000Y-64156000D02*
X100986000Y-76355000D01*
X88380000Y-39310000D02*
X88380000Y-51550000D01*
X88380000Y-51550000D02*
X100986000Y-64156000D01*
X93480000Y-45900000D02*
X93500000Y-45920000D01*
X93480000Y-45900000D02*
X93480000Y-48395000D01*
X115986000Y-75981000D02*
X115986000Y-76355000D01*
X93500000Y-48415000D02*
X93500000Y-53495000D01*
X93500000Y-53495000D02*
X115986000Y-75981000D01*
X62160000Y-91820000D02*
X62160000Y-89690000D01*
X44380000Y-112550000D02*
X44380000Y-109600000D01*
X44380000Y-109600000D02*
X62160000Y-91820000D01*
X77400000Y-88010006D02*
X77917107Y-87492899D01*
X77917107Y-87492899D02*
X78260006Y-87150000D01*
X77400000Y-89690000D02*
X77400000Y-88010006D01*
X62160000Y-112550000D02*
X62160000Y-115090000D01*
X34332370Y-50320000D02*
X33810000Y-50320000D01*
X36002370Y-48650000D02*
X34332370Y-50320000D01*
X37080000Y-48650000D02*
X36002370Y-48650000D01*
X32540000Y-50320000D02*
X33810000Y-50320000D01*
X41840000Y-112550000D02*
X41840000Y-115090000D01*
X43970000Y-120170000D02*
X67465000Y-120170000D01*
X41840000Y-115090000D02*
X41840000Y-118040000D01*
X41840000Y-118040000D02*
X43970000Y-120170000D01*
X93480000Y-114850000D02*
X93500000Y-114870000D01*
X93480000Y-64900000D02*
X93480000Y-114850000D01*
X37841999Y-51931999D02*
X37080000Y-51170000D01*
X64700000Y-89690000D02*
X64700000Y-88586914D01*
X64700000Y-88586914D02*
X58183086Y-82070000D01*
X58183086Y-82070000D02*
X46510000Y-82070000D01*
X46510000Y-82070000D02*
X41430000Y-76990000D01*
X41430000Y-76990000D02*
X41430000Y-55520000D01*
X41430000Y-55520000D02*
X37841999Y-51931999D01*
X118080000Y-56270000D02*
X121360000Y-56270000D01*
X118080000Y-61330000D02*
X121380000Y-61330000D01*
X37841999Y-57011999D02*
X37080000Y-56250000D01*
X57080000Y-89690000D02*
X57080000Y-88586914D01*
X53103086Y-84610000D02*
X46510000Y-84610000D01*
X46510000Y-84610000D02*
X38890000Y-76990000D01*
X38890000Y-76990000D02*
X38890000Y-58060000D01*
X57080000Y-88586914D02*
X53103086Y-84610000D01*
X38890000Y-58060000D02*
X37841999Y-57011999D01*
X118080000Y-58810000D02*
X121360000Y-58810000D01*
X118080000Y-53730000D02*
X121360000Y-53730000D01*
X77400000Y-113533200D02*
X77400000Y-115090000D01*
X77400000Y-112550000D02*
X77400000Y-113533200D01*
X74860000Y-112550000D02*
X74860000Y-115090000D01*
X72320000Y-112550000D02*
X72320000Y-115090000D01*
X69780000Y-112550000D02*
X69780000Y-115090000D01*
X67240000Y-112550000D02*
X67240000Y-115090000D01*
X64700000Y-112550000D02*
X64700000Y-115090000D01*
X57080000Y-112550000D02*
X57080000Y-115090000D01*
X54540000Y-112550000D02*
X54540000Y-115090000D01*
X52000000Y-112550000D02*
X52000000Y-115090000D01*
X49460000Y-112550000D02*
X49460000Y-115090000D01*
X46920000Y-112550000D02*
X46920000Y-115090000D01*
X39300000Y-112550000D02*
X39300000Y-115090000D01*
X36760000Y-112550000D02*
X36760000Y-115090000D01*
X34220000Y-112550000D02*
X34220000Y-115090000D01*
D36*
X40072000Y-85880000D02*
X41430000Y-85880000D01*
X39460000Y-85880000D02*
X40072000Y-85880000D01*
X36985000Y-83405000D02*
X39460000Y-85880000D01*
X36985000Y-82705000D02*
X36985000Y-83405000D01*
X35207000Y-82705000D02*
X36477000Y-82705000D01*
X32540000Y-70005000D02*
X34298000Y-70005000D01*
X34298000Y-70005000D02*
X35580000Y-71287000D01*
X35580000Y-71287000D02*
X35580000Y-77633000D01*
X35580000Y-77633000D02*
X34318000Y-78895000D01*
X34318000Y-78895000D02*
X34318000Y-81816000D01*
X34318000Y-81816000D02*
X35207000Y-82705000D01*
X44478000Y-37112000D02*
X41557000Y-37112000D01*
X46510000Y-39144000D02*
X44478000Y-37112000D01*
X55496000Y-39144000D02*
X60480000Y-34160000D01*
X46510000Y-39144000D02*
X55496000Y-39144000D01*
X47121402Y-52352000D02*
X50701000Y-52352000D01*
X44720201Y-49950799D02*
X47121402Y-52352000D01*
X35996201Y-49950799D02*
X44720201Y-49950799D01*
X32540000Y-54765000D02*
X32540000Y-53407000D01*
X32540000Y-53407000D02*
X35996201Y-49950799D01*
X48161000Y-37112000D02*
X50701000Y-37112000D01*
X45970000Y-32540000D02*
X45970000Y-34921000D01*
X45970000Y-34921000D02*
X48161000Y-37112000D01*
X33040000Y-68005000D02*
X32540000Y-68005000D01*
X33675000Y-68005000D02*
X33175000Y-68005000D01*
D37*
X35382210Y-66297790D02*
X33675000Y-68005000D01*
X35382210Y-62687210D02*
X35382210Y-66297790D01*
X32540000Y-59845000D02*
X35382210Y-62687210D01*
D38*
G36*
X40420421Y-30921423D02*
G01*
X40259314Y-31222833D01*
X40160105Y-31549882D01*
X40135000Y-31804776D01*
X40135000Y-33275225D01*
X40160105Y-33530119D01*
X40259315Y-33857168D01*
X40420422Y-34158578D01*
X40637235Y-34422766D01*
X40901423Y-34639579D01*
X41202833Y-34800686D01*
X41529882Y-34899895D01*
X41870000Y-34933394D01*
X42210119Y-34899895D01*
X42537168Y-34800686D01*
X42838578Y-34639579D01*
X43102766Y-34422766D01*
X43107504Y-34416992D01*
X43220000Y-34428072D01*
X44720000Y-34428072D01*
X44844482Y-34415812D01*
X44964180Y-34379502D01*
X45074494Y-34320537D01*
X45081001Y-34315197D01*
X45081001Y-34877330D01*
X45076700Y-34921000D01*
X45093864Y-35095274D01*
X45144698Y-35262852D01*
X45214527Y-35393491D01*
X45227248Y-35417291D01*
X45338342Y-35552659D01*
X45372259Y-35580494D01*
X47501504Y-37709740D01*
X47529341Y-37743659D01*
X47664709Y-37854753D01*
X47819149Y-37937303D01*
X47913758Y-37966002D01*
X47986725Y-37988136D01*
X48003325Y-37989771D01*
X48117333Y-38001000D01*
X48117340Y-38001000D01*
X48161000Y-38005300D01*
X48204660Y-38001000D01*
X49313952Y-38001000D01*
X49349498Y-38118180D01*
X49408463Y-38228494D01*
X49430216Y-38255000D01*
X46878236Y-38255000D01*
X45137499Y-36514264D01*
X45109659Y-36480341D01*
X44974291Y-36369247D01*
X44819851Y-36286697D01*
X44652274Y-36235864D01*
X44521667Y-36223000D01*
X44521660Y-36223000D01*
X44478000Y-36218700D01*
X44434340Y-36223000D01*
X42944048Y-36223000D01*
X42908502Y-36105820D01*
X42849537Y-35995506D01*
X42770185Y-35898815D01*
X42673494Y-35819463D01*
X42563180Y-35760498D01*
X42443482Y-35724188D01*
X42319000Y-35711928D01*
X40795000Y-35711928D01*
X40670518Y-35724188D01*
X40550820Y-35760498D01*
X40440506Y-35819463D01*
X40343815Y-35898815D01*
X40264463Y-35995506D01*
X40205498Y-36105820D01*
X40169188Y-36225518D01*
X40156928Y-36350000D01*
X40156928Y-37874000D01*
X40169188Y-37998482D01*
X40205498Y-38118180D01*
X40264463Y-38228494D01*
X40343815Y-38325185D01*
X40440506Y-38404537D01*
X40550820Y-38463502D01*
X40670518Y-38499812D01*
X40795000Y-38512072D01*
X42319000Y-38512072D01*
X42443482Y-38499812D01*
X42563180Y-38463502D01*
X42673494Y-38404537D01*
X42770185Y-38325185D01*
X42849537Y-38228494D01*
X42908502Y-38118180D01*
X42944048Y-38001000D01*
X44109765Y-38001000D01*
X45850506Y-39741742D01*
X45878341Y-39775659D01*
X46013709Y-39886753D01*
X46168149Y-39969303D01*
X46262758Y-39998002D01*
X46335725Y-40020136D01*
X46352325Y-40021771D01*
X46466333Y-40033000D01*
X46466340Y-40033000D01*
X46510000Y-40037300D01*
X46553660Y-40033000D01*
X55452340Y-40033000D01*
X55496000Y-40037300D01*
X55539660Y-40033000D01*
X55539667Y-40033000D01*
X55670274Y-40020136D01*
X55837851Y-39969303D01*
X55992291Y-39886753D01*
X56127659Y-39775659D01*
X56155499Y-39741736D01*
X57037235Y-38860000D01*
X58541928Y-38860000D01*
X58541928Y-41460000D01*
X58554188Y-41584482D01*
X58590498Y-41704180D01*
X58649463Y-41814494D01*
X58728815Y-41911185D01*
X58825506Y-41990537D01*
X58935820Y-42049502D01*
X59055518Y-42085812D01*
X59180000Y-42098072D01*
X61780000Y-42098072D01*
X61904482Y-42085812D01*
X62024180Y-42049502D01*
X62134494Y-41990537D01*
X62231185Y-41911185D01*
X62310537Y-41814494D01*
X62369502Y-41704180D01*
X62405812Y-41584482D01*
X62418072Y-41460000D01*
X62418072Y-39134592D01*
X79345000Y-39134592D01*
X79345000Y-39485407D01*
X79367210Y-39710912D01*
X79454983Y-40000260D01*
X79597519Y-40266926D01*
X79789339Y-40500661D01*
X80023073Y-40692481D01*
X80289739Y-40835017D01*
X80579087Y-40922790D01*
X80880000Y-40952427D01*
X81180912Y-40922790D01*
X81470260Y-40835017D01*
X81736926Y-40692481D01*
X81970661Y-40500661D01*
X82130000Y-40306505D01*
X82289339Y-40500661D01*
X82523073Y-40692481D01*
X82789739Y-40835017D01*
X83079087Y-40922790D01*
X83380000Y-40952427D01*
X83680912Y-40922790D01*
X83970260Y-40835017D01*
X84236926Y-40692481D01*
X84470661Y-40500661D01*
X84662481Y-40266927D01*
X84805017Y-40000261D01*
X84892790Y-39710913D01*
X84915000Y-39485408D01*
X84915000Y-39134593D01*
X84915000Y-39134592D01*
X86845000Y-39134592D01*
X86845000Y-39485407D01*
X86867210Y-39710912D01*
X86954983Y-40000260D01*
X87097519Y-40266926D01*
X87289339Y-40500661D01*
X87523073Y-40692481D01*
X87643400Y-40756797D01*
X87643401Y-51513807D01*
X87639836Y-51550000D01*
X87645672Y-51609247D01*
X87654059Y-51694399D01*
X87666144Y-51734236D01*
X87696178Y-51833247D01*
X87764576Y-51961212D01*
X87804738Y-52010149D01*
X87856626Y-52073375D01*
X87884732Y-52096441D01*
X100249400Y-64461110D01*
X100249401Y-74890398D01*
X100211537Y-74906082D01*
X99943748Y-75085013D01*
X99716013Y-75312748D01*
X99537082Y-75580537D01*
X99413832Y-75878088D01*
X99351000Y-76193967D01*
X99351000Y-76516033D01*
X99413832Y-76831912D01*
X99537082Y-77129463D01*
X99716013Y-77397252D01*
X99943748Y-77624987D01*
X100211537Y-77803918D01*
X100509088Y-77927168D01*
X100824967Y-77990000D01*
X101147033Y-77990000D01*
X101462912Y-77927168D01*
X101760463Y-77803918D01*
X102028252Y-77624987D01*
X102255987Y-77397252D01*
X102434918Y-77129463D01*
X102558168Y-76831912D01*
X102621000Y-76516033D01*
X102621000Y-76193967D01*
X102558168Y-75878088D01*
X102434918Y-75580537D01*
X102255987Y-75312748D01*
X102028252Y-75085013D01*
X101760463Y-74906082D01*
X101722600Y-74890399D01*
X101722600Y-64192175D01*
X101726163Y-64155999D01*
X101722600Y-64119823D01*
X101722600Y-64119814D01*
X101711942Y-64011601D01*
X101669822Y-63872751D01*
X101601424Y-63744787D01*
X101590215Y-63731129D01*
X101532442Y-63660732D01*
X101532437Y-63660727D01*
X101509374Y-63632625D01*
X101481274Y-63609564D01*
X89116600Y-51244891D01*
X89116600Y-45762408D01*
X89563000Y-45762408D01*
X89563000Y-46037592D01*
X89616686Y-46307490D01*
X89721995Y-46561727D01*
X89874880Y-46790535D01*
X90069465Y-46985120D01*
X90298273Y-47138005D01*
X90552510Y-47243314D01*
X90822408Y-47297000D01*
X91097592Y-47297000D01*
X91367490Y-47243314D01*
X91621727Y-47138005D01*
X91850535Y-46985120D01*
X92045120Y-46790535D01*
X92198005Y-46561727D01*
X92220000Y-46508627D01*
X92241995Y-46561727D01*
X92394880Y-46790535D01*
X92589465Y-46985120D01*
X92743400Y-47087977D01*
X92743401Y-48431186D01*
X92754059Y-48539399D01*
X92763400Y-48570192D01*
X92763401Y-53458807D01*
X92759836Y-53495000D01*
X92774059Y-53639398D01*
X92816178Y-53778247D01*
X92863934Y-53867592D01*
X92884577Y-53906213D01*
X92976626Y-54018375D01*
X93004732Y-54041441D01*
X114539784Y-75576494D01*
X114537082Y-75580537D01*
X114413832Y-75878088D01*
X114351000Y-76193967D01*
X114351000Y-76516033D01*
X114413832Y-76831912D01*
X114537082Y-77129463D01*
X114716013Y-77397252D01*
X114943748Y-77624987D01*
X115211537Y-77803918D01*
X115509088Y-77927168D01*
X115824967Y-77990000D01*
X116147033Y-77990000D01*
X116462912Y-77927168D01*
X116760463Y-77803918D01*
X117028252Y-77624987D01*
X117255987Y-77397252D01*
X117434918Y-77129463D01*
X117558168Y-76831912D01*
X117621000Y-76516033D01*
X117621000Y-76193967D01*
X117558168Y-75878088D01*
X117434918Y-75580537D01*
X117255987Y-75312748D01*
X117028252Y-75085013D01*
X116760463Y-74906082D01*
X116462912Y-74782832D01*
X116147033Y-74720000D01*
X115824967Y-74720000D01*
X115776375Y-74729665D01*
X94639118Y-53592408D01*
X116683000Y-53592408D01*
X116683000Y-53867592D01*
X116736686Y-54137490D01*
X116841995Y-54391727D01*
X116994880Y-54620535D01*
X117189465Y-54815120D01*
X117418273Y-54968005D01*
X117495515Y-55000000D01*
X117418273Y-55031995D01*
X117189465Y-55184880D01*
X116994880Y-55379465D01*
X116841995Y-55608273D01*
X116736686Y-55862510D01*
X116683000Y-56132408D01*
X116683000Y-56407592D01*
X116736686Y-56677490D01*
X116841995Y-56931727D01*
X116994880Y-57160535D01*
X117189465Y-57355120D01*
X117418273Y-57508005D01*
X117495515Y-57540000D01*
X117418273Y-57571995D01*
X117189465Y-57724880D01*
X116994880Y-57919465D01*
X116841995Y-58148273D01*
X116736686Y-58402510D01*
X116683000Y-58672408D01*
X116683000Y-58947592D01*
X116736686Y-59217490D01*
X116841995Y-59471727D01*
X116994880Y-59700535D01*
X117189465Y-59895120D01*
X117418273Y-60048005D01*
X117495515Y-60080000D01*
X117418273Y-60111995D01*
X117189465Y-60264880D01*
X116994880Y-60459465D01*
X116841995Y-60688273D01*
X116736686Y-60942510D01*
X116683000Y-61212408D01*
X116683000Y-61487592D01*
X116736686Y-61757490D01*
X116841995Y-62011727D01*
X116994880Y-62240535D01*
X117189465Y-62435120D01*
X117418273Y-62588005D01*
X117672510Y-62693314D01*
X117942408Y-62747000D01*
X118217592Y-62747000D01*
X118487490Y-62693314D01*
X118741727Y-62588005D01*
X118970535Y-62435120D01*
X119165120Y-62240535D01*
X119281340Y-62066600D01*
X120192024Y-62066600D01*
X120294880Y-62220535D01*
X120489465Y-62415120D01*
X120718273Y-62568005D01*
X120972510Y-62673314D01*
X121242408Y-62727000D01*
X121517592Y-62727000D01*
X121787490Y-62673314D01*
X122041727Y-62568005D01*
X122270535Y-62415120D01*
X122465120Y-62220535D01*
X122618005Y-61991727D01*
X122723314Y-61737490D01*
X122777000Y-61467592D01*
X122777000Y-61192408D01*
X122723314Y-60922510D01*
X122618005Y-60668273D01*
X122465120Y-60439465D01*
X122270535Y-60244880D01*
X122041727Y-60091995D01*
X121964485Y-60060000D01*
X122041727Y-60028005D01*
X122270535Y-59875120D01*
X122465120Y-59680535D01*
X122618005Y-59451727D01*
X122723314Y-59197490D01*
X122777000Y-58927592D01*
X122777000Y-58652408D01*
X122723314Y-58382510D01*
X122618005Y-58128273D01*
X122465120Y-57899465D01*
X122270535Y-57704880D01*
X122041727Y-57551995D01*
X121964485Y-57520000D01*
X122041727Y-57488005D01*
X122270535Y-57335120D01*
X122465120Y-57140535D01*
X122618005Y-56911727D01*
X122723314Y-56657490D01*
X122777000Y-56387592D01*
X122777000Y-56112408D01*
X122723314Y-55842510D01*
X122618005Y-55588273D01*
X122465120Y-55359465D01*
X122270535Y-55164880D01*
X122041727Y-55011995D01*
X121964485Y-54980000D01*
X122041727Y-54948005D01*
X122270535Y-54795120D01*
X122465120Y-54600535D01*
X122618005Y-54371727D01*
X122723314Y-54117490D01*
X122777000Y-53847592D01*
X122777000Y-53572408D01*
X122723314Y-53302510D01*
X122618005Y-53048273D01*
X122465120Y-52819465D01*
X122270535Y-52624880D01*
X122041727Y-52471995D01*
X121787490Y-52366686D01*
X121517592Y-52313000D01*
X121242408Y-52313000D01*
X120972510Y-52366686D01*
X120718273Y-52471995D01*
X120489465Y-52624880D01*
X120294880Y-52819465D01*
X120178660Y-52993400D01*
X119267976Y-52993400D01*
X119165120Y-52839465D01*
X118970535Y-52644880D01*
X118741727Y-52491995D01*
X118487490Y-52386686D01*
X118217592Y-52333000D01*
X117942408Y-52333000D01*
X117672510Y-52386686D01*
X117418273Y-52491995D01*
X117189465Y-52644880D01*
X116994880Y-52839465D01*
X116841995Y-53068273D01*
X116736686Y-53322510D01*
X116683000Y-53592408D01*
X94639118Y-53592408D01*
X94236600Y-53189891D01*
X94236600Y-48378814D01*
X94225942Y-48270601D01*
X94216600Y-48239805D01*
X94216600Y-47087976D01*
X94370535Y-46985120D01*
X94565120Y-46790535D01*
X94718005Y-46561727D01*
X94823314Y-46307490D01*
X94877000Y-46037592D01*
X94877000Y-45762408D01*
X94823314Y-45492510D01*
X94718005Y-45238273D01*
X94565120Y-45009465D01*
X94370535Y-44814880D01*
X94141727Y-44661995D01*
X93887490Y-44556686D01*
X93617592Y-44503000D01*
X93342408Y-44503000D01*
X93072510Y-44556686D01*
X92818273Y-44661995D01*
X92589465Y-44814880D01*
X92394880Y-45009465D01*
X92241995Y-45238273D01*
X92220000Y-45291373D01*
X92198005Y-45238273D01*
X92045120Y-45009465D01*
X91850535Y-44814880D01*
X91621727Y-44661995D01*
X91367490Y-44556686D01*
X91097592Y-44503000D01*
X90822408Y-44503000D01*
X90552510Y-44556686D01*
X90298273Y-44661995D01*
X90069465Y-44814880D01*
X89874880Y-45009465D01*
X89721995Y-45238273D01*
X89616686Y-45492510D01*
X89563000Y-45762408D01*
X89116600Y-45762408D01*
X89116600Y-40756797D01*
X89236926Y-40692481D01*
X89470661Y-40500661D01*
X89630000Y-40306505D01*
X89789339Y-40500661D01*
X90023073Y-40692481D01*
X90289739Y-40835017D01*
X90579087Y-40922790D01*
X90880000Y-40952427D01*
X91180912Y-40922790D01*
X91470260Y-40835017D01*
X91736926Y-40692481D01*
X91970661Y-40500661D01*
X92162481Y-40266927D01*
X92305017Y-40000261D01*
X92392790Y-39710913D01*
X92415000Y-39485408D01*
X92415000Y-39134593D01*
X92415000Y-39134592D01*
X103475000Y-39134592D01*
X103475000Y-39485407D01*
X103497210Y-39710912D01*
X103584983Y-40000260D01*
X103727519Y-40266926D01*
X103919339Y-40500661D01*
X104153073Y-40692481D01*
X104419739Y-40835017D01*
X104709087Y-40922790D01*
X105010000Y-40952427D01*
X105310912Y-40922790D01*
X105600260Y-40835017D01*
X105866926Y-40692481D01*
X106100661Y-40500661D01*
X106260000Y-40306505D01*
X106419339Y-40500661D01*
X106653073Y-40692481D01*
X106919739Y-40835017D01*
X107209087Y-40922790D01*
X107510000Y-40952427D01*
X107810912Y-40922790D01*
X108100260Y-40835017D01*
X108366926Y-40692481D01*
X108600661Y-40500661D01*
X108792481Y-40266927D01*
X108935017Y-40000261D01*
X109022790Y-39710913D01*
X109045000Y-39485408D01*
X109045000Y-39134593D01*
X109045000Y-39134592D01*
X110975000Y-39134592D01*
X110975000Y-39485407D01*
X110997210Y-39710912D01*
X111084983Y-40000260D01*
X111227519Y-40266926D01*
X111419339Y-40500661D01*
X111653073Y-40692481D01*
X111919739Y-40835017D01*
X112209087Y-40922790D01*
X112510000Y-40952427D01*
X112810912Y-40922790D01*
X113100260Y-40835017D01*
X113366926Y-40692481D01*
X113600661Y-40500661D01*
X113760000Y-40306505D01*
X113919339Y-40500661D01*
X114153073Y-40692481D01*
X114419739Y-40835017D01*
X114709087Y-40922790D01*
X115010000Y-40952427D01*
X115310912Y-40922790D01*
X115600260Y-40835017D01*
X115866926Y-40692481D01*
X116100661Y-40500661D01*
X116292481Y-40266927D01*
X116435017Y-40000261D01*
X116522790Y-39710913D01*
X116545000Y-39485408D01*
X116545000Y-39134593D01*
X116522790Y-38909088D01*
X116435017Y-38619740D01*
X116292481Y-38353073D01*
X116100661Y-38119339D01*
X115866927Y-37927519D01*
X115600261Y-37784983D01*
X115310913Y-37697210D01*
X115010000Y-37667573D01*
X114709088Y-37697210D01*
X114419740Y-37784983D01*
X114153074Y-37927519D01*
X113919339Y-38119339D01*
X113760000Y-38313495D01*
X113600661Y-38119339D01*
X113366927Y-37927519D01*
X113100261Y-37784983D01*
X112810913Y-37697210D01*
X112510000Y-37667573D01*
X112209088Y-37697210D01*
X111919740Y-37784983D01*
X111653074Y-37927519D01*
X111419339Y-38119339D01*
X111227519Y-38353073D01*
X111084983Y-38619739D01*
X110997210Y-38909087D01*
X110975000Y-39134592D01*
X109045000Y-39134592D01*
X109022790Y-38909088D01*
X108935017Y-38619740D01*
X108792481Y-38353073D01*
X108600661Y-38119339D01*
X108366927Y-37927519D01*
X108100261Y-37784983D01*
X107810913Y-37697210D01*
X107510000Y-37667573D01*
X107209088Y-37697210D01*
X106919740Y-37784983D01*
X106653074Y-37927519D01*
X106419339Y-38119339D01*
X106260000Y-38313495D01*
X106100661Y-38119339D01*
X105866927Y-37927519D01*
X105600261Y-37784983D01*
X105310913Y-37697210D01*
X105010000Y-37667573D01*
X104709088Y-37697210D01*
X104419740Y-37784983D01*
X104153074Y-37927519D01*
X103919339Y-38119339D01*
X103727519Y-38353073D01*
X103584983Y-38619739D01*
X103497210Y-38909087D01*
X103475000Y-39134592D01*
X92415000Y-39134592D01*
X92392790Y-38909088D01*
X92305017Y-38619740D01*
X92162481Y-38353073D01*
X91970661Y-38119339D01*
X91736927Y-37927519D01*
X91470261Y-37784983D01*
X91180913Y-37697210D01*
X90880000Y-37667573D01*
X90579088Y-37697210D01*
X90289740Y-37784983D01*
X90023074Y-37927519D01*
X89789339Y-38119339D01*
X89630000Y-38313495D01*
X89470661Y-38119339D01*
X89236927Y-37927519D01*
X88970261Y-37784983D01*
X88680913Y-37697210D01*
X88380000Y-37667573D01*
X88079088Y-37697210D01*
X87789740Y-37784983D01*
X87523074Y-37927519D01*
X87289339Y-38119339D01*
X87097519Y-38353073D01*
X86954983Y-38619739D01*
X86867210Y-38909087D01*
X86845000Y-39134592D01*
X84915000Y-39134592D01*
X84892790Y-38909088D01*
X84805017Y-38619740D01*
X84662481Y-38353073D01*
X84470661Y-38119339D01*
X84236927Y-37927519D01*
X83970261Y-37784983D01*
X83680913Y-37697210D01*
X83380000Y-37667573D01*
X83079088Y-37697210D01*
X82789740Y-37784983D01*
X82523074Y-37927519D01*
X82289339Y-38119339D01*
X82130000Y-38313495D01*
X81970661Y-38119339D01*
X81736927Y-37927519D01*
X81470261Y-37784983D01*
X81180913Y-37697210D01*
X80880000Y-37667573D01*
X80579088Y-37697210D01*
X80289740Y-37784983D01*
X80023074Y-37927519D01*
X79789339Y-38119339D01*
X79597519Y-38353073D01*
X79454983Y-38619739D01*
X79367210Y-38909087D01*
X79345000Y-39134592D01*
X62418072Y-39134592D01*
X62418072Y-38860000D01*
X62405812Y-38735518D01*
X62369502Y-38615820D01*
X62310537Y-38505506D01*
X62231185Y-38408815D01*
X62134494Y-38329463D01*
X62024180Y-38270498D01*
X61904482Y-38234188D01*
X61780000Y-38221928D01*
X59180000Y-38221928D01*
X59055518Y-38234188D01*
X58935820Y-38270498D01*
X58825506Y-38329463D01*
X58728815Y-38408815D01*
X58649463Y-38505506D01*
X58590498Y-38615820D01*
X58554188Y-38735518D01*
X58541928Y-38860000D01*
X57037235Y-38860000D01*
X58927816Y-36969419D01*
X63245000Y-36969419D01*
X63245000Y-37350581D01*
X63319361Y-37724419D01*
X63465225Y-38076566D01*
X63676987Y-38393491D01*
X63946509Y-38663013D01*
X64263434Y-38874775D01*
X64615581Y-39020639D01*
X64989419Y-39095000D01*
X65370581Y-39095000D01*
X65744419Y-39020639D01*
X66096566Y-38874775D01*
X66413491Y-38663013D01*
X66683013Y-38393491D01*
X66894775Y-38076566D01*
X67040639Y-37724419D01*
X67115000Y-37350581D01*
X67115000Y-36969419D01*
X67040639Y-36595581D01*
X66894775Y-36243434D01*
X66683013Y-35926509D01*
X66413491Y-35656987D01*
X66096566Y-35445225D01*
X65744419Y-35299361D01*
X65370581Y-35225000D01*
X64989419Y-35225000D01*
X64615581Y-35299361D01*
X64263434Y-35445225D01*
X63946509Y-35656987D01*
X63676987Y-35926509D01*
X63465225Y-36243434D01*
X63319361Y-36595581D01*
X63245000Y-36969419D01*
X58927816Y-36969419D01*
X59888014Y-36009221D01*
X59915581Y-36020639D01*
X60289419Y-36095000D01*
X60670581Y-36095000D01*
X61044419Y-36020639D01*
X61396566Y-35874775D01*
X61713491Y-35663013D01*
X61983013Y-35393491D01*
X62194775Y-35076566D01*
X62340639Y-34724419D01*
X62415000Y-34350581D01*
X62415000Y-33969419D01*
X62348399Y-33634592D01*
X84345000Y-33634592D01*
X84345000Y-33985407D01*
X84367210Y-34210912D01*
X84454983Y-34500260D01*
X84597519Y-34766926D01*
X84789339Y-35000661D01*
X85023073Y-35192481D01*
X85289739Y-35335017D01*
X85579087Y-35422790D01*
X85880000Y-35452427D01*
X86180912Y-35422790D01*
X86470260Y-35335017D01*
X86736926Y-35192481D01*
X86970661Y-35000661D01*
X87162481Y-34766927D01*
X87305017Y-34500261D01*
X87392790Y-34210913D01*
X87415000Y-33985408D01*
X87415000Y-33634593D01*
X87415000Y-33634592D01*
X108475000Y-33634592D01*
X108475000Y-33985407D01*
X108497210Y-34210912D01*
X108584983Y-34500260D01*
X108727519Y-34766926D01*
X108919339Y-35000661D01*
X109153073Y-35192481D01*
X109419739Y-35335017D01*
X109709087Y-35422790D01*
X110010000Y-35452427D01*
X110310912Y-35422790D01*
X110600260Y-35335017D01*
X110866926Y-35192481D01*
X111100661Y-35000661D01*
X111292481Y-34766927D01*
X111435017Y-34500261D01*
X111522790Y-34210913D01*
X111545000Y-33985408D01*
X111545000Y-33634593D01*
X111522790Y-33409088D01*
X111435017Y-33119740D01*
X111292481Y-32853073D01*
X111100661Y-32619339D01*
X110866927Y-32427519D01*
X110600261Y-32284983D01*
X110310913Y-32197210D01*
X110010000Y-32167573D01*
X109709088Y-32197210D01*
X109419740Y-32284983D01*
X109153074Y-32427519D01*
X108919339Y-32619339D01*
X108727519Y-32853073D01*
X108584983Y-33119739D01*
X108497210Y-33409087D01*
X108475000Y-33634592D01*
X87415000Y-33634592D01*
X87392790Y-33409088D01*
X87305017Y-33119740D01*
X87162481Y-32853073D01*
X86970661Y-32619339D01*
X86736927Y-32427519D01*
X86470261Y-32284983D01*
X86180913Y-32197210D01*
X85880000Y-32167573D01*
X85579088Y-32197210D01*
X85289740Y-32284983D01*
X85023074Y-32427519D01*
X84789339Y-32619339D01*
X84597519Y-32853073D01*
X84454983Y-33119739D01*
X84367210Y-33409087D01*
X84345000Y-33634592D01*
X62348399Y-33634592D01*
X62340639Y-33595581D01*
X62194775Y-33243434D01*
X61983013Y-32926509D01*
X61713491Y-32656987D01*
X61396566Y-32445225D01*
X61044419Y-32299361D01*
X60670581Y-32225000D01*
X60289419Y-32225000D01*
X59915581Y-32299361D01*
X59563434Y-32445225D01*
X59246509Y-32656987D01*
X58976987Y-32926509D01*
X58765225Y-33243434D01*
X58619361Y-33595581D01*
X58545000Y-33969419D01*
X58545000Y-34350581D01*
X58619361Y-34724419D01*
X58630779Y-34751986D01*
X55127765Y-38255000D01*
X51971784Y-38255000D01*
X51993537Y-38228494D01*
X52052502Y-38118180D01*
X52088812Y-37998482D01*
X52101072Y-37874000D01*
X52101072Y-36350000D01*
X52088812Y-36225518D01*
X52052502Y-36105820D01*
X51993537Y-35995506D01*
X51914185Y-35898815D01*
X51817494Y-35819463D01*
X51707180Y-35760498D01*
X51587482Y-35724188D01*
X51463000Y-35711928D01*
X49939000Y-35711928D01*
X49814518Y-35724188D01*
X49694820Y-35760498D01*
X49584506Y-35819463D01*
X49487815Y-35898815D01*
X49408463Y-35995506D01*
X49349498Y-36105820D01*
X49313952Y-36223000D01*
X48529236Y-36223000D01*
X46859000Y-34552765D01*
X46859000Y-34102112D01*
X46954081Y-34024081D01*
X46970000Y-34004683D01*
X46985920Y-34024081D01*
X47196813Y-34197157D01*
X47437420Y-34325764D01*
X47698494Y-34404960D01*
X47970000Y-34431701D01*
X48241507Y-34404960D01*
X48502581Y-34325764D01*
X48679862Y-34231006D01*
X48837235Y-34422766D01*
X49101423Y-34639579D01*
X49402833Y-34800686D01*
X49729882Y-34899895D01*
X50070000Y-34933394D01*
X50410119Y-34899895D01*
X50737168Y-34800686D01*
X51038578Y-34639579D01*
X51302766Y-34422766D01*
X51519579Y-34158578D01*
X51680686Y-33857168D01*
X51779895Y-33530119D01*
X51805000Y-33275225D01*
X51805000Y-31804775D01*
X51779895Y-31549881D01*
X51680686Y-31222832D01*
X51519579Y-30921422D01*
X51305036Y-30660000D01*
X68549020Y-30660000D01*
X68540986Y-30664294D01*
X68314866Y-30849866D01*
X68129294Y-31075986D01*
X67991401Y-31333966D01*
X67906487Y-31613889D01*
X67877815Y-31905000D01*
X67906487Y-32196111D01*
X67991401Y-32476034D01*
X68129294Y-32734014D01*
X68314866Y-32960134D01*
X68540986Y-33145706D01*
X68798966Y-33283599D01*
X69078889Y-33368513D01*
X69297050Y-33390000D01*
X69442950Y-33390000D01*
X69661111Y-33368513D01*
X69941034Y-33283599D01*
X70199014Y-33145706D01*
X70425134Y-32960134D01*
X70449607Y-32930313D01*
X70470498Y-32999180D01*
X70529463Y-33109494D01*
X70608815Y-33206185D01*
X70705506Y-33285537D01*
X70815820Y-33344502D01*
X70935518Y-33380812D01*
X71060000Y-33393072D01*
X72760000Y-33393072D01*
X72884482Y-33380812D01*
X73004180Y-33344502D01*
X73114494Y-33285537D01*
X73211185Y-33206185D01*
X73290537Y-33109494D01*
X73349502Y-32999180D01*
X73385812Y-32879482D01*
X73398072Y-32755000D01*
X73398072Y-31055000D01*
X73385812Y-30930518D01*
X73349502Y-30810820D01*
X73290537Y-30700506D01*
X73257295Y-30660000D01*
X124585664Y-30660000D01*
X124281971Y-30785794D01*
X123687922Y-31182725D01*
X123182725Y-31687922D01*
X122785794Y-32281971D01*
X122512383Y-32942043D01*
X122373000Y-33642772D01*
X122373000Y-34357228D01*
X122512383Y-35057957D01*
X122785794Y-35718029D01*
X123182725Y-36312078D01*
X123687922Y-36817275D01*
X124281971Y-37214206D01*
X124942043Y-37487617D01*
X125642772Y-37627000D01*
X126357228Y-37627000D01*
X127057957Y-37487617D01*
X127718029Y-37214206D01*
X128312078Y-36817275D01*
X128817275Y-36312078D01*
X129214206Y-35718029D01*
X129340000Y-35414336D01*
X129340001Y-122585667D01*
X129214206Y-122281971D01*
X128817275Y-121687922D01*
X128312078Y-121182725D01*
X127718029Y-120785794D01*
X127057957Y-120512383D01*
X126357228Y-120373000D01*
X125642772Y-120373000D01*
X124942043Y-120512383D01*
X124281971Y-120785794D01*
X123687922Y-121182725D01*
X123182725Y-121687922D01*
X122785794Y-122281971D01*
X122512383Y-122942043D01*
X122373000Y-123642772D01*
X122373000Y-124357228D01*
X122512383Y-125057957D01*
X122785794Y-125718029D01*
X123182725Y-126312078D01*
X123687922Y-126817275D01*
X124281971Y-127214206D01*
X124585664Y-127340000D01*
X35414336Y-127340000D01*
X35718029Y-127214206D01*
X36312078Y-126817275D01*
X36817275Y-126312078D01*
X37214206Y-125718029D01*
X37487617Y-125057957D01*
X37627000Y-124357228D01*
X37627000Y-123642772D01*
X37487617Y-122942043D01*
X37214206Y-122281971D01*
X36817275Y-121687922D01*
X36312078Y-121182725D01*
X35718029Y-120785794D01*
X35057957Y-120512383D01*
X34357228Y-120373000D01*
X33642772Y-120373000D01*
X32942043Y-120512383D01*
X32281971Y-120785794D01*
X31687922Y-121182725D01*
X31182725Y-121687922D01*
X30785794Y-122281971D01*
X30660000Y-122585664D01*
X30660000Y-116068421D01*
X30881184Y-116068421D01*
X30950345Y-116310349D01*
X31202443Y-116429248D01*
X31472894Y-116496681D01*
X31751303Y-116510057D01*
X32026972Y-116468860D01*
X32289308Y-116374675D01*
X32409655Y-116310349D01*
X32478816Y-116068421D01*
X31680000Y-115269605D01*
X30881184Y-116068421D01*
X30660000Y-116068421D01*
X30660000Y-115876930D01*
X30701579Y-115888816D01*
X31500395Y-115090000D01*
X30701579Y-114291184D01*
X30660000Y-114303070D01*
X30660000Y-113528421D01*
X30881184Y-113528421D01*
X30950345Y-113770349D01*
X31049041Y-113816898D01*
X30950345Y-113869651D01*
X30881184Y-114111579D01*
X31680000Y-114910395D01*
X32478816Y-114111579D01*
X32409655Y-113869651D01*
X32310959Y-113823102D01*
X32409655Y-113770349D01*
X32478816Y-113528421D01*
X31680000Y-112729605D01*
X30881184Y-113528421D01*
X30660000Y-113528421D01*
X30660000Y-113336930D01*
X30701579Y-113348816D01*
X31500395Y-112550000D01*
X30701579Y-111751184D01*
X30660000Y-111763070D01*
X30660000Y-111571579D01*
X30881184Y-111571579D01*
X31680000Y-112370395D01*
X32478816Y-111571579D01*
X32409655Y-111329651D01*
X32157557Y-111210752D01*
X31887106Y-111143319D01*
X31608697Y-111129943D01*
X31333028Y-111171140D01*
X31070692Y-111265325D01*
X30950345Y-111329651D01*
X30881184Y-111571579D01*
X30660000Y-111571579D01*
X30660000Y-90671113D01*
X30777990Y-90789103D01*
X31009746Y-90943957D01*
X31267260Y-91050623D01*
X31540635Y-91105000D01*
X31819365Y-91105000D01*
X32092740Y-91050623D01*
X32350254Y-90943957D01*
X32582010Y-90789103D01*
X32779103Y-90592010D01*
X32933957Y-90360254D01*
X32950000Y-90321523D01*
X32966043Y-90360254D01*
X33120897Y-90592010D01*
X33317990Y-90789103D01*
X33549746Y-90943957D01*
X33807260Y-91050623D01*
X34080635Y-91105000D01*
X34359365Y-91105000D01*
X34632740Y-91050623D01*
X34890254Y-90943957D01*
X35122010Y-90789103D01*
X35319103Y-90592010D01*
X35473957Y-90360254D01*
X35490000Y-90321523D01*
X35506043Y-90360254D01*
X35660897Y-90592010D01*
X35857990Y-90789103D01*
X36089746Y-90943957D01*
X36347260Y-91050623D01*
X36620635Y-91105000D01*
X36899365Y-91105000D01*
X37172740Y-91050623D01*
X37430254Y-90943957D01*
X37662010Y-90789103D01*
X37859103Y-90592010D01*
X38013957Y-90360254D01*
X38030000Y-90321523D01*
X38046043Y-90360254D01*
X38200897Y-90592010D01*
X38397990Y-90789103D01*
X38629746Y-90943957D01*
X38887260Y-91050623D01*
X39160635Y-91105000D01*
X39439365Y-91105000D01*
X39712740Y-91050623D01*
X39970254Y-90943957D01*
X40202010Y-90789103D01*
X40399103Y-90592010D01*
X40553957Y-90360254D01*
X40570000Y-90321523D01*
X40586043Y-90360254D01*
X40740897Y-90592010D01*
X40937990Y-90789103D01*
X41169746Y-90943957D01*
X41427260Y-91050623D01*
X41700635Y-91105000D01*
X41979365Y-91105000D01*
X42252740Y-91050623D01*
X42510254Y-90943957D01*
X42742010Y-90789103D01*
X42939103Y-90592010D01*
X43093957Y-90360254D01*
X43110000Y-90321523D01*
X43126043Y-90360254D01*
X43280897Y-90592010D01*
X43477990Y-90789103D01*
X43709746Y-90943957D01*
X43967260Y-91050623D01*
X44240635Y-91105000D01*
X44519365Y-91105000D01*
X44792740Y-91050623D01*
X45050254Y-90943957D01*
X45282010Y-90789103D01*
X45479103Y-90592010D01*
X45633957Y-90360254D01*
X45650000Y-90321523D01*
X45666043Y-90360254D01*
X45820897Y-90592010D01*
X46017990Y-90789103D01*
X46249746Y-90943957D01*
X46507260Y-91050623D01*
X46780635Y-91105000D01*
X47059365Y-91105000D01*
X47332740Y-91050623D01*
X47590254Y-90943957D01*
X47822010Y-90789103D01*
X48019103Y-90592010D01*
X48173957Y-90360254D01*
X48190000Y-90321523D01*
X48206043Y-90360254D01*
X48360897Y-90592010D01*
X48557990Y-90789103D01*
X48789746Y-90943957D01*
X49047260Y-91050623D01*
X49320635Y-91105000D01*
X49599365Y-91105000D01*
X49872740Y-91050623D01*
X50130254Y-90943957D01*
X50362010Y-90789103D01*
X50559103Y-90592010D01*
X50713957Y-90360254D01*
X50730000Y-90321523D01*
X50746043Y-90360254D01*
X50900897Y-90592010D01*
X51097990Y-90789103D01*
X51329746Y-90943957D01*
X51587260Y-91050623D01*
X51860635Y-91105000D01*
X52139365Y-91105000D01*
X52412740Y-91050623D01*
X52670254Y-90943957D01*
X52902010Y-90789103D01*
X53099103Y-90592010D01*
X53253957Y-90360254D01*
X53270000Y-90321523D01*
X53286043Y-90360254D01*
X53440897Y-90592010D01*
X53637990Y-90789103D01*
X53869746Y-90943957D01*
X54127260Y-91050623D01*
X54400635Y-91105000D01*
X54679365Y-91105000D01*
X54952740Y-91050623D01*
X55210254Y-90943957D01*
X55442010Y-90789103D01*
X55639103Y-90592010D01*
X55793957Y-90360254D01*
X55810000Y-90321523D01*
X55826043Y-90360254D01*
X55980897Y-90592010D01*
X56177990Y-90789103D01*
X56409746Y-90943957D01*
X56667260Y-91050623D01*
X56940635Y-91105000D01*
X57219365Y-91105000D01*
X57492740Y-91050623D01*
X57750254Y-90943957D01*
X57982010Y-90789103D01*
X58179103Y-90592010D01*
X58333957Y-90360254D01*
X58350000Y-90321523D01*
X58366043Y-90360254D01*
X58520897Y-90592010D01*
X58717990Y-90789103D01*
X58949746Y-90943957D01*
X59207260Y-91050623D01*
X59480635Y-91105000D01*
X59759365Y-91105000D01*
X60032740Y-91050623D01*
X60290254Y-90943957D01*
X60522010Y-90789103D01*
X60719103Y-90592010D01*
X60873957Y-90360254D01*
X60890000Y-90321523D01*
X60906043Y-90360254D01*
X61060897Y-90592010D01*
X61257990Y-90789103D01*
X61423400Y-90899626D01*
X61423400Y-91514890D01*
X43884732Y-109053559D01*
X43856626Y-109076625D01*
X43833560Y-109104731D01*
X43833558Y-109104733D01*
X43764576Y-109188788D01*
X43696178Y-109316753D01*
X43654059Y-109455602D01*
X43639836Y-109600000D01*
X43643401Y-109636193D01*
X43643400Y-111340374D01*
X43477990Y-111450897D01*
X43280897Y-111647990D01*
X43126043Y-111879746D01*
X43110000Y-111918477D01*
X43093957Y-111879746D01*
X42939103Y-111647990D01*
X42742010Y-111450897D01*
X42510254Y-111296043D01*
X42252740Y-111189377D01*
X41979365Y-111135000D01*
X41700635Y-111135000D01*
X41427260Y-111189377D01*
X41169746Y-111296043D01*
X40937990Y-111450897D01*
X40740897Y-111647990D01*
X40586043Y-111879746D01*
X40570000Y-111918477D01*
X40553957Y-111879746D01*
X40399103Y-111647990D01*
X40202010Y-111450897D01*
X39970254Y-111296043D01*
X39712740Y-111189377D01*
X39439365Y-111135000D01*
X39160635Y-111135000D01*
X38887260Y-111189377D01*
X38629746Y-111296043D01*
X38397990Y-111450897D01*
X38200897Y-111647990D01*
X38046043Y-111879746D01*
X38030000Y-111918477D01*
X38013957Y-111879746D01*
X37859103Y-111647990D01*
X37662010Y-111450897D01*
X37430254Y-111296043D01*
X37172740Y-111189377D01*
X36899365Y-111135000D01*
X36620635Y-111135000D01*
X36347260Y-111189377D01*
X36089746Y-111296043D01*
X35857990Y-111450897D01*
X35660897Y-111647990D01*
X35506043Y-111879746D01*
X35490000Y-111918477D01*
X35473957Y-111879746D01*
X35319103Y-111647990D01*
X35122010Y-111450897D01*
X34890254Y-111296043D01*
X34632740Y-111189377D01*
X34359365Y-111135000D01*
X34080635Y-111135000D01*
X33807260Y-111189377D01*
X33549746Y-111296043D01*
X33317990Y-111450897D01*
X33120897Y-111647990D01*
X32966043Y-111879746D01*
X32951223Y-111915525D01*
X32900349Y-111820345D01*
X32658421Y-111751184D01*
X31859605Y-112550000D01*
X32658421Y-113348816D01*
X32900349Y-113279655D01*
X32948425Y-113177721D01*
X32966043Y-113220254D01*
X33120897Y-113452010D01*
X33317990Y-113649103D01*
X33483400Y-113759626D01*
X33483401Y-113880374D01*
X33317990Y-113990897D01*
X33120897Y-114187990D01*
X32966043Y-114419746D01*
X32951223Y-114455525D01*
X32900349Y-114360345D01*
X32658421Y-114291184D01*
X31859605Y-115090000D01*
X32658421Y-115888816D01*
X32900349Y-115819655D01*
X32948425Y-115717721D01*
X32966043Y-115760254D01*
X33120897Y-115992010D01*
X33317990Y-116189103D01*
X33549746Y-116343957D01*
X33807260Y-116450623D01*
X34080635Y-116505000D01*
X34359365Y-116505000D01*
X34632740Y-116450623D01*
X34890254Y-116343957D01*
X35122010Y-116189103D01*
X35319103Y-115992010D01*
X35473957Y-115760254D01*
X35490000Y-115721523D01*
X35506043Y-115760254D01*
X35660897Y-115992010D01*
X35857990Y-116189103D01*
X36089746Y-116343957D01*
X36347260Y-116450623D01*
X36620635Y-116505000D01*
X36899365Y-116505000D01*
X37172740Y-116450623D01*
X37430254Y-116343957D01*
X37662010Y-116189103D01*
X37859103Y-115992010D01*
X38013957Y-115760254D01*
X38030000Y-115721523D01*
X38046043Y-115760254D01*
X38200897Y-115992010D01*
X38397990Y-116189103D01*
X38629746Y-116343957D01*
X38887260Y-116450623D01*
X39160635Y-116505000D01*
X39439365Y-116505000D01*
X39712740Y-116450623D01*
X39970254Y-116343957D01*
X40202010Y-116189103D01*
X40399103Y-115992010D01*
X40553957Y-115760254D01*
X40570000Y-115721523D01*
X40586043Y-115760254D01*
X40740897Y-115992010D01*
X40937990Y-116189103D01*
X41103400Y-116299626D01*
X41103401Y-118003807D01*
X41099836Y-118040000D01*
X41112792Y-118171532D01*
X41114059Y-118184399D01*
X41156179Y-118323249D01*
X41224577Y-118451213D01*
X41316626Y-118563375D01*
X41344732Y-118586441D01*
X43423559Y-120665269D01*
X43446625Y-120693375D01*
X43558787Y-120785424D01*
X43686751Y-120853822D01*
X43825601Y-120895942D01*
X43970000Y-120910164D01*
X44006186Y-120906600D01*
X66231591Y-120906600D01*
X66266068Y-120971101D01*
X66445392Y-121189608D01*
X66663899Y-121368932D01*
X66913192Y-121502182D01*
X67183691Y-121584236D01*
X67394508Y-121605000D01*
X67535492Y-121605000D01*
X67746309Y-121584236D01*
X68016808Y-121502182D01*
X68266101Y-121368932D01*
X68484608Y-121189608D01*
X68663932Y-120971101D01*
X68797182Y-120721808D01*
X68879236Y-120451309D01*
X68906943Y-120170000D01*
X68893023Y-120028665D01*
X76190000Y-120028665D01*
X76190000Y-120311335D01*
X76245147Y-120588574D01*
X76353320Y-120849727D01*
X76510363Y-121084759D01*
X76710241Y-121284637D01*
X76945273Y-121441680D01*
X77206426Y-121549853D01*
X77483665Y-121605000D01*
X77766335Y-121605000D01*
X78043574Y-121549853D01*
X78304727Y-121441680D01*
X78539759Y-121284637D01*
X78739637Y-121084759D01*
X78896680Y-120849727D01*
X79004853Y-120588574D01*
X79060000Y-120311335D01*
X79060000Y-120028665D01*
X79004853Y-119751426D01*
X78896680Y-119490273D01*
X78739637Y-119255241D01*
X78539759Y-119055363D01*
X78304727Y-118898320D01*
X78043574Y-118790147D01*
X77766335Y-118735000D01*
X77483665Y-118735000D01*
X77206426Y-118790147D01*
X76945273Y-118898320D01*
X76710241Y-119055363D01*
X76510363Y-119255241D01*
X76353320Y-119490273D01*
X76245147Y-119751426D01*
X76190000Y-120028665D01*
X68893023Y-120028665D01*
X68879236Y-119888691D01*
X68797182Y-119618192D01*
X68663932Y-119368899D01*
X68484608Y-119150392D01*
X68266101Y-118971068D01*
X68016808Y-118837818D01*
X67746309Y-118755764D01*
X67535492Y-118735000D01*
X67394508Y-118735000D01*
X67183691Y-118755764D01*
X66913192Y-118837818D01*
X66663899Y-118971068D01*
X66445392Y-119150392D01*
X66266068Y-119368899D01*
X66231591Y-119433400D01*
X44275110Y-119433400D01*
X42576600Y-117734891D01*
X42576600Y-116299626D01*
X42742010Y-116189103D01*
X42939103Y-115992010D01*
X43093957Y-115760254D01*
X43110000Y-115721523D01*
X43126043Y-115760254D01*
X43280897Y-115992010D01*
X43477990Y-116189103D01*
X43709746Y-116343957D01*
X43967260Y-116450623D01*
X44240635Y-116505000D01*
X44519365Y-116505000D01*
X44792740Y-116450623D01*
X45050254Y-116343957D01*
X45282010Y-116189103D01*
X45479103Y-115992010D01*
X45633957Y-115760254D01*
X45650000Y-115721523D01*
X45666043Y-115760254D01*
X45820897Y-115992010D01*
X46017990Y-116189103D01*
X46249746Y-116343957D01*
X46507260Y-116450623D01*
X46780635Y-116505000D01*
X47059365Y-116505000D01*
X47332740Y-116450623D01*
X47590254Y-116343957D01*
X47822010Y-116189103D01*
X48019103Y-115992010D01*
X48173957Y-115760254D01*
X48190000Y-115721523D01*
X48206043Y-115760254D01*
X48360897Y-115992010D01*
X48557990Y-116189103D01*
X48789746Y-116343957D01*
X49047260Y-116450623D01*
X49320635Y-116505000D01*
X49599365Y-116505000D01*
X49872740Y-116450623D01*
X50130254Y-116343957D01*
X50362010Y-116189103D01*
X50559103Y-115992010D01*
X50713957Y-115760254D01*
X50730000Y-115721523D01*
X50746043Y-115760254D01*
X50900897Y-115992010D01*
X51097990Y-116189103D01*
X51329746Y-116343957D01*
X51587260Y-116450623D01*
X51860635Y-116505000D01*
X52139365Y-116505000D01*
X52412740Y-116450623D01*
X52670254Y-116343957D01*
X52902010Y-116189103D01*
X53099103Y-115992010D01*
X53253957Y-115760254D01*
X53270000Y-115721523D01*
X53286043Y-115760254D01*
X53440897Y-115992010D01*
X53637990Y-116189103D01*
X53869746Y-116343957D01*
X54127260Y-116450623D01*
X54400635Y-116505000D01*
X54679365Y-116505000D01*
X54952740Y-116450623D01*
X55210254Y-116343957D01*
X55442010Y-116189103D01*
X55639103Y-115992010D01*
X55793957Y-115760254D01*
X55810000Y-115721523D01*
X55826043Y-115760254D01*
X55980897Y-115992010D01*
X56177990Y-116189103D01*
X56409746Y-116343957D01*
X56667260Y-116450623D01*
X56940635Y-116505000D01*
X57219365Y-116505000D01*
X57492740Y-116450623D01*
X57750254Y-116343957D01*
X57982010Y-116189103D01*
X58179103Y-115992010D01*
X58333957Y-115760254D01*
X58350000Y-115721523D01*
X58366043Y-115760254D01*
X58520897Y-115992010D01*
X58717990Y-116189103D01*
X58949746Y-116343957D01*
X59207260Y-116450623D01*
X59480635Y-116505000D01*
X59759365Y-116505000D01*
X60032740Y-116450623D01*
X60290254Y-116343957D01*
X60522010Y-116189103D01*
X60719103Y-115992010D01*
X60873957Y-115760254D01*
X60890000Y-115721523D01*
X60906043Y-115760254D01*
X61060897Y-115992010D01*
X61257990Y-116189103D01*
X61489746Y-116343957D01*
X61747260Y-116450623D01*
X62020635Y-116505000D01*
X62299365Y-116505000D01*
X62572740Y-116450623D01*
X62830254Y-116343957D01*
X63062010Y-116189103D01*
X63259103Y-115992010D01*
X63413957Y-115760254D01*
X63430000Y-115721523D01*
X63446043Y-115760254D01*
X63600897Y-115992010D01*
X63797990Y-116189103D01*
X64029746Y-116343957D01*
X64287260Y-116450623D01*
X64560635Y-116505000D01*
X64839365Y-116505000D01*
X65112740Y-116450623D01*
X65370254Y-116343957D01*
X65602010Y-116189103D01*
X65799103Y-115992010D01*
X65953957Y-115760254D01*
X65970000Y-115721523D01*
X65986043Y-115760254D01*
X66140897Y-115992010D01*
X66337990Y-116189103D01*
X66569746Y-116343957D01*
X66827260Y-116450623D01*
X67100635Y-116505000D01*
X67379365Y-116505000D01*
X67652740Y-116450623D01*
X67910254Y-116343957D01*
X68142010Y-116189103D01*
X68339103Y-115992010D01*
X68493957Y-115760254D01*
X68510000Y-115721523D01*
X68526043Y-115760254D01*
X68680897Y-115992010D01*
X68877990Y-116189103D01*
X69109746Y-116343957D01*
X69367260Y-116450623D01*
X69640635Y-116505000D01*
X69919365Y-116505000D01*
X70192740Y-116450623D01*
X70450254Y-116343957D01*
X70682010Y-116189103D01*
X70879103Y-115992010D01*
X71033957Y-115760254D01*
X71050000Y-115721523D01*
X71066043Y-115760254D01*
X71220897Y-115992010D01*
X71417990Y-116189103D01*
X71649746Y-116343957D01*
X71907260Y-116450623D01*
X72180635Y-116505000D01*
X72459365Y-116505000D01*
X72732740Y-116450623D01*
X72990254Y-116343957D01*
X73222010Y-116189103D01*
X73419103Y-115992010D01*
X73573957Y-115760254D01*
X73590000Y-115721523D01*
X73606043Y-115760254D01*
X73760897Y-115992010D01*
X73957990Y-116189103D01*
X74189746Y-116343957D01*
X74447260Y-116450623D01*
X74720635Y-116505000D01*
X74999365Y-116505000D01*
X75272740Y-116450623D01*
X75530254Y-116343957D01*
X75762010Y-116189103D01*
X75959103Y-115992010D01*
X75989469Y-115946564D01*
X75994188Y-115994482D01*
X76030498Y-116114180D01*
X76089463Y-116224494D01*
X76168815Y-116321185D01*
X76265506Y-116400537D01*
X76375820Y-116459502D01*
X76495518Y-116495812D01*
X76620000Y-116508072D01*
X78180000Y-116508072D01*
X78304482Y-116495812D01*
X78424180Y-116459502D01*
X78534494Y-116400537D01*
X78631185Y-116321185D01*
X78710537Y-116224494D01*
X78769502Y-116114180D01*
X78805812Y-115994482D01*
X78818072Y-115870000D01*
X78818072Y-114310000D01*
X78805812Y-114185518D01*
X78769502Y-114065820D01*
X78710537Y-113955506D01*
X78631185Y-113858815D01*
X78583889Y-113820000D01*
X78631185Y-113781185D01*
X78710537Y-113684494D01*
X78769502Y-113574180D01*
X78805812Y-113454482D01*
X78818072Y-113330000D01*
X78818072Y-111770000D01*
X78805812Y-111645518D01*
X78769502Y-111525820D01*
X78710537Y-111415506D01*
X78631185Y-111318815D01*
X78534494Y-111239463D01*
X78424180Y-111180498D01*
X78304482Y-111144188D01*
X78180000Y-111131928D01*
X76620000Y-111131928D01*
X76495518Y-111144188D01*
X76375820Y-111180498D01*
X76265506Y-111239463D01*
X76168815Y-111318815D01*
X76089463Y-111415506D01*
X76030498Y-111525820D01*
X75994188Y-111645518D01*
X75989469Y-111693436D01*
X75959103Y-111647990D01*
X75762010Y-111450897D01*
X75530254Y-111296043D01*
X75272740Y-111189377D01*
X74999365Y-111135000D01*
X74720635Y-111135000D01*
X74447260Y-111189377D01*
X74189746Y-111296043D01*
X73957990Y-111450897D01*
X73760897Y-111647990D01*
X73606043Y-111879746D01*
X73590000Y-111918477D01*
X73573957Y-111879746D01*
X73419103Y-111647990D01*
X73222010Y-111450897D01*
X72990254Y-111296043D01*
X72732740Y-111189377D01*
X72459365Y-111135000D01*
X72180635Y-111135000D01*
X71907260Y-111189377D01*
X71649746Y-111296043D01*
X71417990Y-111450897D01*
X71220897Y-111647990D01*
X71066043Y-111879746D01*
X71050000Y-111918477D01*
X71033957Y-111879746D01*
X70879103Y-111647990D01*
X70682010Y-111450897D01*
X70450254Y-111296043D01*
X70192740Y-111189377D01*
X69919365Y-111135000D01*
X69640635Y-111135000D01*
X69367260Y-111189377D01*
X69109746Y-111296043D01*
X68877990Y-111450897D01*
X68680897Y-111647990D01*
X68526043Y-111879746D01*
X68510000Y-111918477D01*
X68493957Y-111879746D01*
X68339103Y-111647990D01*
X68142010Y-111450897D01*
X67910254Y-111296043D01*
X67652740Y-111189377D01*
X67379365Y-111135000D01*
X67100635Y-111135000D01*
X66827260Y-111189377D01*
X66569746Y-111296043D01*
X66337990Y-111450897D01*
X66140897Y-111647990D01*
X65986043Y-111879746D01*
X65970000Y-111918477D01*
X65953957Y-111879746D01*
X65799103Y-111647990D01*
X65602010Y-111450897D01*
X65370254Y-111296043D01*
X65112740Y-111189377D01*
X64839365Y-111135000D01*
X64560635Y-111135000D01*
X64287260Y-111189377D01*
X64029746Y-111296043D01*
X63797990Y-111450897D01*
X63600897Y-111647990D01*
X63446043Y-111879746D01*
X63430000Y-111918477D01*
X63413957Y-111879746D01*
X63259103Y-111647990D01*
X63062010Y-111450897D01*
X62830254Y-111296043D01*
X62572740Y-111189377D01*
X62299365Y-111135000D01*
X62020635Y-111135000D01*
X61747260Y-111189377D01*
X61489746Y-111296043D01*
X61257990Y-111450897D01*
X61060897Y-111647990D01*
X60906043Y-111879746D01*
X60890000Y-111918477D01*
X60873957Y-111879746D01*
X60719103Y-111647990D01*
X60522010Y-111450897D01*
X60290254Y-111296043D01*
X60032740Y-111189377D01*
X59759365Y-111135000D01*
X59480635Y-111135000D01*
X59207260Y-111189377D01*
X58949746Y-111296043D01*
X58717990Y-111450897D01*
X58520897Y-111647990D01*
X58366043Y-111879746D01*
X58350000Y-111918477D01*
X58333957Y-111879746D01*
X58179103Y-111647990D01*
X57982010Y-111450897D01*
X57750254Y-111296043D01*
X57492740Y-111189377D01*
X57219365Y-111135000D01*
X56940635Y-111135000D01*
X56667260Y-111189377D01*
X56409746Y-111296043D01*
X56177990Y-111450897D01*
X55980897Y-111647990D01*
X55826043Y-111879746D01*
X55810000Y-111918477D01*
X55793957Y-111879746D01*
X55639103Y-111647990D01*
X55442010Y-111450897D01*
X55210254Y-111296043D01*
X54952740Y-111189377D01*
X54679365Y-111135000D01*
X54400635Y-111135000D01*
X54127260Y-111189377D01*
X53869746Y-111296043D01*
X53637990Y-111450897D01*
X53440897Y-111647990D01*
X53286043Y-111879746D01*
X53270000Y-111918477D01*
X53253957Y-111879746D01*
X53099103Y-111647990D01*
X52902010Y-111450897D01*
X52670254Y-111296043D01*
X52412740Y-111189377D01*
X52139365Y-111135000D01*
X51860635Y-111135000D01*
X51587260Y-111189377D01*
X51329746Y-111296043D01*
X51097990Y-111450897D01*
X50900897Y-111647990D01*
X50746043Y-111879746D01*
X50730000Y-111918477D01*
X50713957Y-111879746D01*
X50559103Y-111647990D01*
X50362010Y-111450897D01*
X50130254Y-111296043D01*
X49872740Y-111189377D01*
X49599365Y-111135000D01*
X49320635Y-111135000D01*
X49047260Y-111189377D01*
X48789746Y-111296043D01*
X48557990Y-111450897D01*
X48360897Y-111647990D01*
X48206043Y-111879746D01*
X48190000Y-111918477D01*
X48173957Y-111879746D01*
X48019103Y-111647990D01*
X47822010Y-111450897D01*
X47590254Y-111296043D01*
X47332740Y-111189377D01*
X47059365Y-111135000D01*
X46780635Y-111135000D01*
X46507260Y-111189377D01*
X46249746Y-111296043D01*
X46017990Y-111450897D01*
X45820897Y-111647990D01*
X45666043Y-111879746D01*
X45650000Y-111918477D01*
X45633957Y-111879746D01*
X45479103Y-111647990D01*
X45282010Y-111450897D01*
X45116600Y-111340374D01*
X45116600Y-109905109D01*
X60886709Y-94135000D01*
X71148000Y-94135000D01*
X71148000Y-110010000D01*
X71150440Y-110034776D01*
X71157667Y-110058601D01*
X71169403Y-110080557D01*
X71185197Y-110099803D01*
X71204443Y-110115597D01*
X71226399Y-110127333D01*
X71250224Y-110134560D01*
X71275000Y-110137000D01*
X87150000Y-110137000D01*
X87174776Y-110134560D01*
X87198601Y-110127333D01*
X87220557Y-110115597D01*
X87239803Y-110099803D01*
X87255597Y-110080557D01*
X87267333Y-110058601D01*
X87274560Y-110034776D01*
X87277000Y-110010000D01*
X87277000Y-109773453D01*
X87420285Y-109916738D01*
X87851859Y-110205107D01*
X88331399Y-110403739D01*
X88840475Y-110505000D01*
X89359525Y-110505000D01*
X89868601Y-110403739D01*
X90348141Y-110205107D01*
X90779715Y-109916738D01*
X91146738Y-109549715D01*
X91435107Y-109118141D01*
X91633739Y-108638601D01*
X91735000Y-108129525D01*
X91735000Y-107610475D01*
X91633739Y-107101399D01*
X91435107Y-106621859D01*
X91146738Y-106190285D01*
X90779715Y-105823262D01*
X90348141Y-105534893D01*
X89868601Y-105336261D01*
X89359525Y-105235000D01*
X88840475Y-105235000D01*
X88331399Y-105336261D01*
X87851859Y-105534893D01*
X87420285Y-105823262D01*
X87277000Y-105966547D01*
X87277000Y-94135000D01*
X87274560Y-94110224D01*
X87267333Y-94086399D01*
X87255597Y-94064443D01*
X87239803Y-94045197D01*
X87220557Y-94029403D01*
X87198601Y-94017667D01*
X87174776Y-94010440D01*
X87150000Y-94008000D01*
X71275000Y-94008000D01*
X71250224Y-94010440D01*
X71226399Y-94017667D01*
X71204443Y-94029403D01*
X71185197Y-94045197D01*
X71169403Y-94064443D01*
X71157667Y-94086399D01*
X71150440Y-94110224D01*
X71148000Y-94135000D01*
X60886709Y-94135000D01*
X62655274Y-92366436D01*
X62683374Y-92343375D01*
X62706437Y-92315273D01*
X62706442Y-92315268D01*
X62775423Y-92231214D01*
X62775424Y-92231213D01*
X62843822Y-92103249D01*
X62885942Y-91964399D01*
X62896600Y-91856186D01*
X62896600Y-91856177D01*
X62900163Y-91820001D01*
X62896600Y-91783825D01*
X62896600Y-90899626D01*
X63062010Y-90789103D01*
X63259103Y-90592010D01*
X63413957Y-90360254D01*
X63430000Y-90321523D01*
X63446043Y-90360254D01*
X63600897Y-90592010D01*
X63797990Y-90789103D01*
X64029746Y-90943957D01*
X64287260Y-91050623D01*
X64560635Y-91105000D01*
X64839365Y-91105000D01*
X65112740Y-91050623D01*
X65370254Y-90943957D01*
X65602010Y-90789103D01*
X65799103Y-90592010D01*
X65953957Y-90360254D01*
X65970000Y-90321523D01*
X65986043Y-90360254D01*
X66140897Y-90592010D01*
X66337990Y-90789103D01*
X66569746Y-90943957D01*
X66827260Y-91050623D01*
X67100635Y-91105000D01*
X67379365Y-91105000D01*
X67652740Y-91050623D01*
X67910254Y-90943957D01*
X68142010Y-90789103D01*
X68339103Y-90592010D01*
X68493957Y-90360254D01*
X68510000Y-90321523D01*
X68526043Y-90360254D01*
X68680897Y-90592010D01*
X68877990Y-90789103D01*
X69109746Y-90943957D01*
X69367260Y-91050623D01*
X69640635Y-91105000D01*
X69919365Y-91105000D01*
X70192740Y-91050623D01*
X70450254Y-90943957D01*
X70682010Y-90789103D01*
X70879103Y-90592010D01*
X71033957Y-90360254D01*
X71050000Y-90321523D01*
X71066043Y-90360254D01*
X71220897Y-90592010D01*
X71417990Y-90789103D01*
X71649746Y-90943957D01*
X71907260Y-91050623D01*
X72180635Y-91105000D01*
X72459365Y-91105000D01*
X72732740Y-91050623D01*
X72990254Y-90943957D01*
X73222010Y-90789103D01*
X73419103Y-90592010D01*
X73573957Y-90360254D01*
X73590000Y-90321523D01*
X73606043Y-90360254D01*
X73760897Y-90592010D01*
X73957990Y-90789103D01*
X74189746Y-90943957D01*
X74447260Y-91050623D01*
X74720635Y-91105000D01*
X74999365Y-91105000D01*
X75272740Y-91050623D01*
X75530254Y-90943957D01*
X75762010Y-90789103D01*
X75959103Y-90592010D01*
X76113957Y-90360254D01*
X76130000Y-90321523D01*
X76146043Y-90360254D01*
X76300897Y-90592010D01*
X76497990Y-90789103D01*
X76729746Y-90943957D01*
X76987260Y-91050623D01*
X77260635Y-91105000D01*
X77539365Y-91105000D01*
X77812740Y-91050623D01*
X78070254Y-90943957D01*
X78302010Y-90789103D01*
X78499103Y-90592010D01*
X78653957Y-90360254D01*
X78760623Y-90102740D01*
X78815000Y-89829365D01*
X78815000Y-89550635D01*
X78760623Y-89277260D01*
X78653957Y-89019746D01*
X78499103Y-88787990D01*
X78302010Y-88590897D01*
X78136600Y-88480374D01*
X78136600Y-88315115D01*
X78323816Y-88127900D01*
X78356321Y-88127900D01*
X78545249Y-88090320D01*
X78723216Y-88016604D01*
X78883381Y-87909585D01*
X79019591Y-87773375D01*
X79126610Y-87613210D01*
X79200326Y-87435243D01*
X79237906Y-87246315D01*
X79237906Y-87053685D01*
X79200326Y-86864757D01*
X79126610Y-86686790D01*
X79019591Y-86526625D01*
X78883381Y-86390415D01*
X78723216Y-86283396D01*
X78545249Y-86209680D01*
X78356321Y-86172100D01*
X78163691Y-86172100D01*
X77974763Y-86209680D01*
X77796796Y-86283396D01*
X77636631Y-86390415D01*
X77500421Y-86526625D01*
X77393402Y-86686790D01*
X77319686Y-86864757D01*
X77282106Y-87053685D01*
X77282106Y-87086190D01*
X76904732Y-87463565D01*
X76876626Y-87486631D01*
X76853560Y-87514737D01*
X76853558Y-87514739D01*
X76784576Y-87598794D01*
X76716178Y-87726759D01*
X76674059Y-87865608D01*
X76659836Y-88010006D01*
X76663401Y-88046199D01*
X76663401Y-88480373D01*
X76497990Y-88590897D01*
X76300897Y-88787990D01*
X76146043Y-89019746D01*
X76130000Y-89058477D01*
X76113957Y-89019746D01*
X75959103Y-88787990D01*
X75762010Y-88590897D01*
X75530254Y-88436043D01*
X75272740Y-88329377D01*
X74999365Y-88275000D01*
X74720635Y-88275000D01*
X74447260Y-88329377D01*
X74189746Y-88436043D01*
X73957990Y-88590897D01*
X73760897Y-88787990D01*
X73606043Y-89019746D01*
X73590000Y-89058477D01*
X73573957Y-89019746D01*
X73419103Y-88787990D01*
X73222010Y-88590897D01*
X72990254Y-88436043D01*
X72732740Y-88329377D01*
X72459365Y-88275000D01*
X72180635Y-88275000D01*
X71907260Y-88329377D01*
X71649746Y-88436043D01*
X71417990Y-88590897D01*
X71220897Y-88787990D01*
X71066043Y-89019746D01*
X71050000Y-89058477D01*
X71033957Y-89019746D01*
X70879103Y-88787990D01*
X70682010Y-88590897D01*
X70450254Y-88436043D01*
X70192740Y-88329377D01*
X69919365Y-88275000D01*
X69640635Y-88275000D01*
X69367260Y-88329377D01*
X69109746Y-88436043D01*
X68877990Y-88590897D01*
X68680897Y-88787990D01*
X68526043Y-89019746D01*
X68510000Y-89058477D01*
X68493957Y-89019746D01*
X68339103Y-88787990D01*
X68142010Y-88590897D01*
X67910254Y-88436043D01*
X67652740Y-88329377D01*
X67379365Y-88275000D01*
X67100635Y-88275000D01*
X66827260Y-88329377D01*
X66569746Y-88436043D01*
X66337990Y-88590897D01*
X66140897Y-88787990D01*
X65986043Y-89019746D01*
X65970000Y-89058477D01*
X65953957Y-89019746D01*
X65799103Y-88787990D01*
X65602010Y-88590897D01*
X65429183Y-88475418D01*
X65425942Y-88442515D01*
X65383822Y-88303665D01*
X65315424Y-88175701D01*
X65223375Y-88063539D01*
X65195269Y-88040473D01*
X58729532Y-81574737D01*
X58706461Y-81546625D01*
X58594299Y-81454576D01*
X58466335Y-81386178D01*
X58327485Y-81344058D01*
X58219272Y-81333400D01*
X58219269Y-81333400D01*
X58183086Y-81329836D01*
X58146903Y-81333400D01*
X46815110Y-81333400D01*
X42166600Y-76684891D01*
X42166600Y-64762408D01*
X76863000Y-64762408D01*
X76863000Y-65037592D01*
X76916686Y-65307490D01*
X77021995Y-65561727D01*
X77174880Y-65790535D01*
X77369465Y-65985120D01*
X77598273Y-66138005D01*
X77852510Y-66243314D01*
X78122408Y-66297000D01*
X78397592Y-66297000D01*
X78667490Y-66243314D01*
X78921727Y-66138005D01*
X79150535Y-65985120D01*
X79270090Y-65865565D01*
X80014040Y-65865565D01*
X80081020Y-66105656D01*
X80330048Y-66222756D01*
X80597135Y-66289023D01*
X80872017Y-66301910D01*
X81144133Y-66260922D01*
X81403023Y-66167636D01*
X81518980Y-66105656D01*
X81585960Y-65865565D01*
X80800000Y-65079605D01*
X80014040Y-65865565D01*
X79270090Y-65865565D01*
X79345120Y-65790535D01*
X79498005Y-65561727D01*
X79527692Y-65490057D01*
X79532364Y-65503023D01*
X79594344Y-65618980D01*
X79834435Y-65685960D01*
X80620395Y-64900000D01*
X80979605Y-64900000D01*
X81765565Y-65685960D01*
X82005656Y-65618980D01*
X82122756Y-65369952D01*
X82189023Y-65102865D01*
X82201910Y-64827983D01*
X82192033Y-64762408D01*
X87023000Y-64762408D01*
X87023000Y-65037592D01*
X87076686Y-65307490D01*
X87181995Y-65561727D01*
X87334880Y-65790535D01*
X87529465Y-65985120D01*
X87758273Y-66138005D01*
X88012510Y-66243314D01*
X88282408Y-66297000D01*
X88557592Y-66297000D01*
X88827490Y-66243314D01*
X89081727Y-66138005D01*
X89310535Y-65985120D01*
X89505120Y-65790535D01*
X89658005Y-65561727D01*
X89690000Y-65484485D01*
X89721995Y-65561727D01*
X89874880Y-65790535D01*
X90069465Y-65985120D01*
X90298273Y-66138005D01*
X90552510Y-66243314D01*
X90822408Y-66297000D01*
X91097592Y-66297000D01*
X91367490Y-66243314D01*
X91621727Y-66138005D01*
X91850535Y-65985120D01*
X92045120Y-65790535D01*
X92198005Y-65561727D01*
X92220000Y-65508627D01*
X92241995Y-65561727D01*
X92394880Y-65790535D01*
X92589465Y-65985120D01*
X92743400Y-66087976D01*
X92743401Y-113529415D01*
X92521495Y-113677688D01*
X92307688Y-113891495D01*
X92250000Y-113977831D01*
X92192312Y-113891495D01*
X91978505Y-113677688D01*
X91727095Y-113509701D01*
X91447743Y-113393989D01*
X91151184Y-113335000D01*
X90848816Y-113335000D01*
X90552257Y-113393989D01*
X90272905Y-113509701D01*
X90021495Y-113677688D01*
X89807688Y-113891495D01*
X89639701Y-114142905D01*
X89523989Y-114422257D01*
X89465000Y-114718816D01*
X89465000Y-115021184D01*
X89523989Y-115317743D01*
X89639701Y-115597095D01*
X89807688Y-115848505D01*
X90021495Y-116062312D01*
X90272905Y-116230299D01*
X90552257Y-116346011D01*
X90848816Y-116405000D01*
X91151184Y-116405000D01*
X91447743Y-116346011D01*
X91727095Y-116230299D01*
X91978505Y-116062312D01*
X92192312Y-115848505D01*
X92250000Y-115762169D01*
X92307688Y-115848505D01*
X92521495Y-116062312D01*
X92772905Y-116230299D01*
X93052257Y-116346011D01*
X93348816Y-116405000D01*
X93651184Y-116405000D01*
X93947743Y-116346011D01*
X94227095Y-116230299D01*
X94478505Y-116062312D01*
X94692312Y-115848505D01*
X94750000Y-115762169D01*
X94807688Y-115848505D01*
X95021495Y-116062312D01*
X95272905Y-116230299D01*
X95552257Y-116346011D01*
X95848816Y-116405000D01*
X96151184Y-116405000D01*
X96447743Y-116346011D01*
X96727095Y-116230299D01*
X96978505Y-116062312D01*
X97192312Y-115848505D01*
X97360299Y-115597095D01*
X97476011Y-115317743D01*
X97535000Y-115021184D01*
X97535000Y-114943967D01*
X112875000Y-114943967D01*
X112875000Y-115266033D01*
X112937832Y-115581912D01*
X113061082Y-115879463D01*
X113240013Y-116147252D01*
X113467748Y-116374987D01*
X113735537Y-116553918D01*
X114033088Y-116677168D01*
X114348967Y-116740000D01*
X114671033Y-116740000D01*
X114986912Y-116677168D01*
X115284463Y-116553918D01*
X115552252Y-116374987D01*
X115779987Y-116147252D01*
X115958918Y-115879463D01*
X116082168Y-115581912D01*
X116145000Y-115266033D01*
X116145000Y-114943967D01*
X117875000Y-114943967D01*
X117875000Y-115266033D01*
X117937832Y-115581912D01*
X118061082Y-115879463D01*
X118240013Y-116147252D01*
X118467748Y-116374987D01*
X118735537Y-116553918D01*
X119033088Y-116677168D01*
X119348967Y-116740000D01*
X119671033Y-116740000D01*
X119986912Y-116677168D01*
X120284463Y-116553918D01*
X120552252Y-116374987D01*
X120779987Y-116147252D01*
X120958918Y-115879463D01*
X121082168Y-115581912D01*
X121145000Y-115266033D01*
X121145000Y-114943967D01*
X121082168Y-114628088D01*
X120958918Y-114330537D01*
X120779987Y-114062748D01*
X120552252Y-113835013D01*
X120284463Y-113656082D01*
X119986912Y-113532832D01*
X119671033Y-113470000D01*
X119348967Y-113470000D01*
X119033088Y-113532832D01*
X118735537Y-113656082D01*
X118467748Y-113835013D01*
X118240013Y-114062748D01*
X118061082Y-114330537D01*
X117937832Y-114628088D01*
X117875000Y-114943967D01*
X116145000Y-114943967D01*
X116082168Y-114628088D01*
X115958918Y-114330537D01*
X115779987Y-114062748D01*
X115552252Y-113835013D01*
X115284463Y-113656082D01*
X114986912Y-113532832D01*
X114671033Y-113470000D01*
X114348967Y-113470000D01*
X114033088Y-113532832D01*
X113735537Y-113656082D01*
X113467748Y-113835013D01*
X113240013Y-114062748D01*
X113061082Y-114330537D01*
X112937832Y-114628088D01*
X112875000Y-114943967D01*
X97535000Y-114943967D01*
X97535000Y-114718816D01*
X97476011Y-114422257D01*
X97360299Y-114142905D01*
X97192312Y-113891495D01*
X96978505Y-113677688D01*
X96727095Y-113509701D01*
X96447743Y-113393989D01*
X96151184Y-113335000D01*
X95848816Y-113335000D01*
X95552257Y-113393989D01*
X95272905Y-113509701D01*
X95021495Y-113677688D01*
X94807688Y-113891495D01*
X94750000Y-113977831D01*
X94692312Y-113891495D01*
X94478505Y-113677688D01*
X94227095Y-113509701D01*
X94216600Y-113505354D01*
X94216600Y-107610475D01*
X95265000Y-107610475D01*
X95265000Y-108129525D01*
X95366261Y-108638601D01*
X95564893Y-109118141D01*
X95853262Y-109549715D01*
X96220285Y-109916738D01*
X96651859Y-110205107D01*
X97131399Y-110403739D01*
X97640475Y-110505000D01*
X98159525Y-110505000D01*
X98668601Y-110403739D01*
X99148141Y-110205107D01*
X99579715Y-109916738D01*
X99946738Y-109549715D01*
X100235107Y-109118141D01*
X100433739Y-108638601D01*
X100535000Y-108129525D01*
X100535000Y-107610475D01*
X100433739Y-107101399D01*
X100235107Y-106621859D01*
X100023389Y-106305000D01*
X109271928Y-106305000D01*
X109271928Y-109905000D01*
X109284188Y-110029482D01*
X109320498Y-110149180D01*
X109379463Y-110259494D01*
X109458815Y-110356185D01*
X109555506Y-110435537D01*
X109665820Y-110494502D01*
X109785518Y-110530812D01*
X109910000Y-110543072D01*
X112710000Y-110543072D01*
X112834482Y-110530812D01*
X112954180Y-110494502D01*
X113064494Y-110435537D01*
X113161185Y-110356185D01*
X113240537Y-110259494D01*
X113299502Y-110149180D01*
X113335812Y-110029482D01*
X113348072Y-109905000D01*
X113348072Y-106305000D01*
X120671928Y-106305000D01*
X120671928Y-109905000D01*
X120684188Y-110029482D01*
X120720498Y-110149180D01*
X120779463Y-110259494D01*
X120858815Y-110356185D01*
X120955506Y-110435537D01*
X121065820Y-110494502D01*
X121185518Y-110530812D01*
X121310000Y-110543072D01*
X124110000Y-110543072D01*
X124234482Y-110530812D01*
X124354180Y-110494502D01*
X124464494Y-110435537D01*
X124561185Y-110356185D01*
X124640537Y-110259494D01*
X124699502Y-110149180D01*
X124735812Y-110029482D01*
X124748072Y-109905000D01*
X124748072Y-106305000D01*
X124735812Y-106180518D01*
X124699502Y-106060820D01*
X124640537Y-105950506D01*
X124561185Y-105853815D01*
X124464494Y-105774463D01*
X124354180Y-105715498D01*
X124234482Y-105679188D01*
X124110000Y-105666928D01*
X121310000Y-105666928D01*
X121185518Y-105679188D01*
X121065820Y-105715498D01*
X120955506Y-105774463D01*
X120858815Y-105853815D01*
X120779463Y-105950506D01*
X120720498Y-106060820D01*
X120684188Y-106180518D01*
X120671928Y-106305000D01*
X113348072Y-106305000D01*
X113335812Y-106180518D01*
X113299502Y-106060820D01*
X113240537Y-105950506D01*
X113161185Y-105853815D01*
X113064494Y-105774463D01*
X112954180Y-105715498D01*
X112834482Y-105679188D01*
X112710000Y-105666928D01*
X109910000Y-105666928D01*
X109785518Y-105679188D01*
X109665820Y-105715498D01*
X109555506Y-105774463D01*
X109458815Y-105853815D01*
X109379463Y-105950506D01*
X109320498Y-106060820D01*
X109284188Y-106180518D01*
X109271928Y-106305000D01*
X100023389Y-106305000D01*
X99946738Y-106190285D01*
X99579715Y-105823262D01*
X99148141Y-105534893D01*
X98668601Y-105336261D01*
X98159525Y-105235000D01*
X97640475Y-105235000D01*
X97131399Y-105336261D01*
X96651859Y-105534893D01*
X96220285Y-105823262D01*
X95853262Y-106190285D01*
X95564893Y-106621859D01*
X95366261Y-107101399D01*
X95265000Y-107610475D01*
X94216600Y-107610475D01*
X94216600Y-100443967D01*
X112875000Y-100443967D01*
X112875000Y-100766033D01*
X112937832Y-101081912D01*
X113061082Y-101379463D01*
X113240013Y-101647252D01*
X113467748Y-101874987D01*
X113735537Y-102053918D01*
X114033088Y-102177168D01*
X114348967Y-102240000D01*
X114671033Y-102240000D01*
X114986912Y-102177168D01*
X115284463Y-102053918D01*
X115552252Y-101874987D01*
X115760000Y-101667239D01*
X115967748Y-101874987D01*
X116235537Y-102053918D01*
X116533088Y-102177168D01*
X116848967Y-102240000D01*
X117171033Y-102240000D01*
X117486912Y-102177168D01*
X117784463Y-102053918D01*
X118052252Y-101874987D01*
X118260000Y-101667239D01*
X118467748Y-101874987D01*
X118735537Y-102053918D01*
X119033088Y-102177168D01*
X119348967Y-102240000D01*
X119671033Y-102240000D01*
X119986912Y-102177168D01*
X120284463Y-102053918D01*
X120552252Y-101874987D01*
X120779987Y-101647252D01*
X120958918Y-101379463D01*
X121082168Y-101081912D01*
X121145000Y-100766033D01*
X121145000Y-100443967D01*
X121082168Y-100128088D01*
X120958918Y-99830537D01*
X120779987Y-99562748D01*
X120552252Y-99335013D01*
X120284463Y-99156082D01*
X119986912Y-99032832D01*
X119671033Y-98970000D01*
X119348967Y-98970000D01*
X119033088Y-99032832D01*
X118735537Y-99156082D01*
X118467748Y-99335013D01*
X118260000Y-99542761D01*
X118052252Y-99335013D01*
X117784463Y-99156082D01*
X117486912Y-99032832D01*
X117171033Y-98970000D01*
X116848967Y-98970000D01*
X116533088Y-99032832D01*
X116235537Y-99156082D01*
X115967748Y-99335013D01*
X115760000Y-99542761D01*
X115552252Y-99335013D01*
X115284463Y-99156082D01*
X114986912Y-99032832D01*
X114671033Y-98970000D01*
X114348967Y-98970000D01*
X114033088Y-99032832D01*
X113735537Y-99156082D01*
X113467748Y-99335013D01*
X113240013Y-99562748D01*
X113061082Y-99830537D01*
X112937832Y-100128088D01*
X112875000Y-100443967D01*
X94216600Y-100443967D01*
X94216600Y-66087976D01*
X94370535Y-65985120D01*
X94565120Y-65790535D01*
X94718005Y-65561727D01*
X94823314Y-65307490D01*
X94877000Y-65037592D01*
X94877000Y-64762408D01*
X94823314Y-64492510D01*
X94718005Y-64238273D01*
X94565120Y-64009465D01*
X94370535Y-63814880D01*
X94141727Y-63661995D01*
X93887490Y-63556686D01*
X93617592Y-63503000D01*
X93342408Y-63503000D01*
X93072510Y-63556686D01*
X92818273Y-63661995D01*
X92589465Y-63814880D01*
X92394880Y-64009465D01*
X92241995Y-64238273D01*
X92220000Y-64291373D01*
X92198005Y-64238273D01*
X92045120Y-64009465D01*
X91850535Y-63814880D01*
X91621727Y-63661995D01*
X91367490Y-63556686D01*
X91097592Y-63503000D01*
X90822408Y-63503000D01*
X90552510Y-63556686D01*
X90298273Y-63661995D01*
X90069465Y-63814880D01*
X89874880Y-64009465D01*
X89721995Y-64238273D01*
X89690000Y-64315515D01*
X89658005Y-64238273D01*
X89505120Y-64009465D01*
X89310535Y-63814880D01*
X89081727Y-63661995D01*
X88827490Y-63556686D01*
X88557592Y-63503000D01*
X88282408Y-63503000D01*
X88012510Y-63556686D01*
X87758273Y-63661995D01*
X87529465Y-63814880D01*
X87334880Y-64009465D01*
X87181995Y-64238273D01*
X87076686Y-64492510D01*
X87023000Y-64762408D01*
X82192033Y-64762408D01*
X82160922Y-64555867D01*
X82067636Y-64296977D01*
X82005656Y-64181020D01*
X81765565Y-64114040D01*
X80979605Y-64900000D01*
X80620395Y-64900000D01*
X79834435Y-64114040D01*
X79594344Y-64181020D01*
X79530515Y-64316760D01*
X79498005Y-64238273D01*
X79345120Y-64009465D01*
X79270090Y-63934435D01*
X80014040Y-63934435D01*
X80800000Y-64720395D01*
X81585960Y-63934435D01*
X81518980Y-63694344D01*
X81269952Y-63577244D01*
X81002865Y-63510977D01*
X80727983Y-63498090D01*
X80455867Y-63539078D01*
X80196977Y-63632364D01*
X80081020Y-63694344D01*
X80014040Y-63934435D01*
X79270090Y-63934435D01*
X79150535Y-63814880D01*
X78921727Y-63661995D01*
X78667490Y-63556686D01*
X78397592Y-63503000D01*
X78122408Y-63503000D01*
X77852510Y-63556686D01*
X77598273Y-63661995D01*
X77369465Y-63814880D01*
X77174880Y-64009465D01*
X77021995Y-64238273D01*
X76916686Y-64492510D01*
X76863000Y-64762408D01*
X42166600Y-64762408D01*
X42166600Y-55556186D01*
X42170164Y-55520000D01*
X42155942Y-55375601D01*
X42113822Y-55236752D01*
X42113822Y-55236751D01*
X42045424Y-55108787D01*
X42016312Y-55073314D01*
X41976442Y-55024732D01*
X41976441Y-55024731D01*
X41953375Y-54996625D01*
X41925269Y-54973559D01*
X40693816Y-53742107D01*
X40795000Y-53752072D01*
X42319000Y-53752072D01*
X42443482Y-53739812D01*
X42563180Y-53703502D01*
X42673494Y-53644537D01*
X42770185Y-53565185D01*
X42849537Y-53468494D01*
X42908502Y-53358180D01*
X42944812Y-53238482D01*
X42957072Y-53114000D01*
X42957072Y-51590000D01*
X42944812Y-51465518D01*
X42908502Y-51345820D01*
X42849537Y-51235506D01*
X42770185Y-51138815D01*
X42673494Y-51059463D01*
X42563180Y-51000498D01*
X42443482Y-50964188D01*
X42319000Y-50951928D01*
X40795000Y-50951928D01*
X40670518Y-50964188D01*
X40550820Y-51000498D01*
X40440506Y-51059463D01*
X40343815Y-51138815D01*
X40264463Y-51235506D01*
X40205498Y-51345820D01*
X40169188Y-51465518D01*
X40156928Y-51590000D01*
X40156928Y-53114000D01*
X40166893Y-53215184D01*
X38440881Y-51489172D01*
X38477000Y-51307592D01*
X38477000Y-51032408D01*
X38438688Y-50839799D01*
X44351966Y-50839799D01*
X46461908Y-52949742D01*
X46489743Y-52983659D01*
X46625111Y-53094753D01*
X46779551Y-53177303D01*
X46874160Y-53206002D01*
X46947127Y-53228136D01*
X46965475Y-53229943D01*
X47077735Y-53241000D01*
X47077741Y-53241000D01*
X47121401Y-53245300D01*
X47165061Y-53241000D01*
X49313952Y-53241000D01*
X49349498Y-53358180D01*
X49408463Y-53468494D01*
X49487815Y-53565185D01*
X49584506Y-53644537D01*
X49694820Y-53703502D01*
X49814518Y-53739812D01*
X49939000Y-53752072D01*
X51463000Y-53752072D01*
X51587482Y-53739812D01*
X51707180Y-53703502D01*
X51817494Y-53644537D01*
X51914185Y-53565185D01*
X51993537Y-53468494D01*
X52052502Y-53358180D01*
X52088812Y-53238482D01*
X52101072Y-53114000D01*
X52101072Y-51590000D01*
X52088812Y-51465518D01*
X52052502Y-51345820D01*
X51993537Y-51235506D01*
X51914185Y-51138815D01*
X51817494Y-51059463D01*
X51707180Y-51000498D01*
X51587482Y-50964188D01*
X51463000Y-50951928D01*
X49939000Y-50951928D01*
X49814518Y-50964188D01*
X49694820Y-51000498D01*
X49584506Y-51059463D01*
X49487815Y-51138815D01*
X49408463Y-51235506D01*
X49349498Y-51345820D01*
X49313952Y-51463000D01*
X47489638Y-51463000D01*
X45379700Y-49353063D01*
X45351860Y-49319140D01*
X45216492Y-49208046D01*
X45062052Y-49125496D01*
X44894475Y-49074663D01*
X44763868Y-49061799D01*
X44763861Y-49061799D01*
X44720201Y-49057499D01*
X44676541Y-49061799D01*
X38413245Y-49061799D01*
X38423314Y-49037490D01*
X38477000Y-48767592D01*
X38477000Y-48492408D01*
X38423314Y-48222510D01*
X38318005Y-47968273D01*
X38165120Y-47739465D01*
X37970535Y-47544880D01*
X37741727Y-47391995D01*
X37664485Y-47360000D01*
X37741727Y-47328005D01*
X37970535Y-47175120D01*
X38165120Y-46980535D01*
X38318005Y-46751727D01*
X38423314Y-46497490D01*
X38477000Y-46227592D01*
X38477000Y-45952408D01*
X38439207Y-45762408D01*
X76863000Y-45762408D01*
X76863000Y-46037592D01*
X76916686Y-46307490D01*
X77021995Y-46561727D01*
X77174880Y-46790535D01*
X77369465Y-46985120D01*
X77598273Y-47138005D01*
X77852510Y-47243314D01*
X78122408Y-47297000D01*
X78397592Y-47297000D01*
X78667490Y-47243314D01*
X78921727Y-47138005D01*
X79150535Y-46985120D01*
X79345120Y-46790535D01*
X79498005Y-46561727D01*
X79530000Y-46484485D01*
X79561995Y-46561727D01*
X79714880Y-46790535D01*
X79909465Y-46985120D01*
X80138273Y-47138005D01*
X80392510Y-47243314D01*
X80662408Y-47297000D01*
X80937592Y-47297000D01*
X81207490Y-47243314D01*
X81461727Y-47138005D01*
X81690535Y-46985120D01*
X81885120Y-46790535D01*
X82038005Y-46561727D01*
X82143314Y-46307490D01*
X82197000Y-46037592D01*
X82197000Y-45762408D01*
X82143314Y-45492510D01*
X82038005Y-45238273D01*
X81885120Y-45009465D01*
X81690535Y-44814880D01*
X81461727Y-44661995D01*
X81207490Y-44556686D01*
X80937592Y-44503000D01*
X80662408Y-44503000D01*
X80392510Y-44556686D01*
X80138273Y-44661995D01*
X79909465Y-44814880D01*
X79714880Y-45009465D01*
X79561995Y-45238273D01*
X79530000Y-45315515D01*
X79498005Y-45238273D01*
X79345120Y-45009465D01*
X79150535Y-44814880D01*
X78921727Y-44661995D01*
X78667490Y-44556686D01*
X78397592Y-44503000D01*
X78122408Y-44503000D01*
X77852510Y-44556686D01*
X77598273Y-44661995D01*
X77369465Y-44814880D01*
X77174880Y-45009465D01*
X77021995Y-45238273D01*
X76916686Y-45492510D01*
X76863000Y-45762408D01*
X38439207Y-45762408D01*
X38423314Y-45682510D01*
X38318005Y-45428273D01*
X38165120Y-45199465D01*
X37970535Y-45004880D01*
X37741727Y-44851995D01*
X37664485Y-44820000D01*
X37741727Y-44788005D01*
X37970535Y-44635120D01*
X38165120Y-44440535D01*
X38318005Y-44211727D01*
X38423314Y-43957490D01*
X38477000Y-43687592D01*
X38477000Y-43412408D01*
X38423314Y-43142510D01*
X38318005Y-42888273D01*
X38165120Y-42659465D01*
X37970535Y-42464880D01*
X37741727Y-42311995D01*
X37670057Y-42282308D01*
X37683023Y-42277636D01*
X37798980Y-42215656D01*
X37865960Y-41975565D01*
X37080000Y-41189605D01*
X36294040Y-41975565D01*
X36361020Y-42215656D01*
X36496760Y-42279485D01*
X36418273Y-42311995D01*
X36189465Y-42464880D01*
X35994880Y-42659465D01*
X35841995Y-42888273D01*
X35736686Y-43142510D01*
X35683000Y-43412408D01*
X35683000Y-43687592D01*
X35736686Y-43957490D01*
X35841995Y-44211727D01*
X35994880Y-44440535D01*
X36189465Y-44635120D01*
X36418273Y-44788005D01*
X36495515Y-44820000D01*
X36418273Y-44851995D01*
X36189465Y-45004880D01*
X35994880Y-45199465D01*
X35841995Y-45428273D01*
X35736686Y-45682510D01*
X35683000Y-45952408D01*
X35683000Y-46227592D01*
X35736686Y-46497490D01*
X35841995Y-46751727D01*
X35994880Y-46980535D01*
X36189465Y-47175120D01*
X36418273Y-47328005D01*
X36495515Y-47360000D01*
X36418273Y-47391995D01*
X36189465Y-47544880D01*
X35994880Y-47739465D01*
X35872494Y-47922628D01*
X35857971Y-47924058D01*
X35719121Y-47966178D01*
X35591157Y-48034576D01*
X35478995Y-48126625D01*
X35455929Y-48154731D01*
X34027261Y-49583400D01*
X33773409Y-49583400D01*
X33738932Y-49518899D01*
X33559608Y-49300392D01*
X33341101Y-49121068D01*
X33091808Y-48987818D01*
X32821309Y-48905764D01*
X32610492Y-48885000D01*
X32469508Y-48885000D01*
X32258691Y-48905764D01*
X31988192Y-48987818D01*
X31738899Y-49121068D01*
X31520392Y-49300392D01*
X31341068Y-49518899D01*
X31207818Y-49768192D01*
X31125764Y-50038691D01*
X31098057Y-50320000D01*
X31125764Y-50601309D01*
X31207818Y-50871808D01*
X31341068Y-51121101D01*
X31520392Y-51339608D01*
X31738899Y-51518932D01*
X31988192Y-51652182D01*
X32258691Y-51734236D01*
X32469508Y-51755000D01*
X32610492Y-51755000D01*
X32821309Y-51734236D01*
X33013972Y-51675793D01*
X31942259Y-52747506D01*
X31908342Y-52775341D01*
X31880507Y-52809258D01*
X31880505Y-52809260D01*
X31797248Y-52910709D01*
X31714698Y-53065148D01*
X31663864Y-53232726D01*
X31659212Y-53279960D01*
X31565518Y-53289188D01*
X31445820Y-53325498D01*
X31335506Y-53384463D01*
X31238815Y-53463815D01*
X31159463Y-53560506D01*
X31100498Y-53670820D01*
X31064188Y-53790518D01*
X31051928Y-53915000D01*
X31051928Y-55615000D01*
X31064188Y-55739482D01*
X31100498Y-55859180D01*
X31159463Y-55969494D01*
X31238815Y-56066185D01*
X31335506Y-56145537D01*
X31445820Y-56204502D01*
X31526466Y-56228966D01*
X31442412Y-56304731D01*
X31268359Y-56538080D01*
X31143175Y-56800901D01*
X31098524Y-56948110D01*
X31219845Y-57178000D01*
X32413000Y-57178000D01*
X32413000Y-57158000D01*
X32667000Y-57158000D01*
X32667000Y-57178000D01*
X33860155Y-57178000D01*
X33981476Y-56948110D01*
X33936825Y-56800901D01*
X33811641Y-56538080D01*
X33637588Y-56304731D01*
X33553534Y-56228966D01*
X33634180Y-56204502D01*
X33744494Y-56145537D01*
X33841185Y-56066185D01*
X33920537Y-55969494D01*
X33979502Y-55859180D01*
X34015812Y-55739482D01*
X34028072Y-55615000D01*
X34028072Y-53915000D01*
X34015812Y-53790518D01*
X33979502Y-53670820D01*
X33920537Y-53560506D01*
X33841185Y-53463815D01*
X33785840Y-53418395D01*
X35718446Y-51485789D01*
X35736686Y-51577490D01*
X35841995Y-51831727D01*
X35994880Y-52060535D01*
X36189465Y-52255120D01*
X36418273Y-52408005D01*
X36495515Y-52440000D01*
X36418273Y-52471995D01*
X36189465Y-52624880D01*
X35994880Y-52819465D01*
X35841995Y-53048273D01*
X35736686Y-53302510D01*
X35683000Y-53572408D01*
X35683000Y-53847592D01*
X35736686Y-54117490D01*
X35841995Y-54371727D01*
X35994880Y-54600535D01*
X36189465Y-54795120D01*
X36418273Y-54948005D01*
X36495515Y-54980000D01*
X36418273Y-55011995D01*
X36189465Y-55164880D01*
X35994880Y-55359465D01*
X35841995Y-55588273D01*
X35736686Y-55842510D01*
X35683000Y-56112408D01*
X35683000Y-56387592D01*
X35736686Y-56657490D01*
X35841995Y-56911727D01*
X35994880Y-57140535D01*
X36189465Y-57335120D01*
X36418273Y-57488005D01*
X36489943Y-57517692D01*
X36476977Y-57522364D01*
X36361020Y-57584344D01*
X36294040Y-57824435D01*
X37080000Y-58610395D01*
X37094143Y-58596253D01*
X37273748Y-58775858D01*
X37259605Y-58790000D01*
X38045565Y-59575960D01*
X38153401Y-59545876D01*
X38153401Y-60427746D01*
X37970535Y-60244880D01*
X37741727Y-60091995D01*
X37670057Y-60062308D01*
X37683023Y-60057636D01*
X37798980Y-59995656D01*
X37865960Y-59755565D01*
X37080000Y-58969605D01*
X36294040Y-59755565D01*
X36361020Y-59995656D01*
X36496760Y-60059485D01*
X36418273Y-60091995D01*
X36189465Y-60244880D01*
X35994880Y-60439465D01*
X35841995Y-60668273D01*
X35736686Y-60922510D01*
X35683000Y-61192408D01*
X35683000Y-61467592D01*
X35736686Y-61737490D01*
X35833393Y-61970960D01*
X34002356Y-60139924D01*
X34003513Y-60136111D01*
X34032185Y-59845000D01*
X34003513Y-59553889D01*
X33918599Y-59273966D01*
X33780706Y-59015986D01*
X33654347Y-58862017D01*
X35678090Y-58862017D01*
X35719078Y-59134133D01*
X35812364Y-59393023D01*
X35874344Y-59508980D01*
X36114435Y-59575960D01*
X36900395Y-58790000D01*
X36114435Y-58004040D01*
X35874344Y-58071020D01*
X35757244Y-58320048D01*
X35690977Y-58587135D01*
X35678090Y-58862017D01*
X33654347Y-58862017D01*
X33595134Y-58789866D01*
X33369014Y-58604294D01*
X33304477Y-58569799D01*
X33421355Y-58500178D01*
X33637588Y-58305269D01*
X33811641Y-58071920D01*
X33936825Y-57809099D01*
X33981476Y-57661890D01*
X33860155Y-57432000D01*
X32667000Y-57432000D01*
X32667000Y-57452000D01*
X32413000Y-57452000D01*
X32413000Y-57432000D01*
X31219845Y-57432000D01*
X31098524Y-57661890D01*
X31143175Y-57809099D01*
X31268359Y-58071920D01*
X31442412Y-58305269D01*
X31658645Y-58500178D01*
X31775523Y-58569799D01*
X31710986Y-58604294D01*
X31484866Y-58789866D01*
X31299294Y-59015986D01*
X31161401Y-59273966D01*
X31076487Y-59553889D01*
X31047815Y-59845000D01*
X31076487Y-60136111D01*
X31161401Y-60416034D01*
X31299294Y-60674014D01*
X31484866Y-60900134D01*
X31710986Y-61085706D01*
X31968966Y-61223599D01*
X32248889Y-61308513D01*
X32467050Y-61330000D01*
X32612950Y-61330000D01*
X32831111Y-61308513D01*
X32834924Y-61307356D01*
X33697567Y-62170000D01*
X32439775Y-62170000D01*
X32184881Y-62195105D01*
X31857832Y-62294314D01*
X31556422Y-62455421D01*
X31292234Y-62672234D01*
X31075421Y-62936422D01*
X30914314Y-63237832D01*
X30815105Y-63564881D01*
X30781606Y-63905000D01*
X30815105Y-64245119D01*
X30914314Y-64572168D01*
X31075421Y-64873578D01*
X31292234Y-65137766D01*
X31483994Y-65295139D01*
X31389236Y-65472419D01*
X31310040Y-65733493D01*
X31283299Y-66005000D01*
X31310040Y-66276507D01*
X31389236Y-66537581D01*
X31517843Y-66778188D01*
X31690919Y-66989081D01*
X31710316Y-67005000D01*
X31690919Y-67020919D01*
X31517843Y-67231812D01*
X31389236Y-67472419D01*
X31310040Y-67733493D01*
X31283299Y-68005000D01*
X31310040Y-68276507D01*
X31389236Y-68537581D01*
X31513940Y-68770886D01*
X31473815Y-68803815D01*
X31394463Y-68900506D01*
X31335498Y-69010820D01*
X31299188Y-69130518D01*
X31286928Y-69255000D01*
X31286928Y-70755000D01*
X31298008Y-70867496D01*
X31292234Y-70872234D01*
X31075421Y-71136422D01*
X30914314Y-71437832D01*
X30815105Y-71764881D01*
X30781606Y-72105000D01*
X30815105Y-72445119D01*
X30914314Y-72772168D01*
X31075421Y-73073578D01*
X31292234Y-73337766D01*
X31556422Y-73554579D01*
X31857832Y-73715686D01*
X32184881Y-73814895D01*
X32439775Y-73840000D01*
X33910225Y-73840000D01*
X34165119Y-73814895D01*
X34492168Y-73715686D01*
X34691000Y-73609408D01*
X34691001Y-77264763D01*
X33720264Y-78235501D01*
X33686341Y-78263341D01*
X33575247Y-78398710D01*
X33492697Y-78553150D01*
X33441864Y-78720727D01*
X33429000Y-78851334D01*
X33429000Y-78851340D01*
X33424700Y-78895000D01*
X33429000Y-78938660D01*
X33429001Y-81772330D01*
X33424700Y-81816000D01*
X33441864Y-81990274D01*
X33492698Y-82157852D01*
X33575248Y-82312291D01*
X33616985Y-82363147D01*
X33686342Y-82447659D01*
X33720259Y-82475494D01*
X34547505Y-83302741D01*
X34575341Y-83336659D01*
X34710709Y-83447753D01*
X34865149Y-83530303D01*
X34959758Y-83559002D01*
X35032725Y-83581136D01*
X35049325Y-83582771D01*
X35149947Y-83592682D01*
X35224038Y-83682962D01*
X35358613Y-83793405D01*
X35512149Y-83875472D01*
X35678745Y-83926008D01*
X35851999Y-83943072D01*
X36276537Y-83943072D01*
X36353342Y-84036659D01*
X36387259Y-84064494D01*
X38800506Y-86477742D01*
X38828341Y-86511659D01*
X38963709Y-86622753D01*
X39118149Y-86705303D01*
X39199566Y-86730000D01*
X39285725Y-86756136D01*
X39460000Y-86773301D01*
X39503668Y-86769000D01*
X39945769Y-86769000D01*
X39954188Y-86854482D01*
X39990498Y-86974180D01*
X40049463Y-87084494D01*
X40128815Y-87181185D01*
X40225506Y-87260537D01*
X40335820Y-87319502D01*
X40455518Y-87355812D01*
X40580000Y-87368072D01*
X42280000Y-87368072D01*
X42404482Y-87355812D01*
X42524180Y-87319502D01*
X42634494Y-87260537D01*
X42731185Y-87181185D01*
X42810537Y-87084494D01*
X42869502Y-86974180D01*
X42905812Y-86854482D01*
X42918072Y-86730000D01*
X42918072Y-85030000D01*
X42905812Y-84905518D01*
X42869502Y-84785820D01*
X42810537Y-84675506D01*
X42731185Y-84578815D01*
X42634494Y-84499463D01*
X42524180Y-84440498D01*
X42455313Y-84419607D01*
X42485134Y-84395134D01*
X42670706Y-84169014D01*
X42808599Y-83911034D01*
X42893513Y-83631111D01*
X42922185Y-83340000D01*
X42893513Y-83048889D01*
X42808599Y-82768966D01*
X42670706Y-82510986D01*
X42485134Y-82284866D01*
X42259014Y-82099294D01*
X42001034Y-81961401D01*
X41721111Y-81876487D01*
X41502950Y-81855000D01*
X41357050Y-81855000D01*
X41138889Y-81876487D01*
X40858966Y-81961401D01*
X40600986Y-82099294D01*
X40374866Y-82284866D01*
X40189294Y-82510986D01*
X40051401Y-82768966D01*
X39966487Y-83048889D01*
X39937815Y-83340000D01*
X39966487Y-83631111D01*
X40051401Y-83911034D01*
X40189294Y-84169014D01*
X40374866Y-84395134D01*
X40404687Y-84419607D01*
X40335820Y-84440498D01*
X40225506Y-84499463D01*
X40128815Y-84578815D01*
X40049463Y-84675506D01*
X39990498Y-84785820D01*
X39954188Y-84905518D01*
X39945769Y-84991000D01*
X39828236Y-84991000D01*
X37981300Y-83144065D01*
X37990072Y-83055001D01*
X37990072Y-82354999D01*
X37973008Y-82181745D01*
X37922472Y-82015149D01*
X37840405Y-81861613D01*
X37729962Y-81727038D01*
X37595387Y-81616595D01*
X37590889Y-81614191D01*
X37629502Y-81582502D01*
X37783833Y-81394449D01*
X37898511Y-81179901D01*
X37969130Y-80947102D01*
X37992975Y-80705000D01*
X37969130Y-80462898D01*
X37898511Y-80230099D01*
X37783833Y-80015551D01*
X37629502Y-79827498D01*
X37441449Y-79673167D01*
X37226901Y-79558489D01*
X36994102Y-79487870D01*
X36812665Y-79470000D01*
X36141335Y-79470000D01*
X35959898Y-79487870D01*
X35727099Y-79558489D01*
X35512551Y-79673167D01*
X35324498Y-79827498D01*
X35207000Y-79970670D01*
X35207000Y-79263235D01*
X36177741Y-78292494D01*
X36211659Y-78264659D01*
X36322753Y-78129291D01*
X36405303Y-77974851D01*
X36456136Y-77807274D01*
X36469000Y-77676667D01*
X36473301Y-77633000D01*
X36469000Y-77589332D01*
X36469000Y-75289017D01*
X36672510Y-75373314D01*
X36942408Y-75427000D01*
X37217592Y-75427000D01*
X37487490Y-75373314D01*
X37741727Y-75268005D01*
X37970535Y-75115120D01*
X38153400Y-74932255D01*
X38153400Y-76953817D01*
X38149836Y-76990000D01*
X38153400Y-77026183D01*
X38153400Y-77026185D01*
X38164058Y-77134398D01*
X38206178Y-77273248D01*
X38274576Y-77401212D01*
X38366625Y-77513374D01*
X38394732Y-77536441D01*
X45963554Y-85105263D01*
X45986625Y-85133375D01*
X46098787Y-85225424D01*
X46226751Y-85293822D01*
X46365601Y-85335942D01*
X46473814Y-85346600D01*
X46473823Y-85346600D01*
X46509999Y-85350163D01*
X46546175Y-85346600D01*
X52797977Y-85346600D01*
X56110132Y-88658755D01*
X55980897Y-88787990D01*
X55826043Y-89019746D01*
X55810000Y-89058477D01*
X55793957Y-89019746D01*
X55639103Y-88787990D01*
X55442010Y-88590897D01*
X55210254Y-88436043D01*
X54952740Y-88329377D01*
X54679365Y-88275000D01*
X54400635Y-88275000D01*
X54127260Y-88329377D01*
X53869746Y-88436043D01*
X53637990Y-88590897D01*
X53440897Y-88787990D01*
X53286043Y-89019746D01*
X53270000Y-89058477D01*
X53253957Y-89019746D01*
X53099103Y-88787990D01*
X52902010Y-88590897D01*
X52670254Y-88436043D01*
X52412740Y-88329377D01*
X52139365Y-88275000D01*
X51860635Y-88275000D01*
X51587260Y-88329377D01*
X51329746Y-88436043D01*
X51097990Y-88590897D01*
X50900897Y-88787990D01*
X50746043Y-89019746D01*
X50730000Y-89058477D01*
X50713957Y-89019746D01*
X50559103Y-88787990D01*
X50362010Y-88590897D01*
X50130254Y-88436043D01*
X49872740Y-88329377D01*
X49599365Y-88275000D01*
X49320635Y-88275000D01*
X49047260Y-88329377D01*
X48789746Y-88436043D01*
X48557990Y-88590897D01*
X48360897Y-88787990D01*
X48206043Y-89019746D01*
X48190000Y-89058477D01*
X48173957Y-89019746D01*
X48019103Y-88787990D01*
X47822010Y-88590897D01*
X47590254Y-88436043D01*
X47332740Y-88329377D01*
X47059365Y-88275000D01*
X46780635Y-88275000D01*
X46507260Y-88329377D01*
X46249746Y-88436043D01*
X46017990Y-88590897D01*
X45820897Y-88787990D01*
X45666043Y-89019746D01*
X45650000Y-89058477D01*
X45633957Y-89019746D01*
X45479103Y-88787990D01*
X45282010Y-88590897D01*
X45050254Y-88436043D01*
X44792740Y-88329377D01*
X44519365Y-88275000D01*
X44240635Y-88275000D01*
X43967260Y-88329377D01*
X43709746Y-88436043D01*
X43477990Y-88590897D01*
X43280897Y-88787990D01*
X43126043Y-89019746D01*
X43110000Y-89058477D01*
X43093957Y-89019746D01*
X42939103Y-88787990D01*
X42742010Y-88590897D01*
X42510254Y-88436043D01*
X42252740Y-88329377D01*
X41979365Y-88275000D01*
X41700635Y-88275000D01*
X41427260Y-88329377D01*
X41169746Y-88436043D01*
X40937990Y-88590897D01*
X40740897Y-88787990D01*
X40586043Y-89019746D01*
X40570000Y-89058477D01*
X40553957Y-89019746D01*
X40399103Y-88787990D01*
X40202010Y-88590897D01*
X39970254Y-88436043D01*
X39712740Y-88329377D01*
X39439365Y-88275000D01*
X39160635Y-88275000D01*
X38887260Y-88329377D01*
X38629746Y-88436043D01*
X38397990Y-88590897D01*
X38200897Y-88787990D01*
X38046043Y-89019746D01*
X38030000Y-89058477D01*
X38013957Y-89019746D01*
X37859103Y-88787990D01*
X37662010Y-88590897D01*
X37430254Y-88436043D01*
X37172740Y-88329377D01*
X36899365Y-88275000D01*
X36620635Y-88275000D01*
X36347260Y-88329377D01*
X36089746Y-88436043D01*
X35857990Y-88590897D01*
X35660897Y-88787990D01*
X35506043Y-89019746D01*
X35490000Y-89058477D01*
X35473957Y-89019746D01*
X35319103Y-88787990D01*
X35122010Y-88590897D01*
X34890254Y-88436043D01*
X34632740Y-88329377D01*
X34359365Y-88275000D01*
X34080635Y-88275000D01*
X33807260Y-88329377D01*
X33549746Y-88436043D01*
X33317990Y-88590897D01*
X33120897Y-88787990D01*
X32966043Y-89019746D01*
X32950000Y-89058477D01*
X32933957Y-89019746D01*
X32779103Y-88787990D01*
X32582010Y-88590897D01*
X32350254Y-88436043D01*
X32092740Y-88329377D01*
X31819365Y-88275000D01*
X31540635Y-88275000D01*
X31267260Y-88329377D01*
X31009746Y-88436043D01*
X30777990Y-88590897D01*
X30660000Y-88708887D01*
X30660000Y-41152702D01*
X31726903Y-41152702D01*
X31798486Y-41396671D01*
X32053996Y-41517571D01*
X32328184Y-41586300D01*
X32610512Y-41600217D01*
X32890130Y-41558787D01*
X33156292Y-41463603D01*
X33281514Y-41396671D01*
X33353097Y-41152702D01*
X33282412Y-41082017D01*
X35678090Y-41082017D01*
X35719078Y-41354133D01*
X35812364Y-41613023D01*
X35874344Y-41728980D01*
X36114435Y-41795960D01*
X36900395Y-41010000D01*
X37259605Y-41010000D01*
X38045565Y-41795960D01*
X38285656Y-41728980D01*
X38402756Y-41479952D01*
X38469023Y-41212865D01*
X38481910Y-40937983D01*
X38440922Y-40665867D01*
X38347636Y-40406977D01*
X38285656Y-40291020D01*
X38045565Y-40224040D01*
X37259605Y-41010000D01*
X36900395Y-41010000D01*
X36114435Y-40224040D01*
X35874344Y-40291020D01*
X35757244Y-40540048D01*
X35690977Y-40807135D01*
X35678090Y-41082017D01*
X33282412Y-41082017D01*
X32540000Y-40339605D01*
X31726903Y-41152702D01*
X30660000Y-41152702D01*
X30660000Y-40230512D01*
X31099783Y-40230512D01*
X31141213Y-40510130D01*
X31236397Y-40776292D01*
X31303329Y-40901514D01*
X31547298Y-40973097D01*
X32360395Y-40160000D01*
X32719605Y-40160000D01*
X33532702Y-40973097D01*
X33776671Y-40901514D01*
X33897571Y-40646004D01*
X33966300Y-40371816D01*
X33980217Y-40089488D01*
X33973542Y-40044435D01*
X36294040Y-40044435D01*
X37080000Y-40830395D01*
X37865960Y-40044435D01*
X37798980Y-39804344D01*
X37549952Y-39687244D01*
X37282865Y-39620977D01*
X37007983Y-39608090D01*
X36735867Y-39649078D01*
X36476977Y-39742364D01*
X36361020Y-39804344D01*
X36294040Y-40044435D01*
X33973542Y-40044435D01*
X33938787Y-39809870D01*
X33843603Y-39543708D01*
X33776671Y-39418486D01*
X33532702Y-39346903D01*
X32719605Y-40160000D01*
X32360395Y-40160000D01*
X31547298Y-39346903D01*
X31303329Y-39418486D01*
X31182429Y-39673996D01*
X31113700Y-39948184D01*
X31099783Y-40230512D01*
X30660000Y-40230512D01*
X30660000Y-39167298D01*
X31726903Y-39167298D01*
X32540000Y-39980395D01*
X33353097Y-39167298D01*
X33281514Y-38923329D01*
X33026004Y-38802429D01*
X32751816Y-38733700D01*
X32469488Y-38719783D01*
X32189870Y-38761213D01*
X31923708Y-38856397D01*
X31798486Y-38923329D01*
X31726903Y-39167298D01*
X30660000Y-39167298D01*
X30660000Y-35414336D01*
X30785794Y-35718029D01*
X31182725Y-36312078D01*
X31687922Y-36817275D01*
X32281971Y-37214206D01*
X32942043Y-37487617D01*
X33642772Y-37627000D01*
X34357228Y-37627000D01*
X35057957Y-37487617D01*
X35718029Y-37214206D01*
X36312078Y-36817275D01*
X36817275Y-36312078D01*
X37214206Y-35718029D01*
X37487617Y-35057957D01*
X37627000Y-34357228D01*
X37627000Y-33642772D01*
X37487617Y-32942043D01*
X37214206Y-32281971D01*
X36817275Y-31687922D01*
X36312078Y-31182725D01*
X35718029Y-30785794D01*
X35414336Y-30660000D01*
X40634964Y-30660000D01*
X40420421Y-30921423D01*
X40420421Y-30921423D01*
G37*
X40420421Y-30921423D02*
X40259314Y-31222833D01*
X40160105Y-31549882D01*
X40135000Y-31804776D01*
X40135000Y-33275225D01*
X40160105Y-33530119D01*
X40259315Y-33857168D01*
X40420422Y-34158578D01*
X40637235Y-34422766D01*
X40901423Y-34639579D01*
X41202833Y-34800686D01*
X41529882Y-34899895D01*
X41870000Y-34933394D01*
X42210119Y-34899895D01*
X42537168Y-34800686D01*
X42838578Y-34639579D01*
X43102766Y-34422766D01*
X43107504Y-34416992D01*
X43220000Y-34428072D01*
X44720000Y-34428072D01*
X44844482Y-34415812D01*
X44964180Y-34379502D01*
X45074494Y-34320537D01*
X45081001Y-34315197D01*
X45081001Y-34877330D01*
X45076700Y-34921000D01*
X45093864Y-35095274D01*
X45144698Y-35262852D01*
X45214527Y-35393491D01*
X45227248Y-35417291D01*
X45338342Y-35552659D01*
X45372259Y-35580494D01*
X47501504Y-37709740D01*
X47529341Y-37743659D01*
X47664709Y-37854753D01*
X47819149Y-37937303D01*
X47913758Y-37966002D01*
X47986725Y-37988136D01*
X48003325Y-37989771D01*
X48117333Y-38001000D01*
X48117340Y-38001000D01*
X48161000Y-38005300D01*
X48204660Y-38001000D01*
X49313952Y-38001000D01*
X49349498Y-38118180D01*
X49408463Y-38228494D01*
X49430216Y-38255000D01*
X46878236Y-38255000D01*
X45137499Y-36514264D01*
X45109659Y-36480341D01*
X44974291Y-36369247D01*
X44819851Y-36286697D01*
X44652274Y-36235864D01*
X44521667Y-36223000D01*
X44521660Y-36223000D01*
X44478000Y-36218700D01*
X44434340Y-36223000D01*
X42944048Y-36223000D01*
X42908502Y-36105820D01*
X42849537Y-35995506D01*
X42770185Y-35898815D01*
X42673494Y-35819463D01*
X42563180Y-35760498D01*
X42443482Y-35724188D01*
X42319000Y-35711928D01*
X40795000Y-35711928D01*
X40670518Y-35724188D01*
X40550820Y-35760498D01*
X40440506Y-35819463D01*
X40343815Y-35898815D01*
X40264463Y-35995506D01*
X40205498Y-36105820D01*
X40169188Y-36225518D01*
X40156928Y-36350000D01*
X40156928Y-37874000D01*
X40169188Y-37998482D01*
X40205498Y-38118180D01*
X40264463Y-38228494D01*
X40343815Y-38325185D01*
X40440506Y-38404537D01*
X40550820Y-38463502D01*
X40670518Y-38499812D01*
X40795000Y-38512072D01*
X42319000Y-38512072D01*
X42443482Y-38499812D01*
X42563180Y-38463502D01*
X42673494Y-38404537D01*
X42770185Y-38325185D01*
X42849537Y-38228494D01*
X42908502Y-38118180D01*
X42944048Y-38001000D01*
X44109765Y-38001000D01*
X45850506Y-39741742D01*
X45878341Y-39775659D01*
X46013709Y-39886753D01*
X46168149Y-39969303D01*
X46262758Y-39998002D01*
X46335725Y-40020136D01*
X46352325Y-40021771D01*
X46466333Y-40033000D01*
X46466340Y-40033000D01*
X46510000Y-40037300D01*
X46553660Y-40033000D01*
X55452340Y-40033000D01*
X55496000Y-40037300D01*
X55539660Y-40033000D01*
X55539667Y-40033000D01*
X55670274Y-40020136D01*
X55837851Y-39969303D01*
X55992291Y-39886753D01*
X56127659Y-39775659D01*
X56155499Y-39741736D01*
X57037235Y-38860000D01*
X58541928Y-38860000D01*
X58541928Y-41460000D01*
X58554188Y-41584482D01*
X58590498Y-41704180D01*
X58649463Y-41814494D01*
X58728815Y-41911185D01*
X58825506Y-41990537D01*
X58935820Y-42049502D01*
X59055518Y-42085812D01*
X59180000Y-42098072D01*
X61780000Y-42098072D01*
X61904482Y-42085812D01*
X62024180Y-42049502D01*
X62134494Y-41990537D01*
X62231185Y-41911185D01*
X62310537Y-41814494D01*
X62369502Y-41704180D01*
X62405812Y-41584482D01*
X62418072Y-41460000D01*
X62418072Y-39134592D01*
X79345000Y-39134592D01*
X79345000Y-39485407D01*
X79367210Y-39710912D01*
X79454983Y-40000260D01*
X79597519Y-40266926D01*
X79789339Y-40500661D01*
X80023073Y-40692481D01*
X80289739Y-40835017D01*
X80579087Y-40922790D01*
X80880000Y-40952427D01*
X81180912Y-40922790D01*
X81470260Y-40835017D01*
X81736926Y-40692481D01*
X81970661Y-40500661D01*
X82130000Y-40306505D01*
X82289339Y-40500661D01*
X82523073Y-40692481D01*
X82789739Y-40835017D01*
X83079087Y-40922790D01*
X83380000Y-40952427D01*
X83680912Y-40922790D01*
X83970260Y-40835017D01*
X84236926Y-40692481D01*
X84470661Y-40500661D01*
X84662481Y-40266927D01*
X84805017Y-40000261D01*
X84892790Y-39710913D01*
X84915000Y-39485408D01*
X84915000Y-39134593D01*
X84915000Y-39134592D01*
X86845000Y-39134592D01*
X86845000Y-39485407D01*
X86867210Y-39710912D01*
X86954983Y-40000260D01*
X87097519Y-40266926D01*
X87289339Y-40500661D01*
X87523073Y-40692481D01*
X87643400Y-40756797D01*
X87643401Y-51513807D01*
X87639836Y-51550000D01*
X87645672Y-51609247D01*
X87654059Y-51694399D01*
X87666144Y-51734236D01*
X87696178Y-51833247D01*
X87764576Y-51961212D01*
X87804738Y-52010149D01*
X87856626Y-52073375D01*
X87884732Y-52096441D01*
X100249400Y-64461110D01*
X100249401Y-74890398D01*
X100211537Y-74906082D01*
X99943748Y-75085013D01*
X99716013Y-75312748D01*
X99537082Y-75580537D01*
X99413832Y-75878088D01*
X99351000Y-76193967D01*
X99351000Y-76516033D01*
X99413832Y-76831912D01*
X99537082Y-77129463D01*
X99716013Y-77397252D01*
X99943748Y-77624987D01*
X100211537Y-77803918D01*
X100509088Y-77927168D01*
X100824967Y-77990000D01*
X101147033Y-77990000D01*
X101462912Y-77927168D01*
X101760463Y-77803918D01*
X102028252Y-77624987D01*
X102255987Y-77397252D01*
X102434918Y-77129463D01*
X102558168Y-76831912D01*
X102621000Y-76516033D01*
X102621000Y-76193967D01*
X102558168Y-75878088D01*
X102434918Y-75580537D01*
X102255987Y-75312748D01*
X102028252Y-75085013D01*
X101760463Y-74906082D01*
X101722600Y-74890399D01*
X101722600Y-64192175D01*
X101726163Y-64155999D01*
X101722600Y-64119823D01*
X101722600Y-64119814D01*
X101711942Y-64011601D01*
X101669822Y-63872751D01*
X101601424Y-63744787D01*
X101590215Y-63731129D01*
X101532442Y-63660732D01*
X101532437Y-63660727D01*
X101509374Y-63632625D01*
X101481274Y-63609564D01*
X89116600Y-51244891D01*
X89116600Y-45762408D01*
X89563000Y-45762408D01*
X89563000Y-46037592D01*
X89616686Y-46307490D01*
X89721995Y-46561727D01*
X89874880Y-46790535D01*
X90069465Y-46985120D01*
X90298273Y-47138005D01*
X90552510Y-47243314D01*
X90822408Y-47297000D01*
X91097592Y-47297000D01*
X91367490Y-47243314D01*
X91621727Y-47138005D01*
X91850535Y-46985120D01*
X92045120Y-46790535D01*
X92198005Y-46561727D01*
X92220000Y-46508627D01*
X92241995Y-46561727D01*
X92394880Y-46790535D01*
X92589465Y-46985120D01*
X92743400Y-47087977D01*
X92743401Y-48431186D01*
X92754059Y-48539399D01*
X92763400Y-48570192D01*
X92763401Y-53458807D01*
X92759836Y-53495000D01*
X92774059Y-53639398D01*
X92816178Y-53778247D01*
X92863934Y-53867592D01*
X92884577Y-53906213D01*
X92976626Y-54018375D01*
X93004732Y-54041441D01*
X114539784Y-75576494D01*
X114537082Y-75580537D01*
X114413832Y-75878088D01*
X114351000Y-76193967D01*
X114351000Y-76516033D01*
X114413832Y-76831912D01*
X114537082Y-77129463D01*
X114716013Y-77397252D01*
X114943748Y-77624987D01*
X115211537Y-77803918D01*
X115509088Y-77927168D01*
X115824967Y-77990000D01*
X116147033Y-77990000D01*
X116462912Y-77927168D01*
X116760463Y-77803918D01*
X117028252Y-77624987D01*
X117255987Y-77397252D01*
X117434918Y-77129463D01*
X117558168Y-76831912D01*
X117621000Y-76516033D01*
X117621000Y-76193967D01*
X117558168Y-75878088D01*
X117434918Y-75580537D01*
X117255987Y-75312748D01*
X117028252Y-75085013D01*
X116760463Y-74906082D01*
X116462912Y-74782832D01*
X116147033Y-74720000D01*
X115824967Y-74720000D01*
X115776375Y-74729665D01*
X94639118Y-53592408D01*
X116683000Y-53592408D01*
X116683000Y-53867592D01*
X116736686Y-54137490D01*
X116841995Y-54391727D01*
X116994880Y-54620535D01*
X117189465Y-54815120D01*
X117418273Y-54968005D01*
X117495515Y-55000000D01*
X117418273Y-55031995D01*
X117189465Y-55184880D01*
X116994880Y-55379465D01*
X116841995Y-55608273D01*
X116736686Y-55862510D01*
X116683000Y-56132408D01*
X116683000Y-56407592D01*
X116736686Y-56677490D01*
X116841995Y-56931727D01*
X116994880Y-57160535D01*
X117189465Y-57355120D01*
X117418273Y-57508005D01*
X117495515Y-57540000D01*
X117418273Y-57571995D01*
X117189465Y-57724880D01*
X116994880Y-57919465D01*
X116841995Y-58148273D01*
X116736686Y-58402510D01*
X116683000Y-58672408D01*
X116683000Y-58947592D01*
X116736686Y-59217490D01*
X116841995Y-59471727D01*
X116994880Y-59700535D01*
X117189465Y-59895120D01*
X117418273Y-60048005D01*
X117495515Y-60080000D01*
X117418273Y-60111995D01*
X117189465Y-60264880D01*
X116994880Y-60459465D01*
X116841995Y-60688273D01*
X116736686Y-60942510D01*
X116683000Y-61212408D01*
X116683000Y-61487592D01*
X116736686Y-61757490D01*
X116841995Y-62011727D01*
X116994880Y-62240535D01*
X117189465Y-62435120D01*
X117418273Y-62588005D01*
X117672510Y-62693314D01*
X117942408Y-62747000D01*
X118217592Y-62747000D01*
X118487490Y-62693314D01*
X118741727Y-62588005D01*
X118970535Y-62435120D01*
X119165120Y-62240535D01*
X119281340Y-62066600D01*
X120192024Y-62066600D01*
X120294880Y-62220535D01*
X120489465Y-62415120D01*
X120718273Y-62568005D01*
X120972510Y-62673314D01*
X121242408Y-62727000D01*
X121517592Y-62727000D01*
X121787490Y-62673314D01*
X122041727Y-62568005D01*
X122270535Y-62415120D01*
X122465120Y-62220535D01*
X122618005Y-61991727D01*
X122723314Y-61737490D01*
X122777000Y-61467592D01*
X122777000Y-61192408D01*
X122723314Y-60922510D01*
X122618005Y-60668273D01*
X122465120Y-60439465D01*
X122270535Y-60244880D01*
X122041727Y-60091995D01*
X121964485Y-60060000D01*
X122041727Y-60028005D01*
X122270535Y-59875120D01*
X122465120Y-59680535D01*
X122618005Y-59451727D01*
X122723314Y-59197490D01*
X122777000Y-58927592D01*
X122777000Y-58652408D01*
X122723314Y-58382510D01*
X122618005Y-58128273D01*
X122465120Y-57899465D01*
X122270535Y-57704880D01*
X122041727Y-57551995D01*
X121964485Y-57520000D01*
X122041727Y-57488005D01*
X122270535Y-57335120D01*
X122465120Y-57140535D01*
X122618005Y-56911727D01*
X122723314Y-56657490D01*
X122777000Y-56387592D01*
X122777000Y-56112408D01*
X122723314Y-55842510D01*
X122618005Y-55588273D01*
X122465120Y-55359465D01*
X122270535Y-55164880D01*
X122041727Y-55011995D01*
X121964485Y-54980000D01*
X122041727Y-54948005D01*
X122270535Y-54795120D01*
X122465120Y-54600535D01*
X122618005Y-54371727D01*
X122723314Y-54117490D01*
X122777000Y-53847592D01*
X122777000Y-53572408D01*
X122723314Y-53302510D01*
X122618005Y-53048273D01*
X122465120Y-52819465D01*
X122270535Y-52624880D01*
X122041727Y-52471995D01*
X121787490Y-52366686D01*
X121517592Y-52313000D01*
X121242408Y-52313000D01*
X120972510Y-52366686D01*
X120718273Y-52471995D01*
X120489465Y-52624880D01*
X120294880Y-52819465D01*
X120178660Y-52993400D01*
X119267976Y-52993400D01*
X119165120Y-52839465D01*
X118970535Y-52644880D01*
X118741727Y-52491995D01*
X118487490Y-52386686D01*
X118217592Y-52333000D01*
X117942408Y-52333000D01*
X117672510Y-52386686D01*
X117418273Y-52491995D01*
X117189465Y-52644880D01*
X116994880Y-52839465D01*
X116841995Y-53068273D01*
X116736686Y-53322510D01*
X116683000Y-53592408D01*
X94639118Y-53592408D01*
X94236600Y-53189891D01*
X94236600Y-48378814D01*
X94225942Y-48270601D01*
X94216600Y-48239805D01*
X94216600Y-47087976D01*
X94370535Y-46985120D01*
X94565120Y-46790535D01*
X94718005Y-46561727D01*
X94823314Y-46307490D01*
X94877000Y-46037592D01*
X94877000Y-45762408D01*
X94823314Y-45492510D01*
X94718005Y-45238273D01*
X94565120Y-45009465D01*
X94370535Y-44814880D01*
X94141727Y-44661995D01*
X93887490Y-44556686D01*
X93617592Y-44503000D01*
X93342408Y-44503000D01*
X93072510Y-44556686D01*
X92818273Y-44661995D01*
X92589465Y-44814880D01*
X92394880Y-45009465D01*
X92241995Y-45238273D01*
X92220000Y-45291373D01*
X92198005Y-45238273D01*
X92045120Y-45009465D01*
X91850535Y-44814880D01*
X91621727Y-44661995D01*
X91367490Y-44556686D01*
X91097592Y-44503000D01*
X90822408Y-44503000D01*
X90552510Y-44556686D01*
X90298273Y-44661995D01*
X90069465Y-44814880D01*
X89874880Y-45009465D01*
X89721995Y-45238273D01*
X89616686Y-45492510D01*
X89563000Y-45762408D01*
X89116600Y-45762408D01*
X89116600Y-40756797D01*
X89236926Y-40692481D01*
X89470661Y-40500661D01*
X89630000Y-40306505D01*
X89789339Y-40500661D01*
X90023073Y-40692481D01*
X90289739Y-40835017D01*
X90579087Y-40922790D01*
X90880000Y-40952427D01*
X91180912Y-40922790D01*
X91470260Y-40835017D01*
X91736926Y-40692481D01*
X91970661Y-40500661D01*
X92162481Y-40266927D01*
X92305017Y-40000261D01*
X92392790Y-39710913D01*
X92415000Y-39485408D01*
X92415000Y-39134593D01*
X92415000Y-39134592D01*
X103475000Y-39134592D01*
X103475000Y-39485407D01*
X103497210Y-39710912D01*
X103584983Y-40000260D01*
X103727519Y-40266926D01*
X103919339Y-40500661D01*
X104153073Y-40692481D01*
X104419739Y-40835017D01*
X104709087Y-40922790D01*
X105010000Y-40952427D01*
X105310912Y-40922790D01*
X105600260Y-40835017D01*
X105866926Y-40692481D01*
X106100661Y-40500661D01*
X106260000Y-40306505D01*
X106419339Y-40500661D01*
X106653073Y-40692481D01*
X106919739Y-40835017D01*
X107209087Y-40922790D01*
X107510000Y-40952427D01*
X107810912Y-40922790D01*
X108100260Y-40835017D01*
X108366926Y-40692481D01*
X108600661Y-40500661D01*
X108792481Y-40266927D01*
X108935017Y-40000261D01*
X109022790Y-39710913D01*
X109045000Y-39485408D01*
X109045000Y-39134593D01*
X109045000Y-39134592D01*
X110975000Y-39134592D01*
X110975000Y-39485407D01*
X110997210Y-39710912D01*
X111084983Y-40000260D01*
X111227519Y-40266926D01*
X111419339Y-40500661D01*
X111653073Y-40692481D01*
X111919739Y-40835017D01*
X112209087Y-40922790D01*
X112510000Y-40952427D01*
X112810912Y-40922790D01*
X113100260Y-40835017D01*
X113366926Y-40692481D01*
X113600661Y-40500661D01*
X113760000Y-40306505D01*
X113919339Y-40500661D01*
X114153073Y-40692481D01*
X114419739Y-40835017D01*
X114709087Y-40922790D01*
X115010000Y-40952427D01*
X115310912Y-40922790D01*
X115600260Y-40835017D01*
X115866926Y-40692481D01*
X116100661Y-40500661D01*
X116292481Y-40266927D01*
X116435017Y-40000261D01*
X116522790Y-39710913D01*
X116545000Y-39485408D01*
X116545000Y-39134593D01*
X116522790Y-38909088D01*
X116435017Y-38619740D01*
X116292481Y-38353073D01*
X116100661Y-38119339D01*
X115866927Y-37927519D01*
X115600261Y-37784983D01*
X115310913Y-37697210D01*
X115010000Y-37667573D01*
X114709088Y-37697210D01*
X114419740Y-37784983D01*
X114153074Y-37927519D01*
X113919339Y-38119339D01*
X113760000Y-38313495D01*
X113600661Y-38119339D01*
X113366927Y-37927519D01*
X113100261Y-37784983D01*
X112810913Y-37697210D01*
X112510000Y-37667573D01*
X112209088Y-37697210D01*
X111919740Y-37784983D01*
X111653074Y-37927519D01*
X111419339Y-38119339D01*
X111227519Y-38353073D01*
X111084983Y-38619739D01*
X110997210Y-38909087D01*
X110975000Y-39134592D01*
X109045000Y-39134592D01*
X109022790Y-38909088D01*
X108935017Y-38619740D01*
X108792481Y-38353073D01*
X108600661Y-38119339D01*
X108366927Y-37927519D01*
X108100261Y-37784983D01*
X107810913Y-37697210D01*
X107510000Y-37667573D01*
X107209088Y-37697210D01*
X106919740Y-37784983D01*
X106653074Y-37927519D01*
X106419339Y-38119339D01*
X106260000Y-38313495D01*
X106100661Y-38119339D01*
X105866927Y-37927519D01*
X105600261Y-37784983D01*
X105310913Y-37697210D01*
X105010000Y-37667573D01*
X104709088Y-37697210D01*
X104419740Y-37784983D01*
X104153074Y-37927519D01*
X103919339Y-38119339D01*
X103727519Y-38353073D01*
X103584983Y-38619739D01*
X103497210Y-38909087D01*
X103475000Y-39134592D01*
X92415000Y-39134592D01*
X92392790Y-38909088D01*
X92305017Y-38619740D01*
X92162481Y-38353073D01*
X91970661Y-38119339D01*
X91736927Y-37927519D01*
X91470261Y-37784983D01*
X91180913Y-37697210D01*
X90880000Y-37667573D01*
X90579088Y-37697210D01*
X90289740Y-37784983D01*
X90023074Y-37927519D01*
X89789339Y-38119339D01*
X89630000Y-38313495D01*
X89470661Y-38119339D01*
X89236927Y-37927519D01*
X88970261Y-37784983D01*
X88680913Y-37697210D01*
X88380000Y-37667573D01*
X88079088Y-37697210D01*
X87789740Y-37784983D01*
X87523074Y-37927519D01*
X87289339Y-38119339D01*
X87097519Y-38353073D01*
X86954983Y-38619739D01*
X86867210Y-38909087D01*
X86845000Y-39134592D01*
X84915000Y-39134592D01*
X84892790Y-38909088D01*
X84805017Y-38619740D01*
X84662481Y-38353073D01*
X84470661Y-38119339D01*
X84236927Y-37927519D01*
X83970261Y-37784983D01*
X83680913Y-37697210D01*
X83380000Y-37667573D01*
X83079088Y-37697210D01*
X82789740Y-37784983D01*
X82523074Y-37927519D01*
X82289339Y-38119339D01*
X82130000Y-38313495D01*
X81970661Y-38119339D01*
X81736927Y-37927519D01*
X81470261Y-37784983D01*
X81180913Y-37697210D01*
X80880000Y-37667573D01*
X80579088Y-37697210D01*
X80289740Y-37784983D01*
X80023074Y-37927519D01*
X79789339Y-38119339D01*
X79597519Y-38353073D01*
X79454983Y-38619739D01*
X79367210Y-38909087D01*
X79345000Y-39134592D01*
X62418072Y-39134592D01*
X62418072Y-38860000D01*
X62405812Y-38735518D01*
X62369502Y-38615820D01*
X62310537Y-38505506D01*
X62231185Y-38408815D01*
X62134494Y-38329463D01*
X62024180Y-38270498D01*
X61904482Y-38234188D01*
X61780000Y-38221928D01*
X59180000Y-38221928D01*
X59055518Y-38234188D01*
X58935820Y-38270498D01*
X58825506Y-38329463D01*
X58728815Y-38408815D01*
X58649463Y-38505506D01*
X58590498Y-38615820D01*
X58554188Y-38735518D01*
X58541928Y-38860000D01*
X57037235Y-38860000D01*
X58927816Y-36969419D01*
X63245000Y-36969419D01*
X63245000Y-37350581D01*
X63319361Y-37724419D01*
X63465225Y-38076566D01*
X63676987Y-38393491D01*
X63946509Y-38663013D01*
X64263434Y-38874775D01*
X64615581Y-39020639D01*
X64989419Y-39095000D01*
X65370581Y-39095000D01*
X65744419Y-39020639D01*
X66096566Y-38874775D01*
X66413491Y-38663013D01*
X66683013Y-38393491D01*
X66894775Y-38076566D01*
X67040639Y-37724419D01*
X67115000Y-37350581D01*
X67115000Y-36969419D01*
X67040639Y-36595581D01*
X66894775Y-36243434D01*
X66683013Y-35926509D01*
X66413491Y-35656987D01*
X66096566Y-35445225D01*
X65744419Y-35299361D01*
X65370581Y-35225000D01*
X64989419Y-35225000D01*
X64615581Y-35299361D01*
X64263434Y-35445225D01*
X63946509Y-35656987D01*
X63676987Y-35926509D01*
X63465225Y-36243434D01*
X63319361Y-36595581D01*
X63245000Y-36969419D01*
X58927816Y-36969419D01*
X59888014Y-36009221D01*
X59915581Y-36020639D01*
X60289419Y-36095000D01*
X60670581Y-36095000D01*
X61044419Y-36020639D01*
X61396566Y-35874775D01*
X61713491Y-35663013D01*
X61983013Y-35393491D01*
X62194775Y-35076566D01*
X62340639Y-34724419D01*
X62415000Y-34350581D01*
X62415000Y-33969419D01*
X62348399Y-33634592D01*
X84345000Y-33634592D01*
X84345000Y-33985407D01*
X84367210Y-34210912D01*
X84454983Y-34500260D01*
X84597519Y-34766926D01*
X84789339Y-35000661D01*
X85023073Y-35192481D01*
X85289739Y-35335017D01*
X85579087Y-35422790D01*
X85880000Y-35452427D01*
X86180912Y-35422790D01*
X86470260Y-35335017D01*
X86736926Y-35192481D01*
X86970661Y-35000661D01*
X87162481Y-34766927D01*
X87305017Y-34500261D01*
X87392790Y-34210913D01*
X87415000Y-33985408D01*
X87415000Y-33634593D01*
X87415000Y-33634592D01*
X108475000Y-33634592D01*
X108475000Y-33985407D01*
X108497210Y-34210912D01*
X108584983Y-34500260D01*
X108727519Y-34766926D01*
X108919339Y-35000661D01*
X109153073Y-35192481D01*
X109419739Y-35335017D01*
X109709087Y-35422790D01*
X110010000Y-35452427D01*
X110310912Y-35422790D01*
X110600260Y-35335017D01*
X110866926Y-35192481D01*
X111100661Y-35000661D01*
X111292481Y-34766927D01*
X111435017Y-34500261D01*
X111522790Y-34210913D01*
X111545000Y-33985408D01*
X111545000Y-33634593D01*
X111522790Y-33409088D01*
X111435017Y-33119740D01*
X111292481Y-32853073D01*
X111100661Y-32619339D01*
X110866927Y-32427519D01*
X110600261Y-32284983D01*
X110310913Y-32197210D01*
X110010000Y-32167573D01*
X109709088Y-32197210D01*
X109419740Y-32284983D01*
X109153074Y-32427519D01*
X108919339Y-32619339D01*
X108727519Y-32853073D01*
X108584983Y-33119739D01*
X108497210Y-33409087D01*
X108475000Y-33634592D01*
X87415000Y-33634592D01*
X87392790Y-33409088D01*
X87305017Y-33119740D01*
X87162481Y-32853073D01*
X86970661Y-32619339D01*
X86736927Y-32427519D01*
X86470261Y-32284983D01*
X86180913Y-32197210D01*
X85880000Y-32167573D01*
X85579088Y-32197210D01*
X85289740Y-32284983D01*
X85023074Y-32427519D01*
X84789339Y-32619339D01*
X84597519Y-32853073D01*
X84454983Y-33119739D01*
X84367210Y-33409087D01*
X84345000Y-33634592D01*
X62348399Y-33634592D01*
X62340639Y-33595581D01*
X62194775Y-33243434D01*
X61983013Y-32926509D01*
X61713491Y-32656987D01*
X61396566Y-32445225D01*
X61044419Y-32299361D01*
X60670581Y-32225000D01*
X60289419Y-32225000D01*
X59915581Y-32299361D01*
X59563434Y-32445225D01*
X59246509Y-32656987D01*
X58976987Y-32926509D01*
X58765225Y-33243434D01*
X58619361Y-33595581D01*
X58545000Y-33969419D01*
X58545000Y-34350581D01*
X58619361Y-34724419D01*
X58630779Y-34751986D01*
X55127765Y-38255000D01*
X51971784Y-38255000D01*
X51993537Y-38228494D01*
X52052502Y-38118180D01*
X52088812Y-37998482D01*
X52101072Y-37874000D01*
X52101072Y-36350000D01*
X52088812Y-36225518D01*
X52052502Y-36105820D01*
X51993537Y-35995506D01*
X51914185Y-35898815D01*
X51817494Y-35819463D01*
X51707180Y-35760498D01*
X51587482Y-35724188D01*
X51463000Y-35711928D01*
X49939000Y-35711928D01*
X49814518Y-35724188D01*
X49694820Y-35760498D01*
X49584506Y-35819463D01*
X49487815Y-35898815D01*
X49408463Y-35995506D01*
X49349498Y-36105820D01*
X49313952Y-36223000D01*
X48529236Y-36223000D01*
X46859000Y-34552765D01*
X46859000Y-34102112D01*
X46954081Y-34024081D01*
X46970000Y-34004683D01*
X46985920Y-34024081D01*
X47196813Y-34197157D01*
X47437420Y-34325764D01*
X47698494Y-34404960D01*
X47970000Y-34431701D01*
X48241507Y-34404960D01*
X48502581Y-34325764D01*
X48679862Y-34231006D01*
X48837235Y-34422766D01*
X49101423Y-34639579D01*
X49402833Y-34800686D01*
X49729882Y-34899895D01*
X50070000Y-34933394D01*
X50410119Y-34899895D01*
X50737168Y-34800686D01*
X51038578Y-34639579D01*
X51302766Y-34422766D01*
X51519579Y-34158578D01*
X51680686Y-33857168D01*
X51779895Y-33530119D01*
X51805000Y-33275225D01*
X51805000Y-31804775D01*
X51779895Y-31549881D01*
X51680686Y-31222832D01*
X51519579Y-30921422D01*
X51305036Y-30660000D01*
X68549020Y-30660000D01*
X68540986Y-30664294D01*
X68314866Y-30849866D01*
X68129294Y-31075986D01*
X67991401Y-31333966D01*
X67906487Y-31613889D01*
X67877815Y-31905000D01*
X67906487Y-32196111D01*
X67991401Y-32476034D01*
X68129294Y-32734014D01*
X68314866Y-32960134D01*
X68540986Y-33145706D01*
X68798966Y-33283599D01*
X69078889Y-33368513D01*
X69297050Y-33390000D01*
X69442950Y-33390000D01*
X69661111Y-33368513D01*
X69941034Y-33283599D01*
X70199014Y-33145706D01*
X70425134Y-32960134D01*
X70449607Y-32930313D01*
X70470498Y-32999180D01*
X70529463Y-33109494D01*
X70608815Y-33206185D01*
X70705506Y-33285537D01*
X70815820Y-33344502D01*
X70935518Y-33380812D01*
X71060000Y-33393072D01*
X72760000Y-33393072D01*
X72884482Y-33380812D01*
X73004180Y-33344502D01*
X73114494Y-33285537D01*
X73211185Y-33206185D01*
X73290537Y-33109494D01*
X73349502Y-32999180D01*
X73385812Y-32879482D01*
X73398072Y-32755000D01*
X73398072Y-31055000D01*
X73385812Y-30930518D01*
X73349502Y-30810820D01*
X73290537Y-30700506D01*
X73257295Y-30660000D01*
X124585664Y-30660000D01*
X124281971Y-30785794D01*
X123687922Y-31182725D01*
X123182725Y-31687922D01*
X122785794Y-32281971D01*
X122512383Y-32942043D01*
X122373000Y-33642772D01*
X122373000Y-34357228D01*
X122512383Y-35057957D01*
X122785794Y-35718029D01*
X123182725Y-36312078D01*
X123687922Y-36817275D01*
X124281971Y-37214206D01*
X124942043Y-37487617D01*
X125642772Y-37627000D01*
X126357228Y-37627000D01*
X127057957Y-37487617D01*
X127718029Y-37214206D01*
X128312078Y-36817275D01*
X128817275Y-36312078D01*
X129214206Y-35718029D01*
X129340000Y-35414336D01*
X129340001Y-122585667D01*
X129214206Y-122281971D01*
X128817275Y-121687922D01*
X128312078Y-121182725D01*
X127718029Y-120785794D01*
X127057957Y-120512383D01*
X126357228Y-120373000D01*
X125642772Y-120373000D01*
X124942043Y-120512383D01*
X124281971Y-120785794D01*
X123687922Y-121182725D01*
X123182725Y-121687922D01*
X122785794Y-122281971D01*
X122512383Y-122942043D01*
X122373000Y-123642772D01*
X122373000Y-124357228D01*
X122512383Y-125057957D01*
X122785794Y-125718029D01*
X123182725Y-126312078D01*
X123687922Y-126817275D01*
X124281971Y-127214206D01*
X124585664Y-127340000D01*
X35414336Y-127340000D01*
X35718029Y-127214206D01*
X36312078Y-126817275D01*
X36817275Y-126312078D01*
X37214206Y-125718029D01*
X37487617Y-125057957D01*
X37627000Y-124357228D01*
X37627000Y-123642772D01*
X37487617Y-122942043D01*
X37214206Y-122281971D01*
X36817275Y-121687922D01*
X36312078Y-121182725D01*
X35718029Y-120785794D01*
X35057957Y-120512383D01*
X34357228Y-120373000D01*
X33642772Y-120373000D01*
X32942043Y-120512383D01*
X32281971Y-120785794D01*
X31687922Y-121182725D01*
X31182725Y-121687922D01*
X30785794Y-122281971D01*
X30660000Y-122585664D01*
X30660000Y-116068421D01*
X30881184Y-116068421D01*
X30950345Y-116310349D01*
X31202443Y-116429248D01*
X31472894Y-116496681D01*
X31751303Y-116510057D01*
X32026972Y-116468860D01*
X32289308Y-116374675D01*
X32409655Y-116310349D01*
X32478816Y-116068421D01*
X31680000Y-115269605D01*
X30881184Y-116068421D01*
X30660000Y-116068421D01*
X30660000Y-115876930D01*
X30701579Y-115888816D01*
X31500395Y-115090000D01*
X30701579Y-114291184D01*
X30660000Y-114303070D01*
X30660000Y-113528421D01*
X30881184Y-113528421D01*
X30950345Y-113770349D01*
X31049041Y-113816898D01*
X30950345Y-113869651D01*
X30881184Y-114111579D01*
X31680000Y-114910395D01*
X32478816Y-114111579D01*
X32409655Y-113869651D01*
X32310959Y-113823102D01*
X32409655Y-113770349D01*
X32478816Y-113528421D01*
X31680000Y-112729605D01*
X30881184Y-113528421D01*
X30660000Y-113528421D01*
X30660000Y-113336930D01*
X30701579Y-113348816D01*
X31500395Y-112550000D01*
X30701579Y-111751184D01*
X30660000Y-111763070D01*
X30660000Y-111571579D01*
X30881184Y-111571579D01*
X31680000Y-112370395D01*
X32478816Y-111571579D01*
X32409655Y-111329651D01*
X32157557Y-111210752D01*
X31887106Y-111143319D01*
X31608697Y-111129943D01*
X31333028Y-111171140D01*
X31070692Y-111265325D01*
X30950345Y-111329651D01*
X30881184Y-111571579D01*
X30660000Y-111571579D01*
X30660000Y-90671113D01*
X30777990Y-90789103D01*
X31009746Y-90943957D01*
X31267260Y-91050623D01*
X31540635Y-91105000D01*
X31819365Y-91105000D01*
X32092740Y-91050623D01*
X32350254Y-90943957D01*
X32582010Y-90789103D01*
X32779103Y-90592010D01*
X32933957Y-90360254D01*
X32950000Y-90321523D01*
X32966043Y-90360254D01*
X33120897Y-90592010D01*
X33317990Y-90789103D01*
X33549746Y-90943957D01*
X33807260Y-91050623D01*
X34080635Y-91105000D01*
X34359365Y-91105000D01*
X34632740Y-91050623D01*
X34890254Y-90943957D01*
X35122010Y-90789103D01*
X35319103Y-90592010D01*
X35473957Y-90360254D01*
X35490000Y-90321523D01*
X35506043Y-90360254D01*
X35660897Y-90592010D01*
X35857990Y-90789103D01*
X36089746Y-90943957D01*
X36347260Y-91050623D01*
X36620635Y-91105000D01*
X36899365Y-91105000D01*
X37172740Y-91050623D01*
X37430254Y-90943957D01*
X37662010Y-90789103D01*
X37859103Y-90592010D01*
X38013957Y-90360254D01*
X38030000Y-90321523D01*
X38046043Y-90360254D01*
X38200897Y-90592010D01*
X38397990Y-90789103D01*
X38629746Y-90943957D01*
X38887260Y-91050623D01*
X39160635Y-91105000D01*
X39439365Y-91105000D01*
X39712740Y-91050623D01*
X39970254Y-90943957D01*
X40202010Y-90789103D01*
X40399103Y-90592010D01*
X40553957Y-90360254D01*
X40570000Y-90321523D01*
X40586043Y-90360254D01*
X40740897Y-90592010D01*
X40937990Y-90789103D01*
X41169746Y-90943957D01*
X41427260Y-91050623D01*
X41700635Y-91105000D01*
X41979365Y-91105000D01*
X42252740Y-91050623D01*
X42510254Y-90943957D01*
X42742010Y-90789103D01*
X42939103Y-90592010D01*
X43093957Y-90360254D01*
X43110000Y-90321523D01*
X43126043Y-90360254D01*
X43280897Y-90592010D01*
X43477990Y-90789103D01*
X43709746Y-90943957D01*
X43967260Y-91050623D01*
X44240635Y-91105000D01*
X44519365Y-91105000D01*
X44792740Y-91050623D01*
X45050254Y-90943957D01*
X45282010Y-90789103D01*
X45479103Y-90592010D01*
X45633957Y-90360254D01*
X45650000Y-90321523D01*
X45666043Y-90360254D01*
X45820897Y-90592010D01*
X46017990Y-90789103D01*
X46249746Y-90943957D01*
X46507260Y-91050623D01*
X46780635Y-91105000D01*
X47059365Y-91105000D01*
X47332740Y-91050623D01*
X47590254Y-90943957D01*
X47822010Y-90789103D01*
X48019103Y-90592010D01*
X48173957Y-90360254D01*
X48190000Y-90321523D01*
X48206043Y-90360254D01*
X48360897Y-90592010D01*
X48557990Y-90789103D01*
X48789746Y-90943957D01*
X49047260Y-91050623D01*
X49320635Y-91105000D01*
X49599365Y-91105000D01*
X49872740Y-91050623D01*
X50130254Y-90943957D01*
X50362010Y-90789103D01*
X50559103Y-90592010D01*
X50713957Y-90360254D01*
X50730000Y-90321523D01*
X50746043Y-90360254D01*
X50900897Y-90592010D01*
X51097990Y-90789103D01*
X51329746Y-90943957D01*
X51587260Y-91050623D01*
X51860635Y-91105000D01*
X52139365Y-91105000D01*
X52412740Y-91050623D01*
X52670254Y-90943957D01*
X52902010Y-90789103D01*
X53099103Y-90592010D01*
X53253957Y-90360254D01*
X53270000Y-90321523D01*
X53286043Y-90360254D01*
X53440897Y-90592010D01*
X53637990Y-90789103D01*
X53869746Y-90943957D01*
X54127260Y-91050623D01*
X54400635Y-91105000D01*
X54679365Y-91105000D01*
X54952740Y-91050623D01*
X55210254Y-90943957D01*
X55442010Y-90789103D01*
X55639103Y-90592010D01*
X55793957Y-90360254D01*
X55810000Y-90321523D01*
X55826043Y-90360254D01*
X55980897Y-90592010D01*
X56177990Y-90789103D01*
X56409746Y-90943957D01*
X56667260Y-91050623D01*
X56940635Y-91105000D01*
X57219365Y-91105000D01*
X57492740Y-91050623D01*
X57750254Y-90943957D01*
X57982010Y-90789103D01*
X58179103Y-90592010D01*
X58333957Y-90360254D01*
X58350000Y-90321523D01*
X58366043Y-90360254D01*
X58520897Y-90592010D01*
X58717990Y-90789103D01*
X58949746Y-90943957D01*
X59207260Y-91050623D01*
X59480635Y-91105000D01*
X59759365Y-91105000D01*
X60032740Y-91050623D01*
X60290254Y-90943957D01*
X60522010Y-90789103D01*
X60719103Y-90592010D01*
X60873957Y-90360254D01*
X60890000Y-90321523D01*
X60906043Y-90360254D01*
X61060897Y-90592010D01*
X61257990Y-90789103D01*
X61423400Y-90899626D01*
X61423400Y-91514890D01*
X43884732Y-109053559D01*
X43856626Y-109076625D01*
X43833560Y-109104731D01*
X43833558Y-109104733D01*
X43764576Y-109188788D01*
X43696178Y-109316753D01*
X43654059Y-109455602D01*
X43639836Y-109600000D01*
X43643401Y-109636193D01*
X43643400Y-111340374D01*
X43477990Y-111450897D01*
X43280897Y-111647990D01*
X43126043Y-111879746D01*
X43110000Y-111918477D01*
X43093957Y-111879746D01*
X42939103Y-111647990D01*
X42742010Y-111450897D01*
X42510254Y-111296043D01*
X42252740Y-111189377D01*
X41979365Y-111135000D01*
X41700635Y-111135000D01*
X41427260Y-111189377D01*
X41169746Y-111296043D01*
X40937990Y-111450897D01*
X40740897Y-111647990D01*
X40586043Y-111879746D01*
X40570000Y-111918477D01*
X40553957Y-111879746D01*
X40399103Y-111647990D01*
X40202010Y-111450897D01*
X39970254Y-111296043D01*
X39712740Y-111189377D01*
X39439365Y-111135000D01*
X39160635Y-111135000D01*
X38887260Y-111189377D01*
X38629746Y-111296043D01*
X38397990Y-111450897D01*
X38200897Y-111647990D01*
X38046043Y-111879746D01*
X38030000Y-111918477D01*
X38013957Y-111879746D01*
X37859103Y-111647990D01*
X37662010Y-111450897D01*
X37430254Y-111296043D01*
X37172740Y-111189377D01*
X36899365Y-111135000D01*
X36620635Y-111135000D01*
X36347260Y-111189377D01*
X36089746Y-111296043D01*
X35857990Y-111450897D01*
X35660897Y-111647990D01*
X35506043Y-111879746D01*
X35490000Y-111918477D01*
X35473957Y-111879746D01*
X35319103Y-111647990D01*
X35122010Y-111450897D01*
X34890254Y-111296043D01*
X34632740Y-111189377D01*
X34359365Y-111135000D01*
X34080635Y-111135000D01*
X33807260Y-111189377D01*
X33549746Y-111296043D01*
X33317990Y-111450897D01*
X33120897Y-111647990D01*
X32966043Y-111879746D01*
X32951223Y-111915525D01*
X32900349Y-111820345D01*
X32658421Y-111751184D01*
X31859605Y-112550000D01*
X32658421Y-113348816D01*
X32900349Y-113279655D01*
X32948425Y-113177721D01*
X32966043Y-113220254D01*
X33120897Y-113452010D01*
X33317990Y-113649103D01*
X33483400Y-113759626D01*
X33483401Y-113880374D01*
X33317990Y-113990897D01*
X33120897Y-114187990D01*
X32966043Y-114419746D01*
X32951223Y-114455525D01*
X32900349Y-114360345D01*
X32658421Y-114291184D01*
X31859605Y-115090000D01*
X32658421Y-115888816D01*
X32900349Y-115819655D01*
X32948425Y-115717721D01*
X32966043Y-115760254D01*
X33120897Y-115992010D01*
X33317990Y-116189103D01*
X33549746Y-116343957D01*
X33807260Y-116450623D01*
X34080635Y-116505000D01*
X34359365Y-116505000D01*
X34632740Y-116450623D01*
X34890254Y-116343957D01*
X35122010Y-116189103D01*
X35319103Y-115992010D01*
X35473957Y-115760254D01*
X35490000Y-115721523D01*
X35506043Y-115760254D01*
X35660897Y-115992010D01*
X35857990Y-116189103D01*
X36089746Y-116343957D01*
X36347260Y-116450623D01*
X36620635Y-116505000D01*
X36899365Y-116505000D01*
X37172740Y-116450623D01*
X37430254Y-116343957D01*
X37662010Y-116189103D01*
X37859103Y-115992010D01*
X38013957Y-115760254D01*
X38030000Y-115721523D01*
X38046043Y-115760254D01*
X38200897Y-115992010D01*
X38397990Y-116189103D01*
X38629746Y-116343957D01*
X38887260Y-116450623D01*
X39160635Y-116505000D01*
X39439365Y-116505000D01*
X39712740Y-116450623D01*
X39970254Y-116343957D01*
X40202010Y-116189103D01*
X40399103Y-115992010D01*
X40553957Y-115760254D01*
X40570000Y-115721523D01*
X40586043Y-115760254D01*
X40740897Y-115992010D01*
X40937990Y-116189103D01*
X41103400Y-116299626D01*
X41103401Y-118003807D01*
X41099836Y-118040000D01*
X41112792Y-118171532D01*
X41114059Y-118184399D01*
X41156179Y-118323249D01*
X41224577Y-118451213D01*
X41316626Y-118563375D01*
X41344732Y-118586441D01*
X43423559Y-120665269D01*
X43446625Y-120693375D01*
X43558787Y-120785424D01*
X43686751Y-120853822D01*
X43825601Y-120895942D01*
X43970000Y-120910164D01*
X44006186Y-120906600D01*
X66231591Y-120906600D01*
X66266068Y-120971101D01*
X66445392Y-121189608D01*
X66663899Y-121368932D01*
X66913192Y-121502182D01*
X67183691Y-121584236D01*
X67394508Y-121605000D01*
X67535492Y-121605000D01*
X67746309Y-121584236D01*
X68016808Y-121502182D01*
X68266101Y-121368932D01*
X68484608Y-121189608D01*
X68663932Y-120971101D01*
X68797182Y-120721808D01*
X68879236Y-120451309D01*
X68906943Y-120170000D01*
X68893023Y-120028665D01*
X76190000Y-120028665D01*
X76190000Y-120311335D01*
X76245147Y-120588574D01*
X76353320Y-120849727D01*
X76510363Y-121084759D01*
X76710241Y-121284637D01*
X76945273Y-121441680D01*
X77206426Y-121549853D01*
X77483665Y-121605000D01*
X77766335Y-121605000D01*
X78043574Y-121549853D01*
X78304727Y-121441680D01*
X78539759Y-121284637D01*
X78739637Y-121084759D01*
X78896680Y-120849727D01*
X79004853Y-120588574D01*
X79060000Y-120311335D01*
X79060000Y-120028665D01*
X79004853Y-119751426D01*
X78896680Y-119490273D01*
X78739637Y-119255241D01*
X78539759Y-119055363D01*
X78304727Y-118898320D01*
X78043574Y-118790147D01*
X77766335Y-118735000D01*
X77483665Y-118735000D01*
X77206426Y-118790147D01*
X76945273Y-118898320D01*
X76710241Y-119055363D01*
X76510363Y-119255241D01*
X76353320Y-119490273D01*
X76245147Y-119751426D01*
X76190000Y-120028665D01*
X68893023Y-120028665D01*
X68879236Y-119888691D01*
X68797182Y-119618192D01*
X68663932Y-119368899D01*
X68484608Y-119150392D01*
X68266101Y-118971068D01*
X68016808Y-118837818D01*
X67746309Y-118755764D01*
X67535492Y-118735000D01*
X67394508Y-118735000D01*
X67183691Y-118755764D01*
X66913192Y-118837818D01*
X66663899Y-118971068D01*
X66445392Y-119150392D01*
X66266068Y-119368899D01*
X66231591Y-119433400D01*
X44275110Y-119433400D01*
X42576600Y-117734891D01*
X42576600Y-116299626D01*
X42742010Y-116189103D01*
X42939103Y-115992010D01*
X43093957Y-115760254D01*
X43110000Y-115721523D01*
X43126043Y-115760254D01*
X43280897Y-115992010D01*
X43477990Y-116189103D01*
X43709746Y-116343957D01*
X43967260Y-116450623D01*
X44240635Y-116505000D01*
X44519365Y-116505000D01*
X44792740Y-116450623D01*
X45050254Y-116343957D01*
X45282010Y-116189103D01*
X45479103Y-115992010D01*
X45633957Y-115760254D01*
X45650000Y-115721523D01*
X45666043Y-115760254D01*
X45820897Y-115992010D01*
X46017990Y-116189103D01*
X46249746Y-116343957D01*
X46507260Y-116450623D01*
X46780635Y-116505000D01*
X47059365Y-116505000D01*
X47332740Y-116450623D01*
X47590254Y-116343957D01*
X47822010Y-116189103D01*
X48019103Y-115992010D01*
X48173957Y-115760254D01*
X48190000Y-115721523D01*
X48206043Y-115760254D01*
X48360897Y-115992010D01*
X48557990Y-116189103D01*
X48789746Y-116343957D01*
X49047260Y-116450623D01*
X49320635Y-116505000D01*
X49599365Y-116505000D01*
X49872740Y-116450623D01*
X50130254Y-116343957D01*
X50362010Y-116189103D01*
X50559103Y-115992010D01*
X50713957Y-115760254D01*
X50730000Y-115721523D01*
X50746043Y-115760254D01*
X50900897Y-115992010D01*
X51097990Y-116189103D01*
X51329746Y-116343957D01*
X51587260Y-116450623D01*
X51860635Y-116505000D01*
X52139365Y-116505000D01*
X52412740Y-116450623D01*
X52670254Y-116343957D01*
X52902010Y-116189103D01*
X53099103Y-115992010D01*
X53253957Y-115760254D01*
X53270000Y-115721523D01*
X53286043Y-115760254D01*
X53440897Y-115992010D01*
X53637990Y-116189103D01*
X53869746Y-116343957D01*
X54127260Y-116450623D01*
X54400635Y-116505000D01*
X54679365Y-116505000D01*
X54952740Y-116450623D01*
X55210254Y-116343957D01*
X55442010Y-116189103D01*
X55639103Y-115992010D01*
X55793957Y-115760254D01*
X55810000Y-115721523D01*
X55826043Y-115760254D01*
X55980897Y-115992010D01*
X56177990Y-116189103D01*
X56409746Y-116343957D01*
X56667260Y-116450623D01*
X56940635Y-116505000D01*
X57219365Y-116505000D01*
X57492740Y-116450623D01*
X57750254Y-116343957D01*
X57982010Y-116189103D01*
X58179103Y-115992010D01*
X58333957Y-115760254D01*
X58350000Y-115721523D01*
X58366043Y-115760254D01*
X58520897Y-115992010D01*
X58717990Y-116189103D01*
X58949746Y-116343957D01*
X59207260Y-116450623D01*
X59480635Y-116505000D01*
X59759365Y-116505000D01*
X60032740Y-116450623D01*
X60290254Y-116343957D01*
X60522010Y-116189103D01*
X60719103Y-115992010D01*
X60873957Y-115760254D01*
X60890000Y-115721523D01*
X60906043Y-115760254D01*
X61060897Y-115992010D01*
X61257990Y-116189103D01*
X61489746Y-116343957D01*
X61747260Y-116450623D01*
X62020635Y-116505000D01*
X62299365Y-116505000D01*
X62572740Y-116450623D01*
X62830254Y-116343957D01*
X63062010Y-116189103D01*
X63259103Y-115992010D01*
X63413957Y-115760254D01*
X63430000Y-115721523D01*
X63446043Y-115760254D01*
X63600897Y-115992010D01*
X63797990Y-116189103D01*
X64029746Y-116343957D01*
X64287260Y-116450623D01*
X64560635Y-116505000D01*
X64839365Y-116505000D01*
X65112740Y-116450623D01*
X65370254Y-116343957D01*
X65602010Y-116189103D01*
X65799103Y-115992010D01*
X65953957Y-115760254D01*
X65970000Y-115721523D01*
X65986043Y-115760254D01*
X66140897Y-115992010D01*
X66337990Y-116189103D01*
X66569746Y-116343957D01*
X66827260Y-116450623D01*
X67100635Y-116505000D01*
X67379365Y-116505000D01*
X67652740Y-116450623D01*
X67910254Y-116343957D01*
X68142010Y-116189103D01*
X68339103Y-115992010D01*
X68493957Y-115760254D01*
X68510000Y-115721523D01*
X68526043Y-115760254D01*
X68680897Y-115992010D01*
X68877990Y-116189103D01*
X69109746Y-116343957D01*
X69367260Y-116450623D01*
X69640635Y-116505000D01*
X69919365Y-116505000D01*
X70192740Y-116450623D01*
X70450254Y-116343957D01*
X70682010Y-116189103D01*
X70879103Y-115992010D01*
X71033957Y-115760254D01*
X71050000Y-115721523D01*
X71066043Y-115760254D01*
X71220897Y-115992010D01*
X71417990Y-116189103D01*
X71649746Y-116343957D01*
X71907260Y-116450623D01*
X72180635Y-116505000D01*
X72459365Y-116505000D01*
X72732740Y-116450623D01*
X72990254Y-116343957D01*
X73222010Y-116189103D01*
X73419103Y-115992010D01*
X73573957Y-115760254D01*
X73590000Y-115721523D01*
X73606043Y-115760254D01*
X73760897Y-115992010D01*
X73957990Y-116189103D01*
X74189746Y-116343957D01*
X74447260Y-116450623D01*
X74720635Y-116505000D01*
X74999365Y-116505000D01*
X75272740Y-116450623D01*
X75530254Y-116343957D01*
X75762010Y-116189103D01*
X75959103Y-115992010D01*
X75989469Y-115946564D01*
X75994188Y-115994482D01*
X76030498Y-116114180D01*
X76089463Y-116224494D01*
X76168815Y-116321185D01*
X76265506Y-116400537D01*
X76375820Y-116459502D01*
X76495518Y-116495812D01*
X76620000Y-116508072D01*
X78180000Y-116508072D01*
X78304482Y-116495812D01*
X78424180Y-116459502D01*
X78534494Y-116400537D01*
X78631185Y-116321185D01*
X78710537Y-116224494D01*
X78769502Y-116114180D01*
X78805812Y-115994482D01*
X78818072Y-115870000D01*
X78818072Y-114310000D01*
X78805812Y-114185518D01*
X78769502Y-114065820D01*
X78710537Y-113955506D01*
X78631185Y-113858815D01*
X78583889Y-113820000D01*
X78631185Y-113781185D01*
X78710537Y-113684494D01*
X78769502Y-113574180D01*
X78805812Y-113454482D01*
X78818072Y-113330000D01*
X78818072Y-111770000D01*
X78805812Y-111645518D01*
X78769502Y-111525820D01*
X78710537Y-111415506D01*
X78631185Y-111318815D01*
X78534494Y-111239463D01*
X78424180Y-111180498D01*
X78304482Y-111144188D01*
X78180000Y-111131928D01*
X76620000Y-111131928D01*
X76495518Y-111144188D01*
X76375820Y-111180498D01*
X76265506Y-111239463D01*
X76168815Y-111318815D01*
X76089463Y-111415506D01*
X76030498Y-111525820D01*
X75994188Y-111645518D01*
X75989469Y-111693436D01*
X75959103Y-111647990D01*
X75762010Y-111450897D01*
X75530254Y-111296043D01*
X75272740Y-111189377D01*
X74999365Y-111135000D01*
X74720635Y-111135000D01*
X74447260Y-111189377D01*
X74189746Y-111296043D01*
X73957990Y-111450897D01*
X73760897Y-111647990D01*
X73606043Y-111879746D01*
X73590000Y-111918477D01*
X73573957Y-111879746D01*
X73419103Y-111647990D01*
X73222010Y-111450897D01*
X72990254Y-111296043D01*
X72732740Y-111189377D01*
X72459365Y-111135000D01*
X72180635Y-111135000D01*
X71907260Y-111189377D01*
X71649746Y-111296043D01*
X71417990Y-111450897D01*
X71220897Y-111647990D01*
X71066043Y-111879746D01*
X71050000Y-111918477D01*
X71033957Y-111879746D01*
X70879103Y-111647990D01*
X70682010Y-111450897D01*
X70450254Y-111296043D01*
X70192740Y-111189377D01*
X69919365Y-111135000D01*
X69640635Y-111135000D01*
X69367260Y-111189377D01*
X69109746Y-111296043D01*
X68877990Y-111450897D01*
X68680897Y-111647990D01*
X68526043Y-111879746D01*
X68510000Y-111918477D01*
X68493957Y-111879746D01*
X68339103Y-111647990D01*
X68142010Y-111450897D01*
X67910254Y-111296043D01*
X67652740Y-111189377D01*
X67379365Y-111135000D01*
X67100635Y-111135000D01*
X66827260Y-111189377D01*
X66569746Y-111296043D01*
X66337990Y-111450897D01*
X66140897Y-111647990D01*
X65986043Y-111879746D01*
X65970000Y-111918477D01*
X65953957Y-111879746D01*
X65799103Y-111647990D01*
X65602010Y-111450897D01*
X65370254Y-111296043D01*
X65112740Y-111189377D01*
X64839365Y-111135000D01*
X64560635Y-111135000D01*
X64287260Y-111189377D01*
X64029746Y-111296043D01*
X63797990Y-111450897D01*
X63600897Y-111647990D01*
X63446043Y-111879746D01*
X63430000Y-111918477D01*
X63413957Y-111879746D01*
X63259103Y-111647990D01*
X63062010Y-111450897D01*
X62830254Y-111296043D01*
X62572740Y-111189377D01*
X62299365Y-111135000D01*
X62020635Y-111135000D01*
X61747260Y-111189377D01*
X61489746Y-111296043D01*
X61257990Y-111450897D01*
X61060897Y-111647990D01*
X60906043Y-111879746D01*
X60890000Y-111918477D01*
X60873957Y-111879746D01*
X60719103Y-111647990D01*
X60522010Y-111450897D01*
X60290254Y-111296043D01*
X60032740Y-111189377D01*
X59759365Y-111135000D01*
X59480635Y-111135000D01*
X59207260Y-111189377D01*
X58949746Y-111296043D01*
X58717990Y-111450897D01*
X58520897Y-111647990D01*
X58366043Y-111879746D01*
X58350000Y-111918477D01*
X58333957Y-111879746D01*
X58179103Y-111647990D01*
X57982010Y-111450897D01*
X57750254Y-111296043D01*
X57492740Y-111189377D01*
X57219365Y-111135000D01*
X56940635Y-111135000D01*
X56667260Y-111189377D01*
X56409746Y-111296043D01*
X56177990Y-111450897D01*
X55980897Y-111647990D01*
X55826043Y-111879746D01*
X55810000Y-111918477D01*
X55793957Y-111879746D01*
X55639103Y-111647990D01*
X55442010Y-111450897D01*
X55210254Y-111296043D01*
X54952740Y-111189377D01*
X54679365Y-111135000D01*
X54400635Y-111135000D01*
X54127260Y-111189377D01*
X53869746Y-111296043D01*
X53637990Y-111450897D01*
X53440897Y-111647990D01*
X53286043Y-111879746D01*
X53270000Y-111918477D01*
X53253957Y-111879746D01*
X53099103Y-111647990D01*
X52902010Y-111450897D01*
X52670254Y-111296043D01*
X52412740Y-111189377D01*
X52139365Y-111135000D01*
X51860635Y-111135000D01*
X51587260Y-111189377D01*
X51329746Y-111296043D01*
X51097990Y-111450897D01*
X50900897Y-111647990D01*
X50746043Y-111879746D01*
X50730000Y-111918477D01*
X50713957Y-111879746D01*
X50559103Y-111647990D01*
X50362010Y-111450897D01*
X50130254Y-111296043D01*
X49872740Y-111189377D01*
X49599365Y-111135000D01*
X49320635Y-111135000D01*
X49047260Y-111189377D01*
X48789746Y-111296043D01*
X48557990Y-111450897D01*
X48360897Y-111647990D01*
X48206043Y-111879746D01*
X48190000Y-111918477D01*
X48173957Y-111879746D01*
X48019103Y-111647990D01*
X47822010Y-111450897D01*
X47590254Y-111296043D01*
X47332740Y-111189377D01*
X47059365Y-111135000D01*
X46780635Y-111135000D01*
X46507260Y-111189377D01*
X46249746Y-111296043D01*
X46017990Y-111450897D01*
X45820897Y-111647990D01*
X45666043Y-111879746D01*
X45650000Y-111918477D01*
X45633957Y-111879746D01*
X45479103Y-111647990D01*
X45282010Y-111450897D01*
X45116600Y-111340374D01*
X45116600Y-109905109D01*
X60886709Y-94135000D01*
X71148000Y-94135000D01*
X71148000Y-110010000D01*
X71150440Y-110034776D01*
X71157667Y-110058601D01*
X71169403Y-110080557D01*
X71185197Y-110099803D01*
X71204443Y-110115597D01*
X71226399Y-110127333D01*
X71250224Y-110134560D01*
X71275000Y-110137000D01*
X87150000Y-110137000D01*
X87174776Y-110134560D01*
X87198601Y-110127333D01*
X87220557Y-110115597D01*
X87239803Y-110099803D01*
X87255597Y-110080557D01*
X87267333Y-110058601D01*
X87274560Y-110034776D01*
X87277000Y-110010000D01*
X87277000Y-109773453D01*
X87420285Y-109916738D01*
X87851859Y-110205107D01*
X88331399Y-110403739D01*
X88840475Y-110505000D01*
X89359525Y-110505000D01*
X89868601Y-110403739D01*
X90348141Y-110205107D01*
X90779715Y-109916738D01*
X91146738Y-109549715D01*
X91435107Y-109118141D01*
X91633739Y-108638601D01*
X91735000Y-108129525D01*
X91735000Y-107610475D01*
X91633739Y-107101399D01*
X91435107Y-106621859D01*
X91146738Y-106190285D01*
X90779715Y-105823262D01*
X90348141Y-105534893D01*
X89868601Y-105336261D01*
X89359525Y-105235000D01*
X88840475Y-105235000D01*
X88331399Y-105336261D01*
X87851859Y-105534893D01*
X87420285Y-105823262D01*
X87277000Y-105966547D01*
X87277000Y-94135000D01*
X87274560Y-94110224D01*
X87267333Y-94086399D01*
X87255597Y-94064443D01*
X87239803Y-94045197D01*
X87220557Y-94029403D01*
X87198601Y-94017667D01*
X87174776Y-94010440D01*
X87150000Y-94008000D01*
X71275000Y-94008000D01*
X71250224Y-94010440D01*
X71226399Y-94017667D01*
X71204443Y-94029403D01*
X71185197Y-94045197D01*
X71169403Y-94064443D01*
X71157667Y-94086399D01*
X71150440Y-94110224D01*
X71148000Y-94135000D01*
X60886709Y-94135000D01*
X62655274Y-92366436D01*
X62683374Y-92343375D01*
X62706437Y-92315273D01*
X62706442Y-92315268D01*
X62775423Y-92231214D01*
X62775424Y-92231213D01*
X62843822Y-92103249D01*
X62885942Y-91964399D01*
X62896600Y-91856186D01*
X62896600Y-91856177D01*
X62900163Y-91820001D01*
X62896600Y-91783825D01*
X62896600Y-90899626D01*
X63062010Y-90789103D01*
X63259103Y-90592010D01*
X63413957Y-90360254D01*
X63430000Y-90321523D01*
X63446043Y-90360254D01*
X63600897Y-90592010D01*
X63797990Y-90789103D01*
X64029746Y-90943957D01*
X64287260Y-91050623D01*
X64560635Y-91105000D01*
X64839365Y-91105000D01*
X65112740Y-91050623D01*
X65370254Y-90943957D01*
X65602010Y-90789103D01*
X65799103Y-90592010D01*
X65953957Y-90360254D01*
X65970000Y-90321523D01*
X65986043Y-90360254D01*
X66140897Y-90592010D01*
X66337990Y-90789103D01*
X66569746Y-90943957D01*
X66827260Y-91050623D01*
X67100635Y-91105000D01*
X67379365Y-91105000D01*
X67652740Y-91050623D01*
X67910254Y-90943957D01*
X68142010Y-90789103D01*
X68339103Y-90592010D01*
X68493957Y-90360254D01*
X68510000Y-90321523D01*
X68526043Y-90360254D01*
X68680897Y-90592010D01*
X68877990Y-90789103D01*
X69109746Y-90943957D01*
X69367260Y-91050623D01*
X69640635Y-91105000D01*
X69919365Y-91105000D01*
X70192740Y-91050623D01*
X70450254Y-90943957D01*
X70682010Y-90789103D01*
X70879103Y-90592010D01*
X71033957Y-90360254D01*
X71050000Y-90321523D01*
X71066043Y-90360254D01*
X71220897Y-90592010D01*
X71417990Y-90789103D01*
X71649746Y-90943957D01*
X71907260Y-91050623D01*
X72180635Y-91105000D01*
X72459365Y-91105000D01*
X72732740Y-91050623D01*
X72990254Y-90943957D01*
X73222010Y-90789103D01*
X73419103Y-90592010D01*
X73573957Y-90360254D01*
X73590000Y-90321523D01*
X73606043Y-90360254D01*
X73760897Y-90592010D01*
X73957990Y-90789103D01*
X74189746Y-90943957D01*
X74447260Y-91050623D01*
X74720635Y-91105000D01*
X74999365Y-91105000D01*
X75272740Y-91050623D01*
X75530254Y-90943957D01*
X75762010Y-90789103D01*
X75959103Y-90592010D01*
X76113957Y-90360254D01*
X76130000Y-90321523D01*
X76146043Y-90360254D01*
X76300897Y-90592010D01*
X76497990Y-90789103D01*
X76729746Y-90943957D01*
X76987260Y-91050623D01*
X77260635Y-91105000D01*
X77539365Y-91105000D01*
X77812740Y-91050623D01*
X78070254Y-90943957D01*
X78302010Y-90789103D01*
X78499103Y-90592010D01*
X78653957Y-90360254D01*
X78760623Y-90102740D01*
X78815000Y-89829365D01*
X78815000Y-89550635D01*
X78760623Y-89277260D01*
X78653957Y-89019746D01*
X78499103Y-88787990D01*
X78302010Y-88590897D01*
X78136600Y-88480374D01*
X78136600Y-88315115D01*
X78323816Y-88127900D01*
X78356321Y-88127900D01*
X78545249Y-88090320D01*
X78723216Y-88016604D01*
X78883381Y-87909585D01*
X79019591Y-87773375D01*
X79126610Y-87613210D01*
X79200326Y-87435243D01*
X79237906Y-87246315D01*
X79237906Y-87053685D01*
X79200326Y-86864757D01*
X79126610Y-86686790D01*
X79019591Y-86526625D01*
X78883381Y-86390415D01*
X78723216Y-86283396D01*
X78545249Y-86209680D01*
X78356321Y-86172100D01*
X78163691Y-86172100D01*
X77974763Y-86209680D01*
X77796796Y-86283396D01*
X77636631Y-86390415D01*
X77500421Y-86526625D01*
X77393402Y-86686790D01*
X77319686Y-86864757D01*
X77282106Y-87053685D01*
X77282106Y-87086190D01*
X76904732Y-87463565D01*
X76876626Y-87486631D01*
X76853560Y-87514737D01*
X76853558Y-87514739D01*
X76784576Y-87598794D01*
X76716178Y-87726759D01*
X76674059Y-87865608D01*
X76659836Y-88010006D01*
X76663401Y-88046199D01*
X76663401Y-88480373D01*
X76497990Y-88590897D01*
X76300897Y-88787990D01*
X76146043Y-89019746D01*
X76130000Y-89058477D01*
X76113957Y-89019746D01*
X75959103Y-88787990D01*
X75762010Y-88590897D01*
X75530254Y-88436043D01*
X75272740Y-88329377D01*
X74999365Y-88275000D01*
X74720635Y-88275000D01*
X74447260Y-88329377D01*
X74189746Y-88436043D01*
X73957990Y-88590897D01*
X73760897Y-88787990D01*
X73606043Y-89019746D01*
X73590000Y-89058477D01*
X73573957Y-89019746D01*
X73419103Y-88787990D01*
X73222010Y-88590897D01*
X72990254Y-88436043D01*
X72732740Y-88329377D01*
X72459365Y-88275000D01*
X72180635Y-88275000D01*
X71907260Y-88329377D01*
X71649746Y-88436043D01*
X71417990Y-88590897D01*
X71220897Y-88787990D01*
X71066043Y-89019746D01*
X71050000Y-89058477D01*
X71033957Y-89019746D01*
X70879103Y-88787990D01*
X70682010Y-88590897D01*
X70450254Y-88436043D01*
X70192740Y-88329377D01*
X69919365Y-88275000D01*
X69640635Y-88275000D01*
X69367260Y-88329377D01*
X69109746Y-88436043D01*
X68877990Y-88590897D01*
X68680897Y-88787990D01*
X68526043Y-89019746D01*
X68510000Y-89058477D01*
X68493957Y-89019746D01*
X68339103Y-88787990D01*
X68142010Y-88590897D01*
X67910254Y-88436043D01*
X67652740Y-88329377D01*
X67379365Y-88275000D01*
X67100635Y-88275000D01*
X66827260Y-88329377D01*
X66569746Y-88436043D01*
X66337990Y-88590897D01*
X66140897Y-88787990D01*
X65986043Y-89019746D01*
X65970000Y-89058477D01*
X65953957Y-89019746D01*
X65799103Y-88787990D01*
X65602010Y-88590897D01*
X65429183Y-88475418D01*
X65425942Y-88442515D01*
X65383822Y-88303665D01*
X65315424Y-88175701D01*
X65223375Y-88063539D01*
X65195269Y-88040473D01*
X58729532Y-81574737D01*
X58706461Y-81546625D01*
X58594299Y-81454576D01*
X58466335Y-81386178D01*
X58327485Y-81344058D01*
X58219272Y-81333400D01*
X58219269Y-81333400D01*
X58183086Y-81329836D01*
X58146903Y-81333400D01*
X46815110Y-81333400D01*
X42166600Y-76684891D01*
X42166600Y-64762408D01*
X76863000Y-64762408D01*
X76863000Y-65037592D01*
X76916686Y-65307490D01*
X77021995Y-65561727D01*
X77174880Y-65790535D01*
X77369465Y-65985120D01*
X77598273Y-66138005D01*
X77852510Y-66243314D01*
X78122408Y-66297000D01*
X78397592Y-66297000D01*
X78667490Y-66243314D01*
X78921727Y-66138005D01*
X79150535Y-65985120D01*
X79270090Y-65865565D01*
X80014040Y-65865565D01*
X80081020Y-66105656D01*
X80330048Y-66222756D01*
X80597135Y-66289023D01*
X80872017Y-66301910D01*
X81144133Y-66260922D01*
X81403023Y-66167636D01*
X81518980Y-66105656D01*
X81585960Y-65865565D01*
X80800000Y-65079605D01*
X80014040Y-65865565D01*
X79270090Y-65865565D01*
X79345120Y-65790535D01*
X79498005Y-65561727D01*
X79527692Y-65490057D01*
X79532364Y-65503023D01*
X79594344Y-65618980D01*
X79834435Y-65685960D01*
X80620395Y-64900000D01*
X80979605Y-64900000D01*
X81765565Y-65685960D01*
X82005656Y-65618980D01*
X82122756Y-65369952D01*
X82189023Y-65102865D01*
X82201910Y-64827983D01*
X82192033Y-64762408D01*
X87023000Y-64762408D01*
X87023000Y-65037592D01*
X87076686Y-65307490D01*
X87181995Y-65561727D01*
X87334880Y-65790535D01*
X87529465Y-65985120D01*
X87758273Y-66138005D01*
X88012510Y-66243314D01*
X88282408Y-66297000D01*
X88557592Y-66297000D01*
X88827490Y-66243314D01*
X89081727Y-66138005D01*
X89310535Y-65985120D01*
X89505120Y-65790535D01*
X89658005Y-65561727D01*
X89690000Y-65484485D01*
X89721995Y-65561727D01*
X89874880Y-65790535D01*
X90069465Y-65985120D01*
X90298273Y-66138005D01*
X90552510Y-66243314D01*
X90822408Y-66297000D01*
X91097592Y-66297000D01*
X91367490Y-66243314D01*
X91621727Y-66138005D01*
X91850535Y-65985120D01*
X92045120Y-65790535D01*
X92198005Y-65561727D01*
X92220000Y-65508627D01*
X92241995Y-65561727D01*
X92394880Y-65790535D01*
X92589465Y-65985120D01*
X92743400Y-66087976D01*
X92743401Y-113529415D01*
X92521495Y-113677688D01*
X92307688Y-113891495D01*
X92250000Y-113977831D01*
X92192312Y-113891495D01*
X91978505Y-113677688D01*
X91727095Y-113509701D01*
X91447743Y-113393989D01*
X91151184Y-113335000D01*
X90848816Y-113335000D01*
X90552257Y-113393989D01*
X90272905Y-113509701D01*
X90021495Y-113677688D01*
X89807688Y-113891495D01*
X89639701Y-114142905D01*
X89523989Y-114422257D01*
X89465000Y-114718816D01*
X89465000Y-115021184D01*
X89523989Y-115317743D01*
X89639701Y-115597095D01*
X89807688Y-115848505D01*
X90021495Y-116062312D01*
X90272905Y-116230299D01*
X90552257Y-116346011D01*
X90848816Y-116405000D01*
X91151184Y-116405000D01*
X91447743Y-116346011D01*
X91727095Y-116230299D01*
X91978505Y-116062312D01*
X92192312Y-115848505D01*
X92250000Y-115762169D01*
X92307688Y-115848505D01*
X92521495Y-116062312D01*
X92772905Y-116230299D01*
X93052257Y-116346011D01*
X93348816Y-116405000D01*
X93651184Y-116405000D01*
X93947743Y-116346011D01*
X94227095Y-116230299D01*
X94478505Y-116062312D01*
X94692312Y-115848505D01*
X94750000Y-115762169D01*
X94807688Y-115848505D01*
X95021495Y-116062312D01*
X95272905Y-116230299D01*
X95552257Y-116346011D01*
X95848816Y-116405000D01*
X96151184Y-116405000D01*
X96447743Y-116346011D01*
X96727095Y-116230299D01*
X96978505Y-116062312D01*
X97192312Y-115848505D01*
X97360299Y-115597095D01*
X97476011Y-115317743D01*
X97535000Y-115021184D01*
X97535000Y-114943967D01*
X112875000Y-114943967D01*
X112875000Y-115266033D01*
X112937832Y-115581912D01*
X113061082Y-115879463D01*
X113240013Y-116147252D01*
X113467748Y-116374987D01*
X113735537Y-116553918D01*
X114033088Y-116677168D01*
X114348967Y-116740000D01*
X114671033Y-116740000D01*
X114986912Y-116677168D01*
X115284463Y-116553918D01*
X115552252Y-116374987D01*
X115779987Y-116147252D01*
X115958918Y-115879463D01*
X116082168Y-115581912D01*
X116145000Y-115266033D01*
X116145000Y-114943967D01*
X117875000Y-114943967D01*
X117875000Y-115266033D01*
X117937832Y-115581912D01*
X118061082Y-115879463D01*
X118240013Y-116147252D01*
X118467748Y-116374987D01*
X118735537Y-116553918D01*
X119033088Y-116677168D01*
X119348967Y-116740000D01*
X119671033Y-116740000D01*
X119986912Y-116677168D01*
X120284463Y-116553918D01*
X120552252Y-116374987D01*
X120779987Y-116147252D01*
X120958918Y-115879463D01*
X121082168Y-115581912D01*
X121145000Y-115266033D01*
X121145000Y-114943967D01*
X121082168Y-114628088D01*
X120958918Y-114330537D01*
X120779987Y-114062748D01*
X120552252Y-113835013D01*
X120284463Y-113656082D01*
X119986912Y-113532832D01*
X119671033Y-113470000D01*
X119348967Y-113470000D01*
X119033088Y-113532832D01*
X118735537Y-113656082D01*
X118467748Y-113835013D01*
X118240013Y-114062748D01*
X118061082Y-114330537D01*
X117937832Y-114628088D01*
X117875000Y-114943967D01*
X116145000Y-114943967D01*
X116082168Y-114628088D01*
X115958918Y-114330537D01*
X115779987Y-114062748D01*
X115552252Y-113835013D01*
X115284463Y-113656082D01*
X114986912Y-113532832D01*
X114671033Y-113470000D01*
X114348967Y-113470000D01*
X114033088Y-113532832D01*
X113735537Y-113656082D01*
X113467748Y-113835013D01*
X113240013Y-114062748D01*
X113061082Y-114330537D01*
X112937832Y-114628088D01*
X112875000Y-114943967D01*
X97535000Y-114943967D01*
X97535000Y-114718816D01*
X97476011Y-114422257D01*
X97360299Y-114142905D01*
X97192312Y-113891495D01*
X96978505Y-113677688D01*
X96727095Y-113509701D01*
X96447743Y-113393989D01*
X96151184Y-113335000D01*
X95848816Y-113335000D01*
X95552257Y-113393989D01*
X95272905Y-113509701D01*
X95021495Y-113677688D01*
X94807688Y-113891495D01*
X94750000Y-113977831D01*
X94692312Y-113891495D01*
X94478505Y-113677688D01*
X94227095Y-113509701D01*
X94216600Y-113505354D01*
X94216600Y-107610475D01*
X95265000Y-107610475D01*
X95265000Y-108129525D01*
X95366261Y-108638601D01*
X95564893Y-109118141D01*
X95853262Y-109549715D01*
X96220285Y-109916738D01*
X96651859Y-110205107D01*
X97131399Y-110403739D01*
X97640475Y-110505000D01*
X98159525Y-110505000D01*
X98668601Y-110403739D01*
X99148141Y-110205107D01*
X99579715Y-109916738D01*
X99946738Y-109549715D01*
X100235107Y-109118141D01*
X100433739Y-108638601D01*
X100535000Y-108129525D01*
X100535000Y-107610475D01*
X100433739Y-107101399D01*
X100235107Y-106621859D01*
X100023389Y-106305000D01*
X109271928Y-106305000D01*
X109271928Y-109905000D01*
X109284188Y-110029482D01*
X109320498Y-110149180D01*
X109379463Y-110259494D01*
X109458815Y-110356185D01*
X109555506Y-110435537D01*
X109665820Y-110494502D01*
X109785518Y-110530812D01*
X109910000Y-110543072D01*
X112710000Y-110543072D01*
X112834482Y-110530812D01*
X112954180Y-110494502D01*
X113064494Y-110435537D01*
X113161185Y-110356185D01*
X113240537Y-110259494D01*
X113299502Y-110149180D01*
X113335812Y-110029482D01*
X113348072Y-109905000D01*
X113348072Y-106305000D01*
X120671928Y-106305000D01*
X120671928Y-109905000D01*
X120684188Y-110029482D01*
X120720498Y-110149180D01*
X120779463Y-110259494D01*
X120858815Y-110356185D01*
X120955506Y-110435537D01*
X121065820Y-110494502D01*
X121185518Y-110530812D01*
X121310000Y-110543072D01*
X124110000Y-110543072D01*
X124234482Y-110530812D01*
X124354180Y-110494502D01*
X124464494Y-110435537D01*
X124561185Y-110356185D01*
X124640537Y-110259494D01*
X124699502Y-110149180D01*
X124735812Y-110029482D01*
X124748072Y-109905000D01*
X124748072Y-106305000D01*
X124735812Y-106180518D01*
X124699502Y-106060820D01*
X124640537Y-105950506D01*
X124561185Y-105853815D01*
X124464494Y-105774463D01*
X124354180Y-105715498D01*
X124234482Y-105679188D01*
X124110000Y-105666928D01*
X121310000Y-105666928D01*
X121185518Y-105679188D01*
X121065820Y-105715498D01*
X120955506Y-105774463D01*
X120858815Y-105853815D01*
X120779463Y-105950506D01*
X120720498Y-106060820D01*
X120684188Y-106180518D01*
X120671928Y-106305000D01*
X113348072Y-106305000D01*
X113335812Y-106180518D01*
X113299502Y-106060820D01*
X113240537Y-105950506D01*
X113161185Y-105853815D01*
X113064494Y-105774463D01*
X112954180Y-105715498D01*
X112834482Y-105679188D01*
X112710000Y-105666928D01*
X109910000Y-105666928D01*
X109785518Y-105679188D01*
X109665820Y-105715498D01*
X109555506Y-105774463D01*
X109458815Y-105853815D01*
X109379463Y-105950506D01*
X109320498Y-106060820D01*
X109284188Y-106180518D01*
X109271928Y-106305000D01*
X100023389Y-106305000D01*
X99946738Y-106190285D01*
X99579715Y-105823262D01*
X99148141Y-105534893D01*
X98668601Y-105336261D01*
X98159525Y-105235000D01*
X97640475Y-105235000D01*
X97131399Y-105336261D01*
X96651859Y-105534893D01*
X96220285Y-105823262D01*
X95853262Y-106190285D01*
X95564893Y-106621859D01*
X95366261Y-107101399D01*
X95265000Y-107610475D01*
X94216600Y-107610475D01*
X94216600Y-100443967D01*
X112875000Y-100443967D01*
X112875000Y-100766033D01*
X112937832Y-101081912D01*
X113061082Y-101379463D01*
X113240013Y-101647252D01*
X113467748Y-101874987D01*
X113735537Y-102053918D01*
X114033088Y-102177168D01*
X114348967Y-102240000D01*
X114671033Y-102240000D01*
X114986912Y-102177168D01*
X115284463Y-102053918D01*
X115552252Y-101874987D01*
X115760000Y-101667239D01*
X115967748Y-101874987D01*
X116235537Y-102053918D01*
X116533088Y-102177168D01*
X116848967Y-102240000D01*
X117171033Y-102240000D01*
X117486912Y-102177168D01*
X117784463Y-102053918D01*
X118052252Y-101874987D01*
X118260000Y-101667239D01*
X118467748Y-101874987D01*
X118735537Y-102053918D01*
X119033088Y-102177168D01*
X119348967Y-102240000D01*
X119671033Y-102240000D01*
X119986912Y-102177168D01*
X120284463Y-102053918D01*
X120552252Y-101874987D01*
X120779987Y-101647252D01*
X120958918Y-101379463D01*
X121082168Y-101081912D01*
X121145000Y-100766033D01*
X121145000Y-100443967D01*
X121082168Y-100128088D01*
X120958918Y-99830537D01*
X120779987Y-99562748D01*
X120552252Y-99335013D01*
X120284463Y-99156082D01*
X119986912Y-99032832D01*
X119671033Y-98970000D01*
X119348967Y-98970000D01*
X119033088Y-99032832D01*
X118735537Y-99156082D01*
X118467748Y-99335013D01*
X118260000Y-99542761D01*
X118052252Y-99335013D01*
X117784463Y-99156082D01*
X117486912Y-99032832D01*
X117171033Y-98970000D01*
X116848967Y-98970000D01*
X116533088Y-99032832D01*
X116235537Y-99156082D01*
X115967748Y-99335013D01*
X115760000Y-99542761D01*
X115552252Y-99335013D01*
X115284463Y-99156082D01*
X114986912Y-99032832D01*
X114671033Y-98970000D01*
X114348967Y-98970000D01*
X114033088Y-99032832D01*
X113735537Y-99156082D01*
X113467748Y-99335013D01*
X113240013Y-99562748D01*
X113061082Y-99830537D01*
X112937832Y-100128088D01*
X112875000Y-100443967D01*
X94216600Y-100443967D01*
X94216600Y-66087976D01*
X94370535Y-65985120D01*
X94565120Y-65790535D01*
X94718005Y-65561727D01*
X94823314Y-65307490D01*
X94877000Y-65037592D01*
X94877000Y-64762408D01*
X94823314Y-64492510D01*
X94718005Y-64238273D01*
X94565120Y-64009465D01*
X94370535Y-63814880D01*
X94141727Y-63661995D01*
X93887490Y-63556686D01*
X93617592Y-63503000D01*
X93342408Y-63503000D01*
X93072510Y-63556686D01*
X92818273Y-63661995D01*
X92589465Y-63814880D01*
X92394880Y-64009465D01*
X92241995Y-64238273D01*
X92220000Y-64291373D01*
X92198005Y-64238273D01*
X92045120Y-64009465D01*
X91850535Y-63814880D01*
X91621727Y-63661995D01*
X91367490Y-63556686D01*
X91097592Y-63503000D01*
X90822408Y-63503000D01*
X90552510Y-63556686D01*
X90298273Y-63661995D01*
X90069465Y-63814880D01*
X89874880Y-64009465D01*
X89721995Y-64238273D01*
X89690000Y-64315515D01*
X89658005Y-64238273D01*
X89505120Y-64009465D01*
X89310535Y-63814880D01*
X89081727Y-63661995D01*
X88827490Y-63556686D01*
X88557592Y-63503000D01*
X88282408Y-63503000D01*
X88012510Y-63556686D01*
X87758273Y-63661995D01*
X87529465Y-63814880D01*
X87334880Y-64009465D01*
X87181995Y-64238273D01*
X87076686Y-64492510D01*
X87023000Y-64762408D01*
X82192033Y-64762408D01*
X82160922Y-64555867D01*
X82067636Y-64296977D01*
X82005656Y-64181020D01*
X81765565Y-64114040D01*
X80979605Y-64900000D01*
X80620395Y-64900000D01*
X79834435Y-64114040D01*
X79594344Y-64181020D01*
X79530515Y-64316760D01*
X79498005Y-64238273D01*
X79345120Y-64009465D01*
X79270090Y-63934435D01*
X80014040Y-63934435D01*
X80800000Y-64720395D01*
X81585960Y-63934435D01*
X81518980Y-63694344D01*
X81269952Y-63577244D01*
X81002865Y-63510977D01*
X80727983Y-63498090D01*
X80455867Y-63539078D01*
X80196977Y-63632364D01*
X80081020Y-63694344D01*
X80014040Y-63934435D01*
X79270090Y-63934435D01*
X79150535Y-63814880D01*
X78921727Y-63661995D01*
X78667490Y-63556686D01*
X78397592Y-63503000D01*
X78122408Y-63503000D01*
X77852510Y-63556686D01*
X77598273Y-63661995D01*
X77369465Y-63814880D01*
X77174880Y-64009465D01*
X77021995Y-64238273D01*
X76916686Y-64492510D01*
X76863000Y-64762408D01*
X42166600Y-64762408D01*
X42166600Y-55556186D01*
X42170164Y-55520000D01*
X42155942Y-55375601D01*
X42113822Y-55236752D01*
X42113822Y-55236751D01*
X42045424Y-55108787D01*
X42016312Y-55073314D01*
X41976442Y-55024732D01*
X41976441Y-55024731D01*
X41953375Y-54996625D01*
X41925269Y-54973559D01*
X40693816Y-53742107D01*
X40795000Y-53752072D01*
X42319000Y-53752072D01*
X42443482Y-53739812D01*
X42563180Y-53703502D01*
X42673494Y-53644537D01*
X42770185Y-53565185D01*
X42849537Y-53468494D01*
X42908502Y-53358180D01*
X42944812Y-53238482D01*
X42957072Y-53114000D01*
X42957072Y-51590000D01*
X42944812Y-51465518D01*
X42908502Y-51345820D01*
X42849537Y-51235506D01*
X42770185Y-51138815D01*
X42673494Y-51059463D01*
X42563180Y-51000498D01*
X42443482Y-50964188D01*
X42319000Y-50951928D01*
X40795000Y-50951928D01*
X40670518Y-50964188D01*
X40550820Y-51000498D01*
X40440506Y-51059463D01*
X40343815Y-51138815D01*
X40264463Y-51235506D01*
X40205498Y-51345820D01*
X40169188Y-51465518D01*
X40156928Y-51590000D01*
X40156928Y-53114000D01*
X40166893Y-53215184D01*
X38440881Y-51489172D01*
X38477000Y-51307592D01*
X38477000Y-51032408D01*
X38438688Y-50839799D01*
X44351966Y-50839799D01*
X46461908Y-52949742D01*
X46489743Y-52983659D01*
X46625111Y-53094753D01*
X46779551Y-53177303D01*
X46874160Y-53206002D01*
X46947127Y-53228136D01*
X46965475Y-53229943D01*
X47077735Y-53241000D01*
X47077741Y-53241000D01*
X47121401Y-53245300D01*
X47165061Y-53241000D01*
X49313952Y-53241000D01*
X49349498Y-53358180D01*
X49408463Y-53468494D01*
X49487815Y-53565185D01*
X49584506Y-53644537D01*
X49694820Y-53703502D01*
X49814518Y-53739812D01*
X49939000Y-53752072D01*
X51463000Y-53752072D01*
X51587482Y-53739812D01*
X51707180Y-53703502D01*
X51817494Y-53644537D01*
X51914185Y-53565185D01*
X51993537Y-53468494D01*
X52052502Y-53358180D01*
X52088812Y-53238482D01*
X52101072Y-53114000D01*
X52101072Y-51590000D01*
X52088812Y-51465518D01*
X52052502Y-51345820D01*
X51993537Y-51235506D01*
X51914185Y-51138815D01*
X51817494Y-51059463D01*
X51707180Y-51000498D01*
X51587482Y-50964188D01*
X51463000Y-50951928D01*
X49939000Y-50951928D01*
X49814518Y-50964188D01*
X49694820Y-51000498D01*
X49584506Y-51059463D01*
X49487815Y-51138815D01*
X49408463Y-51235506D01*
X49349498Y-51345820D01*
X49313952Y-51463000D01*
X47489638Y-51463000D01*
X45379700Y-49353063D01*
X45351860Y-49319140D01*
X45216492Y-49208046D01*
X45062052Y-49125496D01*
X44894475Y-49074663D01*
X44763868Y-49061799D01*
X44763861Y-49061799D01*
X44720201Y-49057499D01*
X44676541Y-49061799D01*
X38413245Y-49061799D01*
X38423314Y-49037490D01*
X38477000Y-48767592D01*
X38477000Y-48492408D01*
X38423314Y-48222510D01*
X38318005Y-47968273D01*
X38165120Y-47739465D01*
X37970535Y-47544880D01*
X37741727Y-47391995D01*
X37664485Y-47360000D01*
X37741727Y-47328005D01*
X37970535Y-47175120D01*
X38165120Y-46980535D01*
X38318005Y-46751727D01*
X38423314Y-46497490D01*
X38477000Y-46227592D01*
X38477000Y-45952408D01*
X38439207Y-45762408D01*
X76863000Y-45762408D01*
X76863000Y-46037592D01*
X76916686Y-46307490D01*
X77021995Y-46561727D01*
X77174880Y-46790535D01*
X77369465Y-46985120D01*
X77598273Y-47138005D01*
X77852510Y-47243314D01*
X78122408Y-47297000D01*
X78397592Y-47297000D01*
X78667490Y-47243314D01*
X78921727Y-47138005D01*
X79150535Y-46985120D01*
X79345120Y-46790535D01*
X79498005Y-46561727D01*
X79530000Y-46484485D01*
X79561995Y-46561727D01*
X79714880Y-46790535D01*
X79909465Y-46985120D01*
X80138273Y-47138005D01*
X80392510Y-47243314D01*
X80662408Y-47297000D01*
X80937592Y-47297000D01*
X81207490Y-47243314D01*
X81461727Y-47138005D01*
X81690535Y-46985120D01*
X81885120Y-46790535D01*
X82038005Y-46561727D01*
X82143314Y-46307490D01*
X82197000Y-46037592D01*
X82197000Y-45762408D01*
X82143314Y-45492510D01*
X82038005Y-45238273D01*
X81885120Y-45009465D01*
X81690535Y-44814880D01*
X81461727Y-44661995D01*
X81207490Y-44556686D01*
X80937592Y-44503000D01*
X80662408Y-44503000D01*
X80392510Y-44556686D01*
X80138273Y-44661995D01*
X79909465Y-44814880D01*
X79714880Y-45009465D01*
X79561995Y-45238273D01*
X79530000Y-45315515D01*
X79498005Y-45238273D01*
X79345120Y-45009465D01*
X79150535Y-44814880D01*
X78921727Y-44661995D01*
X78667490Y-44556686D01*
X78397592Y-44503000D01*
X78122408Y-44503000D01*
X77852510Y-44556686D01*
X77598273Y-44661995D01*
X77369465Y-44814880D01*
X77174880Y-45009465D01*
X77021995Y-45238273D01*
X76916686Y-45492510D01*
X76863000Y-45762408D01*
X38439207Y-45762408D01*
X38423314Y-45682510D01*
X38318005Y-45428273D01*
X38165120Y-45199465D01*
X37970535Y-45004880D01*
X37741727Y-44851995D01*
X37664485Y-44820000D01*
X37741727Y-44788005D01*
X37970535Y-44635120D01*
X38165120Y-44440535D01*
X38318005Y-44211727D01*
X38423314Y-43957490D01*
X38477000Y-43687592D01*
X38477000Y-43412408D01*
X38423314Y-43142510D01*
X38318005Y-42888273D01*
X38165120Y-42659465D01*
X37970535Y-42464880D01*
X37741727Y-42311995D01*
X37670057Y-42282308D01*
X37683023Y-42277636D01*
X37798980Y-42215656D01*
X37865960Y-41975565D01*
X37080000Y-41189605D01*
X36294040Y-41975565D01*
X36361020Y-42215656D01*
X36496760Y-42279485D01*
X36418273Y-42311995D01*
X36189465Y-42464880D01*
X35994880Y-42659465D01*
X35841995Y-42888273D01*
X35736686Y-43142510D01*
X35683000Y-43412408D01*
X35683000Y-43687592D01*
X35736686Y-43957490D01*
X35841995Y-44211727D01*
X35994880Y-44440535D01*
X36189465Y-44635120D01*
X36418273Y-44788005D01*
X36495515Y-44820000D01*
X36418273Y-44851995D01*
X36189465Y-45004880D01*
X35994880Y-45199465D01*
X35841995Y-45428273D01*
X35736686Y-45682510D01*
X35683000Y-45952408D01*
X35683000Y-46227592D01*
X35736686Y-46497490D01*
X35841995Y-46751727D01*
X35994880Y-46980535D01*
X36189465Y-47175120D01*
X36418273Y-47328005D01*
X36495515Y-47360000D01*
X36418273Y-47391995D01*
X36189465Y-47544880D01*
X35994880Y-47739465D01*
X35872494Y-47922628D01*
X35857971Y-47924058D01*
X35719121Y-47966178D01*
X35591157Y-48034576D01*
X35478995Y-48126625D01*
X35455929Y-48154731D01*
X34027261Y-49583400D01*
X33773409Y-49583400D01*
X33738932Y-49518899D01*
X33559608Y-49300392D01*
X33341101Y-49121068D01*
X33091808Y-48987818D01*
X32821309Y-48905764D01*
X32610492Y-48885000D01*
X32469508Y-48885000D01*
X32258691Y-48905764D01*
X31988192Y-48987818D01*
X31738899Y-49121068D01*
X31520392Y-49300392D01*
X31341068Y-49518899D01*
X31207818Y-49768192D01*
X31125764Y-50038691D01*
X31098057Y-50320000D01*
X31125764Y-50601309D01*
X31207818Y-50871808D01*
X31341068Y-51121101D01*
X31520392Y-51339608D01*
X31738899Y-51518932D01*
X31988192Y-51652182D01*
X32258691Y-51734236D01*
X32469508Y-51755000D01*
X32610492Y-51755000D01*
X32821309Y-51734236D01*
X33013972Y-51675793D01*
X31942259Y-52747506D01*
X31908342Y-52775341D01*
X31880507Y-52809258D01*
X31880505Y-52809260D01*
X31797248Y-52910709D01*
X31714698Y-53065148D01*
X31663864Y-53232726D01*
X31659212Y-53279960D01*
X31565518Y-53289188D01*
X31445820Y-53325498D01*
X31335506Y-53384463D01*
X31238815Y-53463815D01*
X31159463Y-53560506D01*
X31100498Y-53670820D01*
X31064188Y-53790518D01*
X31051928Y-53915000D01*
X31051928Y-55615000D01*
X31064188Y-55739482D01*
X31100498Y-55859180D01*
X31159463Y-55969494D01*
X31238815Y-56066185D01*
X31335506Y-56145537D01*
X31445820Y-56204502D01*
X31526466Y-56228966D01*
X31442412Y-56304731D01*
X31268359Y-56538080D01*
X31143175Y-56800901D01*
X31098524Y-56948110D01*
X31219845Y-57178000D01*
X32413000Y-57178000D01*
X32413000Y-57158000D01*
X32667000Y-57158000D01*
X32667000Y-57178000D01*
X33860155Y-57178000D01*
X33981476Y-56948110D01*
X33936825Y-56800901D01*
X33811641Y-56538080D01*
X33637588Y-56304731D01*
X33553534Y-56228966D01*
X33634180Y-56204502D01*
X33744494Y-56145537D01*
X33841185Y-56066185D01*
X33920537Y-55969494D01*
X33979502Y-55859180D01*
X34015812Y-55739482D01*
X34028072Y-55615000D01*
X34028072Y-53915000D01*
X34015812Y-53790518D01*
X33979502Y-53670820D01*
X33920537Y-53560506D01*
X33841185Y-53463815D01*
X33785840Y-53418395D01*
X35718446Y-51485789D01*
X35736686Y-51577490D01*
X35841995Y-51831727D01*
X35994880Y-52060535D01*
X36189465Y-52255120D01*
X36418273Y-52408005D01*
X36495515Y-52440000D01*
X36418273Y-52471995D01*
X36189465Y-52624880D01*
X35994880Y-52819465D01*
X35841995Y-53048273D01*
X35736686Y-53302510D01*
X35683000Y-53572408D01*
X35683000Y-53847592D01*
X35736686Y-54117490D01*
X35841995Y-54371727D01*
X35994880Y-54600535D01*
X36189465Y-54795120D01*
X36418273Y-54948005D01*
X36495515Y-54980000D01*
X36418273Y-55011995D01*
X36189465Y-55164880D01*
X35994880Y-55359465D01*
X35841995Y-55588273D01*
X35736686Y-55842510D01*
X35683000Y-56112408D01*
X35683000Y-56387592D01*
X35736686Y-56657490D01*
X35841995Y-56911727D01*
X35994880Y-57140535D01*
X36189465Y-57335120D01*
X36418273Y-57488005D01*
X36489943Y-57517692D01*
X36476977Y-57522364D01*
X36361020Y-57584344D01*
X36294040Y-57824435D01*
X37080000Y-58610395D01*
X37094143Y-58596253D01*
X37273748Y-58775858D01*
X37259605Y-58790000D01*
X38045565Y-59575960D01*
X38153401Y-59545876D01*
X38153401Y-60427746D01*
X37970535Y-60244880D01*
X37741727Y-60091995D01*
X37670057Y-60062308D01*
X37683023Y-60057636D01*
X37798980Y-59995656D01*
X37865960Y-59755565D01*
X37080000Y-58969605D01*
X36294040Y-59755565D01*
X36361020Y-59995656D01*
X36496760Y-60059485D01*
X36418273Y-60091995D01*
X36189465Y-60244880D01*
X35994880Y-60439465D01*
X35841995Y-60668273D01*
X35736686Y-60922510D01*
X35683000Y-61192408D01*
X35683000Y-61467592D01*
X35736686Y-61737490D01*
X35833393Y-61970960D01*
X34002356Y-60139924D01*
X34003513Y-60136111D01*
X34032185Y-59845000D01*
X34003513Y-59553889D01*
X33918599Y-59273966D01*
X33780706Y-59015986D01*
X33654347Y-58862017D01*
X35678090Y-58862017D01*
X35719078Y-59134133D01*
X35812364Y-59393023D01*
X35874344Y-59508980D01*
X36114435Y-59575960D01*
X36900395Y-58790000D01*
X36114435Y-58004040D01*
X35874344Y-58071020D01*
X35757244Y-58320048D01*
X35690977Y-58587135D01*
X35678090Y-58862017D01*
X33654347Y-58862017D01*
X33595134Y-58789866D01*
X33369014Y-58604294D01*
X33304477Y-58569799D01*
X33421355Y-58500178D01*
X33637588Y-58305269D01*
X33811641Y-58071920D01*
X33936825Y-57809099D01*
X33981476Y-57661890D01*
X33860155Y-57432000D01*
X32667000Y-57432000D01*
X32667000Y-57452000D01*
X32413000Y-57452000D01*
X32413000Y-57432000D01*
X31219845Y-57432000D01*
X31098524Y-57661890D01*
X31143175Y-57809099D01*
X31268359Y-58071920D01*
X31442412Y-58305269D01*
X31658645Y-58500178D01*
X31775523Y-58569799D01*
X31710986Y-58604294D01*
X31484866Y-58789866D01*
X31299294Y-59015986D01*
X31161401Y-59273966D01*
X31076487Y-59553889D01*
X31047815Y-59845000D01*
X31076487Y-60136111D01*
X31161401Y-60416034D01*
X31299294Y-60674014D01*
X31484866Y-60900134D01*
X31710986Y-61085706D01*
X31968966Y-61223599D01*
X32248889Y-61308513D01*
X32467050Y-61330000D01*
X32612950Y-61330000D01*
X32831111Y-61308513D01*
X32834924Y-61307356D01*
X33697567Y-62170000D01*
X32439775Y-62170000D01*
X32184881Y-62195105D01*
X31857832Y-62294314D01*
X31556422Y-62455421D01*
X31292234Y-62672234D01*
X31075421Y-62936422D01*
X30914314Y-63237832D01*
X30815105Y-63564881D01*
X30781606Y-63905000D01*
X30815105Y-64245119D01*
X30914314Y-64572168D01*
X31075421Y-64873578D01*
X31292234Y-65137766D01*
X31483994Y-65295139D01*
X31389236Y-65472419D01*
X31310040Y-65733493D01*
X31283299Y-66005000D01*
X31310040Y-66276507D01*
X31389236Y-66537581D01*
X31517843Y-66778188D01*
X31690919Y-66989081D01*
X31710316Y-67005000D01*
X31690919Y-67020919D01*
X31517843Y-67231812D01*
X31389236Y-67472419D01*
X31310040Y-67733493D01*
X31283299Y-68005000D01*
X31310040Y-68276507D01*
X31389236Y-68537581D01*
X31513940Y-68770886D01*
X31473815Y-68803815D01*
X31394463Y-68900506D01*
X31335498Y-69010820D01*
X31299188Y-69130518D01*
X31286928Y-69255000D01*
X31286928Y-70755000D01*
X31298008Y-70867496D01*
X31292234Y-70872234D01*
X31075421Y-71136422D01*
X30914314Y-71437832D01*
X30815105Y-71764881D01*
X30781606Y-72105000D01*
X30815105Y-72445119D01*
X30914314Y-72772168D01*
X31075421Y-73073578D01*
X31292234Y-73337766D01*
X31556422Y-73554579D01*
X31857832Y-73715686D01*
X32184881Y-73814895D01*
X32439775Y-73840000D01*
X33910225Y-73840000D01*
X34165119Y-73814895D01*
X34492168Y-73715686D01*
X34691000Y-73609408D01*
X34691001Y-77264763D01*
X33720264Y-78235501D01*
X33686341Y-78263341D01*
X33575247Y-78398710D01*
X33492697Y-78553150D01*
X33441864Y-78720727D01*
X33429000Y-78851334D01*
X33429000Y-78851340D01*
X33424700Y-78895000D01*
X33429000Y-78938660D01*
X33429001Y-81772330D01*
X33424700Y-81816000D01*
X33441864Y-81990274D01*
X33492698Y-82157852D01*
X33575248Y-82312291D01*
X33616985Y-82363147D01*
X33686342Y-82447659D01*
X33720259Y-82475494D01*
X34547505Y-83302741D01*
X34575341Y-83336659D01*
X34710709Y-83447753D01*
X34865149Y-83530303D01*
X34959758Y-83559002D01*
X35032725Y-83581136D01*
X35049325Y-83582771D01*
X35149947Y-83592682D01*
X35224038Y-83682962D01*
X35358613Y-83793405D01*
X35512149Y-83875472D01*
X35678745Y-83926008D01*
X35851999Y-83943072D01*
X36276537Y-83943072D01*
X36353342Y-84036659D01*
X36387259Y-84064494D01*
X38800506Y-86477742D01*
X38828341Y-86511659D01*
X38963709Y-86622753D01*
X39118149Y-86705303D01*
X39199566Y-86730000D01*
X39285725Y-86756136D01*
X39460000Y-86773301D01*
X39503668Y-86769000D01*
X39945769Y-86769000D01*
X39954188Y-86854482D01*
X39990498Y-86974180D01*
X40049463Y-87084494D01*
X40128815Y-87181185D01*
X40225506Y-87260537D01*
X40335820Y-87319502D01*
X40455518Y-87355812D01*
X40580000Y-87368072D01*
X42280000Y-87368072D01*
X42404482Y-87355812D01*
X42524180Y-87319502D01*
X42634494Y-87260537D01*
X42731185Y-87181185D01*
X42810537Y-87084494D01*
X42869502Y-86974180D01*
X42905812Y-86854482D01*
X42918072Y-86730000D01*
X42918072Y-85030000D01*
X42905812Y-84905518D01*
X42869502Y-84785820D01*
X42810537Y-84675506D01*
X42731185Y-84578815D01*
X42634494Y-84499463D01*
X42524180Y-84440498D01*
X42455313Y-84419607D01*
X42485134Y-84395134D01*
X42670706Y-84169014D01*
X42808599Y-83911034D01*
X42893513Y-83631111D01*
X42922185Y-83340000D01*
X42893513Y-83048889D01*
X42808599Y-82768966D01*
X42670706Y-82510986D01*
X42485134Y-82284866D01*
X42259014Y-82099294D01*
X42001034Y-81961401D01*
X41721111Y-81876487D01*
X41502950Y-81855000D01*
X41357050Y-81855000D01*
X41138889Y-81876487D01*
X40858966Y-81961401D01*
X40600986Y-82099294D01*
X40374866Y-82284866D01*
X40189294Y-82510986D01*
X40051401Y-82768966D01*
X39966487Y-83048889D01*
X39937815Y-83340000D01*
X39966487Y-83631111D01*
X40051401Y-83911034D01*
X40189294Y-84169014D01*
X40374866Y-84395134D01*
X40404687Y-84419607D01*
X40335820Y-84440498D01*
X40225506Y-84499463D01*
X40128815Y-84578815D01*
X40049463Y-84675506D01*
X39990498Y-84785820D01*
X39954188Y-84905518D01*
X39945769Y-84991000D01*
X39828236Y-84991000D01*
X37981300Y-83144065D01*
X37990072Y-83055001D01*
X37990072Y-82354999D01*
X37973008Y-82181745D01*
X37922472Y-82015149D01*
X37840405Y-81861613D01*
X37729962Y-81727038D01*
X37595387Y-81616595D01*
X37590889Y-81614191D01*
X37629502Y-81582502D01*
X37783833Y-81394449D01*
X37898511Y-81179901D01*
X37969130Y-80947102D01*
X37992975Y-80705000D01*
X37969130Y-80462898D01*
X37898511Y-80230099D01*
X37783833Y-80015551D01*
X37629502Y-79827498D01*
X37441449Y-79673167D01*
X37226901Y-79558489D01*
X36994102Y-79487870D01*
X36812665Y-79470000D01*
X36141335Y-79470000D01*
X35959898Y-79487870D01*
X35727099Y-79558489D01*
X35512551Y-79673167D01*
X35324498Y-79827498D01*
X35207000Y-79970670D01*
X35207000Y-79263235D01*
X36177741Y-78292494D01*
X36211659Y-78264659D01*
X36322753Y-78129291D01*
X36405303Y-77974851D01*
X36456136Y-77807274D01*
X36469000Y-77676667D01*
X36473301Y-77633000D01*
X36469000Y-77589332D01*
X36469000Y-75289017D01*
X36672510Y-75373314D01*
X36942408Y-75427000D01*
X37217592Y-75427000D01*
X37487490Y-75373314D01*
X37741727Y-75268005D01*
X37970535Y-75115120D01*
X38153400Y-74932255D01*
X38153400Y-76953817D01*
X38149836Y-76990000D01*
X38153400Y-77026183D01*
X38153400Y-77026185D01*
X38164058Y-77134398D01*
X38206178Y-77273248D01*
X38274576Y-77401212D01*
X38366625Y-77513374D01*
X38394732Y-77536441D01*
X45963554Y-85105263D01*
X45986625Y-85133375D01*
X46098787Y-85225424D01*
X46226751Y-85293822D01*
X46365601Y-85335942D01*
X46473814Y-85346600D01*
X46473823Y-85346600D01*
X46509999Y-85350163D01*
X46546175Y-85346600D01*
X52797977Y-85346600D01*
X56110132Y-88658755D01*
X55980897Y-88787990D01*
X55826043Y-89019746D01*
X55810000Y-89058477D01*
X55793957Y-89019746D01*
X55639103Y-88787990D01*
X55442010Y-88590897D01*
X55210254Y-88436043D01*
X54952740Y-88329377D01*
X54679365Y-88275000D01*
X54400635Y-88275000D01*
X54127260Y-88329377D01*
X53869746Y-88436043D01*
X53637990Y-88590897D01*
X53440897Y-88787990D01*
X53286043Y-89019746D01*
X53270000Y-89058477D01*
X53253957Y-89019746D01*
X53099103Y-88787990D01*
X52902010Y-88590897D01*
X52670254Y-88436043D01*
X52412740Y-88329377D01*
X52139365Y-88275000D01*
X51860635Y-88275000D01*
X51587260Y-88329377D01*
X51329746Y-88436043D01*
X51097990Y-88590897D01*
X50900897Y-88787990D01*
X50746043Y-89019746D01*
X50730000Y-89058477D01*
X50713957Y-89019746D01*
X50559103Y-88787990D01*
X50362010Y-88590897D01*
X50130254Y-88436043D01*
X49872740Y-88329377D01*
X49599365Y-88275000D01*
X49320635Y-88275000D01*
X49047260Y-88329377D01*
X48789746Y-88436043D01*
X48557990Y-88590897D01*
X48360897Y-88787990D01*
X48206043Y-89019746D01*
X48190000Y-89058477D01*
X48173957Y-89019746D01*
X48019103Y-88787990D01*
X47822010Y-88590897D01*
X47590254Y-88436043D01*
X47332740Y-88329377D01*
X47059365Y-88275000D01*
X46780635Y-88275000D01*
X46507260Y-88329377D01*
X46249746Y-88436043D01*
X46017990Y-88590897D01*
X45820897Y-88787990D01*
X45666043Y-89019746D01*
X45650000Y-89058477D01*
X45633957Y-89019746D01*
X45479103Y-88787990D01*
X45282010Y-88590897D01*
X45050254Y-88436043D01*
X44792740Y-88329377D01*
X44519365Y-88275000D01*
X44240635Y-88275000D01*
X43967260Y-88329377D01*
X43709746Y-88436043D01*
X43477990Y-88590897D01*
X43280897Y-88787990D01*
X43126043Y-89019746D01*
X43110000Y-89058477D01*
X43093957Y-89019746D01*
X42939103Y-88787990D01*
X42742010Y-88590897D01*
X42510254Y-88436043D01*
X42252740Y-88329377D01*
X41979365Y-88275000D01*
X41700635Y-88275000D01*
X41427260Y-88329377D01*
X41169746Y-88436043D01*
X40937990Y-88590897D01*
X40740897Y-88787990D01*
X40586043Y-89019746D01*
X40570000Y-89058477D01*
X40553957Y-89019746D01*
X40399103Y-88787990D01*
X40202010Y-88590897D01*
X39970254Y-88436043D01*
X39712740Y-88329377D01*
X39439365Y-88275000D01*
X39160635Y-88275000D01*
X38887260Y-88329377D01*
X38629746Y-88436043D01*
X38397990Y-88590897D01*
X38200897Y-88787990D01*
X38046043Y-89019746D01*
X38030000Y-89058477D01*
X38013957Y-89019746D01*
X37859103Y-88787990D01*
X37662010Y-88590897D01*
X37430254Y-88436043D01*
X37172740Y-88329377D01*
X36899365Y-88275000D01*
X36620635Y-88275000D01*
X36347260Y-88329377D01*
X36089746Y-88436043D01*
X35857990Y-88590897D01*
X35660897Y-88787990D01*
X35506043Y-89019746D01*
X35490000Y-89058477D01*
X35473957Y-89019746D01*
X35319103Y-88787990D01*
X35122010Y-88590897D01*
X34890254Y-88436043D01*
X34632740Y-88329377D01*
X34359365Y-88275000D01*
X34080635Y-88275000D01*
X33807260Y-88329377D01*
X33549746Y-88436043D01*
X33317990Y-88590897D01*
X33120897Y-88787990D01*
X32966043Y-89019746D01*
X32950000Y-89058477D01*
X32933957Y-89019746D01*
X32779103Y-88787990D01*
X32582010Y-88590897D01*
X32350254Y-88436043D01*
X32092740Y-88329377D01*
X31819365Y-88275000D01*
X31540635Y-88275000D01*
X31267260Y-88329377D01*
X31009746Y-88436043D01*
X30777990Y-88590897D01*
X30660000Y-88708887D01*
X30660000Y-41152702D01*
X31726903Y-41152702D01*
X31798486Y-41396671D01*
X32053996Y-41517571D01*
X32328184Y-41586300D01*
X32610512Y-41600217D01*
X32890130Y-41558787D01*
X33156292Y-41463603D01*
X33281514Y-41396671D01*
X33353097Y-41152702D01*
X33282412Y-41082017D01*
X35678090Y-41082017D01*
X35719078Y-41354133D01*
X35812364Y-41613023D01*
X35874344Y-41728980D01*
X36114435Y-41795960D01*
X36900395Y-41010000D01*
X37259605Y-41010000D01*
X38045565Y-41795960D01*
X38285656Y-41728980D01*
X38402756Y-41479952D01*
X38469023Y-41212865D01*
X38481910Y-40937983D01*
X38440922Y-40665867D01*
X38347636Y-40406977D01*
X38285656Y-40291020D01*
X38045565Y-40224040D01*
X37259605Y-41010000D01*
X36900395Y-41010000D01*
X36114435Y-40224040D01*
X35874344Y-40291020D01*
X35757244Y-40540048D01*
X35690977Y-40807135D01*
X35678090Y-41082017D01*
X33282412Y-41082017D01*
X32540000Y-40339605D01*
X31726903Y-41152702D01*
X30660000Y-41152702D01*
X30660000Y-40230512D01*
X31099783Y-40230512D01*
X31141213Y-40510130D01*
X31236397Y-40776292D01*
X31303329Y-40901514D01*
X31547298Y-40973097D01*
X32360395Y-40160000D01*
X32719605Y-40160000D01*
X33532702Y-40973097D01*
X33776671Y-40901514D01*
X33897571Y-40646004D01*
X33966300Y-40371816D01*
X33980217Y-40089488D01*
X33973542Y-40044435D01*
X36294040Y-40044435D01*
X37080000Y-40830395D01*
X37865960Y-40044435D01*
X37798980Y-39804344D01*
X37549952Y-39687244D01*
X37282865Y-39620977D01*
X37007983Y-39608090D01*
X36735867Y-39649078D01*
X36476977Y-39742364D01*
X36361020Y-39804344D01*
X36294040Y-40044435D01*
X33973542Y-40044435D01*
X33938787Y-39809870D01*
X33843603Y-39543708D01*
X33776671Y-39418486D01*
X33532702Y-39346903D01*
X32719605Y-40160000D01*
X32360395Y-40160000D01*
X31547298Y-39346903D01*
X31303329Y-39418486D01*
X31182429Y-39673996D01*
X31113700Y-39948184D01*
X31099783Y-40230512D01*
X30660000Y-40230512D01*
X30660000Y-39167298D01*
X31726903Y-39167298D01*
X32540000Y-39980395D01*
X33353097Y-39167298D01*
X33281514Y-38923329D01*
X33026004Y-38802429D01*
X32751816Y-38733700D01*
X32469488Y-38719783D01*
X32189870Y-38761213D01*
X31923708Y-38856397D01*
X31798486Y-38923329D01*
X31726903Y-39167298D01*
X30660000Y-39167298D01*
X30660000Y-35414336D01*
X30785794Y-35718029D01*
X31182725Y-36312078D01*
X31687922Y-36817275D01*
X32281971Y-37214206D01*
X32942043Y-37487617D01*
X33642772Y-37627000D01*
X34357228Y-37627000D01*
X35057957Y-37487617D01*
X35718029Y-37214206D01*
X36312078Y-36817275D01*
X36817275Y-36312078D01*
X37214206Y-35718029D01*
X37487617Y-35057957D01*
X37627000Y-34357228D01*
X37627000Y-33642772D01*
X37487617Y-32942043D01*
X37214206Y-32281971D01*
X36817275Y-31687922D01*
X36312078Y-31182725D01*
X35718029Y-30785794D01*
X35414336Y-30660000D01*
X40634964Y-30660000D01*
X40420421Y-30921423D01*
M02*
