M48
; DRILL file {KiCad (5.1.4)-1} date 03/11/2019 17:56:17
; FORMAT={-:-/ absolute / inch / decimal}
; #@! TF.CreationDate,2019-11-03T17:56:17-05:00
; #@! TF.GenerationSoftware,Kicad,Pcbnew,(5.1.4)-1
; #@! TF.FileFunction,Plated,1,2,PTH
FMAT,2
INCH
T1C0.0130
T2C0.0295
T3C0.0300
T4C0.0315
T5C0.0354
T6C0.0394
T7C0.0409
T8C0.0433
T9C0.0591
T10C0.0630
T11C0.0709
%
G90
G05
T1
X3.0811Y-3.4311
T2
X1.4361Y-3.1774
X1.4361Y-3.2561
T3
X3.0811Y-1.8071
X3.0811Y-2.5551
X3.1811Y-1.8071
X3.1811Y-2.5551
X3.4811Y-2.5551
X3.5811Y-1.8071
X3.5811Y-2.5551
X3.6803Y-1.8071
X3.6803Y-2.5551
X1.4598Y-1.6146
X1.4598Y-1.7146
X1.4598Y-1.8146
X1.4598Y-1.9146
X1.4598Y-2.0146
X1.4598Y-2.1146
X1.4598Y-2.2146
X1.4598Y-2.3146
X1.4598Y-2.4146
X1.4598Y-2.5146
X1.4598Y-2.6146
X1.4598Y-2.7146
X1.4598Y-2.8146
X1.4598Y-2.9146
X4.6488Y-2.1154
X4.6488Y-2.2154
X4.6488Y-2.3154
X4.6488Y-2.4154
X4.7787Y-2.1146
X4.7787Y-2.2146
X4.7787Y-2.3146
X4.7787Y-2.4146
T4
X2.6561Y-4.7311
X3.0561Y-4.7311
X1.2811Y-1.5811
X1.2811Y-1.9811
T5
X1.3061Y-2.5986
X1.3061Y-2.6774
X1.3061Y-2.7561
X1.6361Y-1.4611
X1.6361Y-2.0611
X1.9961Y-1.4611
X1.9961Y-2.0611
X1.7311Y-1.2811
X1.8098Y-1.2811
X1.8886Y-1.2811
T6
X4.5083Y-3.9608
X4.5083Y-4.5317
X4.6067Y-3.9608
X4.7051Y-3.9608
X4.7051Y-4.5317
X1.2811Y-2.1561
X1.2811Y-2.2561
X1.2811Y-2.3561
X3.5827Y-4.5224
X3.6811Y-4.5224
X3.7795Y-4.5224
X2.7311Y-1.2561
X2.8311Y-1.2561
X1.6311Y-3.2811
X1.6311Y-3.3811
T7
X1.2472Y-3.5311
X1.2472Y-4.4311
X1.2472Y-4.5311
X1.3472Y-3.5311
X1.3472Y-4.4311
X1.3472Y-4.5311
X1.4472Y-3.5311
X1.4472Y-4.4311
X1.4472Y-4.5311
X1.5472Y-3.5311
X1.5472Y-4.4311
X1.5472Y-4.5311
X1.6472Y-3.5311
X1.6472Y-4.4311
X1.6472Y-4.5311
X1.7472Y-3.5311
X1.7472Y-4.4311
X1.7472Y-4.5311
X1.8472Y-3.5311
X1.8472Y-4.4311
X1.8472Y-4.5311
X1.9472Y-3.5311
X1.9472Y-4.4311
X1.9472Y-4.5311
X2.0472Y-3.5311
X2.0472Y-4.4311
X2.0472Y-4.5311
X2.1472Y-3.5311
X2.1472Y-4.4311
X2.1472Y-4.5311
X2.2472Y-3.5311
X2.2472Y-4.4311
X2.2472Y-4.5311
X2.3472Y-3.5311
X2.3472Y-4.4311
X2.3472Y-4.5311
X2.4472Y-3.5311
X2.4472Y-4.4311
X2.4472Y-4.5311
X2.5472Y-3.5311
X2.5472Y-4.4311
X2.5472Y-4.5311
X2.6472Y-3.5311
X2.6472Y-4.4311
X2.6472Y-4.5311
X2.7472Y-3.5311
X2.7472Y-4.4311
X2.7472Y-4.5311
X2.8472Y-3.5311
X2.8472Y-4.4311
X2.8472Y-4.5311
X2.9472Y-3.5311
X2.9472Y-4.4311
X2.9472Y-4.5311
X3.0472Y-3.5311
X3.0472Y-4.4311
X3.0472Y-4.5311
T8
X3.9758Y-3.0061
X4.5664Y-3.0061
X4.1343Y-1.5476
X4.2327Y-1.5476
X4.3311Y-1.3311
X4.4295Y-1.5476
X4.528Y-1.5476
X3.1843Y-1.5476
X3.2827Y-1.5476
X3.3811Y-1.3311
X3.4795Y-1.5476
X3.578Y-1.5476
T9
X1.3061Y-2.5159
X1.3061Y-2.8388
X1.6484Y-1.2811
X1.9713Y-1.2811
T10
X2.3811Y-1.3449
X2.3811Y-1.5811
X2.5661Y-1.463
T11
G00X4.3823Y-4.2719
M15
G01X4.3823Y-4.2404
M16
G05
G00X4.8311Y-4.2719
M15
G01X4.8311Y-4.2404
M16
G05
T0
M30
