G04 #@! TF.GenerationSoftware,KiCad,Pcbnew,(5.1.4)-1*
G04 #@! TF.CreationDate,2019-10-03T04:56:42-04:00*
G04 #@! TF.ProjectId,MorseTutor1,4d6f7273-6554-4757-946f-72312e6b6963,rev?*
G04 #@! TF.SameCoordinates,Original*
G04 #@! TF.FileFunction,Legend,Bot*
G04 #@! TF.FilePolarity,Positive*
%FSLAX46Y46*%
G04 Gerber Fmt 4.6, Leading zero omitted, Abs format (unit mm)*
G04 Created by KiCad (PCBNEW (5.1.4)-1) date 2019-10-03 04:56:42*
%MOMM*%
%LPD*%
G04 APERTURE LIST*
%ADD10C,0.300000*%
%ADD11C,0.120000*%
%ADD12C,0.150000*%
G04 APERTURE END LIST*
D10*
X126928571Y-36804761D02*
X126452380Y-38804761D01*
X126071428Y-37376190D01*
X125690476Y-38804761D01*
X125214285Y-36804761D01*
X124166666Y-37661904D02*
X124357142Y-37566666D01*
X124452380Y-37471428D01*
X124547619Y-37280952D01*
X124547619Y-37185714D01*
X124452380Y-36995238D01*
X124357142Y-36900000D01*
X124166666Y-36804761D01*
X123785714Y-36804761D01*
X123595238Y-36900000D01*
X123500000Y-36995238D01*
X123404761Y-37185714D01*
X123404761Y-37280952D01*
X123500000Y-37471428D01*
X123595238Y-37566666D01*
X123785714Y-37661904D01*
X124166666Y-37661904D01*
X124357142Y-37757142D01*
X124452380Y-37852380D01*
X124547619Y-38042857D01*
X124547619Y-38423809D01*
X124452380Y-38614285D01*
X124357142Y-38709523D01*
X124166666Y-38804761D01*
X123785714Y-38804761D01*
X123595238Y-38709523D01*
X123500000Y-38614285D01*
X123404761Y-38423809D01*
X123404761Y-38042857D01*
X123500000Y-37852380D01*
X123595238Y-37757142D01*
X123785714Y-37661904D01*
X121880952Y-37757142D02*
X121595238Y-37852380D01*
X121500000Y-37947619D01*
X121404761Y-38138095D01*
X121404761Y-38423809D01*
X121500000Y-38614285D01*
X121595238Y-38709523D01*
X121785714Y-38804761D01*
X122547619Y-38804761D01*
X122547619Y-36804761D01*
X121880952Y-36804761D01*
X121690476Y-36900000D01*
X121595238Y-36995238D01*
X121500000Y-37185714D01*
X121500000Y-37376190D01*
X121595238Y-37566666D01*
X121690476Y-37661904D01*
X121880952Y-37757142D01*
X122547619Y-37757142D01*
X120547619Y-38804761D02*
X120547619Y-36804761D01*
X120547619Y-37757142D02*
X119404761Y-37757142D01*
X119404761Y-38804761D02*
X119404761Y-36804761D01*
X116928571Y-38804761D02*
X116928571Y-36804761D01*
X116261904Y-38233333D01*
X115595238Y-36804761D01*
X115595238Y-38804761D01*
X114357142Y-38804761D02*
X114547619Y-38709523D01*
X114642857Y-38614285D01*
X114738095Y-38423809D01*
X114738095Y-37852380D01*
X114642857Y-37661904D01*
X114547619Y-37566666D01*
X114357142Y-37471428D01*
X114071428Y-37471428D01*
X113880952Y-37566666D01*
X113785714Y-37661904D01*
X113690476Y-37852380D01*
X113690476Y-38423809D01*
X113785714Y-38614285D01*
X113880952Y-38709523D01*
X114071428Y-38804761D01*
X114357142Y-38804761D01*
X112833333Y-38804761D02*
X112833333Y-37471428D01*
X112833333Y-37852380D02*
X112738095Y-37661904D01*
X112642857Y-37566666D01*
X112452380Y-37471428D01*
X112261904Y-37471428D01*
X111690476Y-38709523D02*
X111500000Y-38804761D01*
X111119047Y-38804761D01*
X110928571Y-38709523D01*
X110833333Y-38519047D01*
X110833333Y-38423809D01*
X110928571Y-38233333D01*
X111119047Y-38138095D01*
X111404761Y-38138095D01*
X111595238Y-38042857D01*
X111690476Y-37852380D01*
X111690476Y-37757142D01*
X111595238Y-37566666D01*
X111404761Y-37471428D01*
X111119047Y-37471428D01*
X110928571Y-37566666D01*
X109214285Y-38709523D02*
X109404761Y-38804761D01*
X109785714Y-38804761D01*
X109976190Y-38709523D01*
X110071428Y-38519047D01*
X110071428Y-37757142D01*
X109976190Y-37566666D01*
X109785714Y-37471428D01*
X109404761Y-37471428D01*
X109214285Y-37566666D01*
X109119047Y-37757142D01*
X109119047Y-37947619D01*
X110071428Y-38138095D01*
X107023809Y-36804761D02*
X105880952Y-36804761D01*
X106452380Y-38804761D02*
X106452380Y-36804761D01*
X104357142Y-37471428D02*
X104357142Y-38804761D01*
X105214285Y-37471428D02*
X105214285Y-38519047D01*
X105119047Y-38709523D01*
X104928571Y-38804761D01*
X104642857Y-38804761D01*
X104452380Y-38709523D01*
X104357142Y-38614285D01*
X103690476Y-37471428D02*
X102928571Y-37471428D01*
X103404761Y-36804761D02*
X103404761Y-38519047D01*
X103309523Y-38709523D01*
X103119047Y-38804761D01*
X102928571Y-38804761D01*
X101976190Y-38804761D02*
X102166666Y-38709523D01*
X102261904Y-38614285D01*
X102357142Y-38423809D01*
X102357142Y-37852380D01*
X102261904Y-37661904D01*
X102166666Y-37566666D01*
X101976190Y-37471428D01*
X101690476Y-37471428D01*
X101500000Y-37566666D01*
X101404761Y-37661904D01*
X101309523Y-37852380D01*
X101309523Y-38423809D01*
X101404761Y-38614285D01*
X101500000Y-38709523D01*
X101690476Y-38804761D01*
X101976190Y-38804761D01*
X100452380Y-38804761D02*
X100452380Y-37471428D01*
X100452380Y-37852380D02*
X100357142Y-37661904D01*
X100261904Y-37566666D01*
X100071428Y-37471428D01*
X99880952Y-37471428D01*
X97690476Y-38042857D02*
X96166666Y-38042857D01*
X92547619Y-38804761D02*
X93214285Y-37852380D01*
X93690476Y-38804761D02*
X93690476Y-36804761D01*
X92928571Y-36804761D01*
X92738095Y-36900000D01*
X92642857Y-36995238D01*
X92547619Y-37185714D01*
X92547619Y-37471428D01*
X92642857Y-37661904D01*
X92738095Y-37757142D01*
X92928571Y-37852380D01*
X93690476Y-37852380D01*
X90928571Y-38709523D02*
X91119047Y-38804761D01*
X91500000Y-38804761D01*
X91690476Y-38709523D01*
X91785714Y-38519047D01*
X91785714Y-37757142D01*
X91690476Y-37566666D01*
X91500000Y-37471428D01*
X91119047Y-37471428D01*
X90928571Y-37566666D01*
X90833333Y-37757142D01*
X90833333Y-37947619D01*
X91785714Y-38138095D01*
X90166666Y-37471428D02*
X89690476Y-38804761D01*
X89214285Y-37471428D01*
X87023809Y-36995238D02*
X86928571Y-36900000D01*
X86738095Y-36804761D01*
X86261904Y-36804761D01*
X86071428Y-36900000D01*
X85976190Y-36995238D01*
X85880952Y-37185714D01*
X85880952Y-37376190D01*
X85976190Y-37661904D01*
X87119047Y-38804761D01*
X85880952Y-38804761D01*
X85119047Y-38233333D02*
X84166666Y-38233333D01*
X85309523Y-38804761D02*
X84642857Y-36804761D01*
X83976190Y-38804761D01*
X121928571Y-40295238D02*
X121833333Y-40200000D01*
X121642857Y-40104761D01*
X121166666Y-40104761D01*
X120976190Y-40200000D01*
X120880952Y-40295238D01*
X120785714Y-40485714D01*
X120785714Y-40676190D01*
X120880952Y-40961904D01*
X122023809Y-42104761D01*
X120785714Y-42104761D01*
X119928571Y-41914285D02*
X119833333Y-42009523D01*
X119928571Y-42104761D01*
X120023809Y-42009523D01*
X119928571Y-41914285D01*
X119928571Y-42104761D01*
X119071428Y-40295238D02*
X118976190Y-40200000D01*
X118785714Y-40104761D01*
X118309523Y-40104761D01*
X118119047Y-40200000D01*
X118023809Y-40295238D01*
X117928571Y-40485714D01*
X117928571Y-40676190D01*
X118023809Y-40961904D01*
X119166666Y-42104761D01*
X117928571Y-42104761D01*
X117166666Y-40104761D02*
X117166666Y-40485714D01*
X116404761Y-40104761D02*
X116404761Y-40485714D01*
X114309523Y-40104761D02*
X113166666Y-40104761D01*
X113738095Y-42104761D02*
X113738095Y-40104761D01*
X111833333Y-41057142D02*
X112500000Y-41057142D01*
X112500000Y-42104761D02*
X112500000Y-40104761D01*
X111547619Y-40104761D01*
X111071428Y-40104761D02*
X109928571Y-40104761D01*
X110500000Y-42104761D02*
X110500000Y-40104761D01*
X107928571Y-40771428D02*
X107547619Y-42104761D01*
X107166666Y-41152380D01*
X106785714Y-42104761D01*
X106404761Y-40771428D01*
X105642857Y-42104761D02*
X105642857Y-40771428D01*
X105642857Y-40104761D02*
X105738095Y-40200000D01*
X105642857Y-40295238D01*
X105547619Y-40200000D01*
X105642857Y-40104761D01*
X105642857Y-40295238D01*
X104976190Y-40771428D02*
X104214285Y-40771428D01*
X104690476Y-40104761D02*
X104690476Y-41819047D01*
X104595238Y-42009523D01*
X104404761Y-42104761D01*
X104214285Y-42104761D01*
X103547619Y-42104761D02*
X103547619Y-40104761D01*
X102690476Y-42104761D02*
X102690476Y-41057142D01*
X102785714Y-40866666D01*
X102976190Y-40771428D01*
X103261904Y-40771428D01*
X103452380Y-40866666D01*
X103547619Y-40961904D01*
X100309523Y-42009523D02*
X100023809Y-42104761D01*
X99547619Y-42104761D01*
X99357142Y-42009523D01*
X99261904Y-41914285D01*
X99166666Y-41723809D01*
X99166666Y-41533333D01*
X99261904Y-41342857D01*
X99357142Y-41247619D01*
X99547619Y-41152380D01*
X99928571Y-41057142D01*
X100119047Y-40961904D01*
X100214285Y-40866666D01*
X100309523Y-40676190D01*
X100309523Y-40485714D01*
X100214285Y-40295238D01*
X100119047Y-40200000D01*
X99928571Y-40104761D01*
X99452380Y-40104761D01*
X99166666Y-40200000D01*
X98309523Y-42104761D02*
X98309523Y-40104761D01*
X97833333Y-40104761D01*
X97547619Y-40200000D01*
X97357142Y-40390476D01*
X97261904Y-40580952D01*
X97166666Y-40961904D01*
X97166666Y-41247619D01*
X97261904Y-41628571D01*
X97357142Y-41819047D01*
X97547619Y-42009523D01*
X97833333Y-42104761D01*
X98309523Y-42104761D01*
X93928571Y-42009523D02*
X94119047Y-42104761D01*
X94500000Y-42104761D01*
X94690476Y-42009523D01*
X94785714Y-41914285D01*
X94880952Y-41723809D01*
X94880952Y-41152380D01*
X94785714Y-40961904D01*
X94690476Y-40866666D01*
X94500000Y-40771428D01*
X94119047Y-40771428D01*
X93928571Y-40866666D01*
X92214285Y-42104761D02*
X92214285Y-41057142D01*
X92309523Y-40866666D01*
X92500000Y-40771428D01*
X92880952Y-40771428D01*
X93071428Y-40866666D01*
X92214285Y-42009523D02*
X92404761Y-42104761D01*
X92880952Y-42104761D01*
X93071428Y-42009523D01*
X93166666Y-41819047D01*
X93166666Y-41628571D01*
X93071428Y-41438095D01*
X92880952Y-41342857D01*
X92404761Y-41342857D01*
X92214285Y-41247619D01*
X91261904Y-42104761D02*
X91261904Y-40771428D01*
X91261904Y-41152380D02*
X91166666Y-40961904D01*
X91071428Y-40866666D01*
X90880952Y-40771428D01*
X90690476Y-40771428D01*
X89166666Y-42104761D02*
X89166666Y-40104761D01*
X89166666Y-42009523D02*
X89357142Y-42104761D01*
X89738095Y-42104761D01*
X89928571Y-42009523D01*
X90023809Y-41914285D01*
X90119047Y-41723809D01*
X90119047Y-41152380D01*
X90023809Y-40961904D01*
X89928571Y-40866666D01*
X89738095Y-40771428D01*
X89357142Y-40771428D01*
X89166666Y-40866666D01*
X114357142Y-43404761D02*
X114166666Y-43404761D01*
X113976190Y-43500000D01*
X113880952Y-43595238D01*
X113785714Y-43785714D01*
X113690476Y-44166666D01*
X113690476Y-44642857D01*
X113785714Y-45023809D01*
X113880952Y-45214285D01*
X113976190Y-45309523D01*
X114166666Y-45404761D01*
X114357142Y-45404761D01*
X114547619Y-45309523D01*
X114642857Y-45214285D01*
X114738095Y-45023809D01*
X114833333Y-44642857D01*
X114833333Y-44166666D01*
X114738095Y-43785714D01*
X114642857Y-43595238D01*
X114547619Y-43500000D01*
X114357142Y-43404761D01*
X113023809Y-43404761D02*
X111785714Y-43404761D01*
X112452380Y-44166666D01*
X112166666Y-44166666D01*
X111976190Y-44261904D01*
X111880952Y-44357142D01*
X111785714Y-44547619D01*
X111785714Y-45023809D01*
X111880952Y-45214285D01*
X111976190Y-45309523D01*
X112166666Y-45404761D01*
X112738095Y-45404761D01*
X112928571Y-45309523D01*
X113023809Y-45214285D01*
X109023809Y-43404761D02*
X108642857Y-43404761D01*
X108452380Y-43500000D01*
X108261904Y-43690476D01*
X108166666Y-44071428D01*
X108166666Y-44738095D01*
X108261904Y-45119047D01*
X108452380Y-45309523D01*
X108642857Y-45404761D01*
X109023809Y-45404761D01*
X109214285Y-45309523D01*
X109404761Y-45119047D01*
X109500000Y-44738095D01*
X109500000Y-44071428D01*
X109404761Y-43690476D01*
X109214285Y-43500000D01*
X109023809Y-43404761D01*
X106452380Y-45309523D02*
X106642857Y-45404761D01*
X107023809Y-45404761D01*
X107214285Y-45309523D01*
X107309523Y-45214285D01*
X107404761Y-45023809D01*
X107404761Y-44452380D01*
X107309523Y-44261904D01*
X107214285Y-44166666D01*
X107023809Y-44071428D01*
X106642857Y-44071428D01*
X106452380Y-44166666D01*
X105880952Y-44071428D02*
X105119047Y-44071428D01*
X105595238Y-43404761D02*
X105595238Y-45119047D01*
X105500000Y-45309523D01*
X105309523Y-45404761D01*
X105119047Y-45404761D01*
X103023809Y-43595238D02*
X102928571Y-43500000D01*
X102738095Y-43404761D01*
X102261904Y-43404761D01*
X102071428Y-43500000D01*
X101976190Y-43595238D01*
X101880952Y-43785714D01*
X101880952Y-43976190D01*
X101976190Y-44261904D01*
X103119047Y-45404761D01*
X101880952Y-45404761D01*
X100642857Y-43404761D02*
X100452380Y-43404761D01*
X100261904Y-43500000D01*
X100166666Y-43595238D01*
X100071428Y-43785714D01*
X99976190Y-44166666D01*
X99976190Y-44642857D01*
X100071428Y-45023809D01*
X100166666Y-45214285D01*
X100261904Y-45309523D01*
X100452380Y-45404761D01*
X100642857Y-45404761D01*
X100833333Y-45309523D01*
X100928571Y-45214285D01*
X101023809Y-45023809D01*
X101119047Y-44642857D01*
X101119047Y-44166666D01*
X101023809Y-43785714D01*
X100928571Y-43595238D01*
X100833333Y-43500000D01*
X100642857Y-43404761D01*
X98071428Y-45404761D02*
X99214285Y-45404761D01*
X98642857Y-45404761D02*
X98642857Y-43404761D01*
X98833333Y-43690476D01*
X99023809Y-43880952D01*
X99214285Y-43976190D01*
X97119047Y-45404761D02*
X96738095Y-45404761D01*
X96547619Y-45309523D01*
X96452380Y-45214285D01*
X96261904Y-44928571D01*
X96166666Y-44547619D01*
X96166666Y-43785714D01*
X96261904Y-43595238D01*
X96357142Y-43500000D01*
X96547619Y-43404761D01*
X96928571Y-43404761D01*
X97119047Y-43500000D01*
X97214285Y-43595238D01*
X97309523Y-43785714D01*
X97309523Y-44261904D01*
X97214285Y-44452380D01*
X97119047Y-44547619D01*
X96928571Y-44642857D01*
X96547619Y-44642857D01*
X96357142Y-44547619D01*
X96261904Y-44452380D01*
X96166666Y-44261904D01*
X115690476Y-50671428D02*
X115214285Y-52004761D01*
X114738095Y-50671428D01*
X113976190Y-52004761D02*
X113976190Y-50671428D01*
X113976190Y-50004761D02*
X114071428Y-50100000D01*
X113976190Y-50195238D01*
X113880952Y-50100000D01*
X113976190Y-50004761D01*
X113976190Y-50195238D01*
X113119047Y-51909523D02*
X112928571Y-52004761D01*
X112547619Y-52004761D01*
X112357142Y-51909523D01*
X112261904Y-51719047D01*
X112261904Y-51623809D01*
X112357142Y-51433333D01*
X112547619Y-51338095D01*
X112833333Y-51338095D01*
X113023809Y-51242857D01*
X113119047Y-51052380D01*
X113119047Y-50957142D01*
X113023809Y-50766666D01*
X112833333Y-50671428D01*
X112547619Y-50671428D01*
X112357142Y-50766666D01*
X111404761Y-52004761D02*
X111404761Y-50671428D01*
X111404761Y-50004761D02*
X111500000Y-50100000D01*
X111404761Y-50195238D01*
X111309523Y-50100000D01*
X111404761Y-50004761D01*
X111404761Y-50195238D01*
X110738095Y-50671428D02*
X109976190Y-50671428D01*
X110452380Y-50004761D02*
X110452380Y-51719047D01*
X110357142Y-51909523D01*
X110166666Y-52004761D01*
X109976190Y-52004761D01*
X107976190Y-50671428D02*
X107595238Y-52004761D01*
X107214285Y-51052380D01*
X106833333Y-52004761D01*
X106452380Y-50671428D01*
X105404761Y-50861904D02*
X105595238Y-50766666D01*
X105690476Y-50671428D01*
X105785714Y-50480952D01*
X105785714Y-50385714D01*
X105690476Y-50195238D01*
X105595238Y-50100000D01*
X105404761Y-50004761D01*
X105023809Y-50004761D01*
X104833333Y-50100000D01*
X104738095Y-50195238D01*
X104642857Y-50385714D01*
X104642857Y-50480952D01*
X104738095Y-50671428D01*
X104833333Y-50766666D01*
X105023809Y-50861904D01*
X105404761Y-50861904D01*
X105595238Y-50957142D01*
X105690476Y-51052380D01*
X105785714Y-51242857D01*
X105785714Y-51623809D01*
X105690476Y-51814285D01*
X105595238Y-51909523D01*
X105404761Y-52004761D01*
X105023809Y-52004761D01*
X104833333Y-51909523D01*
X104738095Y-51814285D01*
X104642857Y-51623809D01*
X104642857Y-51242857D01*
X104738095Y-51052380D01*
X104833333Y-50957142D01*
X105023809Y-50861904D01*
X103785714Y-52004761D02*
X103785714Y-50004761D01*
X103785714Y-50766666D02*
X103595238Y-50671428D01*
X103214285Y-50671428D01*
X103023809Y-50766666D01*
X102928571Y-50861904D01*
X102833333Y-51052380D01*
X102833333Y-51623809D01*
X102928571Y-51814285D01*
X103023809Y-51909523D01*
X103214285Y-52004761D01*
X103595238Y-52004761D01*
X103785714Y-51909523D01*
X101976190Y-52004761D02*
X101976190Y-50004761D01*
X101119047Y-52004761D02*
X101119047Y-50957142D01*
X101214285Y-50766666D01*
X101404761Y-50671428D01*
X101690476Y-50671428D01*
X101880952Y-50766666D01*
X101976190Y-50861904D01*
X100166666Y-51814285D02*
X100071428Y-51909523D01*
X100166666Y-52004761D01*
X100261904Y-51909523D01*
X100166666Y-51814285D01*
X100166666Y-52004761D01*
X99214285Y-50671428D02*
X99214285Y-52004761D01*
X99214285Y-50861904D02*
X99119047Y-50766666D01*
X98928571Y-50671428D01*
X98642857Y-50671428D01*
X98452380Y-50766666D01*
X98357142Y-50957142D01*
X98357142Y-52004761D01*
X96642857Y-51909523D02*
X96833333Y-52004761D01*
X97214285Y-52004761D01*
X97404761Y-51909523D01*
X97500000Y-51719047D01*
X97500000Y-50957142D01*
X97404761Y-50766666D01*
X97214285Y-50671428D01*
X96833333Y-50671428D01*
X96642857Y-50766666D01*
X96547619Y-50957142D01*
X96547619Y-51147619D01*
X97500000Y-51338095D01*
X95976190Y-50671428D02*
X95214285Y-50671428D01*
X95690476Y-50004761D02*
X95690476Y-51719047D01*
X95595238Y-51909523D01*
X95404761Y-52004761D01*
X95214285Y-52004761D01*
D11*
X109295000Y-85165000D02*
X108025000Y-85165000D01*
X109295000Y-86435000D02*
X109295000Y-85165000D01*
X106982071Y-94435000D02*
X106585000Y-94435000D01*
X106982071Y-93675000D02*
X106585000Y-93675000D01*
X97925000Y-94435000D02*
X103925000Y-94435000D01*
X97925000Y-93675000D02*
X97925000Y-94435000D01*
X103925000Y-93675000D02*
X97925000Y-93675000D01*
X106585000Y-92785000D02*
X103925000Y-92785000D01*
X106982071Y-91895000D02*
X106585000Y-91895000D01*
X106982071Y-91135000D02*
X106585000Y-91135000D01*
X97925000Y-91895000D02*
X103925000Y-91895000D01*
X97925000Y-91135000D02*
X97925000Y-91895000D01*
X103925000Y-91135000D02*
X97925000Y-91135000D01*
X106585000Y-90245000D02*
X103925000Y-90245000D01*
X106982071Y-89355000D02*
X106585000Y-89355000D01*
X106982071Y-88595000D02*
X106585000Y-88595000D01*
X97925000Y-89355000D02*
X103925000Y-89355000D01*
X97925000Y-88595000D02*
X97925000Y-89355000D01*
X103925000Y-88595000D02*
X97925000Y-88595000D01*
X106585000Y-87705000D02*
X103925000Y-87705000D01*
X106915000Y-86815000D02*
X106585000Y-86815000D01*
X106915000Y-86055000D02*
X106585000Y-86055000D01*
X103925000Y-86715000D02*
X97925000Y-86715000D01*
X103925000Y-86595000D02*
X97925000Y-86595000D01*
X103925000Y-86475000D02*
X97925000Y-86475000D01*
X103925000Y-86355000D02*
X97925000Y-86355000D01*
X103925000Y-86235000D02*
X97925000Y-86235000D01*
X103925000Y-86115000D02*
X97925000Y-86115000D01*
X97925000Y-86815000D02*
X103925000Y-86815000D01*
X97925000Y-86055000D02*
X97925000Y-86815000D01*
X103925000Y-86055000D02*
X97925000Y-86055000D01*
X103925000Y-85105000D02*
X106585000Y-85105000D01*
X103925000Y-95385000D02*
X103925000Y-85105000D01*
X106585000Y-95385000D02*
X103925000Y-95385000D01*
X106585000Y-85105000D02*
X106585000Y-95385000D01*
D12*
X103973333Y-83617380D02*
X103973333Y-84331666D01*
X104020952Y-84474523D01*
X104116190Y-84569761D01*
X104259047Y-84617380D01*
X104354285Y-84617380D01*
X103592380Y-83617380D02*
X102925714Y-83617380D01*
X103354285Y-84617380D01*
M02*
