M48
; DRILL file {KiCad (5.1.4)-1} date 03/10/2019 04:56:47
; FORMAT={-:-/ absolute / inch / decimal}
; #@! TF.CreationDate,2019-10-03T04:56:47-04:00
; #@! TF.GenerationSoftware,Kicad,Pcbnew,(5.1.4)-1
; #@! TF.FileFunction,Plated,1,2,PTH
FMAT,2
INCH
T1C0.0130
T2C0.0300
T3C0.0315
T4C0.0354
T5C0.0394
T6C0.0400
T7C0.0433
T8C0.0591
T9C0.0630
T10C0.0709
%
G90
G05
T1
X3.6Y-2.65
X3.85Y-2.1
X3.85Y-2.2
X3.95Y-2.3
X4.0Y-3.0
X4.4Y-2.0
T2
X5.4508Y-3.251
X5.4508Y-3.999
X5.55Y-3.251
X5.55Y-3.999
X5.65Y-3.999
X5.95Y-3.251
X5.95Y-3.999
X6.05Y-3.251
X6.05Y-3.999
X1.5457Y-2.126
X1.5457Y-3.7008
X2.2543Y-2.126
X2.2543Y-3.7008
T3
X4.9346Y-3.1102
X5.3346Y-3.1102
X2.5591Y-2.1591
X2.5591Y-2.5591
T4
X1.8925Y-1.475
X1.9713Y-1.475
X2.05Y-1.475
T5
X2.2Y-3.937
X2.3Y-3.937
X1.5551Y-1.7913
X1.5551Y-1.8913
X6.3016Y-3.9163
X6.4Y-3.9163
X6.4984Y-3.9163
X4.9094Y-3.3465
X4.9094Y-3.9173
X5.0079Y-3.9173
X5.1063Y-3.3465
X5.1063Y-3.9173
X4.253Y-3.403
X4.253Y-3.503
X4.253Y-3.603
X4.253Y-3.703
X1.875Y-3.937
X1.975Y-3.937
T6
X2.6118Y-3.2496
X2.6118Y-3.8496
X2.7118Y-3.2496
X2.7118Y-3.8496
X2.8118Y-3.2496
X2.8118Y-3.8496
X2.9118Y-3.2496
X2.9118Y-3.8496
X3.0118Y-3.2496
X3.0118Y-3.8496
X3.1118Y-3.2496
X3.1118Y-3.8496
X3.2118Y-3.2496
X3.2118Y-3.8496
X3.3118Y-3.2496
X3.3118Y-3.8496
X3.4118Y-3.2496
X3.4118Y-3.8496
X3.5118Y-3.2496
X3.5118Y-3.8496
X3.6118Y-3.2496
X3.6118Y-3.8496
X3.7118Y-3.2496
X3.7118Y-3.8496
X3.8118Y-3.2496
X3.8118Y-3.8496
X3.9118Y-3.2496
X3.9118Y-3.8496
X4.0118Y-3.2496
X4.0118Y-3.8496
X4.1118Y-3.2496
X4.1118Y-3.8496
X4.2118Y-3.2496
X4.2118Y-3.8496
X4.3118Y-3.2496
X4.3118Y-3.8496
X4.3618Y-3.4
X4.3618Y-3.5
X4.3618Y-3.6
X4.3618Y-3.7
X4.4118Y-3.2496
X4.4118Y-3.8496
X4.5118Y-3.2496
X4.5138Y-3.8496
X2.8Y-1.7717
X2.8Y-1.8717
X2.8Y-1.9717
X2.8Y-2.0717
X2.8Y-2.1717
X2.8Y-2.2717
X2.8Y-2.3717
X2.8Y-2.4717
X2.8Y-2.5717
X5.3008Y-1.9717
X5.3008Y-2.0717
X5.3008Y-2.1717
X5.3008Y-2.2717
X5.3008Y-2.3717
T7
X5.5531Y-1.7165
X5.6516Y-1.7165
X5.75Y-1.5
X5.8484Y-1.7165
X5.9469Y-1.7165
X6.1531Y-1.7126
X6.2516Y-1.7126
X6.35Y-1.4961
X6.4484Y-1.7126
X6.5469Y-1.7126
X5.7547Y-2.525
X6.3453Y-2.525
T8
X1.8098Y-1.475
X2.1327Y-1.475
T9
X2.24Y-1.7319
X2.425Y-1.6138
X2.425Y-1.85
T10
G00X4.7835Y-3.6063
M15
G01X4.7835Y-3.6378
M16
G05
G00X5.2323Y-3.6063
M15
G01X5.2323Y-3.6378
M16
G05
T0
M30
